<svg width="123" height="65" viewBox="0 0 123 65" fill="none" xmlns="http://www.w3.org/2000/svg">
<g clip-path="url(#clip0_368_5384)">
<path d="M10.5705 64.4198L9.82082 62.1652H4.60377L3.84907 64.4198H0L5.58492 50.0568H8.82059L14.3774 64.4198H10.5705ZM5.65092 59.1135H8.75466L7.37279 55.0946L7.20761 54.4248L7.05671 55.0804L5.65092 59.1135Z" fill="black"/>
<path d="M15.0128 57.2266C15.0081 56.2568 15.1941 55.295 15.5607 54.3969C15.9274 53.4989 16.4672 52.6818 17.1499 51.9925C17.8322 51.3028 18.6439 50.7545 19.5379 50.3788C20.4323 50.003 21.3919 49.807 22.3621 49.8023H22.5225C24.3058 49.7869 26.037 50.4033 27.409 51.5427L25.3291 54.335C24.523 53.7109 23.541 53.356 22.5225 53.3209C22.0061 53.3209 21.4948 53.4227 21.0175 53.6205C20.5407 53.8183 20.107 54.1083 19.7422 54.4735C19.3775 54.839 19.0881 55.2726 18.8907 55.7499C18.6937 56.2271 18.5926 56.7384 18.5929 57.2548C18.5929 58.2972 19.0072 59.2963 19.7441 60.0332C20.481 60.7701 21.4801 61.184 22.5225 61.184C23.5615 61.1986 24.5691 60.8291 25.3525 60.1464L27.3999 62.9764C26.0235 64.1056 24.2929 64.7121 22.513 64.6886C20.5432 64.7103 18.6461 63.9484 17.2378 62.5713C15.8296 61.1942 15.026 59.3142 15.0037 57.3445L15.0128 57.2266Z" fill="black"/>
<path d="M28.5282 57.2266C28.5231 56.2568 28.7091 55.295 29.0757 54.3969C29.4424 53.4989 29.9826 52.6818 30.6649 51.9925C31.3473 51.3028 32.1589 50.7545 33.0533 50.3788C33.9473 50.003 34.9069 49.807 35.8771 49.8023H36.0375C37.8208 49.7869 39.5521 50.4033 40.924 51.5427L38.8393 54.335C38.0372 53.7065 37.056 53.3498 36.0375 53.3165C35.5229 53.3388 35.0178 53.4623 34.5512 53.6802C34.0843 53.8977 33.6653 54.2054 33.3173 54.5852C32.9694 54.965 32.6998 55.4093 32.524 55.8934C32.3482 56.3776 32.2695 56.8915 32.2922 57.4057C32.335 58.3851 32.7434 59.3124 33.4367 60.005C34.1304 60.6976 35.0581 61.1049 36.0375 61.1462C37.0762 61.1646 38.0848 60.7965 38.8675 60.1134L40.9196 62.9435C39.5473 64.0829 37.816 64.6996 36.0327 64.6839C34.0656 64.7081 32.1695 63.9499 30.7612 62.5761C29.3534 61.2023 28.5483 59.3256 28.5234 57.3588L28.5282 57.2266Z" fill="black"/>
<path d="M42.9531 58.7978V50.081H46.6607V58.2788C46.6607 60.0808 47.6042 61.2836 49.1747 61.2836C50.7455 61.2836 51.722 60.0665 51.722 58.2788V50.081H55.4955V58.7978C55.4955 62.2032 53.2408 64.7267 49.2314 64.7267C45.2221 64.7267 42.9531 62.2032 42.9531 58.7978Z" fill="black"/>
<path d="M57.4861 62.0901L58.5991 61.0334C59.1719 61.6773 59.8766 62.1904 60.6655 62.538C61.4541 62.8852 62.3082 63.0592 63.17 63.0475C65.099 63.0475 66.6087 62.1655 66.6087 60.472C66.6087 58.7788 64.9199 58.2836 62.651 57.6939C60.5425 57.1515 58.1464 56.4014 58.1464 53.7362C58.1464 51.4816 60.1462 49.8825 63.104 49.8825C64.8983 49.8682 66.6351 50.5165 67.9811 51.7035L66.9669 52.859C65.9044 51.9408 64.546 51.4383 63.1418 51.4438C61.3208 51.4438 59.7971 52.3071 59.7971 53.8025C59.7971 55.2975 61.4577 55.7975 63.434 56.3308C65.9861 57.0805 68.321 57.8353 68.321 60.4533C68.321 63.0713 66.0663 64.6279 63.17 64.6279C62.0939 64.6498 61.0263 64.4341 60.0436 63.9953C59.061 63.5566 58.1878 62.9061 57.4861 62.0901Z" fill="black"/>
<path d="M71.6095 64.4202V50.081H81.7324V51.694H73.3078V56.2978H80.171V57.9016H73.3078V62.7977H81.8737V64.4202H71.6095Z" fill="black"/>
<path d="M95.4673 64.4202H93.5803L91.1843 59.2315C90.8558 59.2732 90.5247 59.2937 90.1936 59.293H86.6512V64.4059H84.958V50.0667H90.6181C93.5426 50.0667 95.453 51.8921 95.453 54.6844C95.4988 55.559 95.2702 56.426 94.7992 57.1643C94.3279 57.9027 93.6382 58.4752 92.8259 58.8022L95.4673 64.4202ZM86.6512 57.7078H90.4247C92.4153 57.7078 93.6844 56.5758 93.6844 54.7035C93.6844 52.8308 92.3871 51.7035 90.4247 51.7035H86.6512V57.7078Z" fill="black"/>
<path d="M102.56 64.4202L96.7437 50.081H98.5599L103.305 62.0901L108.022 50.081H109.838L104.041 64.4202H102.56Z" fill="black"/>
<path d="M112.414 64.4202V50.081H122.527V51.694H114.117V56.2978H120.985V57.9016H114.117V62.7977H122.673V64.4202H112.414Z" fill="black"/>
<path d="M33.6863 24.3426C33.0805 24.3415 32.5897 23.8499 32.5897 23.2438V18.9671C32.5897 18.6177 32.756 18.2891 33.0376 18.0822L37.7268 14.6332C38.3205 14.1966 38.3241 13.3103 37.7337 12.8686L32.4183 8.89143C32.0301 8.601 31.4972 8.59916 31.1071 8.88704L12.0217 22.9783C11.7411 23.1852 11.5756 23.5134 11.5756 23.862V24.7652C11.5756 25.3721 12.0674 25.864 12.6743 25.864H14.4957C15.1026 25.864 15.5945 26.3559 15.5945 26.9627V40.4255C15.5945 41.0324 16.0863 41.5242 16.6932 41.5242H38.7691C39.376 41.5242 39.8679 41.0324 39.8679 40.4255V25.4512C39.8679 24.8454 39.3775 24.3535 38.7713 24.3525L33.6863 24.3426Z" fill="black"/>
<path d="M73.5756 41.5195H73.0892C72.4824 41.5195 71.9905 41.0276 71.9905 40.4207V22.3688C71.9905 21.7619 71.4986 21.2701 70.8917 21.2701H56.2592C55.6523 21.2701 55.1604 21.7619 55.1604 22.3688V40.4207C55.1604 41.0276 54.6685 41.5195 54.0617 41.5195H53.7372C53.7335 41.5195 53.7295 41.5184 53.7262 41.5165L53.7064 41.5041C53.7009 41.5004 53.6936 41.5045 53.6936 41.5111C53.6936 41.5158 53.6895 41.5195 53.6852 41.5195H43.9289C43.3224 41.5195 42.8301 41.0276 42.8301 40.4207V22.3688C42.8301 21.7619 42.3383 21.2701 41.7314 21.2701H36.7716C36.3456 21.2701 36.0002 20.9247 36.0002 20.4987C36.0002 20.2541 36.1163 20.0237 36.313 19.8783L62.9224 0.215082C63.3106 -0.0716941 63.8403 -0.0716941 64.2285 0.215082L90.8379 19.8783C91.0349 20.0237 91.151 20.2541 91.151 20.4987C91.151 20.9247 90.8057 21.2701 90.3797 21.2701H85.4195C84.8126 21.2701 84.3208 21.7619 84.3208 22.3688V40.4207C84.3208 41.0276 83.8289 41.5195 83.222 41.5195H73.5756Z" fill="black"/>
<path d="M95.798 8.84967C95.4076 8.56143 94.8743 8.56363 94.4864 8.8548L89.1652 12.8462C88.5766 13.2879 88.5799 14.1717 89.1718 14.609L93.8594 18.0723C94.14 18.2796 94.3055 18.6074 94.3055 18.9561V23.2559C94.3055 23.8624 93.8133 24.3546 93.2068 24.3546H88.1682C87.5613 24.3546 87.0695 24.8465 87.0695 25.4534V40.4251C87.0695 41.032 87.5613 41.5239 88.1682 41.5239H110.244C110.851 41.5239 111.343 41.032 111.343 40.4251V26.9389C111.343 26.332 111.835 25.8402 112.442 25.8402H114.258C114.865 25.8402 115.357 25.3483 115.357 24.7414V23.8386C115.357 23.4895 115.191 23.1614 114.911 22.9545L95.798 8.84967Z" fill="black"/>
</g>
<defs>
<clipPath id="clip0_368_5384">
<rect width="122.673" height="64.7267" fill="white"/>
</clipPath>
</defs>
</svg>
