<svg width="137" height="21" viewBox="0 0 137 21" fill="none" xmlns="http://www.w3.org/2000/svg">
<g clip-path="url(#clip0_338_465)">
<path d="M7.00423 13.5531C5.23356 14.0681 2.46408 14.9572 1.30442 16.2552C1.12361 16.4572 1.04131 16.6904 1.02385 16.9772C0.449011 16.3799 -0.0909191 15.5594 0.0125778 14.7389C0.162212 13.5606 1.30567 12.7912 2.34562 12.2687C5.10887 10.8834 9.52806 10.1664 12.6841 9.80476C21.4389 8.80471 31.6128 9.04038 40.3864 9.85339L41.0111 9.92322L39.7492 9.97559L37.2453 10.0255C30.0853 10.1689 21.1135 10.7861 14.0632 11.9857C11.6616 12.3947 9.33229 12.8748 7.00423 13.5518V13.5531Z" fill="white"/>
<path d="M15.9823 3.50767C15.8713 3.36801 15.7167 3.38048 15.5645 3.45405L13.2639 9.1389L9.47192 9.6489L13.2128 0.427704H18.2392L21.5811 8.60645C20.369 8.63139 19.2468 8.66132 18.0534 8.74861L15.981 3.50767H15.9823Z" fill="white"/>
<path d="M41.3515 14.5943L41.3652 18.7853C39.9561 19.6632 38.4074 20.1383 36.7702 20.253C33.7301 20.4662 30.8285 19.2405 28.8633 16.9211C27.438 15.3076 26.5876 13.2701 26.4404 11.1216L29.7336 10.9096C29.8558 12.4533 30.4706 13.8536 31.4931 14.9859C32.639 16.2814 34.2326 17.0358 35.9709 17.072C37.1218 17.1219 38.1917 16.8588 39.1656 16.2677C39.9586 15.8101 40.5971 15.239 41.3515 14.5931V14.5943Z" fill="white"/>
<path d="M31.5791 5.24218C30.6813 6.2148 30.1027 7.33706 29.8484 8.63389C28.7348 8.57029 27.6575 8.56655 26.5327 8.58276C26.8282 6.62006 27.6587 4.85562 28.9443 3.38173C32.0368 -0.279319 37.2889 -1.06365 41.3664 1.49883L41.3577 5.60504C40.5148 4.87059 39.708 4.21968 38.7167 3.78699C36.2589 2.65226 33.3909 3.20466 31.5779 5.24218H31.5791Z" fill="white"/>
<path d="M22.5462 19.935L20.515 14.8225L19.2705 11.8211L22.7483 11.4495L26.2272 19.915L22.5462 19.935Z" fill="white"/>
<path d="M8.91703 19.9238L5.29089 19.9188L7.72494 13.9459C9.04796 13.5843 10.3248 13.3012 11.7027 13.0094L11.1204 14.5394L8.91578 19.9238H8.91703Z" fill="white"/>
<path d="M72.8968 13.3174L77.821 19.9101L73.7709 19.93L69.2457 13.7726H64.743V19.9288H61.4523V0.430191L70.1173 0.446401C71.4191 0.448895 72.6387 0.712002 73.8071 1.2245C76.9319 2.66722 77.7686 5.90929 77.0566 9.10648C76.7536 10.225 76.2049 11.2038 75.3483 11.9732C74.6438 12.5905 73.8607 13.0207 72.8993 13.3187L72.8968 13.3174ZM73.7958 6.03898C73.6026 5.03518 72.9579 4.25958 72.0114 3.87178C71.3493 3.60867 70.6672 3.46153 69.9303 3.45779L64.7417 3.43784V10.5617L70.0313 10.5417C70.7046 10.5392 71.3281 10.4058 71.9404 10.1764C73.7036 9.56411 74.13 7.77099 73.7971 6.03773L73.7958 6.03898Z" fill="white"/>
<path d="M47.5014 11.3959L47.5063 16.8438L59.0381 16.845L58.5942 19.9275L44.1732 19.9288L44.172 12.7276L47.4627 9.93445L44.1745 7.08766L44.172 0.42894L58.4072 0.430187L58.7813 3.50641L47.4989 3.50766L47.4976 8.38698L56.8435 8.39072V11.3996L47.5014 11.3959Z" fill="white"/>
<path d="M131.138 17.6768C129.996 19.2716 127.847 19.8839 125.906 19.8864L116.264 19.8988L115.892 16.8139L125.791 16.8076C127.324 16.7752 128.614 16.3563 128.721 14.7402C128.783 13.8287 128.422 13.0431 127.627 12.5593C127.077 12.2251 126.483 11.9932 125.83 11.8535L120.928 10.8073C119.974 10.6041 119.117 10.2375 118.312 9.71624C117.231 9.01545 116.528 7.95555 116.303 6.68989C115.892 4.35311 116.565 2.09363 118.812 1.07736C119.813 0.623475 120.853 0.471347 121.978 0.41274L130.617 0.405258L131.082 3.48398L122.436 3.49021C121.083 3.51017 119.672 3.80445 119.584 5.22472C119.534 6.02651 119.874 6.70485 120.574 7.12508C121.234 7.52036 121.942 7.7897 122.716 7.94931L126.781 8.79225C127.78 8.99924 128.703 9.3247 129.582 9.81849C130.461 10.3123 131.126 10.9582 131.558 11.8386C131.965 12.664 132.063 13.5357 132.058 14.4547C132.053 15.6118 131.816 16.7291 131.137 17.6768H131.138Z" fill="white"/>
<path d="M110.84 0.435186L114.146 0.427704L114.111 12.1553C114.107 13.5456 113.812 14.8674 113.292 16.1206C112.512 17.9972 110.961 19.3128 108.986 19.8265C107.037 20.3328 104.97 20.3403 103.008 19.8602C101.737 19.5485 100.621 18.925 99.7523 17.9736C98.2297 16.3064 97.8108 13.9434 97.7297 11.7051L97.7247 0.433939L101.037 0.430198L101.04 11.8772C101.151 14.1043 101.853 16.2066 104.161 16.774C105.321 17.0583 106.541 17.0595 107.704 16.7752C108.983 16.4622 109.935 15.5757 110.376 14.3499C110.683 13.497 110.829 12.6416 110.829 11.7064L110.839 0.437679L110.84 0.435186Z" fill="white"/>
<path d="M88.5135 19.92L85.1842 19.9312L85.1854 3.51015L78.0579 3.50641L78.0653 0.42894H95.605L95.6062 3.50641L88.5123 3.50891L88.5135 19.92Z" fill="white"/>
<path d="M136.899 3.21213C136.545 4.30571 135.199 4.52642 134.177 4.20845C133.223 3.91167 132.914 2.92534 133.126 1.95521C133.26 1.34296 133.719 0.904029 134.335 0.766864C135.211 0.571093 136.393 0.693294 136.782 1.48386C137.049 2.02504 137.05 2.63854 136.899 3.21338V3.21213ZM136.505 3.27573C136.726 2.73705 136.727 2.08115 136.409 1.58112C135.964 0.87909 134.481 0.854151 133.908 1.42525C133.38 1.95147 133.354 3.49145 134.304 3.85556C135.07 4.14859 136.208 3.99896 136.504 3.27573H136.505Z" fill="white"/>
<path d="M135.076 2.82184C135.025 2.75949 135.045 2.65101 135.061 2.61235C135.115 2.48517 135.489 2.60737 135.566 2.36421C135.611 2.2258 135.547 2.05996 135.378 2.03252C135.183 2.0001 134.999 1.99511 134.804 2.03252V3.39918C134.662 3.46028 134.504 3.4528 134.343 3.40417V1.61978L135.455 1.62352C135.787 1.62352 136.107 1.93401 136.057 2.27443C136.019 2.5338 135.772 2.71086 135.56 2.85925C135.692 3.03507 135.867 3.11862 135.951 3.34556C135.852 3.3917 135.583 3.44407 135.502 3.34556L135.076 2.82184Z" fill="white"/>
</g>
<defs>
<clipPath id="clip0_338_465">
<rect width="137" height="20.2767" fill="white"/>
</clipPath>
</defs>
</svg>
