<svg width="120" height="23" viewBox="0 0 120 23" fill="none" xmlns="http://www.w3.org/2000/svg">
<g clip-path="url(#clip0_343_1122)">
<path d="M6.067 0.182673C6.9982 -0.101111 7.93228 -0.0539742 8.87117 0.32216L13.6753 2.42024C15.1115 3.01571 15.7984 4.14219 15.7368 5.80064L15.2472 17.0712L16.5718 16.3084L19.933 14.3729C20.6073 13.8784 20.9989 13.2627 21.1124 12.4816C21.2413 11.6293 21.7896 9.94582 20.9142 9.47733L17.3501 7.71498C17.2404 7.66111 17.1721 7.54952 17.1721 7.42735V6.27201C17.1721 6.03536 17.4193 5.88049 17.631 5.98342L21.9762 8.0815C22.9815 8.53459 23.4461 9.39075 23.3663 10.65L22.8526 13.4782C22.6285 14.4412 22.1061 15.1838 21.2846 15.7033L16.2804 18.7518C16.1178 18.847 15.9494 18.9326 15.7772 19.0096C14.519 19.5637 13.3098 19.4213 12.1496 18.5825L4.24116 12.0227C3.99682 11.763 3.79865 11.4619 3.6582 11.1339L3.49755 11.2041C3.08582 11.3542 2.90016 11.7149 2.94152 12.2873C2.94922 12.4123 2.96942 12.548 3.0002 12.6932L3.93621 17.7763C4.11802 18.4949 4.34313 19.0029 4.61248 19.302L5.83035 20.5209C6.32 20.9518 6.87699 21.0067 7.50227 20.6873L10.3295 19.0606C10.4488 18.9923 10.5979 19.0058 10.7009 19.0962L11.5926 19.8744C11.7571 20.0178 11.734 20.2794 11.5464 20.391L8.14584 22.4208C6.7173 23.2596 5.56196 23.1827 4.60575 22.2245L3.04349 20.5286C2.61349 20.0534 2.25755 19.2434 1.96896 18.0986L0.877111 12.9376C0.449992 11.2859 0.893465 10.1719 2.44322 9.49561L13.6753 4.99162C13.507 4.70687 13.2607 4.47696 12.9654 4.32785L12.4911 4.0989L8.98084 2.41158C8.04098 2.03449 7.15596 1.93636 6.22476 2.22015L5.39457 2.50874C4.72119 2.76559 4.51917 3.10228 4.62499 3.78241L4.96842 6.85593C4.98477 6.99254 4.9107 7.12336 4.78468 7.17916C4.38642 7.35328 3.90831 7.53702 3.58413 7.65823C3.4937 7.69093 3.39365 7.68131 3.31092 7.63225C3.22915 7.58223 3.17336 7.49758 3.16182 7.40234L2.61445 3.2764C2.39512 1.85556 2.90016 1.16293 4.07762 0.778139L6.067 0.182673ZM5.16658 10.4701L5.19737 10.5413C5.35802 10.8847 5.59274 11.1656 5.89288 11.3782L13.0644 16.9154C13.1655 16.9923 13.2693 17.0597 13.3752 17.1155C13.6176 16.9452 13.7426 16.6931 13.7628 16.3613L13.9533 6.60678L5.16658 10.4711V10.4701Z" fill="#36B7F6"/>
<path d="M112.537 18.7192C112.324 18.7192 112.181 18.5999 112.086 18.3623L107.479 7.41494C107.313 7.03399 107.574 6.70211 107.906 6.70211H109.189C109.402 6.70211 109.544 6.79735 109.64 7.05804L113.178 15.6562C113.208 15.7207 113.273 15.763 113.344 15.763C113.416 15.763 113.481 15.7207 113.511 15.6562L117.05 7.059C117.168 6.79831 117.286 6.70307 117.501 6.70307H118.806C119.139 6.70307 119.377 7.03496 119.234 7.4159L114.628 18.3632C114.531 18.6009 114.39 18.7192 114.176 18.7192H112.537ZM98.1767 22.9933C97.8208 22.9933 97.6313 22.6133 97.7968 22.2804L99.7207 18.0304C99.839 17.7928 99.7919 17.6495 99.7207 17.4599L95.209 7.46207C94.9945 7.01091 95.2561 6.70211 95.564 6.70211H96.9896C97.2032 6.70211 97.2975 6.79735 97.4408 7.05804L100.884 14.8713C100.956 15.0146 101.169 15.0146 101.241 14.8713L104.685 7.05804C104.803 6.79735 104.922 6.70211 105.136 6.70211H106.512C106.821 6.70211 107.082 7.01091 106.892 7.46207L100.005 22.6373C99.8871 22.899 99.7678 22.9933 99.5543 22.9933H98.1767ZM87.7748 15.0617C87.7748 17.2223 88.986 18.7192 91.4082 18.7192H93.5939C93.8555 18.7182 94.0671 18.5056 94.0681 18.244V17.0569C94.0671 16.7943 93.8555 16.5826 93.5939 16.5817H91.6458C90.5771 16.5817 89.9123 16.0112 89.9123 14.8482V9.00509C89.9123 8.86272 90.0076 8.76748 90.15 8.76748H93.5939C93.8555 8.76652 94.0671 8.55488 94.0681 8.29323V7.17637C94.0681 6.91471 93.8555 6.70211 93.5939 6.70115H90.15C90.0076 6.70115 89.9123 6.60591 89.9123 6.46354V2.97251C89.9114 2.71085 89.6988 2.49922 89.4371 2.49825H88.25C87.9884 2.49922 87.7758 2.71085 87.7748 2.97347V15.0617ZM74.5486 22.9933C74.2859 22.9933 74.0733 22.7807 74.0724 22.519V7.17733C74.0724 6.91567 74.2869 6.70211 74.5486 6.70211H75.4028C75.9963 6.70211 75.9021 7.48612 76.5658 7.48612C77.3268 7.48612 77.7779 6.32213 80.2714 6.32213C81.8625 6.32213 83.1679 6.89258 84.0953 7.88919C85.1871 9.00605 85.7806 10.7155 85.7806 12.7106C85.7806 14.7058 85.1871 16.4152 84.0953 17.5542C83.1679 18.5528 81.8625 19.0982 80.2714 19.0982C77.8963 19.0982 77.3498 18.0535 76.6851 18.0535C76.3763 18.0535 76.2109 18.2209 76.2109 18.5758V22.519C76.2099 22.7807 75.9973 22.9933 75.7347 22.9933H74.5486ZM76.1397 12.7106C76.1397 13.9458 76.4475 14.9905 77.042 15.7265C77.6827 16.5105 78.6091 16.9847 79.8433 16.9847C81.0544 16.9847 82.0289 16.5105 82.6456 15.7265C83.2401 14.9896 83.5729 13.9458 83.5729 12.7106C83.5729 11.4995 83.2401 10.4307 82.6456 9.69387C82.0289 8.91082 81.0544 8.45965 79.8433 8.45965C78.6091 8.45965 77.6827 8.91082 77.042 9.69387C76.4475 10.4307 76.1397 11.4995 76.1397 12.7106ZM64.9008 19.0982C61.9562 19.0982 60.4603 17.3407 60.4603 15.157C60.4603 13.0185 61.7888 11.4283 64.7816 11.4283H68.6054C68.7719 11.4283 68.843 11.3562 68.843 11.1907V10.5972C68.843 9.19556 67.8686 8.24609 65.9927 8.24609C64.2592 8.24609 63.1433 8.982 63.0721 9.93148C63.0481 10.2884 62.8105 10.3355 62.5488 10.3355H61.4339C61.077 10.3355 60.9346 10.1691 60.9577 9.86029C60.9827 7.74682 63.1193 6.32213 65.9696 6.32213C68.9854 6.32213 70.9325 7.69872 70.9325 10.6684V18.244C70.9315 18.5066 70.7189 18.7182 70.4572 18.7192H69.628C68.9623 18.7192 69.1288 17.9592 68.4159 17.9592C67.7512 17.9592 67.1086 19.0982 64.9008 19.0982ZM62.6681 15.0858C62.6681 16.5105 63.7128 17.1992 65.3751 17.1992C67.2279 17.1992 68.843 16.1536 68.843 14.2777V13.5889C68.843 13.3523 68.7719 13.257 68.6054 13.257H64.9008C63.405 13.257 62.6681 13.9218 62.6681 15.0858ZM51.9391 19.0982C50.348 19.0982 49.0416 18.5528 48.0912 17.5552C47.0234 16.4152 46.4058 14.7058 46.4058 12.7106C46.4058 10.7155 47.0234 9.00605 48.0912 7.88919C49.0416 6.89258 50.348 6.32213 51.9391 6.32213C54.3373 6.32213 54.8597 7.36684 55.5244 7.36684C55.8332 7.36684 55.9766 7.22446 55.9766 6.84448V2.09518C55.9766 1.83449 56.1901 1.61996 56.4749 1.61996H57.6629C57.9236 1.61996 58.1372 1.83449 58.1372 2.09518V18.244C58.1362 18.5056 57.9246 18.7182 57.6629 18.7192H56.8077C56.2132 18.7192 56.3094 17.9592 55.6206 17.9592C54.8597 17.9592 54.4326 19.0982 51.9391 19.0982ZM48.6386 12.7106C48.6386 13.9458 48.9464 14.9905 49.564 15.7265C50.1816 16.5105 51.132 16.9847 52.3672 16.9847C53.5774 16.9847 54.5278 16.5105 55.1454 15.7265C55.7389 14.9905 56.0708 13.9458 56.0708 12.7106C56.0708 11.4995 55.7389 10.4307 55.1454 9.69387C54.5278 8.91082 53.5774 8.45965 52.3662 8.45965C51.132 8.45965 50.1816 8.91082 49.564 9.69387C48.9474 10.4307 48.6386 11.4995 48.6386 12.7106ZM31.1623 18.7192C30.7813 18.7192 30.6159 18.3863 30.7342 18.1016L36.8139 2.47517C36.9091 2.23756 37.0996 2.09518 37.3132 2.09518H39.2131C39.4507 2.09518 39.6161 2.23756 39.7114 2.47517L45.8142 18.1016C45.9335 18.3863 45.743 18.7192 45.364 18.7192H43.796C43.5824 18.7192 43.416 18.6239 43.3207 18.3623L41.9441 14.8482C41.872 14.6577 41.7777 14.5394 41.5642 14.5394H34.9611C34.7476 14.5394 34.6533 14.6577 34.5821 14.8472L33.2286 18.3632C33.1334 18.6239 32.9429 18.7192 32.7293 18.7192H31.1623ZM35.5316 11.9507C35.4373 12.2354 35.5787 12.3547 35.7211 12.3547H40.8042C40.9466 12.3547 41.0889 12.2354 40.9937 11.9507L38.4531 5.23028C38.3819 5.01576 38.1434 5.01576 38.0722 5.23028L35.5316 11.9507Z" fill="#142933"/>
</g>
<defs>
<clipPath id="clip0_343_1122">
<rect width="120" height="23" fill="white"/>
</clipPath>
</defs>
</svg>
