<svg width="123" height="17" viewBox="0 0 123 17" fill="none" xmlns="http://www.w3.org/2000/svg">
<g clip-path="url(#clip0_387_576)">
<path d="M27.8863 8.59123C28.5435 7.60535 28.8721 6.47863 28.8252 5.25802C28.8252 4.45993 28.6844 3.66184 28.4027 2.9107C28.121 2.2065 27.6985 1.59619 27.0882 1.17367C26.4309 0.65726 25.6328 0.375581 24.8347 0.281688C24.6 0.234741 24.3653 0.234741 24.1775 0.234741C23.9427 0.234741 23.708 0.234741 23.5672 0.234741H17.1355V15.6332H20.0462V10.3752H23.2855L25.8206 15.5863H29.1069L26.2901 9.85879C26.9473 9.57711 27.5107 9.15459 27.8863 8.59123ZM20.0462 2.86375H23.4733C23.6141 2.86375 23.8019 2.86375 23.9427 2.86375C24.1305 2.86375 24.2714 2.9107 24.4122 2.95764C24.7408 3.05154 25.0695 3.23932 25.3042 3.521C25.5859 3.75573 25.7267 4.08436 25.8206 4.36604C25.9615 4.9294 25.9615 5.5397 25.8206 6.15001C25.7267 6.47863 25.5859 6.76031 25.3981 6.99505C25.1634 7.27673 24.8347 7.46451 24.5061 7.55841C24.3653 7.60535 24.1775 7.6523 24.0366 7.6523C23.8489 7.6523 23.708 7.6523 23.5672 7.6523H20.1401V2.86375H20.0462Z" fill="#1D1D1B"/>
<path d="M58.4015 6.47866H51.5473V0.140869H48.6366V15.5863H51.5473V9.20156H58.4015V15.5863H61.2652V0.140869H58.4015V6.47866Z" fill="#1D1D1B"/>
<path d="M69.1054 0.140869H66.1947V15.5393H69.1054V0.140869Z" fill="#1D1D1B"/>
<path d="M4.69466 0.140869L0 15.5863H3.00458L3.99046 12.347H9.76489L10.7508 15.5863H13.7084L9.01374 0.187816H4.69466V0.140869ZM4.78855 9.62408L6.80725 2.86377L8.8729 9.62408H4.78855Z" fill="#1D1D1B"/>
<path d="M41.6885 12.7225C40.9843 13.192 40.0923 13.3798 39.2473 13.3328C38.4022 13.3328 37.5572 13.0981 36.806 12.6756C36.1488 12.2061 35.6324 11.5958 35.3507 10.8447C35.0221 9.95267 34.8343 9.01374 34.8812 8.07481C34.8812 7.13588 35.0221 6.15 35.3507 5.25802C35.6324 4.50687 36.1488 3.84962 36.806 3.38015C37.5102 2.91069 38.4022 2.7229 39.2473 2.76985C40.0923 2.76985 40.9373 3.00458 41.6885 3.4271C41.9232 3.56794 42.158 3.75573 42.3457 3.99046L44.3175 1.87786C43.9889 1.54924 43.6133 1.26756 43.2377 1.03282C42.0171 0.328626 40.6557 0 39.2942 0C37.8858 0 36.5244 0.328626 35.3038 0.985878C34.177 1.64313 33.2851 2.62901 32.7217 3.80267C32.1114 5.11718 31.8297 6.57252 31.8297 8.02786C31.8297 9.48321 32.1583 10.9385 32.7217 12.2531C33.2851 13.4267 34.177 14.4126 35.3038 15.0698C36.5244 15.7271 37.8858 16.0557 39.2942 16.0557C40.7026 16.0557 42.0641 15.7271 43.2847 15.0698C43.7541 14.7882 44.1767 14.4595 44.5522 14.084L42.5805 11.9714C42.2988 12.2531 42.0171 12.5347 41.6885 12.7225Z" fill="#1D1D1B"/>
<path d="M99.7146 8.91988H105.536V6.19698H99.7146V2.86377H106.85V0.140869H96.8508V15.5863H106.85V12.8634H99.7146V8.91988Z" fill="#1D1D1B"/>
<path d="M122.296 4.27217C121.873 3.1924 121.216 2.30041 120.324 1.54927C119.432 0.798121 118.352 0.375602 117.179 0.234762C116.85 0.187816 116.474 0.140869 116.099 0.140869H115.348H110.371V15.5393H115.348H116.099C116.474 15.5393 116.803 15.4924 117.179 15.4454C118.305 15.3516 119.432 14.8821 120.324 14.1309C121.216 13.4267 121.873 12.4878 122.296 11.408C123.188 9.15461 123.188 6.57255 122.296 4.27217ZM119.573 9.99965C119.385 10.6569 119.056 11.2672 118.634 11.7836C118.211 12.2531 117.648 12.6287 116.991 12.7225C116.709 12.7695 116.427 12.8164 116.099 12.8164C115.77 12.8164 115.489 12.8164 115.301 12.8164H113.282V2.91072H115.301H116.099C116.38 2.91072 116.709 2.95766 116.991 3.00461C117.601 3.0985 118.164 3.42713 118.587 3.89659C119.01 4.41301 119.338 5.02331 119.526 5.63362C119.761 6.33782 119.855 7.08896 119.855 7.84011C119.901 8.59125 119.808 9.29545 119.573 9.99965Z" fill="#1D1D1B"/>
<path d="M86.8981 0.234741L83.1893 8.07482L79.4336 0.234741H76.476L72.8611 15.6332H75.9126L78.2599 4.74161L82.7199 13.2859H83.7057L88.1657 4.74161L90.466 15.6332H93.5645L89.8557 0.234741H86.8981Z" fill="#1D1D1B"/>
</g>
<defs>
<clipPath id="clip0_387_576">
<rect width="123" height="16.1027" fill="white"/>
</clipPath>
</defs>
</svg>
