<svg width="122" height="23" viewBox="0 0 122 23" fill="none" xmlns="http://www.w3.org/2000/svg">
<g clip-path="url(#clip0_378_88)">
<path d="M68.8446 0C69.1521 0.475444 69.1521 1.21818 68.5549 1.53278H58.8698L58.8839 3.22049L66.5419 3.20748C67.0339 3.20748 67.2941 3.46057 67.345 3.93484C67.3958 4.4091 67.1699 4.91529 66.6188 4.91647L58.8887 4.93067L58.8863 6.59827L68.5407 6.63257C68.9463 6.63375 69.0611 7.24166 69.0327 7.49239C69.0067 7.72065 68.9097 8.24577 68.5348 8.24695L57.9236 8.27652C57.5002 8.27652 57.2021 7.9773 57.2021 7.56453V0.593714L57.3819 0.0011827H68.8446V0Z" fill="#6C334B"/>
<path d="M95.3337 0C95.6105 0.493185 95.6424 1.22173 95.025 1.52805L85.3588 1.53396L85.3648 3.20629L93.251 3.24059C93.6768 3.24296 93.8388 3.787 93.8305 4.08031C93.8234 4.33459 93.7028 4.87863 93.3078 4.88099L85.3659 4.94841L85.3612 6.59472L95.0274 6.6373C95.4283 6.63966 95.5182 7.24757 95.5076 7.4983C95.4957 7.7857 95.3432 8.25523 94.9056 8.25641L84.4103 8.27652C84.0011 8.27652 83.6711 7.98439 83.6711 7.56453V0.593714L83.871 0.0011827H95.3314L95.3337 0Z" fill="#6C334B"/>
<path d="M55.5951 0.0012207C55.8009 0.282703 55.8601 1.4654 55.2758 1.47131L46.3524 1.55883C45.9088 1.56356 45.6617 1.9846 45.6463 2.31813C45.6309 2.65165 45.7657 3.17676 46.2223 3.18031L53.6307 3.23353C54.811 3.24181 55.6389 4.0969 55.7418 5.23111C55.8175 6.05782 55.769 6.93065 55.1966 7.58231C54.8146 8.01755 54.1487 8.25763 53.5301 8.25645L44.4825 8.23753C44.0556 8.23753 43.9538 7.66274 43.9621 7.39545C43.9692 7.16482 44.0733 6.64089 44.4612 6.63852L53.0571 6.60659C53.5869 6.60422 53.9713 6.39843 54.034 5.94901C54.0825 5.60957 54.0139 4.95791 53.5278 4.95436L46.1903 4.89995C44.9024 4.89049 44.0177 4.00347 43.968 2.71551C43.9373 1.90536 44.0189 1.02544 44.6481 0.453011C44.8196 0.296895 45.0975 0.234212 45.1933 0.0035861H55.5928L55.5951 0.0012207Z" fill="#6C334B"/>
<path d="M40.7 0C40.7379 0.14902 40.8999 0.305136 40.9508 0.5263L42.5344 7.33746C42.5959 7.60002 42.5214 7.91343 42.3428 8.07783C42.0802 8.31791 41.7207 8.31436 41.4014 8.18545C41.1897 8.1003 40.9815 7.86021 40.8975 7.55389L40.1737 4.93422L32.9463 4.93776L32.3537 7.55389C32.2733 7.9087 32.0226 8.20556 31.6607 8.25996C31.3721 8.30372 31.1261 8.29071 30.938 8.11331C30.8115 7.99385 30.6412 7.71947 30.7015 7.43799L32.1917 0.527483L32.5335 0H40.7ZM39.9395 3.20275L39.5457 1.53514L33.6168 1.5517L33.236 3.22522L39.9395 3.20275Z" fill="#6C334B"/>
<path d="M98.4229 0.0012207C98.4063 0.0887403 98.4619 0.179808 98.5896 0.262597L107.019 5.70774L107.071 0.544079L107.275 0.0012207H108.589C108.68 0.229481 108.761 0.497954 108.761 0.827926L108.757 7.44512C108.757 7.78219 108.62 8.12399 108.392 8.20205C108.164 8.2801 107.759 8.35698 107.521 8.20205L98.6239 2.38909L98.6109 7.44985C98.6098 7.95723 98.2963 8.30849 97.7606 8.26118C97.3301 8.34988 96.9303 8.03292 96.9291 7.56576L96.9197 0.709657C96.9197 0.431723 96.9859 0.198731 97.1054 0.0012207H98.4217H98.4229Z" fill="#6C334B"/>
<path d="M71.9316 0L76.343 3.02652L80.7758 0.0011827H81.9821C81.9857 0.123001 82.2341 0.313415 82.2341 0.52157L82.208 7.73248C82.2069 8.15825 81.6746 8.25878 81.3991 8.25168C81.1235 8.24458 80.6067 8.1204 80.6008 7.71947L80.5227 2.28261L76.9994 4.64445C76.5571 5.03238 75.9575 5.02765 75.5696 4.57349L72.1267 2.28497L72.1078 7.55862C72.1066 8.04353 71.7163 8.26351 71.2764 8.27652C70.8364 8.28953 70.4331 8.06481 70.4331 7.56453L70.439 0.593714C70.439 0.345348 70.743 0.157299 70.8506 0.00354809L71.9304 0.0011827L71.9316 0Z" fill="#6C334B"/>
<path d="M121.832 0C122.073 0.351261 122.119 1.44644 121.513 1.45708L116.929 1.53987L116.916 7.55389C116.916 8.07309 116.476 8.37941 115.988 8.26351C115.565 8.32028 115.225 8.03998 115.224 7.61421L115.205 1.52568L110.91 1.52331C110.45 1.52331 110.124 1.16851 110.169 0.709619C110.169 0.432867 110.252 0.208155 110.366 0.0023654L121.833 0L121.832 0Z" fill="#6C334B"/>
<path d="M72.1174 19.3288V21.0189L81.806 21.0768C82.3146 21.0804 82.4187 22.2146 82.0355 22.4535L70.6213 22.4618C70.49 22.4618 70.4084 22.0786 70.4273 21.9982L70.4214 15.0167C70.4261 14.6631 70.6508 14.2799 71.0577 14.2811L81.7895 14.3095C82.1537 14.3095 82.246 14.8606 82.2507 15.0865C82.2555 15.3349 82.1703 15.9262 81.7682 15.9286L72.1221 15.97L72.1186 17.6139L79.987 17.6494C80.3927 17.6518 80.5488 18.1461 80.563 18.3886C80.5819 18.702 80.4767 19.2862 80.0355 19.2886L72.1174 19.3253V19.3288Z" fill="#B06472"/>
<path d="M107.391 22.476L97.0994 22.4547C96.8652 22.3222 96.8463 21.8409 96.8865 21.6433C96.9303 21.4293 97.0864 21.0473 97.44 21.0461L106.036 21.0248C106.534 21.0236 106.874 20.8013 106.957 20.3554C107.025 19.9923 106.879 19.3454 106.353 19.3418L99.1928 19.3028C98.5494 19.2992 97.8859 19.1195 97.4649 18.6417C96.896 17.9971 96.8274 17.1467 96.9066 16.294C97.0012 15.2733 97.7487 14.3449 98.8841 14.3426L108.135 14.3224C108.557 14.3224 108.666 14.928 108.65 15.1811C108.631 15.4815 108.47 15.9392 108.038 15.9404L99.22 15.9759C98.7694 15.9782 98.573 16.417 98.5588 16.734C98.547 17.0214 98.6724 17.5831 99.0946 17.5879L106.62 17.66C107.219 17.6659 107.868 17.9604 108.193 18.4264C109.039 19.6351 108.866 21.952 107.39 22.4724L107.391 22.476Z" fill="#B06472"/>
<path d="M55.4544 18.7694C56.2716 20.5458 55.2687 22.4405 54.4668 22.4417L44.1904 22.4594C43.9396 22.4594 43.9254 21.9059 43.9467 21.7167C43.9716 21.5038 44.104 21.0615 44.4577 21.0603L53.1552 21.0201C53.7809 21.0177 54.0718 20.5872 54.0316 20.0526C53.989 19.492 53.5384 19.2981 52.9459 19.2981L46.104 19.3016C44.6457 19.3016 43.9053 18.1414 43.9219 16.7908C43.9373 15.5371 44.5913 14.3402 46.0046 14.3378L55.1717 14.3213C55.5596 14.3213 55.6886 14.8523 55.7063 15.0889C55.7264 15.3656 55.5869 15.9298 55.1469 15.9321L46.2317 15.9818C45.8012 15.9842 45.625 16.4407 45.6203 16.7375C45.6132 17.1125 45.7468 17.5985 46.2293 17.6021L53.6378 17.6577C54.4065 17.6636 55.1422 18.0929 55.4544 18.7706V18.7694Z" fill="#B06472"/>
<path d="M94.0468 22.444L88.6643 19.2957H85.3634L85.3421 21.9958C85.3409 22.1436 85.2806 22.4511 85.1174 22.4511H83.9383C83.781 22.4499 83.6781 22.1602 83.6781 21.9911L83.6733 15.0143C83.6733 14.6926 83.9371 14.2964 84.299 14.2976L93.4945 14.3236C94.4737 14.326 95.2307 15.0853 95.3903 15.9735C95.6955 17.6778 95.0154 19.1774 93.7322 19.2578L91.8978 19.3726L95.0107 21.0969C95.2673 21.2389 95.4424 21.4659 95.4459 21.7084C95.4495 21.9508 95.3608 22.3837 95.0403 22.4417C94.8215 22.4819 94.3318 22.5611 94.0492 22.4428L94.0468 22.444ZM93.2981 17.5914C93.7215 17.5891 93.7854 16.9693 93.7783 16.7328C93.7712 16.4962 93.6387 16.0031 93.2224 16.0007L85.3717 15.9605L85.3658 17.6411L93.2981 17.5914Z" fill="#B06472"/>
<path d="M40.1455 19.33L32.9027 19.3241C32.6354 20.3377 32.5751 21.3359 32.1883 22.2986C32.0866 22.5517 30.9855 22.5257 30.8306 22.4145C30.7253 22.34 30.6319 22.0727 30.6768 21.8681L32.1493 15.0498C32.2463 14.6004 32.6165 14.287 33.0836 14.287H40.0592C40.3738 14.287 40.8055 14.4727 40.8812 14.7944L42.5334 21.8752C42.5783 22.068 42.4814 22.3116 42.3938 22.3967C42.2803 22.5079 41.3483 22.528 41.1485 22.418C41.016 22.3459 40.9107 22.1342 40.8516 21.9178L40.1467 19.3288L40.1455 19.33ZM39.9161 17.6198L39.4761 15.9558L33.5827 15.9664L33.1984 17.6257L39.9161 17.6198Z" fill="#B06472"/>
<path d="M22.671 19.0959L19.1643 16.721L19.1099 21.9911C19.1087 22.1579 19.046 22.3282 18.968 22.3885C18.8107 22.5115 17.8645 22.5718 17.473 22.3306L17.4234 15.3775C17.421 14.9683 17.5499 14.6915 17.8302 14.4905C18.1105 14.2894 18.5067 14.2303 18.8603 14.4668L23.3097 17.4425L27.8654 14.4242C28.1611 14.2291 28.4887 14.2137 28.7323 14.3391C29.0268 14.4905 29.2539 14.7814 29.2539 15.1658L29.2634 21.8575C29.2634 22.0313 29.1948 22.3826 29.0351 22.4228C28.5951 22.5316 28.128 22.4902 27.7128 22.424C27.4905 22.0538 27.5626 21.6872 27.5615 21.291L27.5378 16.6536L23.7875 19.2C23.4078 19.4578 23.0412 19.3466 22.6734 19.0971L22.671 19.0959Z" fill="#B06472"/>
<path d="M63.732 22.4156C63.2849 22.5422 62.8473 22.4606 62.4251 22.4606C62.1791 22.2004 62.2098 21.8728 62.2098 21.5262L62.198 15.964L57.9226 15.9534C57.4116 15.9522 57.084 15.5276 57.1857 15.0143C57.129 14.6039 57.4294 14.2456 57.8788 14.2456L68.2724 14.242C68.7856 14.242 68.9879 14.6962 69.0044 15.09C69.0198 15.4543 68.7785 15.9321 68.3066 15.9356L63.9437 15.9652L63.9401 21.8799C63.9401 22.0253 63.9058 22.3671 63.7332 22.4156H63.732Z" fill="#B06472"/>
<path d="M12.3839 0L12.3461 9.42728L2.63257 9.41664L2.73428 0.0011827L12.3839 0Z" fill="#959699"/>
<path d="M13.4816 16.7458C13.1067 16.5554 12.7684 16.6548 12.358 16.6536L12.3485 11.8223H14.967L14.9706 22.4724H0V11.8211L2.5972 11.8104L2.60903 16.6181L1.44171 16.7186L7.47583 21.7309L13.4816 16.7446V16.7458Z" fill="#37493D"/>
<path d="M9.88953 11.8471H5.13745V16.585H9.88953V11.8471Z" fill="#F3C999"/>
<path d="M9.88953 2.52625H5.13745V7.26413H9.88953V2.52625Z" fill="#F3C999"/>
<path d="M28.0359 0C28.6403 0.321694 29.0909 0.85509 29.208 1.62857C29.5107 3.63561 28.671 4.07676 28.671 4.07794C28.6556 4.13944 28.9265 4.20922 28.9572 4.28137C29.383 5.28193 29.4303 6.58408 28.7644 7.51604C28.4014 8.0246 27.6704 8.24813 27.0413 8.24932L18.1817 8.27652C17.7618 8.2777 17.4626 7.98084 17.4614 7.5669L17.4531 1.18625C17.4531 0.7451 17.4531 0.361905 17.64 0.0011827H28.0371L28.0359 0ZM27.0838 3.17436C27.5132 3.172 27.6019 2.56409 27.59 2.32282C27.5782 2.06736 27.3949 1.56944 27.0046 1.56707L19.1255 1.5245L19.1373 3.2193L27.0826 3.17436H27.0838ZM27.1063 6.51785C27.5451 6.51312 27.6184 5.8851 27.5948 5.64147C27.5735 5.4203 27.4398 4.9354 27.0779 4.93422L19.1432 4.89519V6.60537L27.1051 6.51785H27.1063Z" fill="#6C334B"/>
</g>
<defs>
<clipPath id="clip0_378_88">
<rect width="122" height="22.5056" fill="white"/>
</clipPath>
</defs>
</svg>
