<svg width="127" height="40" viewBox="0 0 127 40" fill="none" xmlns="http://www.w3.org/2000/svg">
<g clip-path="url(#clip0_377_42)">
<path d="M57.7568 4.09619C58.0702 4.25027 58.7768 5.32348 58.7396 5.75382C58.6918 6.25855 58.9203 6.93329 58.6546 7.36895L58.2296 8.07557C57.9799 8.49529 57.6505 8.81938 57.2308 9.19659C58.2827 9.65351 59.2391 10.5142 59.4463 11.6884L59.4728 13.1547C59.2338 13.2716 59.2337 13.5372 59.1222 13.7923C58.4581 15.2905 57.2786 15.3383 56.1469 15.9759C55.9504 15.9068 55.6316 15.9759 55.4138 15.9759L48.3901 15.944L48.3795 4.02713C48.3795 3.73491 48.4751 2.95923 48.7939 2.95923L54.6328 2.97517L56.3223 3.26206C56.8429 3.35238 57.337 3.87305 57.7727 4.08557L57.7568 4.09619ZM55.7538 7.44865C55.9769 7.10331 55.9716 6.30637 55.6422 6.02478C55.3447 5.77508 54.8347 5.50412 54.4734 5.4988L51.0784 5.4563L51.1262 8.23496L54.3512 8.27746C54.8772 8.28277 55.4563 7.90556 55.7485 7.44865H55.7538ZM55.9397 10.902L55.0206 10.6151L51.1422 10.5992L51.0837 13.4204L55.6953 13.3407C56.2691 13.33 56.5985 12.5756 56.6039 12.1931C56.6092 11.7415 56.5029 11.0721 55.9397 10.8967V10.902Z" fill="#2A4E8D"/>
<path d="M126.989 3.38435L126.973 4.94635C126.851 4.8879 126.878 4.78165 126.756 4.52131L126.639 5.42451H120.582C120.199 5.42982 119.748 5.57858 119.748 6.02487L119.764 7.71969C119.764 7.93752 120.088 8.26692 120.322 8.26692L125.911 8.2988C126.054 9.22325 126.076 10.0574 125.847 10.8437H120.311C120.141 10.8437 119.934 10.8862 120.003 11.0775L120.136 11.4387C120.279 11.8213 120.083 12.2941 120.013 12.7032C119.992 12.8413 119.998 13.1229 120.099 13.2345C120.173 13.3142 120.316 13.4098 120.46 13.4098H126.532C126.665 13.4045 126.793 13.3939 126.984 13.447V15.8378V15.9866L117.049 15.96L117.081 4.12816C117.081 3.68187 116.969 3.26215 117.357 2.9115L126.405 2.92212C126.591 2.92212 126.809 3.4481 126.984 3.38435H126.989Z" fill="#2A4E8D"/>
<path d="M81.888 10.8384C81.7818 10.8968 81.649 10.849 81.6224 10.7853L77.659 10.7268C77.2127 10.7215 77.0692 11.2103 77.0692 11.5557V15.9388H74.2587L74.2374 4.04318C74.2374 3.72972 74.2268 3.16124 74.4606 3.00716C75.8473 2.82653 77.0852 2.6937 77.1011 3.60221L77.1649 8.13944L82.329 8.15007L82.3981 2.95935L85.1927 2.93278V15.9654L82.3662 15.9547L82.345 11.0137C82.345 10.8809 82.2121 10.7587 82.1271 10.7268C82.0634 10.7003 81.9677 10.7906 81.8934 10.8331L81.888 10.8384Z" fill="#2A4E8D"/>
<path d="M97.5665 7.57618L97.5346 7.87902L98.5069 10.1742L99.2082 11.9115L100.042 13.7339L100.945 15.9228L98.0234 15.9759L97.524 14.4298L96.8067 13.0007L91.616 13.0379C91.0635 13.0379 91.0369 13.8029 90.9094 14.1111L90.155 15.9547L87.3604 15.9228L88.1945 13.9942L91.106 7.09802L91.4832 6.33827L92.907 2.90613H95.4041L97.1414 7.00239C97.2477 7.25741 97.3221 7.5018 97.5612 7.57087L97.5665 7.57618ZM95.792 10.493C95.6166 9.69073 95.4626 9.38258 95.1916 8.93098L94.6178 7.32116C94.5222 7.0502 94.2087 6.80581 94.2246 6.39672C93.6562 6.76331 93.7093 7.27335 93.518 7.69838C93.2099 8.38375 92.8805 8.96817 92.6945 9.7226C92.6361 9.95637 92.3332 10.1955 92.5139 10.5302L95.7866 10.4983L95.792 10.493Z" fill="#2A4E8D"/>
<path d="M105.557 3.88906C105.525 4.00594 105.483 4.16002 105.515 4.23971L106.285 6.27456L107.597 9.90859L108.017 11.0456C108.144 11.3962 108.235 11.9275 108.787 11.8053C108.729 11.4281 108.989 11.0084 109.122 10.6471L111.561 4.09095C111.646 3.86781 111.837 3.74029 111.768 3.42683C111.752 3.35776 111.778 3.21963 111.789 3.17181C112.676 2.94336 113.627 3.07087 114.6 3.0443C114.791 3.57559 114.546 3.905 114.376 4.33534L112.251 9.61107L111.608 11.3909L110.657 13.7073L110.243 14.7115C110.084 15.094 109.818 15.434 109.882 15.9441L107.092 15.9759C107.252 15.5509 106.864 15.2853 106.79 15.0781L106.062 13.0698L105.642 12.1081L102.603 4.38847C102.428 3.94219 102.114 3.59685 102.311 3.03899L104.664 3.06024C105.445 3.06555 105.111 3.84124 105.578 3.88906H105.557Z" fill="#2A4E8D"/>
<path d="M55.7538 32.3557L49.9043 32.3026C49.7927 32.531 49.6705 32.802 49.6652 33.0783L49.6174 37.132L48.2679 37.0948C48.0607 35.9844 48.1032 34.9059 48.2041 33.7583L48.1244 32.6479C48.3794 31.7978 48.1457 31.0275 48.1563 30.188L48.1988 26.1927C48.6345 25.8899 49.1711 25.8846 49.6599 26.0493L49.6439 29.9224C49.6439 30.2146 49.6599 30.4802 49.8299 30.7671H55.7803L55.8228 26.0333C56.3648 25.858 56.8801 25.943 57.3051 26.2246L57.2945 37.0895L55.8122 37.132L55.7591 32.3663L55.7538 32.3557Z" fill="#2A4E8D"/>
<path d="M84.7144 34.1674L79.2262 34.2258C78.7693 34.2258 78.6843 34.9643 78.578 35.2353L78.2433 36.0853L77.8023 36.8929C77.6376 37.1957 76.931 37.0523 76.6069 36.9301L77.6695 34.5605L78.8543 31.9572L81.4257 26.1821C81.8986 26.0652 82.2652 26.0227 82.6849 26.1502L87.4559 36.7813C87.2806 37.116 86.7599 37.0948 86.4465 36.9726C86.1064 36.8451 86.1171 36.4307 85.9417 36.08L85.2085 34.5871C85.1554 34.4755 85.2085 34.2524 85.0863 34.1939C85.012 34.1567 84.8526 34.1621 84.7038 34.1621L84.7144 34.1674ZM84.486 33.0145L83.7581 31.4684C83.875 31.1071 83.5722 30.9159 83.4659 30.6662L82.1589 27.59C81.7233 28.015 81.6861 28.4932 81.4948 28.9129L79.6459 32.9879L84.486 33.0145Z" fill="#2A4E8D"/>
<path d="M126.989 36.7389V37.0099C126.633 37.0258 126.219 37.1055 125.874 36.8877L125.852 32.037L119.488 32.0635L119.381 36.9036C119.025 37.1002 118.643 37.0311 118.313 37.0099C118.34 36.9355 118.319 36.8186 118.313 36.7389L118.297 36.5901L118.313 36.3192L118.303 33.1739V32.4779L118.297 31.8882V29.779L118.308 27.0641L118.324 26.1609L119.445 26.2193V30.9213L125.868 30.9372L125.837 26.2087L126.995 26.1875L126.984 36.7389H126.989Z" fill="#2A4E8D"/>
<path d="M64.8549 32.4779L64.8655 35.5859C64.8655 35.7134 64.823 35.8303 64.8974 36.0163H71.3738C71.5066 36.4201 71.4323 36.7495 71.2835 37.0576L70.5609 37.0417H70.2368L65.5774 37.031C65.2374 37.031 64.8708 36.9354 64.5573 37.1479C64.4298 37.0576 64.1217 37.0257 63.9729 37.0576C63.7817 36.7973 63.7338 36.5316 63.7338 36.165L63.7073 26.198H71.3685C71.4376 26.5593 71.4323 26.8515 71.3579 27.1915L64.8549 27.2075V30.8999L70.5344 30.9424C70.7522 31.0646 70.7628 31.6225 70.6459 31.9147L65.0249 31.9413C64.823 31.9413 64.8495 32.3397 64.8495 32.4726L64.8549 32.4779Z" fill="#2A4E8D"/>
<path d="M70.4865 10.4611L66.013 10.5568C65.5296 10.5674 65.0939 10.424 64.5679 10.6418L64.552 13.4417L71.4056 13.5426V15.8963L62.0177 15.9175L61.9911 3.1665H71.395L71.3844 5.35543L64.552 5.38199L64.5626 8.25097L70.5078 8.19252C70.6725 8.5538 70.5875 9.03728 70.614 9.38793C70.6353 9.63233 70.8531 10.3602 70.4759 10.4611H70.4865Z" fill="#2A4E8D"/>
<path d="M108.809 36.9514C108.426 37.1054 108.081 37.0629 107.688 36.9301L107.666 27.2181L104.117 27.1915C104.075 26.8515 104.069 26.5752 104.128 26.1874L112.214 26.198C112.565 26.198 112.586 27.1225 112.326 27.1278L108.798 27.2128L108.809 36.9567V36.9514Z" fill="#2A4E8D"/>
<path d="M100.356 35.9472C100.632 35.9738 100.584 36.792 100.356 37.0258L93.263 36.9992C93.0133 35.9632 93.2046 35.06 93.1993 34.1355L93.1567 28.0629C93.1567 27.4147 93.1196 26.7399 93.3958 26.1715C93.6243 26.0068 94.1396 26.0758 94.4425 26.2618L94.4265 35.0334C94.4265 35.4425 94.5275 35.8728 95.011 35.8782L100.366 35.9419L100.356 35.9472Z" fill="#2A4E8D"/>
<path d="M32.9986 9.74919C33.1261 9.71731 33.3652 9.68012 33.5352 9.77044C35.2778 10.7002 36.6167 12.055 37.8121 13.5957C38.2477 14.1536 38.6993 14.5999 38.9543 15.3118C39.0606 15.6147 39.4059 16.0078 39.4431 16.3106L39.645 18.1117C39.6982 18.5899 39.6078 19.1849 39.4325 19.6206L39.0765 20.5079C38.7365 21.3473 38.1415 22.0911 37.4827 22.7605L30.6768 29.7098C29.6408 30.7671 28.6632 31.7447 27.5794 32.6957L26.4424 34.0133C26.2193 34.2736 25.8102 34.6508 25.5286 34.7518C25.077 34.9165 25.0558 35.2778 24.8273 35.4478C24.4713 35.7028 24.4076 35.8462 24.1313 36.1331L22.2612 38.067C21.9955 38.3433 21.8042 38.4761 21.4908 38.779L20.8054 39.4431C20.1094 40.1178 19.2009 39.8309 18.5952 39.2253L14.398 35.044L13.702 34.5605C13.7499 34.1674 13.3355 34.0345 13.0804 33.7848C12.6713 33.3864 12.4376 32.7594 11.8372 32.7807C11.8425 32.5841 11.7522 32.3716 11.5875 32.2547C11.0828 31.8881 10.6949 31.4259 10.2327 30.9584L7.7622 28.4454C7.49124 28.1691 7.10871 28.0097 7.02902 27.6378C6.99183 27.4678 6.91214 27.335 6.71024 27.3243C6.69431 27.1968 6.46585 26.9843 6.33303 26.9365C6.31178 26.724 6.17364 26.6708 6.01957 26.5911C5.73267 26.4477 5.41389 26.1608 5.32889 25.842C5.15887 25.1832 4.5107 24.7688 4.00597 24.2588L1.66829 21.8998L0.371933 20.6141C-0.0584132 20.1838 -0.132794 19.4453 0.324117 18.983L4.37256 14.9293L6.54554 12.6872L7.92159 11.359L8.78228 10.3761L9.95644 9.28697L13.9943 5.21727L14.8549 4.37783L16.0557 3.15055C16.8632 2.32173 17.6283 1.61511 18.6112 0.982876C20.2263 -0.0584557 22.2293 -0.377231 23.9772 0.610972C24.567 0.945686 25.077 1.4451 25.7624 1.65762C26.0652 2.20485 26.4371 2.598 27.0747 2.7627C27.3456 3.50651 28.0416 3.8731 28.4773 4.48409L29.1733 5.46698C29.5345 5.98233 29.8374 6.69426 29.8852 7.31056L30.0765 9.78638C31.681 8.97882 32.5045 9.89264 33.0251 9.76513L32.9986 9.74919ZM16.6879 28.3125C17.8036 29.4654 18.7546 30.6821 20.0297 31.6862L21.0923 30.6343L25.2364 26.3999L32.972 18.6643L33.9921 17.607L30.5812 14.1377C30.4112 13.9676 30.3049 13.8136 30.0871 13.8295C29.9277 13.8401 29.7736 13.8933 29.6142 14.0208L24.7582 18.8874L20.7735 14.8762L25.6667 9.9192C25.8368 9.77044 25.9643 9.51542 25.8421 9.43042L25.4595 9.17008L23.786 7.44339L22.5056 6.15235C22.2718 5.91858 22.1283 5.73263 21.8414 5.70075C21.4908 5.66356 21.4005 5.8867 21.1614 6.12578L16.9589 10.2964L13.7552 13.4948L9.43046 17.862C9.11168 18.1808 8.5857 18.3349 8.36256 18.7599C8.22443 19.0202 8.2138 19.2965 7.8419 19.4453L8.72915 20.4972L11.9541 23.6584L13.6064 22.0273L14.7434 20.9116L15.9122 19.7853L17.2192 18.4571L20.9861 22.2452C21.1879 22.6224 20.731 22.9359 20.5398 23.1324L16.6507 27.0693C16.4116 27.3137 16.1566 27.2871 16.1885 27.7122C16.2151 28.0522 16.4701 28.0841 16.6932 28.3178L16.6879 28.3125Z" fill="url(#paint0_linear_377_42)"/>
</g>
<defs>
<linearGradient id="paint0_linear_377_42" x1="44.0972" y1="-4.05529e-05" x2="-3.45338" y2="39.8468" gradientUnits="userSpaceOnUse">
<stop stop-color="#5E99F7"/>
<stop offset="1" stop-color="#6833F5"/>
</linearGradient>
<clipPath id="clip0_377_42">
<rect width="127" height="39.8203" fill="white"/>
</clipPath>
</defs>
</svg>
