<svg width="127" height="32" viewBox="0 0 127 32" fill="none" xmlns="http://www.w3.org/2000/svg">
<g clip-path="url(#clip0_408_13)">
<path d="M20.3704 3.37931L14.0388 6.69763L7.70654 3.3786L14.0388 0.0595703L20.3704 3.37931ZM14.0388 20.7364L7.70654 17.6274V11.3115L14.0388 7.9357L20.3959 11.2845V17.587L14.0388 20.7372V20.7364Z" fill="black"/>
<path d="M6.73597 17.1236L0 13.7322V7.19064L6.50609 3.89148L12.9533 7.34886L6.74022 10.6182V17.1243L6.73597 17.1236ZM21.3814 10.6182L15.169 7.34886L21.6163 3.89148L28.1223 7.19064V13.7322L21.3857 17.1215V10.6161L21.3814 10.6182Z" fill="black"/>
<path d="M0 14.8682V23.9724L14.0495 31.1355L28.1195 24.0306V14.8682L14.0587 21.9745L0 14.8682Z" fill="black"/>
<path d="M115.109 23.4757L115.131 8.99063L118.231 7.29209V17.1825L122.342 11.3384H126.116L121.735 17.4067L126.408 23.4757H122.431L118.231 17.6316V23.4757H115.109ZM108.954 23.8127C107.696 23.8127 106.618 23.5318 105.719 22.9698C104.828 22.4158 104.112 21.6211 103.653 20.6775C103.174 19.7111 102.934 18.6206 102.934 17.4067C102.934 16.1785 103.181 15.0809 103.675 14.1146C104.177 13.1476 104.881 12.387 105.787 11.8329C106.693 11.278 107.763 11.0013 108.999 11.0013C110.429 11.0013 111.627 11.3646 112.593 12.0911C113.566 12.8106 114.188 13.7953 114.457 15.0469L111.402 15.8557C111.223 15.2271 110.908 14.7361 110.459 14.3835C110.034 14.0374 109.502 13.8507 108.954 13.8556C108.31 13.8556 107.782 14.0132 107.37 14.3275C106.959 14.6347 106.655 15.0582 106.461 15.5975C106.266 16.1296 106.168 16.7327 106.168 17.4067C106.168 18.4638 106.4 19.3216 106.865 19.9807C107.336 20.6328 108.033 20.9584 108.954 20.9584C109.643 20.9584 110.167 20.8009 110.526 20.4866C110.886 20.1716 111.155 19.7218 111.335 19.1379L114.457 19.7892C114.113 21.0783 113.461 22.0709 112.503 22.7676C111.544 23.4644 110.362 23.8127 108.954 23.8127ZM96.5554 23.8127C95.3351 23.8127 94.2645 23.5396 93.3435 22.9926C92.4297 22.4532 91.6831 21.6713 91.1866 20.7335C90.6779 19.7672 90.4232 18.6582 90.4232 17.4067C90.4232 16.1409 90.685 15.0284 91.2094 14.0692C91.7337 13.1029 92.4559 12.3494 93.3769 11.8102C94.2978 11.2709 95.3571 11.0013 96.5554 11.0013C97.7757 11.0013 98.8464 11.2745 99.7673 11.8215C100.688 12.3606 101.439 13.1472 101.936 14.0919C102.452 15.0504 102.71 16.1558 102.71 17.4067C102.71 18.6653 102.448 19.7785 101.924 20.7449C101.426 21.6848 100.675 22.4671 99.7567 23.0039C98.835 23.5431 97.7687 23.8127 96.5554 23.8127ZM96.5554 20.9584C97.5359 20.9584 98.266 20.6285 98.7456 19.9694C99.2324 19.3025 99.4757 18.4482 99.4757 17.4067C99.4757 16.3282 99.2288 15.4662 98.7343 14.822C98.2476 14.1778 97.521 13.8556 96.5554 13.8556C95.8892 13.8556 95.3422 14.0054 94.9158 14.3055C94.4887 14.6049 94.1708 15.0206 93.9608 15.5528C93.7586 16.0849 93.6578 16.7022 93.6578 17.4067C93.6578 18.4936 93.9012 19.3585 94.3879 20.0034C94.8817 20.6399 95.6047 20.9584 96.5554 20.9584ZM77.6211 23.4757V7.29209H84.45C84.6075 7.29209 84.8168 7.29918 85.0786 7.31479C85.3482 7.32189 85.588 7.34459 85.798 7.38219C86.7636 7.5319 87.5533 7.85046 88.1677 8.33718C88.783 8.81611 89.2566 9.45324 89.5378 10.1805C89.8301 10.9148 89.9755 11.735 89.9755 12.6424C89.9755 13.9975 89.6385 15.159 88.9652 16.126C88.2912 17.0846 87.2355 17.677 85.798 17.9012L84.45 17.9913H80.6762V23.4757H77.6211ZM86.7409 23.4757L83.5517 16.8902L86.6962 16.2828L90.2004 23.4757H86.7409ZM80.6762 15.137H84.3152C84.4727 15.137 84.6444 15.1299 84.8317 15.1143C85.019 15.0994 85.1914 15.0696 85.3482 15.0242C85.7604 14.9121 86.0783 14.7248 86.3032 14.4623C86.5281 14.1927 86.6813 13.8968 86.7636 13.5747C86.8538 13.2448 86.8984 12.934 86.8984 12.6417C86.8984 12.3494 86.8538 12.0422 86.7636 11.7201C86.6822 11.3921 86.5245 11.0879 86.3032 10.8325C86.0783 10.5629 85.7604 10.3713 85.3482 10.2592C85.1794 10.2121 85.0064 10.1819 84.8317 10.1691C84.6599 10.1549 84.4876 10.1476 84.3152 10.1471H80.6762V15.137ZM70.4182 23.8127C69.1759 23.8127 68.079 23.5467 67.1276 23.0153C66.2002 22.4916 65.4318 21.7267 64.904 20.8016C64.3719 19.8573 64.1066 18.7781 64.1066 17.5642C64.1066 16.2381 64.3691 15.0845 64.8927 14.1033C65.417 13.1213 66.1393 12.3607 67.0602 11.8215C67.9811 11.2752 69.0411 11.0013 70.2387 11.0013C71.5116 11.0013 72.5936 11.3007 73.4847 11.9003C74.3758 12.4998 75.0349 13.3427 75.4614 14.4289C75.8885 15.5152 76.0382 16.793 75.9105 18.2609H72.8894V17.1371C72.8894 15.9011 72.6908 15.0128 72.2942 14.4736C71.9046 13.9273 71.2647 13.6534 70.3736 13.6534C69.3327 13.6534 68.565 13.972 68.0712 14.6084C67.5845 15.2377 67.3412 16.1707 67.3412 17.4067C67.3412 18.5383 67.5845 19.4146 68.0712 20.0368C68.5657 20.6512 69.288 20.9584 70.2387 20.9584C70.8376 20.9584 71.3505 20.8272 71.7776 20.5647C72.2041 20.3021 72.5304 19.9247 72.7546 19.4295L75.8097 20.3064C75.3528 21.4153 74.6305 22.2767 73.6422 22.8911C72.6781 23.501 71.5591 23.8204 70.4182 23.8127ZM66.3975 18.2609V15.9905H74.4397V18.2609H66.3975ZM56.5873 23.8354C55.6366 23.8354 54.8611 23.6744 54.2623 23.3523C53.6635 23.0302 53.1952 22.6215 52.8582 22.127C52.5396 21.656 52.3006 21.1359 52.1508 20.5874C52.0089 20.0481 51.9224 19.5572 51.8926 19.1152C51.868 18.7936 51.853 18.4713 51.8479 18.1488V11.3376H54.9477V17.0704C54.9477 17.3471 54.9619 17.7025 54.9924 18.1375C55.0222 18.5646 55.1158 18.9952 55.2733 19.4302C55.4301 19.8644 55.6848 20.2276 56.0367 20.52C56.3965 20.8123 56.9023 20.9584 57.5529 20.9584C57.8154 20.9584 58.0957 20.9173 58.3958 20.835C58.7093 20.7447 58.9976 20.5829 59.238 20.3624C59.5005 20.1226 59.7134 19.7743 59.878 19.3174C60.0504 18.8526 60.1362 18.246 60.1362 17.4968L61.8887 18.3283C61.8948 19.2595 61.6954 20.1805 61.3048 21.0258C60.9218 21.8575 60.31 22.563 59.5409 23.06C58.7626 23.5765 57.7778 23.8354 56.5873 23.8354ZM60.5179 23.4757V19.4529H60.1362V11.3376H63.214V23.475L60.5179 23.4757ZM47.2227 23.4757V8.99063L50.2777 6.95508V23.4757H47.2227ZM34.2687 23.4757V7.29209H40.7371C41.8908 7.29209 42.8231 7.5248 43.534 7.98882C44.2456 8.44644 44.7657 9.02326 45.0949 9.71999C45.4248 10.4167 45.5894 11.1212 45.5894 11.8329C45.5894 12.7389 45.3836 13.4924 44.9721 14.0912C44.5677 14.6907 44.0093 15.0916 43.2977 15.2938V14.7319C44.3087 14.9419 45.0651 15.4102 45.5667 16.1367C46.0716 16.8492 46.339 17.7027 46.3308 18.5759C46.3308 19.5423 46.1506 20.3922 45.7916 21.1266C45.4397 21.8609 44.9005 22.4377 44.1739 22.8577C43.4481 23.2693 42.535 23.475 41.4339 23.475H34.2679L34.2687 23.4757ZM37.3677 20.5987H41.1196C41.5311 20.5987 41.8979 20.5122 42.22 20.3405C42.5346 20.1676 42.795 19.9106 42.9721 19.5983C43.1594 19.2762 43.253 18.898 43.253 18.4631C43.253 18.0814 43.175 17.7401 43.0175 17.4407C42.856 17.1367 42.6051 16.8896 42.2987 16.7327C41.9844 16.5532 41.5907 16.4631 41.1196 16.4631H37.3677V20.5987ZM37.3677 13.608H40.6924C41.0373 13.608 41.3438 13.5484 41.6134 13.4285C41.883 13.3086 42.0958 13.1249 42.2533 12.878C42.4108 12.6225 42.4896 12.2969 42.4896 11.9003C42.4896 11.4058 42.3363 10.99 42.0284 10.653C41.7219 10.3153 41.2764 10.1471 40.6924 10.1471H37.3677V13.608Z" fill="black"/>
</g>
<defs>
<clipPath id="clip0_408_13">
<rect width="127" height="31.2179" fill="white"/>
</clipPath>
</defs>
</svg>
