<svg width="125" height="21" viewBox="0 0 125 21" fill="none" xmlns="http://www.w3.org/2000/svg">
<g clip-path="url(#clip0_384_323)">
<path d="M60.8165 3.05935C61.0065 3.05935 61.0924 3.35556 61.0901 3.51385L61.0313 12.5902C61.02 14.4986 60.0025 16.3257 58.1393 16.952C55.1297 17.965 50.8922 17.3952 50.1008 13.9446C50.0352 13.6597 49.9154 13.4314 49.9154 13.1058L49.9199 3.06613C50.89 2.92594 51.8284 2.95986 52.812 3.10457L52.8753 12.3754C52.8798 13.056 53.0878 13.7638 53.5378 14.216C54.4513 15.1318 56.9861 15.1092 57.6984 13.7818C57.8295 13.5376 58.024 13.0673 58.0262 12.7507L58.0692 3.08875L60.8143 3.06387L60.8165 3.05935ZM59.1071 3.37818C58.8154 3.43018 58.6277 3.82815 58.6254 4.09949L58.5667 12.199C58.5644 12.5178 58.1416 12.7779 58.3564 13.264C58.4468 13.4721 58.3292 13.9288 58.1144 14.0848C57.6441 14.424 57.2032 14.8762 56.6447 15.0413C55.0777 15.5026 52.9996 14.883 52.7328 13.4223C52.665 13.0537 52.5723 12.6558 52.57 12.2872L52.5271 3.38044C51.9776 3.33974 51.4711 3.29677 50.9329 3.40079C50.6774 3.44827 50.4649 3.90503 50.4649 4.19898L50.5146 12.7078L50.6209 14.06C50.9307 14.32 50.994 14.6072 51.1704 14.9305C51.6249 15.7672 52.4977 16.4455 53.4157 16.7191C53.6803 16.7982 53.9652 16.9611 54.2049 16.9678L56.5836 17.0402C56.7826 17.047 56.9793 16.8774 57.0969 16.8163C59.2179 16.6106 60.665 14.8898 60.6673 12.753L60.6718 3.3827C60.1472 3.31034 59.6792 3.27642 59.1116 3.37592L59.1071 3.37818Z" fill="#44596C"/>
<path d="M120.349 9.27074L124.722 16.4568C124.869 16.6987 125.009 16.857 124.887 17.1713L121.362 17.1351L118.024 11.4957C117.4 12.1583 116.371 13.1826 116.367 13.6981L116.346 15.8349C116.342 16.1877 116.611 16.8276 116.254 17.1035L113.423 17.1419L113.411 3.07286L116.281 3.07965C116.362 3.30803 116.487 3.59746 116.421 3.81679C116.24 4.42505 116.399 4.9519 116.401 5.55337L116.41 7.90499C116.41 8.30296 116.186 8.7145 116.394 9.07628C117.07 8.56074 117.461 7.88917 117.966 7.27865L121.432 3.08191C122.66 2.98694 123.761 2.96433 125 3.1113L123.908 4.53132L120.437 8.73937C120.347 8.85017 120.224 9.06046 120.351 9.26848L120.349 9.27074ZM121.468 11.7739L119.84 8.97679L120.505 8.10398L122.752 5.39283L124.439 3.37586L121.767 3.38717C121.396 3.38717 121.219 4.01577 121.005 4.18084C120.557 4.52454 120.385 4.92251 120.057 5.30464L118.648 6.94852L117.699 8.14016L116.796 9.28205C116.681 9.42676 116.462 9.49686 116.315 9.45616C116.179 9.41772 116.023 9.24587 116.023 9.0288L116.028 3.35325L113.733 3.3736L113.807 6.41036L113.841 16.1357C113.703 16.294 113.667 16.7665 113.889 16.8005C114.551 16.9045 115.32 16.9248 115.958 16.8118C116.306 16.7484 116.046 16.3098 116.046 16.1379L116.053 13.5941C116.053 13.16 116.457 12.8502 116.686 12.5608L117.484 11.541C117.647 11.3329 117.728 11.204 117.975 11.186C118.269 11.1633 118.307 11.3669 118.427 11.5636L119.028 12.5585L121.588 16.9316L124.629 16.9452C124.64 16.5382 124.34 16.4929 124.227 16.3075L121.473 11.7761L121.468 11.7739Z" fill="#44596C"/>
<path d="M49.0652 14.485L49.1014 17.1397L39.9776 17.1691C39.7062 17.1691 39.5321 16.9904 39.5321 16.7146L39.5411 3.10454C40.5768 2.97792 41.54 2.95983 42.5169 3.0548C42.6073 3.34197 42.6525 3.56356 42.6525 3.84847L42.6457 14.4783L49.0652 14.485ZM48.7419 14.7473H42.2975L42.2907 3.37589L40.7418 3.33745C40.4592 3.33066 40.0567 3.49121 40.0567 3.85299V16.7666L48.7984 16.7575C48.8481 16.0407 48.864 15.4076 48.7441 14.7496L48.7419 14.7473Z" fill="#44596C"/>
<path d="M108.116 14.6637L109.649 14.4354C110.296 14.3381 110.886 14.0871 111.6 14.1527L112.213 16.4546C112.136 16.7485 111.72 16.7779 111.474 16.839C108.554 17.5648 104.606 17.9673 102.513 15.774C101.762 14.9893 101.28 14.0736 101.086 13.0176L100.805 11.5026L100.785 8.81634L101.133 6.83102C101.685 4.62638 103.415 3.15888 105.683 2.89884C107.951 2.63881 110.063 2.90336 112.172 3.60433L111.634 6.03735C111.223 6.23407 110.87 6.03735 110.488 5.95821L108.993 5.65747C108.147 5.48789 107.25 5.5512 106.386 5.66652C105.269 5.81576 104.525 6.74962 104.233 7.80785C103.752 9.56478 103.829 12.7372 105.068 13.8768C105.859 14.6049 107.017 14.8311 108.114 14.6683L108.116 14.6637ZM105.586 14.6253C104.62 14.2658 104.238 13.2573 103.933 12.4274L103.675 10.7519C103.602 10.2884 103.596 9.93788 103.661 9.46529L103.896 7.76941C104.238 6.58682 105.099 5.49919 106.395 5.36352C107.227 5.27533 108.132 5.25272 108.93 5.39292L111.358 5.82028L111.632 4.83893C111.718 4.52689 111.67 4.19223 111.926 3.92089C110.804 3.38952 109.694 3.36238 108.55 3.21767C107.546 3.09104 106.764 3.00964 105.694 3.22897C103.333 3.7106 102.029 4.47262 101.398 6.98026L101.102 8.16286C100.955 10.9486 100.869 13.6145 102.933 15.7921C104.236 17.1646 107.162 17.2731 109.167 16.9543C110.063 16.8118 110.904 16.7666 111.738 16.432L111.641 15.385C111.616 15.1205 111.406 14.7813 111.288 14.5755C110.589 14.3992 110.063 14.6909 109.434 14.7587C108.156 14.8966 106.827 15.0934 105.583 14.6298L105.586 14.6253Z" fill="#44596C"/>
<path d="M98.8699 13.1554C97.9699 16.71 94.8834 17.7976 91.3673 17.2662C88.9343 16.8999 87.3853 15.2696 86.8856 12.8592L86.5442 9.94454L86.7002 8.29841C86.9806 5.33174 88.534 3.29216 91.5527 2.9055C92.8868 2.73592 94.2706 2.76531 95.5233 3.17911C97.3187 3.7738 98.5442 5.15311 98.8812 6.95075L99.0575 7.89139C99.3266 9.32498 99.2972 10.6681 99.053 12.0949L98.8721 13.1531L98.8699 13.1554ZM95.0259 16.8185C97.4905 16.0113 98.4877 14.338 98.7885 11.7942C98.9151 10.7246 99.1525 9.70259 98.7681 8.63532C98.7387 6.96657 98.1463 5.23904 96.7896 4.20116C95.564 3.26503 94.6256 3.41427 93.9224 3.18815C93.3865 3.0163 92.6358 3.04117 92.0705 3.15197L90.8178 3.4007C90.2955 3.50472 89.7664 3.77153 89.3277 4.06549L88.6516 4.51772C87.4781 5.30235 86.9625 8.06098 86.8178 9.70712C86.7567 10.4126 86.9399 11.0141 86.9987 11.6653C87.1366 13.1577 87.5979 14.5166 88.6493 15.6314C89.2282 16.2442 90.0468 16.5811 90.8585 16.8366C91.8534 17.1486 94.0603 17.1351 95.0281 16.8185H95.0259Z" fill="#44596C"/>
<path d="M59.1072 3.37811C59.6747 3.27862 60.1428 3.31028 60.6674 3.38489L60.6629 12.7552C60.6629 14.892 59.2135 16.6105 57.0925 16.8185C56.9749 16.8773 56.7782 17.0469 56.5792 17.0424L54.2004 16.97C53.9607 16.9632 53.6758 16.7982 53.4113 16.7213C52.491 16.45 51.6204 15.7693 51.1659 14.9327C50.9896 14.6094 50.9285 14.3222 50.6165 14.0622L50.5102 12.71L50.4604 4.20118C50.4604 3.90723 50.673 3.45047 50.9285 3.40298C51.4689 3.29897 51.9732 3.34193 52.5226 3.38263L52.5656 12.2894C52.5656 12.658 52.6606 13.0559 52.7284 13.4245C52.9952 14.8852 55.071 15.5048 56.6402 15.0435C57.201 14.8784 57.6397 14.4239 58.11 14.087C58.3248 13.9333 58.4424 13.4743 58.3519 13.2662C58.1394 12.7801 58.56 12.52 58.5622 12.2012L58.621 4.10169C58.621 3.82808 58.811 3.43012 59.1027 3.38037L59.1072 3.37811Z" fill="#042B4C"/>
<path d="M121.468 11.774L124.222 16.3053C124.335 16.493 124.636 16.536 124.625 16.943L121.583 16.9294L119.024 12.5563L118.422 11.5614C118.302 11.3624 118.264 11.1612 117.97 11.1838C117.721 11.2019 117.642 11.3308 117.479 11.5388L116.681 12.5586C116.453 12.8503 116.05 13.1578 116.048 13.5919L116.041 16.1358C116.041 16.3076 116.301 16.7485 115.953 16.8096C115.318 16.9226 114.547 16.9023 113.884 16.7983C113.662 16.7644 113.699 16.2918 113.837 16.1335L113.803 6.40818L113.728 3.37142L116.023 3.35107L116.019 9.02662C116.019 9.2437 116.175 9.41555 116.31 9.45399C116.457 9.49695 116.679 9.42459 116.792 9.27987L117.694 8.13798L118.644 6.94634L120.053 5.30247C120.38 4.92033 120.555 4.52236 121 4.17866C121.215 4.0136 121.391 3.38499 121.762 3.38499L124.435 3.37369L122.748 5.39065L120.5 8.1018L119.835 8.97462L121.464 11.7717L121.468 11.774Z" fill="#042B4C"/>
<path d="M48.7418 14.7473C48.8639 15.4053 48.8481 16.0384 48.7961 16.7552L40.0521 16.7643V3.85071C40.0544 3.48893 40.4591 3.32838 40.7395 3.33517L42.2884 3.37361L42.2952 14.7496H48.7396L48.7418 14.7473Z" fill="#042B4C"/>
<path d="M71.3988 11.2493H66.0851L66.0421 14.4806L72.4932 14.4873C72.6832 14.4873 72.8098 14.7768 72.8098 14.9351L72.8279 16.7304C72.8234 16.9837 72.6515 17.1668 72.3779 17.1668L63.0325 17.1578L63.028 3.18147C63.3626 2.95083 63.738 2.98927 64.1472 2.99153L72.5882 3.03223L72.5746 5.72981L66.0444 5.75017L66.0489 8.49523L71.3604 8.51332C71.6362 8.51332 71.8013 8.91581 71.7991 9.14871L71.7855 10.7225C71.7855 10.9328 71.6883 11.2493 71.3966 11.2493H71.3988ZM66.2366 10.9011L71.374 10.8785L71.3853 8.92259L66.2931 8.90676C66.0511 8.90676 65.8409 8.68291 65.669 8.54724L65.7007 5.68459C65.773 5.44265 66.2727 5.45395 66.5079 5.45169L72.2558 5.43134L72.2829 3.33975L63.3196 3.34428L63.3264 16.4907C63.3264 16.7259 63.4802 16.8684 63.695 16.8684L71.9347 16.8774C72.2445 16.8774 72.4751 16.7191 72.4616 16.3935L72.4005 14.7677L66.2863 14.7723C66.0014 14.7723 65.6803 14.6592 65.6781 14.3268L65.6622 11.4235C65.6622 11.1069 65.8793 10.9011 66.2343 10.8989L66.2366 10.9011Z" fill="#44596C"/>
<path d="M82.3927 17.1827L81.7257 16.2103L79.4057 12.2103L77.5922 12.242L77.5651 16.8231C77.5651 17.0312 77.3209 17.1713 77.1355 17.1691L74.56 17.1374L74.5532 3.09327L75.8918 3.03674L81.5199 3.09779C82.7138 3.11136 83.8512 3.88242 84.4843 4.80046C85.8998 6.85587 85.486 10.3155 83.1615 11.4461L82.8495 11.5501C82.759 11.5795 82.655 11.8531 82.7409 11.9978L85.7777 17.0899L82.3905 17.1827H82.3927ZM85.2531 16.7711C84.9411 16.2036 84.7014 16.0453 84.6154 15.5795C84.3034 15.4732 84.2763 15.0255 84.1157 14.8672C83.8173 14.571 83.7743 14.3132 83.5957 14.008L82.4153 12.0136C82.2706 11.7671 82.3678 11.3918 82.6708 11.3059C84.5951 10.7564 85.3029 8.42738 84.8958 6.49408C84.6064 5.11702 83.7517 4.08819 82.4357 3.57943C82.1169 3.70831 81.8003 3.40758 81.5425 3.34652L74.9783 3.35331L74.9693 16.3822C74.9693 17.0605 76.0682 16.9136 77.235 16.805L77.3141 11.9684L79.5459 11.9458C80.118 12.5653 80.4029 13.3341 80.8325 14.0351L82.5555 16.848C83.4916 16.8593 84.3283 16.9678 85.2531 16.7711Z" fill="#44596C"/>
<path d="M66.2366 10.901C65.8793 10.901 65.6622 11.1091 65.6645 11.4256L65.6803 14.329C65.6803 14.6591 66.0014 14.7744 66.2886 14.7744L72.4028 14.7699L72.4638 16.3957C72.4751 16.7213 72.2468 16.8796 71.937 16.8796L63.6973 16.8705C63.4824 16.8705 63.3287 16.7303 63.3287 16.4929L63.3219 3.34644L72.2852 3.34192L72.2581 5.43351L66.5102 5.45386C66.275 5.45386 65.7753 5.44481 65.7029 5.68676L65.6713 8.54941C65.8431 8.68734 66.0534 8.90893 66.2953 8.90893L71.3875 8.92476L71.3762 10.8807L66.2388 10.9033L66.2366 10.901Z" fill="#042B4C"/>
<path d="M85.2531 16.7712C84.3282 16.9656 83.4916 16.8593 82.5555 16.848L80.8325 14.0351C80.4028 13.3342 80.1179 12.5631 79.5459 11.9458L77.3141 11.9684L77.2349 16.8051C76.0682 16.9159 74.9692 17.0606 74.9692 16.3822L74.9783 3.35334L81.5425 3.34656C81.8002 3.40761 82.1168 3.71061 82.4356 3.57946C83.7539 4.08822 84.6064 5.11706 84.8958 6.49411C85.3028 8.42742 84.5928 10.7564 82.6708 11.3059C82.3678 11.3918 82.2706 11.7694 82.4153 12.0136L83.5956 14.008C83.7765 14.3133 83.8195 14.5733 84.1157 14.8672C84.2762 15.0255 84.3034 15.4732 84.6154 15.5795C84.7013 16.0453 84.941 16.2036 85.2531 16.7712ZM80.681 9.58966C81.8116 9.58062 82.3588 8.55404 82.3497 7.57722C82.3407 6.47602 81.7188 5.59417 80.5679 5.59417H77.3887L77.4113 9.61453L80.6787 9.59192L80.681 9.58966Z" fill="#042B4C"/>
<path d="M105.586 14.6252C106.829 15.0887 108.159 14.892 109.436 14.7541C110.065 14.6863 110.592 14.3946 111.29 14.5709C111.408 14.7767 111.618 15.1159 111.643 15.3804L111.74 16.4274C110.906 16.762 110.063 16.8072 109.169 16.9497C107.164 17.2685 104.238 17.1622 102.935 15.7874C100.871 13.6099 100.957 10.944 101.104 8.15825L101.4 6.97565C102.031 4.46801 103.333 3.70373 105.696 3.22436C106.766 3.00729 107.546 3.08869 108.552 3.21306C109.696 3.35551 110.807 3.38491 111.928 3.91628C111.67 4.18762 111.72 4.52454 111.634 4.83432L111.361 5.81567L108.932 5.38831C108.134 5.24812 107.232 5.27073 106.397 5.35891C105.102 5.49458 104.24 6.58221 103.899 7.7648L103.664 9.46068C103.598 9.93327 103.607 10.2838 103.677 10.7473L103.935 12.4228C104.24 13.2527 104.622 14.2612 105.588 14.6207L105.586 14.6252Z" fill="#042B4C"/>
<path d="M95.0259 16.8186C94.0582 17.1351 91.849 17.151 90.8563 16.8367C90.0468 16.5812 89.226 16.2442 88.6472 15.6315C87.5957 14.5167 87.1344 13.1577 86.9965 11.6654C86.9354 11.0141 86.7523 10.4127 86.8156 9.70719C86.9603 8.06105 87.4736 5.30242 88.6494 4.51779L89.3255 4.06556C89.7642 3.77161 90.2933 3.50479 90.8156 3.40077L92.0683 3.15204C92.6336 3.03899 93.3843 3.01637 93.9202 3.18822C94.6257 3.41434 95.5618 3.2651 96.7874 4.20123C98.1464 5.23911 98.7365 6.96891 98.7659 8.63539C99.1503 9.70267 98.9129 10.7247 98.7863 11.7943C98.4855 14.3381 97.4884 16.0113 95.0237 16.8186H95.0259ZM95.7721 13.8022C96.204 12.8005 96.403 11.8508 96.5138 10.788C96.6246 9.72528 96.4233 8.04975 96.0932 7.14754C95.4058 5.27303 93.9541 4.71225 92.0525 5.09213C90.3091 5.44035 89.5041 6.95986 89.5087 8.70323L89.5155 11.5433C89.5155 12.5088 89.8343 13.5738 90.5375 14.2567C90.8586 14.5687 91.356 15.021 91.7721 15.03L94.126 15.0752C94.7682 14.6185 95.3787 14.718 95.7721 13.8022Z" fill="#042B4C"/>
<path d="M37.4405 11.1725C38.4151 12.8005 38.2342 14.9328 36.8164 16.1719C36.0838 16.8119 35.0686 17.142 34.0872 17.142H27.0414L27.0504 3.03225L33.341 3.01869C34.5982 3.01643 35.8532 3.36691 36.726 4.2058C37.3772 4.9633 37.5875 5.72531 37.6011 6.67275C37.6214 8.03171 36.9634 9.21657 35.6994 9.79317C36.4072 10.2635 37.0313 10.4919 37.4383 11.1725H37.4405ZM37.3433 11.6202C36.7576 10.3313 35.3806 10.32 35.3512 9.87683C35.3241 9.45851 37.0222 8.97914 37.1601 7.57722C37.2167 6.99157 37.2528 6.34261 37.1647 5.75697C37.0019 4.67387 36.0296 3.84854 35.0075 3.59076C34.7249 3.51841 34.4083 3.5478 34.1799 3.34204L28.1064 3.36239C27.8645 3.36239 27.3964 3.80784 27.3964 4.07466V16.692L28.4478 16.8639L33.185 16.839L34.5598 16.7621C35.4145 16.7146 36.371 16.2827 36.9318 15.6202C37.8656 14.5213 37.9493 12.9633 37.341 11.6202H37.3433Z" fill="#44596C"/>
<path d="M37.3433 11.6201C37.9515 12.9632 37.8679 14.5212 36.934 15.6201C36.371 16.2826 35.4145 16.7145 34.562 16.762L33.1872 16.8389L28.4501 16.8637L27.3964 16.6919V4.07454C27.3964 3.80772 27.8644 3.36227 28.1064 3.36227L34.1799 3.34192C34.4083 3.54995 34.7248 3.52055 35.0075 3.59065C36.0295 3.84842 37.0018 4.67375 37.1646 5.75685C37.2528 6.34024 37.2166 6.99145 37.1601 7.5771C37.0222 8.97903 35.324 9.4584 35.3512 9.87671C35.3806 10.3199 36.7576 10.3312 37.3433 11.6201ZM34.4671 7.90045C34.6977 7.31933 34.6864 6.83091 34.406 6.29954C34.2432 5.98975 33.7706 5.59405 33.2709 5.58953L29.9651 5.56692C29.8203 6.64097 29.7299 7.63589 29.9244 8.68281L33.0787 8.69638C33.6621 8.69864 34.2387 8.47252 34.4648 7.90045H34.4671ZM33.2551 14.7902C34.0465 14.8061 34.7 14.5008 35.0075 13.8044C35.2743 13.2006 35.3625 12.4861 34.9713 11.8711C34.1347 10.5551 31.67 10.8942 29.8271 11.0163V14.7541C30.9894 14.8558 32.0521 14.7676 33.2573 14.7925L33.2551 14.7902Z" fill="#042B4C"/>
<path d="M33.2552 14.7903C32.05 14.7676 30.9872 14.8558 29.825 14.7518V11.0141C31.6678 10.892 34.1325 10.5528 34.9691 11.8688C35.3603 12.4839 35.2721 13.1984 35.0053 13.8021C34.6978 14.4986 34.0443 14.8038 33.2529 14.788L33.2552 14.7903ZM34.9149 12.8524C34.9036 12.3618 34.8448 12.0158 34.5395 11.7558C34.1167 11.394 33.5446 11.1882 32.9702 11.195L30.0398 11.2221L30.0488 14.5212C31.3761 14.6094 32.5972 14.6501 33.8498 14.4375C34.5508 14.3199 34.9307 13.567 34.9126 12.8524H34.9149Z" fill="#44596C"/>
<path d="M95.772 13.8021C95.3786 14.7178 94.7681 14.6183 94.1259 15.0751L91.772 15.0299C91.3537 15.0208 90.8585 14.5709 90.5374 14.2566C89.8364 13.5737 89.5176 12.5087 89.5153 11.5431L89.5086 8.70311C89.504 6.95749 90.3113 5.43798 92.0524 5.09202C93.954 4.71214 95.408 5.27291 96.0931 7.14742C96.4232 8.04963 96.62 9.76813 96.5137 10.7879C96.4074 11.8077 96.2039 12.8004 95.772 13.8021ZM95.7652 12.7891C96.2242 10.9756 96.2536 9.12369 95.7833 7.34867C95.3492 5.70706 93.9653 5.14402 92.2514 5.37692C91.1163 5.53068 90.2321 6.28818 89.9857 7.45947C89.6284 9.16891 89.6284 11.0276 90.0332 12.6986C90.3949 14.191 91.5301 14.8806 92.9455 14.858C94.2842 14.8354 95.4012 14.2226 95.763 12.7891H95.7652Z" fill="#44596C"/>
<path d="M20.2897 0V20.337H0.00244141V0H20.2897ZM0.395886 0.275863V19.9232H19.9347V0.278125H0.395886V0.275863Z" fill="#44596C"/>
<path d="M0.395694 0.275757H19.9368V19.9231H0.393433V0.275757H0.395694ZM1.21876 1.18023V19.0887H19.177V1.18249H1.21876V1.18023Z" fill="#042B4C"/>
<path d="M1.21875 1.1803H19.1793V19.0911H1.21875V1.1803ZM18.7383 1.47199H1.44487V18.7835H18.7383V1.47199Z" fill="#44596C"/>
<path d="M17.3771 11.0616H11.0345V17.3002H17.3771V11.0616Z" fill="#70A5CC"/>
<path d="M9.19844 9.05148L4.26456 9.08087C3.97739 9.08087 3.71509 8.83666 3.47314 8.67838L3.51158 3.64727C3.51385 3.30809 4.09497 3.13172 4.36631 3.13172L8.56757 3.1272C8.90675 3.13398 9.15095 3.38045 9.19392 3.72415V9.05148H9.19844Z" fill="#70A5CC"/>
<path d="M17.3794 2.82861V9.37471H10.9237V2.82861H17.3794ZM17.0967 9.05815L17.0786 3.11578L11.1589 3.09543C11.03 3.43235 11.1521 3.68108 11.1521 3.95242V8.47929C11.134 8.83203 11.3759 9.0785 11.7242 9.11468L17.099 9.05589L17.0967 9.05815Z" fill="#44596C"/>
<path d="M9.46066 10.9463V17.4087H2.91003V10.9463H9.46066ZM3.12485 11.1588L3.11806 17.2052L9.20062 17.212L9.20741 11.1656L3.12485 11.1588Z" fill="#44596C"/>
<path d="M17.0967 9.05811L11.7219 9.1169C11.3737 9.08072 11.1318 8.83426 11.1521 8.48151V3.95464C11.1476 3.6833 11.0255 3.43457 11.1544 3.09766L17.0741 3.11801L17.0922 9.06037L17.0967 9.05811Z" fill="#042B4C"/>
<path d="M3.12328 11.1592L3.11694 17.2056L9.1995 17.2119L9.20583 11.1656L3.12328 11.1592Z" fill="#042B4C"/>
</g>
<defs>
<clipPath id="clip0_384_323">
<rect width="125" height="20.3393" fill="white"/>
</clipPath>
</defs>
</svg>
