<svg width="128" height="28" viewBox="0 0 128 28" fill="none" xmlns="http://www.w3.org/2000/svg">
<g clip-path="url(#clip0_369_5493)">
<path d="M21.4247 19.6728C21.4284 21.7565 20.6045 23.7565 19.1342 25.233C17.6638 26.7094 15.6674 27.5416 13.5836 27.5466H0V0.271612H12.3705C13.8795 0.269759 15.3563 0.707284 16.6207 1.53077C17.8852 2.35426 18.8826 3.52808 19.491 4.90893C20.0995 6.28981 20.2927 7.81791 20.0473 9.30677C19.8017 10.7956 19.128 12.1808 18.1084 13.2932C19.1319 14.013 19.9674 14.9683 20.5445 16.0786C21.1217 17.1888 21.4235 18.4215 21.4247 19.6728ZM11.3681 5.85498H6.35621V11.635H11.3681C11.9548 11.6615 12.5306 11.4696 12.9841 11.0964C13.3587 10.8218 13.6624 10.4618 13.8701 10.0463C14.0778 9.63093 14.1835 9.17194 14.1785 8.70751C14.1822 7.95711 13.8887 7.23573 13.362 6.70122C12.8354 6.16666 12.1185 5.86239 11.3681 5.85498ZM15.298 19.0358C15.3085 18.369 15.0814 17.7202 14.6575 17.2053C14.2337 16.6904 13.6405 16.3431 12.9841 16.2254C12.7546 16.1879 12.6374 16.1879 7.51317 16.1879H6.35621V21.9633H12.5204C13.2749 21.9376 13.9892 21.6162 14.5089 21.0685C15.0285 20.5207 15.3119 19.7907 15.298 19.0358Z" fill="#0A0A0A"/>
<path d="M45.5052 0.346619V17.1857C45.5052 20.0429 44.3702 22.7831 42.3498 24.8035C40.3294 26.8238 37.5892 27.9589 34.732 27.9589H34.0996C31.2464 27.9526 28.5123 26.8149 26.4969 24.7952C24.4816 22.7755 23.3498 20.0388 23.3499 17.1857V0.346619H29.7856V15.6446C29.7856 18.7267 31.3267 21.1905 34.0996 21.1905H34.7179C37.2988 21.1905 39.0694 18.7267 39.0694 15.6446V0.346619H45.5052Z" fill="#0A0A0A"/>
<path d="M55.7398 27.5469H48.7793V0.309326H55.7398V27.5469Z" fill="#0A0A0A"/>
<path d="M76.8176 20.9986V27.5562H59.1824V0.309326H66.1194V20.9986H76.8176Z" fill="#0A0A0A"/>
<path d="M99.1419 3.5458C101.383 5.60011 102.891 8.33205 103.433 11.3239C103.975 14.3157 103.523 17.4028 102.145 20.1132C97.5632 28.9378 87.6987 27.5467 79.3381 27.5467V0H86.3125C91.0107 0 95.4416 0.192045 99.1419 3.5458ZM90.0875 6.66533H86.3125V20.8813C90.7013 20.8813 95.5584 20.5769 96.8277 15.4525C97.0613 14.4217 97.0645 13.3522 96.8379 12.3199C96.6117 11.2875 96.1605 10.3177 95.5173 9.47909C94.8741 8.64053 94.0544 7.95376 93.1157 7.46747C92.1776 6.98123 91.144 6.70736 90.0875 6.66533Z" fill="#0A0A0A"/>
<path d="M128 27.5465H121.026L116.712 17.2417H112.281V27.5465H105.77V0.308978H118.754C120.587 0.305218 122.373 0.89533 123.843 1.991C125.313 3.08668 126.389 4.62899 126.909 6.38715C127.43 8.14528 127.367 10.0246 126.73 11.7441C126.093 13.4635 124.917 14.9305 123.377 15.9255L128 27.5465ZM118.506 5.89702H112.126V11.6724H118.506C119.216 11.5855 119.869 11.238 120.338 10.6972C120.808 10.1563 121.059 9.46064 121.044 8.74491C121.057 8.03787 120.803 7.352 120.332 6.82416C119.862 6.29632 119.21 5.96523 118.506 5.89702Z" fill="#0A0A0A"/>
</g>
<defs>
<clipPath id="clip0_369_5493">
<rect width="128" height="27.9467" fill="white"/>
</clipPath>
</defs>
</svg>
