<svg width="128" height="11" viewBox="0 0 128 11" fill="none" xmlns="http://www.w3.org/2000/svg">
<g clip-path="url(#clip0_364_3014)">
<path d="M95.306 5.19197C95.306 3.14603 94.0466 1.63984 92.1086 1.63984C90.1603 1.63984 88.9111 3.14089 88.9111 5.19197C88.9111 7.22764 90.1603 8.73896 92.1086 8.73896C94.0466 8.73896 95.306 7.2225 95.306 5.19197ZM88.1863 5.19197C88.1863 2.83245 89.7336 1.0127 92.1086 1.0127C94.4681 1.0127 96.0308 2.82731 96.0308 5.19197C96.0308 7.55149 94.4681 9.37125 92.1086 9.37125C89.7336 9.37125 88.1863 7.55149 88.1863 5.19197ZM101.182 9.22217V8.3637C100.918 8.66673 100.595 8.91247 100.232 9.08576C99.8697 9.25905 99.4755 9.35622 99.074 9.37125C97.8866 9.37125 97.2337 8.81607 97.2337 7.49494V3.37735H97.866V7.35101C97.866 8.48707 98.4366 8.80579 99.2797 8.80579C100.03 8.80579 100.791 8.35856 101.182 7.83422V3.37735H101.809V9.22731H101.182V9.22217ZM103.464 8.09639V3.92739H102.498V3.37221H103.464V1.7735H104.107V3.37221H105.294V3.92739H104.107V7.99872C104.107 8.47165 104.302 8.79551 104.713 8.79551C104.991 8.79551 105.232 8.66185 105.366 8.51792L105.608 9.00113C105.376 9.22217 105.099 9.36611 104.616 9.36611C103.839 9.37125 103.464 8.89832 103.464 8.09639ZM110.327 7.75711V4.86298C110.119 4.54107 109.834 4.27552 109.499 4.0899C109.163 3.90427 108.787 3.80431 108.404 3.79888C107.109 3.79888 106.358 4.88868 106.358 6.30748C106.358 7.72627 107.109 8.80065 108.404 8.80065C109.227 8.80065 109.993 8.31743 110.327 7.75711ZM110.327 9.22217V8.29173C110.1 8.62247 109.796 8.89338 109.441 9.08135C109.087 9.26932 108.692 9.36878 108.291 9.37125C106.744 9.37125 105.69 8.18378 105.69 6.30748C105.69 4.45687 106.744 3.22828 108.291 3.22828C109.124 3.22828 109.864 3.65494 110.327 4.31808V1.14635H110.969V9.22731H110.327V9.22217ZM116.989 6.29205C116.989 4.99663 116.228 3.79888 114.845 3.79888C113.488 3.79888 112.717 4.99663 112.717 6.29205C112.717 7.59776 113.493 8.80065 114.845 8.80065C116.228 8.80065 116.989 7.59776 116.989 6.29205ZM112.049 6.29205C112.049 4.58539 113.139 3.22828 114.845 3.22828C116.578 3.22828 117.667 4.58539 117.667 6.29205C117.667 7.99872 116.578 9.37125 114.845 9.37125C113.139 9.37125 112.049 7.99872 112.049 6.29205ZM123.379 6.29205C123.379 4.99663 122.618 3.79888 121.235 3.79888C119.878 3.79888 119.107 4.99663 119.107 6.29205C119.107 7.59776 119.883 8.80065 121.235 8.80065C122.618 8.80065 123.379 7.59776 123.379 6.29205ZM118.439 6.29205C118.439 4.58539 119.528 3.22828 121.235 3.22828C122.967 3.22828 124.057 4.58539 124.057 6.29205C124.057 7.99872 122.967 9.37125 121.235 9.37125C119.528 9.37125 118.439 7.99872 118.439 6.29205ZM125.132 9.22217V3.37221H125.759V4.37976C126.257 3.72177 126.92 3.25398 127.733 3.25398V3.94282C127.625 3.91711 127.537 3.91711 127.419 3.91711C127.081 3.95346 126.756 4.06633 126.468 4.24715C126.181 4.42797 125.938 4.67198 125.759 4.96065V9.22217H125.132ZM14.2342 5.19711C14.2342 2.70394 16.0899 1.01784 18.4752 1.01784C19.1271 1.00084 19.7717 1.15933 20.3414 1.47675C20.9111 1.79417 21.3851 2.25884 21.7137 2.82217L20.516 3.44932C20.3069 3.0943 20.0096 2.79935 19.6529 2.5931C19.2962 2.38684 18.8923 2.27628 18.4803 2.27213C16.8816 2.27213 15.6941 3.48531 15.6941 5.19197C15.6941 6.87808 16.8816 8.11181 18.4803 8.11181C19.3439 8.11181 20.1304 7.6029 20.516 6.93462L21.7291 7.54121C21.3992 8.10756 20.9243 8.5757 20.3532 8.89737C19.7821 9.21905 19.1356 9.38263 18.4803 9.37125C16.0848 9.37639 14.2342 7.68 14.2342 5.19711ZM22.567 1.15149H23.8368V9.23245H22.567V1.15149ZM27.4866 4.27695C26.407 4.27695 25.8981 5.11486 25.8519 5.81912H29.147C29.111 5.12514 28.638 4.27695 27.4866 4.27695ZM24.5307 6.29719C24.5307 4.60081 25.7645 3.23342 27.502 3.23342C29.2601 3.23342 30.3756 4.56482 30.3756 6.40515V6.71872H25.8673C25.9079 7.1755 26.1239 7.59878 26.4699 7.89974C26.8159 8.20069 27.265 8.35593 27.723 8.33286C28.3421 8.33253 28.9384 8.0995 29.3937 7.68L29.9746 8.51792C29.3189 9.09222 28.471 9.39869 27.5997 9.37639C27.1907 9.39555 26.7822 9.32893 26.4005 9.18083C26.0188 9.03273 25.6723 8.80641 25.3833 8.51641C25.0943 8.22642 24.8691 7.87917 24.7223 7.49698C24.5755 7.11479 24.5102 6.7061 24.5307 6.29719ZM35.511 7.4641V5.15085C35.3389 4.91236 35.1137 4.71715 34.8532 4.58065C34.5927 4.44415 34.304 4.3701 34.0099 4.36434C32.9921 4.36434 32.3495 5.17655 32.3495 6.30233C32.3495 7.44354 32.9921 8.25575 34.0099 8.25575C34.3038 8.2463 34.5917 8.17011 34.8517 8.03296C35.1118 7.8958 35.3372 7.70127 35.511 7.4641ZM35.511 9.23245V8.43053C35.2928 8.72272 35.0098 8.96025 34.6842 9.12439C34.3586 9.28853 33.9993 9.3748 33.6347 9.37639C32.1439 9.37639 31.0387 8.24033 31.0387 6.29719C31.0387 4.40547 32.1285 3.23342 33.6347 3.23342C34.3749 3.23342 35.038 3.56241 35.511 4.18956V3.37735H36.7858V9.22731H35.511V9.23245ZM37.8242 9.23245V3.37735H39.094V4.22555C39.3196 3.93167 39.6068 3.69062 39.9353 3.51925C40.2638 3.34788 40.6258 3.25033 40.996 3.23342V4.49286C40.8693 4.46591 40.7399 4.45384 40.6104 4.45687C40.0655 4.45687 39.351 4.82185 39.094 5.24338V9.22731H37.8242V9.23245ZM43.484 5.19711C43.484 2.70394 45.3397 1.01784 47.725 1.01784C48.3763 1.00012 49.0205 1.15836 49.5895 1.47589C50.1585 1.79342 50.6314 2.25851 50.9584 2.82217L49.7606 3.44932C49.5512 3.09464 49.2538 2.79996 48.8972 2.59376C48.5406 2.38755 48.1368 2.27677 47.725 2.27213C46.1262 2.27213 44.9388 3.48531 44.9388 5.19197C44.9388 6.87808 46.1262 8.11181 47.725 8.11181C48.5886 8.11181 49.3751 7.6029 49.7606 6.93462L50.9738 7.54121C50.6439 8.10756 50.1689 8.5757 49.5979 8.89737C49.0268 9.21905 48.3803 9.38263 47.725 9.37125C45.3397 9.37639 43.484 7.68 43.484 5.19711ZM55.662 9.23245V5.55181C55.662 4.63165 55.1993 4.36434 54.4848 4.36434C54.1924 4.3731 53.9058 4.44739 53.646 4.58174C53.3862 4.71609 53.1599 4.90706 52.9838 5.14057V9.23759H51.7089V1.15149H52.9838V4.169C53.2415 3.87639 53.5587 3.64206 53.9142 3.48162C54.2696 3.32119 54.6551 3.23833 55.0451 3.23856C56.3046 3.23856 56.9368 3.89141 56.9368 5.08916V9.23245H55.662ZM62.2213 7.4641V5.15085C62.0492 4.91236 61.824 4.71715 61.5635 4.58065C61.303 4.44415 61.0143 4.3701 60.7203 4.36434C59.7025 4.36434 59.0599 5.17655 59.0599 6.30233C59.0599 7.44354 59.7025 8.25575 60.7203 8.25575C61.0142 8.2463 61.302 8.17011 61.5621 8.03296C61.8221 7.8958 62.0476 7.70127 62.2213 7.4641ZM62.2213 9.23245V8.43053C62.0032 8.72272 61.7202 8.96025 61.3946 9.12439C61.069 9.28853 60.7097 9.3748 60.345 9.37639C58.8543 9.37639 57.7542 8.24033 57.7542 6.29719C57.7542 4.40547 58.844 3.23342 60.345 3.23342C61.0853 3.23342 61.7484 3.56241 62.2213 4.18956V3.37735H63.4911V9.22731H62.2213V9.23245ZM68.4363 9.23245V5.57237C68.4363 4.64707 67.9634 4.3592 67.2488 4.3592C66.6062 4.3592 66.0511 4.74988 65.7478 5.13543V9.23245H64.4729V3.37735H65.7478V4.16386C66.008 3.87149 66.3271 3.63745 66.6841 3.47709C67.0411 3.31674 67.428 3.2337 67.8194 3.23342C69.0788 3.23342 69.7111 3.91197 69.7111 5.10972V9.22731H68.4363V9.23245ZM74.7129 9.23245V5.57237C74.7129 4.64707 74.24 4.3592 73.5254 4.3592C72.8829 4.3592 72.3277 4.74988 72.0244 5.13543V9.23245H70.7547V3.37735H72.0244V4.16386C72.2846 3.87149 72.6037 3.63745 72.9607 3.47709C73.3177 3.31674 73.7047 3.2337 74.096 3.23342C75.3555 3.23342 75.9878 3.91197 75.9878 5.10972V9.22731H74.7129V9.23245ZM79.689 4.27695C78.6095 4.27695 78.1005 5.11486 78.0543 5.81912H81.3494C81.3134 5.12514 80.8405 4.27695 79.689 4.27695ZM76.7332 6.29719C76.7332 4.60081 77.972 3.23342 79.6992 3.23342C81.4573 3.23342 82.5728 4.56482 82.5728 6.40515V6.71872H78.0646C78.1052 7.1755 78.3212 7.59878 78.6672 7.89974C79.0132 8.20069 79.4623 8.35593 79.9203 8.33286C80.5394 8.33253 81.1357 8.0995 81.591 7.68L82.1719 8.51792C81.5159 9.09178 80.6682 9.39819 79.7969 9.37639C79.3882 9.39561 78.9799 9.329 78.5985 9.18084C78.217 9.03269 77.8708 8.80628 77.5822 8.5162C77.2936 8.22612 77.0689 7.8788 76.9227 7.49662C76.7764 7.11443 76.7119 6.70585 76.7332 6.29719ZM83.4107 1.15149H84.6805V9.23245H83.4107V1.15149Z" fill="black"/>
<path d="M10.6924 6.52849V9.42777C10.6924 9.59181 10.6601 9.75425 10.5973 9.9058C10.5346 10.0574 10.4426 10.1951 10.3266 10.3111C10.2106 10.4271 10.0729 10.5191 9.92131 10.5818C9.76975 10.6446 9.60732 10.6769 9.44327 10.6769H1.34175C1.01045 10.6769 0.692722 10.5453 0.45846 10.3111C0.224198 10.0768 0.0925903 9.75907 0.0925903 9.42777V7.84962C0.801988 9.1399 2.49323 9.54086 3.41853 9.54086C5.02753 9.54086 7.20713 9.12448 10.6924 6.52849ZM9.34046 0.0770873C7.80343 0.0770873 5.65982 1.11548 4.83733 1.54729C-1.00749 4.61106 1.94319 11.6434 10.6873 4.74472V1.32624C10.6871 1.15388 10.6513 0.983407 10.5822 0.825475C10.5132 0.667544 10.4123 0.52554 10.2859 0.408326C10.1596 0.291112 10.0104 0.201204 9.84771 0.144213C9.68504 0.0872221 9.51236 0.0643714 9.34046 0.0770873ZM5.25886 0.0770873H5.264H1.34175C1.01045 0.0770873 0.692722 0.208694 0.45846 0.442957C0.224198 0.677219 0.0925903 0.994947 0.0925903 1.32624V4.66247C1.2852 1.23371 5.25886 0.0770873 5.25886 0.0770873Z" fill="black"/>
</g>
<defs>
<clipPath id="clip0_364_3014">
<rect width="128" height="10.7952" fill="white"/>
</clipPath>
</defs>
</svg>
