<svg width="112" height="37" viewBox="0 0 112 37" fill="none" xmlns="http://www.w3.org/2000/svg">
<g clip-path="url(#clip0_342_1031)">
<mask id="mask0_342_1031" style="mask-type:luminance" maskUnits="userSpaceOnUse" x="0" y="0" width="112" height="37">
<path d="M112 0H0V36.3212H112V0Z" fill="white"/>
</mask>
<g mask="url(#mask0_342_1031)">
<path d="M53.5801 28.0799C56.8447 28.0799 59.6755 26.5275 61.4105 24.1076L58.4655 21.9617C57.3697 23.4913 55.7717 24.4501 53.6942 24.4501C50.2242 24.4501 47.713 21.5736 47.713 18.1492C47.713 14.7249 50.247 11.894 53.7171 11.894C57.1871 11.894 57.3697 12.83 58.4427 14.3824L61.3877 12.2365C59.6527 9.81657 56.8218 8.26419 53.5573 8.26419C48.1239 8.26419 43.8092 12.7844 43.8092 18.1721C43.8092 23.5597 48.1239 28.1028 53.5573 28.1028" fill="black"/>
<path d="M66.5014 27.7603V7.69345L63.5565 9.81657C63.1227 10.159 62.8488 10.6612 62.8488 11.2548V27.7603H66.5014Z" fill="black"/>
<path d="M81.5916 27.7603V14.8162H77.9389V21.6421C77.9389 23.9707 76.318 24.7012 75.0168 24.7012C73.7155 24.7012 72.5284 23.7652 72.5284 21.7334V14.7705L69.6291 16.8708C69.1725 17.1904 68.8757 17.7383 68.8757 18.3319V21.916C68.8529 25.8198 70.6335 28.1028 74.0351 28.1028C77.4366 28.1028 77.3682 27.3494 77.9389 25.66V27.7831H81.5916V27.7603Z" fill="black"/>
<path d="M94.627 21.2312C94.627 23.126 93.1203 24.6784 91.294 24.6784C89.4676 24.6784 87.9153 23.1945 87.9153 21.2312C87.9153 19.2679 89.5818 17.8068 91.294 17.8068C93.0062 17.8068 94.627 19.3135 94.627 21.2312ZM98.3482 21.2312C98.3482 17.0534 95.3119 14.4052 91.9788 14.4052C88.6458 14.4052 88.7143 14.9988 87.8011 16.3001V7.67062L84.9018 9.77091C84.4452 10.1133 84.1713 10.6384 84.1713 11.232V27.7603H87.8239V26.1394C88.7371 27.4864 90.5178 28.0799 92.0017 28.0799C95.3347 28.0799 98.371 25.4089 98.371 21.2312" fill="black"/>
</g>
<path d="M108.073 14.8162L105.174 22.2813L102.275 14.8162H98.2568L103.256 26.5275L100.152 34.1297H104.055L112 14.8162H108.073Z" fill="black"/>
<mask id="mask1_342_1031" style="mask-type:luminance" maskUnits="userSpaceOnUse" x="0" y="0" width="112" height="37">
<path d="M112 0H0V36.3212H112V0Z" fill="white"/>
</mask>
<g mask="url(#mask1_342_1031)">
<path d="M36.3212 31.0249V5.29637C36.3212 2.37424 33.947 0 31.0249 0H5.29637C2.37424 0 0 2.37424 0 5.29637V31.0249C0 33.947 2.37424 36.3212 5.29637 36.3212H31.0249C33.947 36.3212 36.3212 33.947 36.3212 31.0249Z" fill="black"/>
<path d="M30.5226 14.0856C30.5226 9.77091 27.0069 6.25522 22.6921 6.25522C18.3774 6.25522 20.7745 6.43785 19.8842 6.78029C20.4777 7.28253 21.3909 8.17287 21.916 8.99472C22.2127 8.94906 22.4182 8.94906 22.715 8.94906C25.5458 8.94906 27.8287 11.2548 27.8287 14.0628C27.8287 16.8708 23.1259 22.8749 18.7884 26.2764C18.7884 26.2764 18.5372 26.5047 18.2176 26.5047C17.898 26.5047 17.6241 26.2536 17.6241 26.2536C16.5054 25.3633 15.8434 24.7925 14.7932 23.8109C14.4508 23.8565 14.0399 23.8565 13.6974 23.8565C12.5103 23.8565 11.3917 23.5826 10.3416 23.1945C12.4875 25.5687 14.9759 27.6462 16.4598 28.7648L16.8707 29.0844C16.8707 29.0844 17.5327 29.6095 18.2861 29.5867C19.0395 29.5867 19.5874 29.0844 19.5874 29.0844L19.9983 28.7648C23.1716 26.3677 30.5454 20.1582 30.5454 14.0628" fill="black"/>
</g>
<mask id="mask2_342_1031" style="mask-type:luminance" maskUnits="userSpaceOnUse" x="10" y="6" width="21" height="24">
<path d="M19.8842 6.78026C20.4777 7.2825 21.3909 8.17284 21.916 8.99469C22.2127 8.94903 22.4182 8.94903 22.715 8.94903C25.5458 8.94903 27.8287 11.2548 27.8287 14.0628C27.8287 16.8708 23.1259 22.8748 18.7884 26.2764C18.7884 26.2764 18.5372 26.5047 18.2176 26.5047C17.898 26.5047 17.6241 26.2536 17.6241 26.2536C16.5054 25.3632 15.8434 24.7925 14.7932 23.8108C14.4508 23.8565 14.0399 23.8565 13.6974 23.8565C12.5103 23.8565 11.3917 23.5825 10.3416 23.1944C12.4875 25.5687 14.9759 27.6461 16.4598 28.7648L16.8707 29.0844C16.8707 29.0844 17.5327 29.6095 18.2861 29.5866C19.0395 29.5866 19.5874 29.0844 19.5874 29.0844L19.9983 28.7648C23.1716 26.3677 30.5454 20.1582 30.5454 14.0628C30.5454 7.96738 27.0297 6.23236 22.715 6.23236C18.4003 6.23236 20.7973 6.41499 19.907 6.75743" fill="white"/>
</mask>
<g mask="url(#mask2_342_1031)">
<path d="M29.823 2.57851L6.02234 7.07568L10.9858 33.3439L34.7864 28.8467L29.823 2.57851Z" fill="white"/>
</g>
<mask id="mask3_342_1031" style="mask-type:luminance" maskUnits="userSpaceOnUse" x="0" y="0" width="112" height="37">
<path d="M112 0H0V36.3212H112V0Z" fill="white"/>
</mask>
<g mask="url(#mask3_342_1031)">
<path d="M13.7203 22.327C16.3685 22.327 18.6971 21.0485 20.0897 19.0852L17.6926 17.3274C16.8023 18.583 15.501 19.3364 13.8116 19.3364C10.9808 19.3364 8.92618 17.0078 8.92618 14.1998C8.92618 11.3918 10.9808 9.08605 13.8345 9.08605C16.6881 9.08605 17.1675 10.0905 18.1948 11.2777C18.1948 11.2777 18.8569 10.6156 19.2221 10.296C19.5874 9.97639 20.4321 9.45132 20.4321 9.45132C18.8569 7.39669 16.3685 6.11826 13.7203 6.11826C9.29145 6.11826 5.77576 9.79376 5.77576 14.1998C5.77576 18.6058 9.29145 22.3041 13.7203 22.3041" fill="white"/>
</g>
<mask id="mask4_342_1031" style="mask-type:luminance" maskUnits="userSpaceOnUse" x="5" y="6" width="16" height="17">
<path d="M5.79858 14.2226C5.79858 18.6743 9.31428 22.327 13.7431 22.327C18.172 22.327 18.7199 21.0485 20.1125 19.0852L17.7154 17.3274C16.8251 18.583 15.5238 19.3364 13.8345 19.3364C11.0036 19.3364 8.94901 17.0078 8.94901 14.1998C8.94901 11.3918 11.0036 9.08605 13.8573 9.08605C16.7109 9.08605 17.1903 10.0905 18.2177 11.2777C18.2177 11.2777 18.8797 10.6156 19.245 10.296C19.6102 9.97639 20.4549 9.45132 20.4549 9.45132C18.8797 7.39669 16.3913 6.11826 13.7431 6.11826C9.31428 6.11826 5.79858 9.79376 5.79858 14.1998" fill="white"/>
</mask>
<g mask="url(#mask4_342_1031)">
<path d="M19.6213 2.75073L2.07715 7.02753L6.61888 25.6585L24.163 21.3817L19.6213 2.75073Z" fill="white"/>
</g>
</g>
<defs>
<clipPath id="clip0_342_1031">
<rect width="112" height="36.3212" fill="white"/>
</clipPath>
</defs>
</svg>
