<svg width="117" height="30" viewBox="0 0 117 30" fill="none" xmlns="http://www.w3.org/2000/svg">
<g clip-path="url(#clip0_338_333)">
<mask id="mask0_338_333" style="mask-type:luminance" maskUnits="userSpaceOnUse" x="0" y="0" width="117" height="30">
<path d="M116.871 0H0V29.309H116.871V0Z" fill="white"/>
</mask>
<g mask="url(#mask0_338_333)">
<path d="M105.774 19.4719H116.505C116.706 19.4719 116.871 19.6379 116.871 19.8401V23.0863C116.871 23.2886 116.706 23.4545 116.505 23.4545H104.599C104.475 23.4545 104.372 23.3974 104.3 23.2989C104.228 23.1952 104.212 23.0811 104.254 22.9618L105.429 19.7157C105.48 19.5653 105.614 19.4719 105.774 19.4719Z" fill="white"/>
<path d="M11.6227 4.06548C12.303 4.06548 12.9679 4.15364 13.607 4.32476C14.1431 4.46996 14.6585 4.6722 15.1482 4.92629C15.3234 5.01445 15.5347 4.95222 15.6326 4.78628L17.2459 1.98087C17.2974 1.89272 17.3078 1.79419 17.282 1.69566C17.2562 1.59714 17.1944 1.51935 17.1016 1.47268C16.3078 1.04747 15.478 0.715587 14.6276 0.487422C13.6431 0.222957 12.6329 0.0881311 11.6227 0.0881311C8.41163 0.0829455 5.50982 1.38971 3.40176 3.50544C1.29885 5.62119 0 8.54586 0 11.7765C0 15.0071 1.29885 17.9266 3.40176 20.0423C5.50467 22.1581 8.41163 23.4648 11.6175 23.4648C12.6329 23.4648 13.6431 23.3299 14.6224 23.0655C15.4729 22.8373 16.3078 22.5055 17.0964 22.0803C17.1892 22.0336 17.2459 21.9558 17.2768 21.8573C17.3026 21.7588 17.2923 21.6602 17.2407 21.572L15.6275 18.7666C15.5296 18.5955 15.3182 18.5333 15.143 18.6266C14.6533 18.8807 14.1379 19.083 13.6019 19.2282C12.9628 19.3993 12.2979 19.4875 11.6175 19.4875C9.49916 19.4875 7.58696 18.6267 6.20048 17.2317C4.81401 15.8368 3.95841 13.9078 3.95841 11.7817C3.95841 9.65558 4.81401 7.72654 6.20048 6.33161C7.58696 4.93666 9.50432 4.07585 11.6175 4.07585L11.6227 4.06548Z" fill="white"/>
<path d="M26.467 5.75606C24.0239 5.75606 21.8128 6.75169 20.215 8.36441C18.612 9.97713 17.6224 12.2018 17.6224 14.6545C17.6224 17.1073 18.612 19.3371 20.215 20.9447C21.8179 22.5574 24.0291 23.553 26.467 23.553C28.9049 23.553 31.1212 22.5574 32.719 20.9447C34.322 19.3319 35.3116 17.1073 35.3116 14.6545C35.3116 12.2018 34.322 9.97195 32.719 8.36441C31.1161 6.75169 28.9049 5.75606 26.467 5.75606ZM29.9255 18.1289C29.0441 19.0156 27.8174 19.5705 26.4722 19.5705C25.1269 19.5705 23.9002 19.0208 23.0189 18.1289C22.1375 17.2421 21.586 16.008 21.586 14.6545C21.586 13.3011 22.1323 12.0669 23.0189 11.1802C23.9054 10.2935 25.1269 9.73859 26.4722 9.73859C27.8174 9.73859 29.0441 10.2883 29.9255 11.1802C30.8068 12.0721 31.3583 13.3011 31.3583 14.6545C31.3583 16.008 30.812 17.2421 29.9255 18.1289Z" fill="white"/>
<path d="M54.5622 -1.90735e-06H51.3357C51.1347 -1.90735e-06 50.9698 0.165937 50.9698 0.368175V7.23909C49.5678 6.30568 47.8927 5.75601 46.0836 5.75601C43.6405 5.75601 41.4294 6.75164 39.8316 8.36436C38.2286 9.97708 37.239 12.2017 37.239 14.6545C37.239 17.1073 38.2286 19.3371 39.8316 20.9446C41.4345 22.5573 43.6457 23.553 46.0836 23.553C47.8927 23.553 49.5678 23.0033 50.9698 22.0699V23.1537C50.9698 23.3559 51.1347 23.5219 51.3357 23.5219H54.5622C54.7632 23.5219 54.9282 23.3559 54.9282 23.1537V0.368175C54.9282 0.165937 54.7632 -1.90735e-06 54.5622 -1.90735e-06ZM49.5369 18.1288C48.6555 19.0156 47.4288 19.5704 46.0836 19.5704C44.7384 19.5704 43.5117 19.0208 42.6303 18.1288C41.7489 17.2421 41.1974 16.0079 41.1974 14.6545C41.1974 13.3011 41.7438 12.0669 42.6303 11.1801C43.5168 10.2934 44.7384 9.73855 46.0836 9.73855C47.4288 9.73855 48.6555 10.2882 49.5369 11.1801C50.4183 12.0721 50.9698 13.3011 50.9698 14.6545C50.9698 16.0079 50.4234 17.2421 49.5369 18.1288Z" fill="white"/>
<path d="M62.0563 5.8338H58.8298C58.6278 5.8338 58.4639 5.99865 58.4639 6.20198V23.107C58.4639 23.3103 58.6278 23.4752 58.8298 23.4752H62.0563C62.2584 23.4752 62.4223 23.3103 62.4223 23.107V6.20198C62.4223 5.99865 62.2584 5.8338 62.0563 5.8338Z" fill="white"/>
<path d="M69.5557 -1.90735e-06H66.3292C66.1272 -1.90735e-06 65.9633 0.164837 65.9633 0.368175V23.1485C65.9633 23.3518 66.1272 23.5167 66.3292 23.5167H69.5557C69.7583 23.5167 69.9217 23.3518 69.9217 23.1485V0.368175C69.9217 0.164837 69.7583 -1.90735e-06 69.5557 -1.90735e-06Z" fill="white"/>
<path d="M77.0551 5.79225H73.8286C73.6266 5.79225 73.4626 5.9571 73.4626 6.16043V23.1536C73.4626 23.3569 73.6266 23.5218 73.8286 23.5218H77.0551C77.2572 23.5218 77.4211 23.3569 77.4211 23.1536V6.16043C77.4211 5.9571 77.2572 5.79225 77.0551 5.79225Z" fill="white"/>
<path d="M60.4431 -1.90735e-06C59.3504 -1.90735e-06 58.4639 0.891921 58.4639 1.99127C58.4639 3.09061 59.3504 3.98254 60.4431 3.98254C61.5358 3.98254 62.4223 3.09061 62.4223 1.99127C62.4223 0.891921 61.5358 -1.90735e-06 60.4431 -1.90735e-06Z" fill="white"/>
<path d="M75.4419 -1.90735e-06C74.3492 -1.90735e-06 73.4626 0.891921 73.4626 1.99127C73.4626 3.09061 74.3492 3.98254 75.4419 3.98254C76.5345 3.98254 77.4211 3.09061 77.4211 1.99127C77.4211 0.891921 76.5345 -1.90735e-06 75.4419 -1.90735e-06Z" fill="white"/>
<path d="M90.7549 19.4719H87.7294C87.2655 19.4719 86.8429 19.2852 86.5439 18.9845C86.2398 18.6785 86.0543 18.2533 86.0543 17.7918H86.044V9.77485H88.9355C89.1365 9.77485 89.3014 9.60891 89.3014 9.40667V6.16049C89.3014 5.95825 89.1365 5.79231 88.9355 5.79231H86.044V0.368175C86.044 0.165937 85.879 -1.90735e-06 85.678 -1.90735e-06H82.467C82.266 -1.90735e-06 82.101 0.165937 82.101 0.368175V5.79231H80.5135C80.3125 5.79231 80.1476 5.95825 80.1476 6.16049V9.40667C80.1476 9.60891 80.3125 9.77485 80.5135 9.77485H82.0959V17.7918H82.0907C82.0907 19.3578 82.7195 20.7735 83.7401 21.8002H83.7504C84.7709 22.827 86.1728 23.4596 87.7242 23.4596H90.7497C90.9508 23.4596 91.1157 23.2937 91.1157 23.0915V19.8453C91.1157 19.643 90.9508 19.4771 90.7497 19.4771L90.7549 19.4719Z" fill="white"/>
<path d="M106.676 5.94782C106.604 5.84411 106.501 5.79225 106.377 5.79225H102.955C102.8 5.79225 102.666 5.88559 102.609 6.03597L99.1253 15.6656L95.641 6.03597C95.5895 5.88559 95.4555 5.79225 95.2957 5.79225H91.8733C91.7496 5.79225 91.6465 5.84929 91.5744 5.94782C91.5022 6.05153 91.4868 6.16561 91.528 6.28488L97.0223 21.4683L94.3628 28.8215C94.3216 28.9356 94.337 29.0548 94.4092 29.1585C94.4813 29.2623 94.5844 29.3141 94.7081 29.3141H98.1356C98.2903 29.3141 98.4243 29.2208 98.481 29.0704L106.723 6.28488C106.764 6.1708 106.748 6.05153 106.676 5.94782Z" fill="white"/>
</g>
</g>
<defs>
<clipPath id="clip0_338_333">
<rect width="117" height="29.3789" fill="white"/>
</clipPath>
</defs>
</svg>
