<svg width="95" height="24" viewBox="0 0 95 24" fill="none" xmlns="http://www.w3.org/2000/svg">
<g clip-path="url(#clip0_326_3354)">
<mask id="mask0_326_3354" style="mask-type:luminance" maskUnits="userSpaceOnUse" x="0" y="0" width="95" height="24">
<path d="M94.8954 0H0V23.7979H94.8954V0Z" fill="white"/>
</mask>
<g mask="url(#mask0_326_3354)">
<path d="M85.885 15.8105H94.5982C94.7614 15.8105 94.8954 15.9453 94.8954 16.1095V18.7453C94.8954 18.9095 94.7614 19.0442 94.5982 19.0442H84.9308C84.8304 19.0442 84.7467 18.9979 84.6881 18.9179C84.6295 18.8337 84.617 18.741 84.6504 18.6442L85.6046 16.0085C85.6465 15.8863 85.7553 15.8105 85.885 15.8105Z" fill="#FFE400"/>
<path d="M9.43722 3.30102C9.98965 3.30102 10.5295 3.3726 11.0485 3.51154C11.4837 3.62944 11.9022 3.79365 12.2998 3.99997C12.4421 4.07155 12.6137 4.02102 12.6932 3.88628L14.0031 1.60839C14.0449 1.53681 14.0533 1.45681 14.0324 1.37681C14.0115 1.29681 13.9612 1.23365 13.8859 1.19576C13.2414 0.850492 12.5676 0.581019 11.8771 0.395756C11.0778 0.181019 10.2575 0.0715457 9.43722 0.0715457C6.82996 0.0673352 4.47379 1.12839 2.76211 2.84628C1.05463 4.5642 0 6.93893 0 9.56209C0 12.1853 1.05463 14.5558 2.76211 16.2737C4.4696 17.9916 6.82996 19.0526 9.43304 19.0526C10.2575 19.0526 11.0778 18.9431 11.8729 18.7284C12.5634 18.5431 13.2414 18.2737 13.8817 17.9284C13.957 17.8905 14.0031 17.8274 14.0282 17.7474C14.0491 17.6674 14.0407 17.5873 13.9989 17.5157L12.689 15.2378C12.6095 15.0989 12.4379 15.0484 12.2956 15.1242C11.898 15.3305 11.4795 15.4947 11.0443 15.6126C10.5253 15.7516 9.98546 15.8231 9.43304 15.8231C7.713 15.8231 6.16035 15.1242 5.03458 13.9915C3.90881 12.8589 3.2141 11.2926 3.2141 9.5663C3.2141 7.83999 3.90881 6.27367 5.03458 5.14104C6.16035 4.00839 7.71718 3.30944 9.43304 3.30944L9.43722 3.30102Z" fill="#272A31"/>
<path d="M21.4903 4.67374C19.5066 4.67374 17.7112 5.48216 16.4138 6.79163C15.1123 8.10111 14.3088 9.90742 14.3088 11.899C14.3088 13.8906 15.1123 15.7011 16.4138 17.0064C17.7154 18.3158 19.5107 19.1243 21.4903 19.1243C23.4698 19.1243 25.2693 18.3158 26.5667 17.0064C27.8682 15.6969 28.6718 13.8906 28.6718 11.899C28.6718 9.90742 27.8682 8.09689 26.5667 6.79163C25.2651 5.48216 23.4698 4.67374 21.4903 4.67374ZM24.2984 14.7201C23.5828 15.4401 22.5867 15.8906 21.4944 15.8906C20.4022 15.8906 19.4061 15.4443 18.6905 14.7201C17.9748 14.0001 17.527 12.9979 17.527 11.899C17.527 10.8001 17.9707 9.79795 18.6905 9.07795C19.4103 8.35795 20.4022 7.90742 21.4944 7.90742C22.5867 7.90742 23.5828 8.35374 24.2984 9.07795C25.014 9.80216 25.4618 10.8001 25.4618 11.899C25.4618 12.9979 25.0182 14.0001 24.2984 14.7201Z" fill="#272A31"/>
<path d="M44.3026 0H41.6828C41.5196 0 41.3857 0.134737 41.3857 0.298947V5.87789C40.2474 5.12 38.8872 4.67368 37.4183 4.67368C35.4346 4.67368 33.6392 5.4821 32.3419 6.79158C31.0403 8.10105 30.2368 9.90737 30.2368 11.8989C30.2368 13.8905 31.0403 15.7011 32.3419 17.0063C33.6434 18.3158 35.4388 19.1242 37.4183 19.1242C38.8872 19.1242 40.2474 18.6779 41.3857 17.92V18.8C41.3857 18.9642 41.5196 19.0989 41.6828 19.0989H44.3026C44.4659 19.0989 44.5998 18.9642 44.5998 18.8V0.298947C44.5998 0.134737 44.4659 0 44.3026 0ZM40.2222 14.72C39.5066 15.44 38.5106 15.8905 37.4183 15.8905C36.326 15.8905 35.33 15.4442 34.6143 14.72C33.8987 14 33.4509 12.9979 33.4509 11.8989C33.4509 10.8 33.8945 9.79789 34.6143 9.07789C35.3341 8.35789 36.326 7.90737 37.4183 7.90737C38.5106 7.90737 39.5066 8.35368 40.2222 9.07789C40.9379 9.8021 41.3857 10.8 41.3857 11.8989C41.3857 12.9979 40.9421 14 40.2222 14.72Z" fill="#272A31"/>
<path d="M50.3877 4.73685H47.7678C47.6038 4.73685 47.4707 4.8707 47.4707 5.03579V18.7621C47.4707 18.9272 47.6038 19.0611 47.7678 19.0611H50.3877C50.5517 19.0611 50.6848 18.9272 50.6848 18.7621V5.03579C50.6848 4.8707 50.5517 4.73685 50.3877 4.73685Z" fill="#272A31"/>
<path d="M56.4769 0H53.857C53.693 0 53.5599 0.133843 53.5599 0.298947V18.7958C53.5599 18.9609 53.693 19.0947 53.857 19.0947H56.4769C56.6413 19.0947 56.774 18.9609 56.774 18.7958V0.298947C56.774 0.133843 56.6413 0 56.4769 0Z" fill="#272A31"/>
<path d="M62.5661 4.70312H59.9462C59.7822 4.70312 59.6491 4.83698 59.6491 5.00207V18.8C59.6491 18.9651 59.7822 19.0989 59.9462 19.0989H62.5661C62.7301 19.0989 62.8632 18.9651 62.8632 18.8V5.00207C62.8632 4.83698 62.7301 4.70312 62.5661 4.70312Z" fill="#272A31"/>
<path d="M49.0778 0C48.1905 0 47.4707 0.724211 47.4707 1.61684C47.4707 2.50947 48.1905 3.23368 49.0778 3.23368C49.965 3.23368 50.6848 2.50947 50.6848 1.61684C50.6848 0.724211 49.965 0 49.0778 0Z" fill="#272A31"/>
<path d="M61.2562 0C60.3689 0 59.6491 0.724211 59.6491 1.61684C59.6491 2.50947 60.3689 3.23368 61.2562 3.23368C62.1434 3.23368 62.8632 2.50947 62.8632 1.61684C62.8632 0.724211 62.1434 0 61.2562 0Z" fill="#272A31"/>
<path d="M73.6899 15.8105H71.2333C70.8566 15.8105 70.5134 15.6589 70.2707 15.4147C70.0238 15.1663 69.8731 14.8211 69.8731 14.4463H69.8648V7.93684H72.2126C72.3758 7.93684 72.5097 7.80211 72.5097 7.63789V5.00211C72.5097 4.83789 72.3758 4.70316 72.2126 4.70316H69.8648V0.298947C69.8648 0.134737 69.7308 0 69.5676 0H66.9603C66.7971 0 66.6632 0.134737 66.6632 0.298947V4.70316H65.3742C65.211 4.70316 65.0771 4.83789 65.0771 5.00211V7.63789C65.0771 7.80211 65.211 7.93684 65.3742 7.93684H66.659V14.4463H66.6548C66.6548 15.7179 67.1654 16.8674 67.994 17.7011H68.0024C68.8311 18.5347 69.9694 19.0484 71.2291 19.0484H73.6857C73.8489 19.0484 73.9828 18.9137 73.9828 18.7495V16.1137C73.9828 15.9495 73.8489 15.8147 73.6857 15.8147L73.6899 15.8105Z" fill="#272A31"/>
<path d="M86.6174 4.82944C86.5588 4.74523 86.4751 4.70312 86.3747 4.70312H83.5958C83.4703 4.70312 83.3614 4.77891 83.3154 4.90102L80.4863 12.72L77.6573 4.90102C77.6154 4.77891 77.5066 4.70312 77.3769 4.70312H74.598C74.4976 4.70312 74.4139 4.74944 74.3553 4.82944C74.2967 4.91365 74.2841 5.00628 74.3176 5.10312L78.7788 17.4315L76.6194 23.4021C76.5859 23.4947 76.5984 23.5915 76.657 23.6758C76.7156 23.76 76.7993 23.8021 76.8998 23.8021H79.6828C79.8084 23.8021 79.9172 23.7263 79.9632 23.6042L86.6551 5.10312C86.6885 5.01049 86.676 4.91365 86.6174 4.82944Z" fill="#272A31"/>
</g>
</g>
<defs>
<clipPath id="clip0_326_3354">
<rect width="95" height="24" fill="white"/>
</clipPath>
</defs>
</svg>
