<svg width="106" height="18" viewBox="0 0 106 18" fill="none" xmlns="http://www.w3.org/2000/svg">
<g clip-path="url(#clip0_344_1238)">
<mask id="mask0_344_1238" style="mask-type:luminance" maskUnits="userSpaceOnUse" x="0" y="0" width="106" height="18">
<path d="M106 0H0V17.7688H106V0Z" fill="white"/>
</mask>
<g mask="url(#mask0_344_1238)">
<path d="M55.7882 6.5622C55.0034 6.11058 54.1057 5.88477 53.0951 5.88477C52.0846 5.88477 51.2239 6.11798 50.4317 6.58256C49.6395 7.04899 49.0157 7.66905 48.5567 8.44828C48.0977 9.22567 47.8682 10.0808 47.8682 11.0118C47.8682 11.9428 48.081 12.8201 48.5067 13.6049C48.9324 14.3897 49.5099 15.0153 50.2429 15.4799C50.974 15.9445 51.8199 16.1777 52.7768 16.1777C53.6153 16.1777 54.3501 15.9889 54.9812 15.6095C55.5217 15.2856 55.953 14.8561 56.288 14.3342V15.9389H58.3629V11.0118C58.3629 10.0419 58.1296 9.17014 57.6651 8.39831C57.1986 7.62648 56.5749 7.01567 55.7901 6.5622H55.7882ZM55.7679 12.5666C55.5013 13.033 55.1367 13.4069 54.6703 13.6938C54.2038 13.9807 53.68 14.1232 53.0933 14.1232C52.5066 14.1232 52.0068 13.9807 51.5478 13.6938C51.0888 13.4087 50.726 13.033 50.4613 12.5666C50.1948 12.102 50.0615 11.5893 50.0615 11.0303C50.0615 10.4713 50.1948 9.95678 50.4613 9.48479C50.726 9.01281 51.0888 8.63708 51.5478 8.35759C52.0068 8.0781 52.5214 7.93928 53.0933 7.93928C53.6652 7.93928 54.2038 8.0781 54.6703 8.35759C55.1349 8.63708 55.5013 9.01281 55.7679 9.48479C56.0344 9.95678 56.1658 10.4732 56.1658 11.0303C56.1658 11.5874 56.0326 12.1001 55.7679 12.5666Z" fill="#1D1D1B"/>
<path d="M62.2675 1.63672H60.0723V15.9406H62.2675V1.63672Z" fill="#1D1D1B"/>
<path d="M67.634 5.22745V6.14735H70.5695V8.02047H67.634V15.9405H65.4388V8.02047H63.8525V6.14735H65.4388V5.24966C65.4388 4.52965 65.5887 3.88368 65.8885 3.3136C66.1884 2.74352 66.6271 2.28819 67.2045 1.95688C67.3415 1.87914 67.4859 1.81066 67.634 1.75143C68.1226 1.55523 68.6871 1.45898 69.3294 1.45898C69.6607 1.45898 69.9809 1.49045 70.2863 1.55893C70.3826 1.58114 70.4788 1.60336 70.5695 1.63112V3.61715C70.5066 3.59494 70.4418 3.57273 70.377 3.55422C70.1031 3.47278 69.8217 3.43206 69.5293 3.43206C68.9426 3.43206 68.4817 3.57828 68.143 3.87073C67.8024 4.16317 67.634 4.61664 67.634 5.22745Z" fill="#1D1D1B"/>
<path d="M77.0826 6.28291C76.829 6.1626 76.5514 6.07375 76.2441 6.01452C75.9387 5.95529 75.6259 5.92383 75.3057 5.92383C74.4284 5.92383 73.6899 6.10707 73.0902 6.4717C72.4923 6.83818 72.0388 7.33978 71.7334 7.97834C71.428 8.61691 71.2744 9.34247 71.2744 10.1532V15.9391H73.4696V10.2328C73.4696 9.55532 73.6528 9.01671 74.0175 8.61691C74.384 8.21711 74.8781 8.01906 75.5038 8.01906C75.7703 8.01906 76.0387 8.05238 76.3108 8.11901C76.5828 8.18565 76.8401 8.28559 77.0789 8.41886V6.28476L77.0826 6.28291Z" fill="#1D1D1B"/>
<path d="M85.2092 6.58256C84.4244 6.11798 83.5323 5.88477 82.5365 5.88477C81.5407 5.88477 80.6652 6.11798 79.873 6.58256C79.0809 7.04899 78.4534 7.6672 77.9888 8.43718C77.5224 9.20901 77.291 10.066 77.291 11.0099C77.291 11.9539 77.5242 12.8183 77.9888 13.6031C78.4534 14.3879 79.0827 15.0135 79.873 15.4781C80.6652 15.9426 81.5518 16.1758 82.5365 16.1758C83.5212 16.1758 84.4078 15.9426 85.2 15.4781C85.9922 15.0135 86.6196 14.3879 87.0861 13.6031C87.5506 12.8183 87.7838 11.9539 87.7838 11.0099C87.7838 10.066 87.5506 9.22382 87.0861 8.44643C86.6196 7.66905 85.9959 7.04714 85.2111 6.58071L85.2092 6.58256ZM85.1889 12.5684C84.9223 13.0348 84.5614 13.4087 84.1024 13.6956C83.6434 13.9825 83.1214 14.125 82.5365 14.125C81.9516 14.125 81.4463 13.9825 80.9799 13.6956C80.5135 13.4106 80.1488 13.0348 79.8823 12.5684C79.6158 12.1038 79.4825 11.5911 79.4825 11.0322C79.4825 10.4732 79.6158 9.95863 79.8823 9.48664C80.147 9.01466 80.5135 8.63893 80.9799 8.35944C81.4445 8.07995 81.9646 7.94113 82.5365 7.94113C83.1084 7.94113 83.6434 8.07995 84.1024 8.35944C84.5614 8.63893 84.9242 9.01466 85.1889 9.48664C85.4554 9.95863 85.5868 10.475 85.5868 11.0322C85.5868 11.5893 85.4535 12.102 85.1889 12.5684Z" fill="#1D1D1B"/>
<path d="M96.506 6.57331C95.7675 6.11428 94.8532 5.88477 93.763 5.88477C92.6728 5.88477 91.7806 6.11428 91.0495 6.57331C90.3184 7.03233 89.7668 7.64684 89.393 8.41867C89.0209 9.1905 88.834 10.0549 88.834 11.0118V15.9389H91.0273V11.2506C91.0273 10.6657 91.1273 10.1271 91.3272 9.63472C91.5271 9.14237 91.8288 8.74628 92.2341 8.44828C92.6395 8.14843 93.1485 7.99851 93.7611 7.99851C94.3738 7.99851 94.905 8.14843 95.3177 8.44828C95.7286 8.74813 96.0377 9.14422 96.245 9.63472C96.4523 10.1271 96.5542 10.6657 96.5542 11.2506V15.9389H98.7493V10.9914C98.7493 10.0475 98.5587 9.18865 98.1811 8.41867C97.8017 7.64684 97.2427 7.03233 96.5042 6.57331H96.506Z" fill="#1D1D1B"/>
<path d="M103.048 8.02031V12.2719C103.048 12.8827 103.22 13.3602 103.566 13.7063C103.912 14.0524 104.364 14.2264 104.923 14.2264C105.228 14.2264 105.548 14.1764 105.879 14.0765C105.924 14.0635 105.963 14.0524 106.003 14.0321V15.9903C105.941 16.0126 105.876 16.0311 105.811 16.0496C105.446 16.1495 105.085 16.1995 104.723 16.1995C103.888 16.1995 103.179 16.0366 102.609 15.7127C102.035 15.3851 101.606 14.9298 101.311 14.3449C101.019 13.7581 100.873 13.0881 100.873 12.3311V8.02031H99.1865V6.14718H100.873V3.61328H103.049V6.14718H106.005V8.02031H103.049H103.048Z" fill="#1D1D1B"/>
<path d="M46.0969 8.2704C45.7045 7.53189 45.1493 6.9433 44.4292 6.50648C43.7129 6.06781 42.856 5.8457 41.8583 5.8457C40.8607 5.8457 40.0074 6.07707 39.2559 6.53424C38.5045 6.99327 37.9196 7.61333 37.4976 8.38886C37.0793 9.16809 36.8701 10.0288 36.8701 10.9727C36.8701 11.9833 37.0941 12.881 37.5457 13.6658C37.9973 14.4506 38.6211 15.0651 39.4133 15.5112C40.2055 15.9572 41.0995 16.1812 42.0934 16.1812C43.0873 16.1812 43.9536 15.9535 44.718 15.5019C45.4824 15.0503 46.0858 14.3988 46.5226 13.5474L44.7124 12.8718C44.4478 13.3049 44.1072 13.6325 43.6926 13.8565C43.2132 14.1156 42.6727 14.247 42.0749 14.247C41.4363 14.247 40.8755 14.0934 40.3887 13.788C39.9056 13.4789 39.5354 13.068 39.2819 12.5497C39.1727 12.3258 39.0949 12.0814 39.0412 11.8297H46.6837V10.7543C46.6837 9.83442 46.4838 9.00892 46.0951 8.2704H46.0969ZM39.0838 10.1972C39.1523 9.74558 39.3059 9.33283 39.5428 8.9682C39.7835 8.60357 40.0981 8.31297 40.4905 8.10197C40.8829 7.88726 41.3327 7.78176 41.838 7.78176C42.3433 7.78176 42.7893 7.88541 43.1743 8.09086C43.5612 8.30002 43.8703 8.5795 44.1035 8.93858C44.3349 9.29951 44.4644 9.71782 44.494 10.1972H39.0857H39.0838Z" fill="#1D1D1B"/>
<path d="M33.3949 1.63672L33.3801 7.19501C33.0821 6.89517 32.7397 6.63604 32.3492 6.41763C31.7051 6.05855 30.998 5.87901 30.228 5.87901C29.2322 5.87901 28.3494 6.10112 27.5775 6.54719C26.8075 6.99327 26.2023 7.60222 25.7655 8.3796C25.3268 9.15698 25.1084 10.0436 25.1084 11.0394C25.1084 11.9685 25.3379 12.8218 25.7951 13.5992C26.2541 14.3766 26.8779 15.0003 27.6682 15.4723C28.4586 15.9443 29.3451 16.1794 30.328 16.1794C31.3108 16.1794 32.2344 15.9535 33.0174 15.5019C33.8003 15.0503 34.4259 14.4358 34.8905 13.6584C35.3551 12.881 35.5883 12.0092 35.5883 11.0394V1.63672H33.3968H33.3949ZM32.997 12.5738C32.7305 13.0384 32.3658 13.4104 31.9013 13.6899C31.4367 13.9694 30.911 14.1082 30.328 14.1082C29.7449 14.1082 29.2415 13.9694 28.7843 13.6899C28.3253 13.4104 27.9644 13.0402 27.6978 12.5738C27.4313 12.1092 27.2999 11.5983 27.2999 11.0394C27.2999 10.4804 27.4331 9.96768 27.6978 9.4957C27.9625 9.02372 28.3253 8.64983 28.7843 8.37034C29.2433 8.09086 29.7579 7.95204 30.328 7.95204C30.8981 7.95204 31.4367 8.09086 31.9013 8.37034C32.3658 8.64983 32.7305 9.02372 32.997 9.4957C33.2617 9.96768 33.3949 10.4822 33.3949 11.0394C33.3949 11.5965 33.2617 12.1092 32.997 12.5738Z" fill="#1D1D1B"/>
<path d="M4.98539 11.9668L2.67174 17.4955C1.73888 17.6361 0.84119 17.7287 -0.000976562 17.7713L2.32007 12.2204C3.21776 12.1722 4.10805 12.0853 4.98354 11.9668H4.98539Z" fill="#FFC940"/>
<path d="M6.87908 16.6132C5.92586 16.8649 4.97819 17.0814 4.05273 17.2591L6.35342 11.7564C7.3233 11.5879 8.26356 11.388 9.15941 11.1641L6.88093 16.6132H6.87908Z" fill="#56B2FF"/>
<path d="M21.525 7.25568C21.5324 10.6003 15.032 14.1985 8.32986 16.2049L10.6009 10.7743C14.4582 9.64892 17.1717 8.17929 17.1754 7.45373C17.1809 6.4709 12.7998 4.60333 5.62012 4.32939L7.42846 0.00195312C13.294 0.549824 21.5139 2.80794 21.525 7.25568Z" fill="#024EC1"/>
</g>
</g>
<defs>
<clipPath id="clip0_344_1238">
<rect width="106" height="18" fill="white"/>
</clipPath>
</defs>
</svg>
