<svg width="94" height="68" viewBox="0 0 94 68" fill="none" xmlns="http://www.w3.org/2000/svg">
<g clip-path="url(#clip0_363_2443)">
<path d="M55.589 67.8392C55.7308 67.5362 56.005 67.5688 56.2211 67.4779C56.1816 67.084 56.0329 66.4756 55.7006 66.3521C55.1754 66.2029 54.4875 66.2029 53.96 66.3521C53.6091 66.45 53.4441 67.2728 53.6439 67.5035C53.7276 67.6014 53.9484 67.6271 54.0041 67.6014C54.1366 67.5408 54.2551 67.7156 54.1761 67.8462H49.3634C49.5214 67.5245 49.8723 67.5874 50.0838 67.4895L50.107 65.2263L48.2038 65.2193L48.2247 67.4732C48.4362 67.5851 48.7499 67.5245 48.9405 67.8532H46.1611C46.3122 67.5595 46.5539 67.5688 46.8374 67.5198L46.8722 62.7463C46.6352 62.6181 46.3447 62.681 46.1611 62.3454H48.9358C48.7894 62.6554 48.5408 62.6251 48.2782 62.6414C48.1387 63.3849 48.1782 64.0096 48.2201 64.8231L50.1024 64.8161L50.0861 62.6973C49.87 62.6018 49.5354 62.6903 49.3564 62.343L52.2148 62.4223C52.0684 62.6227 51.8313 62.5551 51.6919 62.5948C51.5316 62.6414 51.4363 62.8885 51.4409 63.1355L51.4944 67.3474C51.499 67.718 52.1358 67.7436 52.4634 67.6644C52.7911 67.5851 53.0397 67.352 53.2373 66.9115L55.3683 62.1892L57.7549 67.3963C57.8315 67.5618 58.3684 67.4919 58.1894 67.8741L55.5937 67.8415L55.589 67.8392ZM55.6448 65.9465L54.8407 64.1681L54.0204 65.9465H55.6425H55.6448Z" fill="black"/>
<path d="M19.3159 65.252C18.8814 65.9512 19.137 66.6575 19.1254 67.4569C19.3392 67.5758 19.6529 67.4989 19.8295 67.8485L17.0525 67.8439C17.243 67.5129 17.5498 67.5851 17.7892 67.4639V62.7113C17.5521 62.6041 17.2314 62.6974 17.0595 62.3431C19.2834 62.434 21.8815 61.8932 22.0813 63.688C22.165 64.4362 21.7281 64.9956 20.8985 65.2729L22.4926 67.4546C22.5786 67.5735 23.0085 67.5129 22.89 67.8742L21.2238 67.8415L19.3159 65.252ZM19.123 65.0375C19.8899 65.1144 20.4198 64.9536 20.6243 64.5131C20.8288 64.0726 20.8241 63.4689 20.5499 63.0703C20.2757 62.6717 19.7063 62.5715 19.1091 62.6624L19.123 65.0375Z" fill="black"/>
<path d="M0.38576 62.5715L0.376465 62.3827L2.87461 62.3687C4.46645 62.3594 5.52148 63.5435 5.52381 65.0981C5.52381 66.5642 4.56638 67.7879 3.06981 67.8112L0 67.8578C0.169642 67.4966 0.464771 67.6434 0.580964 67.5735C0.722719 67.4896 0.780816 67.1609 0.780816 66.9535L0.769197 63.0656C0.769197 62.7766 0.583288 62.6041 0.38576 62.5715ZM3.88084 66.5083C4.08766 65.5153 4.14576 64.6646 3.8669 63.7695C3.6136 62.9631 2.90482 62.4946 2.05661 62.7416L2.19372 67.359C2.57483 67.8765 3.72747 67.2518 3.88316 66.5083H3.88084Z" fill="black"/>
<path d="M27.5493 62.5761C28.7066 63.1821 29.1133 64.2986 28.9762 65.485C28.853 66.5339 28.1187 67.6014 26.9544 67.8695C25.3277 68.2447 23.8126 67.5804 23.3292 66.0164C22.9016 64.6273 23.4361 62.9933 24.9861 62.4363C25.7507 62.1612 26.7662 62.1659 27.5493 62.5761ZM27.31 63.4362C27.1171 62.8302 26.6012 62.5155 26.0597 62.5388C24.6538 62.5971 24.3238 65.0585 24.935 66.7833C25.1511 67.3893 25.6438 67.6923 26.2178 67.6573C27.5656 67.5711 27.8561 65.1517 27.31 63.4385V63.4362Z" fill="black"/>
<path d="M8.17771 65.1913C8.13821 65.8719 7.96624 66.6668 8.24046 67.2984C8.44495 67.7413 9.43259 67.5408 9.94849 67.3194C10.3714 67.1376 10.5876 66.704 10.9408 66.0328L10.7874 67.8578L6.17687 67.7902C6.33489 67.6317 6.77875 67.5781 6.77875 67.2868V62.8955C6.77875 62.5621 6.30468 62.5575 6.05603 62.4013L10.648 62.3244C10.5945 62.9025 10.7154 63.3453 10.5109 63.9863C10.3412 63.4782 10.1646 63.0423 9.79744 62.8628C9.3652 62.6507 8.3613 62.4759 8.21257 62.8628C7.97321 63.4898 8.16609 64.1588 8.14053 64.8743C9.02824 64.9513 9.14676 64.28 9.34196 63.5481C9.50231 64.541 9.48139 65.513 9.35591 66.4896C9.09331 65.858 9.13746 65.2706 8.18004 65.189L8.17771 65.1913Z" fill="black"/>
<path d="M35.9524 67.4056L36.7262 67.8298L33.8261 67.8485C34.0329 67.5268 34.3094 67.6154 34.6139 67.4709L34.5162 62.7672C33.9887 62.3943 32.9616 62.9887 32.9825 63.8418C32.699 63.3872 32.8338 62.9467 32.8338 62.3454L37.7464 62.3407L37.6837 63.8721C37.3374 63.4945 37.4002 63.1285 37.1957 62.963C36.8308 62.6717 36.4543 62.5854 35.9338 62.73L35.9524 67.4056Z" fill="black"/>
<path d="M66.4182 67.669C65.2075 68.4755 64.1547 67.2588 63.3693 67.9837C63.4018 67.2518 63.2252 66.6201 63.4646 65.8183C63.7597 66.9068 64.3709 67.7273 65.4375 67.6644C65.8558 67.6387 66.1858 67.3241 66.2532 66.9931C66.3206 66.6621 66.1324 66.3008 65.7815 66.1004L64.2942 65.2589C63.4785 64.7974 63.1555 63.8931 63.4901 63.1752C63.8945 62.3128 64.8403 62.0074 65.7257 62.3407L66.2625 62.5435C66.4275 62.6064 66.5994 62.427 66.7714 62.2009C66.8179 62.9258 67.0131 63.4316 66.7203 64.1495C66.5135 63.1402 65.8976 62.4852 64.9588 62.5412C64.6195 62.5622 64.3639 62.7999 64.2895 63.026C64.1873 63.3407 64.3058 63.7159 64.6381 63.9001L66.3508 64.858C66.8713 65.1494 67.1851 65.6692 67.2036 66.2006C67.2222 66.732 66.9782 67.2868 66.4135 67.6644L66.4182 67.669Z" fill="black"/>
<path d="M74.2659 67.6504C73.0017 68.4848 72.0466 67.2588 71.1635 67.9907C71.2425 67.1865 71.0473 66.5991 71.2751 65.83C71.5957 66.8952 72.1233 67.655 73.1458 67.676C73.5524 67.6853 73.9057 67.4406 74.0149 67.1702C74.1729 66.781 74.0265 66.3381 73.6314 66.1143L72.0396 65.2146C71.2495 64.7671 70.9776 63.8721 71.3262 63.1425C71.7212 62.3151 72.7019 62.0144 73.5803 62.3524L74.1055 62.5551C74.2775 62.6227 74.4587 62.4199 74.6121 62.2218C74.647 62.9024 74.7562 63.4455 74.5819 64.1331C74.324 63.2474 73.8057 62.4852 72.8274 62.5435C72.4765 62.5645 72.1999 62.7859 72.1186 63.0143C71.9954 63.3616 72.1442 63.7275 72.4904 63.921L74.0962 64.8114C74.6214 65.1027 74.9491 65.5526 74.9979 66.0327C75.0629 66.6667 74.8817 67.2425 74.2659 67.6504Z" fill="black"/>
<path d="M15.5838 67.8065L12.6999 67.8671C12.8951 67.5152 13.2018 67.5991 13.4598 67.4709L13.4342 62.8302C13.4342 62.5412 12.6069 62.6437 12.3281 62.8605C12.0655 63.0656 12.0887 63.3873 11.7332 63.8721L11.6727 62.3384H16.59C16.59 62.8279 16.6713 63.3267 16.5133 63.8278C16.274 63.3849 16.1787 63.0516 15.9858 62.9048C15.6372 62.6437 15.1771 62.5854 14.782 62.7486L14.8053 67.2378C14.8053 67.6294 15.2701 67.6201 15.5838 67.8065Z" fill="black"/>
<path d="M41.9107 63.9187C41.6435 64.9373 41.6319 66.2169 42.2942 67.021C43.1401 68.0466 44.5785 67.5408 45.3663 66.6341C45.271 67.7343 44.0673 67.9394 43.2051 67.958C41.4669 67.9977 40.1609 66.6947 40.284 64.9699C40.3561 63.9793 40.9626 63.1332 41.6272 62.7113C43.5537 61.4923 44.8202 63.1332 45.4639 62.2172C45.4453 62.9024 45.5894 63.4455 45.3779 64.2147C45.0503 63.2591 44.5483 62.695 43.7326 62.6111C42.917 62.5272 42.1547 62.9747 41.9084 63.921L41.9107 63.9187Z" fill="black"/>
<path d="M61.9609 67.5595C60.6433 68.5594 59.5395 67.2308 58.7889 67.9884C58.7703 67.2285 58.682 66.6341 58.8586 65.8603C59.1653 66.746 59.5883 67.5758 60.5968 67.6784C61.0453 67.725 61.466 67.5105 61.6054 67.1656C61.7704 66.7553 61.5775 66.3032 61.1383 66.0631L59.7463 65.2962C58.912 64.8371 58.5379 63.9234 58.9213 63.1286C59.3048 62.3337 60.3133 62.0074 61.1824 62.3757C61.5589 62.5365 61.8703 62.7043 62.2212 62.2428C62.2073 62.8838 62.3653 63.4432 62.1701 64.1401C61.875 63.2031 61.3753 62.5272 60.4435 62.5435C60.0763 62.5505 59.7835 62.7626 59.7021 63.0073C59.5813 63.364 59.7324 63.7509 60.0902 63.9513L61.7959 64.9047C62.2654 65.168 62.5419 65.6132 62.5884 66.0514C62.6488 66.6155 62.5024 67.1539 61.9656 67.5618L61.9609 67.5595Z" fill="black"/>
<path d="M88.0811 65.8882C88.1904 66.5735 88.0021 67.1585 87.9464 67.8555L83.1406 67.8485C83.3172 67.5291 83.6263 67.5734 83.8541 67.4499V62.7369C83.6286 62.6134 83.3219 62.681 83.143 62.343L86.0292 62.3523C85.8293 62.6414 85.5388 62.5761 85.2275 62.653L85.2112 67.3963C85.8712 67.6224 86.5218 67.5781 87.1191 67.3567C87.6489 67.0373 87.7 66.5152 88.0858 65.8859L88.0811 65.8882Z" fill="black"/>
<path d="M82.5666 65.8906C82.6805 66.5758 82.483 67.1586 82.4295 67.8578L77.6284 67.8508C77.7632 67.5595 78.0165 67.5618 78.307 67.5222L78.3418 62.737C78.1048 62.6111 77.805 62.6857 77.6284 62.3384L80.5286 62.4572C80.3822 62.5132 79.7245 62.4875 79.7222 62.7859L79.6967 67.3847C80.3543 67.6341 81.0027 67.5734 81.5999 67.359C82.1344 67.0467 82.1855 66.5199 82.5713 65.8906H82.5666Z" fill="black"/>
<path d="M90.4375 63.8254C90.1285 64.8184 90.1471 66.0491 90.7211 66.9534C91.3322 67.9161 92.4546 67.4989 93.4981 67.2751C92.4546 68.4172 90.4608 68.1072 89.4731 67.0373C88.4855 65.9675 88.6249 64.4618 89.3569 63.4502C90.161 62.3384 91.5948 61.9305 92.8962 62.4409C93.3029 62.5994 93.5631 62.6344 93.9791 62.2172C93.9396 62.9001 94.1162 63.4362 93.8768 64.2217C93.5538 63.2684 93.0658 62.6973 92.2594 62.6064C91.4531 62.5155 90.7001 62.9817 90.4399 63.8231L90.4375 63.8254Z" fill="black"/>
<path d="M32.3225 67.8089L29.4502 67.8275C29.578 67.5945 30.145 67.6364 30.1869 67.4546L30.2194 62.8908C30.2217 62.5715 29.7337 62.5505 29.4734 62.4223L32.0901 62.4177C31.7624 62.6204 31.5417 62.8256 31.544 63.2381L31.5812 67.2961C31.5835 67.6527 32.0552 67.6341 32.3225 67.8089Z" fill="black"/>
<path d="M70.4966 67.8136L67.7474 67.8532C67.9008 67.5502 68.1402 67.5688 68.4353 67.5222L68.4632 62.9001C68.4632 62.6437 68.0379 62.5552 67.7474 62.4596L70.5337 62.4177C70.4199 62.6088 69.8947 62.6018 69.8319 62.7719L69.8064 67.2821C69.8064 67.5781 70.2363 67.6154 70.4989 67.8136H70.4966Z" fill="black"/>
<path d="M3.56013 33.359C3.55548 33.4779 3.49041 33.5665 3.33704 33.5758C3.22781 33.5641 3.15577 33.4103 3.21387 33.2938C3.24873 33.2238 3.37189 33.1795 3.45323 33.2029C3.51365 33.2215 3.57872 33.2611 3.56245 33.359H3.56013Z" fill="black"/>
<path d="M0.376468 62.3827L0.385763 62.5715C0.264923 62.6088 0.125491 62.6134 0.0348609 62.4969C-0.0627411 62.3734 0.113872 62.1939 0.253303 62.2358C0.313724 62.2545 0.348582 62.3081 0.376468 62.3827Z" fill="black"/>
<path d="M46.3888 32.2099C43.721 33.1166 40.9138 33.6201 38.1275 34.0653C35.1413 34.5431 32.1296 34.8484 29.1179 34.9976C28.9645 34.8484 28.8274 34.6783 28.7484 34.4475L27.461 30.7578C27.4238 30.6529 27.4331 30.4991 27.4331 30.3942L27.4401 19.2621L25 20.6536C22.5995 22.0241 20.5499 24.1475 21.2284 26.9003C21.5677 28.2755 22.223 29.5341 23.1038 30.5247C23.1781 30.6086 23.2827 30.7298 23.3292 30.8347C23.457 31.1284 23.6871 31.3615 23.945 31.5223L24.1518 31.9139C23.4919 32.2635 22.5507 32.1726 21.7978 32.1866C21.656 31.8953 21.3423 31.7671 21.0518 31.6598L21.0704 31.5573C21.075 31.0771 20.6498 30.6249 20.3291 30.3406C20.2547 30.273 20.1548 30.0935 20.1106 30.0096C20.0735 29.7742 19.9852 29.5061 19.7807 29.3663C19.7226 29.294 19.6296 29.1379 19.5947 29.047C17.4243 23.4017 22.6413 19.1316 27.4076 16.3765L27.4424 12.4164L33.9957 12.4047L33.9887 8.32111C31.6323 9.24179 29.4572 10.2231 27.1891 11.2673L21.498 14.626C19.8155 15.619 18.4235 16.8567 17.0432 18.2085C14.9819 20.2294 13.3761 23.0963 14.2476 25.8467C14.7216 27.3431 15.6837 28.5085 16.6597 29.625C16.8898 29.8884 17.1663 30.4921 17.559 30.5317C17.6613 30.541 17.8263 30.7322 17.9239 30.7112C17.9448 30.8604 18.0029 30.9979 18.1237 31.1494C17.2244 31.3988 16.3158 31.4151 15.5861 31.2706C15.5141 30.9419 15.2724 30.8324 15.1027 30.6716C15.0075 30.5807 14.8611 30.4571 14.7727 30.3546C13.5457 28.9071 12.1723 27.483 11.4984 25.574C10.3226 22.2456 11.8679 18.2691 14.2313 15.7378C16.1787 13.6517 18.3956 12.0924 20.7846 10.5401C26.1945 7.22561 31.8577 4.68266 37.9021 2.73641L46.3818 0L46.3888 32.2099Z" fill="black"/>
<path d="M81.7346 35.275C81.6347 35.24 81.4767 35.2726 81.3814 35.2657L80.5286 35.2144L80.0406 35.1934L78.9019 35.1095L79.3922 33.042C79.4852 32.6551 79.3202 32.4174 79.2365 32.1843C79.1528 31.9512 78.9762 31.8393 78.8693 31.6762C78.5556 31.1937 78.1117 30.9652 77.6656 30.6413C77.2705 30.3569 76.75 30.1751 76.4548 29.7928C74.2937 26.9865 71.5701 24.679 68.2865 23.0264C68.0518 23.5672 68.4004 23.8818 68.8233 24.1242C70.4709 25.0612 73.1712 27.786 73.3293 29.012L71.3168 28.6484C71.0263 28.0727 70.6057 27.5366 70.1107 27.0285L68.2795 25.236L68.2354 28.3733L66.8015 28.3687C62.0353 28.357 57.3109 29.1309 52.6446 30.4082L47.5879 31.795L47.6599 0.0116577L61.4985 6.43779L61.4636 17.7657L68.24 17.7913V21.6768C72.8319 23.7932 77.2171 26.3292 80.1963 30.5061C81.2118 31.9302 81.6184 33.5991 81.7323 35.2773L81.7346 35.275Z" fill="black"/>
<path d="M63.5087 38.2631C63.4204 38.3703 63.4413 38.5638 63.5482 38.5661L63.9479 38.5778C64.1431 38.5824 64.3569 38.6011 64.4522 38.403L65.7721 38.4473C65.8767 38.5428 66.0184 38.5218 66.1556 38.5288L66.7876 38.5591C68.1192 38.6197 69.4182 38.7083 70.7219 38.9484C70.5174 39.0486 70.4105 39.3027 70.306 39.4216C69.4949 39.7968 69.223 40.5287 68.8373 40.5567C68.7188 40.566 68.5607 40.7268 68.7164 40.8807L68.3028 41.0928C68.1401 41.1767 68.0751 41.3212 67.9565 41.4168L67.2083 42.0204L56.479 48.8055C62.6186 47.9571 68.5259 46.1204 73.4943 42.9504C74.54 42.9085 75.5346 42.9365 76.5618 43.1229C76.9057 43.1859 77.2868 43.0577 77.647 43.4516C77.166 43.7266 76.9638 44.1438 76.7779 44.4119C76.5966 44.5284 76.2852 44.7196 76.1319 44.8827C76.0157 45.0062 75.7717 45.1647 75.6369 45.2603C75.3232 45.4841 74.9444 45.7055 74.8142 46.1157C74.3564 46.0831 73.9498 46.3348 73.5408 46.7264C65.7884 50.9662 56.4627 54.3902 47.6251 54.3553L47.6832 41.7081C52.7446 40.0462 57.9407 38.8458 63.2112 38.4915C63.2159 38.2958 63.4297 38.2771 63.5087 38.2678V38.2631Z" fill="black"/>
<path d="M46.3679 42.0321L46.3725 54.2947L29.6361 43.7802L32.1436 43.9178L32.3109 43.9317L32.6943 43.9084L33.4914 43.9131C36.2475 43.9271 39.0198 43.6171 41.7109 43.0367L46.3656 42.0344L46.3679 42.0321Z" fill="black"/>
<path d="M76.9103 46.2626L77.3147 46.2929L80.1777 46.4677L81.6603 46.4211C81.7323 46.4211 81.823 46.3791 81.8857 46.3465L82.5155 46.3325C82.5434 46.4304 82.6386 46.477 82.7479 46.449C82.8153 46.4304 82.8594 46.4001 82.8687 46.3278L84.1817 46.3185L84.5093 46.3302C84.6139 46.4281 84.7557 46.463 84.8951 46.463L85.8456 46.4514C85.8502 46.6052 85.9362 46.6238 86.0617 46.6169C86.2569 46.6052 86.5241 46.6005 86.7031 46.6751C87.0516 46.822 87.4072 46.9641 87.8743 46.9921L88.3158 46.3861C88.6272 46.6238 89.0153 46.8709 89.2895 47.2438C89.5335 47.5748 89.3523 48.0247 89.2035 48.344C87.865 47.4023 86.4033 46.6868 84.6883 46.7101L80.1777 46.7707L75.9506 46.5283C75.5114 46.5026 75.021 46.4211 74.8096 46.1157L76.908 46.2649L76.9103 46.2626Z" fill="black"/>
<path d="M16.9084 40.5893L16.5807 40.6009L15.3885 38.5545C14.5984 39.023 13.8455 39.4448 13.0949 39.8224C13.0484 39.4985 12.9741 39.1861 13.1019 38.8994C13.7851 38.5708 14.3777 38.0021 15.1469 37.8948C15.1933 37.8878 15.2421 37.8505 15.2584 37.8063C15.2886 37.5732 15.0655 37.3867 14.9726 37.2399C14.8912 36.6875 14.617 35.9719 14.3823 35.4358C14.3684 35.3029 14.3986 35.1071 14.5125 35.0652C14.7193 34.9883 14.94 35.0559 15.0214 35.2843L16.9084 40.587V40.5893ZM15.3514 37.8878L15.2096 38.0207C15.2259 38.1699 15.2166 38.326 15.3978 38.4706C15.5675 38.1769 15.4281 38.009 15.3514 37.8902V37.8878Z" fill="black"/>
<path d="M86.4893 40.7058C86.8402 40.7618 87.2167 40.6616 87.5467 40.7408C87.5769 41.3981 87.1772 41.9575 87.5327 42.3025L86.3476 43.0017C86.2453 43.0623 86.4684 43.4096 86.5544 43.4353C86.1919 44.2604 86.2593 45.2137 85.6899 45.265L85.188 45.3093L85.016 45.2976L85.992 41.7198C86.0919 41.3561 86.2988 41.0741 86.1919 40.7291C86.2825 40.7152 86.3987 40.6895 86.4893 40.7035V40.7058Z" fill="black"/>
<path d="M15.1027 30.6692C14.5613 30.7461 14.1546 31.1354 13.7014 31.3382C12.7835 31.7461 11.9446 32.2892 11.0894 32.8043C10.7246 33.0257 10.2644 33.1166 9.91354 33.3893C9.75087 33.5152 9.37673 33.5128 9.2373 33.655C9.03745 33.8578 9.03745 34.1771 9.10019 34.4452C8.56338 34.8018 7.8639 34.7995 7.23181 34.888H6.88323L6.72986 34.2028C7.40378 34.0606 7.99636 34.0256 8.65401 33.7506C8.84689 33.8252 9.00724 33.5431 8.68422 33.4569L10.4178 32.7157C11.9725 32.0514 13.2971 31.0608 14.7751 30.3546C14.8634 30.4594 15.0098 30.5806 15.105 30.6715L15.1027 30.6692Z" fill="black"/>
<path d="M10.5735 34.4988L11.8098 38.4449C11.9283 38.8249 12.0073 38.9134 12.2792 38.9251C11.9934 39.03 11.7215 39.1978 11.4101 39.2211L10.943 39.2304C10.8408 38.2375 10.8036 37.5685 10.3597 37.769C10.606 37.4124 10.7524 37.1024 10.6177 36.7154L9.93445 34.6923C10.0623 34.4825 10.3016 34.3729 10.5712 34.5011L10.5735 34.4988Z" fill="black"/>
<path d="M11.3265 39.4705C11.3196 39.5054 11.3405 39.559 11.3544 39.5987C10.0902 40.3305 8.97246 39.855 9.23505 40.9319C8.08242 40.9785 6.94605 40.8526 5.9375 40.3049L8.48677 39.7735C9.09097 39.855 9.64173 39.7269 10.2622 39.629L11.3288 39.4705H11.3265Z" fill="black"/>
<path d="M87.7675 44.0599C87.3538 44.4795 87.1865 45.0948 87.1865 45.6589C87.054 45.6076 86.8426 45.6542 86.7055 45.6496C86.7729 45.4887 86.5498 45.3792 86.5265 45.6332C86.5591 45.7894 86.7612 45.885 86.9169 45.9293L86.7078 46.6751C86.5289 46.6005 86.2616 46.6052 86.0664 46.6169C86.0037 46.5423 85.9316 46.491 85.8503 46.4514C85.8224 46.2486 85.8828 46.0038 86.2593 45.878C86.1268 45.829 85.9223 45.7847 85.8689 45.6635L85.6899 45.2673C86.2593 45.216 86.1919 44.2627 86.5544 43.4376C87.0587 43.412 87.3887 43.8548 87.7675 44.0623V44.0599Z" fill="black"/>
<path d="M4.70579 33.7133C4.70811 33.8065 4.69882 34.0023 4.80571 34.0536C4.91261 34.1049 5.03113 34.0256 5.04275 33.9604C5.05437 33.8998 5.00789 33.7995 4.99162 33.7226L5.32626 33.8065C5.5354 34.0163 5.55167 34.5757 5.7887 34.7575C6.1001 34.9976 6.59973 34.8927 6.88324 34.8904H7.23182C7.14351 35.5896 6.06989 34.8741 5.71202 35.5733C4.66396 35.3542 3.9273 34.4195 3.33704 33.5758C3.49273 33.5665 3.5578 33.4779 3.56013 33.359L4.70811 33.7133H4.70579Z" fill="black"/>
<path d="M89.5405 40.813L90.3167 41.186C90.5212 41.2839 90.7234 41.3561 90.9371 41.2769C91.0626 41.2303 91.1951 41.0578 91.2718 40.862C91.8109 41.2303 92.364 41.5776 92.7033 42.2908C91.7435 42.0297 90.8465 41.7547 89.9216 41.8013C89.9937 41.0112 88.9015 41.0671 88.2066 40.9016L88.0439 40.5683L89.5405 40.8154V40.813Z" fill="black"/>
<path d="M8.90039 34.9883C9.03517 35.7878 9.60917 36.3029 9.26291 36.7201C8.69124 36.6618 8.08472 36.6595 7.56417 36.4008L7.45728 35.3146C7.9081 34.9953 8.4728 35.1048 8.90039 34.9883Z" fill="black"/>
<path d="M9.47204 34.4149L9.56732 34.7109C9.33493 34.7249 9.11649 34.9277 8.89805 34.9883C8.47046 35.1048 7.90576 34.9929 7.45493 35.3146L7.56183 36.4008C6.86235 36.3285 6.20237 36.0651 5.70972 35.571C6.06527 34.8717 7.14121 35.5873 7.22952 34.8857C7.86161 34.7995 8.56109 34.8018 9.0979 34.4429C9.20015 34.3753 9.37211 34.4335 9.47204 34.4149Z" fill="black"/>
<path d="M88.5273 46.1553C88.8991 46.484 89.3709 46.6774 89.8984 46.6471C90.1773 47.3907 90.4561 48.1972 90.0982 49.1738L89.2059 48.3417C89.3569 48.0247 89.5382 47.5748 89.2919 47.2415C89.0176 46.8686 88.6296 46.6215 88.3182 46.3838C88.2624 46.3395 88.1671 46.2835 88.1044 46.2649L88.1137 46.0691C88.2089 46.1367 88.4088 46.1344 88.525 46.153L88.5273 46.1553Z" fill="black"/>
<path d="M86.3894 39.5707L86.3708 40.2863L84.8626 40.4215H83.373L83.5404 39.6127L86.3894 39.5707Z" fill="black"/>
<path d="M11.9144 39.5358L11.94 40.3259C11.0755 40.6826 10.1762 40.8947 9.23269 40.932C8.9701 39.8574 10.0879 40.3306 11.3521 39.5987L11.9121 39.5334L11.9144 39.5358Z" fill="black"/>
<path d="M9.56966 34.7109L9.93683 34.6899L10.62 36.7131C10.1367 36.7737 9.70212 36.7644 9.26523 36.7178C9.60916 36.3006 9.03517 35.7854 8.90271 34.986C9.11883 34.9277 9.33959 34.7226 9.57198 34.7086L9.56966 34.7109Z" fill="black"/>
<path d="M8.68427 33.4546C9.00496 33.5408 8.84461 33.8229 8.65406 33.7483C7.99641 34.0233 7.40382 34.056 6.7299 34.2005L6.88328 34.8881C6.59977 34.8904 6.10014 34.9953 5.78874 34.7552C5.55171 34.5734 5.53544 34.0163 5.32629 33.8042C6.44175 33.8578 7.64318 33.8975 8.68427 33.4523V33.4546Z" fill="black"/>
<path d="M88.7318 44.906C88.583 45.3536 88.3785 45.7381 88.5273 46.1554C88.4111 46.1367 88.2135 46.139 88.1159 46.0715C87.8301 45.8687 87.5024 45.7824 87.1864 45.6589C87.1864 45.0948 87.3537 44.4795 87.7674 44.0599C88.174 44.2814 88.4111 44.6217 88.7318 44.906Z" fill="black"/>
<path d="M83.9888 37.6198L83.538 39.6126L83.3707 40.4238L83.3242 40.7478L83.0105 41.9365H82.8525C82.7735 41.3957 82.8943 40.8457 82.9989 40.2443L83.5194 37.2189C83.6937 37.3144 83.8517 37.4496 83.9865 37.6221L83.9888 37.6198Z" fill="black"/>
<path d="M80.5008 35.9346C80.5496 35.9789 80.6402 36.0511 80.7053 36.0534L81.5395 36.0628L82.72 36.3844C83.1639 36.5056 83.5682 36.7597 84.0516 36.7364C84.1353 37.0441 84.0563 37.3331 83.9912 37.6221C83.8564 37.4496 83.7007 37.3144 83.5241 37.2189C83.3661 36.8926 83.0384 36.825 82.72 36.7574L80.8424 36.3611C80.6169 36.3145 80.3985 36.3401 80.1777 36.2586L80.1986 35.9206L80.5008 35.9346Z" fill="black"/>
<path d="M19.2485 40.7431L19.274 41.4447C18.1818 41.7221 17.0385 41.6964 16.9014 40.9599C17.4893 40.9272 18.0703 40.9972 18.6117 40.7944L19.2485 40.7454V40.7431Z" fill="black"/>
<path d="M89.5661 40.0928L89.5406 40.8131L88.044 40.566C87.8999 40.5427 87.7349 40.3422 87.5142 40.3842C87.5374 40.1604 87.5909 39.939 87.7001 39.6756C88.302 39.7245 89.0316 39.7199 89.5661 40.0928Z" fill="black"/>
<path d="M89.9216 41.8013C89.2152 41.8363 88.4901 41.9761 87.8534 42.2535C88.0835 41.9342 88.0997 41.4983 88.5343 41.1743C88.4065 41.1067 88.2787 41.0554 88.2066 40.9016C88.9015 41.0694 89.9937 41.0135 89.9216 41.8013Z" fill="black"/>
<path d="M11.4124 39.2211L11.3288 39.4705L10.2621 39.629C10.2714 39.2234 10.1041 38.8738 9.86243 38.5288C10.0437 38.333 10.1994 37.9997 10.3621 37.7666C10.8059 37.5662 10.8431 38.2351 10.9453 39.2281L11.4124 39.2187V39.2211Z" fill="black"/>
<path d="M10.2598 39.6313C9.63933 39.7269 9.08858 39.8574 8.48438 39.7758C8.83295 39.2188 9.45807 38.9694 9.86242 38.5335C10.1041 38.8785 10.2714 39.2281 10.2621 39.6337L10.2598 39.6313Z" fill="black"/>
<path d="M89.8984 46.6471C89.3709 46.6774 88.8991 46.484 88.5273 46.1553C88.3786 45.7358 88.5831 45.3535 88.7318 44.906C89.2756 45.3885 89.6428 45.9619 89.8984 46.6471Z" fill="black"/>
<path d="M89.9472 40.0928C89.9449 40.1721 89.9937 40.235 90.0657 40.2537C90.5537 40.305 90.907 40.6103 91.2718 40.8597C91.1928 41.0555 91.0627 41.2256 90.9372 41.2746C90.7234 41.3562 90.5212 41.2839 90.3167 41.1837L89.5405 40.8107L89.5661 40.0905H89.9472V40.0928Z" fill="black"/>
<path d="M21.4817 39.9133L21.7814 40.5893L20.4359 41.1487C20.3895 40.8923 20.3128 40.6149 20.1106 40.4051L20.4476 40.2746C20.7892 40.1417 21.1099 39.953 21.4817 39.9133Z" fill="black"/>
<path d="M13.1019 38.9017C12.9741 39.1884 13.0485 39.5008 13.0949 39.8247C12.7138 40.0182 12.3304 40.1674 11.9423 40.3282L11.9167 39.5381C12.2537 39.305 12.7231 39.0859 13.1042 38.9041L13.1019 38.9017Z" fill="black"/>
<path d="M88.2067 40.8993C88.2787 41.0531 88.4065 41.1067 88.5343 41.172C88.0998 41.496 88.0835 41.9342 87.8534 42.2512L87.5351 42.3025C87.1795 41.9552 87.5792 41.3981 87.549 40.7408L88.209 40.8993H88.2067Z" fill="black"/>
<path d="M87.7 39.6756C87.5908 39.939 87.5373 40.1604 87.5141 40.3842C87.2027 40.4425 86.8611 40.4262 86.5473 40.3726C86.4869 40.3632 86.4219 40.3143 86.3684 40.284L86.3893 39.5707L87.7 39.6756Z" fill="black"/>
<path d="M84.0493 36.7341C83.5659 36.7597 83.1592 36.5033 82.7177 36.3821L82.7014 35.6036C83.7657 35.9672 83.8378 35.9463 84.0516 36.7318L84.0493 36.7341Z" fill="black"/>
<path d="M22.9597 40.2536C22.5344 40.2047 22.1649 40.4308 21.7815 40.5893L21.4817 39.9133C21.6676 39.6406 21.9906 39.5381 22.2881 39.4192C22.6064 39.6057 22.7435 39.9716 22.9597 40.2536Z" fill="black"/>
<path d="M81.7347 35.2749L82.7014 35.6036L82.7177 36.3821L81.5372 36.0604C81.3722 35.8157 81.4303 35.5337 81.3792 35.268C81.4744 35.2726 81.6348 35.2423 81.7324 35.2773L81.7347 35.2749Z" fill="black"/>
<path d="M20.1107 40.4052C20.3129 40.6149 20.3896 40.8923 20.436 41.1487L19.2718 41.4447L19.2462 40.7431C19.546 40.7198 19.8179 40.5194 20.1107 40.4052Z" fill="black"/>
<path d="M16.9084 40.5893L17.3685 40.5543H18.14H18.477C18.5467 40.6103 18.5908 40.6918 18.6117 40.7921C18.0703 40.9972 17.4893 40.9249 16.9014 40.9576L16.5807 40.6009L16.9084 40.5893Z" fill="black"/>
<path d="M4.99164 33.7226C5.01024 33.7972 5.05439 33.8998 5.04277 33.9604C5.03115 34.0257 4.91031 34.1049 4.80574 34.0536C4.70116 34.0023 4.71046 33.8066 4.70581 33.7133L4.99164 33.7226Z" fill="black"/>
<path d="M90.0657 40.256C89.9937 40.2373 89.9449 40.1721 89.9472 40.0952L90.0657 40.256Z" fill="black"/>
<path d="M21.0681 31.5596C19.2718 32.422 17.4034 33.1259 15.4397 33.38C14.2755 33.4616 12.9927 33.3613 12.9114 32.781C12.8858 32.5898 13.0857 32.3498 13.3204 32.2472C15.6303 31.2519 17.8984 32.1283 19.4763 31.0515C19.7691 30.851 20.1967 30.7741 20.3245 30.3406C20.6452 30.6249 21.0704 31.0771 21.0658 31.5573L21.0681 31.5596Z" fill="black"/>
<path d="M19.4321 30.6739L19.4786 31.0562C17.8984 32.133 15.6326 31.2566 13.3227 32.2519C13.088 32.3545 12.8858 32.5945 12.9137 32.7857C12.9951 33.366 14.2778 33.4663 15.4421 33.3847C15.3654 33.7996 14.9308 33.7786 14.5869 33.746L13.6388 33.6574L13.6341 34.0769C13.3971 33.7786 13.1298 33.4499 12.7929 33.3521C12.6651 33.3148 12.5791 33.2681 12.4815 33.1912L12.4443 32.9931C12.3397 32.3381 13.4412 31.6692 14.2732 31.5806C14.7031 31.534 15.2306 31.3918 15.5885 31.2753C16.3158 31.4198 17.2245 31.4058 18.1261 31.1541C18.0053 31.0026 17.9472 30.865 17.9263 30.7159C18.4259 30.6133 18.979 30.5317 19.4345 30.6786L19.4321 30.6739Z" fill="black"/>
<path d="M19.5948 29.047C19.6297 29.1379 19.7203 29.2964 19.7807 29.3663L19.1556 29.371C19.0998 29.3523 18.9581 29.329 18.8698 29.3453C18.8047 29.357 18.735 29.4595 18.7722 29.5877C18.7908 29.653 18.8303 29.7346 18.9534 29.7089V29.8325L18.9441 30.1868C18.484 30.266 18.0309 30.3756 17.5614 30.5294C17.1687 30.4898 16.8922 29.8861 16.6621 29.6227C17.6265 29.2614 18.5932 29.0027 19.5995 29.047H19.5948Z" fill="black"/>
<path d="M15.1027 30.6692C15.2723 30.8324 15.514 30.9396 15.5861 31.2682C15.2259 31.3871 14.7007 31.5293 14.2708 31.5736C14.1522 31.3568 13.9152 31.3288 13.7014 31.3358C14.1546 31.1354 14.5612 30.7461 15.1027 30.6669V30.6692Z" fill="black"/>
<path d="M18.9418 30.1844L19.144 30.1494L19.9643 30.1425C19.8643 30.3266 19.6203 30.569 19.4321 30.6716C18.9743 30.5247 18.4212 30.604 17.9239 30.7088C17.8286 30.7298 17.6613 30.5387 17.5591 30.5294C18.0285 30.3755 18.4817 30.2637 18.9418 30.1867V30.1844Z" fill="white"/>
<path d="M19.7807 29.3686C19.9828 29.5085 20.0735 29.7788 20.1107 30.0119C20.0549 30.0515 19.9921 30.0912 19.9643 30.1424L19.1439 30.1494C19.1184 30.0212 19.0533 29.907 18.9487 29.8301V29.7066C19.0603 29.6273 19.1323 29.5061 19.1532 29.3709L19.7783 29.3663L19.7807 29.3686Z" fill="black"/>
<path d="M21.7931 32.1889C21.5189 32.1936 21.3353 32.2146 21.089 32.3171C20.8566 32.4127 20.5336 32.5316 20.1362 32.3568C20.4755 32.0934 20.8055 31.9582 21.0495 31.6622C21.34 31.7694 21.6537 31.8976 21.7955 32.1889H21.7931Z" fill="black"/>
<path d="M20.3268 30.3429C20.199 30.7764 19.7714 30.8533 19.4786 31.0538L19.4321 30.6715C19.6204 30.569 19.8644 30.3266 19.9643 30.1424C19.9922 30.0912 20.0549 30.0515 20.1107 30.0119C20.1548 30.0958 20.2525 30.2776 20.3291 30.3429H20.3268Z" fill="black"/>
<path d="M80.0383 35.1957L80.022 35.8903L78.6742 35.9066L78.8996 35.1118L80.0383 35.1957Z" fill="black"/>
<path d="M81.3791 35.268C81.4302 35.5337 81.3745 35.8157 81.5371 36.0604L80.7029 36.0511L80.6866 35.9019C80.661 35.6665 80.6541 35.4218 80.5239 35.2167L81.3768 35.268H81.3791Z" fill="black"/>
<path d="M80.5262 35.2167C80.6564 35.4218 80.6634 35.6642 80.6889 35.902L80.5007 35.9346L80.1986 35.9206L80.022 35.8927L80.0382 35.1981L80.5262 35.219V35.2167Z" fill="black"/>
<path d="M77.6377 42.9994L78.2093 43.1579C78.7671 43.3117 79.4712 43.2604 79.9871 43.5215C80.4263 43.7429 80.9422 43.9224 81.3605 44.1741C81.6696 44.3583 81.9322 44.8711 82.211 45.1391C82.1924 45.1717 82.2017 45.23 82.1994 45.2673L82.1692 45.6286C81.7672 45.9945 81.2327 46.153 80.6912 46.1134C80.6238 46.1087 80.5797 46.0994 80.5123 46.125C80.4263 46.139 80.2869 46.0924 80.1986 46.0598C79.5595 45.8314 78.8995 45.5517 78.2163 45.5866C78.2 45.3279 78.0118 45.1974 77.7539 45.0342L76.7778 44.4095C76.9661 44.1415 77.1659 43.7243 77.647 43.4492C77.2844 43.0553 76.9033 43.1835 76.5617 43.1206L76.5199 42.8152L77.6423 42.9947L77.6377 42.9994Z" fill="black"/>
<path d="M75.5021 42.2488L75.6671 42.5798L73.2875 41.9039L72.997 42.5472L74.6376 42.6474C75.3185 42.6894 75.9204 42.722 76.5153 42.8176L76.5571 43.1229C75.53 42.9364 74.5354 42.9085 73.4897 42.9504C71.6027 43.025 68.0867 42.7989 67.9519 41.4167C68.0704 41.3212 68.1355 41.1766 68.2982 41.0927C68.2633 41.2792 68.2517 41.6335 68.419 41.7897C69.0209 42.3537 69.8435 42.2045 70.4617 42.37C71.2425 42.5798 71.8095 42.4889 72.3347 41.75C72.4346 41.8013 72.667 41.827 72.8111 41.6685L71.0403 41.3445C70.3664 40.7245 69.5228 40.4634 68.7118 40.8783C68.5561 40.7245 68.7141 40.5636 68.8326 40.5543C69.2207 40.5263 69.4903 39.7968 70.3013 39.4192C70.2943 39.7245 70.2432 40.0136 70.3106 40.4308C71.4516 40.6755 72.4393 41.1697 73.5292 41.5542L75.4975 42.2465L75.5021 42.2488Z" fill="black"/>
<path d="M72.337 41.75L70.6266 41.7594C70.4547 41.757 70.4198 42.2162 70.4616 42.37C69.8435 42.2046 69.0208 42.3537 68.419 41.7897C68.2516 41.6335 68.2633 41.2792 68.2981 41.0927L68.7118 40.8806C69.5205 40.4634 70.364 40.7268 71.0403 41.3468L72.8111 41.6708C72.667 41.8293 72.4346 41.8013 72.3347 41.7524L72.337 41.75Z" fill="black"/>
<path d="M76.5223 45.4771C76.427 45.8221 76.5501 46.1717 76.9103 46.2626L74.8119 46.1134C74.942 45.7055 75.3185 45.4818 75.6345 45.258C75.9645 45.237 76.2899 45.258 76.5223 45.4771Z" fill="black"/>
<path d="M76.7755 44.4119L77.7516 45.0365C78.0095 45.1997 78.1977 45.3279 78.214 45.5889L77.4913 45.6239C77.4936 45.5913 77.5029 45.5353 77.4913 45.498C77.3426 45.0342 76.4758 45.3232 76.1295 44.8827C76.2829 44.7195 76.5943 44.5307 76.7755 44.4119Z" fill="black"/>
<path d="M76.1295 44.8804C76.4758 45.3209 77.3426 45.0319 77.4913 45.4957L76.5222 45.4771C76.2899 45.2603 75.9645 45.237 75.6345 45.258C75.7716 45.1624 76.0133 45.0016 76.1295 44.8804Z" fill="black"/>
<path d="M84.1957 45.6403L84.1817 46.3185L82.8688 46.3279L82.5155 46.3325L81.8858 46.3465C81.8137 46.3465 81.7208 46.3885 81.6604 46.4211L80.1777 46.4677L80.1963 46.0598C80.2846 46.0924 80.4241 46.1391 80.5101 46.1251L80.689 46.1134C81.2304 46.153 81.7673 45.9922 82.167 45.6286L84.1957 45.6403Z" fill="black"/>
<path d="M78.214 45.5866C78.8996 45.5516 79.5572 45.8313 80.1963 46.0598L80.1777 46.4677L77.3147 46.2928C77.403 46.0737 77.4681 45.8523 77.4913 45.6216L78.214 45.5866Z" fill="black"/>
<path d="M88.1067 46.2672C88.1695 46.2859 88.2647 46.3441 88.3205 46.3861L87.879 46.9921C87.4119 46.9642 87.0563 46.822 86.7078 46.6751L86.9169 45.9293L88.1067 46.2672Z" fill="black"/>
<path d="M85.8666 45.6612C85.92 45.7824 86.1245 45.8267 86.257 45.8756C85.8805 46.0015 85.8201 46.2463 85.848 46.449L84.8975 46.4607L84.8766 46.2626L85.0346 45.6332H85.2019L85.8666 45.6612Z" fill="black"/>
<path d="M77.4913 45.498C77.5029 45.533 77.496 45.5913 77.4913 45.6239C77.4681 45.8546 77.403 46.0784 77.3147 46.2952L76.9103 46.2649C76.5501 46.174 76.4247 45.8267 76.5223 45.4794L77.4913 45.498Z" fill="black"/>
<path d="M84.5303 45.6262H84.6977L85.0346 45.6355L84.8766 46.2649L84.5094 46.3301L84.1818 46.3162L84.1957 45.6402L84.5303 45.6262Z" fill="black"/>
<path d="M82.8687 46.3278C82.8594 46.4024 82.8153 46.4304 82.7479 46.449C82.6387 46.477 82.5434 46.4327 82.5155 46.3325L82.8687 46.3278Z" fill="black"/>
<path d="M84.8766 46.2649L84.8975 46.463C84.758 46.463 84.614 46.4304 84.5117 46.3302L84.8789 46.2649H84.8766Z" fill="black"/>
<path d="M86.0663 46.6168C85.9408 46.6238 85.8549 46.6052 85.8502 46.4514C85.9316 46.491 86.0059 46.5423 86.0663 46.6168Z" fill="black"/>
<path d="M81.6626 46.4234C81.7207 46.3908 81.816 46.3511 81.888 46.3488C81.8253 46.3814 81.7346 46.4211 81.6626 46.4234Z" fill="black"/>
<path d="M15.3723 34.916C15.4258 35.6642 15.8324 36.3145 16.095 37.0487L17.3662 40.5567L16.906 40.5916L15.0191 35.2889C14.9377 35.0605 14.717 34.9929 14.5101 35.0699C14.3963 35.1118 14.3661 35.3076 14.38 35.4405C14.3173 35.2983 14.0128 35.1841 14.1592 34.9253L15.37 34.9183L15.3723 34.916Z" fill="black"/>
<path d="M13.1019 38.9017C13.16 38.8108 13.0624 38.7456 12.995 38.7502L12.6952 38.7712C12.7045 38.6826 12.7184 38.5964 12.7626 38.4962C13.4504 38.4216 14.6891 37.7573 14.8099 37.2748L14.9726 37.2422C15.0655 37.389 15.2886 37.5755 15.2584 37.8086C15.2979 37.8272 15.3304 37.8552 15.3514 37.8878C15.428 38.0067 15.5698 38.1745 15.3978 38.4682C15.2143 38.3237 15.2259 38.1699 15.2096 38.0184C15.205 37.9764 15.1864 37.9344 15.1469 37.8948C14.3777 38.002 13.7828 38.5708 13.1019 38.8994V38.9017Z" fill="black"/>
<path d="M14.1616 34.9207C14.0152 35.1794 14.3196 35.2936 14.3824 35.4358C14.6171 35.9719 14.8913 36.6874 14.9726 37.2399L14.8099 37.2725C14.4242 36.6851 14.0896 36.0674 13.7991 35.4218C13.8897 35.2913 13.8874 35.1025 13.8037 34.9393L14.1639 34.9183L14.1616 34.9207Z" fill="black"/>
<path d="M86.1918 40.7315C86.2987 41.0764 86.0942 41.3585 85.9919 41.7221L85.0159 45.2999L84.1724 45.2789C84.1724 45.1321 84.3234 45.0365 84.4187 44.9456C84.4814 44.8874 84.3652 44.7009 84.2072 44.5983C84.8347 43.7429 84.823 42.6987 85.1228 41.6708C85.2227 41.3305 85.7108 41.0182 85.4784 40.6126C85.7317 40.6103 85.9757 40.5776 86.1895 40.7338L86.1918 40.7315Z" fill="black"/>
<path d="M86.3707 40.2863C86.4242 40.3142 86.4893 40.3632 86.5497 40.3748L86.4916 40.7058C86.3986 40.6918 86.2848 40.7198 86.1941 40.7314C85.978 40.5753 85.734 40.6079 85.483 40.6102C85.2042 40.6126 84.8091 40.496 84.5488 40.6219C84.5953 40.4424 84.7278 40.4331 84.8672 40.4214L86.3731 40.2863H86.3707Z" fill="black"/>
<path d="M87.5141 40.3842C87.7348 40.3422 87.8998 40.5427 88.0439 40.566L88.2066 40.8993L87.5466 40.7408C87.2166 40.6616 86.8402 40.7595 86.4893 40.7059L86.5474 40.3749C86.8611 40.4285 87.2027 40.4448 87.5141 40.3865V40.3842Z" fill="black"/>
<path d="M85.0159 45.2999L85.1879 45.3116L85.2018 45.6355H85.0345L84.6976 45.6286C84.7254 45.4304 84.5024 45.4304 84.5302 45.6286L84.1956 45.6402L84.1724 45.2789L85.0159 45.2999Z" fill="black"/>
<path d="M85.6899 45.265L85.8666 45.6612L85.2019 45.6332L85.188 45.3116L85.6899 45.265Z" fill="black"/>
<path d="M11.0894 32.8043C11.129 33.0513 11.2266 33.2658 11.452 33.401C11.1708 33.5175 10.9547 33.7203 10.6154 34.0816C10.8594 34.2144 11.0499 34.1748 11.2591 34.1492L12.1143 36.6968C12.3257 37.3261 12.335 37.9811 12.7626 38.4962C12.7185 38.5964 12.7045 38.6803 12.6952 38.7712L12.2793 38.9251C12.005 38.9134 11.9284 38.8248 11.8098 38.4449L10.5735 34.4988C10.5433 34.4009 10.6316 34.1562 10.4643 34.0839C10.369 34.0443 10.2041 34.0583 10.0809 34.1072L9.91357 33.387C10.2645 33.1143 10.7246 33.0234 11.0894 32.8019V32.8043Z" fill="black"/>
<path d="M13.7015 31.3358C13.913 31.3288 14.1523 31.3568 14.2708 31.5736C13.4389 31.6621 12.3374 32.3311 12.442 32.9861L11.4543 33.401C11.2289 33.2658 11.1313 33.049 11.0918 32.8043C11.947 32.2891 12.7859 31.7461 13.7038 31.3382L13.7015 31.3358Z" fill="black"/>
<path d="M9.91356 33.387L10.0809 34.1072C9.92053 34.261 9.69976 34.3706 9.47203 34.4149C9.37442 34.4335 9.20013 34.3752 9.09789 34.4428C9.03514 34.1725 9.03514 33.8555 9.23499 33.6527C9.37675 33.5082 9.74857 33.5128 9.91124 33.387H9.91356Z" fill="black"/>
<path d="M12.6952 38.7712L12.995 38.7502C13.0624 38.7456 13.16 38.8085 13.1019 38.9017C12.7231 39.0836 12.2514 39.305 11.9144 39.5357L11.3544 39.601C11.3427 39.5614 11.3218 39.5054 11.3265 39.4728L11.4101 39.2234C11.7215 39.1978 11.9911 39.0323 12.2792 38.9274L12.6952 38.7736V38.7712Z" fill="black"/>
<path d="M10.5735 34.4988C10.304 34.3729 10.0646 34.4825 9.93681 34.6899L9.56964 34.7109L9.47437 34.4149C9.7021 34.3706 9.92287 34.2587 10.0832 34.1072C10.2041 34.0606 10.3714 34.0443 10.4667 34.0839C10.634 34.1561 10.5457 34.4009 10.5759 34.4988H10.5735Z" fill="black"/>
<path d="M87.1865 45.6589C87.5025 45.7824 87.8302 45.8686 88.116 46.0714L88.1067 46.2672L86.9169 45.9292C86.7635 45.885 86.5613 45.7894 86.5265 45.6332C86.5962 45.6006 86.6636 45.6495 86.7054 45.6495C86.8425 45.6542 87.054 45.6076 87.1865 45.6589Z" fill="black"/>
<path d="M86.7054 45.6519C86.6636 45.6519 86.5962 45.6006 86.5265 45.6356C86.5497 45.3815 86.7728 45.491 86.7054 45.6519Z" fill="black"/>
<path d="M21.7862 38.2211C21.9675 38.5172 22.1627 38.8435 22.2347 39.1791L20.9938 39.601C20.9635 37.9881 19.3438 35.4941 19.539 35.2167C19.5948 35.1398 19.7249 35.0745 19.8225 35.0279L21.7862 38.2211Z" fill="black"/>
<path d="M22.237 39.1791L22.2881 39.4169C21.9907 39.5358 21.6676 39.6383 21.4817 39.911C21.1122 39.9507 20.7892 40.1395 20.4476 40.2723C20.4685 40.1744 20.3709 40.0672 20.271 40.0835C20.4825 39.925 20.7567 39.6803 20.9937 39.5987L22.2347 39.1768L22.237 39.1791Z" fill="black"/>
<path d="M84.8626 40.4215C84.7232 40.4331 84.5884 40.4424 84.5442 40.6219C84.1631 40.806 83.7611 40.8014 83.3289 40.7431L83.3753 40.4191H84.8649L84.8626 40.4215Z" fill="black"/>
<path d="M85.4784 40.6103C85.7108 41.0158 85.2204 41.3258 85.1228 41.6685C84.8231 42.6987 84.8347 43.7429 84.2072 44.596C84.3676 44.7009 84.4814 44.885 84.4187 44.9433C84.3234 45.0342 84.1724 45.1298 84.1724 45.2766L82.1971 45.265C82.1994 45.23 82.1901 45.1694 82.2087 45.1368C82.4225 44.7848 82.4853 44.3699 82.5108 43.962C82.5155 43.8711 82.5108 43.7266 82.555 43.6497C82.8548 43.1183 82.8594 42.5052 83.0128 41.9319L83.3265 40.7431C83.7587 40.7991 84.1608 40.8061 84.5419 40.6219C84.8021 40.4961 85.1995 40.6126 85.4761 40.6103H85.4784Z" fill="black"/>
<path d="M83.524 37.2166L83.0035 40.242C82.8989 40.8434 82.7758 41.3935 82.8571 41.9342C82.4132 42.412 82.6782 43.0623 82.3296 43.2884C82.0949 43.2302 81.9252 43.032 81.7114 42.9481L82.7223 36.7527C83.0407 36.8203 83.3683 36.8879 83.5264 37.2143L83.524 37.2166Z" fill="black"/>
<path d="M83.0128 41.9319C82.8594 42.5076 82.8548 43.1183 82.555 43.6497L82.3273 43.2861C82.6758 43.0577 82.4109 42.4097 82.8548 41.9319H83.0128Z" fill="black"/>
<path d="M82.72 36.7551L81.7091 42.9504L80.7122 42.5635C80.3845 42.4353 80.0708 42.2535 79.699 42.2372C79.9964 42.0088 79.9964 41.6638 80.0406 41.2746L80.2474 39.4519C80.2962 39.0253 80.4798 38.7363 80.5565 38.2305L80.84 36.3588L82.7177 36.7551H82.72Z" fill="black"/>
<path d="M80.1754 36.2563C80.3962 36.3378 80.6146 36.3122 80.8401 36.3588L80.5565 38.2305C80.4799 38.7363 80.2963 39.0253 80.2475 39.4519L80.0406 41.2746C79.9965 41.6638 79.9965 42.0088 79.699 42.2372C79.5155 42.2302 79.3179 42.2046 79.1483 42.1137C79.0786 42.0764 78.9786 41.9692 78.8857 41.9598C78.6231 41.4867 79.0739 41.0182 79.1227 40.5916C79.1994 39.9273 79.3481 39.4565 79.4132 38.8388L79.6619 36.2306C79.8199 36.2283 80.029 36.2027 80.1778 36.2563H80.1754Z" fill="black"/>
<path d="M80.0221 35.8903L80.1987 35.9183L80.1777 36.2563C80.029 36.2003 79.8199 36.226 79.6618 36.2306L78.5394 36.2563L78.6765 35.9066L80.0221 35.8903Z" fill="black"/>
<path d="M80.7029 36.0512C80.6378 36.0512 80.5472 35.9789 80.4984 35.9323L80.6866 35.8997L80.7029 36.0488V36.0512Z" fill="black"/>
<path d="M20.271 40.0858C20.3709 40.0695 20.4685 40.1744 20.4476 40.2746L20.1106 40.4052C19.8178 40.5194 19.5459 40.7198 19.2461 40.7431L18.6094 40.7921C18.5885 40.6942 18.5443 40.6103 18.4746 40.5543C18.4793 40.5054 18.4978 40.4191 18.5374 40.3585C18.9045 40.4471 19.267 40.242 19.6435 40.1837L20.2686 40.0835L20.271 40.0858Z" fill="black"/>
<path d="M16.181 34.8671L18.14 40.5543H17.3685L16.0974 37.0464C15.8324 36.3122 15.4281 35.6619 15.3746 34.9137L16.1833 34.8647L16.181 34.8671Z" fill="black"/>
<path d="M16.6109 34.8438L18.5397 40.3609C18.5002 40.4215 18.4816 40.5054 18.477 40.5566H18.14L16.181 34.8694C16.2972 34.8624 16.511 34.902 16.6109 34.8461V34.8438Z" fill="black"/>
<path d="M12.7905 33.3473C12.9787 34.1049 13.483 34.7249 13.799 35.4265C14.0895 36.0721 14.4241 36.6874 14.8099 37.2771C14.689 37.7596 13.4504 38.4239 12.7626 38.4985C12.335 37.9834 12.3257 37.3284 12.1142 36.6991L11.259 34.1515L12.4767 33.1888C12.5743 33.2658 12.6626 33.3124 12.7881 33.3497L12.7905 33.3473Z" fill="black"/>
<path d="M13.6318 34.0722C13.7968 34.2774 13.8223 34.5454 14.1035 34.613C14.4288 34.6899 14.6543 34.634 14.9238 34.5874C15.4281 34.5011 15.9603 34.599 16.4483 34.3869C16.6249 34.31 16.9874 34.3729 17.3011 34.4242C17.1059 34.6713 16.834 34.7062 16.6133 34.8438C16.5133 34.8997 16.3019 34.8601 16.1834 34.8671L15.3747 34.916L14.1639 34.923L13.8037 34.944C13.8874 35.1071 13.8897 35.2936 13.7991 35.4265C13.483 34.7272 12.9764 34.1072 12.7905 33.3474C13.1298 33.4476 13.3947 33.7762 13.6318 34.0722Z" fill="black"/>
<path d="M14.5845 33.7413C14.7495 33.9907 14.875 34.2681 14.9215 34.5874C14.6542 34.634 14.4265 34.6899 14.1011 34.613C13.82 34.5454 13.7944 34.2797 13.6294 34.0723L13.634 33.6527L14.5822 33.7413H14.5845Z" fill="black"/>
<path d="M12.4396 32.9861L12.4768 33.1842L11.2591 34.1469C11.0499 34.1725 10.8594 34.2145 10.6154 34.0793C10.9546 33.718 11.1708 33.5152 11.4519 33.3987L12.4396 32.9838V32.9861Z" fill="black"/>
<path d="M19.1556 29.3733C19.1347 29.5085 19.0626 29.6297 18.9511 29.7089C18.8302 29.7345 18.7884 29.653 18.7698 29.5877C18.735 29.4595 18.8047 29.357 18.8674 29.3453C18.958 29.329 19.0975 29.3523 19.1532 29.3709L19.1556 29.3733Z" fill="black"/>
<path d="M19.1439 30.1495L18.9418 30.1844L18.9511 29.8301C19.0556 29.9071 19.1207 30.0213 19.1463 30.1495H19.1439Z" fill="black"/>
<path d="M79.6618 36.2306L79.4132 38.8388C79.3481 39.4541 79.2017 39.9273 79.1227 40.5916C79.0716 41.0181 78.623 41.4866 78.8856 41.9598L77.1799 41.7663L78.5394 36.2586L79.6618 36.2329V36.2306Z" fill="black"/>
<path d="M78.8857 41.9575C78.9786 41.9692 79.0785 42.074 79.1483 42.1113L79.1994 42.433L78.5022 42.2745C78.063 42.1743 77.6285 42.0484 77.1707 42.1183V41.9342L77.18 41.764L78.8857 41.9575Z" fill="black"/>
<path d="M75.6671 42.5775C76.2341 42.7383 76.8801 42.6544 77.1706 42.1183C77.6307 42.0484 78.063 42.1766 78.5022 42.2745C78.5393 42.5355 78.4232 42.7849 78.1908 42.9108L77.6377 42.997L76.5153 42.8176C75.918 42.722 75.3185 42.6894 74.6376 42.6474L72.9969 42.5472L73.2874 41.9039L75.6671 42.5798V42.5775Z" fill="black"/>
<path d="M79.1993 42.433L79.8407 42.6008C79.8059 42.8433 79.8407 43.0927 80.0127 43.2675L79.9871 43.5215C79.4712 43.2605 78.7671 43.3117 78.2094 43.1579L78.1908 42.9132C78.4232 42.7873 78.5394 42.5379 78.5022 42.2769L79.1993 42.4354V42.433Z" fill="black"/>
<path d="M80.7192 42.9458C81.1003 43.0227 81.3885 43.1975 81.6836 43.4073C81.5186 43.6404 81.4559 43.8828 81.3606 44.1765C80.9423 43.9247 80.4264 43.7452 79.9872 43.5238L80.0127 43.2698C80.1917 43.1695 80.3102 43.0017 80.3753 42.8036C80.4729 42.8619 80.61 42.9248 80.7192 42.9458Z" fill="black"/>
<path d="M82.5109 43.9644C82.4853 44.3723 82.4226 44.7872 82.2088 45.1391C81.9323 44.8734 81.6673 44.3606 81.3583 44.1741C81.4536 43.8805 81.5186 43.6404 81.6813 43.405C81.9392 43.5868 82.2762 43.7033 82.5086 43.9644H82.5109Z" fill="black"/>
<path d="M84.1724 45.2766L84.1956 45.6402L82.1669 45.6262L82.1971 45.2673L84.1724 45.2766Z" fill="black"/>
<path d="M78.1908 42.9131L78.2094 43.1579L77.6377 42.9994L78.1908 42.9131Z" fill="black"/>
<path d="M80.6889 46.1134L80.51 46.1251C80.5774 46.0971 80.6216 46.1087 80.6889 46.1134Z" fill="black"/>
<path d="M72.337 41.7501C71.8118 42.4889 71.2447 42.5798 70.4639 42.3701C70.4198 42.2162 70.457 41.7571 70.6289 41.7594L72.3393 41.7501H72.337Z" fill="black"/>
<path d="M84.6976 45.6263H84.5303C84.5024 45.4281 84.7255 45.4281 84.6976 45.6263Z" fill="black"/>
<path d="M19.4693 34.1585C19.4855 34.5524 19.6645 34.7668 19.8248 35.0279C19.7272 35.0745 19.5971 35.1398 19.5413 35.2167C19.3461 35.494 20.9658 37.988 20.996 39.601C20.759 39.6826 20.4848 39.925 20.2733 40.0858L19.6482 40.186C19.3159 39.9483 19.3531 39.4961 19.2253 39.1395L18.384 36.7737L17.8635 35.2703C17.731 34.8857 17.7333 34.6433 17.8426 34.2261C17.559 34.0769 17.1059 33.8275 17.2198 33.4033L19.4205 32.6947C19.202 33.056 19.0998 33.2494 19.0579 33.7133C18.7628 33.8625 18.2841 33.7739 18.1586 34.2307C18.7442 34.1119 19.1044 34.0629 19.4716 34.1585H19.4693Z" fill="black"/>
<path d="M81.7091 42.9505C81.9229 43.0344 82.0925 43.2302 82.3272 43.2908L82.555 43.6544C82.5108 43.7336 82.5155 43.8781 82.5108 43.9667C82.2784 43.7057 81.9415 43.5891 81.6835 43.4073C81.3861 43.1975 81.1002 43.0227 80.7191 42.9458L80.7122 42.5635L81.7091 42.9505Z" fill="black"/>
<path d="M79.6989 42.2372C80.0708 42.2512 80.3845 42.4353 80.7122 42.5635L80.7191 42.9458C80.6099 42.9248 80.4728 42.8618 80.3752 42.8036C80.2055 42.701 80.0313 42.6521 79.8407 42.6031L79.1993 42.4353L79.1482 42.1136C79.3178 42.2069 79.5154 42.2302 79.6989 42.2372Z" fill="black"/>
<path d="M17.2175 33.4033C17.106 33.8275 17.5568 34.0769 17.8403 34.2261C17.7311 34.641 17.7288 34.8857 17.8612 35.2703L18.3818 36.7737L19.223 39.1395C19.3508 39.4961 19.3113 39.9483 19.6459 40.1861C19.2695 40.2467 18.907 40.4495 18.5398 40.3609L16.611 34.8438C16.8317 34.7063 17.1036 34.6713 17.2988 34.4242C16.9851 34.373 16.6226 34.31 16.446 34.3869L16.288 33.5711L17.2175 33.4033Z" fill="black"/>
<path d="M80.3753 42.8013C80.3102 42.9994 80.1917 43.1672 80.0128 43.2675C79.8408 43.0926 79.8059 42.8432 79.8408 42.6008C80.0313 42.6498 80.2056 42.6987 80.3753 42.8013Z" fill="black"/>
<path d="M65.3003 29.6856C65.0796 30.6809 64.6613 31.9186 65.1748 32.4057C64.3568 32.8789 64.1732 33.7786 64.4056 34.6596C64.1523 34.9486 63.992 35.2843 63.7898 35.5943L63.6713 32.6434C63.5179 32.464 63.0299 32.478 62.8138 32.5735L62.9579 35.6689L63.4343 35.7155C63.4714 36.0605 63.2762 36.3518 63.0346 36.7084L63.6016 37.128C63.3506 37.135 63.0601 37.2678 62.7813 37.2445C61.9516 37.1746 61.122 37.438 60.2297 37.5079C59.1258 37.5942 57.9918 37.7293 56.9205 38.0883L56.5185 38.0743C56.4604 38.0743 56.3883 38.1512 56.4906 38.2491C56.6277 38.3797 56.6579 38.4006 56.8647 38.3517C58.8749 37.8785 60.8757 37.7387 62.844 37.5289L63.0229 37.4893L63.0764 37.5895C62.844 37.6291 62.6256 37.7573 62.5442 38.0533C62.9021 38.1559 63.0462 38.2445 63.2088 38.4892C57.9383 38.8435 52.7422 40.0439 47.6808 41.7058C47.2695 41.841 46.7862 41.9412 46.3679 42.0321L41.7132 43.0343C41.9177 42.729 41.992 42.5589 41.7318 42.1533C45.5173 41.447 48.959 40.263 52.5981 39.305L55.9305 38.4286L56.1699 38.4053C56.2954 38.3936 56.2489 38.2445 56.1629 38.2421L55.9212 38.2328C53.6787 38.6221 51.5198 39.2887 49.2634 39.953C46.7164 40.7035 44.2346 41.3631 41.7039 41.792C41.418 41.841 41.0788 41.8969 40.8045 41.9458C40.9463 41.531 40.786 41.2536 40.5512 40.8853C40.4722 40.7571 40.6395 40.3562 40.7674 40.2909C40.9161 40.228 41.2019 40.2979 41.4506 40.0882L39.9773 37.431C39.8541 37.2096 39.5311 37.2399 39.3777 37.3145C39.4799 37.1117 39.1453 36.9672 39.2127 37.3191L38.9269 37.3844L39.1407 36.2935C38.7293 36.0908 38.4365 35.8017 38.5039 35.4008L38.6364 35.4171C38.6991 35.5011 38.82 35.5593 38.9083 35.536C39.0686 35.4917 39.1593 35.3519 39.1848 35.205L40.8533 34.8508L42.1989 34.5594C43.6071 34.2541 44.9805 33.8648 46.4562 33.4289C50.0372 32.3707 53.537 31.3778 57.1227 30.6273C58.1057 30.4222 59.1398 30.3942 60.1367 30.0912C60.7316 29.9117 61.5403 29.956 62.2677 29.9024L65.298 29.6856H65.3003ZM61.7634 33.8741L61.8471 33.6201C61.9679 33.6107 62.1724 33.5245 62.2003 33.4196C62.2352 33.2914 62.1724 33.056 62.0214 32.9208C61.5101 32.464 60.5968 32.5199 60.1111 33.0397C59.8369 33.3357 59.8695 33.8485 60.0856 34.1259C60.4481 34.5897 61.2917 34.5151 61.5264 34.7319C61.6519 34.8508 61.6124 35.1305 61.4915 35.2027C60.9198 35.5453 60.9059 34.4475 60.0438 34.9347C59.8764 35.0932 60.1088 35.5127 60.2808 35.6666C60.7944 36.1257 62.2282 35.9789 62.4257 35.1211C62.5535 34.5687 62.3235 34.014 61.7634 33.8741ZM59.1723 32.8462L58.273 32.9604L58.6773 36.1723L59.5767 36.0581L59.1723 32.8462ZM56.5045 36.3938C56.7044 36.5126 57.2226 36.3751 57.3876 36.3099L57.8872 33.0374L57.0134 33.1562L56.7137 35.2983L55.8283 33.4546C55.6191 33.3404 55.1613 33.394 54.9011 33.5688L56.5022 36.3914L56.5045 36.3938ZM53.5439 35.6479C53.5672 35.536 53.4696 35.268 53.3975 35.1608C53.3046 35.0209 52.6934 35.4451 52.3959 35.1678C52.3239 35.1002 52.2379 35.0232 52.3239 34.8135L53.5091 34.5081C53.4533 34.2774 53.4277 34.0583 53.2883 33.8695L51.2456 34.3333L51.9591 37.3914C52.3471 37.417 52.7004 37.3098 52.7399 37.1396C52.8142 36.8226 52.4401 36.198 52.5749 35.9952C52.7004 35.8087 53.4789 35.9602 53.5439 35.6479ZM51.0923 35.7878C50.7669 34.7971 49.9629 34.4755 49.0612 34.8088C48.3269 35.0815 48.1061 35.9393 48.3501 36.7644C48.6313 37.72 49.3424 38.1675 50.2766 37.8855C51.1062 37.6361 51.413 36.7644 51.0923 35.7878ZM45.8752 39.0183C46.6258 38.8155 46.9604 38.2678 46.8373 37.6851C46.5886 36.5243 45.278 37.093 44.941 36.7737C44.8341 36.6711 44.8945 36.5266 45.034 36.4707C45.1292 36.4334 45.2989 36.3821 45.429 36.536C45.6684 36.818 46.34 36.5639 46.2586 36.2959C46.0658 35.6479 45.422 35.7248 44.9898 35.8344C44.3763 35.9882 44.0394 36.4427 44.1137 36.9532C44.2671 38.0184 45.6196 37.5452 45.9705 37.8855C46.1006 38.0114 46.0379 38.2305 45.8775 38.3354C45.4546 38.6104 45.1362 37.7293 44.4669 38.3097C44.4739 38.9647 45.2013 39.2024 45.8752 39.0206V39.0183ZM42.4684 38.5498C43.1238 38.8761 43.2028 39.256 43.5653 39.5684C43.9371 39.5637 44.2439 39.4775 44.5088 39.3376L43.5188 38.1139C43.7698 37.7084 43.8093 37.2702 43.6141 36.9135C43.4375 36.5919 42.9983 36.4847 42.5521 36.6012L41.0625 36.9928L41.8503 40.0392L42.6799 39.8621C42.6311 39.3936 42.3987 38.9997 42.4661 38.5498H42.4684Z" fill="black"/>
<path d="M66.8016 28.3757C66.7551 28.6973 66.7552 29.0213 66.8179 29.343L66.6273 29.3616C64.4313 29.2474 62.2585 29.5201 60.1089 29.8628L57.0879 30.3429C54.1087 30.8161 51.2388 31.7461 48.2526 32.5712L41.9828 34.3053L40.6954 34.5641C39.9727 34.7086 39.2779 34.8554 38.5737 34.9836C38.3019 34.7226 38.1624 34.4242 38.1276 34.0653C40.9139 33.6201 43.7234 33.1166 46.3889 32.2099L47.588 31.802L52.6447 30.4152C57.3133 29.1355 62.0354 28.364 66.8016 28.3757Z" fill="black"/>
<path d="M25.2696 41.6638C26.0574 42.0228 26.9265 42.1929 27.791 42.3468C28.358 42.4493 28.9018 42.6055 29.4851 42.6311C30.4239 42.6731 31.3558 42.7686 32.3039 42.7733L33.3287 42.778C33.8237 42.7803 34.2931 42.6474 34.8532 42.6288L36.8285 42.5589L36.8564 42.8316C35.7339 42.9504 34.2815 43.0996 33.3171 43.1019H32.6572C31.2582 43.1043 29.8499 43.0483 28.4696 42.8153C27.6237 42.6731 26.7639 42.5635 25.9459 42.3001C25.1279 42.0368 24.354 41.6661 23.5755 41.2769C23.4175 41.0252 23.1131 40.7664 23.0922 40.4308L23.3873 40.4028C23.2804 40.5124 23.2967 40.6988 23.3826 40.7338L23.6662 40.841C24.203 41.2909 24.7514 41.4284 25.265 41.6638H25.2696Z" fill="black"/>
<path d="M32.6594 43.102L32.6966 43.9061L32.3132 43.9294C32.3201 43.7616 32.1528 43.7616 32.1459 43.9154L29.6384 43.7779L28.3068 43.5355C28.2882 43.2535 28.3208 42.9971 28.4742 42.8129C29.8545 43.046 31.2628 43.102 32.6617 43.0996L32.6594 43.102Z" fill="black"/>
<path d="M21.6258 35.8763L23.3919 40.4028L23.0968 40.4308L22.9597 40.2537C22.7436 39.9693 22.6065 39.6034 22.2881 39.4192L22.237 39.1815C22.1649 38.8435 21.9697 38.5172 21.7885 38.2235C21.8907 38.2328 21.9047 38.1722 21.9023 38.1279C21.8977 38.0557 21.8837 37.9438 21.8535 37.8622L21.0936 35.8647C21.2819 35.6782 21.4864 35.853 21.6281 35.8787L21.6258 35.8763Z" fill="black"/>
<path d="M28.4718 42.8152C28.3185 42.9994 28.2859 43.2558 28.3045 43.5378C27.5005 43.3909 26.722 43.2511 25.9504 42.9644L25.9458 42.3001C26.7638 42.5635 27.6236 42.673 28.4695 42.8152H28.4718Z" fill="black"/>
<path d="M25.9482 42.3002L25.9529 42.9644C24.7723 42.5262 24.2332 42.3235 23.5779 41.2769C24.3564 41.6662 25.1325 42.0368 25.9482 42.3002Z" fill="black"/>
<path d="M38.1275 34.0653C38.1624 34.4242 38.3018 34.7226 38.5737 34.9836C36.8959 35.2913 35.2064 35.592 33.4961 35.7435C32.9918 35.7878 32.4294 35.8647 31.8763 35.9626C31.2024 36.0791 30.6517 36.0208 30.0521 36.0325C30.1149 35.8693 30.1753 35.4894 30.0498 35.3286C29.4781 35.1701 28.781 35.0885 28.3092 35.3892L26.6128 35.3938C26.2596 35.3938 25.918 35.2983 25.4462 35.4125C25.4532 35.6759 25.5857 35.853 25.6298 36.0441L25.186 36.0115C25.1441 35.7621 25.0303 35.4941 24.8722 35.3752C24.6375 35.2004 24.2797 35.2377 23.9032 35.1421C24.2053 35.0046 24.5818 34.9906 24.9141 34.9976L27.2193 35.0442C27.863 35.0582 28.4928 35.0279 29.1226 34.9953C32.1343 34.8438 35.146 34.5407 38.1322 34.0629L38.1275 34.0653Z" fill="black"/>
<path d="M29.118 34.9976C28.4882 35.0279 27.8584 35.0582 27.2147 35.0466C27.4425 34.6247 27.1404 34.2401 27.0614 33.8275C26.9196 33.1096 26.9568 32.429 26.585 31.8044C26.9777 31.6202 27.1985 31.0771 27.4611 30.7578L28.7485 34.4475C28.8275 34.676 28.9646 34.8461 29.118 34.9976Z" fill="black"/>
<path d="M27.4308 30.3965C27.4308 30.5014 27.4215 30.6529 27.4587 30.7602C27.1961 31.0772 26.9753 31.6226 26.5826 31.8067C25.7181 32.2123 24.7398 32.3941 23.7242 32.4547L21.1239 32.6132L21.0867 32.3195C21.333 32.2169 21.5166 32.196 21.7908 32.1913C22.5437 32.1773 23.4849 32.2682 24.1449 31.9186C24.7467 31.6016 25.6042 32.2939 26.7383 31.1424C26.9614 30.9163 27.0357 30.3779 26.7662 30.252C26.0249 29.9024 25.2789 30.1844 24.6375 30.3756C24.189 30.5108 23.7614 30.6413 23.3199 30.8371C23.2757 30.7345 23.1712 30.6133 23.0945 30.5271C24.7398 29.928 26.5268 29.1962 27.4238 30.3942L27.4308 30.3965Z" fill="black"/>
<path d="M24.1496 31.9162L23.9427 31.5246C24.1937 31.4244 24.4679 31.3219 24.6585 31.1331C24.8491 30.9443 24.8281 30.6063 24.6446 30.3732C25.2859 30.1821 26.0319 29.9 26.7732 30.2497C27.0428 30.3755 26.9661 30.914 26.7453 31.14C25.609 32.2892 24.7538 31.5969 24.1519 31.9162H24.1496Z" fill="black"/>
<path d="M24.6422 30.3755C24.8281 30.6086 24.8514 30.9443 24.6562 31.1354C24.4609 31.3265 24.1914 31.4268 23.9404 31.527C23.6825 31.3662 23.4501 31.1331 23.3246 30.8394C23.7661 30.6459 24.1937 30.5131 24.6422 30.3779V30.3755Z" fill="black"/>
<path d="M21.068 31.5596L21.0494 31.6622C20.8054 31.9582 20.4754 32.0934 20.1362 32.3568C20.5335 32.5316 20.8589 32.4127 21.0889 32.3172L21.1261 32.6108C20.6428 32.6411 19.8317 32.802 19.518 33.2775C19.3646 33.6457 20.0595 33.9954 20.3709 34.1259C21.8628 34.7482 23.3849 34.8298 24.9094 35C24.5771 34.993 24.2006 35.0069 23.8985 35.1445C24.275 35.2377 24.6328 35.2004 24.8675 35.3776C25.0256 35.4964 25.1418 35.7645 25.1813 36.0139L22.9666 35.7738C22.948 35.4148 22.7644 35.1072 22.3554 35.0093L21.1354 34.7156L21.1285 35.247C20.8961 35.1095 20.7009 35.1631 20.5498 34.7436C20.3988 34.324 19.7713 34.2401 19.4692 34.1585C19.1044 34.0606 18.7419 34.1119 18.1562 34.2308C18.2794 33.7739 18.7604 33.8602 19.0556 33.7133C19.0974 33.2495 19.1997 33.056 19.4181 32.6948L17.2174 33.4033L16.2879 33.5711L16.4459 34.3869C15.9579 34.5991 15.428 34.5012 14.9214 34.5874C14.8726 34.2681 14.7495 33.9907 14.5845 33.7413C14.9284 33.7739 15.363 33.7972 15.4397 33.38C17.4033 33.126 19.2717 32.422 21.068 31.5596Z" fill="black"/>
<path d="M68.2355 28.378L71.3169 28.6507L73.3293 29.0143L73.4339 29.9257C71.5981 29.7509 69.7994 29.1402 67.8288 29.5225C69.9481 29.8977 71.8979 29.907 73.8313 30.4595C73.9289 30.6063 74.0521 30.7182 74.1985 30.8114C73.7569 31.0445 73.6291 31.4128 73.8104 31.7134C73.5617 31.7274 73.3898 31.9069 73.3247 32.2053L72.6787 35.0932C72.6368 35.2773 72.6345 35.4358 72.7205 35.5593C72.7809 35.6456 72.932 35.7085 73.0923 35.7132C73.0319 35.8344 72.9343 36.0861 72.8111 36.0768C72.6717 36.0651 72.3742 35.916 72.2 36.0908C71.9025 36.3914 71.8003 36.9369 71.8049 37.3401L72.6485 37.5475L72.6415 37.8622C72.2813 38.0953 71.8862 37.8156 71.5098 37.72C68.9047 37.1816 66.2509 37.0604 63.6017 37.1257L63.0347 36.7061C63.2787 36.3495 63.4716 36.0558 63.4344 35.7132C63.5459 35.7248 63.7202 35.6992 63.7899 35.592C63.9921 35.2843 64.1524 34.9463 64.4057 34.6573C64.5614 35.2493 64.9681 35.564 65.6165 35.6199C66.5414 35.6992 67.1758 35.1561 67.206 34.2121C67.2246 33.6154 67.1595 33.0467 66.725 32.6901C66.3276 32.3638 65.7675 32.2938 65.1749 32.4034C64.6614 31.9162 65.0797 30.6786 65.3004 29.6833H66.6273C66.9597 29.6786 67.3059 29.7485 67.6336 29.618C67.6266 29.5714 67.6289 29.4432 67.6336 29.4129C67.3687 29.294 67.0828 29.3127 66.8179 29.3407C66.7575 29.019 66.7575 28.695 66.8016 28.3734L68.2355 28.378ZM70.3223 35.5523L70.4687 32.5595C70.1736 32.4803 69.9412 32.4756 69.6623 32.5432L69.5624 34.0769L68.6445 32.5269C68.5329 32.3381 68.0728 32.3777 67.8125 32.4383L67.6708 35.543C67.9264 35.5943 68.1774 35.6036 68.4539 35.5757L68.6026 34.0816L69.4903 35.5547C69.6042 35.7435 70.3107 35.7924 70.3223 35.5523Z" fill="black"/>
<path d="M79.2342 32.189C79.3179 32.422 79.4806 32.6575 79.3899 33.0467L78.8996 35.1142L78.6765 35.909L78.5394 36.2586L77.1799 41.7664L77.1683 41.9365C76.8988 41.8666 76.8244 41.552 76.8616 41.2839C76.8941 41.0392 76.8523 40.7665 76.6385 40.615L76.6129 40.3749L76.8151 40.2094C76.9336 40.2513 77.0754 40.2117 77.1311 40.1325C77.1916 40.0439 77.1823 39.9227 77.2101 39.7992L78.6765 33.2378C78.7648 33.2472 78.809 33.2029 78.8438 33.1236C78.9019 32.9908 78.8136 32.8579 78.6765 32.8766L78.3 32.5176L78.1536 32.3195L78.3279 32.2053L78.4883 32.2099C78.5185 32.3591 78.7392 32.5759 78.8996 32.5246C79.0042 32.492 79.118 32.2775 79.2342 32.1913V32.189Z" fill="black"/>
<path d="M76.4526 29.7952C76.7477 30.1798 77.2683 30.3592 77.6633 30.6436C77.5123 30.886 77.503 31.1471 77.4728 31.4361L75.4766 30.569C75.7601 30.4082 75.8879 30.1308 75.9622 29.8138C76.0924 29.8674 76.2853 29.8371 76.4503 29.7928L76.4526 29.7952Z" fill="black"/>
<path d="M78.8671 31.6785C78.8555 31.8114 78.8694 31.9605 78.8183 32.0934C78.7765 32.2053 78.5998 32.2519 78.4883 32.2076L78.3279 32.2029C78.1095 31.9139 77.7865 31.5736 77.4751 31.4384C77.5053 31.1471 77.5169 30.8883 77.6656 30.6459C78.1118 30.9676 78.5557 31.196 78.8694 31.6808L78.8671 31.6785Z" fill="black"/>
<path d="M79.2342 32.1889C79.118 32.2752 79.0042 32.4896 78.8996 32.5222C78.7393 32.5735 78.5162 32.3567 78.4883 32.2076C78.5998 32.2519 78.7764 32.2076 78.8183 32.0934C78.8694 31.9605 78.8555 31.8113 78.8671 31.6785C78.974 31.844 79.1483 31.9465 79.2342 32.1866V32.1889Z" fill="black"/>
<path d="M76.1667 41.1627C76.2852 41.5123 76.6245 41.7454 76.6454 42.2698C76.2829 42.3071 75.8112 42.3561 75.5021 42.2488L73.5338 41.5566C72.4439 41.1743 71.4563 40.6778 70.3153 40.4331C70.2455 40.0159 70.2967 39.7292 70.306 39.4215C70.4082 39.305 70.5174 39.0486 70.7219 38.9484C72.66 39.3073 74.5795 39.953 76.169 41.1603L76.1667 41.1627Z" fill="black"/>
<path d="M71.5121 38.0417L72.186 38.2375C71.9397 38.3331 71.9001 38.6011 71.9815 38.8575L70.1596 38.5708C69.6019 38.4822 69.2788 38.3028 68.756 38.2934L67.1223 38.2608L64.6544 38.1326L63.511 38.2655C63.4297 38.2748 63.2159 38.2958 63.2136 38.4892C63.0509 38.2445 62.9091 38.1559 62.549 38.0534C62.6303 37.7573 62.8487 37.6291 63.0811 37.5895L63.4599 37.5243C66.144 37.2842 68.8652 37.5849 71.5144 38.0417H71.5121Z" fill="black"/>
<path d="M71.9791 38.8575L73.4687 39.2701C73.6337 39.3167 73.8335 39.5707 74.138 39.4962L74.1821 38.9437C74.698 39.1605 75.193 39.3889 75.6438 39.7176C75.4672 40.1954 75.8413 40.5637 76.183 40.8387C76.169 40.9156 76.1388 41.0881 76.1644 41.1627C74.5748 39.9553 72.6553 39.3074 70.7172 38.9507C69.4136 38.7107 68.1145 38.6221 66.783 38.5615C66.9201 38.4659 67.0363 38.354 67.1199 38.2608L68.7536 38.2934C69.2765 38.3028 69.5995 38.4822 70.1572 38.5708L71.9791 38.8575Z" fill="black"/>
<path d="M67.12 38.2608C67.0386 38.3517 66.9224 38.4659 66.783 38.5614L66.1509 38.5311C66.0394 38.4449 65.9069 38.4542 65.7675 38.4496L64.4475 38.4053C64.2593 38.3983 64.0432 38.382 63.9433 38.5801L63.5436 38.5684C63.439 38.5661 63.4181 38.3726 63.5041 38.2654L64.6474 38.1326L67.1153 38.2608H67.12Z" fill="black"/>
<path d="M64.4498 38.4029C64.3546 38.6011 64.1408 38.5824 63.9456 38.5778C64.0455 38.3796 64.2616 38.3959 64.4498 38.4029Z" fill="black"/>
<path d="M66.1509 38.5312C66.0161 38.5242 65.8744 38.5451 65.7675 38.4496C65.9046 38.4542 66.037 38.4449 66.1509 38.5312Z" fill="black"/>
<path d="M38.5063 35.3985C38.4412 35.7994 38.7317 36.0884 39.143 36.2912L38.9292 37.3821L38.4993 40.6872C38.8107 40.6802 39.0686 40.6243 39.2267 40.5474C39.3382 40.4914 39.3661 40.1301 39.466 40.0532C39.9052 39.7176 40.4467 39.953 40.7651 40.2886C40.6372 40.3539 40.4722 40.7548 40.5489 40.883C40.7836 41.2513 40.9417 41.531 40.8022 41.9435L39.0105 42.2652L36.8284 42.5565L34.8532 42.6265C34.2931 42.6474 33.8237 42.7803 33.3287 42.7756C33.3357 42.0461 32.9987 40.8504 32.5804 40.3516C32.6292 40.228 32.8082 39.7479 32.692 39.7106L32.0831 39.5125C31.9786 39.1768 31.9716 38.7223 31.5835 38.706L30.6423 36.3542C31.1768 36.3309 31.7229 36.3075 32.3364 36.2236L33.4937 36.0651L38.5016 35.3939L38.5063 35.3985ZM36.7448 40.1814C36.5984 40.1185 36.6216 39.6383 36.7773 39.6173C37.3281 39.5451 37.7882 39.5428 37.8811 39.3097C37.9509 39.1325 37.8463 38.9158 37.7417 38.8808C37.2281 38.706 36.4009 39.3423 36.4845 38.4939L37.7324 38.2841C37.9787 38.2421 37.8509 37.6291 37.6627 37.6594L35.4853 38.0091L35.9384 41.0974L38.3111 40.7222C38.239 40.4751 38.232 40.2513 38.0531 40.0322C37.5674 40.1068 37.1515 40.2607 36.7448 40.1814ZM33.4937 41.2886C33.8632 41.3585 34.0491 41.3608 34.3605 41.2606C34.3884 40.7688 34.2095 40.2443 34.407 39.8248L35.1901 38.1676C35.0391 37.9811 34.5975 38.0137 34.3559 38.1606C34.0723 38.3331 34.0328 39.0276 33.754 39.0416C33.6471 39.0463 33.5239 38.368 33.187 38.2445C32.936 38.1512 32.6106 38.1559 32.3295 38.2888L33.3589 39.8831C33.6029 40.2607 33.4984 40.7968 33.4937 41.2862V41.2886Z" fill="black"/>
<path d="M55.9213 38.2328L55.9306 38.4286L52.5982 39.305C48.959 40.263 45.5174 41.4447 41.7318 42.1533C41.9921 42.5588 41.9177 42.729 41.7132 43.0343C39.0199 43.6147 36.2498 43.927 33.4937 43.9107C33.4891 43.624 33.4078 43.3606 33.3195 43.1019C34.2815 43.1019 35.7363 42.9504 36.8587 42.8315L39.0083 42.6054L41.1741 42.2582C41.5041 42.2045 41.7225 42.0484 41.7039 41.792C44.2346 41.3631 46.7165 40.7035 49.2634 39.953C51.5199 39.2887 53.6788 38.622 55.9213 38.2328Z" fill="black"/>
<path d="M42.4684 38.5498C42.3987 38.9997 42.6311 39.3936 42.6822 39.8621L41.8526 40.0392L41.0648 36.9928L42.5544 36.6012C43.0006 36.4847 43.4398 36.5919 43.6164 36.9136C43.8116 37.2702 43.7721 37.7061 43.5211 38.114L44.5111 39.3376C44.2462 39.4775 43.9394 39.5637 43.5676 39.5684C43.2051 39.2537 43.1261 38.8738 42.4707 38.5498H42.4684ZM42.48 37.9904C42.738 37.9158 42.8797 37.762 42.91 37.6548C42.9518 37.5056 42.8914 37.3285 42.7031 37.2842C42.3662 37.2026 42.1291 37.3657 42.1408 37.6385C42.1454 37.762 42.1291 38.093 42.4824 37.9927L42.48 37.9904Z" fill="white"/>
<path d="M64.4057 34.6596C64.1733 33.7809 64.3569 32.8789 65.1749 32.4057C65.7675 32.2961 66.3275 32.3661 66.7249 32.6924C67.1595 33.049 67.2245 33.6177 67.2059 34.2144C67.1757 35.1608 66.5413 35.7038 65.6164 35.6223C64.9681 35.5663 64.5614 35.2517 64.4057 34.6596ZM66.3577 34.1119C66.381 33.5991 66.1556 33.021 65.6792 33.1026C65.1772 33.1865 65.154 33.7692 65.1795 34.1632C65.2097 34.599 65.3864 34.8717 65.7187 34.895C66.1253 34.923 66.3322 34.6853 66.3577 34.1119Z" fill="white"/>
<path d="M51.0923 35.7877C51.413 36.7644 51.1062 37.6361 50.2766 37.8855C49.3424 38.1675 48.6313 37.72 48.3501 36.7644C48.1061 35.9416 48.3292 35.0815 49.0612 34.8088C49.9652 34.4732 50.7693 34.7948 51.0923 35.7877ZM49.8839 35.4871C49.6445 35.3659 49.3424 35.4661 49.2146 35.6386C48.9473 36.0068 49.1797 36.9415 49.5608 37.1583C49.8095 37.2981 50.1 37.1932 50.2394 36.9905C50.5136 36.5919 50.2696 35.6829 49.8839 35.4871Z" fill="white"/>
<path d="M40.7675 40.2909C40.4491 39.953 39.9053 39.7199 39.4684 40.0555C39.3685 40.1324 39.3406 40.4937 39.2291 40.5497C39.0711 40.6266 38.8131 40.6825 38.5017 40.6895L38.9316 37.3844L39.2175 37.3191L39.3825 37.3144C39.5358 37.2422 39.8588 37.2096 39.982 37.431L41.4553 40.0882C41.2067 40.2979 40.9208 40.228 40.7721 40.2909H40.7675Z" fill="white"/>
<path d="M45.8753 39.0183C45.2037 39.2001 44.4763 38.96 44.467 38.3074C45.1363 37.727 45.4547 38.6081 45.8776 38.333C46.038 38.2281 46.1007 38.0114 45.9706 37.8832C45.6197 37.5429 44.2672 38.016 44.1138 36.9508C44.0395 36.4381 44.3764 35.9859 44.9899 35.832C45.4222 35.7248 46.0659 35.6456 46.2587 36.2935C46.3401 36.5616 45.6685 36.8157 45.4291 36.5336C45.299 36.3798 45.1293 36.4311 45.0341 36.4684C44.8946 36.5243 44.8342 36.6688 44.9411 36.7714C45.2781 37.093 46.5887 36.522 46.8374 37.6827C46.9605 38.2654 46.6259 38.8132 45.8753 39.016V39.0183Z" fill="white"/>
<path d="M61.8471 33.6201C61.322 33.4616 61.0756 33.0537 60.7782 33.3171C60.7178 33.3707 60.6689 33.6037 60.8246 33.6434L61.7612 33.8741C62.3235 34.014 62.5513 34.5687 62.4235 35.1211C62.2259 35.9812 60.7921 36.1257 60.2785 35.6665C60.1066 35.5127 59.8742 35.0932 60.0415 34.9347C60.9037 34.4498 60.9176 35.5477 61.4893 35.2027C61.6101 35.1304 61.6496 34.8484 61.5241 34.7319C61.2917 34.5128 60.4459 34.5897 60.0833 34.1259C59.8672 33.8485 59.8347 33.3357 60.1089 33.0397C60.5946 32.5176 61.5079 32.464 62.0191 32.9208C62.1702 33.056 62.2329 33.2914 62.198 33.4196C62.1678 33.5245 61.9657 33.6084 61.8448 33.6201H61.8471Z" fill="white"/>
<path d="M57.0879 30.3429L57.1227 30.6249C53.537 31.3755 50.0373 32.3684 46.4562 33.4266C44.9806 33.8625 43.6072 34.2517 42.1989 34.5571L41.9828 34.3053L48.2526 32.5712C51.2364 31.7461 54.1087 30.8161 57.0879 30.3429Z" fill="black"/>
<path d="M56.5046 36.3938L54.9034 33.5711C55.1614 33.394 55.6215 33.3403 55.8307 33.4569L56.7161 35.3006L57.0158 33.1585L57.8896 33.0397L57.39 36.3122C57.2273 36.3751 56.7091 36.515 56.5069 36.3961L56.5046 36.3938Z" fill="white"/>
<path d="M53.544 35.6479C53.479 35.9625 52.6981 35.811 52.575 35.9952C52.4402 36.198 52.8143 36.8203 52.74 37.1396C52.7005 37.3098 52.3472 37.417 51.9591 37.3913L51.2457 34.3333L53.2884 33.8694C53.4278 34.0582 53.4534 34.2773 53.5092 34.5081L52.324 34.8134C52.2357 35.0232 52.324 35.1025 52.396 35.1677C52.6935 35.4451 53.3047 35.0209 53.3976 35.1607C53.4697 35.268 53.5673 35.536 53.544 35.6479Z" fill="white"/>
<path d="M71.5073 37.7247L71.512 38.0417C68.8628 37.5848 66.1415 37.2842 63.4575 37.5242C63.3529 37.4147 63.167 37.4566 63.0253 37.4893L62.8463 37.5289L62.7812 37.2469C63.0601 37.2702 63.3506 37.1373 63.6016 37.1303C66.2508 37.0651 68.9046 37.1863 71.5097 37.7247H71.5073Z" fill="black"/>
<path d="M59.1731 32.8478L58.2716 32.9617L58.675 36.1739L59.5765 36.06L59.1731 32.8478Z" fill="white"/>
<path d="M63.7899 35.5943C63.7201 35.7015 63.5435 35.7272 63.4343 35.7155L62.9579 35.6689L62.8138 32.5735C63.03 32.478 63.5156 32.464 63.6713 32.6435L63.7899 35.5943Z" fill="white"/>
<path d="M40.6954 34.5617L40.8534 34.8484L39.1849 35.2027C38.9967 35.2423 38.7573 35.1794 38.6365 35.4148L38.504 35.3985L33.4961 36.0698V35.7411C35.2041 35.5896 36.8936 35.2866 38.5714 34.9813C39.2755 34.8531 39.9704 34.7062 40.6931 34.5617H40.6954Z" fill="black"/>
<path d="M66.6273 29.3616V29.6833L65.3004 29.6856L62.2701 29.9024C61.5404 29.9536 60.7317 29.9094 60.1391 30.0912L60.1089 29.8627C62.2608 29.5201 64.4313 29.2474 66.6273 29.3616Z" fill="black"/>
<path d="M62.779 37.2446L62.8441 37.5266C60.8758 37.7364 58.8749 37.8762 56.8648 38.3494C56.658 38.3983 56.6278 38.3774 56.4907 38.2468C56.3884 38.1489 56.4605 38.0697 56.5186 38.072L56.9206 38.086C57.9919 37.7294 59.1259 37.5919 60.2297 37.5056C61.1221 37.4357 61.9517 37.1723 62.7813 37.2422L62.779 37.2446Z" fill="black"/>
<path d="M60.1089 29.8627L60.1391 30.0912C59.1399 30.3942 58.1057 30.4198 57.1251 30.6272L57.0902 30.3452L60.1112 29.8651L60.1089 29.8627Z" fill="black"/>
<path d="M41.704 41.792C41.7226 42.0484 41.5041 42.2046 41.1741 42.2582L39.0083 42.6055L39.0129 42.2675L40.8046 41.9458C41.0789 41.8969 41.4181 41.8386 41.704 41.792Z" fill="black"/>
<path d="M61.8471 33.6201L61.7634 33.8741L60.8269 33.6434C60.6712 33.6061 60.7224 33.3707 60.7805 33.3171C61.0779 33.0537 61.3242 33.4616 61.8494 33.6201H61.8471Z" fill="black"/>
<path d="M41.9829 34.3054L42.199 34.5571L40.8535 34.8484L40.6954 34.5618L41.9829 34.3054Z" fill="black"/>
<path d="M39.1872 35.2027C39.1617 35.3519 39.071 35.4917 38.9107 35.5337C38.8201 35.557 38.6992 35.4987 38.6388 35.4148C38.7596 35.1794 38.999 35.2423 39.1872 35.2027Z" fill="black"/>
<path d="M55.9306 38.4286L55.9213 38.2328L56.1629 38.2421C56.2489 38.2444 56.2954 38.3936 56.1699 38.4053L55.9306 38.4286Z" fill="black"/>
<path d="M63.4575 37.5243L63.0787 37.5895L63.0253 37.4893C63.167 37.4567 63.3553 37.4147 63.4575 37.5243Z" fill="black"/>
<path d="M39.3777 37.3145L39.2127 37.3192C39.143 36.9672 39.48 37.1117 39.3777 37.3145Z" fill="black"/>
<path d="M33.3194 43.1019C33.4077 43.3607 33.489 43.6264 33.4937 43.9107L32.6966 43.9061L32.6594 43.1019H33.3194Z" fill="black"/>
<path d="M32.3132 43.9294L32.1459 43.9154C32.1528 43.7593 32.3178 43.7616 32.3132 43.9294Z" fill="black"/>
<path d="M66.6273 29.6833V29.3616L66.8179 29.343C67.0828 29.315 67.3686 29.2987 67.6336 29.4152C67.6266 29.4455 67.6266 29.5737 67.6336 29.6203C67.3059 29.7509 66.9596 29.6833 66.6273 29.6833Z" fill="black"/>
<path d="M25.4486 36.3751C25.581 36.9625 25.7181 37.6571 26.1295 38.0673C26.162 38.2701 26.1992 38.5452 26.2735 38.7479C26.327 38.8925 26.2712 39.1512 26.3363 39.3027C26.4014 39.4542 26.6872 39.4565 26.8452 39.4146C26.3828 39.7525 25.8855 40.0719 25.7693 40.8504L27.4424 40.9809C27.3774 41.468 27.6539 41.8666 27.791 42.3444C26.9266 42.1883 26.0598 42.0205 25.2696 41.6615C25.3138 41.1161 25.0489 40.6825 24.849 40.1954L23.2665 36.184L25.4463 36.3705L25.4486 36.3751Z" fill="black"/>
<path d="M23.2688 36.1887L24.8514 40.2C25.0512 40.6872 25.3161 41.1207 25.272 41.6661C24.7561 41.4307 24.2077 41.2955 23.6732 40.8434L23.3897 40.7361C23.3014 40.7035 23.2874 40.5147 23.3943 40.4052L21.6282 35.8787L23.2711 36.191L23.2688 36.1887Z" fill="black"/>
<path d="M31.7951 41.1557L32.304 42.7757C31.3582 42.771 30.424 42.6731 29.4852 42.6335C29.2504 42.172 29.1296 41.7035 29.1505 41.179C30.5704 41.5496 30.5193 40.3306 31.084 40.3143C31.6208 40.298 31.0514 41.2886 31.7927 41.1557H31.7951Z" fill="black"/>
<path d="M28.3975 40.2886C28.6322 40.5893 28.7089 41.0625 29.1528 41.179C29.1319 41.7034 29.2527 42.1696 29.4874 42.6334C28.9041 42.6078 28.3603 42.4516 27.7933 42.3491C27.6539 41.8713 27.3797 41.4727 27.4447 40.9855L27.8026 40.9622C27.8235 41.0764 27.9444 41.1534 28.0582 41.0951C28.1465 41.0508 28.1419 41.0042 28.1373 40.9156L28.1047 40.2863L27.1101 40.193C27.3866 39.8318 27.7608 39.6313 28.1465 39.4029C28.1582 39.7199 28.2093 40.0439 28.3975 40.2863V40.2886Z" fill="black"/>
<path d="M32.5805 40.3562C32.9988 40.855 33.3334 42.0507 33.3288 42.7803L32.304 42.7756L31.795 41.1557C31.9763 40.9366 32.0205 40.6406 32.0065 40.3189C32.2738 40.2886 32.4202 40.3306 32.5805 40.3562Z" fill="black"/>
<path d="M39.0129 42.2675L39.0083 42.6055L36.8587 42.8316L36.8308 42.5612L39.0129 42.2675Z" fill="black"/>
<path d="M21.1262 35.247C21.6885 35.578 22.3183 35.7038 22.9643 35.7738L25.179 36.0138L25.6228 36.0465L26.6337 36.0628L28.7902 36.0581L30.0498 36.0325C30.6516 36.0208 31.2024 36.0791 31.874 35.9626C32.4294 35.867 32.9895 35.7901 33.4937 35.7435V36.0721L32.3364 36.2306C31.7206 36.3145 31.1745 36.3378 30.6424 36.3611L29.6501 36.4031L26.8498 36.4078L25.4439 36.3775L23.2641 36.191L21.6211 35.8787C21.4794 35.8507 21.2749 35.6782 21.0867 35.8647L21.8466 37.8622C21.8768 37.9438 21.8907 38.0557 21.8954 38.1279C21.8977 38.1722 21.8837 38.2305 21.7815 38.2235L19.8178 35.0302C19.6575 34.7692 19.4785 34.5547 19.4623 34.1608C19.7644 34.2401 20.3941 34.3333 20.5429 34.7459C20.6916 35.1584 20.8891 35.1118 21.1215 35.2493L21.1262 35.247Z" fill="black"/>
<path d="M26.5826 31.8043C26.9544 32.429 26.9173 33.1073 27.059 33.8275C27.1404 34.2401 27.4425 34.6246 27.2124 35.0465L24.9071 34.9999C23.385 34.8298 21.8605 34.7458 20.3686 34.1258C20.0572 33.9953 19.3601 33.6457 19.5158 33.2774C19.8295 32.8019 20.6405 32.6411 21.1239 32.6108L23.7243 32.4523C24.7398 32.3917 25.7181 32.2099 26.5826 31.8043Z" fill="black"/>
<path d="M28.3069 35.3892C28.6276 35.4404 28.7972 35.7341 28.7926 36.0581L26.636 36.0628L26.6105 35.3962L28.3069 35.3915V35.3892Z" fill="black"/>
<path d="M30.0498 36.0325L28.7903 36.0581C28.7949 35.7341 28.6276 35.4428 28.3046 35.3892C28.7763 35.0885 29.4735 35.1701 30.0451 35.3286C30.1706 35.4894 30.1102 35.867 30.0475 36.0325H30.0498Z" fill="black"/>
<path d="M26.6081 35.3962L26.6337 36.0628L25.6228 36.0465C25.5786 35.8553 25.4462 35.6782 25.4392 35.4148C25.911 35.3029 26.2549 35.3985 26.6058 35.3962H26.6081Z" fill="black"/>
<path d="M75.3348 30.8907C75.6741 31.3755 75.042 31.9349 75.0815 32.3544C75.135 32.9162 74.9793 33.4127 74.7353 33.9627C74.3728 34.7809 74.1869 35.7948 74.0102 36.7248C73.9057 37.2842 74.0776 37.8622 73.6663 38.2468C73.2713 38.2818 72.8297 38.2445 72.6368 37.8646L72.6438 37.5499C73.0272 37.2329 73.2317 36.473 73.0575 36.2656C73.0017 36.2003 72.9064 36.1421 72.8065 36.0768C72.9273 36.0861 73.0272 35.8344 73.0877 35.7132C73.6105 34.6597 74.231 33.3427 74.6632 32.0794C74.2938 31.9489 74.0102 31.9093 73.8057 31.7135C73.6245 31.4128 73.75 31.0445 74.1938 30.8114C74.0497 30.7182 73.9266 30.6063 73.8267 30.4595L75.3348 30.8907Z" fill="black"/>
<path d="M70.3222 35.5524C70.3105 35.7948 69.6041 35.7435 69.4902 35.5547L68.6025 34.0816L68.4538 35.5757C68.1773 35.6013 67.9263 35.5943 67.6707 35.543L67.8124 32.4383C68.0727 32.3777 68.5328 32.3381 68.6444 32.5269L69.5623 34.0769L69.6622 32.5432C69.9411 32.4756 70.1734 32.4803 70.4686 32.5596L70.3222 35.5524Z" fill="white"/>
<path d="M73.4339 29.9257L75.4789 30.5714L77.4751 31.4384C77.7888 31.5736 78.1118 31.9139 78.3279 32.2029L78.1536 32.3172L77.5216 32.0165L77.3194 31.8393L76.3248 31.3499L76.011 31.1914L75.3348 30.8884L73.8266 30.4571C71.8932 29.9047 69.9458 29.8954 67.8241 29.5201C69.7947 29.1356 71.5957 29.7486 73.4292 29.9234L73.4339 29.9257Z" fill="black"/>
<path d="M73.808 31.7134C74.0125 31.9092 74.296 31.9489 74.6655 32.0794C74.2332 33.3427 73.6128 34.6596 73.0899 35.7132C72.9272 35.7085 72.7785 35.6456 72.7181 35.5593C72.6321 35.4381 72.6344 35.2773 72.6763 35.0932L73.3223 32.2052C73.3897 31.9046 73.5593 31.7274 73.808 31.7134Z" fill="white"/>
<path d="M73.7174 29.0213L73.736 29.2404C74.5749 29.1355 75.3046 29.5388 75.9646 29.8162C75.8902 30.1308 75.7601 30.4105 75.4789 30.5713L73.4339 29.9257L73.3293 29.0143L73.7174 29.0213Z" fill="black"/>
<path d="M72.6392 37.8645C72.832 38.2445 73.2736 38.2818 73.6686 38.2468C73.8731 38.4822 74.1915 38.5078 74.4518 38.6244L74.8399 38.7945L75.4882 39.0952C75.6648 39.1768 75.8391 39.298 75.9902 39.4076C76.2086 39.5661 76.3852 39.8434 76.6897 39.9017L76.8151 40.2047L76.613 40.3702C76.3294 40.0882 75.946 39.9343 75.6462 39.7152C75.1954 39.3866 74.6981 39.1582 74.1845 38.9414C73.98 38.8551 73.6849 38.8015 73.5083 38.7083C73.083 38.4845 72.6415 38.3657 72.186 38.2351L71.5121 38.0393L71.5074 37.7224C71.8816 37.8179 72.279 38.0953 72.6392 37.8645Z" fill="black"/>
<path d="M72.8088 36.0791C72.9111 36.1444 73.0063 36.2003 73.0598 36.2679C73.2317 36.4753 73.0296 37.2352 72.6461 37.5522L71.8026 37.3448C71.7956 36.9415 71.8979 36.3961 72.1976 36.0954C72.3719 35.9206 72.6694 36.0698 72.8088 36.0814V36.0791Z" fill="white"/>
<path d="M73.736 29.2428L73.7174 29.0237C73.7662 29.0237 73.8243 29.1053 73.736 29.2428Z" fill="black"/>
<path d="M78.1536 32.3172L78.3 32.5153L76.6919 39.9017C76.3852 39.8411 76.2086 39.5661 75.9924 39.4076L77.5239 32.0165L78.1559 32.3172H78.1536Z" fill="black"/>
<path d="M78.6741 32.8765V33.2355L77.2101 39.7968C77.1822 39.9203 77.1939 40.0415 77.1311 40.1301C77.0753 40.2094 76.9359 40.249 76.8151 40.207L76.6896 39.904L78.2977 32.5176L78.6741 32.8765Z" fill="black"/>
<path d="M76.8639 41.2839C76.8267 41.5519 76.901 41.8643 77.1706 41.9365V42.1206C76.8824 42.6567 76.2364 42.7406 75.6694 42.5798L75.5044 42.2488C75.8135 42.3561 76.2852 42.3071 76.6477 42.2698C76.6291 41.7477 76.2875 41.5146 76.169 41.1627C76.1435 41.0881 76.1737 40.9156 76.1876 40.8387L76.3758 40.8597C76.3665 40.9739 76.4037 41.123 76.492 41.1953C76.5873 41.2722 76.7384 41.2955 76.8639 41.2815V41.2839Z" fill="black"/>
<path d="M76.6152 40.3725L76.6408 40.6126C76.6013 40.7431 76.5037 40.8387 76.3735 40.8596L76.1853 40.8387C75.846 40.5613 75.4695 40.1954 75.6461 39.7175C75.9459 39.9366 76.3294 40.0905 76.6129 40.3725H76.6152Z" fill="black"/>
<path d="M76.8639 41.2839C76.7384 41.2979 76.5874 41.2722 76.4921 41.1976C76.4038 41.1254 76.3666 40.9762 76.3759 40.862C76.506 40.841 76.6036 40.7455 76.6431 40.6149C76.8569 40.7664 76.8988 41.0391 76.8662 41.2839H76.8639Z" fill="black"/>
<path d="M78.6765 33.2355V32.8765C78.8113 32.8579 78.8996 32.9884 78.8438 33.1236C78.8113 33.2005 78.7648 33.2471 78.6765 33.2378V33.2355Z" fill="black"/>
<path d="M73.5083 38.7106L73.4711 39.27L71.9815 38.8575C71.9002 38.6011 71.9397 38.3331 72.186 38.2375C72.6415 38.3703 73.0853 38.4869 73.5083 38.7106Z" fill="black"/>
<path d="M74.1845 38.9437L74.1403 39.4961C73.8359 39.5707 73.6361 39.3166 73.4711 39.27L73.5083 38.7106C73.6849 38.8039 73.98 38.8551 74.1845 38.9437Z" fill="black"/>
<path d="M29.6153 37.9508C29.9336 38.0347 30.2288 38.0557 30.6912 38.0883C30.8748 38.1 30.912 38.5242 30.7958 38.657C30.6796 38.7899 30.4031 38.8085 30.0452 38.7596C30.0986 38.9787 30.6726 39.5334 30.9073 39.6267C31.4604 39.8504 31.2094 39.0533 31.5859 38.713C31.974 38.7293 31.981 39.1838 32.0855 39.5195L32.6944 39.7176C32.8083 39.7549 32.6293 40.235 32.5828 40.3586C32.4202 40.3352 32.2738 40.2933 32.0089 40.3213C32.0228 40.6429 31.9786 40.9389 31.7974 41.158C31.0561 41.2886 31.6231 40.298 31.0886 40.3166C30.5239 40.3352 30.575 41.5519 29.1552 41.1813C28.7113 41.0648 28.6346 40.5916 28.3999 40.291L28.6602 40.249L28.9995 40.2374L29.6362 40.6476C29.8663 40.7968 30.0754 40.242 30.0266 40.0229C29.857 39.2654 29.3294 39.9646 28.6648 39.5801L29.0273 37.9904C29.2621 37.9555 29.4758 37.9135 29.6176 37.9531L29.6153 37.9508Z" fill="white"/>
<path d="M36.7449 40.1814C37.1516 40.263 37.5675 40.1091 38.0532 40.0322C38.2322 40.2513 38.2391 40.4751 38.3112 40.7221L35.9385 41.0974L35.4854 38.009L37.6628 37.6594C37.851 37.6291 37.9812 38.2421 37.7325 38.2841L36.4846 38.4939C36.3986 39.3446 37.2282 38.7083 37.7418 38.8808C37.8464 38.9157 37.951 39.1325 37.8812 39.3096C37.7906 39.5404 37.3305 39.5427 36.7774 39.6173C36.6217 39.6383 36.5985 40.1161 36.7449 40.1814Z" fill="white"/>
<path d="M33.4937 41.2885C33.4984 40.799 33.6029 40.2606 33.3589 39.8854L32.3295 38.2911C32.6107 38.1582 32.936 38.1535 33.187 38.2468C33.5239 38.3703 33.6471 39.0486 33.754 39.0439C34.0329 39.0323 34.0724 38.3377 34.3559 38.1629C34.5976 38.0137 35.0391 37.9834 35.1901 38.1699L34.407 39.8271C34.2095 40.2466 34.3861 40.7687 34.3605 41.2629C34.0491 41.3631 33.8655 41.3608 33.4937 41.2909V41.2885Z" fill="white"/>
<path d="M30.6447 36.3611L31.5859 38.713C31.2094 39.0533 31.4627 39.8504 30.9073 39.6267C30.6726 39.5311 30.0986 38.9787 30.0451 38.7596C30.4007 38.8085 30.6819 38.7852 30.7958 38.657C30.9096 38.5288 30.8748 38.1023 30.6912 38.0883C30.2287 38.0557 29.9336 38.037 29.6152 37.9508C30.4611 37.8715 29.4758 37.4613 29.6524 36.4031L30.6447 36.3611Z" fill="black"/>
<path d="M42.4801 37.9904C42.1268 38.093 42.1431 37.762 42.1385 37.6361C42.1292 37.3657 42.3639 37.2002 42.7008 37.2818C42.8891 37.3284 42.9495 37.5032 42.9076 37.6524C42.8774 37.7596 42.7357 37.9135 42.4777 37.9881L42.4801 37.9904Z" fill="black"/>
<path d="M66.3577 34.1119C66.3321 34.6853 66.1253 34.923 65.7186 34.895C65.3863 34.8717 65.2097 34.599 65.1795 34.1632C65.1539 33.7692 65.1772 33.1865 65.6791 33.1026C66.1811 33.0187 66.3809 33.5991 66.3577 34.1119Z" fill="black"/>
<path d="M49.8839 35.4871C50.2696 35.6828 50.5136 36.5919 50.2394 36.9904C50.1 37.1932 49.8095 37.2981 49.5608 37.1583C49.1774 36.9415 48.945 36.0068 49.2146 35.6386C49.3401 35.4661 49.6445 35.3659 49.8839 35.4871Z" fill="black"/>
<path d="M27.1961 37.7084C27.568 37.7154 27.9746 37.8739 28.1652 38.1442C28.4557 38.5615 28.207 39.0136 28.1466 39.4052C27.7608 39.6336 27.3867 39.8341 27.1102 40.1954L28.1048 40.2886L28.1373 40.9179L27.8003 40.9646L27.4425 40.9879L25.7693 40.8573C25.8855 40.0788 26.3805 39.7595 26.8452 39.4215L27.3844 39.0276C27.5726 38.8901 27.6307 38.3517 27.2542 38.3703C26.994 38.382 26.65 38.9554 26.2736 38.7526C26.1992 38.5498 26.1643 38.2748 26.1295 38.072C26.4548 37.8389 26.8104 37.706 27.1961 37.713V37.7084Z" fill="white"/>
<path d="M26.8545 36.4054C26.7453 36.8996 26.664 37.5033 27.1961 37.7084C26.8104 37.7014 26.4572 37.8342 26.1295 38.0673C25.7159 37.6548 25.5787 36.9625 25.4486 36.3751L26.8545 36.4054Z" fill="black"/>
<path d="M26.8429 39.4169C26.6872 39.4589 26.4014 39.4612 26.334 39.305C26.2666 39.1489 26.3247 38.8948 26.2712 38.7503C26.6477 38.9507 26.9916 38.3797 27.2519 38.368C27.6284 38.3494 27.5703 38.8878 27.382 39.0253L26.8429 39.4192V39.4169Z" fill="black"/>
<path d="M29.6524 36.4008C29.4735 37.4613 30.4611 37.8715 29.6152 37.9484C29.4735 37.9112 29.2574 37.9508 29.025 37.9857L28.6625 39.5754C29.3271 39.96 29.8546 39.2584 30.0242 40.0182C30.073 40.2397 29.8639 40.7921 29.6338 40.6429L28.9971 40.2327L28.8577 40.1255C28.8065 40.0858 28.702 40.1674 28.6578 40.2443L28.3975 40.2863C28.2093 40.0439 28.1582 39.7222 28.1466 39.4029C28.2047 39.0113 28.4556 38.5591 28.1652 38.1419C27.9769 37.8715 27.5679 37.713 27.1961 37.706C26.6639 37.5009 26.7453 36.8972 26.8545 36.4031L29.6548 36.3984L29.6524 36.4008Z" fill="black"/>
<path d="M28.1349 40.918C28.1396 41.0042 28.1419 41.0532 28.0559 41.0974C27.942 41.1557 27.8212 41.0788 27.8003 40.9646L28.1373 40.918H28.1349Z" fill="black"/>
<path d="M22.9644 35.7738C22.3184 35.7039 21.6886 35.578 21.1262 35.247L21.1332 34.7156L22.3532 35.0093C22.7622 35.1072 22.9458 35.4125 22.9644 35.7738Z" fill="black"/>
<path d="M76.0133 31.1937L74.8909 36.8087C74.7585 37.452 74.375 38.0068 74.4517 38.6244C74.1914 38.5102 73.8731 38.4846 73.6686 38.2468C74.0799 37.8646 73.9079 37.2842 74.0125 36.7248C74.1891 35.7948 74.375 34.7809 74.7375 33.9627C74.9816 33.4103 75.1373 32.9139 75.0838 32.3545C75.0443 31.9349 75.6764 31.3732 75.3371 30.8907L76.0133 31.1937Z" fill="black"/>
<path d="M77.3194 31.8393C77.1939 31.8999 77.0824 32.0211 77.0382 32.2239L75.4882 39.0929L74.8398 38.7922L76.3271 31.3475L77.3217 31.837L77.3194 31.8393Z" fill="black"/>
<path d="M77.5215 32.0164L75.9901 39.4075C75.8367 39.2957 75.6648 39.1768 75.4882 39.0952L77.0382 32.2262C77.0847 32.0234 77.1939 31.9022 77.3194 31.8416L77.5215 32.0188V32.0164Z" fill="black"/>
<path d="M76.327 31.3521L74.8398 38.7969L74.4517 38.6267C74.375 38.0067 74.7584 37.452 74.8909 36.811L76.0133 31.196L76.327 31.3545V31.3521Z" fill="black"/>
<path d="M28.9948 40.235L28.6555 40.2467C28.6997 40.1674 28.8042 40.0882 28.8554 40.1278L28.9948 40.235Z" fill="black"/>
</g>
<defs>
<clipPath id="clip0_363_2443">
<rect width="94" height="68" fill="white"/>
</clipPath>
</defs>
</svg>
