<svg width="116" height="19" viewBox="0 0 116 19" fill="none" xmlns="http://www.w3.org/2000/svg">
<path d="M39.6106 9.42252C39.6106 8.38797 39.5078 7.55683 39.3044 6.9291C39.1009 6.30136 38.8275 5.82455 38.4841 5.49865C38.1429 5.17276 37.7624 4.95185 37.3468 4.8403C36.929 4.72657 36.5047 4.6697 36.0716 4.6697H34.8752V14.3263H36.0804C36.5331 14.3263 36.9684 14.2541 37.3884 14.1097C37.8083 13.9654 38.1867 13.7138 38.5235 13.3573C38.8582 12.9986 39.125 12.5021 39.3197 11.8656C39.5143 11.2292 39.6106 10.4155 39.6106 9.42252ZM41.9071 9.42252C41.9071 10.4964 41.7934 11.4107 41.5638 12.1697C41.3341 12.9286 41.0213 13.5586 40.6232 14.0572C40.2252 14.5559 39.7659 14.9453 39.2497 15.2252C38.7313 15.5052 38.1845 15.6998 37.6071 15.8136C37.0296 15.9273 36.4522 15.9842 35.8748 15.9842H32.6946V2.99648H35.6583C36.4478 2.99648 37.2156 3.08178 37.9592 3.25019C38.7029 3.4208 39.37 3.73357 39.9627 4.1907C40.5554 4.64783 41.0279 5.29743 41.38 6.13951C41.73 6.9794 41.9071 8.0752 41.9071 9.42471M52.0187 6.29043L51.6709 9.85341H50.2098V7.88054C49.5405 7.89366 48.9587 8.1605 48.4644 8.68543C47.9701 9.21037 47.5786 9.94527 47.2855 10.8967V14.4794H49.2234V15.9404H43.8144V14.4794H45.2405V7.75587H43.8144V6.2948H46.7934L47.1587 8.52358C47.537 7.69462 47.9964 7.07783 48.5388 6.66882C49.0812 6.25981 49.7527 6.0564 50.5576 6.0564C51.0563 6.0564 51.544 6.13514 52.0187 6.2948M58.1844 14.3481C58.5803 14.1294 58.8931 13.8254 59.1249 13.4339V11.297H57.992C57.0668 11.297 56.3909 11.4523 55.9644 11.7628C55.5379 12.0734 55.3257 12.5218 55.3257 13.1058C55.3257 13.6176 55.4635 14.0069 55.7369 14.276C56.0103 14.545 56.415 14.6784 56.953 14.6784C57.3795 14.6784 57.7907 14.5691 58.1866 14.3503M61.3165 14.3941C61.4259 14.5712 61.614 14.7025 61.883 14.7878L61.4084 16.1767C60.3979 16.0542 59.733 15.6102 59.4158 14.8425C59.0615 15.2821 58.6219 15.6124 58.0904 15.8376C57.5611 16.0629 56.9793 16.1767 56.345 16.1767C55.3695 16.1767 54.5974 15.9033 54.0243 15.3543C53.4513 14.8053 53.1648 14.0813 53.1648 13.1802C53.1648 12.1697 53.5628 11.3888 54.3612 10.842C55.1595 10.293 56.2881 10.0196 57.7514 10.0196H59.1227V9.39847C59.1227 8.79042 58.9412 8.34423 58.5738 8.06426C58.2085 7.7843 57.6792 7.64432 56.9836 7.64432C56.6424 7.64432 56.2466 7.68806 55.796 7.77118C55.3454 7.85648 54.8883 7.97896 54.4246 8.13644L53.9128 6.69288C55.0698 6.25543 56.1962 6.03452 57.292 6.03452C58.5716 6.03452 59.5339 6.31449 60.1792 6.87442C60.8244 7.43434 61.1481 8.23268 61.1481 9.26723V13.5804C61.1481 13.9457 61.2028 14.2169 61.3122 14.3941M71.7386 2.74495L71.1175 4.17101C70.4963 3.90417 69.8073 3.76856 69.0527 3.76856C68.4184 3.76856 67.9504 3.89105 67.6463 4.13383C67.3423 4.37661 67.1892 4.755 67.1892 5.26681V6.98378H70.4241L70.1857 8.50171H67.1892V15.9382H65.142V8.50171H62.9504V6.98378H65.142V5.24712C65.142 4.63908 65.2973 4.10321 65.6078 3.63952C65.9184 3.17802 66.3537 2.81712 66.9136 2.56122C67.4735 2.30532 68.1188 2.17627 68.8515 2.17627C69.8992 2.17627 70.8615 2.36656 71.7386 2.74276M78.8471 15.9732C78.3593 16.1067 77.8475 16.1745 77.3117 16.1745C76.2159 16.1745 75.3694 15.8901 74.7723 15.3236C74.1752 14.7572 73.8777 13.9873 73.8777 13.0118V7.78649H71.7408V6.28824H73.8777V4.13164L75.925 3.89324V6.28605H79.1949L78.9564 7.7843H75.9228V12.9921C75.9228 13.517 76.0562 13.9041 76.3252 14.1513C76.5921 14.4006 77.0186 14.5253 77.6047 14.5253C78.25 14.5253 78.8471 14.3722 79.3961 14.0682L80.1266 15.4199C79.7613 15.6517 79.3348 15.8333 78.8471 15.9689M82.1432 14.0594H84.1292V16.0476H82.1432V14.0594ZM88.613 8.47327C88.2412 9.05289 88.0553 9.93215 88.0553 11.1132C88.0553 13.4536 88.7246 14.6215 90.0653 14.6215C90.8702 14.6215 91.557 14.1579 92.1301 13.2327V8.68325C91.6314 7.96365 90.9971 7.60495 90.2294 7.60495C89.5229 7.60495 88.9848 7.89366 88.613 8.47327ZM94.1773 2.41468V15.9361H92.3685L92.2219 14.7484C91.9048 15.2121 91.5155 15.5642 91.0518 15.807C90.5881 16.0498 90.0763 16.1723 89.5163 16.1723C88.3112 16.1723 87.4035 15.7217 86.7933 14.8206C86.183 13.9194 85.879 12.6837 85.879 11.1111C85.879 10.1246 86.0343 9.24755 86.3449 8.47983C86.6555 7.71212 87.0973 7.11282 87.6703 6.67975C88.2434 6.24668 88.9192 6.03234 89.6979 6.03234C90.6843 6.03234 91.4958 6.38667 92.1279 7.09095V2.17627L94.1751 2.41468H94.1773ZM99.1664 8.2633C98.753 8.73793 98.5146 9.4444 98.4533 10.3827H102.931C102.906 9.46846 102.712 8.76855 102.347 8.2808C101.981 7.79305 101.456 7.55027 100.776 7.55027C100.096 7.55027 99.5819 7.78867 99.1685 8.2633M99.2866 13.8823C99.7678 14.3503 100.374 14.5865 101.104 14.5865C101.555 14.5865 101.983 14.5166 102.393 14.3766C102.799 14.2366 103.217 14.0266 103.644 13.7467L104.521 14.989C104.07 15.3674 103.541 15.6583 102.931 15.8661C102.32 16.0739 101.682 16.1767 101.012 16.1767C99.5382 16.1767 98.3921 15.7173 97.5762 14.7965C96.7604 13.8779 96.3514 12.6509 96.3514 11.1154C96.3514 10.1531 96.5286 9.28473 96.8807 8.51264C97.235 7.73837 97.7447 7.13251 98.4161 6.69506C99.0854 6.25543 99.8663 6.03671 100.754 6.03671C102.034 6.03671 103.046 6.46541 103.797 7.32498C104.547 8.18456 104.921 9.36347 104.921 10.8617C104.921 11.227 104.903 11.531 104.866 11.776H98.4708C98.5321 12.7143 98.8033 13.4164 99.2845 13.8866M115.122 6.28824L111.706 15.9361H109.33L105.914 6.28824H108.125L110.555 14.2366L113.022 6.28824H115.124H115.122Z" fill="black"/>
<path d="M4.31976 4.14915H9.14914V6.33856H4.31976V4.14915ZM9.57346 14.1513C10.5949 14.1513 11.4217 13.3223 11.4217 12.3031V11.9619H4.31976V14.1513H9.57346ZM4.31976 10.234H11.4217V8.04459H4.31976V10.234ZM13.8735 4.64128H11.4217V2.18941H2.18722V16.1614H9.98684C12.1325 16.1614 13.8713 14.4225 13.8713 12.2769V4.64128H13.8735ZM12.5787 0C13.9391 1.36045 14.7025 2.12379 16.0651 3.48643V12.279C16.0651 15.6342 13.3464 18.353 9.99122 18.353H0V0H12.5809" fill="black"/>
</svg>
