<svg width="124" height="33" viewBox="0 0 124 33" fill="none" xmlns="http://www.w3.org/2000/svg">
<g clip-path="url(#clip0_359_1833)">
<path d="M48.4885 16.3866C48.4885 15.3521 48.3857 14.5209 48.1823 13.8932C47.9789 13.2655 47.7055 12.7887 47.3621 12.4628C47.0209 12.1369 46.6403 11.916 46.2247 11.8044C45.807 11.6907 45.3826 11.6338 44.9496 11.6338H43.7532V21.2904H44.9583C45.4111 21.2904 45.8463 21.2182 46.2663 21.0738C46.6862 20.9295 47.0646 20.678 47.4014 20.3214C47.7361 19.9627 48.0029 19.4662 48.1976 18.8298C48.3923 18.1933 48.4885 17.3796 48.4885 16.3866ZM50.7851 16.3866C50.7851 17.4606 50.6713 18.3748 50.4417 19.1338C50.212 19.8927 49.8993 20.5227 49.5012 21.0214C49.1031 21.52 48.6438 21.9094 48.1276 22.1893C47.6092 22.4693 47.0624 22.664 46.485 22.7777C45.9076 22.8914 45.3302 22.9483 44.7527 22.9483H41.5725V9.96059H44.5362C45.3258 9.96059 46.0935 10.0459 46.8371 10.2143C47.5808 10.3849 48.2479 10.6977 48.8406 11.1548C49.4334 11.6119 49.9058 12.2615 50.258 13.1036C50.6079 13.9435 50.7851 15.0393 50.7851 16.3888M60.8966 13.2545L60.5488 16.8175H59.0878V14.8446C58.4185 14.8578 57.8367 15.1246 57.3424 15.6495C56.848 16.1745 56.4565 16.9094 56.1634 17.8608V21.4435H58.1013V22.9045H52.6923V21.4435H54.1184V14.72H52.6923V13.2589H55.6713L56.0366 15.4877C56.415 14.6587 56.8743 14.0419 57.4167 13.6329C57.9592 13.2239 58.6306 13.0205 59.4355 13.0205C59.9342 13.0205 60.422 13.0992 60.8966 13.2589M67.0624 21.3123C67.4582 21.0935 67.771 20.7895 68.0029 20.398V18.2611H66.8699C65.9447 18.2611 65.2688 18.4164 64.8423 18.727C64.4158 19.0375 64.2037 19.4859 64.2037 20.0699C64.2037 20.5817 64.3415 20.971 64.6149 21.2401C64.8883 21.5091 65.2929 21.6425 65.831 21.6425C66.2575 21.6425 66.6687 21.5332 67.0645 21.3144M70.1945 21.3582C70.3038 21.5353 70.4919 21.6666 70.7609 21.7519L70.2863 23.1408C69.2758 23.0183 68.6109 22.5743 68.2938 21.8066C67.9394 22.2462 67.4998 22.5765 66.9683 22.8017C66.439 23.027 65.8572 23.1408 65.2229 23.1408C64.2474 23.1408 63.4753 22.8674 62.9023 22.3184C62.3292 21.7694 62.0427 21.0454 62.0427 20.1443C62.0427 19.1338 62.4408 18.3529 63.2391 17.8061C64.0374 17.2572 65.166 16.9837 66.6293 16.9837H68.0007V16.3626C68.0007 15.7545 67.8191 15.3083 67.4517 15.0284C67.0864 14.7484 66.5571 14.6084 65.8616 14.6084C65.5204 14.6084 65.1245 14.6522 64.6739 14.7353C64.2233 14.8206 63.7662 14.9431 63.3025 15.1006L62.7907 13.657C63.9478 13.2195 65.0742 12.9986 66.17 12.9986C67.4495 12.9986 68.4119 13.2786 69.0571 13.8385C69.7023 14.3985 70.026 15.1968 70.026 16.2313V20.5445C70.026 20.9098 70.0807 21.181 70.1901 21.3582M80.6166 9.70906L79.9954 11.1351C79.3742 10.8683 78.6852 10.7327 77.9306 10.7327C77.2964 10.7327 76.8283 10.8552 76.5243 11.0979C76.2202 11.3407 76.0671 11.7191 76.0671 12.2309V13.9479H79.302L79.0636 15.4658H76.0671V22.9024H74.0199V15.4658H71.8283V13.9479H74.0199V12.2112C74.0199 11.6032 74.1752 11.0673 74.4858 10.6036C74.7964 10.1421 75.2316 9.78124 75.7915 9.52533C76.3515 9.26943 76.9967 9.14038 77.7294 9.14038C78.7771 9.14038 79.7395 9.33067 80.6166 9.70687M87.725 22.9374C87.2373 23.0708 86.7255 23.1386 86.1896 23.1386C85.0938 23.1386 84.2473 22.8542 83.6502 22.2878C83.0531 21.7213 82.7556 20.9514 82.7556 19.9759V14.7506H80.6187V13.2524H82.7556V11.0958L84.8029 10.8573V13.2502H88.0728L87.8344 14.7484H84.8007V19.9562C84.8007 20.4811 84.9341 20.8682 85.2031 21.1154C85.47 21.3647 85.8965 21.4894 86.4827 21.4894C87.1279 21.4894 87.725 21.3363 88.274 21.0323L89.0045 22.384C88.6393 22.6158 88.2128 22.7974 87.725 22.933M91.0212 21.0235H93.0072V23.0117H91.0212V21.0235ZM97.491 15.4374C97.1191 16.017 96.9332 16.8963 96.9332 18.0774C96.9332 20.4177 97.6025 21.5857 98.9433 21.5857C99.7482 21.5857 100.435 21.122 101.008 20.1968V15.6474C100.509 14.9278 99.875 14.5691 99.1073 14.5691C98.4008 14.5691 97.8628 14.8578 97.491 15.4374ZM103.055 9.37879V22.9002H101.246L101.1 21.7125C100.783 22.1762 100.393 22.5283 99.9297 22.7711C99.466 23.0139 98.9542 23.1364 98.3943 23.1364C97.1891 23.1364 96.2814 22.6858 95.6712 21.7847C95.0609 20.8836 94.7569 19.6478 94.7569 18.0752C94.7569 17.0887 94.9122 16.2117 95.2228 15.4439C95.5334 14.6762 95.9752 14.0769 96.5483 13.6439C97.1213 13.2108 97.7972 12.9964 98.5758 12.9964C99.5622 12.9964 100.374 13.3508 101.006 14.0551V9.14038L103.053 9.37879H103.055ZM108.044 15.2274C107.631 15.702 107.392 16.4085 107.331 17.3468H111.808C111.784 16.4326 111.59 15.7327 111.224 15.2449C110.859 14.7572 110.334 14.5144 109.654 14.5144C108.974 14.5144 108.46 14.7528 108.046 15.2274M108.165 20.8464C108.646 21.3144 109.252 21.5507 109.982 21.5507C110.433 21.5507 110.861 21.4807 111.27 21.3407C111.677 21.2007 112.095 20.9907 112.522 20.7108L113.399 21.9531C112.948 22.3315 112.419 22.6224 111.808 22.8302C111.198 23.038 110.56 23.1408 109.89 23.1408C108.416 23.1408 107.27 22.6815 106.454 21.7606C105.638 20.842 105.229 19.615 105.229 18.0795C105.229 17.1172 105.406 16.2488 105.759 15.4768C106.113 14.7025 106.623 14.0966 107.294 13.6592C107.963 13.2195 108.744 13.0008 109.632 13.0008C110.912 13.0008 111.924 13.4295 112.675 14.2891C113.425 15.1487 113.799 16.3276 113.799 17.8258C113.799 18.1911 113.781 18.4951 113.744 18.7401H107.349C107.41 19.6784 107.681 20.3805 108.162 20.8508M124 13.2524L120.584 22.9002H118.208L114.792 13.2524H117.003L119.433 21.2007L121.9 13.2524H124.002H124Z" fill="#544B84"/>
<path d="M27.4693 0H4.81188C2.15435 0 0 2.15435 0 4.81188V27.4693C0 30.1268 2.15435 32.2812 4.81188 32.2812H27.4693C30.1268 32.2812 32.2812 30.1268 32.2812 27.4693V4.81188C32.2812 2.15435 30.1268 0 27.4693 0Z" fill="url(#paint0_linear_359_1833)"/>
<path d="M13.1977 11.1133H18.0271V13.3027H13.1977V11.1133ZM18.4514 21.1154C19.4728 21.1154 20.2996 20.2865 20.2996 19.2672V18.926H13.1977V21.1154H18.4514ZM13.1977 17.1981H20.2996V15.0087H13.1977V17.1981ZM22.7515 11.6054H20.2996V9.15352H11.0651V23.1255H18.8648C21.0104 23.1255 22.7493 21.3866 22.7493 19.241V11.6054H22.7515ZM21.4566 6.96411C22.8171 8.32456 23.5804 9.0879 24.9431 10.4505V19.2432C24.9431 22.5984 22.2243 25.3171 18.8691 25.3171H8.87793V6.96411H21.4588" fill="white"/>
</g>
<defs>
<linearGradient id="paint0_linear_359_1833" x1="1.11986" y1="1.42169" x2="31.2029" y2="30.8988" gradientUnits="userSpaceOnUse">
<stop stop-color="#554B83"/>
<stop offset="1" stop-color="#765C80"/>
</linearGradient>
<clipPath id="clip0_359_1833">
<rect width="124" height="32.2812" fill="white"/>
</clipPath>
</defs>
</svg>
