<svg width="63" height="28" viewBox="0 0 63 28" fill="none" xmlns="http://www.w3.org/2000/svg">
<g clip-path="url(#clip0_326_3315)">
<path d="M42.7069 7.86429H35.3272L29.2046 17.4101V0H22.941V27.5094H28.4243L32.4121 22.0287L36.4 27.5094H44.4192L36.1074 16.9419L42.7069 7.86429Z" fill="#050523"/>
<path fill-rule="evenodd" clip-rule="evenodd" d="M41.9484 17.6762C41.9484 11.9935 46.6405 7.38548 52.4273 7.38548C58.2249 7.38548 62.9171 11.9933 62.9062 17.6762C62.9062 23.359 58.2141 27.967 52.4273 27.967C46.6405 27.967 41.9484 23.359 41.9484 17.6762ZM48.2336 17.6869C48.2336 20.2197 50.1083 22.0501 52.4273 22.0501C54.7464 22.0501 56.621 20.209 56.621 17.6869C56.621 15.1541 54.7464 13.313 52.4273 13.313C50.1083 13.313 48.2336 15.1541 48.2336 17.6869ZM0 17.6762C0 11.9935 4.69227 7.38548 10.4789 7.38548C16.2657 7.38548 20.958 11.9933 20.958 17.6762C20.958 18.336 20.8929 18.9852 20.7738 19.613H6.27441C6.98962 21.6031 8.57177 22.614 10.5331 22.614C12.4079 22.614 13.2531 22.0713 13.9142 21.3051H20.286C18.7906 25.2 14.9653 27.967 10.4789 27.967C4.69227 27.967 0 23.359 0 17.6762ZM10.4789 12.7809C8.57177 12.7809 6.94624 13.8877 6.27441 15.7393H14.6835C14.0225 13.8877 12.3862 12.7809 10.4789 12.7809Z" fill="#050523"/>
</g>
<defs>
<clipPath id="clip0_326_3315">
<rect width="63" height="28" fill="white"/>
</clipPath>
</defs>
</svg>
