<svg width="121" height="91" viewBox="0 0 121 91" fill="none" xmlns="http://www.w3.org/2000/svg">
<g clip-path="url(#clip0_401_332)">
<path d="M30.1704 90.2183L28.4126 90.2133L25.2304 85.1672L25.195 90.2335H23.5383L23.5534 82.3739L25.2405 82.3789L28.5035 87.5109L28.5338 82.4194L30.1654 82.4093L30.1704 90.2183Z" fill="white"/>
<path d="M15.9464 90.2083L14.2139 90.2234L10.9862 85.0915L10.966 90.2335H9.3446V82.4194L11.0721 82.4396L14.2998 87.607L14.32 82.4598H15.9414L15.9464 90.2083Z" fill="white"/>
<path d="M121 90.2032L119.278 90.2386L116.05 85.0763L116.025 90.2336H114.388L114.418 82.4548L116.136 82.4599L119.384 87.6221L119.404 82.4447L120.995 82.4599L121 90.2032Z" fill="white"/>
<path d="M103.24 90.4407C101.649 90.4154 100.381 89.5971 99.7801 88.1626C99.4215 87.3039 99.3811 86.3189 99.5377 85.3895C99.871 83.4095 101.543 82.1063 103.548 82.2376C104.917 82.3285 106.114 83.0357 106.7 84.2934C107.246 85.4703 107.296 86.8644 106.842 88.0616C106.251 89.5971 104.922 90.471 103.245 90.4457L103.24 90.4407ZM103.356 88.9506C104.175 88.9506 104.735 88.5566 105.074 87.8747C105.852 86.2987 105.296 83.8893 103.574 83.7075C102.745 83.6216 101.937 83.955 101.548 84.7379C101.023 85.7987 101.053 87.1069 101.644 88.1121C102.003 88.7283 102.614 88.9506 103.356 88.9556V88.9506Z" fill="white"/>
<path d="M44.9652 87.5968C44.5258 89.3748 43.0761 90.4052 41.3486 90.4355C39.2271 90.4709 37.6007 88.9707 37.4593 86.829C37.3784 85.6066 37.5956 84.364 38.4341 83.4296C39.414 82.3385 40.9193 82.0203 42.3134 82.3588C44.5359 82.8942 45.5259 85.3339 44.9652 87.6018V87.5968ZM42.864 84.4701C42.4094 83.7933 41.5608 83.5811 40.7778 83.7428C39.0655 84.1064 38.722 86.7583 39.6615 88.1726C40.1414 88.9 41.0658 89.097 41.8588 88.8848C43.5004 88.4454 43.8136 85.8895 42.864 84.4701Z" fill="white"/>
<path d="M56.8051 82.4396L58.6286 82.4295L56.0323 90.2234H54.0674L51.5216 82.4295L53.3148 82.3942L55.0675 87.8898L56.8051 82.4396Z" fill="white"/>
<path d="M81.1213 90.2134L79.3988 90.2336L79.4089 83.8994H77.0652L77.0551 82.4194L83.465 82.4043L83.4852 83.8742L81.1112 83.8944L81.1213 90.2134Z" fill="white"/>
<path d="M1.73254 82.4244H0V90.2436H1.73254V82.4244Z" fill="white"/>
<path d="M90.4515 82.4286L90.446 90.2478L92.1836 90.249L92.1891 82.4299L90.4515 82.4286Z" fill="white"/>
<path d="M84.0054 13.6734L77.4844 17.386L77.7622 18.1083L77.7875 25.9123L64.7556 33.3678C62.2451 34.8023 58.775 34.7973 56.2696 33.3678L43.2428 25.9325L43.2731 36.156C43.2731 36.7723 43.7378 37.2521 44.1217 37.6663L59.6388 46.6068C60.0277 46.8291 60.9268 46.8695 61.3208 46.6422L77.7824 37.2521L77.8835 45.7936L64.801 53.2946C62.2906 54.7341 58.7498 54.7493 56.2242 53.2946L40.005 43.9348C37.5299 42.5053 36.2823 39.7828 35.7014 37.045L35.7267 17.578C35.7267 16.4516 36.1308 15.3858 36.5803 14.426C37.5299 12.3904 39.0907 10.8801 41.0354 9.7689L56.2949 1.05569C58.8003 -0.373784 62.3007 -0.338426 64.801 1.09105L79.9797 9.76385C81.6971 10.7438 83.076 12.0066 84.0054 13.6734ZM61.4723 26.6144L77.444 17.4113C77.2622 16.9668 76.9793 16.7546 76.6005 16.5374L61.3208 7.73834C60.9773 7.54135 60.0378 7.5464 59.6994 7.73834L43.9802 16.8051C43.8388 16.886 43.7125 17.0931 43.7024 17.1941C43.6923 17.2951 43.8186 17.5325 43.955 17.6083L59.6792 26.67C60.154 26.9428 60.9521 26.9125 61.4774 26.6094L61.4723 26.6144Z" fill="white"/>
<path d="M77.8734 45.7987L77.7723 37.2572V28.7915L82.9043 25.8467L83.8337 25.2002C85.0207 24.8365 85.344 23.9525 85.3339 24.9021L85.243 36.7673C85.0965 39.707 83.3488 42.4043 80.9798 43.9954L77.8734 45.8037V45.7987Z" fill="white"/>
<path d="M84.0055 13.6735C84.7076 14.9312 85.2834 16.3354 85.2885 17.876L85.3087 21.5987L77.7825 25.9174L77.7572 18.1134L77.4794 17.3911L84.0005 13.6785L84.0055 13.6735Z" fill="white"/>
<path d="M31.3928 66.9125C30.9584 66.9125 30.4634 67.3317 30.4634 67.8469L30.4382 79.3282H27.0994L27.0943 68.049C27.0943 67.5893 26.8064 66.9377 26.3265 66.9377L21.9472 66.9074C21.4623 66.9074 21.0127 67.3368 21.0077 67.852L20.9875 79.3231H17.6487L17.6992 67.3368C17.7093 65.4426 19.0276 64.0131 20.9067 63.8616L26.6498 63.8313C27.6701 63.8262 28.352 64.5637 28.7359 65.5285C29.2612 64.4121 30.13 63.7707 31.2868 63.7808L36.4945 63.8313C38.2977 63.8515 39.808 65.2506 39.8232 67.1549L39.9141 79.3231H36.5399V68.049C36.5399 67.5186 36.2116 66.9175 35.6661 66.9175L31.3928 66.9074V66.9125Z" fill="white"/>
<path d="M57.6385 75.56C57.6385 77.7775 56.0373 79.3029 53.9562 79.3029H46.9251C44.8238 79.3029 43.2428 77.7017 43.2377 75.7368L43.1923 58.1791H46.5462L46.5563 63.7858L53.9461 63.806C54.9109 63.806 55.7999 64.1647 56.5172 64.7557C57.2546 65.5285 57.6436 66.5236 57.6436 67.6298L57.6335 75.56H57.6385ZM54.3048 75.2368L54.3149 67.847C54.2037 67.2105 53.8047 66.8872 53.1986 66.8872L46.5614 66.8973V75.1863C46.5664 75.7671 46.9604 76.1965 47.5261 76.2116H53.3551C53.8502 76.2116 54.3048 75.8278 54.3048 75.2418V75.2368Z" fill="white"/>
<path d="M116.454 76.2217C117.106 76.2217 117.616 75.9388 117.621 75.3074V73.7668H120.99L120.909 76.2166C120.672 77.8936 119.444 79.2675 117.641 79.2625H109.893C108.039 79.2625 106.619 77.7471 106.614 75.8984L106.594 67.3418C106.594 66.1952 107.17 65.0991 108.069 64.4828C108.837 63.9575 109.761 63.7908 110.691 63.7959L117.348 63.8211C118.53 63.8211 119.586 64.3465 120.278 65.2456C120.732 65.983 120.98 66.8064 120.98 67.6903L120.99 72.8677H109.903V75.1155C109.903 75.7216 110.292 76.2116 110.933 76.2116L116.454 76.2217ZM117.656 70.2613L117.641 67.8823C117.641 67.3266 117.252 66.9377 116.696 66.8973H110.862C110.317 66.9175 109.918 67.3115 109.908 67.857L109.862 70.2613H117.656Z" fill="white"/>
<path d="M72.8071 78.3078C71.4483 77.0147 70.9331 73.3375 73.2718 71.9535C73.9032 71.5797 74.6103 71.3272 75.3529 71.1403L82.7881 69.2764C82.8993 68.0591 82.8083 66.9226 81.8335 66.9226H75.8883C75.3731 66.9226 75.0447 67.4731 75.0447 67.9227L75.0296 69.3522H71.6756C71.6605 68.4733 71.6605 67.6398 71.812 66.7508C72.0949 65.1092 73.3577 63.8616 75.0902 63.8515L82.2022 63.806C84.556 63.7909 86.1219 65.3113 86.1219 67.66V75.5954C86.1118 77.7623 84.5156 79.3332 82.3285 79.3282L75.3074 79.313C74.378 79.313 73.4536 78.9342 72.8121 78.323L72.8071 78.3078ZM81.8385 76.2066C82.384 76.1914 82.7679 75.8126 82.773 75.2721L82.8033 71.8929L75.8327 73.6507C75.171 73.8174 74.9892 74.3326 75.0245 74.969C75.0548 75.5045 75.2468 76.1864 75.9085 76.1864L81.8385 76.2015V76.2066Z" fill="white"/>
<path d="M93.4208 76.1914L99.2952 76.2015C99.8357 76.2015 100.26 75.8378 100.265 75.3175L100.285 73.7517H103.654C103.715 75.8429 103.624 77.8734 101.75 78.8584C100.972 79.1968 100.159 79.3433 99.2952 79.3332L92.6631 79.2776C90.7235 79.2625 89.2435 77.7623 89.2435 75.7873L89.2536 67.2256C89.2536 65.3163 90.7487 63.8363 92.6479 63.8363H100.23C102.008 63.8414 103.291 65.1698 103.533 66.8367C103.659 67.7055 103.7 68.4935 103.649 69.3471L100.295 69.3572L100.28 67.9075C100.28 67.5438 99.9923 66.9428 99.5478 66.9428L93.5925 66.9023C93.047 66.9023 92.552 67.261 92.552 67.8722V75.267C92.5469 75.7267 92.9005 76.1914 93.4208 76.1914Z" fill="white"/>
<path d="M64.2151 67.8822V79.3382H60.8611L60.8864 67.4579C60.8864 66.6043 61.1996 65.7658 61.6895 65.1192C62.3563 64.2353 63.417 63.9171 64.503 63.8009L69.741 63.7756V66.9023H65.2203C64.7404 66.9023 64.2151 67.2357 64.2151 67.8772V67.8822Z" fill="white"/>
<path d="M11.062 75.4034L11.1378 73.7467L14.4968 73.7568L14.416 75.9338C14.3503 77.7219 13.0017 79.2625 11.1125 79.2675L3.54594 79.2878C1.5861 79.2878 0.0556069 77.6966 0.0455046 75.5651L0.0151978 68.054C0.0151978 67.0337 0.20209 66.0083 0.798124 65.185C1.39416 64.3616 2.4549 63.8363 3.54089 63.8262L10.4357 63.7808C11.1378 63.7808 11.749 63.9323 12.4107 64.1596C13.6381 64.7152 14.416 65.9325 14.4261 67.3317L14.4766 72.8577L3.39946 72.8728L3.3742 75.0903C3.36915 75.6762 3.75304 76.2066 4.37938 76.2066L10.3195 76.1864C10.6883 76.1864 11.0469 75.7621 11.062 75.4034ZM11.1429 70.2614L11.1125 67.857C11.0469 67.3014 10.6883 66.9024 10.1225 66.8973L4.30866 66.9074C3.73283 66.9074 3.3742 67.3822 3.37926 67.9227L3.39441 70.2664H11.1479L11.1429 70.2614Z" fill="white"/>
<path d="M69.347 88.5364L66.4325 88.5111L65.8163 90.2336H64.0433L67.0387 82.3639L68.7763 82.4043L71.7059 90.2235L69.933 90.2487L69.347 88.5364ZM68.852 87.1625L67.8569 84.3641L66.8821 87.1928L68.847 87.1675L68.852 87.1625Z" fill="white"/>
</g>
<defs>
<clipPath id="clip0_401_332">
<rect width="121" height="90.4406" fill="white"/>
</clipPath>
</defs>
</svg>
