<svg width="88" height="58" viewBox="0 0 88 58" fill="none" xmlns="http://www.w3.org/2000/svg">
<g clip-path="url(#clip0_367_5293)">
<path d="M32.9412 16.4153L32.5723 18.3417L32.3293 18.3472V8.87854L32.5595 8.89153C32.691 10.5303 33.1731 12.2581 34.8005 12.7666C35.4452 12.9336 36.0808 13.0561 36.7712 13.0561L43.8083 13.0617V4.7789C44.7526 3.51504 46.0365 2.6335 47.4812 2.15097L47.2767 4.09965V24.3937L47.3753 25.8339C45.9945 25.3216 44.7727 24.5069 43.8083 23.3952V14.0379L37.1638 14.0416C36.5118 14.0416 35.9128 14.1177 35.2826 14.2272C34.2014 14.487 33.1567 15.2813 32.9394 16.4153H32.9412Z" fill="white"/>
<path d="M60.1601 21.5653L60.3391 21.686C58.5035 24.8967 56.0489 27.378 52.3376 28.1389C50.1313 28.5917 47.8556 28.5305 45.673 27.9718C43.7772 27.4875 42.1006 26.5391 40.6778 25.1936C38.6103 23.1855 37.2369 20.5947 36.709 17.7367C36.5209 16.6918 36.4387 15.7045 36.4351 14.6244L40.4623 14.6169C40.4568 15.929 40.5591 17.1688 40.7947 18.4345C41.0248 19.5796 41.3408 20.6467 41.8394 21.6915C43.8813 26.1234 48.7213 27.918 53.2873 26.9548C56.4415 26.2904 58.2862 24.1023 60.1601 21.5635V21.5653Z" fill="white"/>
<path d="M40.5426 12.4938L36.5684 12.4845C36.9136 9.71369 37.9729 7.09318 39.6988 4.90139C41.9599 2.11014 45.2493 0.343342 48.8089 0.0816631L51.1157 0.0872307C52.6152 0.168889 54.0507 0.631004 55.3932 1.28242L56.3922 1.7668C57.1173 2.11756 57.9282 1.90599 58.4104 1.23973C58.9784 0.452839 58.8925 -0.198575 59.2158 0.0538248L59.7692 8.95278C59.1848 7.57386 58.825 6.2933 58.0378 5.12038C56.9365 3.26821 55.2434 1.91899 53.185 1.31582C51.2326 0.744213 49.1487 0.777618 47.2273 1.42903C43.9306 2.54813 42.1773 5.21689 41.2166 8.48695C40.8549 9.79906 40.6486 11.0945 40.5445 12.4919L40.5426 12.4938Z" fill="white"/>
<path d="M35.8159 27.3705L41.0048 27.378L42.1938 27.3204C42.8951 27.7287 43.5983 28.0609 44.3927 28.3839H29.9203L27.6665 21.7287L27.9478 21.7212C28.5541 22.8904 29.2062 23.9891 30.0335 25.0099C30.8609 26.0306 32.2417 27.0996 33.595 27.2017L35.8178 27.3687L35.8159 27.3705Z" fill="white"/>
<path d="M33.4342 1.22303C32.09 1.42347 31.0361 2.33656 30.5887 3.59856C30.3238 4.34277 30.154 5.03687 29.9914 5.81819L29.6992 5.80335L29.986 0.0668182H45.2109L43.0539 1.07642L35.1949 1.08013L33.4342 1.22489V1.22303Z" fill="white"/>
<path d="M22.5524 47.8279L21.1497 47.8372L15.1463 40.2522L15.139 47.8335H13.4514V37.0156H14.7829L20.8374 44.7676L20.8502 37.023L22.5524 37.0248V47.8279Z" fill="white"/>
<path d="M6.44905 43.0212L1.70221 43.0249V46.3117H7.31659V47.8335H0V37.0118L7.17961 37.01L7.18144 38.5299H1.70404L1.70039 41.5977L6.44905 41.5996V43.0212Z" fill="white"/>
<path d="M35.0507 47.5681C33.0562 48.3643 30.2691 47.8669 28.5249 46.4768L29.2956 45.007C29.9787 45.6027 30.7294 45.9516 31.5604 46.1855C32.8809 46.5585 34.8772 46.5177 35.0141 45.1666C35.0689 44.6358 34.8315 44.1978 34.3676 43.9306C32.4535 42.8245 29.0144 43.1641 28.9285 40.345C28.8847 38.9141 29.692 37.6967 31.0472 37.2271C32.8663 36.598 34.8607 37.0007 36.4168 38.1606L35.6497 39.56C34.5721 38.6357 33.1348 38.2683 31.7887 38.5893C31.3485 38.6951 30.9924 38.9846 30.8481 39.3076C30.6435 39.7623 30.6289 40.28 30.9047 40.6549C31.1348 40.9667 31.5056 41.1764 31.8727 41.2785L33.7941 41.8111C35.4598 42.2733 36.8259 42.8857 36.8405 44.8214C36.8497 46.0648 36.2086 47.106 35.0488 47.5699L35.0507 47.5681Z" fill="white"/>
<path d="M50.2444 37.0174L51.9448 37.0081L51.9338 42.9339C51.9338 43.7858 51.7438 44.5838 51.437 45.3484C50.5713 47.4901 48.4527 48.1954 46.2738 47.8168C44.9222 47.5829 43.8446 46.694 43.2949 45.4227C42.9369 44.595 42.8036 43.7431 42.7524 42.8226V37.01H44.4382V42.6574C44.482 44.6228 45.2546 46.3488 47.3221 46.3655C49.3896 46.3822 50.1877 44.6803 50.2462 42.7446V37.0155L50.2444 37.0174Z" fill="white"/>
<path d="M87.1287 43.023L82.3691 43.0249V46.3117H87.9981L87.9999 47.8335H80.6833V37.0118L87.863 37.01V38.5299H82.3691V41.5996H87.1324L87.1287 43.023Z" fill="white"/>
<path d="M71.3413 47.8316L69.6263 47.8335V38.5299H66.0776L66.0795 37.01H74.8754L74.8773 38.5299H71.3413V47.8316Z" fill="white"/>
<path d="M60.2679 37.01H58.5693V47.8316H60.2679V37.01Z" fill="white"/>
<path d="M42.9024 55.6115L40.5865 55.6133V57.202H43.3243L43.3206 57.9499H39.7573V52.6959L43.2458 52.694L43.2512 53.4438H40.5865V54.9229L42.8933 54.9211L42.9024 55.6115Z" fill="white"/>
<path d="M47.1176 56.5988C47.4701 57.0646 47.9796 57.2818 48.4965 57.2298C49.0134 57.1778 49.4846 56.892 49.722 56.3687L50.4216 56.7751C49.9412 57.794 48.5604 58.258 47.5431 57.8571C46.0236 57.2576 45.4081 55.3888 46.1843 53.956C46.6591 53.08 47.5413 52.6105 48.5148 52.6643C49.2928 52.707 49.9759 53.1079 50.3284 53.8168L49.6746 54.2659C49.4572 53.7797 49.0116 53.4679 48.46 53.4308C47.9614 53.3955 47.4902 53.5607 47.1651 53.9597C46.5569 54.7095 46.5149 55.8063 47.1121 56.5988H47.1176Z" fill="white"/>
<path d="M55.3183 57.9462L54.4891 57.948V53.4438H52.7613L52.7595 52.6959L57.0388 52.694L57.0479 53.4438H55.3165L55.3183 57.9462Z" fill="white"/>
<path d="M30.5888 57.202L30.5906 57.9499H26.998V52.6978L27.8181 52.6959L27.8163 57.202H30.5888Z" fill="white"/>
<path d="M36.9756 57.202L36.9847 57.9499L33.3794 57.9517V52.6996L34.2086 52.694V57.202H36.9756Z" fill="white"/>
<path d="M60.6787 52.6959H59.8586V57.9517H60.6787V52.6959Z" fill="white"/>
<path d="M76.0042 57.9313L75.3102 57.9481L72.4062 54.2864L72.3989 57.9536L71.5715 57.9462V52.6996L72.2272 52.6941L75.1604 56.4466L75.1641 52.6978L76.0042 52.6922V57.9313Z" fill="white"/>
<path d="M67.7669 57.3245C66.7295 58.3099 65.1643 58.1893 64.2767 57.1073C63.389 56.0253 63.4292 54.5165 64.3351 53.4846C65.0328 52.6885 66.1341 52.4231 67.0985 52.8685C67.8984 53.2378 68.4153 54.0284 68.5578 54.8079C68.7331 55.7692 68.4573 56.673 67.7688 57.3263L67.7669 57.3245ZM67.3341 56.6137C67.8674 55.8954 67.8893 54.9582 67.4583 54.2159C67.1825 53.7426 66.7131 53.4549 66.2218 53.429C65.6848 53.3993 65.1954 53.6313 64.8721 54.0934C64.3132 54.8933 64.3552 56.0124 65.0164 56.7399C65.6775 57.4674 66.7533 57.3968 67.3341 56.6155V56.6137Z" fill="white"/>
<path d="M13.4259 56.7788C13.8095 57.1742 14.2971 57.2966 14.7976 57.2076C15.2414 57.1296 15.6505 56.8345 15.877 56.3687L16.5637 56.7696C16.0614 57.8738 14.509 58.3099 13.4698 57.7625C12.078 57.0294 11.5813 55.244 12.3794 53.8781C12.847 53.0801 13.6597 52.6458 14.5656 52.6606C15.382 52.6755 16.1071 53.0689 16.4797 53.8187L15.8258 54.2716C15.6048 53.7649 15.1574 53.4735 14.6222 53.4327C14.0871 53.3919 13.6287 53.5663 13.2963 53.9857C12.6515 54.8023 12.6789 56.0124 13.4241 56.7788H13.4259Z" fill="white"/>
<path d="M23.356 57.1463C22.4556 58.1874 20.9433 58.2877 19.948 57.3746C18.7553 56.2796 18.7626 54.3718 19.9534 53.2824C20.989 52.334 22.5488 52.4788 23.4126 53.5811C24.2765 54.6835 24.251 56.1126 23.356 57.1463ZM22.8538 56.467C23.2976 55.734 23.2811 54.8246 22.8191 54.1305C22.5305 53.6962 22.0757 53.4457 21.6082 53.4271C21.115 53.4086 20.6676 53.609 20.3461 54.0173C19.7525 54.7726 19.7489 55.875 20.3406 56.6341C20.6712 57.0572 21.1424 57.2576 21.6593 57.228C22.1232 57.202 22.567 56.9347 22.8519 56.467H22.8538Z" fill="white"/>
</g>
<defs>
<clipPath id="clip0_367_5293">
<rect width="88" height="58" fill="white"/>
</clipPath>
</defs>
</svg>
