<svg width="128" height="35" viewBox="0 0 128 35" fill="none" xmlns="http://www.w3.org/2000/svg">
<g clip-path="url(#clip0_366_5233)">
<path d="M13.7409 20.3983C13.5589 19.997 13.3938 19.5212 13.374 19.341C13.3415 19.0459 13.3807 19.0043 13.7697 18.9213C14.0071 18.8706 14.3957 18.8706 14.6331 18.9213C15.0249 19.0049 15.0616 19.0447 15.03 19.3512C14.9839 19.7991 14.3633 21.1281 14.2002 21.1281C14.1296 21.1281 13.9229 20.7997 13.7409 20.3983ZM124.788 11.0834C124.116 10.906 123.285 10.0314 123.14 9.34864C123.017 8.77159 123.13 7.86938 123.365 7.55534C124.133 6.52699 124.991 6.1521 126.013 6.39734C126.638 6.54711 127.383 7.11765 127.65 7.64955C128.303 8.9498 127.575 10.6416 126.185 11.0543C125.529 11.2492 125.424 11.2514 124.788 11.0834Z" fill="#FF6700"/>
<path d="M14.937 34.1598C14.1741 34.0293 13.4739 33.6917 12.6098 33.0376C11.9477 32.5365 11.8215 32.4797 11.6987 32.6276C11.1404 33.3003 9.48793 33.5438 8.1792 33.1463C6.72214 32.7037 4.98134 31.3071 3.92315 29.7316C3.20047 28.6557 1.73514 25.6365 1.24317 24.2097C0.322436 21.5394 -0.098534 18.396 0.0194115 15.0718C0.12888 11.9865 0.464175 10.3185 1.3629 8.38826C3.27405 4.28363 7.01218 1.34282 11.4744 0.43348C13.0437 0.113685 15.4489 0.113685 17.0182 0.43348C23.6294 1.78077 28.3022 7.46847 28.3194 14.1894C28.3294 18.0812 26.9114 21.4218 24.047 24.2551C23.3792 24.9155 22.8852 25.4734 22.9492 25.4947C23.3382 25.6243 24.644 26.4964 25.3509 27.0987C27.8779 29.2516 28.6578 31.877 27.1189 33.0507C26.2728 33.6961 24.5143 33.8625 23.0878 33.4321C22.5726 33.2767 22.5195 33.2826 21.994 33.5532C21.2067 33.9586 20.136 33.8892 18.9834 33.3579L18.1529 32.9751L17.7826 33.3334C17.0889 34.0046 15.9548 34.334 14.937 34.1598ZM19.9355 23.1828C24.2278 20.3232 26.4504 16.9786 26.4473 13.3835C26.4462 12.0853 26.2198 11.108 25.6475 9.92969C24.2451 7.04247 21.262 5.15191 18.1088 5.15191C16.8715 5.15191 15.9807 5.35565 14.896 5.88676L14.1066 6.27327L13.6296 6.00982C12.6773 5.48391 11.5223 5.21647 10.2168 5.21964C8.81919 5.22302 7.91961 5.42574 6.65809 6.02159C4.34737 7.113 2.70603 8.92385 1.96799 11.1961C1.5911 12.3564 1.53736 14.2188 1.84673 15.3982C2.10782 16.3936 2.93565 18.0401 3.64705 18.9789C4.42173 20.0012 6.14583 21.6274 7.38713 22.5065C8.35438 23.1916 8.42426 23.2213 8.87766 23.1397C9.1393 23.0927 10.2859 23.0567 11.4257 23.0597C13.6598 23.0657 15.2826 23.2581 17.074 23.7296C17.64 23.8785 18.2283 24.0077 18.3813 24.0166C18.554 24.0267 19.1436 23.7104 19.9355 23.1828ZM8.54239 15.2625C7.97351 15.1419 7.31812 14.6213 7.06583 14.0897C6.9626 13.8721 6.87813 13.4142 6.87813 13.0721C6.87813 11.8266 7.84876 10.9083 9.16518 10.9083C10.0907 10.9083 10.7536 11.3069 11.1634 12.1098C12.0178 13.7839 10.452 15.6675 8.54239 15.2625ZM10.6543 13.3029C10.8514 13.1059 10.8251 12.454 10.6115 12.2405C10.398 12.0269 9.74614 12.0006 9.54909 12.1977C9.35203 12.3948 9.37827 13.0466 9.59185 13.2602C9.80543 13.4737 10.4573 13.5 10.6543 13.3029ZM18.6787 15.2844C17.5775 15.036 16.8851 14.2008 16.8767 13.1109C16.8661 11.7477 17.8352 10.7907 19.2218 10.795C20.9302 10.8004 21.9824 12.6879 21.1084 14.1793C20.6239 15.006 19.5697 15.4855 18.6787 15.2844ZM20.9006 13.3029C21.0977 13.1059 21.0715 12.454 20.8579 12.2405C20.6443 12.0269 19.9925 12.0006 19.7954 12.1977C19.5984 12.3948 19.6246 13.0466 19.8382 13.2602C20.0518 13.4737 20.7036 13.5 20.9006 13.3029ZM48.4665 27.2515C46.7464 26.9427 45.4923 26.2889 44.2945 25.0765C43.3033 24.0732 42.8013 23.1638 42.4317 21.7024C42.2334 20.9183 42.2026 20.5247 42.2494 19.3737C42.3437 17.0546 43.0624 15.4435 44.6639 13.9607C46.1913 12.5466 47.8194 11.994 50.166 12.0933C52.4485 12.1899 53.9968 12.8717 55.4422 14.4169C56.6916 15.7526 57.3124 17.3747 57.4591 19.6867L57.523 20.6941H51.5867H45.6504L45.7304 21.1205C45.9201 22.1313 46.8104 23.264 47.7896 23.7404C48.9329 24.2965 50.718 24.3315 51.9058 23.8212C52.1837 23.7018 52.6514 23.4204 52.9451 23.1957L53.4793 22.7873L54.9599 23.4777C55.7742 23.8574 56.4593 24.1867 56.4823 24.2094C56.5054 24.2322 56.1168 24.6565 55.6189 25.1524C54.6065 26.1605 53.5291 26.7739 52.2383 27.077C51.2907 27.2994 49.2577 27.3935 48.4665 27.2515ZM53.8501 17.8121C53.8501 17.4949 53.2284 16.5286 52.758 16.1144C51.8236 15.292 51.3204 15.1145 49.9358 15.119C48.8662 15.1226 48.6473 15.1595 48.0362 15.4396C47.0507 15.8911 46.3803 16.5845 45.9335 17.6144L45.7961 17.931H49.8231C52.5174 17.931 53.8501 17.8917 53.8501 17.8121ZM91.3241 27.2011C88.3985 26.6579 86.1599 24.5772 85.4378 21.7302C85.1533 20.6086 85.1819 18.6856 85.5002 17.5321C86.4275 14.1718 89.2335 12.0552 92.7528 12.0615C94.1791 12.0641 95.2447 12.2956 96.3897 12.8518C98.9359 14.0884 100.477 16.7229 100.477 19.8397V20.692L94.5612 20.7218L88.6456 20.7517L88.8602 21.4424C88.9782 21.8223 89.2701 22.3881 89.5087 22.6998C90.8801 24.4906 94.0887 24.6999 96.083 23.1285L96.5048 22.7961L98.0219 23.4948L99.5389 24.1936L98.9629 24.8585C97.8283 26.1682 96.1705 27.0116 94.2628 27.2497C93.0396 27.4024 92.3466 27.3909 91.3241 27.2011ZM96.846 17.672C96.5757 16.7658 95.7122 15.8599 94.6536 15.3717C94.1708 15.149 93.9084 15.1123 92.877 15.1228C91.8231 15.1336 91.5839 15.1745 91.0238 15.4394C90.6702 15.6068 90.1907 15.9283 89.9583 16.1539C89.5769 16.5243 88.8526 17.6292 88.8499 17.8447C88.8494 17.8922 90.6656 17.931 92.8861 17.931H96.9233L96.846 17.672ZM106.272 27.2454C105.054 27.0419 103.741 26.3449 102.848 25.4275C102.315 24.8794 102.279 24.9641 103.686 23.4616L104.598 22.4874L105.032 22.9092C105.271 23.1412 105.782 23.5009 106.166 23.7085C106.765 24.0312 106.983 24.0862 107.672 24.0881C108.571 24.0906 108.993 23.8819 109.234 23.3155C109.566 22.5338 109.026 21.9495 106.984 20.8838C104.04 19.3472 102.969 18.0835 102.969 16.1466C102.969 15.0109 103.276 14.3042 104.15 13.4305C105.094 12.4864 105.84 12.1657 107.275 12.0874C109.075 11.9891 110.586 12.5433 111.798 13.7454L112.462 14.4037L111.343 15.5269L110.224 16.6501L109.696 16.1814C109.009 15.5709 108.379 15.2888 107.695 15.2856C106.79 15.2815 106.348 15.6067 106.348 16.2763C106.348 16.7193 106.763 17.0355 108.497 17.9154C111.777 19.5798 112.607 20.5684 112.617 22.824C112.622 23.8394 112.586 24.0532 112.313 24.6356C111.371 26.6462 108.949 27.6925 106.272 27.2454ZM59.6065 19.7155V12.4049H61.1607H62.7149V13.3532V14.3015L63.112 13.7118C63.8552 12.6082 64.8057 12.0595 65.9744 12.0595C66.6607 12.0595 67.4622 12.281 67.3994 12.4534C67.3745 12.5217 67.1276 13.2153 66.8508 13.9946C66.3986 15.2677 66.3238 15.4042 66.1142 15.3388C65.9859 15.2988 65.6416 15.238 65.349 15.2038C64.858 15.1464 64.7809 15.1743 64.3466 15.5667C63.3594 16.4585 63.1427 17.9407 63.1972 23.4285L63.233 27.0263L61.4197 27.0262L59.6065 27.0261V19.7155ZM69.2772 19.7155V12.4049H71.1192H72.9613V13.0957C72.9613 13.4756 72.9838 13.7865 73.0114 13.7865C73.0391 13.7865 73.4899 13.4998 74.0132 13.1495C75.3012 12.2875 76.2053 12.0178 77.6024 12.0792C78.489 12.1181 78.7852 12.1842 79.4341 12.488C80.3265 12.9059 81.2819 13.7473 81.6243 14.4168C82.196 15.5349 82.21 15.6928 82.2567 21.5288L82.3007 27.0261H80.5092H78.7176L78.7141 22.8527C78.7121 20.5574 78.6618 18.3047 78.6024 17.8468C78.3694 16.0534 77.4062 15.1605 75.875 15.3185C74.8206 15.4274 74.0232 16.0147 73.4939 17.0725C73.0062 18.047 72.967 18.475 72.9641 22.8527L72.9613 27.0261H71.1192H69.2772V19.7155ZM116.134 21.2697V15.5134H115.213H114.292V13.9592V12.4049H115.213H116.134V9.69944V6.99395H117.918H119.703V9.69944V12.4049H120.797H121.89V13.9592V15.5134H120.797H119.703V21.2697V27.0261H117.918H116.134V21.2697ZM123.502 19.7155V12.4049H125.344H127.186V19.7155V27.0261H125.344H123.502V19.7155Z" fill="#0F5DD9"/>
</g>
<defs>
<clipPath id="clip0_366_5233">
<rect width="128" height="34.2059" fill="white"/>
</clipPath>
</defs>
</svg>
