<svg width="122" height="18" viewBox="0 0 122 18" fill="none" xmlns="http://www.w3.org/2000/svg">
<g clip-path="url(#clip0_390_879)">
<path d="M71.0056 14.4146C70.3694 16.1899 68.53 17.2583 66.7227 17.345C64.2978 17.4624 61.9863 17.421 59.5801 17.357C58.7972 17.3356 58.0036 16.8501 57.6394 16.3846C57.1513 15.7604 56.9072 14.8601 57.1819 14.0905L61.2367 2.72638C61.7889 1.17649 63.2841 0.0574161 64.9287 0.0467456L72.1887 0.00406349C72.7142 0.00139586 73.3318 0.150783 73.7919 0.349521C74.9737 0.860372 75.4232 2.09282 74.995 3.28791L71.0043 14.4133L71.0056 14.4146ZM65.621 13.6717C65.9491 13.6637 66.3559 13.2355 66.4493 12.9727L69.5544 4.21758C69.6318 3.99884 69.3343 3.55601 69.1462 3.55468L66.72 3.54001C66.1892 3.53734 65.8117 4.00017 65.6477 4.46701L62.7026 12.8434C62.6399 13.0221 62.6679 13.3302 62.7426 13.4623C62.804 13.5716 63.1307 13.733 63.2881 13.7303L65.6196 13.673L65.621 13.6717Z" fill="black"/>
<path d="M103.431 14.0357C102.705 16.0138 101.084 17.3423 98.9383 17.3529L88.6573 17.405L90.558 12.1484L94.9729 0.00668699L104.564 0.00268555C105.109 0.00268555 105.685 0.173414 106.184 0.337473C107.336 0.872333 107.82 2.06743 107.375 3.28387L103.432 14.0357H103.431ZM97.8766 13.7063C98.3595 13.7036 98.7076 13.2315 98.8436 12.8513L101.875 4.43762C101.925 4.30024 101.919 3.95878 101.855 3.84274C101.791 3.7267 101.501 3.5613 101.363 3.55997L99.0957 3.53596C98.7556 3.53196 98.3061 3.89342 98.1901 4.22021L95.0476 13.0567C94.9622 13.2981 95.2317 13.725 95.4931 13.7236L97.8779 13.7076L97.8766 13.7063Z" fill="black"/>
<path d="M82.4057 14.2025L78.0081 14.1864L75.942 17.4049L71.0002 17.3916L72.5768 14.5519L81.6041 0.0133381L88.7933 0L87.3328 17.3929L82.0856 17.4076L82.4057 14.2025ZM79.5433 11.2707L82.8245 11.2387L83.362 5.01381L82.8378 5.92614L79.5433 11.2721V11.2707Z" fill="black"/>
<path d="M23.4725 17.3329L13.6462 17.4063L15.0881 13.7476L22.4254 13.7303C22.7949 13.7303 23.2764 13.4448 23.3951 13.1034L23.9286 11.5508C24.0033 11.3334 23.5405 10.992 23.3177 10.9506L19.5177 10.245C18.7908 10.1103 18.0385 9.68216 17.6317 9.08194C17.2569 8.52974 17.2529 7.68944 17.4863 7.06655L19.0055 3.00508C19.6751 1.21377 21.277 0.106705 23.1817 0L32.3823 0.0106705L31.0445 3.71467L24.7516 3.53728C24.3688 3.52661 23.8046 3.84405 23.6792 4.17484L22.9016 6.22358C22.9816 6.39697 23.3084 6.63706 23.4951 6.66907C25.0784 6.9425 26.5469 7.18526 28.0768 7.54139C29.1705 7.79615 29.8881 8.82718 29.5213 9.89157C28.9691 11.4881 28.4502 12.9967 27.7633 14.5519C27.0764 16.1071 25.3611 17.3196 23.4738 17.3329H23.4725Z" fill="black"/>
<path d="M13.5369 10.5798L7.43336 10.5985L6.32229 13.721L13.3942 13.757C12.9714 15.0615 12.5779 16.1552 12.0644 17.4076L0.00134277 17.3943L6.47835 0.00402832L18.2639 0.0120312L16.9621 3.69469L10.1383 3.70403L8.93256 7.00122L14.7973 7.01056L13.5369 10.5785V10.5798Z" fill="black"/>
<path d="M117.669 13.885C116.93 15.9164 115.324 17.0942 113.198 17.3943L103.548 17.409L105.001 13.7543L112.102 13.7316C112.366 13.7316 112.891 13.5089 112.981 13.2728L113.656 11.4908C113.736 11.2788 113.181 10.9466 112.919 10.896L108.946 10.1237C107.513 9.84491 106.831 8.45107 107.339 7.09992L108.937 2.84905C109.586 1.11909 111.241 2.2677e-05 113.107 0.00269031L122 0.012027L120.644 3.67335L114.693 3.53196C114.213 3.51996 113.686 3.76938 113.51 4.20821L112.811 5.9395C112.771 6.0382 112.742 6.25294 112.762 6.34631C112.782 6.43968 113.027 6.62374 113.125 6.64108L116.462 7.2453C117.11 7.36268 117.757 7.52274 118.291 7.79617C119.18 8.25367 119.39 9.16466 119.074 10.0316L117.67 13.8864L117.669 13.885Z" fill="black"/>
<path d="M40.0251 10.98C39.4862 11.5549 39.1995 12.1111 38.9194 12.77L37.2641 17.3983L32.0569 17.401L34.5458 10.7212L32.5437 0.0200341L37.923 0.00402832L38.5832 7.08792L44.0505 0.0160326L48.8523 0.0427089L40.0238 10.98H40.0251Z" fill="black"/>
<path d="M55.7747 13.737L54.5076 17.3983L43.3556 17.3769L49.5178 0.0173396L54.765 0L49.8913 13.7209L55.7747 13.737Z" fill="black"/>
</g>
<defs>
<clipPath id="clip0_390_879">
<rect width="122" height="17.4209" fill="white"/>
</clipPath>
</defs>
</svg>
