<svg width="114" height="26" viewBox="0 0 114 26" fill="none" xmlns="http://www.w3.org/2000/svg">
<g clip-path="url(#clip0_401_243)">
<path d="M113.137 25.42H80.26V0L113.137 0.00501282V25.42ZM89.3056 6.90265C89.3056 6.2585 88.7818 5.73717 88.1377 5.73717C87.4935 5.73717 86.9697 6.2585 86.9697 6.90265C86.9697 7.5468 87.4935 8.06813 88.1377 8.06813C88.7818 8.06813 89.3056 7.5468 89.3056 6.90265ZM93.4537 12.6498C93.4588 11.8378 94.0603 11.329 94.7646 11.2613C95.5867 11.1836 96.2634 11.7475 96.271 12.6148L96.2985 16.6325H98.1457L98.0931 11.7325C98.0781 10.3389 96.9051 9.41157 95.6017 9.43162C94.7145 9.44415 94.0578 9.72988 93.4913 10.4216L93.4287 9.58451H91.5689L91.5664 16.625L93.4312 16.6325L93.4537 12.6524V12.6498ZM101.78 12.532C102.026 11.7776 102.68 11.3691 103.347 11.2688C104.013 11.1686 104.635 11.4242 105.119 11.9405L106.592 10.8177C105.865 9.85771 104.745 9.42159 103.545 9.43412C101.542 9.45417 99.9704 10.8703 99.8225 12.7777C99.6746 14.7026 100.953 16.3844 102.928 16.7127C104.327 16.9458 105.788 16.4897 106.6 15.3492L105.091 14.2489C104.487 15.0084 103.504 15.1788 102.66 14.7126C101.963 14.3291 101.482 13.4444 101.778 12.532H101.78ZM89.0801 9.58451H87.2078V16.6325H89.0801V9.58451Z" fill="white"/>
<path d="M93.454 12.6498L93.4314 16.63L91.5667 16.6225V9.58448H93.4289L93.4916 10.4216C94.058 9.72986 94.7147 9.44663 95.602 9.43159C96.9053 9.41154 98.0783 10.3389 98.0933 11.7325L98.146 16.6325H96.2988L96.2712 12.6172C96.2662 11.75 95.5894 11.1861 94.7648 11.2638C94.0605 11.3315 93.459 11.8377 93.454 12.6523V12.6498Z" fill="black"/>
<path d="M101.78 12.532C101.484 13.4444 101.966 14.3291 102.662 14.7126C103.51 15.1788 104.49 15.0084 105.094 14.2489L106.602 15.3492C105.79 16.4896 104.327 16.9458 102.931 16.7127C100.955 16.3844 99.6772 14.7001 99.8251 12.7776C99.9705 10.8703 101.544 9.45415 103.547 9.4341C104.75 9.42157 105.868 9.85768 106.595 10.8176L105.121 11.9405C104.637 11.4242 104.018 11.1685 103.349 11.2688C102.68 11.369 102.028 11.7776 101.783 12.532H101.78Z" fill="black"/>
<path d="M89.0801 9.58447H87.2078V16.6325H89.0801V9.58447Z" fill="black"/>
<path d="M88.1377 8.06814C88.7828 8.06814 89.3057 7.54634 89.3057 6.90266C89.3057 6.25899 88.7828 5.73718 88.1377 5.73718C87.4927 5.73718 86.9697 6.25899 86.9697 6.90266C86.9697 7.54634 87.4927 8.06814 88.1377 8.06814Z" fill="black"/>
<path d="M25.5052 25.4201H0V0.00757629L25.5328 0.00256348L25.5052 25.4226V25.4201ZM6.7648 15.0911C6.66454 14.1111 7.01293 13.1838 7.9779 12.8279C9.38399 12.309 10.8152 11.8679 12.2814 11.4193C13.0032 11.1987 13.7527 11.1511 14.5046 11.136C15.7252 11.1135 16.8155 11.3942 17.8005 12.1261C18.0136 12.284 18.4071 12.3115 18.6828 12.1586C18.7429 9.85024 18.189 7.56691 16.9935 5.57431C16.4997 4.75221 15.4971 3.58673 14.9758 3.79476C14.5096 3.98023 14.9307 5.14571 13.9657 6.80245C13.101 8.28875 11.8077 9.33894 10.3139 10.1635L7.23099 11.8654C5.49906 12.8228 5.40131 15.4596 6.25098 16.7253C6.79738 17.5399 7.68715 17.7555 8.68972 17.7479C8.69473 17.4171 8.67468 17.0812 8.62455 16.8732C7.45406 16.8958 6.87759 16.1789 6.7648 15.0836V15.0911ZM9.90031 15.0636V15.437H16.2415V15.0636H9.90031ZM17.1238 15.7854H9.02808V18.9886H17.1238V15.7854ZM17.7103 19.3771H8.20849V20.1741H17.7103V19.3771Z" fill="white"/>
<path d="M16.2414 15.0635H9.90015V15.4369H16.2414V15.0635Z" fill="black"/>
<path d="M6.76464 15.0911C6.87743 16.1864 7.45391 16.9033 8.6244 16.8807C8.67453 17.0887 8.69207 17.4246 8.68957 17.7554C7.68951 17.763 6.79723 17.5474 6.25083 16.7328C5.40116 15.4671 5.49891 12.8304 7.23084 11.8729L10.3137 10.1711C11.81 9.34644 13.1008 8.29626 13.9656 6.80996C14.9305 5.15322 14.5094 3.98774 14.9756 3.80227C15.497 3.59424 16.4995 4.75972 16.9933 5.58182C18.1889 7.57441 18.7428 9.85525 18.6826 12.1662C18.4069 12.319 18.0159 12.2915 17.8004 12.1336C16.8128 11.3992 15.7251 11.121 14.5044 11.1435C13.7525 11.1561 13.0056 11.2062 12.2813 11.4268C10.8175 11.8754 9.38635 12.3165 7.97775 12.8354C7.01278 13.1913 6.66188 14.1186 6.76464 15.0987V15.0911Z" fill="black"/>
<path d="M17.1238 15.7854H9.02808V18.9886H17.1238V15.7854Z" fill="black"/>
<path d="M17.7103 19.3771H8.2085V20.1741H17.7103V19.3771Z" fill="black"/>
<path d="M79.0921 25.4201H26.7934L26.7683 0.00256348H79.0345L79.0896 25.4201H79.0921ZM71.0917 16.6226V11.0834L72.583 11.0784L72.5729 9.58457L71.0891 9.57955V6.9002H69.2244L69.2143 9.58457L67.9386 9.57955L67.9286 11.0759L69.2169 11.0809V16.6351L71.0891 16.6226H71.0917ZM36.21 14.9282C35.7087 14.6751 35.4204 14.2089 35.3678 13.7427L40.6989 13.7377C40.7115 13.259 40.7265 12.7426 40.6563 12.299C40.3656 10.5069 38.8567 9.4041 37.0897 9.42165C35.067 9.4417 33.5156 10.9155 33.473 12.9406C33.4504 14.0685 33.8414 15.1087 34.6209 15.823C36.2626 17.3218 39.3329 17.0487 40.4658 15.0485L39.0472 14.2766C38.3905 15.1588 37.2376 15.4395 36.2125 14.9232L36.21 14.9282ZM53.5393 15.1463C52.7447 15.021 52.1582 14.5097 52.0279 13.7452L57.3866 13.7377C57.4493 12.8855 57.3866 12.091 57.0457 11.3666C56.4517 10.0934 55.1985 9.44671 53.825 9.43167C51.7171 9.40661 50.1531 10.9831 50.1456 13.0635C50.1356 15.3142 51.9126 16.9659 54.1759 16.7704C55.3965 16.6652 56.5369 16.1814 57.146 15.046L55.6923 14.2791C55.1935 15.0059 54.424 15.2892 53.5393 15.1488V15.1463ZM61.5121 12.5296C61.5172 11.7651 62.1889 11.3215 62.818 11.2614C63.615 11.1887 64.2867 11.7275 64.2918 12.5496L64.3143 16.6326H66.2092L66.1791 12.0233C66.1741 11.2563 65.8407 10.4217 65.2417 9.96303C64.0963 9.08579 62.4671 9.30134 61.5598 10.3791L61.4846 9.58457H59.5947V16.6301H61.4896L61.5121 12.5321V12.5296ZM47.2632 9.58707L45.4862 14.1613L43.7116 9.58206L41.7015 9.60963L44.649 16.6251L46.3283 16.615L49.2959 9.58707H47.2632Z" fill="white"/>
<path d="M61.5121 12.5295L61.4896 16.63H59.5947V9.5845H61.4846L61.5598 10.379C62.4671 9.30127 64.0962 9.08823 65.2417 9.96296C65.8407 10.4216 66.1741 11.2588 66.1791 12.0232L66.2091 16.6325H64.3143L64.2917 12.5521C64.2867 11.73 63.615 11.1911 62.818 11.2638C62.1889 11.3214 61.5146 11.7676 61.5121 12.532V12.5295Z" fill="black"/>
<path d="M47.2634 9.58704H49.2986L46.331 16.615L44.6492 16.625L41.7017 9.6096L43.7118 9.58203L45.4863 14.1637L47.2634 9.58704Z" fill="black"/>
<path d="M71.0917 16.6226L69.222 16.6376L69.2195 11.0834L67.9312 11.0784L67.9412 9.58206L69.2144 9.58707L69.227 6.90271H71.0917V9.57955L72.5755 9.58457L72.5856 11.0784L71.0917 11.0834V16.6226Z" fill="black"/>
<path d="M53.5392 15.1463C54.4265 15.2867 55.1935 15.0034 55.6922 14.2766L57.1459 15.0436C56.5369 16.179 55.3965 16.6602 54.1759 16.768C51.9101 16.966 50.1355 15.3142 50.1456 13.061C50.1531 10.9807 51.7171 9.40664 53.825 9.42919C55.1985 9.44423 56.4517 10.0934 57.0457 11.3641C57.3841 12.091 57.4492 12.883 57.3866 13.7352L52.0279 13.7427C52.1582 14.5072 52.7447 15.0185 53.5392 15.1438V15.1463ZM55.5519 12.4369C55.4266 11.4644 54.6045 10.9706 53.7247 11.0082C52.845 11.0458 52.1131 11.5922 52.0379 12.4319H55.5519V12.4369Z" fill="black"/>
<path d="M55.5518 12.4369H52.0378C52.113 11.5947 52.8599 11.0458 53.7247 11.0082C54.5894 10.9706 55.4265 11.4644 55.5518 12.4369Z" fill="white"/>
<path d="M36.2099 14.9282C37.235 15.4445 38.3905 15.1613 39.0447 14.2815L40.4633 15.0535C39.3329 17.0536 36.26 17.3268 34.6183 15.828C33.8388 15.1161 33.4478 14.0735 33.4704 12.9456C33.513 10.9204 35.0645 9.44665 37.0872 9.4266C38.8542 9.40905 40.363 10.5119 40.6538 12.304C40.7265 12.7476 40.7114 13.2639 40.6964 13.7426L35.3653 13.7476C35.4179 14.2113 35.7036 14.68 36.2074 14.9332L36.2099 14.9282ZM38.8792 12.4243C38.6687 11.329 37.8591 10.9931 37.0145 11.0081C36.2049 11.0633 35.4956 11.5295 35.3427 12.4368L38.8792 12.4218V12.4243Z" fill="black"/>
<path d="M38.8793 12.4243L35.3428 12.4393C35.4957 11.5295 36.2025 11.0658 37.0145 11.0107C37.8592 10.9931 38.6688 11.329 38.8793 12.4268V12.4243Z" fill="white"/>
</g>
<defs>
<clipPath id="clip0_401_243">
<rect width="113.137" height="25.42" fill="white"/>
</clipPath>
</defs>
</svg>
