<svg width="129" height="26" viewBox="0 0 129 26" fill="none" xmlns="http://www.w3.org/2000/svg">
<g clip-path="url(#clip0_368_5337)">
<path d="M126.177 25.155C124.584 25.155 123.355 23.8895 123.355 22.3576C123.355 20.7925 124.584 19.4937 126.177 19.4937C127.771 19.4937 129 20.7925 129 22.3576C129 23.8895 127.771 25.155 126.177 25.155Z" fill="black"/>
<path d="M105.257 16.0636C105.257 10.802 108.81 6.87238 113.757 6.87238C119.136 6.87238 122.191 10.4689 122.191 16.1635C122.191 16.4965 122.191 16.8296 122.158 17.1626H109.939C110.038 19.4937 111.898 21.1588 114.454 21.1588C116.812 21.1588 118.173 19.7601 118.671 19.0275L121.693 21.3253C121.029 22.5575 118.705 25.155 114.388 25.155C108.81 25.155 105.257 21.292 105.257 16.0636ZM110.071 14.1654H117.542C117.443 12.0341 115.915 10.6355 113.823 10.6355C111.665 10.6355 110.271 12.1673 110.071 14.1654Z" fill="black"/>
<path d="M104.134 6.87238V11.5346C100.714 11.5346 99.4517 13.6659 99.4517 17.1293V24.7221H94.8694V7.3053H99.3521V9.83623C100.116 8.10453 101.842 6.87238 104.134 6.87238Z" fill="black"/>
<path d="M76.3955 19.3272C76.3955 15.8971 79.0852 13.566 83.136 13.566C84.8958 13.566 86.2573 14.0988 86.8881 14.5318V13.3995C86.8881 11.8676 85.7591 10.8353 83.7338 10.8353C82.007 10.8353 80.4133 11.4014 79.1182 12.0674L77.3916 8.93707C78.9523 7.87143 81.5754 6.87238 84.2317 6.87238C89.8102 6.87238 91.4704 9.80292 91.4704 13.6992V24.7221H87.4193L87.1206 23.5898C86.224 24.5555 84.8958 25.155 82.9036 25.155C79.3839 25.155 76.3955 22.9904 76.3955 19.3272ZM80.9776 19.194C80.9776 20.6259 82.2728 21.5917 83.9993 21.5917C85.7261 21.5917 86.9877 20.6593 86.9877 19.194C86.9877 17.6621 85.7261 16.763 83.966 16.763C82.2062 16.763 80.9776 17.762 80.9776 19.194Z" fill="black"/>
<path d="M69.1879 24.7221V0.64502H73.7699V24.7221H69.1879Z" fill="black"/>
<path d="M54.0223 24.7221V1.41095H65.9097V5.64026H58.7043V11.135H65.0131V15.331H58.7043V24.7221H54.0223Z" fill="black"/>
<path d="M32.2639 16.0636C32.2639 10.7687 36.315 6.87238 41.5945 6.87238C46.9072 6.87238 50.9581 10.802 50.9581 16.0636C50.9581 21.3253 47.0401 25.155 41.5945 25.155C36.1822 25.155 32.2639 21.3253 32.2639 16.0636ZM36.8463 16.0636C36.8463 19.0275 38.8718 21.0922 41.5945 21.0922C44.3504 21.0922 46.376 19.0275 46.376 16.0636C46.376 13.0998 44.3504 10.9352 41.5945 10.9352C38.8385 10.9352 36.8463 13.0665 36.8463 16.0636Z" fill="black"/>
<path d="M26.2796 24.7221L22.5939 19.2606L18.875 24.7221H13.9275L20.0371 15.8305L14.1931 7.3053H19.3398L22.5939 12.6003L25.8479 7.3053H30.9948L25.1506 15.8305L31.2603 24.7221H26.2796Z" fill="black"/>
<path d="M0 24.7221V1.41095H11.9537V5.64026H4.68185V10.8353H10.9243V14.998H4.68185V20.5261H12.2525V24.7221H0Z" fill="black"/>
</g>
<defs>
<clipPath id="clip0_368_5337">
<rect width="129" height="25.8" fill="white"/>
</clipPath>
</defs>
</svg>
