<svg width="121" height="23" viewBox="0 0 121 23" fill="none" xmlns="http://www.w3.org/2000/svg">
<g clip-path="url(#clip0_361_2182)">
<path d="M25.4623 22.2658C24.572 22.401 23.6842 21.8729 23.447 21.3652C23.0362 20.4826 23.447 19.4826 24.4801 19.1484L26.1741 21.3142L29.0823 9.01549L27.4368 8.7961L27.5032 7.86751L29.3782 7.78333C30.2507 4.51795 31.5492 0.966855 34.7788 1.03063C35.8222 1.05104 36.4039 1.63013 36.562 2.63271C36.6641 3.27558 35.9064 4.54601 35.164 4.35723L33.9574 1.80361C32.4471 3.61742 32.2711 5.61746 31.6793 7.84455L35.5977 7.82669L35.5288 8.65324C35.511 8.87518 34.8605 8.89559 34.5926 8.9007L31.3987 8.93896C30.5721 12.3855 29.8501 15.5743 28.8476 18.8754C28.3552 20.4953 27.2302 22.003 25.4649 22.2709L25.4623 22.2658Z" fill="white"/>
<path d="M40.4959 22.2505C39.5699 22.577 38.6872 21.9469 38.5188 21.3703C38.2458 20.4417 38.6591 19.4978 39.6974 19.4111L41.2306 20.9647C42.0444 20.2224 42.5827 19.2989 42.7102 18.2555C43.075 15.235 43.1771 12.4492 42.3684 9.30121L40.6388 11.5232C40.4602 9.87265 41.4347 8.28843 42.8582 7.6226C45.1235 6.56645 44.9475 12.2834 44.8812 15.7707C45.8378 13.2911 46.4042 10.4517 46.769 7.79862C47.0317 7.55627 47.8175 7.54862 48.0369 7.77056C49.4042 9.14559 45.3378 16.8141 43.4832 19.7555C42.7995 20.8423 41.7893 21.7938 40.501 22.2505H40.4959Z" fill="white"/>
<path d="M39.5851 13.2885C39.6029 16.5718 35.3988 17.3396 35.1641 16.5539L34.8605 15.536L38.506 3.03066L37.4013 1.8291C38.9141 1.3597 39.9728 1.12756 41.3121 1.02551L37.1564 15.3013C38.2534 15.1151 38.6667 14.161 39.5851 13.286V13.2885Z" fill="white"/>
<path d="M52.741 15.0463C54.593 16.1866 55.8405 14.5233 56.7946 14.7504C57.0344 14.8065 57.3507 15.4851 57.1441 15.6738C55.8788 16.8397 53.1797 17.2275 51.6363 16.0514C49.2664 14.2452 49.371 10.1176 51.8608 8.52574C53.0139 7.78848 54.5548 7.76552 55.6772 8.42114C57.1594 9.28851 57.6135 11.013 57.5982 12.6636H51.6338C51.6772 13.6304 52.0624 14.6279 52.741 15.0463ZM55.8941 11.3421C55.7461 10.0921 54.9655 9.28341 53.8456 9.28851C52.616 9.29361 51.8404 10.0844 51.6823 11.3702L55.8941 11.3396V11.3421Z" fill="white"/>
<path d="M114.964 12.6738C115.054 13.6942 115.492 14.7121 116.232 15.11C117.98 16.0488 119.049 14.7095 120.064 14.7529C120.304 14.7631 120.648 15.5743 120.472 15.7299C119.283 16.7708 116.773 17.1917 115.26 16.2095C113.63 15.1508 113.089 13.2656 113.403 11.3982C113.627 10.0589 114.497 8.84459 115.472 8.3803C116.847 7.72467 118.5 7.79865 119.571 8.80378C120.643 9.8089 120.954 11.1533 120.998 12.638L114.962 12.6738H114.964ZM119.273 11.337C119.059 9.80635 118.122 9.16858 116.867 9.30634C115.962 9.40583 115.242 10.2783 115.036 11.3395H119.27L119.273 11.337Z" fill="white"/>
<path d="M87.8311 8.22723L89.275 8.13539L89.2571 16.5692L88.0607 16.5029C87.826 16.4902 87.8362 15.7401 87.826 15.4901C86.752 16.5794 85.1652 17.1789 83.6601 16.4085C83.0146 16.0794 82.3514 15.11 82.3514 14.4059L82.3361 8.19406L83.8437 8.11243L83.8667 14.1814C83.8693 14.8881 84.6524 15.4391 85.4076 15.4238C88.4204 15.36 88.002 11.8727 87.8311 8.22212V8.22723Z" fill="white"/>
<path d="M98.2802 14.9467C97.5761 17.0973 94.0352 17.3371 91.7622 15.6712C92.1525 13.5462 93.474 15.8421 95.9766 15.337C96.3541 15.2605 96.8899 14.462 96.8261 14.0896C96.5021 12.189 91.178 13.2018 91.8668 9.91345C91.9995 9.28079 92.6398 8.43383 93.3796 8.21444C94.9944 7.73228 96.4996 7.88025 97.9792 8.94149C97.8414 9.17619 97.3669 9.80376 97.1781 9.98233C96.1398 9.39303 94.849 9.11752 93.9077 9.4364C93.6857 9.51038 93.326 10.0589 93.3388 10.2808C93.3923 11.3114 95.4077 11.1482 97.6935 12.3854C98.4205 12.7783 98.5379 14.1712 98.2828 14.9442L98.2802 14.9467Z" fill="white"/>
<path d="M67.0373 16.4749L65.2413 16.5106L62.9249 13.2427L60.6774 16.4315L58.7565 16.508L61.9989 12.1049L59.2514 8.26807C59.6953 8.0997 60.8381 8.03337 61.0882 8.36756L62.9096 10.911L64.8459 8.19154L66.6546 8.20685L63.8561 12.0845L67.0398 16.4749H67.0373Z" fill="white"/>
<path d="M110.752 8.25528C111.15 8.1915 111.793 8.19405 112.349 8.24507L109.291 16.4723L107.627 16.5029L104.558 8.23742L106.137 8.16089L108.441 14.3881L110.75 8.25783L110.752 8.25528Z" fill="white"/>
<path d="M70.3766 14.4901C71.3536 15.8549 73.0781 15.5871 74.2593 14.7605C74.5399 14.5641 75.3818 15.1253 75.4787 15.508C73.9557 16.9544 71.3103 17.2937 69.601 15.8881C67.4403 14.11 67.624 10.3166 69.8689 8.70682C71.5654 7.49251 73.6955 7.80374 75.4073 8.92366L74.4277 9.94409C73.2491 9.21194 71.8281 8.92111 70.7669 9.85736C69.5857 10.9007 69.4021 13.1253 70.3791 14.4876L70.3766 14.4901Z" fill="white"/>
<path d="M101.548 6.07923C102.092 6.07923 102.533 5.63836 102.533 5.09452C102.533 4.55067 102.092 4.1098 101.548 4.1098C101.004 4.1098 100.563 4.55067 100.563 5.09452C100.563 5.63836 101.004 6.07923 101.548 6.07923Z" fill="white"/>
<path d="M79.4916 3.95416H77.9099V16.5616H79.4916V3.95416Z" fill="white"/>
<path d="M102.298 16.4493L100.806 16.531L100.831 8.16088L102.285 8.14557L102.298 16.4493Z" fill="white"/>
<path d="M6.06645 15.2784C3.86488 13.9365 2.10464 12.689 0 11.2477L0.132656 9.23999L6.06645 15.2784Z" fill="white"/>
<path d="M4.55884 9.4135L4.93129 1.92099C5.52314 1.54343 6.09714 1.22455 6.73235 0.923523L4.55884 9.41095V9.4135Z" fill="white"/>
<path d="M12.3217 0.068879C10.2171 2.23474 8.60989 3.88529 6.45679 5.8241L10.2706 0L12.3217 0.068879Z" fill="white"/>
<path d="M19.7761 4.97972C20.2174 5.38789 20.6613 6.16086 20.8858 6.80629L12.5872 4.5741L19.7761 4.97972Z" fill="white"/>
<path d="M20.5031 15.6406L19.5082 17.4238C18.5566 14.462 17.7403 12.0309 16.9724 9.02826L20.5031 15.6406Z" fill="white"/>
<path d="M4.67367 12.0513L1.42615 5.87256L2.42872 4.14038C3.23486 6.63788 4.0359 8.97212 4.67367 12.0538V12.0513Z" fill="white"/>
<path d="M17.3371 2.2169C14.3906 3.09447 11.9799 3.79346 9.02063 4.50776L15.73 1.14545L17.3371 2.2169Z" fill="white"/>
<path d="M6.05636 20.1714C5.39563 19.8857 4.68898 19.4979 4.1405 19.1484C7.10485 18.3346 9.52837 17.6458 12.4825 17.0208L6.05636 20.1714Z" fill="white"/>
<path d="M11.3397 21.128L9.34729 21.0464L15.2709 15.1611C13.9826 17.3626 12.7351 19.0208 11.3422 21.128H11.3397Z" fill="white"/>
<path d="M17.0183 19.457L15.23 20.4417L17.179 11.837L17.0183 19.457Z" fill="white"/>
<path d="M9.04366 16.9085L1.6634 16.5845L0.648071 14.8243C3.53844 15.4697 5.95686 16.0488 9.04366 16.9085Z" fill="white"/>
<path d="M21.3627 10.1711L21.327 12.2528C19.3602 10.3421 17.7275 8.81141 15.855 6.66595C17.9418 7.80884 19.4137 8.92366 21.3627 10.1711Z" fill="white"/>
</g>
<defs>
<clipPath id="clip0_361_2182">
<rect width="121" height="22.3423" fill="white"/>
</clipPath>
</defs>
</svg>
