<svg width="106" height="28" viewBox="0 0 106 28" fill="none" xmlns="http://www.w3.org/2000/svg">
<mask id="mask0_326_3487" style="mask-type:luminance" maskUnits="userSpaceOnUse" x="0" y="0" width="106" height="28">
<path d="M106 7.62939e-06H0V27.56H106V7.62939e-06Z" fill="white"/>
</mask>
<g mask="url(#mask0_326_3487)">
<path d="M13.0907 9.85626H13.986C15.7124 9.85626 17.3685 9.18483 18.5899 7.98982L23.3241 2.60923H20.5658C19.8505 2.60923 19.1705 2.91102 18.6996 3.43562L14.9227 7.64448V0.530113H12.2967V7.80347L8.37705 3.43764C7.90507 2.91203 7.22504 2.61025 6.51086 2.61025H3.75452L8.48573 7.99083C9.70709 9.18584 11.3632 9.85728 13.0896 9.85728L13.0907 9.85626Z" fill="black"/>
<path d="M13.9881 17.7017H13.0927C11.3663 17.7017 9.7102 18.3732 8.48884 19.5681L3.75452 24.9488H6.51292C7.22815 24.9488 7.90818 24.6469 8.37912 24.1224L12.156 19.9135V27.0299H14.7819V19.7565L18.7006 24.1234C19.1726 24.649 19.8526 24.9498 20.5669 24.9498H23.3232L18.592 19.5692C17.3705 18.3742 15.7145 17.7017 13.9881 17.7017Z" fill="black"/>
<path d="M2.12599 20.6557V23.3526L7.62521 18.7234C8.84657 17.5284 9.5328 15.9081 9.5328 14.2189V13.3429C9.5328 11.6537 8.84657 10.0333 7.62521 8.83829L2.12599 4.20509V6.90399C2.12599 7.60378 2.43444 8.26914 2.97163 8.72993L7.2733 12.4253H0V14.9946H7.43373L2.9706 18.8288C2.4334 19.2905 2.12496 19.9559 2.12496 20.6548L2.12599 20.6557Z" fill="black"/>
<path d="M19.6471 12.5621L24.1102 8.7279C24.6474 8.2661 24.9548 7.60074 24.9548 6.90197V4.20509L19.4557 8.83424C18.2342 10.0293 17.548 11.6496 17.548 13.3389V14.2148C17.548 15.904 18.2342 17.5244 19.4557 18.7194L24.9548 23.3516V20.6526C24.9548 19.9529 24.6464 19.2876 24.1102 18.8268L19.8085 15.1313H27.0818V12.5621H19.6471Z" fill="black"/>
<path d="M41.2914 22.8458C39.6843 22.8458 38.271 22.4918 37.0513 21.7836C35.8374 21.0699 34.8885 20.0578 34.2046 18.7475C33.5207 17.4315 33.1788 15.8701 33.1788 14.0634C33.1788 12.6806 33.3839 11.4454 33.7943 10.3581C34.2046 9.27075 34.7774 8.34789 35.5125 7.58953C36.2477 6.8256 37.1055 6.24569 38.0857 5.84978C39.066 5.44829 40.1288 5.24756 41.2744 5.24756C42.2432 5.24756 43.1493 5.38696 43.9928 5.66576C44.842 5.939 45.5999 6.32933 46.2668 6.83675C46.9335 7.34419 47.4807 7.9464 47.9081 8.64343C48.3412 9.34044 48.6233 10.11 48.7544 10.952H45.5231C45.3919 10.5003 45.1982 10.0932 44.9418 9.73078C44.6852 9.36833 44.3747 9.06164 44.0099 8.81072C43.6452 8.55421 43.2348 8.36183 42.7789 8.23358C42.3286 8.09975 41.8414 8.03284 41.3171 8.03284C40.371 8.03284 39.5247 8.26424 38.7782 8.72707C38.0315 9.18989 37.4417 9.87018 37.0086 10.768C36.5811 11.6601 36.3674 12.7474 36.3674 14.03C36.3674 15.3237 36.5755 16.4194 36.9914 17.3171C37.4132 18.2149 37.9945 18.898 38.7354 19.3664C39.4763 19.8292 40.3339 20.0606 41.3085 20.0606C42.2204 20.0606 43.0097 19.885 43.6765 19.5337C44.3433 19.1824 44.8562 18.6945 45.2152 18.0699C45.58 17.4454 45.7624 16.726 45.7624 15.912L46.3265 16.0709H41.6248V13.6453H48.8826V22.6117H46.6087L46.3778 20.6043H46.2838C45.6684 21.3236 44.9588 21.8784 44.1552 22.2688C43.3517 22.6535 42.397 22.8458 41.2914 22.8458Z" fill="black"/>
<path d="M51.5828 5.48173H54.6773V18.9314C54.6773 19.411 54.7514 19.7539 54.8996 19.9602C55.0478 20.1666 55.3099 20.2641 55.686 20.2529C55.8912 20.2473 56.0452 20.2362 56.1477 20.2194C56.256 20.1972 56.3529 20.1748 56.4383 20.1526L56.9512 22.4444C56.7689 22.5001 56.5409 22.5531 56.2673 22.6033C55.9996 22.6534 55.669 22.6842 55.2757 22.6953C54.0219 22.7288 53.0929 22.4723 52.4888 21.9257C51.8848 21.3793 51.5828 20.5457 51.5828 19.4249V5.48173Z" fill="black"/>
<path d="M63.1265 22.8375C62.095 22.8375 61.1718 22.5783 60.3567 22.0597C59.5418 21.5411 58.8979 20.7883 58.4248 19.8014C57.9518 18.8144 57.7152 17.6155 57.7152 16.2048C57.7152 14.7773 57.9546 13.5728 58.4334 12.5914C58.9178 11.6044 59.5703 10.8601 60.391 10.3581C61.2116 9.85068 62.1263 9.59697 63.1351 9.59697C63.9044 9.59697 64.5371 9.72522 65.0329 9.98172C65.5287 10.2327 65.9219 10.5365 66.2126 10.8934C66.5032 11.2447 66.7284 11.5765 66.8879 11.8888H67.0162V9.76425H70.1193V22.6117H67.076V20.5876H66.8879C66.7284 20.8998 66.4975 21.2316 66.1955 21.5829C65.8934 21.9287 65.4944 22.2242 64.9987 22.4695C64.5028 22.7149 63.8788 22.8375 63.1265 22.8375ZM63.99 20.3534C64.6454 20.3534 65.2038 20.1805 65.6654 19.8349C66.127 19.4835 66.4776 18.9956 66.7169 18.3711C66.9563 17.7466 67.076 17.0189 67.076 16.188C67.076 15.3572 66.9563 14.635 66.7169 14.0217C66.4833 13.4083 66.1356 12.9315 65.674 12.5914C65.2181 12.2513 64.6567 12.0812 63.99 12.0812C63.3004 12.0812 62.7248 12.2568 62.2631 12.6081C61.8015 12.9594 61.4538 13.4445 61.2202 14.0635C60.9865 14.6824 60.8697 15.3906 60.8697 16.188C60.8697 16.991 60.9865 17.7076 61.2202 18.3376C61.4596 18.9622 61.81 19.4556 62.2716 19.8181C62.739 20.1749 63.3118 20.3534 63.99 20.3534Z" fill="black"/>
<path d="M78.0487 22.8374C77.0172 22.8374 76.0939 22.5782 75.279 22.0596C74.4639 21.5411 73.82 20.7882 73.3469 19.8013C72.8739 18.8143 72.6375 17.6155 72.6375 16.2047C72.6375 14.7772 72.8768 13.5727 73.3555 12.5913C73.8399 11.6043 74.4925 10.86 75.3131 10.3581C76.1339 9.85064 77.0485 9.59692 78.0572 9.59692C78.8266 9.59692 79.4592 9.72517 79.9551 9.98167C80.4508 10.2326 80.8441 10.5365 81.1347 10.8934C81.4254 11.2446 81.6505 11.5764 81.8101 11.8887H81.9383V5.48173H85.0415V22.6117H81.9982V20.5875H81.8101C81.6505 20.8998 81.4198 21.2315 81.1177 21.5828C80.8156 21.9286 80.4167 22.2241 79.9208 22.4694C79.4251 22.7148 78.801 22.8374 78.0487 22.8374ZM78.9121 20.3533C79.5675 20.3533 80.126 20.1804 80.5877 19.8348C81.0493 19.4834 81.3997 18.9955 81.6392 18.371C81.8785 17.7465 81.9982 17.0188 81.9982 16.188C81.9982 15.3571 81.8785 14.6349 81.6392 14.0216C81.4054 13.4082 81.0579 12.9314 80.5963 12.5913C80.1402 12.2512 79.579 12.0811 78.9121 12.0811C78.2225 12.0811 77.6469 12.2567 77.1853 12.608C76.7236 12.9593 76.3761 13.4445 76.1423 14.0634C75.9087 14.6823 75.7919 15.3905 75.7919 16.188C75.7919 16.9909 75.9087 17.7075 76.1423 18.3375C76.3817 18.9621 76.7322 19.4555 77.1939 19.818C77.6612 20.1748 78.2339 20.3533 78.9121 20.3533Z" fill="black"/>
<path d="M88.098 22.6115V9.76405H91.1926V22.6115H88.098ZM89.6539 7.94066C89.1637 7.94066 88.7419 7.78173 88.3886 7.46389C88.0353 7.14047 87.8586 6.75293 87.8586 6.30126C87.8586 5.84402 88.0353 5.45647 88.3886 5.13863C88.7419 4.81522 89.1637 4.65351 89.6539 4.65351C90.1496 4.65351 90.5714 4.81522 90.9191 5.13863C91.2724 5.45647 91.4491 5.84402 91.4491 6.30126C91.4491 6.75293 91.2724 7.14047 90.9191 7.46389C90.5714 7.78173 90.1496 7.94066 89.6539 7.94066Z" fill="black"/>
<path d="M99.0074 22.8375C97.9759 22.8375 97.0526 22.5783 96.2377 22.0597C95.4227 21.5411 94.7787 20.7883 94.3056 19.8014C93.8327 18.8144 93.5962 17.6155 93.5962 16.2048C93.5962 14.7773 93.8355 13.5728 94.3142 12.5914C94.7987 11.6044 95.4512 10.8601 96.2718 10.3581C97.0925 9.85068 98.0073 9.59697 99.016 9.59697C99.7853 9.59697 100.418 9.72522 100.914 9.98172C101.41 10.2327 101.803 10.5365 102.093 10.8934C102.384 11.2447 102.609 11.5765 102.769 11.8888H102.897V9.76425H106V22.6117H102.957V20.5876H102.769C102.609 20.8998 102.378 21.2316 102.076 21.5829C101.774 21.9287 101.375 22.2242 100.88 22.4695C100.384 22.7149 99.7597 22.8375 99.0074 22.8375ZM99.8709 20.3534C100.526 20.3534 101.085 20.1805 101.546 19.8349C102.008 19.4835 102.358 18.9956 102.598 18.3711C102.837 17.7466 102.957 17.0189 102.957 16.188C102.957 15.3572 102.837 14.635 102.598 14.0217C102.364 13.4083 102.017 12.9315 101.555 12.5914C101.099 12.2513 100.538 12.0812 99.8709 12.0812C99.1812 12.0812 98.6056 12.2568 98.144 12.6081C97.6824 12.9594 97.3347 13.4445 97.1011 14.0635C96.8675 14.6824 96.7505 15.3906 96.7505 16.188C96.7505 16.991 96.8675 17.7076 97.1011 18.3376C97.3404 18.9622 97.691 19.4556 98.1526 19.8181C98.6198 20.1749 99.1927 20.3534 99.8709 20.3534Z" fill="black"/>
</g>
</svg>
