<svg width="93" height="24" viewBox="0 0 93 24" fill="none" xmlns="http://www.w3.org/2000/svg">
<mask id="mask0_326_3487" style="mask-type:luminance" maskUnits="userSpaceOnUse" x="0" y="0" width="93" height="24">
<path d="M92.3077 1.52588e-05H0V24H92.3077V1.52588e-05Z" fill="white"/>
</mask>
<g mask="url(#mask0_326_3487)">
<path d="M11.3997 8.5831H12.1794C13.6828 8.5831 15.125 7.99841 16.1886 6.95776L20.3113 2.27219H17.9093C17.2864 2.27219 16.6942 2.535 16.2841 2.99183L12.9951 6.65703V0.461639H10.7084V6.79548L7.29497 2.99359C6.88396 2.53588 6.29177 2.27308 5.66984 2.27308H3.26955L7.38962 6.95863C8.45321 7.99928 9.8954 8.58399 11.3988 8.58399L11.3997 8.5831Z" fill="black"/>
<path d="M12.1812 15.4151H11.4015C9.89808 15.4151 8.45592 15.9999 7.39232 17.0405L3.26955 21.7261H5.67164C6.29448 21.7261 6.88667 21.4632 7.29677 21.0065L10.5858 17.3412V23.5384H12.8725V17.2045L16.285 21.0073C16.6961 21.4651 17.2882 21.7269 17.9102 21.7269H20.3105L16.1904 17.0414C15.1268 16.0007 13.6846 15.4151 12.1812 15.4151Z" fill="black"/>
<path d="M1.85137 17.9876V20.3361L6.64024 16.3049C7.70383 15.2642 8.30142 13.8532 8.30142 12.3822V11.6194C8.30142 10.1483 7.70383 8.73728 6.64024 7.69663L1.85137 3.66191V6.01219C1.85137 6.62159 2.11998 7.201 2.58777 7.60227L6.33378 10.8203H0V13.0577H6.47349L2.58688 16.3966C2.11907 16.7987 1.85047 17.3781 1.85047 17.9867L1.85137 17.9876Z" fill="black"/>
<path d="M17.1092 10.9394L20.9958 7.6005C21.4636 7.19836 21.7313 6.61894 21.7313 6.01043V3.66191L16.9425 7.69311C15.8788 8.73376 15.2812 10.1448 15.2812 11.6158V12.3787C15.2812 13.8497 15.8788 15.2607 16.9425 16.3014L21.7313 20.3352V17.9849C21.7313 17.3756 21.4627 16.7962 20.9958 16.3949L17.2498 13.1768H23.5836V10.9394H17.1092Z" fill="black"/>
<path d="M35.9578 19.8948C34.5582 19.8948 33.3275 19.5865 32.2654 18.9698C31.2083 18.3483 30.3819 17.4669 29.7864 16.3258C29.1908 15.1798 28.8931 13.8201 28.8931 12.2468C28.8931 11.0426 29.0717 9.967 29.429 9.02011C29.7864 8.07322 30.2852 7.26957 30.9253 6.60917C31.5656 5.94392 32.3125 5.43891 33.1661 5.09415C34.0198 4.74452 34.9453 4.56972 35.9429 4.56972C36.7866 4.56972 37.5757 4.69111 38.3102 4.9339C39.0497 5.17184 39.7097 5.51175 40.2904 5.95363C40.871 6.39552 41.3475 6.91995 41.7197 7.52693C42.0969 8.13391 42.3426 8.80403 42.4567 9.53731H39.6428C39.5286 9.14393 39.3599 8.78945 39.1366 8.47382C38.9132 8.1582 38.6427 7.89112 38.3251 7.67261C38.0075 7.44924 37.6501 7.28171 37.2531 7.17003C36.861 7.05349 36.4367 6.99521 35.9801 6.99521C35.1563 6.99521 34.4193 7.19673 33.7692 7.59977C33.1189 8.00281 32.6053 8.59522 32.2282 9.37706C31.8559 10.1539 31.6698 11.1008 31.6698 12.2177C31.6698 13.3443 31.851 14.2984 32.2132 15.0802C32.5805 15.862 33.0867 16.4569 33.7319 16.8648C34.3771 17.2678 35.124 17.4693 35.9726 17.4693C36.7668 17.4693 37.4541 17.3164 38.0348 17.0105C38.6154 16.7045 39.0621 16.2797 39.3747 15.7358C39.6924 15.1919 39.8512 14.5655 39.8512 13.8566L40.3425 13.9949H36.2481V11.8827H42.5684V19.6909H40.5882L40.3872 17.9428H40.3053C39.7693 18.5692 39.1514 19.0523 38.4516 19.3923C37.7519 19.7273 36.9205 19.8948 35.9578 19.8948Z" fill="black"/>
<path d="M44.9197 4.77364H47.6145V16.486C47.6145 16.9036 47.6791 17.2022 47.8081 17.3819C47.9372 17.5616 48.1654 17.6465 48.4929 17.6368C48.6716 17.6319 48.8057 17.6222 48.8949 17.6076C48.9893 17.5883 49.0736 17.5688 49.148 17.5494L49.5947 19.5452C49.436 19.5937 49.2374 19.6399 48.9992 19.6836C48.766 19.7272 48.4781 19.754 48.1356 19.7637C47.0438 19.7928 46.2348 19.5695 45.7088 19.0935C45.1827 18.6177 44.9197 17.8918 44.9197 16.9157V4.77364Z" fill="black"/>
<path d="M54.9723 19.8876C54.074 19.8876 53.27 19.6618 52.5603 19.2102C51.8506 18.7586 51.2898 18.1031 50.8779 17.2436C50.466 16.3841 50.26 15.3401 50.26 14.1116C50.26 12.8685 50.4684 11.8196 50.8854 10.9649C51.3072 10.1054 51.8754 9.45724 52.5901 9.02014C53.3047 8.57825 54.1013 8.35732 54.9797 8.35732C55.6497 8.35732 56.2006 8.469 56.6324 8.69236C57.0641 8.91088 57.4066 9.17552 57.6597 9.48632C57.9128 9.79223 58.1089 10.0812 58.2478 10.3531H58.3595V8.50299H61.0618V19.6909H58.4116V17.9282H58.2478C58.1089 18.2002 57.9078 18.4891 57.6449 18.795C57.3818 19.0961 57.0343 19.3535 56.6026 19.5671C56.1708 19.7808 55.6274 19.8876 54.9723 19.8876ZM55.7242 17.7243C56.2949 17.7243 56.7812 17.5738 57.1832 17.2728C57.5852 16.9668 57.8905 16.5419 58.0989 15.9981C58.3073 15.4542 58.4116 14.8205 58.4116 14.097C58.4116 13.3735 58.3073 12.7446 58.0989 12.2105C57.8955 11.6763 57.5927 11.2611 57.1907 10.9649C56.7937 10.6688 56.3048 10.5206 55.7242 10.5206C55.1237 10.5206 54.6224 10.6736 54.2204 10.9795C53.8184 11.2854 53.5157 11.7079 53.3122 12.2469C53.1087 12.7859 53.0069 13.4026 53.0069 14.097C53.0069 14.7962 53.1087 15.4202 53.3122 15.9689C53.5206 16.5128 53.8258 16.9425 54.2278 17.2582C54.6348 17.5689 55.1336 17.7243 55.7242 17.7243Z" fill="black"/>
<path d="M67.967 19.8875C67.0687 19.8875 66.2647 19.6617 65.555 19.2101C64.8453 18.7585 64.2845 18.103 63.8725 17.2435C63.4607 16.384 63.2547 15.34 63.2547 14.1115C63.2547 12.8684 63.4632 11.8195 63.88 10.9648C64.3019 10.1053 64.8701 9.45715 65.5848 9.02009C66.2995 8.5782 67.096 8.35726 67.9744 8.35726C68.6444 8.35726 69.1953 8.46894 69.6271 8.69231C70.0588 8.91083 70.4013 9.17547 70.6544 9.48623C70.9075 9.79214 71.1036 10.0811 71.2425 10.353H71.3542V4.77364H74.0565V19.6908H71.4063V17.9281H71.2425C71.1036 18.2001 70.9026 18.489 70.6395 18.7949C70.3765 19.096 70.0291 19.3534 69.5973 19.567C69.1656 19.7807 68.6221 19.8875 67.967 19.8875ZM68.7189 17.7242C69.2896 17.7242 69.776 17.5737 70.178 17.2727C70.58 16.9667 70.8852 16.5418 71.0937 15.998C71.3021 15.4541 71.4063 14.8204 71.4063 14.0969C71.4063 13.3734 71.3021 12.7445 71.0937 12.2104C70.8901 11.6762 70.5875 11.261 70.1855 10.9648C69.7884 10.6687 69.2996 10.5205 68.7189 10.5205C68.1183 10.5205 67.6171 10.6735 67.2151 10.9794C66.8131 11.2853 66.5104 11.7078 66.3069 12.2468C66.1034 12.7858 66.0017 13.4025 66.0017 14.0969C66.0017 14.7961 66.1034 15.4201 66.3069 15.9688C66.5153 16.5127 66.8206 16.9424 67.2226 17.2581C67.6296 17.5688 68.1283 17.7242 68.7189 17.7242Z" fill="black"/>
<path d="M76.7182 19.6907V8.50281H79.4131V19.6907H76.7182ZM78.0731 6.91495C77.6463 6.91495 77.279 6.77655 76.9713 6.49977C76.6637 6.21813 76.5098 5.88064 76.5098 5.48732C76.5098 5.08914 76.6637 4.75165 76.9713 4.47487C77.279 4.19324 77.6463 4.05241 78.0731 4.05241C78.5048 4.05241 78.8721 4.19324 79.1749 4.47487C79.4826 4.75165 79.6364 5.08914 79.6364 5.48732C79.6364 5.88064 79.4826 6.21813 79.1749 6.49977C78.8721 6.77655 78.5048 6.91495 78.0731 6.91495Z" fill="black"/>
<path d="M86.2183 19.8876C85.3201 19.8876 84.5161 19.6618 83.8064 19.2102C83.0967 18.7586 82.5359 18.1031 82.1239 17.2436C81.712 16.3841 81.5061 15.3401 81.5061 14.1116C81.5061 12.8685 81.7145 11.8196 82.1314 10.9649C82.5532 10.1054 83.1215 9.45724 83.8361 9.02014C84.5508 8.57825 85.3474 8.35732 86.2258 8.35732C86.8958 8.35732 87.4467 8.469 87.8785 8.69236C88.3102 8.91088 88.6527 9.17552 88.9058 9.48632C89.1589 9.79223 89.3549 10.0812 89.4939 10.3531H89.6055V8.50299H92.3077V19.6909H89.6576V17.9282H89.4939C89.3549 18.2002 89.1539 18.4891 88.8909 18.795C88.6278 19.0961 88.2805 19.3535 87.8487 19.5671C87.4169 19.7808 86.8734 19.8876 86.2183 19.8876ZM86.9703 17.7243C87.541 17.7243 88.0274 17.5738 88.4294 17.2728C88.8314 16.9668 89.1365 16.5419 89.345 15.9981C89.5534 15.4542 89.6576 14.8205 89.6576 14.097C89.6576 13.3735 89.5534 12.7446 89.345 12.2105C89.1415 11.6763 88.8388 11.2611 88.4368 10.9649C88.0397 10.6688 87.5509 10.5206 86.9703 10.5206C86.3697 10.5206 85.8685 10.6736 85.4665 10.9795C85.0645 11.2854 84.7617 11.7079 84.5583 12.2469C84.3548 12.7859 84.253 13.4026 84.253 14.097C84.253 14.7962 84.3548 15.4202 84.5583 15.9689C84.7667 16.5128 85.0719 16.9425 85.4739 17.2582C85.8808 17.5689 86.3797 17.7243 86.9703 17.7243Z" fill="black"/>
</g>
</svg>
