<svg width="137" height="40" viewBox="0 0 137 40" fill="none" xmlns="http://www.w3.org/2000/svg">
<g clip-path="url(#clip0_338_598)">
<path d="M48.5346 34.0783C48.3894 34.2188 48.0305 34.2203 47.8807 34.1251L45.3634 30.3374L45.3212 34.1111C45.1027 34.211 44.8343 34.2188 44.6314 34.0846L44.6361 28.9547C44.8671 28.8704 45.0668 28.8782 45.2869 28.9391L47.8151 32.822L47.8401 28.9703C48.0477 28.8642 48.3145 28.8533 48.5361 28.9797L48.533 34.0799L48.5346 34.0783Z" fill="black"/>
<path d="M65.4396 34.0627C65.346 34.2157 64.9277 34.2266 64.7997 34.1283L62.2684 30.3203L62.2372 34.1064C62.0249 34.211 61.7612 34.2203 61.5505 34.0846L61.5552 28.9532C61.7877 28.8704 61.9937 28.872 62.2028 28.9469L64.728 32.8095L64.7482 28.9641C64.9621 28.8658 65.193 28.8658 65.4443 28.9547L65.4396 34.0612V34.0627Z" fill="black"/>
<path d="M55.3235 32.6941C55.2173 33.5368 54.6368 34.1267 53.819 34.1361L51.3516 34.1626V28.9126L53.7472 28.936C54.6056 28.9438 55.2189 29.5634 55.3297 30.4186C55.3968 31.1599 55.4031 31.9168 55.325 32.6941H55.3235ZM54.6025 30.5575C54.5275 29.9692 54.089 29.5509 53.4975 29.5462L52.0602 29.5353L52.0633 33.5228L53.6192 33.4993C54.7851 33.4822 54.7601 31.7998 54.6025 30.556V30.5575Z" fill="black"/>
<path d="M71.562 31.9402L70.326 31.8778C70.1855 31.87 70.1855 31.3799 70.3244 31.3394L72.2612 31.3113C72.4094 32.4849 72.2315 33.6632 71.1375 34.0752C70.4789 34.3233 69.7345 34.3249 69.0884 34.0299C68.5 33.7599 68.0896 33.1497 68.088 32.5052L68.0833 30.5731C68.0802 29.5384 68.9666 28.8626 69.9748 28.8298C70.6802 28.8064 71.37 28.9547 71.8445 29.4838C72.0677 29.7335 72.2471 30.0175 72.2159 30.3843C71.999 30.4654 71.7586 30.4451 71.5121 30.4108C71.3342 29.7631 70.7848 29.4432 70.1262 29.4557C69.4676 29.4682 68.9136 29.8474 68.834 30.5372C68.7544 31.227 68.7528 31.8856 68.8371 32.5458C68.9214 33.2059 69.4286 33.5883 70.0513 33.6101C70.5398 33.6273 70.9939 33.5071 71.3061 33.1294C71.5246 32.8001 71.5917 32.4459 71.5636 31.9433L71.562 31.9402Z" fill="black"/>
<path d="M41.1668 28.9485C41.4072 28.8689 41.6163 28.8814 41.8707 28.9375L41.852 32.5239C41.8488 33.1965 41.4712 33.8021 40.8641 34.058C40.3163 34.289 39.7232 34.2952 39.152 34.161C38.353 33.9722 37.8505 33.3011 37.8473 32.4693L37.8317 28.9641C38.0674 28.8595 38.2999 28.8642 38.5387 28.9641L38.5715 32.463C38.5777 33.17 39.1349 33.5836 39.7919 33.6086C40.5348 33.6367 41.1372 33.1653 41.1434 32.3866L41.1653 28.9453L41.1668 28.9485Z" fill="black"/>
<path d="M35.1676 31.3347C35.3034 31.4221 35.3003 31.7842 35.1973 31.9371L32.7268 31.9589L32.6956 34.1111C32.463 34.2032 32.2274 34.2078 32.0026 34.1126L32.012 28.9032L35.2894 28.925C35.4673 28.95 35.4766 29.4572 35.294 29.5337L32.7268 29.554L32.7205 31.3019L35.1692 31.3316L35.1676 31.3347Z" fill="black"/>
<path d="M58.7397 28.9094H58.0125V34.1719H58.7397V28.9094Z" fill="black"/>
<path d="M18.1176 14.3642C18.3595 15.4551 18.7169 16.4586 19.2584 17.4402L20.9658 20.5272C21.5572 21.5962 22.1425 22.5966 22.6544 23.7094C24.1198 26.9009 24.7113 30.4701 23.274 33.7646C22.4796 35.5843 21.0251 37.0233 19.1897 37.8566C15.6798 39.4516 11.6924 39.7731 7.97335 38.7587C3.89382 37.6491 0.611772 34.6994 0.0686667 30.4373C-0.362072 27.0585 1.2969 23.7499 3.13066 20.9798C3.87509 19.8561 4.60703 18.8027 5.26563 17.6369L7.14777 17.6525C7.2695 17.6525 7.3725 17.6837 7.47863 17.7695C7.09003 18.5483 6.66553 19.2553 6.19265 19.9935L3.96873 23.4659C2.87471 25.1748 1.84312 27.8857 2.04913 29.9363C2.28011 32.2336 3.55203 34.2328 5.47944 35.486C8.91755 37.7209 13.9756 37.7755 17.7461 36.2757C18.7574 35.8731 19.6579 35.3502 20.3758 34.5465C22.4078 32.2711 22.4187 29.1342 21.4886 26.2907C21.0079 24.8221 20.3056 23.5158 19.5565 22.1674L17.3934 18.2658C16.7161 17.0438 16.3275 15.775 16.0528 14.4126L17.7009 14.4391L18.1176 14.3642Z" fill="black"/>
<path d="M7.47862 17.7695C7.3725 17.6837 7.2695 17.6509 7.14777 17.6525L5.26562 17.6369C5.88364 16.5428 6.30502 15.4207 6.61246 14.2003C7.12124 12.1824 7.54573 10.191 8.78021 8.51487C9.74781 7.2008 11.1477 6.37053 12.763 6.15204C12.9924 6.12083 13.1266 5.97101 13.1344 5.75408C13.1844 4.33857 12.5554 3.03075 11.811 1.83841C11.4911 1.32496 11.6268 0.694456 12.1356 0.385447C12.6163 0.0936057 13.2374 0.259034 13.5495 0.775609C14.5281 2.394 15.2834 4.0358 15.1414 5.98193C15.0618 7.07439 14.2924 7.93587 13.1797 8.1169C11.9265 8.32135 10.8808 8.91751 10.2035 10.0209C9.7837 10.7029 9.45441 11.4114 9.24528 12.1996L8.55391 14.7996C8.27768 15.839 7.95462 16.816 7.48019 17.7695H7.47862Z" fill="black"/>
<path d="M18.1176 14.3642L17.7009 14.4391L16.0528 14.4126C15.8718 13.5152 15.6861 12.649 15.4457 11.7642C15.3911 11.5628 15.2866 11.3865 15.1133 11.3646C14.4032 11.271 13.9709 12.8628 13.8086 13.7961L12.1684 13.7899C12.0295 13.7899 11.9 13.8726 11.7579 13.8242C11.9109 12.6818 12.184 11.6112 12.7817 10.6577C13.548 9.43566 15.0056 8.94094 16.276 9.65884C16.8769 9.99906 17.2264 10.6155 17.4168 11.2772C17.7134 12.3119 17.8882 13.331 18.116 14.3642H18.1176Z" fill="black"/>
<path d="M6.29871 3.9453L6.31899 0.602388C6.37986 0.458809 6.40327 0.327714 6.43292 0.187256C8.04351 0.460369 9.48555 1.17827 10.5499 2.41898C11.2147 3.22896 11.6564 4.1513 11.7017 5.25468C9.81953 5.30462 7.86716 5.02839 6.29871 3.94686V3.9453Z" fill="black"/>
<path d="M6.43456 0.185683C6.40491 0.327702 6.37994 0.457236 6.32064 0.600815L6.30035 3.94373C4.9738 3.03075 3.99371 1.64333 3.92816 0.00620819C4.79432 -0.0203228 5.59806 0.0452244 6.43456 0.187243V0.185683Z" fill="black"/>
<path d="M13.8086 13.7977C13.4699 15.7438 13.832 17.6072 14.1754 19.5284L14.7325 22.6434C16.2807 22.7699 17.7243 23.4066 18.4297 24.7847C18.9587 25.8194 18.8277 27.0336 18.0692 27.8935C17.5105 28.5271 16.7598 28.8548 15.9061 28.7144C14.1363 28.4257 13.1859 26.4592 12.9471 24.7347L11.9202 24.8502C11.7657 26.2298 11.2491 27.8186 10.0037 28.4444C8.84262 29.0281 7.4037 28.7222 6.58124 27.7343C5.78219 26.7729 5.75098 25.4136 6.55471 24.4881C7.42399 23.4878 8.51489 23.1569 9.87421 22.9525C9.81022 21.8959 9.74624 20.819 9.28116 19.8561C9.01429 19.3052 9.04238 18.6794 9.59798 18.3501C10.0802 18.0629 10.7575 18.2268 11.0307 18.7808C11.6596 20.0512 11.8016 21.345 11.9062 22.7605C12.198 22.7933 12.4493 22.7699 12.6912 22.6731L11.9327 18.4859C11.6502 16.9237 11.5488 15.388 11.7579 13.8242C11.8999 13.8742 12.0295 13.7914 12.1684 13.7899L13.8086 13.7961V13.7977ZM16.4243 26.6793C16.8113 26.375 16.8004 25.9068 16.5366 25.5447C16.1824 25.0578 15.6205 24.8018 15.0087 24.7441C15.1679 25.6087 15.7032 26.8275 16.4243 26.6793ZM9.83519 25.0406C9.13602 25.0921 8.10443 25.501 8.00923 25.9864C7.93588 26.3578 8.28859 26.6231 8.55078 26.684C9.33891 26.8681 9.66508 25.9832 9.83519 25.039V25.0406Z" fill="black"/>
<path d="M92.868 23.8732H91.8473C91.4852 23.8763 91.2652 23.7109 91.0764 23.4269L86.8501 17.0438L85.9996 15.5175L86.101 17.5854L86.0901 23.3395C86.0901 23.6485 85.8451 23.8701 85.5595 23.8701H84.5778C84.2672 23.8701 84.0113 23.6579 84.0113 23.3176V12.8909C84.0113 12.5507 84.2672 12.3322 84.5794 12.3322L85.6328 12.3291C85.9122 12.3291 86.1197 12.4462 86.2976 12.6631L90.4568 18.9587L91.3963 20.6349L91.3432 19.0727L91.3479 12.8894C91.3479 12.5897 91.5726 12.3463 91.8473 12.3447L92.9023 12.3369C93.1957 12.3353 93.4548 12.5757 93.4548 12.9081V23.3036C93.4548 23.6344 93.1973 23.8748 92.8695 23.8748L92.868 23.8732Z" fill="black"/>
<path d="M54.025 18.0926C54.025 21.4136 51.3313 24.1042 48.0087 24.1042C44.686 24.1042 41.9924 21.4121 41.9924 18.0926C41.9924 14.7731 44.686 12.081 48.0087 12.081C51.3313 12.081 54.025 14.7731 54.025 18.0926ZM51.2517 20.2369C51.876 19.093 51.9805 17.7945 51.5748 16.6006C51.0301 14.9916 49.5709 14.0052 47.8791 14.0599C46.1874 14.1145 44.942 15.0883 44.4348 16.6193C44.0321 17.8382 44.1523 19.1679 44.7953 20.2869C45.4835 21.4823 46.7211 22.1784 48.0664 22.1534C49.4117 22.1284 50.59 21.4464 51.2501 20.2369H51.2517Z" fill="black"/>
<path d="M70.3384 23.4316C69.6096 23.7063 68.9229 23.8623 68.1769 23.8639L64.4344 23.8748C64.0131 23.8748 63.8242 23.5892 63.8242 23.185L63.818 12.9471C63.818 12.571 64.0755 12.3244 64.4313 12.3244H67.8757C70.4351 12.326 72.6934 13.6042 73.3894 16.1168C74.1791 18.9681 73.2989 22.3173 70.3368 23.4316H70.3384ZM71.2795 19.6049C71.5323 18.6935 71.5338 17.8273 71.3653 16.9518C71.0656 15.3989 69.8764 14.3346 68.2861 14.1676L65.9155 14.1301V22.0738L68.2284 22.0442C69.672 21.9146 70.8846 21.0282 71.2795 19.6033V19.6049Z" fill="black"/>
<path d="M37.2153 19.1195C37.1185 18.4172 37.1965 17.807 37.7755 17.8085L40.3163 17.8132C40.6393 17.8132 40.8641 18.0879 40.8641 18.4032L40.8578 23.341C40.8578 23.6516 40.6128 23.8701 40.3272 23.8701H39.6436C39.3893 23.8701 39.138 23.6781 39.1286 23.4206L39.1052 22.8089C38.5247 23.3208 37.8926 23.6953 37.131 23.8966C34.1049 24.691 31.0507 22.8807 30.2579 19.8499C29.3746 16.4742 31.1787 12.9893 34.6402 12.2776C36.3959 11.9171 38.2188 12.2277 39.7279 13.1391C40.0697 13.3451 40.1977 13.7306 40.0026 14.0411L39.6249 14.642C39.4298 14.9526 39.0631 15.0072 38.7447 14.8121C36.5723 13.4762 33.5961 13.896 32.5957 16.237C31.9965 17.6416 32.0823 19.313 32.9859 20.5709C34.4217 22.5701 37.3495 22.6668 38.9897 20.8955L38.9835 19.608L37.7755 19.6033C37.4821 19.6033 37.2574 19.4191 37.2168 19.1242L37.2153 19.1195Z" fill="black"/>
<path d="M80.8339 18.965H77.4816L77.4644 22.0754L81.956 22.0785C82.2775 22.0847 82.549 22.2782 82.549 22.5997V23.341C82.549 23.661 82.2837 23.8717 81.9544 23.8717H75.9709C75.615 23.8717 75.3747 23.6266 75.3747 23.2583V12.9487C75.3731 12.5897 75.6119 12.3275 75.9724 12.3275H81.7281C82.0387 12.3291 82.279 12.5523 82.2821 12.8348L82.2899 13.5854C82.2931 13.9132 81.9903 14.1363 81.6579 14.1192L77.4644 14.1223V17.1593L80.8463 17.1765C81.1241 17.2202 81.3317 17.3762 81.3582 17.6603V18.4749C81.3567 18.7496 81.1304 18.9213 80.8307 18.9665L80.8339 18.965Z" fill="black"/>
<path d="M62.7521 22.5108C62.8583 23.2193 62.7787 23.8654 62.2543 23.867L56.2754 23.8732C55.9602 23.8732 55.6949 23.6563 55.6949 23.3207V12.8909C55.6949 12.5819 55.9212 12.3416 56.199 12.3416L57.2493 12.3385C57.5786 12.3385 57.7784 12.6131 57.7784 12.9471L57.7752 22.0753L62.2449 22.0894C62.4946 22.0894 62.7022 22.2657 62.7553 22.5123L62.7521 22.5108Z" fill="black"/>
<path d="M134.737 23.4643L132.675 19.5783L130.67 19.5752L130.656 23.341C130.656 23.65 130.405 23.8763 130.119 23.8748L129.063 23.8654C128.828 23.8639 128.582 23.6454 128.582 23.3645V12.8441C128.582 12.5882 128.827 12.3353 129.072 12.3369L133.256 12.351C134.564 12.3556 135.675 13.0673 136.221 14.2471C136.892 15.9873 136.388 18.1909 134.597 18.9541L136.959 23.2334C137.027 23.3535 136.998 23.5283 136.956 23.6313C136.917 23.7265 136.777 23.8561 136.618 23.8576L135.355 23.8685C135.107 23.8701 134.871 23.7156 134.739 23.4643H134.737ZM134.353 16.1121C134.411 15.544 134.277 15.0509 133.954 14.6389C133.603 14.3221 133.148 14.1441 132.663 14.1426L130.665 14.1348V17.7352L132.808 17.7227C133.671 17.718 134.322 16.997 134.353 16.1137V16.1121Z" fill="black"/>
<path d="M124.53 20.9251L120.493 20.9205L119.642 23.4378C119.555 23.6984 119.305 23.8592 119.034 23.8732H118.054C117.887 23.8717 117.742 23.803 117.659 23.7015C117.568 23.5923 117.501 23.405 117.568 23.2131L121.258 12.7817C121.365 12.4789 121.651 12.3369 121.944 12.3369H123.081C123.379 12.3369 123.661 12.4711 123.77 12.7801L127.458 23.2131C127.517 23.3832 127.466 23.5517 127.399 23.661C127.322 23.7858 127.16 23.8732 126.971 23.8732H126.068C125.731 23.8935 125.464 23.6969 125.354 23.3894L124.53 20.9283V20.9251ZM123.99 19.1866L123.031 16.2791L122.512 14.3377L122.09 15.9966L121.014 19.1991L123.99 19.1881V19.1866Z" fill="black"/>
<path d="M102.26 19.9014L102.252 23.2677C102.252 23.6204 102.012 23.8732 101.658 23.8732H100.757C100.404 23.8732 100.159 23.6313 100.159 23.2583V12.9487C100.159 12.5913 100.403 12.3244 100.76 12.326L104.946 12.3463C106.483 12.3541 107.718 13.406 108.123 14.8589C108.351 15.6751 108.347 16.4945 108.126 17.3076C107.729 18.7871 106.483 19.7828 104.947 19.8889L102.262 19.9014H102.26ZM105.979 17.0033C106.188 16.4492 106.199 15.8983 106.048 15.363C105.842 14.6201 105.205 14.1317 104.425 14.1285L102.254 14.1223V18.0489L104.5 18.0395C105.161 18.0364 105.715 17.6213 105.979 17.0033Z" fill="black"/>
<path d="M115.059 18.965H111.708L111.693 22.0754L116.25 22.0785C116.541 22.1144 116.78 22.3032 116.78 22.5982V23.341C116.78 23.661 116.507 23.8717 116.179 23.8717H110.196C109.882 23.8717 109.615 23.6547 109.615 23.3176V12.8878C109.615 12.5554 109.879 12.326 110.197 12.326L115.955 12.3291C116.289 12.3291 116.529 12.571 116.527 12.8769V13.5979C116.526 13.9303 116.217 14.1379 115.883 14.1176L111.694 14.1207V17.1562L115.085 17.1718C115.362 17.2186 115.566 17.3716 115.594 17.6556V18.4718C115.593 18.7481 115.362 18.9244 115.06 18.9619L115.059 18.965Z" fill="black"/>
</g>
<defs>
<clipPath id="clip0_338_598">
<rect width="137" height="39.3408" fill="white"/>
</clipPath>
</defs>
</svg>
