<svg width="132" height="29" viewBox="0 0 132 29" fill="none" xmlns="http://www.w3.org/2000/svg">
<g clip-path="url(#clip0_342_1107)">
<path d="M0 5.5V23.2L6.1 20.4V8.3L0 5.5Z" fill="black"/>
<path d="M19.5 20.1L13.8 22.8C13.1 23.1 11.9 23.1 11.1 22.8L6 20.4L0 23.2L12.5 29L23.7 23.8C24.4 23.5 25 22.5 25 21.7V9.20003C25 8.40003 24.4 8.00002 23.7 8.40002L13.1 13.3V17.6C13.1 18.4 13.5 18.9 14.2 18.5L18.2 16.7C18.9 16.4 19.5 16.7 19.5 17.5V20.1Z" fill="black"/>
<path d="M6.1 8.30001L12.6 5.30001L19.1 8.30001L23.8 6.10001C24.5 5.80001 24.5 5.20001 23.8 4.90001L14 0.300012C13.3 1.22041e-05 12.1 1.22041e-05 11.3 0.300012L0 5.50001L6.1 8.30001Z" fill="black"/>
<path d="M43.7 14.5C43.7 16.7 45.5 18.4 47.7 18.4C48.5 18.4 49.4 18.1 50.2 17.7V16.3H47.8V14.5H50.6H52.3V19H52.2C51 19.9 49.2 20.5 47.6 20.5C44.1 20.5 41.4 17.9 41.4 14.5C41.4 11.1 44.1 8.5 47.7 8.5C49.4 8.5 51 9.1 52.2 10.2L52.3 10.3L51.1 12L51 11.9C50.1 11.1 48.9 10.6 47.8 10.6C45.5 10.6 43.7 12.3 43.7 14.5ZM67.4 14.5C67.4 17.9 64.6 20.5 61.1 20.5C57.6 20.5 54.8 17.9 54.8 14.5C54.8 11.1 57.5 8.5 61.1 8.5C64.6 8.5 67.4 11.1 67.4 14.5ZM65 14.5C65 12.3 63.3 10.6 61.1 10.6C58.9 10.6 57.1 12.3 57.1 14.5C57.1 16.7 58.9 18.4 61.1 18.4C63.3 18.4 65 16.7 65 14.5ZM81.9 14.5C81.9 17.9 79.1 20.5 75.6 20.5C72.1 20.5 69.3 17.9 69.3 14.5C69.3 11.1 72 8.5 75.6 8.5C79.1 8.5 81.9 11.1 81.9 14.5ZM79.5 14.5C79.5 12.3 77.8 10.6 75.6 10.6C73.4 10.6 71.6 12.3 71.6 14.5C71.6 16.7 73.4 18.4 75.6 18.4C77.8 18.4 79.5 16.7 79.5 14.5ZM95.3 14.5C95.3 17.9 92.7 20.4 89.1 20.4H84.3V8.6H89.2C92.8 8.6 95.3 11.1 95.3 14.5ZM93 14.5C93 12.3 91.3 10.6 89.1 10.6H86.5V18.3H89.2C91.5 18.3 93 16.7 93 14.5ZM108.8 17.5L106.1 8.6H103.9L101.2 17.5L98.5 8.6H96L99.9 20.5H102.2L104.8 11.9L107.4 20.5H109.6L113.6 8.6H111.2L108.8 17.5ZM116 20.4H118.3V8.6H116V20.4ZM129.6 8.6V16.5L123.7 8.6H121.5V20.5H123.8V12.6L129.7 20.5H131.9V8.6H129.6Z" fill="black"/>
</g>
<defs>
<clipPath id="clip0_342_1107">
<rect width="131.9" height="29" fill="white"/>
</clipPath>
</defs>
</svg>
