<svg width="119" height="89" viewBox="0 0 119 89" fill="none" xmlns="http://www.w3.org/2000/svg">
<g clip-path="url(#clip0_398_148)">
<path d="M101.403 65.5057C100.833 65.385 100.384 65.4967 100.204 65.5504C99.9798 65.6174 99.8272 66.1536 100.007 66.663C100.725 67.3243 102.291 67.0115 102.821 65.8989C103.808 66.0329 103.844 67.7398 103.359 67.9007C101.86 68.4011 100.438 68.1152 98.7725 68.0839C99.1406 66.7657 98.4045 65.7872 98.2026 64.8354C98.1711 64.1294 99.2752 62.9721 98.7411 61.8372L102.942 61.8148C103.808 61.8104 103.579 62.5342 103.633 62.8872C103.691 63.2805 103.355 64.0847 102.96 63.9596C102.017 63.1107 101.079 62.6951 99.9708 63.1911C99.6253 65.175 102.197 63.62 102.484 64.6835C102.592 65.0767 102.314 65.7067 101.407 65.5101L101.403 65.5057Z" fill="#E4B968"/>
<path d="M30.5366 67.637L30.4244 41.3588C30.4154 39.5625 30.1012 37.954 30.2045 36.3856L21.2015 67.3868C20.9771 67.5342 20.7616 67.6057 20.5328 67.5387L28.6965 37.7439L12.4723 67.6147L11.7407 67.57L26.8923 38.7538L3.58597 67.6996C3.40196 67.5789 3.1237 67.503 2.80505 67.4895L29.9845 33.2041L28.6606 32.7216C29.1543 31.6894 29.6793 30.7376 29.9217 29.4239L23.5308 30.5455C25.703 28.0745 27.6508 25.8359 28.7593 22.784L25.0253 23.5034C26.7352 21.5597 28.122 19.7858 29.0959 17.4042L26.2191 18.0744C28.3195 15.7062 29.5941 13.3648 30.6712 10.0135C31.4656 12.8688 32.6504 15.313 34.7015 17.6901C33.6423 18.0208 33.1576 17.5963 32.2375 17.4533C33.1172 19.8528 34.5489 21.6088 36.353 23.4989L32.417 22.7661C33.575 25.4695 35.2759 27.7483 37.4212 30.2774C35.0784 30.4382 33.5166 29.7278 31.3399 29.4195C31.5464 30.7153 32.0894 31.6581 32.6684 32.7528C32.0041 32.9003 31.5643 33.0343 31.313 33.2667L58.3668 67.3332C58.102 67.4583 57.909 67.6325 57.7744 67.8023L34.0776 38.2444L49.3593 67.3019L48.8567 67.6951L32.7177 38.1103L40.8007 67.5655L40.1095 67.5834L31.111 36.3632L30.9315 66.931C30.9315 67.2795 30.9315 67.494 30.55 67.6415L30.5366 67.637Z" fill="#E4B968"/>
<path d="M119 71.5512C118.879 72.2974 118.879 73.057 119 73.8033L108.148 73.705L108.116 78.2358L115.432 78.2582C115.612 79.1921 115.612 79.974 115.432 80.9079L108.103 80.9302L108.13 85.8945L117.645 85.9169C118.192 85.9169 118.654 86.0777 118.991 86.2297C118.874 86.9759 118.874 87.731 118.991 88.4728L105.15 88.5845L105.127 80.9749C104.172 80.8453 103.386 80.8409 102.376 80.9928L102.242 88.6113L90.7837 77.512L90.6267 88.4593C89.747 88.647 88.7956 88.7006 87.687 88.4772L87.7364 71.0418L99.3245 82.1456L99.4277 71.158C100.411 70.9301 101.362 70.9346 102.354 71.158V78.1733C103.427 78.3252 104.158 78.3163 105.132 78.1867L105.154 71.0374L116.787 71.0016C117.685 71.0016 118.434 71.1267 118.995 71.5512H119Z" fill="#E4B968"/>
<path d="M59.4932 71.3099C60.144 70.8273 61.459 70.9077 62.213 71.158L62.2309 88.4638C61.2615 88.6872 60.4896 88.6872 59.4529 88.4638L59.4349 80.9168H50.5082L50.4992 88.4593C49.6286 88.6514 48.8836 88.647 47.6897 88.5442L47.7301 81.1983C46.8684 80.7649 45.9035 80.7515 44.7007 81.0508C44.1981 85.5817 40.4595 88.6425 35.8548 88.9732C30.4108 89.3619 25.9094 85.4521 25.6625 80.2555C25.4157 75.0588 29.4863 70.7514 34.9303 70.6441C38.0315 70.5816 40.7737 71.7478 42.533 74.0579C41.8014 74.8086 41.227 75.3001 40.2217 75.7157C38.0854 73.2491 34.8674 72.5744 32.04 74.1785C29.5895 75.5727 28.0905 78.6603 28.9881 81.6094C29.8274 84.3753 32.417 86.4486 35.581 86.3324C38.4848 86.2296 41.052 84.1206 41.6803 80.9347L35.4554 80.9123C35.3342 79.9516 35.3252 79.2188 35.4644 78.2492H47.6449L47.6942 71.0686C48.8656 70.9658 49.6331 70.9614 50.4948 71.1535L50.5082 78.2492H59.4214L59.4888 71.3099H59.4932Z" fill="#E4B968"/>
<path d="M13.9488 88.4861L13.9354 80.9168H5.00869L4.99523 88.4861C4.04825 88.6782 3.25836 88.7095 2.23958 88.437L2.16777 81.0017C1.75487 80.9078 0.713649 81.0776 0.354607 80.8319C-0.103171 80.5191 5.30831e-05 79.5137 0.0494214 78.8748C0.0987896 78.2805 0.973955 77.9453 2.11391 78.3251L2.25304 71.1446C3.24041 70.9301 4.05723 70.939 4.99523 71.1222L5.01318 78.2492H13.9354L13.9533 71.1267C14.9003 70.939 15.6812 70.9167 16.7359 71.1714V88.4459C15.6812 88.6961 14.9048 88.6738 13.9533 88.4861H13.9488Z" fill="#E4B968"/>
<path d="M75.8835 81.6362L78.7873 81.6094L78.7424 88.5889L65.4489 88.5532V71.1759C66.4497 70.9167 67.3877 70.948 68.2808 71.158V85.8767H75.9643L75.8835 81.6362Z" fill="#E4B968"/>
<path d="M84.5769 70.9077H81.6552V88.705H84.5769V70.9077Z" fill="#E4B968"/>
<path d="M22.9877 71.0328H20.0929V88.5889H22.9877V71.0328Z" fill="#E4B968"/>
<path d="M88.0461 68.0436C85.8694 68.8122 85.8021 65.5816 84.716 65.4475C84.1505 65.376 83.787 65.9614 84.0159 66.6763C84.155 67.1097 84.0069 67.5342 84.0428 67.7398C84.137 68.276 82.9073 68.3028 82.9208 67.9989C82.9836 66.8148 82.463 65.8363 82.2476 64.8354C82.1309 64.1338 83.3471 62.9989 82.7188 61.8416C84.4512 61.7522 85.6091 61.6584 87.0946 62.0337C87.889 62.2348 88.1179 63.1865 88.0551 63.7674C87.9788 64.4421 87.5749 65.023 86.6728 65.5056L88.0506 68.0436H88.0461ZM84.0248 63.0257V64.25H86.6728V63.0257H84.0248Z" fill="#E4B968"/>
<path d="M111.379 68.0078C109.225 68.8568 109.279 65.5458 107.973 65.4386C107.372 65.3894 107.147 65.9703 107.358 66.6629C107.502 67.1365 107.376 67.5297 107.381 67.7934C107.381 68.3027 106.317 68.2804 106.263 67.9498L105.715 64.8443L106.187 61.8416L109.993 61.8996C110.904 61.913 111.325 62.7576 111.393 63.3876C111.487 64.2679 111.128 65.0275 110.046 65.4966L111.384 68.0034L111.379 68.0078ZM107.376 63.0301V64.25H110.082V63.0301H107.376Z" fill="#E4B968"/>
<path d="M78.4821 61.8817C78.8232 61.7477 79.4919 61.7522 79.8958 61.8505L79.833 66.082C79.8105 67.4895 78.3474 68.2357 77.1536 68.2625C75.9598 68.2893 74.4294 67.6057 74.398 66.1758L74.3082 61.8639C74.8019 61.7388 75.143 61.7566 75.5514 61.8639L75.6367 65.7558C75.6546 66.6494 76.633 67.0427 77.212 66.998C78.0378 66.9354 78.6392 66.3277 78.6033 65.3804L78.4821 61.8773V61.8817Z" fill="#E7C179"/>
<path d="M95.7655 64.5896C96.7035 64.6745 95.7879 67.3108 94.8679 67.7532C92.1302 69.0669 90.0477 67.1634 90.4157 66.4976C91.0261 65.385 92.1167 67.4181 93.6157 67.007C94.1991 66.8461 94.8768 66.377 94.7646 65.4118C93.4317 65.3984 91.7532 65.7514 90.3349 65.3001C89.7066 64.5539 90.4247 62.7621 91.2011 62.2929C92.368 61.5869 94.06 61.4305 95.2359 62.3242C95.6533 62.6414 95.7834 62.9363 95.6174 63.2938C95.1551 64.2902 94.0106 62.7487 92.9156 62.8649C92.2648 62.9319 91.6051 63.1866 91.4704 64.2054L95.7699 64.5941L95.7655 64.5896Z" fill="#E4B968"/>
<path d="M71.4359 68.1375L67.7602 64.6567C67.3562 67.1857 68.1057 68.6022 66.4362 68.1419L66.4048 61.7791C67.8634 63.1017 68.7969 64.2098 70.1523 65.166L70.2645 61.855C70.8165 61.7612 71.0948 61.7656 71.6199 61.8505L71.4403 68.1375H71.4359Z" fill="#E4B968"/>
<path d="M118.062 62.7441C115.333 65.8764 116.455 67.7576 116.065 68.0569C115.899 68.1865 115.347 68.2357 115.19 68.115C114.835 67.838 115.71 65.4072 112.681 61.8996C114.216 61.3902 115.01 62.6056 115.477 64.1561C116.217 63.4724 116.424 62.2705 117.178 61.8281C117.932 61.3857 118.61 62.1141 118.062 62.7441Z" fill="#E4B968"/>
<path d="M47.3667 0.174264C61.8765 2.07777 73.3479 13.0117 75.6727 27.0601C78.1456 41.9977 70.3319 56.274 56.4819 62.2616C55.867 62.5297 55.499 62.5431 55.0547 62.4224C55.1983 62.2437 55.4496 61.6941 55.3958 61.4483C55.3464 61.2205 54.7136 61.1087 54.4578 60.8987C70.4441 54.8576 78.3161 36.7519 71.9117 21.2111C65.4803 5.20112 47.0301 -2.23863 31.3399 4.60684C15.6498 11.4523 8.29841 30.1835 16.1121 45.8405C16.5968 46.8057 17.1443 47.5474 17.0994 48.5528C16.6372 48.6332 16.1749 49.1024 15.6902 49.3839C9.79292 39.71 9.14665 27.3774 14.9945 16.7517C19.9359 7.77935 29.5178 1.26007 40.316 0L47.3622 0.174264H47.3667Z" fill="#E4B968"/>
</g>
<defs>
<clipPath id="clip0_398_148">
<rect width="119" height="89" fill="white"/>
</clipPath>
</defs>
</svg>
