<svg width="137" height="31" viewBox="0 0 137 31" fill="none" xmlns="http://www.w3.org/2000/svg">
<g clip-path="url(#clip0_333_4506)">
<path d="M51.8084 22.9155V15.5895H44.1758V22.9155H41.359V6.51182H44.1758V13.1097H51.8084V6.51182H54.6251V22.9155H51.8084Z" fill="black"/>
<path d="M58.1496 27.3747C57.2636 27.3747 56.514 27.2154 56.105 26.9652L56.8774 24.7811C57.1728 24.9858 57.5816 25.0768 58.0132 25.0768C58.8764 25.0768 59.7624 24.4853 60.2167 23.2113L60.3756 22.7335L56.6957 12.7456L56.1505 11.1986V11.1076H58.7855L58.8083 11.1986L59.2854 12.7456L61.6706 19.8668L64.033 12.7456L64.51 11.1986L64.5327 11.1076H67.2132V11.1986L66.6453 12.7456L62.5337 24.1212C61.7613 26.26 60.3075 27.3747 58.1496 27.3747Z" fill="black"/>
<path d="M68.62 27.1699V11.1076H71.2779V12.6319C71.8911 11.6536 73.3223 10.88 74.8896 10.88C78.0698 10.88 80.3869 13.4737 80.3869 17.0229C80.3869 20.5721 78.0698 23.143 74.8442 23.143C73.3223 23.143 71.8911 22.3694 71.2779 21.3911V27.1699H68.62ZM74.4126 20.8452C76.2981 20.8452 77.6836 19.3208 77.6836 17.0457C77.6836 14.7706 76.2981 13.1779 74.4581 13.1779C72.6862 13.1779 71.4368 14.4975 71.2779 16.2948V17.7965C71.4141 19.5938 72.6862 20.8452 74.4126 20.8452Z" fill="black"/>
<path d="M81.6729 17.0002C81.6729 13.4282 84.0581 10.88 87.42 10.88C92.2585 10.88 93.258 14.7933 92.9627 17.5007H84.2852C84.467 19.6393 85.739 20.8907 87.6017 20.8907C89.0555 20.8907 89.9869 20.2764 90.3731 18.9567L92.9627 19.6621C92.3494 21.7779 90.464 23.143 87.5335 23.143C84.1262 23.143 81.6729 20.5949 81.6729 17.0002ZM84.3987 15.5895H90.2141C90.0778 14.0197 89.0783 12.9049 87.42 12.9049C85.8072 12.9049 84.7395 13.906 84.3987 15.5895Z" fill="black"/>
<path d="M94.8854 22.9155V11.1076H97.5431V12.9049C98.2474 11.6764 99.5648 10.88 100.882 10.88C101.2 10.88 101.405 10.88 101.609 10.9256V13.4737C99.1332 13.0186 97.9747 14.6796 97.5431 16.1356V22.9155H94.8854Z" fill="black"/>
<path d="M105.773 22.9155H103.115V6.28429H105.773V22.9155Z" fill="black"/>
<path d="M110.875 22.9155H108.218V11.1076H110.875V22.9155ZM109.512 9.49222C108.581 9.49222 107.877 8.76419 107.877 7.83139C107.877 6.92133 108.581 6.1933 109.512 6.1933C110.489 6.1933 111.216 6.92133 111.216 7.83139C111.216 8.76419 110.489 9.49222 109.512 9.49222Z" fill="black"/>
<path d="M113.32 22.9155V11.1076H115.978V12.6774C116.705 11.6536 117.931 10.88 119.431 10.88C121.952 10.88 123.86 12.4953 123.86 15.0663V22.9155H121.225V15.7033C121.225 14.1108 120.316 13.1779 118.817 13.1779C117.409 13.1779 116.273 14.3838 115.978 15.9081V22.9155H113.32Z" fill="black"/>
<path d="M125.663 17.0002C125.663 13.4282 128.048 10.88 131.411 10.88C136.248 10.88 137.248 14.7933 136.953 17.5007H128.275C128.456 19.6393 129.729 20.8907 131.592 20.8907C133.046 20.8907 133.977 20.2764 134.363 18.9567L136.953 19.6621C136.339 21.7779 134.453 23.143 131.524 23.143C128.116 23.143 125.663 20.5949 125.663 17.0002ZM128.388 15.5895H134.204C134.068 14.0197 133.069 12.9049 131.411 12.9049C129.797 12.9049 128.73 13.906 128.388 15.5895Z" fill="black"/>
<path d="M17.4719 28.1781L15.2334 30.4174L12.9951 28.1781L15.2334 25.9387L17.4719 28.1781Z" fill="black"/>
<path d="M13.2863 25.7258L10.3618 26.9378L9.15027 24.012L12.0749 22.7999L13.2863 25.7258Z" fill="black"/>
<path d="M21.2805 24.0018L20.0692 26.9276L17.1446 25.7156L18.3559 22.7897L21.2805 24.0018Z" fill="black"/>
<path d="M7.64055 25.9851H4.47485V22.818H7.64055V25.9851Z" fill="black"/>
<path d="M25.9738 25.9411H22.8083V22.7742H25.9738V25.9411Z" fill="black"/>
<path d="M17.472 21.8603L15.2335 24.0996L12.9952 21.8603L15.2335 19.6208L17.472 21.8603Z" fill="black"/>
<path d="M12.1048 21.5176H8.93909V18.3507H12.1048V21.5176Z" fill="black"/>
<path d="M21.5085 21.4738H18.3429V18.3069H21.5085V21.4738Z" fill="black"/>
<path d="M7.62437 18.3644L6.41299 21.2902L3.48834 20.0784L4.69972 17.1525L7.62437 18.3644Z" fill="black"/>
<path d="M26.9263 20.0507L24.0016 21.2626L22.7903 18.3368L25.7149 17.1248L26.9263 20.0507Z" fill="black"/>
<path d="M10.7914 15.2386L8.55311 17.4781L6.3147 15.2386L8.55311 12.9993L10.7914 15.2386Z" fill="black"/>
<path d="M4.47682 15.2386L2.2384 17.478L0 15.2386L2.2384 12.9993L4.47682 15.2386Z" fill="black"/>
<path d="M30.4038 15.178L28.1654 17.4174L25.9272 15.178L28.1654 12.9387L30.4038 15.178Z" fill="black"/>
<path d="M24.089 15.1771L21.8505 17.4165L19.6122 15.1771L21.8505 12.9377L24.089 15.1771Z" fill="black"/>
<path d="M7.61356 12.0797L4.68892 13.2918L3.47754 10.3659L6.40218 9.15384L7.61356 12.0797Z" fill="black"/>
<path d="M26.9156 10.3378L25.7043 13.2637L22.7796 12.0518L23.9911 9.12592L26.9156 10.3378Z" fill="black"/>
<path d="M12.061 12.1096H8.89545V8.94254H12.061V12.1096Z" fill="black"/>
<path d="M21.4647 12.0658H18.2991V8.89888H21.4647V12.0658Z" fill="black"/>
<path d="M17.409 8.5569L15.1706 10.7962L12.9321 8.5569L15.1706 6.31755L17.409 8.5569Z" fill="black"/>
<path d="M7.59553 7.64213H4.42999V4.47525H7.59553V7.64213Z" fill="black"/>
<path d="M13.2592 4.70109L12.0478 7.62697L9.12311 6.41493L10.3345 3.48906L13.2592 4.70109Z" fill="black"/>
<path d="M21.2537 6.40443L18.329 7.61632L17.1177 4.69044L20.0422 3.47855L21.2537 6.40443Z" fill="black"/>
<path d="M25.93 7.59951H22.7645V4.43248H25.93V7.59951Z" fill="black"/>
<path d="M17.4098 2.23935L15.1715 4.47871L12.9331 2.23935L15.1715 0L17.4098 2.23935Z" fill="black"/>
</g>
<defs>
<clipPath id="clip0_333_4506">
<rect width="137" height="30.4174" fill="white"/>
</clipPath>
</defs>
</svg>
