<svg width="144" height="20" viewBox="0 0 144 20" fill="none" xmlns="http://www.w3.org/2000/svg">
<g clip-path="url(#clip0_326_3444)">
<mask id="mask0_326_3444" style="mask-type:luminance" maskUnits="userSpaceOnUse" x="0" y="0" width="144" height="20">
<path d="M144 0H0V20H144V0Z" fill="white"/>
</mask>
<g mask="url(#mask0_326_3444)">
<mask id="mask1_326_3444" style="mask-type:luminance" maskUnits="userSpaceOnUse" x="0" y="0" width="144" height="20">
<path d="M144 0H0V20H144V0Z" fill="white"/>
</mask>
<g mask="url(#mask1_326_3444)">
<path fill-rule="evenodd" clip-rule="evenodd" d="M144 17.7222V19.9868H137V17.7222H144ZM133.237 17.7222V19.9868H102.303C103.118 19.4469 103.671 18.2093 103.868 17.7222H133.237ZM93.5657 17.7222V19.9868H47.5658V17.7222H93.5657ZM43.8158 17.7222V19.9868H0V17.7222H43.8158ZM58.6317 4.48975V5.27974L56.3684 6.60958V4.48975H58.6317ZM2.26316 4.48975V5.38505L0 6.63589V4.48975H2.26316Z" fill="#ECBC42"/>
<path fill-rule="evenodd" clip-rule="evenodd" d="M141.711 7.93942V11.4944C141.711 12.9954 141.289 13.1929 140.868 13.2851C140.382 13.3904 139.75 13.3772 139.447 13.3772C138.158 13.3772 137.342 13.4826 136.158 12.4951L136.184 7.64979C136.71 6.74126 138.342 6.67542 139.329 6.67542C139.5 6.67542 139.961 6.67542 140.408 6.67542C141.487 6.68863 141.711 7.45226 141.711 7.93942ZM120.158 11.2047C120.158 11.5997 120.356 13.2851 118.987 13.2851C118.289 13.2851 117 13.3114 116.697 13.3114C116.302 13.3114 114.697 13.4562 114.697 12.4687V7.45226C114.803 7.25479 115.092 6.74126 115.671 6.74126H119C119.869 6.74126 120.092 6.89926 120.145 7.97895C120.171 8.46611 120.158 10.3094 120.158 11.2047ZM100.921 7.80779V12.1527C100.921 12.8769 99.7498 13.3114 97.7765 13.3114C96.3159 13.3114 95.4472 13.4036 95.4472 12.2449V7.61026C95.4472 6.68863 96.5264 6.71495 97.7106 6.71495C98.9997 6.71495 100.921 6.88611 100.921 7.80779ZM51.2895 6.74126C51.5789 6.74126 52.0395 6.97826 52.1579 7.16263C52.3947 7.54442 52.3421 9.17711 52.3421 9.96711C52.3421 10.2567 52.3421 11.6787 52.329 12.4951C52.329 12.7847 51.8816 13.3246 51.579 13.3246C51.079 13.4299 50.3158 13.3641 50.1184 13.3641C49.1316 13.3641 47.8816 13.3641 46.8947 12.4687L46.8816 7.66295C47.4737 6.97826 48.0526 6.93879 48.75 6.74126H51.2895ZM58.6317 15.5629H56.3683V7.21526C57.0525 6.82026 57.8421 6.31995 58.6317 5.92495V15.5629ZM2.26316 15.5629H0V7.30742L2.26316 5.92495V15.5629ZM126.04 4.48979V12.5872C126.237 13.4826 127.421 13.3246 127.724 13.3246C128.711 13.3246 129.408 13.3246 130.382 12.3371V4.48979H132.645V15.8525C132.053 15.4575 130.671 14.6149 130.671 14.6149C130.671 14.6149 129.921 15.0099 129.618 15.2074C129.118 15.4971 128.184 15.5365 127.592 15.5365C127.395 15.5365 126.54 15.5629 126.25 15.4575C124.566 15.0625 123.763 13.5484 123.763 12.1396V4.48979H126.04ZM119.053 4.48979C121.579 4.48979 122.474 6.29363 122.474 8.58458C122.474 8.90058 122.474 11.4944 122.474 11.7446C122.474 12.7321 122.039 15.5497 119.026 15.5497C118.579 15.5497 116.027 15.5497 115.276 15.5497C114.29 15.5497 112.408 14.1409 112.408 12.3371V7.50495C112.408 6.06979 113.881 4.48979 115.5 4.48979H119.053ZM29.1973 4.48979C30.1579 4.48979 31.5789 5.68795 31.9211 7.05726L31.9737 7.83411H29.8158C29.7763 7.43911 29.2105 6.70179 28.8158 6.70179H25.1316C24.9211 6.70179 24.2368 7.17579 24.2368 7.47858L24.2763 12.5477C24.3684 12.9427 24.671 13.2851 25.0526 13.3377C25.5526 13.4036 26.7105 13.3641 27 13.3641C27.5 13.3641 29.75 13.6669 29.75 12.2054H31.9737V12.8901C31.1842 15.9579 28.5132 15.5892 26.9342 15.5892C26.7368 15.5892 25.171 15.6682 24.4737 15.4707C22.7894 15.0757 22 13.6274 22 12.3371L21.9737 7.64979C21.9737 5.81963 23.7237 4.48979 25.1184 4.48979H27.0131H29.1973ZM136 5.43779C136 5.43779 136.934 4.64779 137.632 4.54246C138.131 4.43713 139.211 4.54246 139.5 4.54246C139.697 4.54246 140.789 4.43713 141.382 4.54246C144.342 5.13496 143.947 8.29495 143.947 9.98026C143.947 12.3371 144.395 14.5622 141.316 15.4839C141.198 15.5234 139.75 15.5102 139.553 15.5102C138.368 15.5102 137.382 15.6155 136.197 14.8255V20.0132H133.934V4.2923L136 5.43779ZM106.592 5.47726C106.592 5.47726 107.342 4.48979 108.592 4.48979H111.132V6.66226H109.04C108.447 6.66226 107.276 6.95195 106.789 7.64979V15.5497H104.526V4.2923L106.592 5.47726ZM103.237 16.7478C103.526 17.8275 101.763 20 100.473 20H94.2498V17.7354H100.079C100.369 17.63 100.671 17.5378 100.763 17.3404C100.96 17.1428 100.869 16.8927 100.96 16.6952V14.8255C99.6712 15.6155 98.8156 15.5497 97.7238 15.5497C97.4342 15.5497 96.1841 15.6287 95.4868 15.4312C94.4999 15.3259 93.158 13.5484 93.158 12.7584V7.22842C93.9212 4.6873 95.5923 4.51613 96.6841 4.51613C96.8814 4.51613 98.9343 4.46346 99.5261 4.56879C100.026 4.67413 101.158 5.46411 101.158 5.46411L103.131 4.27913L103.237 16.7478ZM46.6316 5.47726C46.6316 5.47726 47.5395 4.77946 47.921 4.63463C48.421 4.45029 49.9079 4.48979 50.2105 4.48979H51.8684C52.5526 4.48979 54.5923 5.72747 54.5923 7.33379V12.5609C54.0923 15.3127 52.3421 15.5629 50.2368 15.5629C48.3684 15.5629 47.8158 15.5102 46.7894 14.7597L46.7763 20.0132L44.6052 20L44.6184 4.2923L46.6316 5.47726ZM64.8026 4.48979H68.1051V6.66226H64.7367L64.8422 12.5477C64.9208 12.9427 65.5659 13.3509 65.8555 13.3509L68.092 13.3377V15.5629H65.2763C64.0921 15.5629 62.5656 13.8117 62.5656 12.7057L62.5524 6.67542H60.1841L64.7763 2.08032L64.8026 4.48979ZM82.9999 12.1527C82.9999 13.5221 84.1841 13.3377 85.171 13.3377V15.5629H83.4472C82.4603 15.5629 80.737 14.0224 80.737 12.6004V0.592495C81.4212 0.394997 82.3158 0.197498 82.9999 0V12.1527ZM41.0526 5.29295V4.48979H43.3158V15.7867C42.7237 15.4971 41.2763 14.5885 41.2763 14.5885C41.2763 14.5885 40.2237 15.3785 39.6316 15.4707C39.0395 15.5629 37.9079 15.5761 37.7105 15.5761C37.4211 15.5761 36.2632 15.5497 35.7632 15.4971C34.5132 15.3522 33.2368 13.6801 33.2368 12.6926L33.25 7.34695C33.9342 4.2923 36.1842 4.50296 37.8684 4.50296C38.9737 4.48979 40.0921 4.39763 41.0526 5.29295ZM41.0526 7.58395V12.3897C40.0526 13.4167 38.7895 13.3377 37.8026 13.3377C37.5132 13.3377 35.5658 13.5616 35.5658 12.5346V7.58395C35.5658 6.68863 36.671 6.71495 37.8158 6.71495C38.8158 6.71495 39.9342 6.62279 41.0526 7.58395ZM11.8421 5.29295V4.48979H14.1052L14.1184 15.7867C13.5263 15.4971 12.079 14.5885 12.079 14.5885C12.079 14.5885 11.0263 15.3785 10.4342 15.4707C9.84211 15.5629 8.71052 15.5761 8.51314 15.5761C8.22367 15.5761 7.06581 15.5497 6.56577 15.4971C5.31582 15.3522 4.03947 13.6801 4.03947 12.6926L4.05263 7.34695C4.73684 4.2923 6.98685 4.50296 8.67107 4.50296C9.76315 4.48979 10.8816 4.39763 11.8421 5.29295ZM11.8421 7.58395V12.3897C10.8421 13.4167 9.57895 13.3377 8.5921 13.3377C8.30263 13.3377 6.35525 13.5616 6.35525 12.5346V7.58395C6.35525 6.68863 7.46052 6.71495 8.60524 6.71495C9.60527 6.71495 10.7105 6.62279 11.8421 7.58395ZM77.184 5.29295V4.48979H79.4474V15.7867C78.855 15.4971 77.4076 14.5885 77.4076 14.5885C77.4076 14.5885 76.3553 15.3785 75.763 15.4707C75.1712 15.5629 74.0397 15.5761 73.8419 15.5761C73.5529 15.5761 72.3945 15.5497 71.8945 15.4971C70.6449 15.3522 69.3684 13.6801 69.3684 12.6926L69.3816 7.34695C70.0658 4.2923 72.316 4.50296 74.0002 4.50296C75.092 4.48979 76.2103 4.39763 77.184 5.29295ZM77.184 7.58395V12.3897C76.1844 13.4167 74.9211 13.3377 73.9342 13.3377C73.6447 13.3377 71.6972 13.5616 71.6972 12.5346V7.58395C71.6972 6.68863 72.8028 6.71495 73.9474 6.71495C74.9475 6.71495 76.0526 6.62279 77.184 7.58395Z" fill="#216D9F"/>
</g>
</g>
</g>
<defs>
<clipPath id="clip0_326_3444">
<rect width="144" height="20" fill="white"/>
</clipPath>
</defs>
</svg>
