<svg width="133" height="25" viewBox="0 0 133 25" fill="none" xmlns="http://www.w3.org/2000/svg">
<g clip-path="url(#clip0_338_487)">
<path d="M0 0H7.714V24.8598H0V0ZM45.9293 24.8598H72.5293V18.9112H53.3773V13.8505H45.9293V24.8598ZM30.2353 18.4673H18.2653V14.2056H10.8173V24.8598H31.5653C39.0133 24.8598 43.4467 21.3972 43.4467 15.271V14.2056H35.9987C35.8213 17.5794 33.4273 18.4673 30.2353 18.4673ZM18.2653 6.21495H30.324C33.4273 6.21495 35.8213 7.1028 35.9987 10.4766H43.4467V9.58879C43.4467 3.46262 39.0133 0 31.5653 0H10.7287V10.3878H18.1767V6.21495H18.2653ZM72.5293 5.77103V0H45.9293V10.3878H53.3773V5.77103H72.5293Z" fill="white"/>
<path d="M55.9487 10.1215H72.1747V14.5607H55.9487V10.1215Z" fill="white"/>
<path d="M123.247 14.2056H109.947L102.676 22.3738L95.3166 14.2056H82.1053L72.5293 24.8598H82.2826L88.6666 17.1355L95.0506 24.8598H110.213L116.597 17.1355L122.981 24.8598H133L123.247 14.2056ZM102.676 2.48598L109.769 10.3878H123.424L132.734 0H122.981L116.597 7.7243L110.213 0H95.1393L88.6666 7.7243L82.2826 0H72.5293L81.8393 10.3878H95.5826L102.676 2.48598Z" fill="white"/>
</g>
<defs>
<clipPath id="clip0_338_487">
<rect width="133" height="24.8777" fill="white"/>
</clipPath>
</defs>
</svg>
