<svg width="107" height="20" viewBox="0 0 107 20" fill="none" xmlns="http://www.w3.org/2000/svg">
<g clip-path="url(#clip0_326_3307)">
<path d="M0 0H6.206V20H0V0ZM36.9507 20H58.3507V15.2143H42.9427V11.1429H36.9507V20ZM24.3247 14.8571H14.6947V11.4286H8.70267V20H25.3947C31.3867 20 34.9533 17.2143 34.9533 12.2857V11.4286H28.9613C28.8187 14.1429 26.8927 14.8571 24.3247 14.8571ZM14.6947 5H24.396C26.8927 5 28.8187 5.71429 28.9613 8.42857H34.9533V7.71429C34.9533 2.78571 31.3867 0 25.3947 0H8.63133V8.35714H14.6233V5H14.6947ZM58.3507 4.64286V0H36.9507V8.35714H42.9427V4.64286H58.3507Z" fill="#161616"/>
<path d="M45.0113 8.14286H58.0653V11.7143H45.0113V8.14286Z" fill="#161616"/>
<path d="M99.1533 11.4286H88.4533L82.604 18L76.6833 11.4286H66.0547L58.3507 20H66.1973L71.3333 13.7857L76.4693 20H88.6673L93.8033 13.7857L98.9393 20H107L99.1533 11.4286ZM82.604 2L88.3107 8.35714H99.296L106.786 0H98.9393L93.8033 6.21429L88.6673 0H76.5407L71.3333 6.21429L66.1973 0H58.3507L65.8407 8.35714H76.8973L82.604 2Z" fill="#161616"/>
</g>
<defs>
<clipPath id="clip0_326_3307">
<rect width="107" height="20" fill="white"/>
</clipPath>
</defs>
</svg>
