<svg width="125" height="40" viewBox="0 0 125 40" fill="none" xmlns="http://www.w3.org/2000/svg">
<g clip-path="url(#clip0_359_1776)">
<path d="M66.8535 24.2431L66.844 17.4892L63.834 21.9549L60.8473 17.4995L60.8404 24.2414L59.1852 24.2431L59.1835 14.7564H60.9864L63.8651 19.2247L66.7387 14.7589L68.5303 14.7555V24.2388L66.8535 24.2431Z" fill="#464B55"/>
<path d="M78.6025 24.2422L78.593 17.4944L75.5822 21.9567L72.5955 17.4969L72.5903 24.2396L70.9333 24.2405V14.7607L72.738 14.7598L75.6115 19.2273L78.4894 14.7564L80.2767 14.7555L80.2776 24.2414L78.6025 24.2422Z" fill="#464B55"/>
<path d="M101.246 24.2319L99.8305 24.2362L94.6161 17.5108L94.6144 24.2414L92.9565 24.2388V14.7564L94.5254 14.7546L99.5827 21.2763L99.5887 14.7555H101.245L101.246 24.2319Z" fill="#464B55"/>
<path d="M57.1821 19.0727C57.4186 21.9929 55.1771 24.3795 52.2949 24.4279C49.6407 24.4728 47.457 22.5473 47.2593 19.8956C47.0391 16.9443 49.3471 14.537 52.301 14.569C54.862 14.5966 56.9714 16.472 57.1821 19.0719V19.0727ZM54.5874 21.8384C55.7082 20.5561 55.7021 18.4502 54.5865 17.1809C53.344 15.7674 51.0965 15.7415 49.8583 17.1602C48.7349 18.4485 48.741 20.557 49.8583 21.8176C51.1206 23.2415 53.3596 23.2432 54.5874 21.8375V21.8384Z" fill="#464B55"/>
<path d="M90.7004 14.7546L90.696 20.4405C90.5579 22.9324 89.1686 24.3752 86.6491 24.3942C84.1295 24.4132 82.691 23.0023 82.5606 20.5225L82.5546 14.7555H84.2538L84.2599 20.5967C84.4041 22.0517 85.2183 22.878 86.6896 22.8642C88.0712 22.8512 88.8811 22.0171 88.9994 20.6468L89.002 14.7607L90.7012 14.7546H90.7004Z" fill="#464B55"/>
<path d="M39.4209 21.215C39.9268 22.2071 40.8887 22.8374 41.9706 22.8771C42.5215 22.897 43.0206 22.8356 43.511 22.6137C44.0058 22.3642 44.4323 22.0413 44.8546 21.6588L45.9296 22.7398C44.9297 23.877 43.5309 24.4788 42.0198 24.4071C39.9268 24.427 38.0937 23.0601 37.4781 21.0647C37.1673 20.0571 37.1647 18.9959 37.4677 17.9874C38.086 15.9358 39.9657 14.5698 42.1036 14.5811C42.9809 14.5854 43.8098 14.7132 44.5903 15.1181C45.0661 15.3582 45.4702 15.6794 45.8708 16.0455L44.7941 17.2914C44.3952 16.9288 43.9877 16.6309 43.5128 16.4021C43.0258 16.1655 42.525 16.1016 41.9689 16.118C40.7843 16.1681 39.7516 16.9279 39.2965 18.0357C38.8795 19.0511 38.9132 20.2151 39.4226 21.2141L39.4209 21.215Z" fill="#464B55"/>
<path d="M125 14.7667L121.241 20.4638L121.241 24.2405L119.54 24.2422L119.542 20.5044L115.778 14.7607L117.759 14.7555L120.406 18.9406L123.081 14.7546L125 14.7667Z" fill="#464B55"/>
<path d="M112.02 24.2345L110.319 24.2405L110.32 16.3114H107.319V14.7555H115.024L115.025 16.3106L112.018 16.3123L112.02 24.2345Z" fill="#464B55"/>
<path d="M105.452 24.2327L103.772 24.2405V14.7555H105.452V24.2327Z" fill="#464B55"/>
<path d="M1.53608 0.0388235C1.56112 0.00514895 1.66128 0.0103297 1.69841 0.0414139C1.97472 0.0465946 2.21735 0.16316 2.47724 0.313401L33.4604 18.1937C33.9431 18.4726 34.2539 18.9182 34.2755 19.4613C34.2954 19.9629 34.0769 20.5285 33.602 20.8022L2.35895 38.8371C2.18367 38.9381 2.03343 38.9891 1.8616 39.0193C1.81239 39.0357 1.75799 39.0495 1.69841 39.0625H1.49118L1.36857 39.0236C0.613919 38.8906 0.0526757 38.2448 0.0828965 37.4409V25.7584H1.70964L1.70446 37.3416L32.5599 19.5424L1.70532 1.74155L1.70964 13.3282H0.0846234L0.08376 1.66384C0.0371336 0.779664 0.693356 0.0975382 1.53608 0.0388235Z" fill="#64BFA2"/>
<path d="M0.086345 14.588L0.132971 14.6657L0.131244 16.0973L0.0483532 16.1586L0 16.1551V14.5811L0.086345 14.588Z" fill="#D42B2D"/>
<path d="M1.69935 0L1.69849 0.0414456L1.53616 0.0388553L1.53357 0H1.69935Z" fill="#E74641"/>
<path d="M23.3512 22.2874C22.4324 23.6629 20.8972 24.4244 19.2722 24.4374C16.4962 24.4598 14.3868 22.4506 14.2841 19.7325C14.1779 16.9211 16.3935 14.6467 19.1988 14.6467C20.3982 14.6467 21.5655 14.9973 22.4868 15.7986L23.0291 16.3356C24.4313 18.0081 24.5781 20.45 23.3512 22.2874ZM19.4337 22.8884C20.5268 22.8253 21.4533 22.2442 21.9757 21.3013C22.4972 20.3593 22.5585 19.2325 22.1734 18.2309C21.67 16.9193 20.4197 16.112 19.0166 16.1958C17.8562 16.2648 16.8606 16.9357 16.3762 17.9935C15.9462 18.932 15.9229 20.0044 16.3278 20.956C16.8563 22.1985 18.0651 22.9687 19.432 22.8892L19.4337 22.8884Z" fill="#64BFA2"/>
<path d="M10.9209 22.2209L10.9321 20.4551L8.52914 20.4534L8.52569 18.9829L12.5649 18.9803L12.5675 22.947C11.1091 24.2189 9.16896 24.7119 7.28318 24.2854C5.53729 23.8476 4.26888 22.5896 3.85183 20.8368C3.61438 19.8395 3.64892 18.8284 3.98653 17.863C4.68852 15.8555 6.6166 14.5577 8.74414 14.6562C10.0436 14.6501 11.262 15.0775 12.2213 15.9436L11.1583 17.212C10.4719 16.5817 9.66026 16.2277 8.74501 16.1983C6.66409 16.0653 5.27134 17.952 5.48289 19.9612C5.66508 21.689 6.87132 22.8892 8.61981 22.9177C9.4444 22.9263 10.2163 22.7165 10.9218 22.2209H10.9209Z" fill="#64BFA2"/>
<path d="M1.64837 24.4262L0.114877 24.4314L0.114014 17.2466L1.64837 17.2405V24.4262Z" fill="#464B55"/>
<path d="M0.0482984 16.1586L0.0405273 14.7045C0.0405273 14.6527 0.0655674 14.6104 0.0854268 14.5871L1.68972 14.5897L1.68454 16.1646L0.0482984 16.1577V16.1586Z" fill="#464B55"/>
</g>
<defs>
<clipPath id="clip0_359_1776">
<rect width="125" height="39.0625" fill="white"/>
</clipPath>
</defs>
</svg>
