<svg width="132" height="28" viewBox="0 0 132 28" fill="none" xmlns="http://www.w3.org/2000/svg">
<g clip-path="url(#clip0_365_3061)">
<path d="M111.117 21.2957C113.187 21.6414 114.997 21.4126 116.95 20.9574C117.082 21.9101 117.074 22.6264 116.905 23.5342C112.244 24.8127 106.891 24.2381 105.593 19.5024C105.031 17.4504 105.106 15.2741 105.576 13.2445C106.289 10.1703 108.901 8.64564 111.963 8.76751C114.709 8.87695 116.992 10.2101 117.646 12.9685C118.014 14.5255 118.114 16.1695 117.955 17.7837L108.389 17.8086C108.16 19.4651 109.326 20.9948 111.12 21.2957H111.117ZM114.87 15.0876C115.142 14.13 114.836 13.2047 114.313 12.4486C113.448 11.1926 110.321 10.9936 109.088 12.4014C108.473 13.1028 108.187 14.0902 108.205 15.1348L114.87 15.0851V15.0876Z" fill="white"/>
<path d="M49.2671 11.874L42.8028 11.8019L42.7506 23.6063C41.8452 23.9197 40.8329 23.8898 39.7957 23.6312L39.8131 9.09827L52.2244 9.11568L52.2468 23.6511C51.3166 23.8898 50.4361 23.8476 49.3094 23.7083L49.2721 11.8765L49.2671 11.874Z" fill="white"/>
<path d="M76.0595 24.1212C73.2614 24.146 70.7816 22.9447 69.645 20.4326C68.6998 18.3408 68.6327 15.9904 69.1625 13.7817C69.9335 10.5583 72.6993 8.73266 75.97 8.76251C78.8726 8.78987 81.3922 10.1678 82.4119 12.9386C83.183 15.0328 83.2253 17.341 82.5811 19.4924C81.7081 22.4124 79.1785 24.0913 76.0595 24.1212ZM79.8252 18.8308C80.3724 15.8909 80.1635 12.1949 77.7185 11.6427C75.2736 11.0906 72.7515 11.491 72.2193 13.4161C71.6422 15.5104 71.498 18.0424 72.5028 20.0471C73.1943 21.4225 75.0099 21.4474 76.3307 21.4449C78.0493 21.4449 79.482 20.6664 79.8227 18.8308H79.8252Z" fill="white"/>
<path d="M131.796 20.843C130.485 24.9669 123.989 24.9171 120.183 22.2832C120.036 21.2186 120.039 20.3332 120.178 19.2686C123.27 21.6589 128.65 22.41 128.971 19.9427C129.077 19.1244 128.612 18.4429 127.732 18.1917L123.15 16.8834C121.302 16.3561 120.153 15.0428 120.079 13.2644C120.007 11.5507 120.919 9.91911 122.7 9.26497C125.362 8.28749 128.316 8.80981 130.724 10.2872L130.771 12.956C128.018 11.5557 123.436 10.5583 123.088 12.5556C122.961 13.2868 123.315 13.9808 124.063 14.222L127.446 15.304C128.739 15.7169 130.115 16.1198 131.055 17.1197C131.995 18.1195 132.206 19.5422 131.794 20.843H131.796Z" fill="white"/>
<path d="M104.215 9.21519L99.5913 23.7605L94.8133 23.6909L90.2194 9.22265L93.2265 9.12565L97.1837 21.2285L101.218 9.14057C102.138 9.08088 102.86 8.97144 104.215 9.21768V9.21519Z" fill="white"/>
<path d="M68.1576 9.2102L63.5239 23.7431L58.7559 23.6983L54.157 9.22015L57.164 9.15051L61.1411 21.2385L65.163 9.1331C66.133 9.08087 66.8966 8.9764 68.1576 9.2102Z" fill="white"/>
<path d="M88.073 6.87225H85.0933V23.8203H88.073V6.87225Z" fill="white"/>
<path d="M37.4353 23.6013C36.4379 23.9172 35.5425 23.86 34.4829 23.6734L34.4655 11.9212C35.4405 11.6626 36.3533 11.7148 37.3855 11.8765L37.4353 23.6013Z" fill="white"/>
<path d="M37.3781 9.79974C36.4081 9.92162 35.5824 9.90421 34.6024 9.82462C34.3487 8.89439 34.386 8.02386 34.5377 7.03643C35.5326 6.88222 36.433 6.84242 37.3682 7.0812C37.4727 8.0164 37.4652 8.72775 37.3781 9.79974Z" fill="white"/>
<path d="M0 22.196V21.5443L21.7981 0.0222778C22.8179 0.392876 23.5292 1.0893 23.86 2.08668L2.39023 23.3874C1.55701 24.2131 1.05956 23.0093 0 22.196Z" fill="white"/>
<path d="M0 14.3091V13.655L8.35959 5.43219C8.77994 5.01931 10.4091 6.61612 10.414 7.12849C10.419 7.44188 10.2176 7.74035 9.9365 8.01394L1.8505 15.8836L0 14.3091Z" fill="white"/>
<path d="M5.87483 27.7053H5.35997L3.86017 25.7404L10.4364 19.1915C11.4935 19.4079 12.3267 20.2212 12.5307 21.2957L5.87732 27.7053H5.87483Z" fill="white"/>
<path d="M14.1175 27.7053H13.2967C12.7247 26.7154 11.4686 26.0513 12.1004 25.4295L17.6046 20.0347C18.5946 20.4426 19.4278 21.2136 19.587 22.1563L14.115 27.7053H14.1175Z" fill="white"/>
<path d="M25.9791 3.75824L28.0833 5.84752L14.692 19.1443L12.5878 17.055L25.9791 3.75824Z" fill="white"/>
<path d="M21.935 19.8481C20.9028 19.5099 20.2586 18.7811 19.8432 17.8509L25.7952 11.879C26.7602 12.2969 27.4417 12.9809 27.862 13.9235L21.935 19.8481Z" fill="white"/>
<path d="M12.8217 4.8899C12.0507 5.11873 11.021 3.79054 10.8046 3.06676L13.9061 0C14.8065 0.460138 15.5278 1.11677 15.9059 2.05197C14.8687 2.9623 14.1499 4.15368 12.8217 4.8899Z" fill="white"/>
</g>
<defs>
<clipPath id="clip0_365_3061">
<rect width="132" height="27.7053" fill="white"/>
</clipPath>
</defs>
</svg>
