<svg width="124" height="30" viewBox="0 0 124 30" fill="none" xmlns="http://www.w3.org/2000/svg">
<g clip-path="url(#clip0_382_242)">
<path d="M124 5.81577C124 6.98232 123.051 7.92749 121.88 7.92749C120.709 7.92749 119.76 6.98232 119.76 5.81577C119.76 4.64921 120.709 3.70404 121.88 3.70404C123.051 3.70404 124 4.64921 124 5.81577ZM121.164 4.41079C120.185 4.97704 120.13 6.05844 120.611 6.74816C121.003 7.30589 122.003 7.506 122.608 7.1952C123.395 6.78648 123.617 5.79874 123.251 5.0707C122.927 4.42782 121.871 4.00207 121.16 4.41504L121.164 4.41079Z" fill="black"/>
<path d="M122.429 6.92686L121.769 6.16051L121.194 7.07587L121.169 4.67889L122.489 4.76404C122.735 4.78107 122.68 5.49208 122.638 5.7305L122.429 6.92686Z" fill="black"/>
<path d="M117.52 5.40272H39.8418V4.01051H118.899L118.895 29.3895H0.00851502L0 4.03606L6.34795 3.99774L6.35646 5.38569L1.39221 5.42401L1.40072 27.976H117.507L117.52 5.40272Z" fill="black"/>
<path d="M93.3587 24.7702L85.4312 17.1663L85.4185 24.3018L83.5622 24.2976L83.609 12.7853L91.528 20.5041L91.5493 13.2919L93.3885 13.2621L93.3587 24.7702Z" fill="black"/>
<path d="M66.5449 18.2561C66.8982 21.4408 64.7184 24.2081 61.5423 24.255L57.3486 24.3188V13.2621L61.3209 13.3047C64.1394 13.3345 66.2255 15.4036 66.5406 18.2561H66.5449ZM63.0367 21.9559C64.4076 21.147 64.7269 19.8101 64.663 18.4733C64.6077 17.3152 64.05 16.0167 62.7344 15.4079C61.7679 14.9608 60.4694 14.9736 59.2049 15.0417V22.4753C60.4226 22.6073 61.9255 22.6116 63.0367 21.9559Z" fill="black"/>
<path d="M22.8842 24.7105L14.9737 17.1662L14.978 24.2464L13.1047 24.3018L13.126 12.7596L21.0747 20.5253L21.0832 13.2791L22.9523 13.2876L22.8842 24.7105Z" fill="black"/>
<path d="M43.3159 24.3486L40.9231 20.5893L39.1392 20.5041V24.3103H37.2872V13.2706C38.6539 13.2451 40.0759 13.2238 41.4511 13.3472C43.4308 13.526 44.6868 15.2078 44.5463 17.0811C44.4484 18.3711 43.814 19.4142 42.8007 20.0996L45.4191 24.2422L43.3201 24.3401L43.3159 24.3486ZM41.6469 18.5329C42.2387 18.4094 42.6858 17.2599 42.656 16.7532C42.6262 16.2466 42.0514 15.1865 41.5192 15.1482L39.1435 14.9821L39.135 18.7585C39.9311 18.7458 40.6209 18.7458 41.6469 18.5329Z" fill="black"/>
<path d="M32.868 20.4998L30.7648 20.4871L30.7988 18.7074L34.6902 18.7159L34.6987 23.3226C32.8126 24.5189 30.5945 24.7701 28.5296 23.9995C26.2475 23.1437 25.0384 21.0022 25.1832 18.5925C25.3066 16.5702 26.239 14.6968 28.1123 13.7815C29.9856 12.8661 32.2038 12.9555 34.2133 13.9092L33.6513 15.6378C31.9526 14.8969 30.0921 14.5989 28.5338 15.7272C26.6988 17.0555 26.5583 20.006 28.189 21.5514C29.4577 22.7563 31.2757 22.8202 32.8211 22.271L32.8722 20.5041L32.868 20.4998Z" fill="black"/>
<path d="M80.403 19.6441L75.4984 19.6356L75.4856 22.5222L81.212 22.535L81.1949 24.3103L73.6123 24.3061V13.2536L80.9821 13.2493V15.0375L75.4984 15.0205L75.4728 17.873L80.3988 17.8772L80.403 19.6441Z" fill="black"/>
<path d="M54.2151 19.6356L49.2551 19.6441L49.2424 22.5222L54.9942 22.5435L54.99 24.3104H47.4201L47.4116 13.2579L54.7771 13.2536L54.7856 15.0332L49.2466 15.0247L49.2551 17.873L54.1427 17.8815L54.2151 19.6356Z" fill="black"/>
<path d="M109.358 24.238C107.498 24.702 105.842 24.2805 104.245 23.28L105.084 21.8282C107.021 23.1651 109.35 23.0799 109.776 21.6324C109.895 21.2279 109.52 20.2572 109.129 20.0784L106.68 18.9714C105.378 18.3839 104.684 17.3365 104.807 15.9699C104.914 14.7778 105.74 13.6878 107.115 13.3472C108.656 12.9683 110.189 13.3004 111.645 14.1093L111.023 15.5526C109.133 14.6756 107.132 14.4712 106.727 15.7613C106.608 16.1444 106.97 17.0768 107.374 17.2514L109.478 18.154C110.887 18.7585 111.738 19.742 111.721 21.2194C111.704 22.5052 110.908 23.8463 109.363 24.2294L109.358 24.238Z" fill="black"/>
<path d="M29.7345 9.524C27.6313 10.1669 25.5025 9.63895 23.94 8.29358L24.7872 6.85454C26.5158 8.68527 29.7302 8.60437 29.8665 7.17385C29.8963 6.86305 29.4577 6.25423 29.1427 6.1563L25.6643 5.06212C24.7319 4.76836 24.2976 3.55497 24.3658 2.73327C24.4466 1.80939 25.0129 0.804614 25.9708 0.408665C27.7888 -0.344914 29.5599 -0.0468884 31.2289 1.19205L30.3986 2.62683C29.3939 1.69018 28.3508 1.38364 26.9415 1.66463C26.5882 1.73701 26.0602 2.36712 26.056 2.71624C26.0517 3.06535 26.5626 3.69546 26.9032 3.78487L29.5386 4.47459C30.7094 4.78113 31.5184 5.68798 31.5865 6.76513C31.6589 7.91891 31.0798 9.11102 29.7345 9.524Z" fill="black"/>
<path d="M20.9171 0.1064L22.5903 0.0936279L22.5179 5.70928C22.4881 8.14032 20.6915 9.76244 18.4903 9.79224C16.2892 9.82204 14.3733 8.28082 14.3393 5.81572L14.2584 0.102143H15.9273L15.9912 5.68374C16.0082 7.11852 17.013 8.12329 18.2562 8.21696C19.5845 8.31488 20.8107 7.30585 20.832 5.78166L20.9171 0.114915V0.1064Z" fill="black"/>
<path d="M100.158 24.2337L98.2974 24.3104L98.3017 15.0375H95.5343L95.5513 13.2536L102.976 13.2579L102.985 15.029L100.137 15.0332L100.158 24.2337Z" fill="black"/>
<path d="M37.1638 9.60912L35.4949 9.64318L35.4991 1.63054L32.3613 1.6348L32.3826 0.0850681L40.276 0.0808105L40.2973 1.6348L37.1595 1.62203L37.1638 9.60912Z" fill="black"/>
<path d="M6.59067 9.27284L6.98236 7.71884C7.94881 8.3447 9.18775 8.49371 9.89875 7.94024C10.2479 7.66775 10.4991 6.68853 10.4991 6.23723L10.5289 0.106415L12.2063 0.0979004L12.1467 6.61615C12.1382 7.65498 11.5847 8.94501 10.7034 9.41333C9.40063 10.0988 8.11911 9.96681 6.58215 9.27709L6.59067 9.27284Z" fill="black"/>
<path d="M10.1797 13.2493H8.3064V24.3146H10.1797V13.2493Z" fill="black"/>
<path d="M70.7002 13.2536H68.8312V24.3104H70.7002V13.2536Z" fill="black"/>
</g>
<defs>
<clipPath id="clip0_382_242">
<rect width="124" height="29.3896" fill="white"/>
</clipPath>
</defs>
</svg>
