<svg width="119" height="39" viewBox="0 0 119 39" fill="none" xmlns="http://www.w3.org/2000/svg">
<g clip-path="url(#clip0_360_1935)">
<path d="M0.218384 0.273804V28.6411H28.5034V0.273804H0.218384ZM15.0562 7.42395L17.4306 3.44263L19.948 7.42395C20.3188 7.92879 20.5419 8.55197 20.5419 9.22698C20.5419 10.9049 19.1806 12.2651 17.5016 12.2651C15.8225 12.2651 14.4635 10.9049 14.4635 9.22698C14.4635 8.55197 14.6832 7.92879 15.0562 7.42395ZM14.291 12.9187H20.5126V18.7177H14.291V12.9187ZM22.9174 25.7889H5.80102V3.30064H12.0271V19.5662H22.9174V25.7878V25.7889Z" fill="#32487A"/>
<path d="M35.6545 10.861C35.6545 11.9778 35.8743 12.3069 37.87 12.3069C39.682 12.3069 40.5971 11.9586 41.0005 9.61583H41.5865L41.2022 12.9661H32.2874V12.3981C33.7884 12.2888 33.8256 12.2516 33.8256 11.2994V2.67867C33.8256 1.72645 33.7895 1.69039 32.2874 1.59911V1.01312H37.3032V1.59911C35.7109 1.69039 35.6556 1.72757 35.6556 2.67867V10.861H35.6545Z" fill="#32487A"/>
<path d="M44.5886 8.48215C44.5525 10.2762 44.9909 12.2719 47.1151 12.2719C48.4516 12.2719 49.0736 11.4662 49.5683 10.4779L50.1171 10.7528C49.6416 12.1254 48.6522 13.1869 46.7308 13.1869C43.8381 13.1869 42.7405 11.5214 42.7405 8.81233C42.7405 6.10328 44.0218 4.30927 46.7128 4.30927C49.8794 4.30927 50.2276 6.76251 50.2276 7.78686C50.2276 8.35481 49.8985 8.48215 49.5131 8.48215H44.5886ZM47.7912 7.78573C48.2668 7.78573 48.3772 7.56599 48.3772 7.23694C48.3772 6.55967 48.1946 4.94821 46.6204 4.94821C44.8816 4.94821 44.6066 7.05325 44.6066 7.78573H47.7912Z" fill="#32487A"/>
<path d="M58.3729 10.6965C58.3729 11.776 58.6478 12.069 58.9588 12.1423C59.1234 12.1975 59.3983 12.1975 59.6361 12.1423L59.7093 12.6911C59.2879 12.966 58.5374 13.1858 57.8793 13.1858C57.2753 13.1858 56.9642 12.8567 56.7445 12.1603C56.1957 12.5265 55.2615 13.1858 54.2 13.1858C52.5524 13.1858 51.6926 12.033 51.6926 10.7517C51.6926 9.92793 52.0769 9.03092 53.303 8.64665C54.6575 8.22519 56.323 7.78683 56.7625 7.32818V6.7422C56.7625 5.38767 56.0672 4.96621 55.2435 4.96621C54.5482 4.96621 53.9442 5.33245 53.5599 6.61373C53.4686 6.90672 53.3401 7.10844 52.9739 7.10844C52.6077 7.10844 52.0037 6.85263 52.0037 6.28468C52.0037 5.33245 53.4134 4.30811 55.39 4.30811C58.0077 4.30811 58.374 5.66263 58.374 6.67007V10.6976L58.3729 10.6965ZM56.7614 8.07869C56.3771 8.31647 55.4801 8.64665 54.8029 8.90245C53.8698 9.26869 53.5035 9.69015 53.5035 10.4948C53.5035 11.5011 54.0343 12.2336 55.0778 12.2336C55.7371 12.2336 56.7614 11.8853 56.7614 10.5308V8.07757V8.07869Z" fill="#32487A"/>
<path d="M66.537 1.08636L65.8045 0.995083V0.500377L68.642 0.0789185L68.7513 0.170197V11.3918C68.7513 12.2516 68.8246 12.2888 70.0326 12.3621V12.9661H67.0678V12.033C66.1347 12.7835 65.2557 13.1858 64.3407 13.1858C62.0159 13.1858 60.8079 11.4651 60.8079 8.92053C60.8079 7.41951 61.2654 6.26669 62.0159 5.49702C62.7484 4.76454 63.7919 4.30702 65.2005 4.30702C65.969 4.30702 66.5922 4.47155 67.0678 4.70933V1.87181C67.0678 1.21257 66.9765 1.1213 66.537 1.08411V1.08636ZM67.0678 7.0172C67.0678 6.55969 67.0497 6.30275 66.9213 6.01089C66.6102 5.33362 65.951 4.94935 65.1644 4.94935C63.4437 4.94935 62.6571 6.48756 62.6571 8.70191C62.6571 10.6976 63.4628 12.2167 65.0191 12.2167C65.898 12.2167 66.6114 11.8685 66.9415 11.0087C67.07 10.7157 67.07 10.4599 67.07 10.0756V7.01833L67.0678 7.0172Z" fill="#32487A"/>
<path d="M73.055 8.48215C73.019 10.2762 73.4573 12.2719 75.5815 12.2719C76.918 12.2719 77.54 11.4662 78.0348 10.4779L78.5836 10.7528C78.108 12.1254 77.1186 13.1869 75.1972 13.1869C72.3045 13.1869 71.2069 11.5214 71.2069 8.81233C71.2069 6.10328 72.4882 4.30927 75.1792 4.30927C78.3458 4.30927 78.694 6.76251 78.694 7.78686C78.694 8.35481 78.3649 8.48215 77.9795 8.48215H73.055ZM76.2576 7.78573C76.7332 7.78573 76.8436 7.56599 76.8436 7.23694C76.8436 6.55967 76.6611 4.94821 75.0868 4.94821C73.348 4.94821 73.073 7.05325 73.073 7.78573H76.2576Z" fill="#32487A"/>
<path d="M82.7756 11.4109C82.7756 12.2707 82.8668 12.3079 84.3859 12.3992V12.9672H79.8096V12.3992C80.9996 12.3079 81.0908 12.2707 81.0908 11.4109V6.13931C81.0908 5.51726 80.9815 5.40683 80.5601 5.35161L79.9008 5.26033V4.76562L82.5738 4.32614L82.7756 5.73588C83.8923 4.72956 84.405 4.30811 85.0451 4.30811C85.7224 4.30811 85.9602 4.76562 85.9602 5.16793C85.9602 5.71672 85.5759 6.22946 85.1544 6.22946C85.0451 6.22946 84.9167 6.22946 84.7702 6.13818C84.3487 5.80913 84.0557 5.69869 83.7819 5.69869C83.3796 5.69869 82.7756 6.17424 82.7756 7.45552V11.4098V11.4109Z" fill="#32487A"/>
<path d="M91.8742 6.96197C91.7458 5.90043 91.197 4.94821 89.989 4.94821C89.1472 4.94821 88.4879 5.42376 88.4879 6.30274C88.4879 7.18171 89.5867 7.65726 90.318 7.89504C92.1481 8.53624 92.991 9.06701 92.991 10.5861C92.991 12.1051 91.819 13.1858 89.7692 13.1858C88.7437 13.1858 87.7194 12.948 87.0602 12.3801L86.8956 10.1105H87.4444C87.7926 11.5755 88.4879 12.5446 89.8785 12.5446C90.7383 12.5446 91.4528 12.0319 91.4528 11.172C91.4528 10.257 90.611 9.83555 89.5495 9.43325C88.0665 8.92051 87.0421 8.38974 87.0421 6.8335C87.0421 5.27726 88.3054 4.30701 90.1726 4.30701C90.9603 4.30701 91.8382 4.48956 92.4242 4.83777V6.96084H91.8754L91.8742 6.96197Z" fill="#32487A"/>
<path d="M95.2244 1.8729C95.2244 1.25086 95.1331 1.15845 94.6936 1.0852L94.0344 0.993924V0.499217L96.7806 0.0777588L96.8899 0.169037V5.6063C97.9695 4.89185 98.7572 4.30699 100.002 4.30699C101.613 4.30699 102.547 5.31331 102.547 7.05323V11.4098C102.547 12.2336 102.656 12.3068 103.828 12.3981V12.966H99.6001V12.3981C100.772 12.3068 100.881 12.2516 100.881 11.4098V7.36426C100.881 5.91845 100.24 5.29528 99.0874 5.29528C98.1904 5.29528 97.4218 5.84408 97.0556 6.5405C96.9463 6.77827 96.9091 7.0352 96.9091 7.45553V11.4098C96.9091 12.2516 97.0184 12.3068 98.1724 12.3981V12.966H93.9623V12.3981C95.1703 12.3068 95.2255 12.2336 95.2255 11.4098V1.8729H95.2244Z" fill="#32487A"/>
<path d="M105.915 6.13816C105.915 5.51611 105.806 5.40568 105.385 5.35046L104.725 5.25918V4.76447L107.472 4.32498L107.6 4.43429V11.4086C107.6 12.2685 107.655 12.3056 108.881 12.3969V12.9649H104.634V12.3969C105.86 12.3056 105.915 12.2685 105.915 11.4086V6.13703V6.13816ZM107.801 1.89202C107.801 2.49604 107.379 2.93552 106.739 2.93552C106.099 2.93552 105.66 2.49604 105.66 1.89202C105.66 1.25082 106.099 0.775269 106.758 0.775269C107.417 0.775269 107.82 1.25082 107.802 1.89202H107.801Z" fill="#32487A"/>
<path d="M110.822 6.13821C110.822 5.51616 110.712 5.42376 110.291 5.35051L109.632 5.25923V4.76453L112.268 4.32504L112.505 5.57025C113.183 5.1488 114.171 4.30701 115.416 4.30701C118.455 4.30701 118.766 7.2358 118.766 8.55427C118.766 12.1051 116.771 13.1858 114.428 13.1858C113.659 13.1858 112.854 13.0032 112.505 12.8196V15.4734C112.505 16.3524 112.615 16.3704 114.044 16.4617V17.0296H109.558V16.4617C110.748 16.3704 110.822 16.3332 110.822 15.4734V6.13821ZM112.505 10.2942C112.505 10.6785 112.505 11.0267 112.615 11.3377C112.89 12.1254 113.567 12.5457 114.464 12.5457C116.147 12.5457 116.917 11.1732 116.917 8.68274C116.917 5.71675 115.434 5.29642 114.739 5.29642C113.824 5.29642 113.109 5.71788 112.725 6.48642C112.579 6.79744 112.505 7.03522 112.505 7.45668V10.2942Z" fill="#32487A"/>
<path d="M35.6365 26.6781C35.6365 27.6303 35.6917 27.6664 37.1747 27.7768V28.3448H32.2874V27.7768C33.7884 27.6675 33.8256 27.6303 33.8256 26.6781V18.0562C33.8256 17.104 33.7895 17.0679 32.2874 16.9767V16.3907H37.1747V16.9767C35.6917 17.0679 35.6365 17.1051 35.6365 18.0562V26.6781Z" fill="#32487A"/>
<path d="M47.7372 26.7705C47.7372 27.6494 47.8105 27.6855 49.0005 27.7768V28.3447H44.7724V27.7768C45.9804 27.6855 46.0536 27.6675 46.0536 26.7885V22.7981C46.0536 21.3152 45.4316 20.6751 44.2777 20.6751C43.3626 20.6751 42.6121 21.2239 42.2639 21.9011C42.1174 22.1569 42.0994 22.4139 42.0994 22.8342V26.7885C42.0994 27.6675 42.1907 27.6855 43.3626 27.7768V28.3447H39.1345V27.7768C40.3606 27.6855 40.4158 27.6483 40.4158 26.7705V21.5169C40.4158 20.8948 40.3065 20.7844 39.867 20.7292L39.263 20.6379V20.1432L41.8436 19.7037L42.0813 20.985C43.1429 20.3077 43.9306 19.6857 45.1938 19.6857C46.7861 19.6857 47.7384 20.692 47.7384 22.4319V26.7705H47.7372Z" fill="#32487A"/>
<path d="M55.9195 22.3396C55.7911 21.2781 55.2423 20.3258 54.0342 20.3258C53.1925 20.3258 52.5332 20.8014 52.5332 21.6804C52.5332 22.5593 53.6319 23.0349 54.3633 23.2727C56.1934 23.9139 57.0363 24.4446 57.0363 25.9637C57.0363 27.4827 55.8643 28.5634 53.8145 28.5634C52.789 28.5634 51.7647 28.3257 51.1054 27.7577L50.9409 25.4881H51.4897C51.8379 26.9531 52.5332 27.9222 53.9238 27.9222C54.7836 27.9222 55.4981 27.4095 55.4981 26.5497C55.4981 25.6346 54.6563 25.2132 53.5948 24.8109C52.1118 24.2981 51.0874 23.7674 51.0874 22.2111C51.0874 20.6549 52.3507 19.6846 54.2179 19.6846C55.0056 19.6846 55.8835 19.8672 56.4695 20.2154V22.3385H55.9207L55.9195 22.3396Z" fill="#32487A"/>
<path d="M61.7051 20.674V25.8723C61.7051 27.1716 62.2539 27.5751 62.8399 27.5751C63.2613 27.5751 63.5171 27.539 63.9386 27.3553L64.0851 27.8309C63.4991 28.1971 62.8218 28.5634 61.9609 28.5634C61.3388 28.5634 60.0204 28.3256 60.0204 26.5868V20.674H58.7943V19.9054H60.0936L61.1732 17.7452H61.704V19.9054H63.8822V20.674H61.704H61.7051Z" fill="#32487A"/>
<path d="M66.8864 21.517C66.8864 20.8949 66.777 20.7845 66.3556 20.7293L65.6964 20.638V20.1433L68.4426 19.7038L68.5711 19.8131V26.7875C68.5711 27.6473 68.6263 27.6845 69.8523 27.7757V28.3437H65.6062V27.7757C66.8323 27.6845 66.8875 27.6473 66.8875 26.7875V21.5158L66.8864 21.517ZM68.7716 17.2697C68.7716 17.8737 68.3502 18.3132 67.7101 18.3132C67.07 18.3132 66.6306 17.8737 66.6306 17.2697C66.6306 16.6285 67.07 16.153 67.7293 16.153C68.3885 16.153 68.7908 16.6285 68.7728 17.2697H68.7716Z" fill="#32487A"/>
<path d="M74.5379 20.674V25.8723C74.5379 27.1716 75.0867 27.5751 75.6727 27.5751C76.0942 27.5751 76.35 27.539 76.7714 27.3553L76.9179 27.8309C76.332 28.1971 75.6547 28.5634 74.7949 28.5634C74.1728 28.5634 72.8544 28.3256 72.8544 26.5868V20.674H71.6283V19.9054H72.9276L74.0072 17.7452H74.5379V19.9054H76.7162V20.674H74.5379Z" fill="#32487A"/>
<path d="M85.284 28.3448L85.1015 27.3385C84.6068 27.5943 83.4359 28.5645 81.971 28.5645C80.7077 28.5645 79.5369 27.9605 79.5369 25.984V21.4437C79.5369 20.8397 79.4276 20.7293 78.9881 20.6752L78.3289 20.5839V20.0711L81.0751 19.7601L81.2036 19.8694V25.6358C81.2036 26.9722 81.936 27.5943 82.9243 27.5943C83.8033 27.5943 84.6079 27.0996 84.9933 26.331C85.0846 26.1485 85.1218 25.7822 85.1218 25.3056V21.4426C85.1218 20.8205 85.0305 20.7281 84.591 20.6549L83.9498 20.5636V20.0689L86.696 19.7579L86.8054 19.8672V26.7863C86.8054 27.6461 86.9147 27.6833 88.0866 27.7746V28.3426H85.2863L85.284 28.3448Z" fill="#32487A"/>
<path d="M92.7712 20.674V25.8723C92.7712 27.1716 93.32 27.5751 93.906 27.5751C94.3275 27.5751 94.5833 27.539 95.0047 27.3553L95.1512 27.8309C94.5652 28.1971 93.888 28.5634 93.0281 28.5634C92.4061 28.5634 91.0876 28.3256 91.0876 26.5868V20.674H89.8616V19.9054H91.1609L92.2404 17.7452H92.7712V19.9054H94.9495V20.674H92.7712Z" fill="#32487A"/>
<path d="M98.8678 23.8597C98.8317 25.6537 99.2701 27.6495 101.394 27.6495C102.731 27.6495 103.353 26.8437 103.848 25.8554L104.396 26.1304C103.921 27.503 102.931 28.5645 101.01 28.5645C98.1172 28.5645 97.0197 26.899 97.0197 24.1899C97.0197 21.4808 98.3009 19.6868 100.992 19.6868C104.159 19.6868 104.507 22.1401 104.507 23.1644C104.507 23.7324 104.178 23.8597 103.792 23.8597H98.8678ZM102.072 23.1633C102.547 23.1633 102.658 22.9436 102.658 22.6145C102.658 21.9372 102.475 20.3258 100.901 20.3258C99.1619 20.3258 98.8869 22.4308 98.8869 23.1633H102.072Z" fill="#32487A"/>
<path d="M6.98886 33.2106V33.4338C6.56965 33.4698 6.47612 33.4991 6.36005 33.889C5.99156 35.0666 5.5577 36.6634 5.20386 37.9278H4.6483C4.3091 36.7356 3.93272 35.4926 3.52817 34.2282H3.52028C3.24644 35.1602 2.77653 36.9091 2.48015 37.9278H1.91671C1.5561 36.562 1.18761 35.2255 0.789813 33.8676C0.681631 33.4845 0.616271 33.4552 0.219604 33.4338V33.2106H1.97531V33.4338L1.62822 33.4698C1.46933 33.4912 1.43327 33.5273 1.49074 33.7515C1.75105 34.8063 2.06884 35.9479 2.41592 37.0962H2.42268C2.76188 35.8611 3.15967 34.4085 3.44816 33.3323H3.97554C4.34404 34.5607 4.7407 35.8543 5.11709 37.0962H5.13962C5.39994 36.1575 5.78195 34.7117 5.99944 33.7369C6.02874 33.5927 6.01409 33.4912 5.84731 33.4766L5.42811 33.4338V33.2106H6.98886Z" fill="#32487A"/>
<path d="M7.84755 33.5499C7.84755 33.3042 7.81149 33.2682 7.63907 33.2389L7.37876 33.2028V33.0078L8.46283 32.8411L8.50565 32.8771V35.0227C8.93162 34.741 9.24264 34.51 9.73397 34.51C10.3695 34.51 10.738 34.9078 10.738 35.5941V37.3137C10.738 37.6383 10.7809 37.6676 11.244 37.7036V37.9279H9.57507V37.7036C10.0371 37.6676 10.081 37.6461 10.081 37.3137V35.7169C10.081 35.1467 9.82863 34.8999 9.37336 34.8999C9.01839 34.8999 8.71525 35.1163 8.57101 35.3912C8.52819 35.4859 8.51354 35.5862 8.51354 35.753V37.3137C8.51354 37.6461 8.55636 37.6676 9.01275 37.7036V37.9279H7.35059V37.7036C7.82726 37.6676 7.84867 37.6383 7.84867 37.3137V33.5499H7.84755Z" fill="#32487A"/>
<path d="M12.3326 36.1587C12.318 36.8663 12.4915 37.654 13.3299 37.654C13.8573 37.654 14.103 37.3363 14.2979 36.9464L14.5143 37.0545C14.3272 37.5966 13.9362 38.0158 13.1778 38.0158C12.0363 38.0158 11.6024 37.3588 11.6024 36.2894C11.6024 35.22 12.1084 34.5123 13.1699 34.5123C14.4197 34.5123 14.5571 35.4803 14.5571 35.8848C14.5571 36.1079 14.4275 36.1598 14.2754 36.1598H12.3315L12.3326 36.1587ZM13.597 35.8837C13.7852 35.8837 13.828 35.7969 13.828 35.6662C13.828 35.3991 13.7559 34.7636 13.135 34.7636C12.4487 34.7636 12.3405 35.5952 12.3405 35.8837H13.5981H13.597Z" fill="#32487A"/>
<path d="M16.0886 37.3138C16.0886 37.653 16.1246 37.6676 16.7241 37.7037V37.9279H14.9177V37.7037C15.3876 37.6676 15.4237 37.653 15.4237 37.3138V35.2335C15.4237 34.9879 15.3809 34.9439 15.2141 34.9225L14.9538 34.8865V34.6915L16.0086 34.518L16.0886 35.0735C16.5292 34.6757 16.7309 34.5101 16.9844 34.5101C17.2515 34.5101 17.3451 34.6904 17.3451 34.8504C17.3451 35.0668 17.1929 35.2696 17.0273 35.2696C16.9844 35.2696 16.9337 35.2696 16.8751 35.2335C16.7095 35.1039 16.5945 35.06 16.4852 35.06C16.3263 35.06 16.0886 35.2471 16.0886 35.753V37.3138Z" fill="#32487A"/>
<path d="M18.436 36.1587C18.4214 36.8663 18.5949 37.654 19.4333 37.654C19.9607 37.654 20.2064 37.3363 20.4013 36.9464L20.6177 37.0545C20.4295 37.5966 20.0396 38.0158 19.2812 38.0158C18.1396 38.0158 17.7069 37.3588 17.7069 36.2894C17.7069 35.22 18.2129 34.5123 19.2744 34.5123C20.5241 34.5123 20.6616 35.4803 20.6616 35.8848C20.6616 36.1079 20.532 36.1598 20.3799 36.1598H18.4371L18.436 36.1587ZM19.7004 35.8837C19.8886 35.8837 19.9325 35.7969 19.9325 35.6662C19.9325 35.3991 19.8604 34.7636 19.2384 34.7636C18.5521 34.7636 18.4439 35.5952 18.4439 35.8837H19.7015H19.7004Z" fill="#32487A"/>
<path d="M26.9338 36.57L26.8403 37.7408C26.5078 37.9211 25.879 38.0451 25.337 38.0451C23.7041 38.0451 22.8375 37.2641 22.8375 35.6031C22.8375 34.8379 23.0606 34.2373 23.4584 33.8046C23.863 33.3425 24.5346 33.089 25.3798 33.089C25.9793 33.089 26.5146 33.2118 26.8324 33.364V34.4615H26.5935C26.4639 33.6671 26.0154 33.3493 25.3156 33.3493C24.0433 33.3493 23.6466 34.4987 23.6466 35.5817C23.6466 36.3987 23.9137 37.7926 25.3088 37.7926C26.19 37.7926 26.5078 37.2867 26.7039 36.5722H26.9349L26.9338 36.57Z" fill="#32487A"/>
<path d="M30.5669 36.2668C30.5669 37.3644 30.0328 38.0146 28.9273 38.0146C27.8218 38.0146 27.2944 37.3644 27.2944 36.2668C27.2944 35.1692 27.8365 34.5111 28.9341 34.5111C30.0317 34.5111 30.5669 35.1613 30.5669 36.2668ZM28.9273 37.7622C29.5493 37.7622 29.8378 37.1987 29.8378 36.2668C29.8378 35.3349 29.5482 34.7635 28.9273 34.7635C28.3064 34.7635 28.0247 35.327 28.0247 36.2736C28.0247 37.2202 28.3143 37.7622 28.9273 37.7622Z" fill="#32487A"/>
<path d="M34.3238 37.3069C34.3238 37.654 34.3531 37.6687 34.823 37.7047V37.929H33.1541V37.7047C33.6307 37.6687 33.66 37.6619 33.66 37.3148V35.7394C33.66 35.1546 33.4144 34.901 32.9591 34.901C32.5985 34.901 32.3021 35.1174 32.1646 35.3856C32.106 35.487 32.0993 35.5884 32.0993 35.7541V37.3148C32.0993 37.6619 32.1353 37.6687 32.5985 37.7047V37.929H30.9296V37.7047C31.4141 37.6687 31.4355 37.654 31.4355 37.3069V35.2334C31.4355 34.9878 31.3927 34.9438 31.2192 34.9224L30.9814 34.8864V34.6914L32.0001 34.5179L32.0936 35.0238C32.5128 34.7568 32.8227 34.5111 33.322 34.5111C33.9508 34.5111 34.326 34.9089 34.326 35.5952V37.3069H34.3238Z" fill="#32487A"/>
<path d="M37.1478 35.558C37.0971 35.1388 36.8807 34.7635 36.4041 34.7635C36.0716 34.7635 35.8113 34.9517 35.8113 35.2988C35.8113 35.6459 36.2452 35.833 36.5337 35.9276C37.256 36.18 37.5884 36.3896 37.5884 36.9891C37.5884 37.5887 37.1264 38.0146 36.3162 38.0146C35.9116 38.0146 35.5071 37.9211 35.2468 37.6968L35.1814 36.801H35.3989C35.5364 37.3791 35.8102 37.7622 36.359 37.7622C36.6993 37.7622 36.9799 37.5594 36.9799 37.2202C36.9799 36.8596 36.6475 36.6928 36.2294 36.5339C35.6445 36.331 35.24 36.1214 35.24 35.5084C35.24 34.8954 35.7392 34.5111 36.4751 34.5111C36.7861 34.5111 37.1332 34.5832 37.3642 34.7207V35.5591H37.1467L37.1478 35.558Z" fill="#32487A"/>
<path d="M38.6793 36.1587C38.6646 36.8663 38.8382 37.654 39.6766 37.654C40.204 37.654 40.4496 37.3363 40.6446 36.9464L40.8621 37.0545C40.6739 37.5966 40.284 38.0158 39.5256 38.0158C38.3841 38.0158 37.9502 37.3588 37.9502 36.2894C37.9502 35.22 38.4562 34.5123 39.5177 34.5123C40.7674 34.5123 40.9049 35.4803 40.9049 35.8848C40.9049 36.1079 40.7753 36.1598 40.6232 36.1598H38.6804L38.6793 36.1587ZM39.9425 35.8837C40.1307 35.8837 40.1736 35.7969 40.1736 35.6662C40.1736 35.3991 40.1014 34.7636 39.4805 34.7636C38.7942 34.7636 38.6861 35.5952 38.6861 35.8837H39.9437H39.9425Z" fill="#32487A"/>
<path d="M42.4352 37.3137C42.4352 37.6529 42.4713 37.6675 43.0708 37.7036V37.9278H41.2644V37.7036C41.7343 37.6675 41.7704 37.6529 41.7704 37.3137V35.2334C41.7704 34.9878 41.7276 34.9438 41.5608 34.9224L41.3005 34.8863V34.6914L42.3552 34.5178L42.4352 35.0734C42.877 34.6756 43.0787 34.5099 43.3311 34.5099C43.5982 34.5099 43.6917 34.6903 43.6917 34.8503C43.6917 35.0666 43.5396 35.2695 43.3739 35.2695C43.3311 35.2695 43.2793 35.2695 43.2218 35.2334C43.055 35.1038 42.9401 35.0599 42.8319 35.0599C42.673 35.0599 42.4341 35.2469 42.4341 35.7529V37.3137H42.4352Z" fill="#32487A"/>
<path d="M45.5769 37.9278C45.2445 36.988 44.9053 36.0493 44.5436 35.132C44.4433 34.8796 44.37 34.8503 44.0522 34.8289V34.5978H45.6276V34.8289L45.3245 34.857C45.1949 34.8717 45.1724 34.9291 45.2152 35.0599C45.4755 35.8104 45.7358 36.562 46.0029 37.299H46.0175C46.2497 36.6781 46.6171 35.6594 46.7985 35.0452C46.8267 34.9506 46.8131 34.8717 46.6971 34.857L46.3646 34.8289V34.5978H47.6572V34.8289C47.354 34.8435 47.2819 34.8863 47.1737 35.1173C46.9562 35.5873 46.4728 36.8652 46.0829 37.9278H45.5769Z" fill="#32487A"/>
<path d="M50.6549 37.0319C50.6549 37.459 50.7631 37.574 50.8859 37.6033C50.9513 37.6247 51.0594 37.6247 51.153 37.6033L51.1811 37.8196C51.0144 37.9278 50.7191 38.0146 50.4588 38.0146C50.221 38.0146 50.0982 37.885 50.0114 37.61C49.7939 37.7543 49.4266 38.0146 49.0074 38.0146C48.3571 38.0146 48.0179 37.5593 48.0179 37.0533C48.0179 36.7288 48.1701 36.3738 48.6535 36.2228C49.1888 36.056 49.8458 35.8836 50.0193 35.7022V35.4712C50.0193 34.937 49.7443 34.7703 49.4198 34.7703C49.146 34.7703 48.9071 34.9145 48.7549 35.4205C48.7189 35.5354 48.6682 35.6154 48.5239 35.6154C48.3797 35.6154 48.1408 35.514 48.1408 35.2909C48.1408 34.9156 48.6963 34.5099 49.4773 34.5099C50.5095 34.5099 50.6549 35.0452 50.6549 35.4419V37.0308V37.0319ZM50.0193 35.9986C49.8672 36.0932 49.5133 36.2228 49.2463 36.3242C48.8778 36.4685 48.7335 36.6341 48.7335 36.9531C48.7335 37.3497 48.9431 37.6393 49.3556 37.6393C49.6159 37.6393 50.0204 37.5019 50.0204 36.9677V35.9997L50.0193 35.9986Z" fill="#32487A"/>
<path d="M52.6922 34.901V36.9531C52.6922 37.4658 52.9085 37.6247 53.1395 37.6247C53.3063 37.6247 53.4077 37.61 53.5734 37.5379L53.6309 37.7261C53.3998 37.8703 53.1316 38.0157 52.7924 38.0157C52.5468 38.0157 52.0273 37.9222 52.0273 37.2359V34.9021H51.5427V34.599H52.0555L52.4826 33.7459H52.6922V34.599H53.552V34.9021H52.6922V34.901Z" fill="#32487A"/>
<path d="M54.4965 35.2335C54.4965 34.9878 54.4536 34.9438 54.2869 34.9224L54.0265 34.8864V34.6914L55.1106 34.5179L55.1613 34.5607V37.3137C55.1613 37.6529 55.1827 37.6676 55.6673 37.7036V37.9279H53.9905V37.7036C54.475 37.6676 54.4965 37.6529 54.4965 37.3137V35.2335ZM55.2413 33.5566C55.2413 33.7944 55.0746 33.9691 54.8221 33.9691C54.5697 33.9691 54.3962 33.7955 54.3962 33.5566C54.3962 33.3042 54.5697 33.116 54.8289 33.116C55.0881 33.116 55.2481 33.3042 55.2413 33.5566Z" fill="#32487A"/>
<path d="M57.5524 37.9278C57.2199 36.988 56.8807 36.0493 56.5201 35.132C56.4187 34.8796 56.3466 34.8503 56.0288 34.8289V34.5978H57.6042V34.8289L57.2999 34.857C57.1704 34.8717 57.1478 34.9291 57.1918 35.0599C57.4521 35.8104 57.7113 36.562 57.9783 37.299H57.993C58.224 36.6781 58.5925 35.6594 58.7728 35.0452C58.8021 34.9506 58.7874 34.8717 58.6725 34.857L58.3401 34.8289V34.5978H59.6337V34.8289C59.3295 34.8435 59.2585 34.8863 59.1492 35.1173C58.9328 35.5873 58.4483 36.8652 58.0583 37.9278H57.5524Z" fill="#32487A"/>
<path d="M60.5084 36.1587C60.4938 36.8663 60.6673 37.654 61.5057 37.654C62.0331 37.654 62.2788 37.3363 62.4737 36.9464L62.6901 37.0545C62.503 37.5966 62.112 38.0158 61.3536 38.0158C60.2121 38.0158 59.7782 37.3588 59.7782 36.2894C59.7782 35.22 60.2842 34.5123 61.3457 34.5123C62.5954 34.5123 62.7329 35.4803 62.7329 35.8848C62.7329 36.1079 62.6033 36.1598 62.4512 36.1598H60.5073L60.5084 36.1587ZM61.7728 35.8837C61.961 35.8837 62.0038 35.7969 62.0038 35.6662C62.0038 35.3991 61.9317 34.7636 61.3108 34.7636C60.6245 34.7636 60.5163 35.5952 60.5163 35.8837H61.7739H61.7728Z" fill="#32487A"/>
<path d="M66.2185 37.0973C66.2185 37.5379 66.3053 37.6686 67.093 37.6686C67.8086 37.6686 68.1703 37.5311 68.3281 36.606H68.5591L68.407 37.9278H64.8888V37.7036C65.4815 37.6607 65.4951 37.6461 65.4951 37.2708V33.8676C65.4951 33.4924 65.4804 33.4777 64.8888 33.4416V33.2106H66.8687V33.4416C66.2399 33.4777 66.2185 33.4924 66.2185 33.8676V37.0973Z" fill="#32487A"/>
<path d="M69.65 36.1587C69.6354 36.8663 69.8089 37.654 70.6473 37.654C71.1747 37.654 71.4204 37.3363 71.6153 36.9464L71.8328 37.0545C71.6446 37.5966 71.2547 38.0158 70.4963 38.0158C69.3548 38.0158 68.9209 37.3588 68.9209 36.2894C68.9209 35.22 69.4269 34.5123 70.4884 34.5123C71.7381 34.5123 71.8756 35.4803 71.8756 35.8848C71.8756 36.1079 71.746 36.1598 71.5939 36.1598H69.6511L69.65 36.1587ZM70.9144 35.8837C71.1026 35.8837 71.1454 35.7969 71.1454 35.6662C71.1454 35.3991 71.0733 34.7636 70.4524 34.7636C69.7661 34.7636 69.6579 35.5952 69.6579 35.8837H70.9155H70.9144Z" fill="#32487A"/>
<path d="M74.8731 37.0321C74.8731 37.4592 74.9824 37.5741 75.1052 37.6034C75.1695 37.6248 75.2788 37.6248 75.3723 37.6034L75.4016 37.8198C75.2348 37.9279 74.9396 38.0147 74.6793 38.0147C74.4415 38.0147 74.3186 37.8851 74.2319 37.6102C74.0155 37.7544 73.647 38.0147 73.2278 38.0147C72.5776 38.0147 72.2384 37.5594 72.2384 37.0535C72.2384 36.7289 72.3905 36.374 72.874 36.223C73.4081 36.0562 74.0662 35.8838 74.2398 35.7023V35.4713C74.2398 34.9372 73.9648 34.7704 73.6403 34.7704C73.3653 34.7704 73.1275 34.9146 72.9754 35.4206C72.9393 35.5355 72.8886 35.6156 72.7444 35.6156C72.6001 35.6156 72.3612 35.5141 72.3612 35.291C72.3612 34.9158 72.9179 34.5101 73.6977 34.5101C74.7311 34.5101 74.8753 35.0453 74.8753 35.442V37.0309L74.8731 37.0321ZM74.2375 35.9987C74.0854 36.0934 73.7315 36.223 73.4645 36.3244C73.096 36.4686 72.9517 36.6343 72.9517 36.9532C72.9517 37.3498 73.1613 37.6395 73.5726 37.6395C73.833 37.6395 74.2375 37.502 74.2375 36.9678V35.9998V35.9987Z" fill="#32487A"/>
<path d="M78.0227 33.2389L77.7331 33.2028V33.0078L78.8532 32.8411L78.896 32.8771V37.3058C78.896 37.6461 78.9242 37.6597 79.402 37.689V37.9267H78.2323V37.5582C77.8638 37.8546 77.5167 38.0135 77.155 38.0135C76.2377 38.0135 75.761 37.334 75.761 36.3299C75.761 35.7372 75.9413 35.2819 76.2377 34.9788C76.5273 34.6892 76.9386 34.5089 77.4953 34.5089C77.7995 34.5089 78.0441 34.5742 78.2323 34.6678V33.5476C78.2323 33.2873 78.1962 33.2513 78.0227 33.2366V33.2389ZM78.2323 35.5794C78.2323 35.3991 78.2244 35.2977 78.1748 35.1816C78.052 34.9146 77.7917 34.7624 77.4818 34.7624C76.8022 34.7624 76.4912 35.3698 76.4912 36.2443C76.4912 37.032 76.809 37.6315 77.4232 37.6315C77.7702 37.6315 78.052 37.494 78.1816 37.1548C78.2323 37.0399 78.2323 36.9385 78.2323 36.7863V35.5794Z" fill="#32487A"/>
<path d="M80.4929 36.1587C80.4782 36.8663 80.6518 37.654 81.4902 37.654C82.0176 37.654 82.2632 37.3363 82.4582 36.9464L82.6757 37.0545C82.4875 37.5966 82.0976 38.0158 81.3392 38.0158C80.1976 38.0158 79.7638 37.3588 79.7638 36.2894C79.7638 35.22 80.2698 34.5123 81.3313 34.5123C82.581 34.5123 82.7185 35.4803 82.7185 35.8848C82.7185 36.1079 82.5889 36.1598 82.4368 36.1598H80.494L80.4929 36.1587ZM81.7573 35.8837C81.9455 35.8837 81.9883 35.7969 81.9883 35.6662C81.9883 35.3991 81.9162 34.7636 81.2952 34.7636C80.609 34.7636 80.5008 35.5952 80.5008 35.8837H81.7584H81.7573Z" fill="#32487A"/>
<path d="M84.2488 37.3138C84.2488 37.653 84.2849 37.6676 84.8844 37.7037V37.9279H83.078V37.7037C83.5479 37.6676 83.584 37.653 83.584 37.3138V35.2335C83.584 34.9879 83.5412 34.9439 83.3744 34.9225L83.1141 34.8865V34.6915L84.1688 34.518L84.2488 35.0735C84.6906 34.6757 84.8923 34.5101 85.1447 34.5101C85.4118 34.5101 85.5053 34.6904 85.5053 34.8504C85.5053 35.0668 85.3532 35.2696 85.1876 35.2696C85.1447 35.2696 85.0929 35.2696 85.0354 35.2335C84.8686 35.1039 84.7537 35.06 84.6455 35.06C84.4866 35.06 84.2477 35.2471 84.2477 35.753V37.3138H84.2488Z" fill="#32487A"/>
<path d="M87.8313 35.558C87.7806 35.1388 87.5642 34.7635 87.0875 34.7635C86.7551 34.7635 86.4948 34.9517 86.4948 35.2988C86.4948 35.6459 86.9287 35.833 87.2171 35.9276C87.9395 36.18 88.2719 36.3896 88.2719 36.9891C88.2719 37.5887 87.8099 38.0146 86.9997 38.0146C86.5951 38.0146 86.1905 37.9211 85.9302 37.6968L85.8649 36.801H86.0824C86.2198 37.3791 86.4937 37.7622 87.0425 37.7622C87.3828 37.7622 87.6634 37.5594 87.6634 37.2202C87.6634 36.8596 87.331 36.6928 86.9129 36.5339C86.328 36.331 85.9235 36.1214 85.9235 35.5084C85.9235 34.8954 86.4227 34.5111 87.1585 34.5111C87.4696 34.5111 87.8166 34.5832 88.0477 34.7207V35.5591H87.8302L87.8313 35.558Z" fill="#32487A"/>
<path d="M93.0846 37.0321C93.0846 37.4592 93.1928 37.5741 93.3156 37.6034C93.381 37.6248 93.4891 37.6248 93.5827 37.6034L93.6109 37.8198C93.4441 37.9279 93.1488 38.0147 92.8885 38.0147C92.6507 38.0147 92.5279 37.8851 92.4411 37.6102C92.2236 37.7544 91.8563 38.0147 91.4371 38.0147C90.7869 38.0147 90.4465 37.5594 90.4465 37.0535C90.4465 36.7289 90.5987 36.374 91.0821 36.223C91.6174 36.0562 92.2744 35.8838 92.4479 35.7023V35.4713C92.4479 34.9372 92.1729 34.7704 91.8484 34.7704C91.5734 34.7704 91.3357 34.9146 91.1835 35.4206C91.1475 35.5355 91.0967 35.6156 90.9514 35.6156C90.806 35.6156 90.5682 35.5141 90.5682 35.291C90.5682 34.9158 91.1249 34.5101 91.9047 34.5101C92.9381 34.5101 93.0823 35.0453 93.0823 35.442V37.0309L93.0846 37.0321ZM92.449 35.9987C92.2969 36.0934 91.9431 36.223 91.676 36.3244C91.3075 36.4686 91.1632 36.6343 91.1632 36.9532C91.1632 37.3498 91.3728 37.6395 91.7853 37.6395C92.0456 37.6395 92.4502 37.502 92.4502 36.9678V35.9998L92.449 35.9987Z" fill="#32487A"/>
<path d="M95.1433 37.3138C95.1433 37.653 95.1793 37.6676 95.7788 37.7037V37.9279H93.9724V37.7037C94.4423 37.6676 94.4784 37.653 94.4784 37.3138V35.2335C94.4784 34.9879 94.4356 34.9439 94.2688 34.9225L94.0085 34.8865V34.6915L95.0633 34.518L95.1433 35.0735C95.585 34.6757 95.7867 34.5101 96.0391 34.5101C96.3062 34.5101 96.3997 34.6904 96.3997 34.8504C96.3997 35.0668 96.2476 35.2696 96.082 35.2696C96.0391 35.2696 95.9873 35.2696 95.9298 35.2335C95.7631 35.1039 95.6481 35.06 95.5399 35.06C95.381 35.06 95.1421 35.2471 95.1421 35.753V37.3138H95.1433Z" fill="#32487A"/>
<path d="M97.4906 36.1587C97.4759 36.8663 97.6495 37.654 98.4879 37.654C99.0153 37.654 99.2621 37.3363 99.4559 36.9464L99.6734 37.0545C99.4852 37.5966 99.0953 38.0158 98.3369 38.0158C97.1953 38.0158 96.7615 37.3588 96.7615 36.2894C96.7615 35.22 97.2675 34.5123 98.329 34.5123C99.5787 34.5123 99.7162 35.4803 99.7162 35.8848C99.7162 36.1079 99.5866 36.1598 99.4345 36.1598H97.4906V36.1587ZM98.755 35.8837C98.942 35.8837 98.986 35.7969 98.986 35.6662C98.986 35.3991 98.9138 34.7636 98.2929 34.7636C97.6055 34.7636 97.4985 35.5952 97.4985 35.8837H98.7561H98.755Z" fill="#32487A"/>
<path d="M101.893 37.9279V37.7036C102.247 37.6755 102.457 37.6462 102.5 37.3566C102.529 37.1323 102.542 36.872 102.542 36.4967V33.8666C102.542 33.4913 102.528 33.4767 101.936 33.4406V33.2096H103.345C103.843 34.3579 104.428 35.6223 104.942 36.7931H104.956C105.375 35.8398 106.163 34.0615 106.524 33.2096H107.918V33.4327C107.333 33.4688 107.311 33.4834 107.311 33.8666V37.2698C107.311 37.645 107.333 37.6597 107.918 37.7025V37.9268H105.982V37.7025C106.574 37.6597 106.596 37.645 106.596 37.2698V33.8373H106.573C106.111 34.892 105.129 37.1323 104.811 37.8839H104.616C104.233 36.9813 103.308 34.8278 102.874 33.8373H102.859V36.4967C102.859 36.872 102.874 37.1323 102.902 37.3566C102.945 37.6462 103.148 37.6676 103.588 37.7036V37.9279H101.891H101.893Z" fill="#32487A"/>
<path d="M110.921 37.0321C110.921 37.4592 111.029 37.5741 111.152 37.6034C111.217 37.6248 111.325 37.6248 111.419 37.6034L111.448 37.8198C111.281 37.9279 110.986 38.0147 110.726 38.0147C110.487 38.0147 110.364 37.8851 110.277 37.6102C110.061 37.7544 109.693 38.0147 109.273 38.0147C108.623 38.0147 108.284 37.5594 108.284 37.0535C108.284 36.7289 108.435 36.374 108.92 36.223C109.454 36.0562 110.112 35.8838 110.284 35.7023V35.4713C110.284 34.9372 110.01 34.7704 109.685 34.7704C109.41 34.7704 109.172 34.9146 109.02 35.4206C108.984 35.5355 108.933 35.6156 108.789 35.6156C108.645 35.6156 108.406 35.5141 108.406 35.291C108.406 34.9158 108.961 34.5101 109.742 34.5101C110.775 34.5101 110.92 35.0453 110.92 35.442V37.0309L110.921 37.0321ZM110.285 35.9987C110.134 36.0934 109.779 36.223 109.512 36.3244C109.144 36.4686 109 36.6343 109 36.9532C109 37.3498 109.209 37.6395 109.62 37.6395C109.881 37.6395 110.285 37.502 110.285 36.9678V35.9998V35.9987Z" fill="#32487A"/>
<path d="M114.071 33.2389L113.781 33.2028V33.0078L114.901 32.8411L114.944 32.8771V37.3058C114.944 37.6461 114.972 37.6597 115.45 37.689V37.9267H114.279V37.5582C113.911 37.8546 113.563 38.0135 113.203 38.0135C112.286 38.0135 111.808 37.334 111.808 36.3299C111.808 35.7372 111.988 35.2819 112.284 34.9788C112.574 34.6892 112.985 34.5089 113.542 34.5089C113.846 34.5089 114.091 34.5742 114.279 34.6678V33.5476C114.279 33.2873 114.243 33.2513 114.069 33.2366L114.071 33.2389ZM114.28 35.5794C114.28 35.3991 114.273 35.2977 114.223 35.1816C114.1 34.9146 113.84 34.7624 113.529 34.7624C112.849 34.7624 112.539 35.3698 112.539 36.2443C112.539 37.032 112.857 37.6315 113.471 37.6315C113.818 37.6315 114.1 37.494 114.229 37.1548C114.28 37.0399 114.28 36.9385 114.28 36.7863V35.5794Z" fill="#32487A"/>
<path d="M116.541 36.1587C116.526 36.8663 116.7 37.654 117.538 37.654C118.065 37.654 118.311 37.3363 118.506 36.9464L118.724 37.0545C118.535 37.5966 118.145 38.0158 117.387 38.0158C116.245 38.0158 115.812 37.3588 115.812 36.2894C115.812 35.22 116.318 34.5123 117.379 34.5123C118.629 34.5123 118.766 35.4803 118.766 35.8848C118.766 36.1079 118.637 36.1598 118.485 36.1598H116.542L116.541 36.1587ZM117.805 35.8837C117.993 35.8837 118.036 35.7969 118.036 35.6662C118.036 35.3991 117.964 34.7636 117.343 34.7636C116.657 34.7636 116.549 35.5952 116.549 35.8837H117.806H117.805Z" fill="#32487A"/>
</g>
<defs>
<clipPath id="clip0_360_1935">
<rect width="119" height="38.1014" fill="white"/>
</clipPath>
</defs>
</svg>
