<svg width="115" height="47" viewBox="0 0 115 47" fill="none" xmlns="http://www.w3.org/2000/svg">
<g clip-path="url(#clip0_397_111)">
<path d="M17.9887 39.1554H18.0963L18.1974 39.1586L18.0963 39.1617H17.9887L17.8844 39.1586L17.9887 39.1554Z" fill="white"/>
<path d="M105.915 37.6313L100.243 37.6598L100.24 12.7082L91.3796 12.7019L91.3765 7.49717L114.997 7.49084L115 12.7082L105.912 12.7019L105.915 37.6313Z" fill="white"/>
<path d="M88.42 37.6313L82.7409 37.6598L82.7283 24.5089L68.4296 24.5121V37.6598L62.7727 37.6566V7.50665L68.4296 7.50349V19.7437L82.7315 19.7532L82.7409 7.50033L88.4168 7.49084L88.42 37.6313Z" fill="white"/>
<path d="M59.7466 32.4424L59.8098 37.6471L39.8226 37.6629L39.8258 7.50659H45.508L45.5016 32.4519L59.7466 32.4424Z" fill="white"/>
<path d="M7.53512 28.6796C6.50746 26.8108 6.12802 24.9262 5.74541 22.9911C5.39443 20.6101 5.22684 18.3619 5.30905 15.9397C7.25054 12.8251 9.16357 9.77377 11.2979 6.84573L12.8568 4.70819C13.9224 3.25049 14.9817 1.83707 16.1106 0.404664C16.2181 0.265535 16.5722 -0.0728028 16.7809 0.00941002C18.6275 2.19438 20.3255 4.47104 21.9445 6.85521C17.3058 11.5603 13.5082 16.2686 10.3335 21.9097C9.15092 24.044 8.29085 26.1215 7.53512 28.6764V28.6796Z" fill="white"/>
<path d="M16.5974 46.6146C13.4639 46.7917 10.1121 45.6597 7.45599 43.9743C7.0639 43.7277 6.71924 43.4399 6.45679 43.0226C12.4805 43.421 17.6852 42.2826 21.9729 38.1151C23.6108 36.5214 24.8409 34.6685 25.5017 32.4772C26.0993 30.4946 25.8274 28.6511 25.0401 26.7729C24.0883 24.4994 22.9278 22.4504 21.6757 20.1737C22.6148 20.531 23.0132 21.3531 23.5507 22.0867C26.5831 26.21 28.5246 30.9594 29.0875 36.0787L29.1475 40.9925C26.4282 44.0502 22.7824 46.0107 18.6844 46.4976L16.6006 46.6146H16.5974Z" fill="white"/>
<path d="M33.1825 32.3412C33.1761 33.4004 31.8513 37.5775 30.7856 38.7285C30.6687 31.7783 28.1928 25.3278 23.8798 19.9998C22.1185 17.8243 20.1359 16.0282 17.9573 14.1057C19.1462 12.2654 20.5217 10.6148 22.0711 9.05911C22.3493 8.78086 22.4695 8.35714 22.9912 8.24963C25.2015 11.5129 27.2442 14.7729 29.154 18.2164C30.6623 20.9389 32.8916 25.6977 33.2078 28.5246L33.1825 32.3412Z" fill="white"/>
<path d="M17.8275 39.2503C14.4315 41.4163 10.4284 41.6693 6.50114 41.4543C4.10115 41.3214 4.03475 41.1823 2.73515 39.2693C0.771531 36.3823 -0.354153 32.2622 0.10118 28.8093C0.515406 25.6694 1.85611 21.8844 3.73752 19.0765C4.06637 23.0733 4.66716 26.8773 6.33039 30.3966C8.71772 35.4527 11.6647 39.4906 17.8275 39.2503Z" fill="white"/>
</g>
<defs>
<clipPath id="clip0_397_111">
<rect width="115" height="46.6305" fill="white"/>
</clipPath>
</defs>
</svg>
