<svg width="183" height="33" viewBox="0 0 183 33" fill="none" xmlns="http://www.w3.org/2000/svg">
<g clip-path="url(#clip0_383_280)">
<path d="M87.9632 22.4044C85.2694 25.6198 79.8139 25.284 77.5023 22.4008C74.9765 19.2497 74.6371 14.9089 76.3841 11.3326C77.6524 8.6781 80.2069 7.22401 83.1365 7.28832C85.0872 7.33119 86.6877 8.1815 87.9882 9.76777L88.0096 0.0107422L91.1143 0.025033V24.2586L88.0597 24.2622L87.9632 22.4008V22.4044ZM85.9553 21.2326C86.7056 20.6716 87.2915 19.9893 87.5738 19.0782C88.7778 15.2269 87.7203 10.1858 83.7296 9.86423C81.8539 9.71418 80.2462 10.686 79.3852 12.3687C78.0061 15.0661 78.2205 18.403 80.2069 20.7645C81.6574 22.4901 84.2262 22.5223 85.9553 21.2326Z" fill="#393C3D"/>
<path d="M49.6031 15.1447L58.8957 24.2015L54.7764 24.2586L46.4199 16.3022L46.3627 24.2622L43.1687 24.255V0.0286014L46.3698 0.0178833L46.3841 14.4444L53.4009 7.71704L57.5488 7.73133L49.6031 15.1447Z" fill="#393C3D"/>
<path d="M67.7776 21.7006C68.9851 21.0468 69.521 19.8856 69.8747 18.6888L72.9544 19.2961C72.0576 22.8224 68.8172 24.9088 65.2945 24.7016C62.4185 24.5337 60.0534 23.1725 58.8458 20.4966C57.4739 17.4526 57.5668 13.8406 59.1745 10.9253C60.5393 8.45658 62.883 7.23115 65.6339 7.27045C70.9001 7.34547 73.4296 11.7327 73.1187 16.7881H61.1573C61.1681 18.5566 61.754 20.2858 63.1831 21.3862C64.4299 22.3472 66.3342 22.4866 67.7811 21.7041L67.7776 21.7006ZM69.8104 14.2801C69.7461 12.4509 68.9172 11.1039 67.5489 10.2286C66.0448 9.54983 64.2049 9.60342 62.858 10.6288C61.7254 11.4934 61.1895 12.8724 61.1931 14.2908L69.8104 14.2801Z" fill="#393C3D"/>
<path d="M33.651 9.95711C32.2327 9.64628 30.9786 10.0178 30.0033 10.8789C29.1101 11.6684 28.5706 12.8831 28.5599 14.2336L28.4992 24.2586H25.3159V7.71703L28.4063 7.70274L28.4885 9.77133C29.6567 8.05286 31.3859 7.37762 33.3188 7.27759C36.8807 7.09895 39.2816 9.74274 39.2923 13.2583L39.3245 24.255H36.159V14.8231C36.159 12.4794 35.8804 10.443 33.651 9.95353V9.95711Z" fill="#393C3D"/>
<path d="M15.727 21.3611L15.7806 24.2622L0 24.2657V0.0392996L3.44051 0L3.43693 21.3576L15.727 21.3611Z" fill="#393C3D"/>
<path d="M21.2859 7.7099H18.0776V24.2622H21.2859V7.7099Z" fill="#393C3D"/>
<path d="M21.2896 0H18.0706V3.5584H21.2896V0Z" fill="#393C3D"/>
<path d="M157.363 17.1061L147.088 17.0775L144.397 24.2586L140.671 24.2479L150.057 0.0250089L154.419 0L163.747 24.2479L160.017 24.2693L157.363 17.1061ZM156.323 14.2658L152.211 3.219L148.102 14.2622H156.327L156.323 14.2658Z" fill="#393C3D"/>
<path d="M176.159 24.1907L172.969 24.2693V7.71702L176.045 7.70273L176.141 9.93566C177.513 7.76704 179.807 6.90602 182.197 7.4312L182.168 10.5609C180.811 10.3179 179.503 10.3215 178.36 11.0039C176.859 11.9006 176.373 13.4726 176.184 15.1697L176.159 24.1943V24.1907Z" fill="#393C3D"/>
<path d="M168.938 7.7099H165.737V24.2622H168.938V7.7099Z" fill="#393C3D"/>
<path d="M168.938 0H165.737V3.5584H168.938V0Z" fill="#393C3D"/>
<path d="M116.238 22.215C113.908 25.2768 108.22 25.7341 105.644 22.2365L105.577 24.2693L102.511 24.2479V0.0750223L105.709 0.00714111L105.73 9.63198C108.538 6.23435 114.087 6.75239 116.288 9.70701C119.039 13.3976 119.028 18.5423 116.234 22.215H116.238ZM111.689 21.9471C114.866 21.0682 116.041 15.9521 114.333 12.3972C113.74 11.1611 112.622 10.2965 111.539 10.0035C109.196 9.37117 106.666 10.811 106.027 13.1189C105.519 14.9446 105.502 16.8631 106.012 18.6816C106.731 21.2432 109.235 22.6259 111.686 21.9471H111.689Z" fill="#393C3D"/>
<path d="M127.027 29.1174C126.348 30.9895 124.801 32.1114 122.926 32.24L120.053 32.1328L120.082 29.3211C121.304 29.6462 123.011 29.7284 123.797 28.528C124.583 27.3275 124.926 25.8592 125.409 24.5087L119.26 7.73487L122.575 7.72058L127.099 20.4036L131.575 7.7313H134.798L127.031 29.121L127.027 29.1174Z" fill="#393C3D"/>
</g>
<defs>
<clipPath id="clip0_383_280">
<rect width="182.197" height="32.24" fill="white"/>
</clipPath>
</defs>
</svg>
