<svg width="125" height="39" viewBox="0 0 125 39" fill="none" xmlns="http://www.w3.org/2000/svg">
<g clip-path="url(#clip0_397_52)">
<mask id="mask0_397_52" style="mask-type:luminance" maskUnits="userSpaceOnUse" x="0" y="0" width="125" height="39">
<path d="M125 0H0V38.1526H125V0Z" fill="white"/>
</mask>
<g mask="url(#mask0_397_52)">
<path d="M38.1551 19.0776C38.1551 25.9932 34.4753 32.049 28.9674 35.3948C27.4717 34.9449 25.7838 36.4199 25.6577 36.9899C23.6066 37.7438 21.3903 38.1551 19.0776 38.1551C8.54137 38.1551 0 29.6138 0 19.0776C0 8.54137 8.54137 0 19.0776 0C29.6138 0 38.1551 8.54137 38.1551 19.0776Z" fill="black"/>
<path d="M21.2463 14.3054H25.581V11.7039C25.581 8.11197 22.6691 5.20007 19.0772 5.20007C15.4853 5.20007 12.5734 8.11197 12.5734 11.7039V26.4457C12.5734 30.0376 15.4853 32.9495 19.0772 32.9495C19.8376 32.9495 20.5673 32.8184 21.2458 32.5789L25.6568 36.9899C26.8175 36.5636 27.9249 36.0277 28.967 35.3949L24.1226 30.5504C25.0341 29.4309 25.581 28.0026 25.581 26.4462V23.8447H21.2463C20.7672 23.8447 20.3789 23.4565 20.3789 22.9773C20.3789 22.4982 20.7672 22.11 21.2463 22.11H25.581V19.9424H21.2463C20.7672 19.9424 20.3789 19.5542 20.3789 19.0751C20.3789 18.596 20.7672 18.2077 21.2463 18.2077H25.581V16.0396H21.2463C20.7672 16.0396 20.3789 15.6514 20.3789 15.1723C20.3789 14.6931 20.7672 14.3054 21.2463 14.3054Z" fill="white"/>
<path d="M46.9111 28.791V9.74463H50.3942V25.8249H58.611V28.7905L46.9111 28.791Z" fill="black"/>
<path d="M65.2084 29.1176C64.0472 29.1176 63.0588 28.8679 62.2425 28.3692C61.4263 27.8705 60.8008 27.1815 60.365 26.3015C59.9298 25.4222 59.7124 24.4197 59.7124 23.2952V15.2958H63.1677V22.7785C63.1677 23.7764 63.4263 24.5925 63.9428 25.2273C64.4599 25.8626 65.2174 26.1795 66.2149 26.1795C67.2129 26.1795 68.0196 25.8712 68.5277 25.2544C69.0357 24.6382 69.2897 23.8125 69.2897 22.7785V15.2958H72.7726V28.7916H69.2897V27.2136C68.8364 27.8304 68.242 28.3019 67.5071 28.6284C66.7726 28.9548 66.0061 29.1176 65.2084 29.1176Z" fill="black"/>
<path d="M74.9438 28.7911V15.2953H78.3991V16.8462C78.8524 16.2113 79.4332 15.7398 80.1405 15.4314C80.8479 15.123 81.5913 14.9689 82.3715 14.9689C83.3865 14.9689 84.3343 15.1823 85.2143 15.6082C86.0939 16.0346 86.7786 16.7011 87.2686 17.6081C87.7214 16.7738 88.3524 16.125 89.1591 15.6624C89.9663 15.1999 90.8504 14.9689 91.8122 14.9689C92.8464 14.9689 93.7846 15.1823 94.628 15.6082C95.4719 16.0346 96.138 16.683 96.628 17.5538C97.1175 18.4247 97.3624 19.513 97.3624 20.8188V28.7911H93.9076V21.3084C93.9076 20.293 93.6621 19.4854 93.1727 18.8867C92.6827 18.288 91.9302 17.9888 90.9141 17.9888C89.8981 17.9888 89.1631 18.288 88.6556 18.8867C88.1476 19.4854 87.8936 20.2925 87.8936 21.3084V28.7911H84.4382V21.3084C84.4382 20.2743 84.1797 19.4628 83.6631 18.8731C83.1461 18.284 82.4071 17.9888 81.4458 17.9888C80.6295 17.9888 79.9171 18.2474 79.3097 18.7642C78.7013 19.281 78.3981 20.1292 78.3981 21.3079V28.7906H74.9427L74.9438 28.7911Z" fill="black"/>
<path d="M101.312 13.554C100.695 13.554 100.164 13.332 99.7204 12.8875C99.2756 12.443 99.0537 11.9127 99.0537 11.2959C99.0537 10.6792 99.2756 10.1258 99.7204 9.69082C100.165 9.25538 100.695 9.03796 101.312 9.03796C101.928 9.03796 102.482 9.25538 102.917 9.69082C103.352 10.1263 103.57 10.6617 103.57 11.2959C103.57 11.9303 103.352 12.4435 102.917 12.8875C102.481 13.332 101.946 13.554 101.312 13.554ZM99.5703 28.791V15.2952H103.053V28.791H99.5703Z" fill="black"/>
<path d="M122.525 29.1174L120.621 27.2672C119.786 27.8658 118.87 28.3239 117.873 28.6413C116.875 28.9582 115.84 29.1174 114.771 29.1174C113.501 29.1174 112.281 28.8904 111.111 28.4374C109.941 27.9844 108.902 27.3309 107.996 26.4782C107.088 25.6259 106.372 24.5918 105.846 23.3764C105.32 22.1616 105.057 20.7915 105.057 19.2677C105.057 17.744 105.32 16.3749 105.846 15.159C106.372 13.9441 107.088 12.9101 107.996 12.0573C108.903 11.205 109.941 10.5516 111.111 10.0981C112.281 9.6451 113.501 9.41809 114.771 9.41809C116.041 9.41809 117.287 9.6451 118.457 10.0981C119.628 10.5516 120.666 11.2045 121.573 12.0573C122.48 12.9101 123.196 13.9441 123.722 15.159C124.248 16.3744 124.512 17.744 124.512 19.2677C124.512 20.3741 124.371 21.3992 124.089 22.3423C123.808 23.2856 123.405 24.1383 122.879 24.9002L124.811 26.7233L122.525 29.1174ZM108.648 19.2677C108.648 20.7734 108.947 22.025 109.546 23.0224C110.145 24.0203 110.916 24.7596 111.859 25.2397C112.802 25.7203 113.772 25.9609 114.77 25.9609C115.459 25.9609 116.094 25.8841 116.675 25.7299C117.255 25.5762 117.79 25.3351 118.28 25.0087L115.341 22.1791L117.627 19.7845L120.375 22.478C120.556 22.0611 120.692 21.5986 120.783 21.0903C120.874 20.5825 120.92 19.9749 120.92 19.2672C120.92 17.7435 120.62 16.4829 120.022 15.485C119.423 14.4876 118.652 13.7483 117.709 13.2676C116.766 12.787 115.786 12.5465 114.77 12.5465C113.755 12.5465 112.802 12.787 111.859 13.2676C110.916 13.7483 110.145 14.4876 109.546 15.485C108.947 16.4829 108.648 17.744 108.648 19.2677Z" fill="black"/>
</g>
</g>
<defs>
<clipPath id="clip0_397_52">
<rect width="125" height="38.1526" fill="white"/>
</clipPath>
</defs>
</svg>
