<svg width="111" height="30" viewBox="0 0 111 30" fill="none" xmlns="http://www.w3.org/2000/svg">
<path d="M66.9421 9.48193C65.8383 8.90351 64.8041 8.3024 63.72 7.80727C62.0999 7.06686 60.3844 6.67318 58.5917 6.70347C57.8543 6.71558 57.1381 6.83974 56.5218 7.30155C55.6663 7.94354 55.6088 9.32141 56.5113 9.89825C57.1774 10.3238 57.9451 10.6326 58.7082 10.8507C60.3632 11.3261 62.0529 11.6819 63.7139 12.1408C65.543 12.6465 67.2995 13.3308 68.8378 14.4816C70.6518 15.8383 71.5754 17.6673 71.6859 19.9097C71.81 22.4535 71.1847 24.7565 69.392 26.6476C67.8824 28.2406 65.9866 29.1854 63.8669 29.5669C57.6468 30.6904 51.9234 29.5457 46.8677 25.609C46.6996 25.4772 46.5422 25.3319 46.3574 25.1744C47.8518 23.3908 49.3433 21.6101 50.8347 19.831C51.3828 20.2095 51.89 20.5821 52.4185 20.9212C54.7155 22.3959 57.2213 23.2227 59.9619 23.2878C60.7463 23.306 61.5246 23.262 62.2695 22.9789C63.1764 22.6322 63.5519 22.0689 63.5307 21.1074C63.5171 20.4746 63.1522 20.0308 62.6343 19.8113C61.6426 19.3919 60.6221 19.027 59.5895 18.7212C57.6846 18.1579 55.7497 17.6946 53.8508 17.1102C52.5714 16.7149 51.392 16.076 50.3396 15.228C48.5787 13.8093 47.8125 11.9227 47.7322 9.71209C47.5794 5.47551 49.9898 2.12321 54.184 0.724153C56.3553 0.000396669 58.5856 -0.0934793 60.8371 0.0670186C63.4277 0.251743 65.9185 0.842255 68.211 2.09444C69.0694 2.56383 69.8643 3.1498 70.6896 3.68126C70.85 3.78422 70.9137 3.88264 70.7774 4.07494C69.4844 5.88736 68.2003 7.70583 66.9421 9.48193Z" fill="white"/>
<path d="M0 0.516602H8.02188V22.4004H22.0503V29.4729H0V0.516602Z" fill="white"/>
<path d="M36.5469 29.4808H28.4296V29.0416C28.4296 25.6788 28.4311 22.3144 28.4235 18.9515C28.4235 18.7728 28.3842 18.5699 28.2948 18.42C24.9335 12.8692 21.563 7.32443 18.1925 1.77815C17.9458 1.37236 17.7004 0.968087 17.4143 0.497195C17.5883 0.497195 17.6943 0.497195 17.8019 0.497195C20.6257 0.497195 23.4496 0.501737 26.2735 0.489624C26.5445 0.489624 26.6656 0.592585 26.7928 0.810621C30.1966 6.64458 33.3475 12.6133 36.297 18.688C36.4439 18.9908 36.5347 19.3527 36.5363 19.6873C36.5544 22.7867 36.5469 25.8847 36.5469 28.9841V29.4808Z" fill="white"/>
<path d="M75.7338 0.507568H83.7936V29.4699H75.7338V0.507568Z" fill="white"/>
<path d="M39.2818 14.0635C37.3407 12.4919 35.4359 10.949 33.4993 9.38183C33.8082 8.83526 34.1141 8.2917 34.4214 7.75115C35.7448 5.42543 37.0681 3.09821 38.4021 0.777043C38.4747 0.65137 38.6519 0.507527 38.7806 0.506013C41.6908 0.490872 44.601 0.493899 47.5823 0.493899C44.8084 5.02873 42.0587 9.52269 39.2818 14.0621V14.0635Z" fill="white"/>
<path fill-rule="evenodd" clip-rule="evenodd" d="M88.5889 22.39L95.7331 15.2462L88.5889 8.10255L95.7331 0.958862L110.011 15.2462L95.7331 29.5245L88.5889 22.39Z" fill="white"/>
</svg>
