<svg width="137" height="29" viewBox="0 0 137 29" fill="none" xmlns="http://www.w3.org/2000/svg">
<g clip-path="url(#clip0_343_1163)">
<path d="M13.3986 25.5303L14.0048 25.6264L14.075 28.7254C14.0818 29.0292 13.4362 29.0326 13.4157 28.8147C13.3472 28.1249 13.4876 27.5672 13.2907 26.8018L12.6673 27.7748C12.1193 28.6311 11.9892 27.0747 11.1894 26.7915C11.3264 27.8486 11.3538 28.9451 10.9976 28.9537C10.876 28.9571 10.7682 28.9794 10.5695 28.861C10.501 27.7834 10.5267 26.6062 10.7151 25.4308C11.3179 25.0618 11.7203 25.9164 12.2409 26.9134C12.7512 26.5839 13.0509 26.0811 13.3986 25.5303Z" fill="black"/>
<path d="M118.796 27.4505L117.341 27.5363C117.08 27.5517 117.024 28.1351 117.251 28.2312C117.709 28.4234 118.286 28.1677 118.722 28.3136L119.092 28.4389C119.199 28.4749 119.195 28.8867 119.08 28.8885L116.421 28.9176L116.436 25.3793L118.887 25.3432C119.06 25.3415 119.125 25.484 119.154 25.5595C119.197 25.6727 119.181 25.973 118.995 25.9799L117.217 26.0434C117.077 26.0828 117.09 26.6954 117.231 26.704L118.736 26.8018C118.928 26.8138 118.978 27.4402 118.798 27.4505H118.796Z" fill="black"/>
<path d="M100.902 28.9245C99.6521 29.2763 99.6658 27.4316 98.8952 27.6941C98.4808 27.8348 98.8181 28.6379 98.5441 28.8953C98.4208 29.012 97.9242 29.0103 97.9276 28.825L97.9619 25.3553L99.7514 25.3776C100.341 25.3844 100.767 25.7911 100.858 26.287C100.955 26.8241 100.733 27.3046 100.156 27.5998L100.902 28.9262V28.9245ZM100.195 26.6337C100.228 26.4174 100.118 26.0914 99.7925 26.0434C99.3781 25.9833 98.9774 25.9919 98.5749 26.0451C98.5219 26.366 98.4602 26.8001 98.6503 27.0506C98.8044 27.2531 100.08 27.3973 100.195 26.6319V26.6337Z" fill="black"/>
<path d="M47.3695 28.8542C46.128 29.4101 46.4191 27.4865 45.1775 27.7336L45.0748 28.861C45.0576 29.0566 44.4531 29.0137 44.3915 28.8507L44.4155 25.393L46.2718 25.3759C46.8575 25.3707 47.2445 25.8203 47.2942 26.2442C47.3712 26.8979 47.277 27.3664 46.5235 27.5895L47.3695 28.8542ZM46.3643 27.0421C46.6879 26.8465 46.7325 26.6148 46.6777 26.4432C46.5047 25.8975 45.9481 25.9627 45.0902 26.0554C45.0405 26.3385 44.9566 26.8242 45.1741 27.0438C45.4241 27.296 46.0663 27.2223 46.3643 27.0421Z" fill="black"/>
<path d="M95.4531 27.4367L93.8793 27.5534C93.6412 27.5706 93.7526 28.2741 94.0471 28.2861L95.6654 28.3531C95.835 28.3599 95.8555 28.9125 95.7151 28.9159L93.1035 28.9622L93.1258 25.3484L95.763 25.3827C95.8435 25.5492 95.8281 25.9696 95.7048 25.973L94.0557 26.0279C93.8228 26.0348 93.7491 26.2355 93.756 26.3831C93.7645 26.5925 93.9015 26.7744 94.1927 26.7812L95.4257 26.8104C95.5815 26.8138 95.6175 27.4247 95.4548 27.4367H95.4531Z" fill="black"/>
<path d="M40.4835 28.9863C39.9115 28.9743 39.3978 28.9108 39.0399 28.5264C38.2966 27.7319 38.3377 26.3557 39.206 25.6916C39.7779 25.2557 40.5006 25.2094 41.1582 25.4685C41.7199 25.6916 42.2063 26.2596 42.2405 26.9906C42.2936 28.0888 41.7028 29.0103 40.4835 28.9846V28.9863ZM40.1119 28.4663C40.7866 28.5727 41.2644 28.2089 41.4322 27.8074C41.6583 27.2669 41.5538 26.7126 41.2593 26.3505C40.9168 25.9301 40.2763 25.8443 39.754 26.1034C39.319 26.3196 39.1957 26.9546 39.2402 27.4076C39.2796 27.8057 39.6427 28.3925 40.1119 28.4663Z" fill="black"/>
<path d="M77.1515 26.9648L78.5951 28.8679C78.3759 28.9725 77.8879 29.0343 77.7166 28.8747L76.6343 27.5105C76.1497 27.7919 76.0384 28.2896 76.1856 28.8782C75.9356 28.9588 75.689 28.9485 75.4253 28.9365L75.4578 25.429C75.5674 25.2866 76.0521 25.2918 76.0983 25.4342L76.2182 26.9648L77.5334 25.5286L77.9821 25.3432C78.1156 25.2883 78.4958 25.4119 78.3228 25.6127L77.1532 26.9666L77.1515 26.9648Z" fill="black"/>
<path d="M82.9998 27.3836C82.4278 27.641 81.8421 27.4368 81.2376 27.502L81.2154 28.4852L82.9655 28.4989C83.0923 28.4989 83.231 28.7718 83.1608 28.9022L80.5355 28.9262C80.4704 27.6787 80.4858 26.5771 80.6331 25.3793L83.1676 25.3501C83.243 25.5972 83.2498 25.7688 83.1984 26.0125L81.265 26.0039C81.1828 26.215 81.1862 26.5805 81.2958 26.7246L82.808 26.7692C83.0101 26.7744 83.1762 27.3046 82.9964 27.3853L82.9998 27.3836Z" fill="black"/>
<path d="M62.4566 27.5912C62.5216 27.6856 62.5867 27.7388 62.6569 27.7182C62.71 27.7027 62.7888 27.6358 62.7922 27.5225L62.8453 25.6006C62.8504 25.3964 63.2101 25.4531 63.3214 25.4496L63.2769 28.8679C63.1142 28.9005 62.9806 28.9537 62.8881 28.897C62.8059 28.8473 62.7254 28.7409 62.6741 28.6362C62.4771 28.2364 62.174 28.027 61.8897 27.7182L61.1619 26.9288C60.6191 28.0785 61.2493 29.0377 60.566 28.9622C60.4478 28.9485 60.244 28.9159 60.244 28.6946L60.2543 25.7722C60.2543 25.5818 60.3588 25.3999 60.4581 25.3553C60.9872 25.115 61.3178 25.9387 61.5935 26.3402L62.4549 27.5946L62.4566 27.5912Z" fill="black"/>
<path d="M28.6604 27.1622C29.0766 27.5088 29.1759 28.0133 29.0183 28.3273C28.7854 28.7924 28.4703 29.0137 27.9206 28.9725C27.2185 28.9193 26.4239 28.9434 26.3896 28.4852C26.3811 28.3754 26.4085 28.1626 26.5181 28.0751C26.8349 27.8245 27.0746 28.5041 27.8367 28.444C28.0405 28.4286 28.4601 28.118 28.3419 27.9224C27.9943 27.3509 26.3896 27.6255 26.4102 26.3745C26.4188 25.8786 26.6671 25.4874 27.2596 25.3621C27.7888 25.2506 28.3984 25.345 28.8437 25.6418C28.931 25.7002 28.8899 25.973 28.8317 26.0331C28.4994 26.3797 27.8521 25.7516 27.263 26.0725C27.1517 26.1326 27.174 26.577 27.311 26.6405C27.734 26.8344 28.2717 26.8396 28.6587 27.1605L28.6604 27.1622Z" fill="black"/>
<path d="M72.7196 28.8027L72.384 28.2518C72.2607 28.0494 71.9302 28.1952 71.7418 28.1695C71.1647 28.0957 70.8325 28.1901 70.6287 28.7735C70.5396 29.0257 69.9368 29.0566 69.7947 28.7941C70.305 27.7748 70.7914 26.692 71.2161 25.6642C71.3085 25.4411 71.5003 25.3536 71.6664 25.3364C71.8874 25.3141 72.05 25.4788 72.1614 25.7259L73.5331 28.813C73.3378 29.0206 72.872 29.0481 72.7213 28.801L72.7196 28.8027ZM72.1614 27.5603C72.0381 27.0541 71.9439 26.6251 71.6493 26.2476C71.3428 26.7229 71.2143 27.0884 71.1373 27.5655L72.1614 27.5603Z" fill="black"/>
<path d="M23.8859 28.8301C23.302 29.1047 22.4046 29.0086 21.884 28.746C21.6699 28.6379 21.7265 28.2793 21.8104 28.1506C22.0604 27.7714 23.1581 28.9897 23.5263 28.2467C23.9715 27.3475 21.8463 27.7267 21.759 26.5135C21.7179 25.9456 22.0022 25.496 22.617 25.3587C23.2728 25.2128 24.1462 25.496 24.2181 25.8409C24.2421 25.9558 24.1839 26.0742 24.0657 26.1703C23.8534 26.3437 22.5313 25.568 22.4663 26.2956C22.4115 26.9099 23.9835 26.6628 24.3123 27.6152C24.4442 27.9979 24.4099 28.5813 23.8876 28.8284L23.8859 28.8301Z" fill="black"/>
<path d="M18.9403 28.4354C18.8598 28.0493 18.5361 28.1849 18.2912 28.1677C17.8597 28.1369 17.363 28.0047 17.113 28.4234C17.0017 28.6105 16.9863 28.8764 16.8613 28.9348C16.7123 29.0051 16.3253 29.0051 16.2294 28.8215L17.5634 25.6418C17.661 25.4085 17.8374 25.3244 18.0052 25.3347C18.2467 25.3501 18.3991 25.4754 18.507 25.7293L19.7742 28.7409C19.8616 28.9502 19.4437 28.9863 19.2982 28.9537C19.0721 28.9039 18.9916 28.6877 18.9385 28.4337L18.9403 28.4354ZM18.5721 27.4436L18.0498 26.2373C17.7432 26.6491 17.5959 27.0455 17.4846 27.6203C17.8648 27.689 18.2501 27.7182 18.5704 27.4436H18.5721Z" fill="black"/>
<path d="M112.035 27.8314C112.215 28.1094 112.426 28.3393 112.686 28.42C113.285 28.607 113.878 27.6838 114.195 28.142C114.311 28.3102 114.279 28.6053 113.991 28.7512C113.439 29.0326 112.52 29.1184 111.967 28.7804C111.008 28.1952 110.886 27.0524 111.333 26.239C111.852 25.2952 112.936 25.091 113.928 25.5423C114.135 25.6367 114.241 25.7705 114.248 25.9559C114.255 26.1704 113.97 26.4054 113.731 26.2596C113.2 25.9387 112.612 25.8546 112.206 26.2853C111.801 26.716 111.674 27.2703 112.034 27.8314H112.035Z" fill="black"/>
<path d="M123.132 26.1618C123.023 26.0245 122.86 26.0142 122.707 25.9662C122.565 25.9233 122.427 25.8443 122.266 25.8907C122.06 25.949 121.815 26.1566 121.933 26.3746C121.945 26.3969 121.964 26.4329 121.963 26.4604C121.957 26.5702 122.022 26.7109 122.139 26.7298C122.255 26.7487 122.411 26.7641 122.514 26.7366C122.636 26.8585 122.791 26.9134 122.969 26.9048L123.632 27.2943C123.622 27.4985 123.646 27.7199 123.805 27.852V28.1352C123.699 28.1935 123.658 28.3136 123.666 28.4269C123.627 29.1871 121.557 29.1253 121.178 28.5539C121.029 28.3273 121.391 28.106 121.579 28.1746C121.678 28.2107 121.81 28.1437 121.993 28.2999C122.329 28.5865 123.163 28.5453 123.129 28.0133C123.091 27.4299 121.427 27.6169 121.243 26.7143C121.163 26.3162 121.171 25.8426 121.541 25.5886C122.166 25.1631 122.992 25.242 123.615 25.6744C123.721 25.7482 123.661 26.0245 123.5 26.0657L123.132 26.1566V26.1618Z" fill="black"/>
<path d="M106.115 25.5114L104.76 28.8747C104.683 29.0069 104.175 29.0137 104.077 28.8919L102.808 25.8718C102.738 25.7053 102.738 25.417 102.836 25.3587C103.493 24.9709 103.956 26.716 104.363 27.9018L105.286 25.7482C105.365 25.5646 105.469 25.4617 105.552 25.3827C105.671 25.2695 106.192 25.3175 106.113 25.5114H106.115Z" fill="black"/>
<path d="M90.658 25.5886L90.6614 26.0211C90.2881 26.0725 89.9953 25.9713 89.6939 25.8838C89.622 25.8632 89.4952 25.8701 89.4233 25.8889C89.2623 25.9301 89.0534 26.0125 88.9969 26.1721C88.9575 26.2853 89.05 26.3883 89.0825 26.4689C89.1253 26.5753 89.1613 26.6989 89.2914 26.7298C89.4541 26.7675 89.6425 26.7881 89.8103 26.7641C89.8001 26.867 89.8583 26.9717 89.9285 26.9803L90.1288 27.0077L90.4919 27.0301C90.7094 27.2137 90.8104 27.4831 90.9526 27.7285C90.9269 27.8932 90.9303 28.094 90.9543 28.2587L90.3994 28.8713C89.0654 29.1939 88.1132 28.6499 88.4797 28.2535C88.8205 27.8863 89.473 28.7649 90.0792 28.3685C90.2624 28.2484 90.2248 27.8537 90.0501 27.7216C89.7007 27.4591 88.7674 27.5431 88.4146 26.8138C88.2228 26.4175 88.2948 25.973 88.6338 25.6521C89.1818 25.1339 90.1134 25.2883 90.6563 25.5886H90.658Z" fill="black"/>
<path d="M51.1558 28.8627C50.9435 28.9468 50.7602 28.9451 50.4485 28.9537L50.4194 26.0348L49.3748 25.9936C49.2087 25.9867 49.2104 25.3793 49.4502 25.3776L52.048 25.3621C52.2004 25.4788 52.1765 25.8838 52.1148 26.0228H51.1815L51.1592 28.8627H51.1558Z" fill="black"/>
<path d="M35.6748 28.8645C35.6115 29.0052 35.1885 28.9863 34.9984 28.8748L34.9487 26.0434L33.9863 26.0142C33.9366 25.762 33.9418 25.5921 34.0171 25.3416L36.7331 25.3484C36.7742 25.5852 36.776 25.7688 36.7417 26.0005L35.7553 26.0262L35.6731 28.8645H35.6748Z" fill="black"/>
<path d="M67.3492 28.8404C67.2567 28.9811 66.8903 29.0052 66.7036 28.9125L66.6265 26.1961C66.618 25.8958 65.9159 26.0176 65.6932 26.0039C65.4706 25.9902 65.4963 25.3587 65.6658 25.3604L68.3236 25.3793C68.4709 25.3793 68.4726 25.9524 68.3271 25.9713L67.3989 26.1017L67.3475 28.8387L67.3492 28.8404Z" fill="black"/>
<path d="M108.91 28.8919C108.639 28.9948 108.43 28.9657 108.156 28.8764L108.175 25.4874C108.175 25.3089 108.749 25.2695 108.841 25.4273L108.91 28.8919Z" fill="black"/>
<path d="M57.2667 25.3481L57.2617 28.9379L57.9553 28.9389L57.9603 25.3491L57.2667 25.3481Z" fill="black"/>
<path d="M136.178 22.0896L58.0692 22.2217L57.85 21.9489C57.802 21.3105 57.9818 20.7545 57.7369 20.1351C56.0056 21.6743 53.9575 22.2131 51.7877 22.1839C50.3098 22.1634 48.8576 22.1016 47.539 21.4083L45.7083 20.099L44.7425 21.6434C44.287 21.9746 43.4598 21.8287 42.9581 21.6932L42.9632 13.7053L44.8915 13.6778C45.6381 16.4955 46.8454 19.0351 49.832 19.6872C52.4196 20.2535 55.6768 19.471 56.1923 16.8026C56.4937 15.2428 55.437 14.0931 54.002 13.6676L46.4122 11.4162C43.7595 10.6303 42.4357 7.7217 42.9803 5.06193C42.8074 3.63081 41.5298 2.68187 40.1461 2.66815L37.7743 2.72477L37.7572 18.2767C37.7572 19.0008 38.122 19.4641 38.8737 19.4693L41.0709 19.483C41.1428 20.1608 41.1514 20.7751 41.0606 21.501L30.9432 21.4838C30.8284 20.7717 30.8575 20.1557 30.9123 19.4881L33.1334 19.4778C33.678 19.4761 34.2295 19.0368 34.2295 18.4157V2.71448L31.4432 2.72477C30.9757 2.72477 30.3575 3.04223 30.0167 3.36312C28.9019 4.40643 28.6844 6.584 28.6244 8.29312L26.6619 8.27939L26.6345 2.79513C26.4564 2.47424 25.2696 2.6201 25.2696 3.14175L25.244 18.8309C25.244 19.2359 25.9392 19.4521 26.2218 19.459L28.4635 19.5122L28.4292 21.501L18.3734 21.4804C18.394 20.7236 18.3443 20.2071 18.2193 19.5551C18.9728 19.4161 19.5842 19.4744 20.3685 19.4899C20.8223 19.5002 21.6083 19.169 21.6066 18.5667L21.5672 3.40945L14.6504 21.4118C13.9175 21.5439 13.2839 21.5902 12.6091 21.3963L5.69749 3.37513L5.61015 18.3848C5.60672 19.0145 6.17185 19.4538 6.70958 19.4607L8.98206 19.4864L8.92898 21.4958H0.037675L0.0256875 19.4813L2.22625 19.459C2.83419 19.4521 3.23149 19.0403 3.23149 18.4208V3.52442C3.22978 3.08513 2.93523 2.68016 2.51224 2.67329L0.0325375 2.62525L0 0.526607L8.02991 0.511163L14.2874 16.3702L20.377 0.495719L45.3316 0.506015C45.4515 0.670749 45.4549 0.90069 45.5148 1.18726C48.5716 -0.607654 53.0584 -0.405168 55.6939 2.03323L56.6632 0.509447C57.1855 0.645009 57.6119 0.284654 58.1531 0.284654L136.99 0.27779L136.998 22.0552C136.692 22.1908 136.425 22.1634 136.176 22.0896H136.178ZM57.9099 8.50933L56.4885 8.40122L56.1289 6.9169C55.5038 4.33607 53.3666 2.38501 50.6831 2.23229C49.546 2.16708 48.5271 2.27004 47.5424 2.80028C46.5577 3.33051 46.0782 4.32235 46.1056 5.41028C46.1296 6.39525 46.7324 7.46945 47.8027 7.80578L55.1562 10.1138C56.1888 10.4381 57.0297 10.7967 57.9322 11.5089L57.9082 8.50933H57.9099ZM87.2074 10.7984C87.9043 10.529 88.264 9.88897 88.4301 9.34329C88.6202 8.71868 88.4267 7.99454 87.9557 7.51063C86.8991 6.42099 84.8578 6.723 84.0598 5.77921C83.731 5.38968 83.8406 4.7582 84.1403 4.38412C84.7499 3.62394 86.3836 3.74406 87.6646 4.61235C87.8598 4.74448 88.3068 4.08211 88.067 3.88477C87.1714 3.14519 85.8904 2.82602 84.803 3.09371C83.7156 3.3614 82.9295 4.12329 82.9347 5.13057C82.9398 6.13785 83.5495 6.93749 84.5941 7.2172L86.5686 7.74572C87.2433 7.9259 87.6012 8.41838 87.5447 9.07903C87.5002 9.61613 87.0601 10.0022 86.4453 10.155C85.2894 10.4415 84.2293 9.91986 83.2977 9.21974C83.058 9.05673 82.5442 9.78945 82.76 9.9559C84.0718 10.9718 85.6558 11.399 87.2056 10.7984H87.2074ZM114.717 7.0456C114.717 4.83371 112.927 3.04223 110.722 3.04223C108.516 3.04223 106.726 4.83542 106.726 7.0456C106.726 9.25578 108.516 11.049 110.722 11.049C112.927 11.049 114.717 9.25578 114.717 7.0456ZM71.5825 10.9289C71.9284 10.9992 72.1887 10.9958 72.509 10.886L72.5038 3.25329C72.2624 3.16063 71.7007 3.04909 71.5089 3.26702L68.7791 7.30986L67.1095 4.89548C66.3628 3.81613 66.1727 2.79513 64.9962 3.26874L65.0305 10.807C65.0305 11.049 65.9141 11.0507 65.9175 10.8105L65.9878 4.96927L68.7791 8.82678L71.2897 5.19063C71.3119 5.06022 71.3993 5.04134 71.466 5.11856C71.5071 5.16661 71.5791 5.23696 71.5791 5.35708L71.5842 10.9306L71.5825 10.9289ZM80.0012 8.86625L80.8197 10.8877C81.14 11.0198 81.5099 11.0455 81.8387 10.8139L78.3417 3.20181C78.2133 3.01992 77.6362 3.07483 77.4101 3.20525L73.9406 10.9203C74.3071 11.0095 74.5914 10.9889 74.8876 10.9357L75.8432 8.85939L80.0012 8.86968V8.86625ZM94.1721 10.759C95.167 10.3403 95.4616 9.35531 95.352 8.49389C95.2355 7.57927 94.5214 7.04732 93.5916 6.77962L91.54 6.18933C91.069 6.05377 90.7985 5.58531 90.795 5.12714C90.7916 4.77708 91.0211 4.30862 91.4441 4.11128C93.0966 3.34252 94.4153 4.69986 94.6601 4.61749C94.8297 4.56087 94.965 4.31891 95.0078 4.12158C95.1174 3.62051 93.1052 2.66128 91.3071 3.27217C90.2419 3.63424 89.8001 4.55229 89.9508 5.6488C90.0501 6.36779 90.5776 6.91347 91.2968 7.12282L93.5556 7.77661C94.0847 7.92933 94.4855 8.41667 94.4872 8.92974C94.4889 9.44282 94.0899 9.90957 93.5659 10.0932C92.3448 10.5222 91.1872 9.97306 90.1648 9.19744C89.9679 9.04815 89.5329 9.73454 89.7487 9.94217C90.8824 11.0387 92.6668 11.3887 94.1704 10.7555L94.1721 10.759ZM103.416 10.5822L103.432 4.07525L105.889 4.03235C106.019 3.7269 106.023 3.4472 105.898 3.17264H99.9021C99.849 3.49525 99.837 3.78353 99.9501 4.05465L102.483 4.07181L102.512 10.8036C102.512 10.9889 102.959 11.0129 103.091 10.9735C103.197 10.9426 103.414 10.8842 103.416 10.5839V10.5822ZM121.457 10.5187C121.67 10.8019 121.791 10.9443 122.069 10.9838C122.276 11.0129 122.766 10.9992 122.737 10.7109L120.632 7.81779C121.545 7.54152 122.204 7.06963 122.478 6.30087C122.757 5.5201 122.644 4.65868 122.043 3.97572C121.45 3.30306 120.373 3.16063 119.474 3.16921L116.385 3.19667L116.395 10.8825C116.745 11.0061 117.015 10.9992 117.337 10.9306L117.352 8.01684L119.579 8.02371L121.456 10.5205L121.457 10.5187ZM127.292 10.7435L127.312 4.10613C128.898 3.68915 130.361 4.59347 129.864 3.2001L123.87 3.18122C123.55 4.57288 124.579 3.74921 126.355 4.03921L126.359 10.4021C126.359 10.7229 126.48 10.9306 126.694 10.9752C126.833 11.0044 127.288 11.0164 127.29 10.7418L127.292 10.7435ZM69.0206 19.3251C69.7792 19.1432 70.1971 18.6902 70.2622 18.0381C70.3204 17.4444 69.9128 16.8455 69.2912 16.6551L67.7927 16.1969C67.3886 16.0734 67.2173 15.6341 67.3132 15.3664C67.6352 14.4672 68.9966 14.6371 69.471 15.0506C69.6525 15.2085 69.8375 15.2085 69.971 15.0506C70.3307 14.6182 68.8202 13.7156 67.4776 14.3059C66.8492 14.5822 66.6094 15.1639 66.6693 15.8245C66.7122 16.2913 67.1882 16.7357 67.7636 16.9125L69.1542 17.3397C69.4196 17.4221 69.6097 17.6967 69.6131 17.9386C69.6165 18.1325 69.4778 18.5118 69.2467 18.6181C68.4281 18.9991 67.5855 18.7348 66.9039 18.1857C66.7481 18.0605 66.5512 18.4054 66.5563 18.5272C66.5769 19.0077 68.0308 19.5619 69.0206 19.3234V19.3251ZM89.997 18.0107L90.5399 19.1535C90.6152 19.3131 91.0314 19.3423 91.2591 19.217L89.1562 14.4689C89.0432 14.2115 88.8702 14.1 88.6578 14.112C88.3958 14.1257 88.3205 14.2784 88.204 14.5444L86.1764 19.1398C86.2175 19.3165 86.721 19.3509 86.7895 19.2016L87.3426 18.0124H89.9987L89.997 18.0107ZM103.125 17.0051C103.17 16.7306 103.156 16.6242 103.13 16.4852L100.471 16.468L100.46 14.7572L103.209 14.8207C103.476 14.8276 103.56 14.5736 103.538 14.4466C103.495 14.1944 103.265 14.2115 103.041 14.2081L99.8285 14.1566L99.8405 19.2702L103.51 19.2668C103.575 19.1106 103.527 18.7623 103.428 18.7623H100.49L100.457 17.0463L103.125 17.0068V17.0051ZM110.169 19.042L110.609 18.7417C110.66 18.7074 110.8 18.7263 110.872 18.625C110.922 18.5564 110.836 18.4757 110.824 18.4139L110.806 16.9811C110.804 16.8078 110.857 16.7031 110.799 16.5315L108.74 16.5658C108.612 16.5676 108.576 17.0635 108.698 17.1047L110.037 17.2145C110.304 17.2368 110.314 18.1308 110.093 18.3264C109.324 19.0128 108.086 18.951 107.384 18.2509C106.682 17.5508 106.584 16.3462 107.197 15.5139C107.81 14.6817 108.978 14.4603 109.901 15.0712C110.059 15.1759 110.124 15.4076 110.343 15.2548C110.444 15.1845 110.645 14.9545 110.586 14.7212C109.734 14.1068 108.458 13.8975 107.476 14.4483C106.666 14.9031 106.201 15.7679 106.177 16.5401C106.148 17.4513 106.399 18.3762 107.173 18.9202C108.057 19.5413 109.338 19.6065 110.169 19.042ZM120.865 16.5452C120.635 16.5281 120.402 16.4165 120.161 16.4646L120.021 16.6002L119.089 16.5813C118.904 16.4526 118.69 16.42 118.383 16.396C118.294 15.8692 118.281 15.3612 118.395 14.7984L121.312 14.7555C121.51 14.7521 121.507 14.2235 121.31 14.2201L117.789 14.1566L117.786 19.2616L121.404 19.2736C121.457 19.066 121.449 18.9236 121.397 18.7331L118.346 18.74L118.349 17.0206L120.849 17.0274C121 17.0274 121.111 16.8747 121.123 16.7941C121.149 16.6122 121.048 16.559 120.867 16.547L120.865 16.5452ZM127.747 18.3608C128.311 16.1317 125.031 16.6482 124.881 15.6787C124.84 15.4127 124.941 15.0318 125.227 14.891C126.504 14.2596 127.533 15.8451 127.602 14.7229C126.924 14.1292 125.9 13.9198 125.036 14.3093C124.425 14.5856 124.148 15.1776 124.244 15.8039C124.322 16.317 124.754 16.7134 125.34 16.8953L126.607 17.2883C127.037 17.4221 127.27 17.8339 127.153 18.1634C126.84 19.0454 125.232 18.9116 124.749 18.3281C124.593 18.1394 124.281 18.1102 124.172 18.2938C124.089 18.4311 124.076 18.7039 124.269 18.8241C125.696 19.7147 127.455 19.5139 127.746 18.3608H127.747ZM74.4047 14.8705L74.427 15.2119L74.4835 19.1501C74.4869 19.3423 74.7523 19.2719 74.8397 19.2222C75.0212 19.1209 75.112 18.9854 75.112 18.7211V14.7744C75.5829 14.7606 76.0624 14.8327 76.5196 14.668C76.5967 14.6405 76.7286 14.6628 76.7799 14.5564C76.8193 14.4758 76.7851 14.3728 76.708 14.3522L76.5145 14.2956C76.1035 14.1772 75.6651 14.2132 75.2421 14.2132H74.5211L73.0022 14.2167C72.7556 14.2167 72.7316 14.438 72.7607 14.5461C72.8652 14.9442 73.8892 14.4758 74.4064 14.8705H74.4047ZM79.5353 14.438L79.5884 19.1192C79.5901 19.3131 79.9892 19.3594 80.1193 19.229L80.145 17.4496L81.5338 17.4564L82.7429 19.0866C82.909 19.3114 83.4142 19.3749 83.5546 19.1192C83.1933 18.5203 82.6161 17.9918 82.3507 17.3174C82.9038 17.048 83.3439 16.7306 83.4347 16.2913C83.5494 15.7422 83.5734 15.1038 83.1265 14.7486C82.7942 14.4844 82.2736 14.2355 81.8472 14.2321L79.7323 14.2098C79.6107 14.2098 79.5319 14.3385 79.5336 14.438H79.5353ZM94.7989 15.1965L94.7646 17.3844L94.7903 19.2788H95.1688C95.227 19.2839 95.3075 19.2273 95.3075 19.1278L95.3417 14.8276L96.8898 14.7709C97.0148 14.7658 97.0679 14.3402 96.9481 14.227L93.1018 14.2081C93.047 14.4243 93.0521 14.5581 93.0915 14.7623H94.3348C94.494 14.7623 94.631 14.8104 94.6893 14.9013C94.7441 14.9871 94.7526 15.1176 94.7971 15.1965H94.7989ZM114.517 19.0437L114.506 14.3968C114.506 14.1566 113.972 14.1394 113.972 14.3265V19.1621C113.974 19.3457 114.517 19.3474 114.515 19.0437H114.517Z" fill="black"/>
<path d="M120.5 7.02177L117.349 7.05437L117.358 4.02053C119.399 3.77514 121.886 3.89011 121.723 5.69189C121.677 6.21354 121.209 7.01491 120.502 7.02177H120.5Z" fill="black"/>
<path d="M110.713 10.1603C112.426 10.1603 113.814 8.76897 113.814 7.05267C113.814 5.33637 112.426 3.94504 110.713 3.94504C109 3.94504 107.612 5.33637 107.612 7.05267C107.612 8.76897 109 10.1603 110.713 10.1603Z" fill="black"/>
<path d="M79.5782 8.01532L76.1549 8.03248L77.9376 4.28479L79.5782 8.01532Z" fill="black"/>
<path d="M89.776 17.3948L87.6748 17.4309C87.8991 16.5815 88.1303 15.8453 88.6389 14.989L89.776 17.3948Z" fill="black"/>
<path d="M80.0132 16.7548L80.0081 14.8998C81.4397 14.6459 82.6813 14.5481 82.9244 15.7269C82.9981 16.0821 82.6607 16.5712 82.1864 16.7171C81.4877 16.9315 80.7016 16.7788 80.0132 16.7548Z" fill="black"/>
</g>
<defs>
<clipPath id="clip0_343_1163">
<rect width="137" height="29" fill="white"/>
</clipPath>
</defs>
</svg>
