<svg width="98" height="28" viewBox="0 0 98 28" fill="none" xmlns="http://www.w3.org/2000/svg">
<g clip-path="url(#clip0_326_3311)">
<path d="M6.35983 19.0953V25.7291H5.72336V22.7174H2.06774V25.7291H1.43127V19.0953H2.06774V22.1477H5.72336V19.0953H6.35983ZM13.0591 23.743H9.18315C9.28923 24.7035 9.96649 25.2488 10.8722 25.2488C11.4924 25.2488 12.0391 24.9721 12.341 24.4756L12.8714 24.7035C12.4716 25.4279 11.7045 25.8267 10.8559 25.8267C9.58298 25.8267 8.563 24.8907 8.563 23.4663C8.563 22.0419 9.58298 21.1384 10.8559 21.1384C12.1289 21.1384 13.0754 22.0419 13.0754 23.4663C13.0754 23.564 13.0672 23.6535 13.0591 23.743ZM12.4634 23.214C12.3737 22.2779 11.729 21.7326 10.8478 21.7326C9.96649 21.7326 9.30555 22.2535 9.19131 23.214H12.4634ZM19.4809 21.236V25.7291H18.8607V24.85C18.5262 25.4686 17.8163 25.8267 17.0656 25.8267C15.809 25.8267 14.7808 24.8419 14.7808 23.4744C14.7808 22.107 15.8008 21.1302 17.0656 21.1302C17.8244 21.1302 18.5262 21.4884 18.8607 22.0907V21.2279H19.4809V21.236ZM18.8607 23.4988C18.8852 22.5465 18.1345 21.7488 17.1798 21.7244C16.2251 21.7 15.4254 22.4488 15.401 23.4012V23.4744C15.401 24.4756 16.1762 25.2488 17.1227 25.2488C18.0692 25.2488 18.8607 24.5407 18.8607 23.4988ZM21.8391 18.7047H22.4592V25.7372H21.8391V18.7047ZM26.7595 21.7651H25.7232V25.7291H25.1112V21.7651H24.2871V21.236H25.1112V19.4453H25.7232V21.236H26.7595V21.7651ZM32.5448 23.1163V25.7372H31.9247V23.1488C31.9247 22.286 31.3698 21.757 30.6518 21.757C29.9337 21.757 29.1667 22.164 29.1422 23.2465V25.7372H28.522V18.7047H29.1422V22.0419C29.4115 21.3988 30.1458 21.1384 30.7089 21.1384C31.8023 21.1384 32.5448 21.8709 32.5448 23.1163ZM34.5195 23.4826C34.5195 22.0581 35.6211 21.1384 36.9022 21.1384C37.4979 21.1302 38.0772 21.35 38.526 21.757L38.1425 22.1802C37.808 21.8872 37.3755 21.7244 36.9267 21.7244C35.9394 21.7244 35.1397 22.4163 35.1397 23.4744C35.1397 24.5326 35.9394 25.2244 36.9267 25.2244C37.3755 25.2326 37.808 25.0779 38.1425 24.7767L38.526 25.1919C38.0854 25.5988 37.506 25.8186 36.9022 25.8105C35.6211 25.8186 34.5195 24.907 34.5195 23.4826ZM44.7357 21.236V25.7291H44.1155V24.85C43.781 25.4686 43.0711 25.8267 42.3204 25.8267C41.0637 25.8267 40.0356 24.8419 40.0356 23.4744C40.0356 22.107 41.0556 21.1302 42.3204 21.1302C43.0792 21.1302 43.781 21.4884 44.1155 22.0907V21.2279H44.7357V21.236ZM44.1155 23.4988C44.14 22.5465 43.3811 21.7488 42.4264 21.7244H42.3693C41.4228 21.7244 40.6558 22.4814 40.6476 23.4256V23.4663C40.6476 24.4674 41.4228 25.2407 42.3612 25.2407C43.2995 25.2407 44.1155 24.5407 44.1155 23.4988ZM49.8438 21.2767L49.7295 21.8628C49.5337 21.7814 49.3297 21.7407 49.1175 21.7407C48.0486 21.7407 47.714 22.9372 47.714 24.0442V25.7372H47.0857V21.2442H47.714V22.343C47.9344 21.586 48.4158 21.1465 49.1257 21.1465C49.3705 21.1384 49.6153 21.1791 49.8438 21.2767ZM55.4904 23.743H51.6063C51.7124 24.7035 52.3896 25.2488 53.2954 25.2488C53.9155 25.2488 54.4622 24.9721 54.7642 24.4756L55.2946 24.7035C54.9029 25.4279 54.1277 25.8267 53.2791 25.8267C52.0061 25.8267 50.978 24.8907 50.978 23.4663C50.978 22.0419 51.998 21.1384 53.2791 21.1384C54.5602 21.1384 55.4986 22.0419 55.4986 23.4663C55.4986 23.564 55.4985 23.6535 55.4904 23.743ZM54.8947 23.214C54.805 22.2779 54.1603 21.7326 53.2791 21.7326C52.3978 21.7326 51.7369 22.2535 51.6226 23.214H54.8947ZM60.6148 23.9546H61.2431C61.3084 24.6058 61.9122 25.2326 62.8424 25.2326C63.9032 25.2326 64.4336 24.557 64.4336 23.9302C64.4336 23.2058 63.789 22.864 63.128 22.7012L62.2304 22.4895C60.8596 22.164 60.6556 21.3663 60.6556 20.8372C60.6556 19.7384 61.6674 19.0302 62.769 19.0302C63.8951 19.0302 64.7926 19.7221 64.8334 20.8291H64.197C64.1562 20.0965 63.5523 19.6244 62.7445 19.6244C61.9938 19.6244 61.2839 20.0965 61.2839 20.8372C61.2839 21.1465 61.3818 21.6756 62.3773 21.9035L63.2749 22.1151C64.3275 22.3756 65.0619 22.9453 65.0619 23.9058C65.0619 24.8419 64.2867 25.8349 62.8343 25.8349C61.5368 25.8267 60.6637 24.9151 60.6148 23.9546ZM69.0358 21.7651H67.9995V25.7291H67.3875V21.7651H66.5633V21.236H67.3875V19.4453H67.9995V21.236H69.0358V21.7651ZM75.0904 21.236V25.7291H74.4702V24.85C74.1357 25.4686 73.4258 25.8267 72.6751 25.8267C71.4184 25.8267 70.3903 24.8419 70.3903 23.4744C70.3903 22.107 71.4103 21.1302 72.6751 21.1302C73.4339 21.1302 74.1357 21.4884 74.4702 22.0907V21.2279H75.0904V21.236ZM74.4702 23.4988C74.4947 22.5465 73.7358 21.7488 72.7811 21.7244H72.724C71.7775 21.7244 71.0105 22.4814 71.0023 23.4256V23.4663C71.0023 24.4674 71.7775 25.2407 72.724 25.2407C73.6706 25.2407 74.4784 24.5407 74.4702 23.4988ZM84.3355 25.7372H83.7235V21.7733H81.5693V25.7372H80.9492V21.7733H78.4033V25.7372H77.7831V21.7733H76.8937V21.2442H77.7831V20.6581C77.7831 19.5349 78.2319 18.7128 79.407 18.7128H79.8313V19.2988H79.4967C78.6481 19.2988 78.4033 19.8686 78.4033 20.593V21.2442H80.9492V20.6581C80.9492 19.5349 81.3898 18.7128 82.573 18.7128H82.8423V19.2988H82.6627C81.8141 19.2988 81.5693 19.8686 81.5693 20.593V21.2442H84.3437L84.3355 25.7372ZM84.515 19.5837C84.515 19.836 84.3029 20.0151 84.0336 20.0151C83.7888 20.0395 83.5767 19.8605 83.5603 19.6163C83.5359 19.3721 83.7154 19.1605 83.9602 19.1442H84.0336C84.3029 19.136 84.515 19.3233 84.515 19.5837ZM90.7084 23.1163V25.7372H90.0882V23.1488C90.0882 22.286 89.5415 21.757 88.8153 21.757C88.089 21.757 87.3302 22.164 87.3057 23.2465V25.7372H86.6855V21.2442H87.3057V22.05C87.575 21.407 88.3094 21.1465 88.8724 21.1465C89.9658 21.1384 90.7084 21.8709 90.7084 23.1163ZM97.3913 21.236V25.0698C97.3913 27.243 96.4203 27.9756 94.9515 27.9756C94.1518 27.9837 93.4093 27.5605 93.0013 26.8767L93.5235 26.5919C93.8254 27.0884 94.3721 27.3895 94.9515 27.3895C96.0531 27.3895 96.7793 26.8279 96.7793 25.1023V24.8663C96.4448 25.4767 95.7348 25.8267 94.9841 25.8267C93.7275 25.8267 92.6994 24.8419 92.6994 23.4744C92.6994 22.107 93.7194 21.1302 94.9841 21.1302C95.743 21.1302 96.4448 21.4884 96.7793 22.0907V21.2279H97.3913V21.236ZM96.7711 23.4988C96.7956 22.5465 96.0368 21.7488 95.0821 21.7244H95.0249C94.0784 21.7244 93.3114 22.4895 93.3114 23.4337V23.4663C93.3114 24.4674 94.0866 25.2407 95.0249 25.2407C95.9633 25.2407 96.7711 24.5407 96.7711 23.4988Z" fill="black"/>
<path d="M32.6346 16.4256L31.5167 6.87792L27.7468 14.6837H25.2988L21.4882 6.87792L20.3703 16.4256H17.1879L19.0973 1.01745H21.7411L26.5147 11.1268L31.2474 1.01745H33.9401L35.8251 16.4256H32.6346ZM48.5545 12.1605H40.6557C40.9658 13.3651 41.9531 14.0407 43.3648 14.0407C44.4174 14.0407 45.47 13.6175 46.0983 12.8768L47.8282 14.5942C46.8409 15.9128 45.0049 16.6291 43.1608 16.6291C39.954 16.6291 37.6039 14.4395 37.6039 11.2163C37.6039 7.83838 40.158 5.73838 43.1608 5.73838C46.1391 5.73838 48.5871 7.83838 48.5871 11.0372C48.5953 11.3302 48.5708 11.6884 48.5545 12.1605ZM45.6659 10.2558C45.5761 9.02675 44.548 8.28606 43.2179 8.28606C42.0266 8.28606 40.9739 8.84768 40.6639 10.2558H45.6659ZM61.6674 0.439545V16.4256H58.7298V15.1314C57.9873 16.157 56.5348 16.6291 55.3679 16.6291C52.6752 16.6291 50.2354 14.5454 50.2354 11.1919C50.2354 7.83838 52.6833 5.75466 55.3679 5.75466C56.5756 5.75466 57.9954 6.20234 58.7298 7.25234V0.439545H61.6674ZM58.6401 11.2C58.6401 9.58838 57.2937 8.51396 55.931 8.51396C54.454 8.51396 53.2219 9.6535 53.2219 11.2C53.1974 12.6977 54.3888 13.9268 55.8902 13.9512C57.3916 13.9756 58.6237 12.7872 58.6482 11.2895C58.6401 11.257 58.6401 11.2244 58.6401 11.2ZM76.3714 6.05582C76.3714 8.57908 74.8211 11.0454 71.3286 11.0454H68.1463V16.4337H65.0292V1.01745H71.3286C74.8292 1.01745 76.3714 3.52443 76.3714 6.05582ZM73.2299 6.05582C73.2299 4.94071 72.6669 3.77675 71.2144 3.77675H68.1463V8.31861H71.1736C72.675 8.31047 73.2381 7.14652 73.2299 6.05582ZM85.9919 6.0721L85.3228 8.86396C84.8659 8.61164 84.3436 8.48141 83.8214 8.48141C82.32 8.48141 81.2918 9.86513 81.2918 12.8442V16.4256H78.3543V6.00699H81.2674V8.22094C81.8467 6.47908 83.0381 5.73838 84.3355 5.73838C84.8903 5.73838 85.5186 5.82792 85.9919 6.0721ZM86.661 11.2C86.661 7.88722 89.3048 5.74652 92.2913 5.74652C95.2779 5.74652 97.9217 7.89536 97.9217 11.2C97.9217 14.4884 95.2779 16.6372 92.2913 16.6372C89.3048 16.6372 86.661 14.4802 86.661 11.2ZM94.9351 11.2C94.9351 9.56396 93.7438 8.47327 92.2913 8.47327C90.8389 8.47327 89.6475 9.5721 89.6475 11.2C89.6475 12.8116 90.8389 13.9023 92.2913 13.9023C93.7438 13.9023 94.9351 12.8035 94.9351 11.2ZM11.068 10.1093C9.2239 5.59187 5.32348 2.18954 2.07585 4.11047C-1.32681 6.12094 -0.845379 15.5221 5.76411 17.4105C2.99792 15.0012 3.91998 9.21396 6.52298 6.34071C7.44505 6.30001 9.89301 7.96861 11.068 10.1093Z" fill="black"/>
<path d="M13.361 6.02326C12.5042 4.54186 11.0354 3.85 8.65272 4.66395C11.3863 2.82442 13.4997 3.5 14.5605 5.09535C16.6167 8.18837 15.2867 15.1721 10.9048 16.9709C14.0382 14.814 15.1725 8.89651 13.361 6.02326ZM9.54214 1.7907C9.54214 2.78372 8.71799 3.5814 7.69801 3.5814C6.67803 3.5814 5.85388 2.77558 5.85388 1.7907C5.85388 0.805814 6.67803 0 7.69801 0C8.71799 0 9.54214 0.797674 9.54214 1.7907Z" fill="black"/>
</g>
<defs>
<clipPath id="clip0_326_3311">
<rect width="98" height="28" fill="white"/>
</clipPath>
</defs>
</svg>
