<svg width="128" height="32" viewBox="0 0 128 32" fill="none" xmlns="http://www.w3.org/2000/svg">
<g clip-path="url(#clip0_397_130)">
<path d="M128 26.4166V31.6493L112.881 31.6442V9.81969L119.299 9.79749L119.294 26.3909L128 26.4166Z" fill="black"/>
<path d="M60.9327 10.4057C61.0113 10.1238 61.3085 9.80945 61.5648 9.80945L67.0333 9.80603V31.6442L60.4458 31.6374L58.7869 28.5384C58.4453 28.1899 58.2283 27.6637 57.8849 27.1102L56.5831 25.0123C56.1133 24.2555 55.5427 23.4594 55.4078 23.0408C55.2438 22.5317 54.8816 22.2908 54.6202 21.8654C54.4272 21.5511 54.4255 21.0352 53.7814 21.0078L53.7729 31.6493H47.715L47.7201 10.3732C47.7577 10.1426 47.8995 9.81116 48.1318 9.81116H53.2228C53.6277 9.81116 53.8327 10.0742 53.9813 10.3937C54.176 10.814 54.8081 11.1317 54.9158 11.54C54.9995 12.0662 55.1225 12.3566 55.6162 12.4728C55.6282 12.7342 55.9493 13.0554 56.0006 13.2774C56.1202 13.8002 56.3201 14.1299 56.5302 14.5758C56.672 14.8748 56.6754 15.0302 57.094 15.0969L57.5928 16.1356C57.6782 16.1954 57.9106 16.2312 57.9242 16.3269C57.9379 16.4226 57.8883 16.754 57.9738 16.8155C58.3838 17.1076 58.5717 17.5416 58.804 17.9464L59.1816 18.6042L59.5677 19.3661C59.8051 19.8325 60.3911 20.087 60.1605 20.7601L60.931 20.7516V10.4057H60.9327Z" fill="black"/>
<path d="M103.784 31.6527L103.753 24.4963L96.583 24.522L96.5642 31.6493H90.5098V9.80261L108.916 9.79236C109.367 9.79236 109.697 9.90853 109.828 10.3493V31.6476L103.784 31.6527ZM103.78 15.4368L96.5506 15.442L96.554 19.9794L103.784 19.9743L103.78 15.4368Z" fill="black"/>
<path d="M81.7969 15.4266L81.8021 31.6493H75.7408V15.0747L69.3412 15.0627L69.3241 9.81628L88.2068 9.79578L88.2512 14.1743C88.2546 14.5895 88.024 15.061 87.5593 15.061L82.3095 15.0695C82.0925 15.0695 81.8926 15.1276 81.7987 15.4266H81.7969Z" fill="black"/>
<path d="M44.5391 0H44.6467L45.0533 0.403177L45.0584 5.5898C44.7082 5.6906 44.2657 5.64618 44.0112 5.86144C43.9189 6.67975 43.4303 6.22019 42.5676 6.8335C42.4583 6.91038 42.173 6.88475 42.1508 6.98555L42.0414 7.46902C41.7664 7.53564 41.5238 7.67573 41.2931 7.86194C41.1035 8.0157 40.4492 7.94224 40.3313 8.15066C40.1297 8.50771 40.1229 8.62217 39.718 8.77421C39.5164 8.84938 39.2926 9.15177 38.9646 9.12102C38.4863 9.07489 38.3001 9.46098 38.0148 9.67282C37.7893 9.84024 37.5843 9.84878 37.3775 10.1153L36.4653 10.457C36.3081 10.515 36.3662 10.8943 36.2432 10.9216C36.1373 10.9439 35.84 10.8858 35.7443 10.9797C35.4573 11.2599 35.172 11.5384 34.8389 11.757L34.844 13.9079C35.6436 14.2461 35.7717 13.2877 36.1236 13.2502C36.6686 13.1904 36.8907 12.8282 37.34 12.5805L38.4726 11.9535L39.115 11.5913C39.6651 11.2821 40.0084 11.0054 40.5842 10.8174C40.9258 10.7047 41.2897 10.2793 41.5836 10.0692C41.8279 9.89491 42.0619 9.8727 42.3011 9.73603C42.6838 9.51736 43.0049 9.26452 43.5533 9.47123L43.5294 14.4187C43.526 15.1704 41.5101 15.5616 41.464 15.6163C41.3546 15.7461 41.2863 15.9306 41.2949 16.2142C40.5961 16.0485 39.9931 17.0769 38.7562 17.1897L38.5871 17.6834C38.0985 17.7534 37.6594 18.1088 37.3553 18.4487C36.6378 18.3685 36.5849 19.2534 35.5171 19.2431C35.2899 19.2414 34.8457 19.3849 34.8492 19.6566L34.8816 22.3097L36.5473 21.4247C36.9436 21.2146 37.217 20.8302 37.7363 20.6235C38.0934 20.4817 38.7135 20.1315 39.1269 19.8684L40.3775 19.0706C40.5756 18.9442 40.6508 18.8024 40.9891 18.775L41.7988 18.2181C42.4036 18.0934 42.7641 17.8047 43.2561 17.4511C43.6678 17.1538 44.3016 17.0393 44.6552 16.5661C44.7372 16.5473 44.9627 16.5678 45.0635 16.6037L45.0669 22.5711C44.4331 22.4856 44.2179 23.0016 43.842 23.251C43.5841 23.4218 43.3329 23.4662 43.0784 23.69L42.1764 23.9087L42.0141 24.534C41.5802 24.2999 41.4008 24.739 41.206 24.8056C40.6884 24.985 40.3245 25.2088 40.0153 25.5846L39.431 25.8836C38.9339 26.1381 38.5136 26.3859 38.0712 26.7104C37.9208 26.8215 37.5296 26.7873 37.3793 27.0504L36.4943 27.5629C36.3713 27.9251 35.922 27.8226 35.7819 27.9593C35.336 28.3983 34.9192 28.6033 34.3213 28.769C33.8737 28.892 33.4466 29.695 32.9409 29.724C32.1021 29.7701 31.9449 30.6072 30.7815 30.8857C29.9461 31.0856 29.4216 31.6442 28.7827 31.6579V9.60107C29.1876 9.11931 29.6796 8.92626 30.1767 8.62559L32.6454 7.12734C33.1374 6.82838 33.5764 6.42691 34.1607 6.24069C34.5434 6.1194 34.7654 5.81702 35.0849 5.64276L38.3001 3.88655L39.9367 2.94524C41.1736 2.23455 42.3933 1.31887 43.309 0.922523C43.7993 0.710684 44.3118 0.481762 44.5374 0L44.5391 0Z" fill="black"/>
<path d="M15.9101 31.6339L9.84537 31.6527V16.7249C9.94445 16.2825 9.65915 15.8315 9.22523 15.8315L6.4252 15.8263L6.43032 31.6425L0 31.6493V9.79919H25.7503V31.6493L19.3166 31.6391V15.8281L15.905 15.84L15.9084 31.6356L15.9101 31.6339Z" fill="black"/>
</g>
<defs>
<clipPath id="clip0_397_130">
<rect width="128" height="31.6596" fill="white"/>
</clipPath>
</defs>
</svg>
