<svg width="79" height="24" viewBox="0 0 79 24" fill="none" xmlns="http://www.w3.org/2000/svg">
<path d="M18.218 5.89721C21.543 5.89721 23.4461 7.91037 23.4461 11.4174V23.7211H20.3044V13.0009C20.3044 9.67739 18.9995 8.78961 17.253 8.78961C14.8464 8.78961 13.2932 11.4174 13.2932 15.9189V23.7211H10.1515V13.0009C10.1515 9.8908 9.00177 8.78961 7.08037 8.78961C4.65395 8.78961 3.13884 11.6308 3.13884 15.9189V23.7211H0V6.17037H3.14166V8.93046C4.20816 6.91873 5.94193 5.89436 8.2033 5.89436C10.4647 5.89436 12.3198 7.11079 12.9588 9.25058C13.8998 7.19616 15.8282 5.89294 18.218 5.89294M47.3958 0.00142273L44.2541 2.00036V6.17179H41.3001V9.06847H44.2541V18.1697C44.2541 21.8759 46.1134 24 49.3567 24C50.275 24 51.3232 23.7069 51.8212 23.448V20.4346C50.9155 20.934 50.1636 21.1033 49.5259 21.1033C48.1533 21.1033 47.3958 20.1458 47.3958 18.4058V9.06562H51.8212V6.17037H47.3958V0V0.00142273ZM77.712 5.89863C75.8781 5.89863 73.8396 6.84901 72.8309 8.93758V6.17037H69.6893V23.7211H72.8309V15.9132C72.8309 11.83 74.3785 8.78961 77.4736 8.78961C78.2481 8.78961 79 9.02152 79 9.02152V6.00676C78.5748 5.9313 78.1437 5.89606 77.712 5.89863ZM40.4635 19.3391C38.7763 22.5787 36.6743 23.9972 33.1758 23.9972C30.6746 23.9972 28.7052 23.1151 27.3241 21.3736C25.9543 19.5668 25.2899 17.4654 25.2899 14.9486C25.2899 12.4304 25.9727 10.3006 27.3241 8.55771C28.7165 6.76792 30.6308 5.90005 33.1758 5.90005C35.7221 5.90005 37.5871 6.72524 38.9569 8.34714C40.3732 9.95056 41.0631 11.8755 41.0631 14.2315V15.7112H28.5077C28.5543 18.9266 30.463 21.1033 33.1772 21.1033C35.3864 21.1033 36.7124 20.2269 37.707 18.0943L40.4635 19.342V19.3391ZM28.7052 12.8131H37.7507C37.4883 10.2323 35.5331 8.78961 33.18 8.78961C30.8241 8.78961 29.1538 10.2123 28.708 12.8131H28.7052ZM67.2939 19.3391C65.6053 22.5787 63.5033 23.9972 60.0061 23.9972C57.5035 23.9972 55.5342 23.1151 54.1531 21.3736C52.7833 19.5668 52.1188 17.4654 52.1188 14.9486C52.1188 12.4304 52.803 10.3006 54.1531 8.55771C55.5455 6.76792 57.4598 5.90005 60.0047 5.90005C62.5511 5.90005 64.416 6.72524 65.7858 8.34714C67.2036 9.95056 67.892 11.8755 67.892 14.2315V15.7112H55.3367C55.3846 18.9266 57.2919 21.1033 60.0061 21.1033C62.2153 21.1033 63.5414 20.2269 64.5374 18.0943L67.2939 19.342V19.3391ZM55.5342 12.8131H64.5811C64.3173 10.2323 62.362 8.78961 60.0076 8.78961C57.6531 8.78961 55.9828 10.2123 55.537 12.8131H55.5342Z" fill="black"/>
</svg>
