<svg width="105" height="32" viewBox="0 0 105 32" fill="none" xmlns="http://www.w3.org/2000/svg">
<path d="M24.2137 7.83806C28.6331 7.83806 31.1625 10.5138 31.1625 15.175V31.5281H26.9869V17.2797C26.9869 12.8624 25.2525 11.6824 22.9312 11.6824C19.7325 11.6824 17.6681 15.175 17.6681 21.158V31.5281H13.4925V17.2797C13.4925 13.146 11.9644 11.6824 9.41063 11.6824C6.18563 11.6824 4.17188 15.4587 4.17188 21.158V31.5281H0V8.20113H4.17562V11.8696C5.59312 9.19578 7.8975 7.83428 10.9031 7.83428C13.9088 7.83428 16.3744 9.45106 17.2237 12.2951C18.4744 9.56451 21.0375 7.83239 24.2137 7.83239M62.9944 0.00189097L58.8188 2.6587V8.20302H54.8925V12.053H58.8188V24.1495C58.8188 29.0755 61.29 31.8987 65.6006 31.8987C66.8213 31.8987 68.2144 31.5092 68.8763 31.165V27.16C67.6725 27.8237 66.6731 28.0487 65.8256 28.0487C64.0012 28.0487 62.9944 26.7761 62.9944 24.4634V12.0492H68.8763V8.20113H62.9944V0V0.00189097ZM103.288 7.83995C100.851 7.83995 98.1413 9.10312 96.8006 11.8791V8.20113H92.625V31.5281H96.8006V21.1505C96.8006 15.7234 98.8575 11.6824 102.971 11.6824C104.001 11.6824 105 11.9906 105 11.9906V7.98367C104.435 7.88338 103.862 7.83654 103.288 7.83995ZM53.7806 25.7039C51.5381 30.0097 48.7444 31.895 44.0944 31.895C40.77 31.895 38.1525 30.7225 36.3169 28.408C34.4963 26.0065 33.6131 23.2135 33.6131 19.8684C33.6131 16.5214 34.5206 13.6906 36.3169 11.3742C38.1675 8.99533 40.7119 7.84184 44.0944 7.84184C47.4788 7.84184 49.9575 8.9386 51.7781 11.0943C53.6606 13.2254 54.5775 15.7839 54.5775 18.9153V20.882H37.89C37.9519 25.1555 40.4888 28.0487 44.0962 28.0487C47.0325 28.0487 48.795 26.8839 50.1169 24.0493L53.7806 25.7077V25.7039ZM38.1525 17.0301H50.175C49.8263 13.5998 47.2275 11.6824 44.1 11.6824C40.9688 11.6824 38.7488 13.5734 38.1562 17.0301H38.1525ZM89.4412 25.7039C87.1969 30.0097 84.4031 31.895 79.755 31.895C76.4287 31.895 73.8112 30.7225 71.9756 28.408C70.155 26.0065 69.2719 23.2135 69.2719 19.8684C69.2719 16.5214 70.1813 13.6906 71.9756 11.3742C73.8262 8.99533 76.3706 7.84184 79.7531 7.84184C83.1375 7.84184 85.6162 8.9386 87.4369 11.0943C89.3213 13.2254 90.2363 15.7839 90.2363 18.9153V20.882H73.5488C73.6125 25.1555 76.1475 28.0487 79.755 28.0487C82.6912 28.0487 84.4538 26.8839 85.7775 24.0493L89.4412 25.7077V25.7039ZM73.8112 17.0301H85.8356C85.485 13.5998 82.8862 11.6824 79.7569 11.6824C76.6275 11.6824 74.4075 13.5734 73.815 17.0301H73.8112Z" fill="white"/>
</svg>
