<svg width="121" height="51" viewBox="0 0 121 51" fill="none" xmlns="http://www.w3.org/2000/svg">
<g clip-path="url(#clip0_376_2)">
<path d="M77.0151 23.2097L77.0018 38.5825L68.625 38.5971L68.5918 21.9668C68.5891 20.704 68.1594 19.4889 67.3462 18.6028C66.4906 17.6729 65.2424 17.4673 64.0419 17.4832C60.6912 17.5283 59.3859 20.3047 59.3474 23.5413L59.3435 38.5931H50.9627V15.2056L50.9282 11.8018L59.0211 11.8045L59.2718 14.9443C60.719 12.993 62.7419 11.7262 65.1363 11.2858C69.2524 10.6345 73.5927 11.4318 75.5161 15.4431C76.9474 13.4308 78.8098 12.1043 81.0993 11.4914C86.0299 10.3467 91.1343 11.4503 93.388 16.2854C95.7558 13.4321 98.8638 11.6917 102.413 11.185C105.815 10.8733 109.852 11.246 112.22 13.7571L112.227 0H120.756L120.755 34.3576L120.805 38.5772L112.44 38.5745L112.199 35.5183C111.034 37.2679 109.383 38.4353 107.335 38.8916C102.829 39.8931 98.1899 39.2471 94.5765 36.0993C94.5394 38.2124 94.5527 40.0377 94.2197 41.9465C93.969 43.529 93.4955 44.9815 92.6465 46.3292C91.6954 47.7791 90.3145 48.7819 88.6829 49.3815C87.1773 49.9134 85.6426 50.2092 84.0415 50.1973L80.2212 50.1694V43.7492L83.5799 43.6351C84.7034 43.5967 85.567 42.7716 85.8973 41.6905C86.0936 41.0604 86.2117 40.4436 86.2117 39.7472V22.248C86.213 19.4703 84.6636 17.4116 81.7745 17.466C79.8272 17.5031 78.1651 18.4741 77.5244 20.375C77.2286 21.2505 77.0164 22.1419 77.0151 23.2097ZM111.871 28.7067C112.653 26.4013 112.62 23.8305 111.893 21.5091C110.834 18.1266 107.136 17.0906 103.947 17.8891C99.3944 19.0299 98.0308 24.6423 99.6915 28.7677C100.624 31.0838 102.735 32.5257 105.208 32.6676C108.279 32.8441 110.873 31.6489 111.87 28.7067H111.871Z" fill="#051D62"/>
<path d="M24.1356 46.3438C23.7908 46.5958 23.4591 46.4592 23.2442 46.3226C23.0599 46.2045 22.9126 45.9724 22.9126 45.6328V32.2763C22.8993 31.8744 23.0506 31.5892 23.3875 31.3968L33.835 23.8013L22.9391 15.8688L22.9086 1.95123C22.9086 1.609 23.0705 1.39012 23.2522 1.26809C23.4459 1.13942 23.8133 1.01605 24.0773 1.20839L43.6325 15.5067C43.9004 15.703 44.0026 15.9206 44.0026 16.2535V31.3278C44.0026 31.6608 43.9084 31.8863 43.6405 32.0826L24.137 46.3425L24.1356 46.3438Z" fill="#E97B1B"/>
<path d="M21.0913 35.4016L21.0873 48.9451C21.0873 49.3192 20.8645 49.5367 20.6257 49.6415C20.2888 49.7887 20.0407 49.7237 19.7051 49.4783L0.230812 35.2318C-0.00265168 34.9545 1.31012e-06 34.7303 1.31012e-06 34.3709L0.0039808 19.0246L19.7887 4.54457C20.0938 4.32172 20.3816 4.32968 20.6191 4.42917C20.9454 4.56712 21.09 4.84569 21.09 5.25823V18.6174C21.0767 18.8933 21.013 19.1467 20.7928 19.3058L10.1716 27.038L20.6363 34.6534C20.8817 34.8325 21.0502 34.989 21.09 35.3989L21.0913 35.4016Z" fill="#1B59A3"/>
<path d="M120.82 47.048L116.773 50.2263L92.693 50.2289C94.4599 48.4713 95.7002 46.3993 96.2626 43.879L116.741 43.871L120.82 47.0467V47.048Z" fill="#E97B1B"/>
<path d="M71.1785 49.5738L70.0643 47.9316C70.0218 47.8679 69.8069 47.856 69.6411 47.917L69.6385 49.595L68.2138 49.5897V44.4681L70.8721 44.488C71.7158 44.4946 72.4029 45.0517 72.5475 45.7601C72.7186 46.6011 72.3976 47.328 71.5672 47.7299L72.6854 49.5472C72.2623 49.6043 71.7423 49.6573 71.1785 49.5738ZM70.6532 46.7695C71.0578 46.7695 71.2051 46.4021 71.1626 46.1169C71.1255 45.8755 70.9437 45.654 70.6227 45.6526L69.6252 45.646L69.6318 46.7669L70.6532 46.7695Z" fill="#051D62"/>
<path d="M50.7956 47.0322C50.7929 48.4701 49.8657 49.5605 48.4768 49.5738L46.1369 49.595V44.4681L48.4755 44.4893C49.8644 44.5026 50.7969 45.5956 50.7942 47.0322H50.7956ZM49.0645 47.9899C49.5288 47.4102 49.4704 46.4472 48.9809 45.9683C48.6055 45.6009 48.0563 45.6075 47.5403 45.6632L47.5271 48.3627C47.9821 48.4874 48.6705 48.4834 49.0658 47.9886L49.0645 47.9899Z" fill="#051D62"/>
<path d="M67.7867 47.031C67.7867 48.4861 66.6061 49.6654 65.1496 49.6654C63.6931 49.6654 62.5125 48.4861 62.5125 47.031C62.5125 45.5758 63.6931 44.3965 65.1496 44.3965C66.6061 44.3965 67.7867 45.5758 67.7867 47.031ZM65.968 48.067C66.3965 47.4422 66.3726 46.6251 65.9972 46.0348C65.7518 45.6501 65.3141 45.54 64.8803 45.6262C64.1547 45.7695 63.8072 46.8413 64.1428 47.7433C64.2834 48.1214 64.6031 48.3787 64.8843 48.4344C65.2716 48.51 65.7107 48.4424 65.968 48.067Z" fill="#051D62"/>
<path d="M44.0012 48.6889L42.1189 48.681L41.7263 49.5883L40.3547 49.5764L42.2051 44.4919L43.8752 44.4733L45.7509 49.5445C45.2747 49.648 44.8037 49.6055 44.297 49.5803L44.0012 48.6889ZM43.5449 47.4725L43.0196 46.0744L42.5434 47.5322C42.9652 47.5574 43.1615 47.5919 43.5449 47.4725Z" fill="#051D62"/>
<path d="M61.3545 49.4292C60.1606 49.936 58.793 49.6693 57.8578 48.8708C58.1086 48.437 58.3394 48.1306 58.6484 47.8401C59.5876 48.758 60.9366 48.6572 60.9221 48.0908C60.9075 47.4965 59.386 47.7632 58.5755 47.0721C57.8512 46.4552 58.0661 45.2574 58.8846 44.7547C59.9458 44.102 61.3174 44.3129 62.2777 45.1287C62.0681 45.5346 61.7989 45.7893 61.4964 46.1011C60.9897 45.5864 60.2933 45.3755 59.6685 45.6713C59.5385 45.7323 59.5279 46.0095 59.6062 46.0931C59.971 46.4804 61.1462 46.3186 61.909 46.9341C62.3228 47.2684 62.4157 47.7817 62.3149 48.2765C62.2273 48.7076 61.9156 49.1905 61.3545 49.4292Z" fill="#051D62"/>
<path d="M76.2868 49.3908C75.1049 49.9427 73.7519 49.6933 72.7225 48.9106C72.8684 48.4941 73.1537 48.2275 73.4654 47.8309C74.4032 48.7077 75.7324 48.7156 75.7721 48.0776C75.8173 47.3626 72.9162 47.9715 73.0024 45.9778C73.0223 45.5241 73.2492 45.0492 73.7307 44.7547C74.776 44.1154 76.1807 44.2984 77.1212 45.1354C76.9236 45.5387 76.645 45.7974 76.3399 46.0945C75.8318 45.5878 75.1328 45.3729 74.5186 45.678C74.3833 45.7443 74.3674 45.9977 74.451 46.0932C74.7839 46.4725 75.9698 46.3107 76.7524 46.9315C77.1716 47.2645 77.2592 47.7818 77.157 48.2766C77.0734 48.6798 76.8055 49.1468 76.2829 49.3908H76.2868Z" fill="#051D62"/>
<path d="M54.3266 44.4919L55.8083 44.4747L53.9274 49.591L52.4483 49.5923L50.5687 44.5211L52.0809 44.4733L53.2057 47.6755L54.3266 44.4919Z" fill="#051D62"/>
<path d="M57.6204 44.4669H56.1957V49.5977H57.6204V44.4669Z" fill="#051D62"/>
</g>
<defs>
<clipPath id="clip0_376_2">
<rect width="120.82" height="50.2291" fill="white"/>
</clipPath>
</defs>
</svg>
