<svg width="121" height="51" viewBox="0 0 121 51" fill="none" xmlns="http://www.w3.org/2000/svg">
<g clip-path="url(#clip0_376_16)">
<path d="M77.0151 23.2097L77.0018 38.5825L68.625 38.5971L68.5918 21.9668C68.5891 20.704 68.1594 19.4889 67.3462 18.6028C66.4906 17.6729 65.2424 17.4673 64.0419 17.4832C60.6912 17.5283 59.3859 20.3047 59.3474 23.5413L59.3435 38.5931H50.9627V15.2056L50.9282 11.8018L59.0211 11.8045L59.2718 14.9443C60.719 12.993 62.7419 11.7262 65.1363 11.2858C69.2524 10.6345 73.5927 11.4318 75.5161 15.4431C76.9474 13.4308 78.8098 12.1043 81.0993 11.4914C86.0299 10.3467 91.1343 11.4503 93.388 16.2854C95.7558 13.4321 98.8638 11.6917 102.413 11.185C105.815 10.8733 109.852 11.246 112.22 13.7571L112.227 0H120.756L120.755 34.3576L120.805 38.5772L112.44 38.5745L112.199 35.5183C111.034 37.2679 109.383 38.4353 107.335 38.8916C102.829 39.8931 98.1899 39.2471 94.5765 36.0993C94.5394 38.2124 94.5527 40.0377 94.2197 41.9465C93.969 43.529 93.4955 44.9815 92.6465 46.3292C91.6954 47.7791 90.3145 48.7819 88.6829 49.3815C87.1773 49.9134 85.6426 50.2092 84.0415 50.1973L80.2212 50.1694V43.7492L83.5799 43.6351C84.7034 43.5967 85.567 42.7716 85.8973 41.6905C86.0936 41.0604 86.2117 40.4436 86.2117 39.7472V22.248C86.213 19.4703 84.6636 17.4116 81.7745 17.466C79.8272 17.5031 78.1651 18.4741 77.5244 20.375C77.2286 21.2505 77.0164 22.1419 77.0151 23.2097ZM111.871 28.7067C112.653 26.4013 112.62 23.8305 111.893 21.5091C110.834 18.1266 107.136 17.0906 103.947 17.8891C99.3944 19.0299 98.0308 24.6423 99.6915 28.7677C100.624 31.0838 102.735 32.5257 105.208 32.6676C108.279 32.8441 110.873 31.6489 111.87 28.7067H111.871Z" fill="black"/>
<path d="M24.1356 46.3438C23.7908 46.5959 23.4591 46.4592 23.2442 46.3226C23.0599 46.2046 22.9126 45.9724 22.9126 45.6328V32.2763C22.8993 31.8744 23.0506 31.5892 23.3875 31.3969L33.835 23.8014L22.9391 15.8689L22.9086 1.95129C22.9086 1.60906 23.0705 1.39018 23.2522 1.26815C23.4459 1.13948 23.8133 1.01611 24.0773 1.20845L43.6325 15.5068C43.9004 15.7031 44.0026 15.9206 44.0026 16.2536V31.3279C44.0026 31.6608 43.9084 31.8864 43.6405 32.0827L24.137 46.3425L24.1356 46.3438Z" fill="black"/>
<path d="M21.0913 35.4016L21.0873 48.9451C21.0873 49.3192 20.8645 49.5367 20.6257 49.6415C20.2888 49.7887 20.0407 49.7237 19.7051 49.4783L0.230812 35.2318C-0.00265168 34.9545 1.31012e-06 34.7303 1.31012e-06 34.3709L0.0039808 19.0246L19.7887 4.54457C20.0938 4.32172 20.3816 4.32968 20.6191 4.42917C20.9454 4.56712 21.09 4.84569 21.09 5.25823V18.6174C21.0767 18.8933 21.013 19.1467 20.7928 19.3058L10.1716 27.038L20.6363 34.6534C20.8817 34.8325 21.0502 34.989 21.09 35.3989L21.0913 35.4016Z" fill="black"/>
<path d="M120.82 47.0481L116.773 50.2263L92.693 50.229C94.4599 48.4714 95.7002 46.3994 96.2626 43.8791L116.741 43.8711L120.82 47.0467V47.0481Z" fill="black"/>
<path d="M71.1785 49.5738L70.0642 47.9316C70.0218 47.8679 69.8069 47.856 69.6411 47.917L69.6384 49.595L68.2137 49.5897V44.4681L70.8721 44.488C71.7157 44.4947 72.4028 45.0518 72.5474 45.7601C72.7185 46.6011 72.3975 47.3281 71.5671 47.73L72.6854 49.5473C72.2622 49.6043 71.7422 49.6574 71.1785 49.5738ZM70.6532 46.7696C71.0578 46.7696 71.205 46.4022 71.1625 46.117C71.1254 45.8756 70.9437 45.654 70.6227 45.6527L69.6251 45.6461L69.6318 46.767L70.6532 46.7696Z" fill="black"/>
<path d="M50.7956 47.0323C50.7929 48.4702 49.8657 49.5606 48.4768 49.5738L46.1369 49.595V44.4681L48.4755 44.4894C49.8644 44.5026 50.7969 45.5957 50.7942 47.0323H50.7956ZM49.0645 47.99C49.5288 47.4103 49.4704 46.4473 48.9809 45.9684C48.6055 45.601 48.0563 45.6076 47.5403 45.6633L47.5271 48.3627C47.9821 48.4874 48.6705 48.4834 49.0658 47.9887L49.0645 47.99Z" fill="black"/>
<path d="M67.7867 47.0309C67.7867 48.4861 66.6061 49.6653 65.1496 49.6653C63.6931 49.6653 62.5125 48.4861 62.5125 47.0309C62.5125 45.5757 63.6931 44.3965 65.1496 44.3965C66.6061 44.3965 67.7867 45.5757 67.7867 47.0309ZM65.968 48.0669C66.3965 47.4421 66.3726 46.625 65.9972 46.0347C65.7518 45.65 65.3141 45.5399 64.8803 45.6261C64.1547 45.7694 63.8072 46.8412 64.1428 47.7432C64.2834 48.1213 64.6031 48.3786 64.8843 48.4343C65.2716 48.51 65.7107 48.4423 65.968 48.0669Z" fill="black"/>
<path d="M44.0012 48.689L42.1189 48.681L41.7263 49.5884L40.3547 49.5764L42.2051 44.492L43.8752 44.4734L45.7509 49.5446C45.2747 49.6481 44.8037 49.6056 44.297 49.5804L44.0012 48.689ZM43.5449 47.4726L43.0196 46.0745L42.5434 47.5323C42.9652 47.5575 43.1615 47.592 43.5449 47.4726Z" fill="black"/>
<path d="M61.3545 49.4293C60.1606 49.936 58.793 49.6694 57.8578 48.8709C58.1086 48.4371 58.3394 48.1307 58.6484 47.8402C59.5876 48.7581 60.9366 48.6573 60.9221 48.0909C60.9075 47.4966 59.386 47.7632 58.5755 47.0721C57.8512 46.4553 58.0661 45.2575 58.8846 44.7547C59.9458 44.1021 61.3174 44.313 62.2777 45.1288C62.0681 45.5347 61.7989 45.7894 61.4964 46.1011C60.9897 45.5864 60.2933 45.3755 59.6685 45.6713C59.5385 45.7324 59.5279 46.0096 59.6062 46.0932C59.971 46.4805 61.1462 46.3187 61.909 46.9342C62.3228 47.2684 62.4157 47.7818 62.3149 48.2766C62.2273 48.7077 61.9156 49.1905 61.3545 49.4293Z" fill="black"/>
<path d="M76.2868 49.3909C75.1049 49.9427 73.7519 49.6933 72.7225 48.9107C72.8684 48.4942 73.1537 48.2276 73.4654 47.8309C74.4032 48.7077 75.7324 48.7157 75.7721 48.0777C75.8173 47.3627 72.9162 47.9715 73.0024 45.9778C73.0223 45.5242 73.2492 45.0493 73.7307 44.7548C74.776 44.1154 76.1807 44.2985 77.1212 45.1355C76.9236 45.5388 76.645 45.7974 76.3399 46.0946C75.8318 45.5878 75.1328 45.3729 74.5186 45.678C74.3833 45.7444 74.3674 45.9977 74.451 46.0932C74.7839 46.4726 75.9698 46.3108 76.7524 46.9316C77.1716 47.2645 77.2592 47.7819 77.157 48.2766C77.0734 48.6799 76.8055 49.1468 76.2829 49.3909H76.2868Z" fill="black"/>
<path d="M54.3266 44.492L55.8083 44.4747L53.9274 49.591L52.4483 49.5923L50.5687 44.5211L52.0809 44.4734L53.2057 47.6756L54.3266 44.492Z" fill="black"/>
<path d="M57.6204 44.4669H56.1957V49.5978H57.6204V44.4669Z" fill="black"/>
</g>
<defs>
<clipPath id="clip0_376_16">
<rect width="120.82" height="50.2291" fill="white"/>
</clipPath>
</defs>
</svg>
