<svg width="128" height="39" viewBox="0 0 128 39" fill="none" xmlns="http://www.w3.org/2000/svg">
<g clip-path="url(#clip0_338_289)">
<path d="M43.5184 35.2619V37.9129H41.9214C40.7875 37.9129 39.9091 37.6414 39.2703 37.0825C38.6315 36.5235 38.3121 35.6292 38.3121 34.3676V30.3112H37.0665V27.7081H38.3121V25.2167L41.4423 24.4502V27.7081H43.4864V30.3112H41.4423V34.4155C41.4423 34.7189 41.5221 34.9425 41.6658 35.0703C41.8096 35.198 42.0491 35.2779 42.4005 35.2779H43.5184V35.2619ZM53.3719 25.1369V37.897H50.2418V24.3703L53.3719 25.1369ZM11.6421 37.8171H8.51201L3.27383 29.896V37.8171H0.159668V24.9772H3.2898L8.52798 32.9303V24.9772H11.6581L11.6421 37.8171ZM13.6703 29.9279C14.0696 29.1294 14.6126 28.5225 15.2833 28.0913C15.97 27.6601 16.7206 27.4525 17.567 27.4525C18.2857 27.4525 18.9245 27.5963 19.4675 27.8837C20.0105 28.1712 20.4257 28.5545 20.7131 29.0336V27.5963H23.8433V37.8011H20.7131V36.3638C20.4097 36.8429 19.9785 37.2262 19.4355 37.5137C18.8925 37.8011 18.2697 37.9449 17.5351 37.9449C16.7046 37.9449 15.9541 37.7213 15.2673 37.2901C14.5806 36.8589 14.0376 36.2361 13.6544 35.4376C13.2551 34.6391 13.0635 33.7128 13.0635 32.6747C13.0794 31.6527 13.2871 30.7264 13.6703 29.9279ZM20.0743 30.8701C19.6431 30.423 19.1161 30.1994 18.4933 30.1994C17.8705 30.1994 17.3435 30.423 16.9123 30.8701C16.4811 31.3173 16.2575 31.9242 16.2575 32.7067C16.2575 33.4892 16.4811 34.112 16.9123 34.5592C17.3435 35.0223 17.8705 35.2459 18.4933 35.2459C19.1161 35.2459 19.6431 35.0223 20.0743 34.5752C20.5055 34.128 20.7291 33.5052 20.7291 32.7227C20.7291 31.9401 20.5055 31.3173 20.0743 30.8701ZM35.5813 27.6122V37.8171H32.4511V36.4277C32.1317 36.8749 31.7005 37.2422 31.1576 37.5137C30.6146 37.7852 30.0077 37.9289 29.3529 37.9289C28.5704 37.9289 27.8837 37.7532 27.2928 37.4019C26.7019 37.0505 26.2388 36.5555 25.9034 35.9007C25.568 35.2459 25.4083 34.4634 25.4083 33.585V27.6282H28.5225V33.1698C28.5225 33.8565 28.6982 34.3835 29.0495 34.7668C29.4008 35.1501 29.8799 35.3417 30.4708 35.3417C31.0777 35.3417 31.5568 35.1501 31.9081 34.7668C32.2595 34.3835 32.4352 33.8565 32.4352 33.1698V27.6282H35.5813V27.6122ZM48.2295 27.6122V37.8171H45.0994V27.6122H48.2295ZM65.3015 27.6122V37.8171H62.1714V36.4277C61.852 36.8749 61.4208 37.2422 60.8778 37.5137C60.3349 37.7852 59.728 37.9289 59.0732 37.9289C58.2907 37.9289 57.604 37.7532 57.0131 37.4019C56.4222 37.0505 55.9591 36.5555 55.6237 35.9007C55.2883 35.2459 55.1286 34.4634 55.1286 33.585V27.6282H58.2428V33.1698C58.2428 33.8565 58.4184 34.3835 58.7698 34.7668C59.1211 35.1501 59.6002 35.3417 60.1911 35.3417C60.798 35.3417 61.2771 35.1501 61.6284 34.7668C61.9798 34.3835 62.1554 33.8565 62.1554 33.1698V27.6282H65.3015V27.6122ZM69.0705 37.4977C68.3838 37.1943 67.8248 36.779 67.4256 36.252C67.0263 35.725 66.8027 35.1341 66.7548 34.4634H69.853C69.8849 34.8147 70.0606 35.1022 70.3481 35.3258C70.6355 35.5494 71.0028 35.6611 71.434 35.6611C71.8173 35.6611 72.1208 35.5813 72.3443 35.4376C72.5519 35.2779 72.6637 35.0862 72.6637 34.8467C72.6637 34.5592 72.504 34.3356 72.2006 34.1919C71.8972 34.0482 71.4021 33.8885 70.7154 33.7288C69.9808 33.5531 69.3739 33.3774 68.8788 33.1858C68.3838 32.9941 67.9685 32.6907 67.6172 32.2915C67.2659 31.8762 67.0902 31.3333 67.0902 30.6306C67.0902 30.0397 67.2499 29.5127 67.5693 29.0336C67.8887 28.5545 68.3678 28.1712 68.9906 27.8837C69.6135 27.5963 70.364 27.4685 71.2264 27.4685C72.504 27.4685 73.5101 27.7879 74.2607 28.4267C74.9954 29.0655 75.4266 29.896 75.5383 30.95H72.6478C72.5999 30.5986 72.4402 30.3112 72.1846 30.1036C71.9291 29.896 71.5778 29.8001 71.1466 29.8001C70.7793 29.8001 70.5078 29.864 70.3002 30.0077C70.1085 30.1515 70.0127 30.3431 70.0127 30.5827C70.0127 30.8701 70.1724 31.0937 70.4758 31.2374C70.7793 31.3812 71.2743 31.5249 71.9291 31.6686C72.6797 31.8603 73.3025 32.0519 73.7816 32.2436C74.2607 32.4352 74.676 32.7386 75.0273 33.1538C75.3946 33.5691 75.5703 34.144 75.5863 34.8467C75.5863 35.4376 75.4106 35.9805 75.0912 36.4437C74.7558 36.9068 74.2767 37.2901 73.6539 37.5456C73.0311 37.8171 72.2964 37.9449 71.466 37.9449C70.5557 37.9608 69.7572 37.8171 69.0705 37.4977Z" fill="#1F71B7"/>
<path d="M38.2643 17.8545C35.7729 17.3914 29.7842 16.3374 26.2388 16.4811H26.2228H26.2069C25.5042 16.561 24.3384 16.6728 24.1467 17.7747C24.003 19.1321 23.6038 21.3839 23.6197 23.5558C23.6676 23.9711 24.0829 24.2266 24.4981 24.3064C24.8335 24.3703 25.2008 24.3064 25.5521 24.2585C25.616 24.2426 25.6958 24.2426 25.7597 24.2266C29.2092 23.7315 39.1426 20.9208 39.6217 20.793C40.5959 20.5535 41.2028 19.9626 41.1549 19.2918C41.1069 18.7169 40.5959 18.2698 39.7974 18.126L38.2643 17.8545ZM59.0573 19.5474C59.0253 19.5474 58.9934 19.5314 58.9615 19.5314C57.4443 19.2599 52.9248 19.1002 52.6693 19.0842C52.1263 19.0523 51.727 19.2759 51.6312 19.6592C51.5354 20.0265 51.759 20.3299 52.27 20.6174C52.6373 20.825 56.007 22.965 57.8915 23.492H57.9074H57.9234C57.9713 23.5079 58.0192 23.5079 58.0671 23.5239C58.2907 23.5718 58.8816 23.6676 59.1691 23.1247V23.1087V23.0927C59.4725 22.406 59.9197 21.0965 59.9197 20.282V20.266V20.25C59.8877 19.6751 59.3447 19.5793 59.1691 19.5474C59.1371 19.5633 59.0892 19.5474 59.0573 19.5474ZM42.7039 18.3815C42.3207 20.4257 43.6622 22.406 45.7063 22.7893C47.7505 23.1726 49.7308 21.8311 50.1141 19.7869C50.4973 17.7427 49.1559 15.7625 47.1117 15.3792H47.0957C45.0515 14.9959 43.1032 16.3374 42.7039 18.3815ZM58.658 11.6582C58.6261 11.6741 58.5942 11.6901 58.5622 11.7061C56.9173 12.4087 52.4457 15.5708 52.0464 15.8423C51.5194 16.2096 51.2958 16.5769 51.4236 16.9762C51.5194 17.2317 51.743 17.4074 52.0624 17.4713C52.2381 17.5032 52.5894 17.4713 52.8449 17.4393C53.1803 17.3914 57.62 16.8644 59.8079 16.1777H59.8238H59.8398C60.1912 16.034 60.8619 15.7944 60.798 15.0917V15.0757C60.7821 14.9799 60.7661 14.8841 60.7501 14.7563C60.6224 13.878 60.4147 12.5365 59.9516 11.8179L59.9356 11.8019C59.8079 11.6422 59.6482 11.5304 59.4725 11.4985C59.1691 11.4505 58.8976 11.5623 58.658 11.6582ZM29.2572 7.34624C28.81 7.92116 27.0214 10.0612 26.4305 11.5464V11.5623V11.5783C26.2388 12.4726 26.9894 12.824 27.5324 13.0795C27.5803 13.1114 27.6442 13.1274 27.7081 13.1593C30.4869 14.5008 38.7753 16.4971 39.3502 16.6408C39.6537 16.7207 40.2925 16.8484 40.4362 16.8804C41.1069 17.0081 41.6659 16.8165 41.9054 16.3853C42.2089 15.8583 41.9534 15.2674 41.2347 14.5966C40.8035 14.1974 35.5334 8.73564 32.1637 6.64356H32.1477H32.1318C31.7964 6.46789 31.4291 6.29222 31.0937 6.22834C30.6306 6.14849 30.2313 6.26028 29.9279 6.59565C29.9279 6.57968 29.7043 6.77132 29.2572 7.34624ZM53.5316 5.25417C53.5157 5.28611 53.4837 5.31805 53.4678 5.34999C52.254 7.01087 49.587 13.1753 49.4753 13.4468C49.2197 14.0537 49.1718 14.5807 49.5232 14.8841C49.619 14.964 49.7308 15.0278 49.8745 15.0438C50.2099 15.1077 50.5932 14.964 50.9445 14.6446C51.184 14.4369 55.4001 10.9235 57.1568 8.95922V8.94325C57.4283 8.60788 57.9074 7.98504 57.4603 7.36221L57.4443 7.34624C57.3485 7.23445 57.2367 7.09072 57.1089 6.93102C56.4861 6.14849 55.6237 5.07849 54.8093 4.67924H54.7933H54.7773C54.7134 4.6473 54.6495 4.63133 54.5857 4.61536C54.0587 4.50357 53.7552 4.93476 53.5316 5.25417ZM38.4719 1.27762C37.8171 1.46926 36.1562 1.90045 35.0224 2.84269H35.0064C34.3995 3.41761 34.7828 4.05641 35.0543 4.53551C35.0862 4.58342 35.1022 4.63133 35.1341 4.67924C36.4756 7.04281 42.1131 13.319 42.4644 13.7023C42.8636 14.1335 43.1511 14.389 43.5184 14.4689C43.7101 14.5008 43.9017 14.4849 44.0774 14.405C44.5884 14.1655 44.6842 13.5905 44.5086 12.7282C44.4127 12.249 42.9275 5.38193 41.5222 2.20389V2.18792V2.17195C41.2507 1.62896 40.8674 1.00613 40.3563 1.00613C39.5898 1.00613 38.935 1.14986 38.4719 1.27762ZM45.5306 0.67076H45.5147C44.7481 0.862401 44.7481 1.54911 44.7641 2.06015C44.7641 2.10806 44.7641 2.15598 44.7641 2.20389C44.7481 4.69521 46.0417 12.0734 46.1215 12.5365C46.2653 13.2871 46.5368 13.7502 47.0318 13.8461C47.0638 13.8461 47.0957 13.862 47.1277 13.862C47.6547 13.894 47.99 13.4787 48.2615 12.6962C48.4212 12.249 50.3696 6.37207 50.7209 3.19403V3.17806V3.16209C50.7369 2.63508 50.8008 1.77269 49.9384 1.46926C49.9384 1.46926 49.5711 1.3415 49.06 1.1818C48.6768 1.07001 47.8303 0.862401 47.1596 0.73464C46.4888 0.62285 45.9618 0.59091 45.5306 0.67076Z" fill="url(#paint0_radial_338_289)"/>
<path d="M79.5149 37.4817C78.7643 37.1783 78.1734 36.7311 77.7262 36.1243C77.2791 35.5334 77.0395 34.8147 77.0236 33.9683H80.3453C80.3932 34.4474 80.5529 34.7988 80.8404 35.0543C81.1279 35.3098 81.4792 35.4216 81.9423 35.4216C82.4055 35.4216 82.7728 35.3098 83.0443 35.1022C83.3158 34.8946 83.4435 34.5912 83.4435 34.2079C83.4435 33.8885 83.3317 33.6329 83.1241 33.4253C82.9165 33.2177 82.645 33.0421 82.3416 32.9143C82.0382 32.7865 81.591 32.6268 81.0161 32.4512C80.1856 32.1956 79.5149 31.9401 78.9879 31.6846C78.4609 31.4291 78.0137 31.0458 77.6304 30.5507C77.2471 30.0557 77.0555 29.4009 77.0555 28.5864C77.0555 27.3887 77.4867 26.4624 78.3491 25.7757C79.2115 25.1049 80.3453 24.7536 81.7347 24.7536C83.1561 24.7536 84.2899 25.089 85.1523 25.7757C86.0147 26.4464 86.4778 27.3887 86.5417 28.6024H83.1561C83.1241 28.1872 82.9804 27.8678 82.6929 27.6282C82.4055 27.3887 82.0541 27.2769 81.607 27.2769C81.2237 27.2769 80.9203 27.3727 80.6967 27.5803C80.4731 27.7879 80.3453 28.0754 80.3453 28.4427C80.3453 28.8579 80.537 29.1773 80.9362 29.4169C81.3195 29.6564 81.9423 29.896 82.7728 30.1674C83.6032 30.4549 84.274 30.7104 84.801 30.9659C85.312 31.2215 85.7592 31.5888 86.1425 32.0839C86.5257 32.5789 86.7174 33.2018 86.7174 33.9683C86.7174 34.7029 86.5257 35.3577 86.1584 35.9646C85.7911 36.5555 85.2481 37.0346 84.5455 37.3859C83.8428 37.7373 82.9964 37.9129 82.0382 37.9129C81.1119 37.9449 80.2655 37.7852 79.5149 37.4817ZM90.3426 37.322C89.5441 36.8908 88.9213 36.284 88.4581 35.4855C87.995 34.687 87.7714 33.7607 87.7714 32.7067C87.7714 31.6527 87.995 30.7424 88.4741 29.9439C88.9372 29.1454 89.576 28.5385 90.3745 28.1073C91.173 27.6761 92.0833 27.4685 93.0735 27.4685C94.0796 27.4685 94.9739 27.6761 95.7724 28.1073C96.5709 28.5385 97.2097 29.1454 97.6728 29.9439C98.136 30.7424 98.3755 31.6686 98.3755 32.7067C98.3755 33.7607 98.136 34.671 97.6728 35.4695C97.2097 36.268 96.5709 36.8749 95.7564 37.3061C94.942 37.7373 94.0476 37.9449 93.0415 37.9449C92.0354 37.9449 91.1411 37.7532 90.3426 37.322ZM94.5747 34.5912C94.9899 34.16 95.2135 33.5212 95.2135 32.7067C95.2135 31.8922 95.0058 31.2694 94.6066 30.8222C94.1914 30.391 93.6963 30.1674 93.1054 30.1674C92.4985 30.1674 91.9875 30.391 91.5883 30.8222C91.189 31.2534 90.9814 31.8922 90.9814 32.7227C90.9814 33.5371 91.173 34.16 91.5723 34.6071C91.9715 35.0383 92.4666 35.2619 93.0575 35.2619C93.6484 35.2619 94.1435 35.0383 94.5747 34.5912ZM102.959 24.2905V37.8171H99.8288V24.2905H102.959ZM105.051 29.9279C105.45 29.1294 105.993 28.5225 106.664 28.0913C107.351 27.6601 108.101 27.4525 108.948 27.4525C109.666 27.4525 110.305 27.5963 110.848 27.8837C111.391 28.1712 111.806 28.5545 112.094 29.0336V27.5963H115.224V37.8011H112.094V36.3638C111.79 36.8429 111.359 37.2262 110.816 37.5137C110.273 37.8011 109.65 37.9449 108.916 37.9449C108.085 37.9449 107.335 37.7213 106.648 37.2901C105.961 36.8589 105.418 36.2361 105.035 35.4376C104.636 34.6391 104.444 33.7128 104.444 32.6747C104.46 31.6527 104.652 30.7264 105.051 29.9279ZM111.455 30.8701C111.024 30.423 110.497 30.1994 109.874 30.1994C109.251 30.1994 108.724 30.423 108.293 30.8701C107.862 31.3173 107.638 31.9242 107.638 32.7067C107.638 33.4892 107.862 34.112 108.293 34.5592C108.724 35.0223 109.251 35.2459 109.874 35.2459C110.497 35.2459 111.024 35.0223 111.455 34.5752C111.886 34.128 112.11 33.5052 112.11 32.7227C112.094 31.9401 111.886 31.3173 111.455 30.8701ZM121.74 27.9795C122.283 27.6601 122.906 27.5004 123.576 27.5004V30.8062H122.714C121.931 30.8062 121.34 30.9819 120.957 31.3013C120.574 31.6367 120.366 32.2276 120.366 33.074V37.8171H117.236V27.6122H120.366V29.3051C120.734 28.7461 121.197 28.3149 121.74 27.9795ZM127.265 27.5803C127.473 27.6921 127.633 27.8678 127.744 28.0754C127.856 28.283 127.92 28.5225 127.92 28.7781C127.92 29.0336 127.856 29.2731 127.744 29.4807C127.633 29.6883 127.473 29.848 127.265 29.9758C127.058 30.0876 126.834 30.1515 126.563 30.1515C126.307 30.1515 126.068 30.0876 125.86 29.9758C125.652 29.864 125.493 29.6883 125.381 29.4807C125.269 29.2731 125.205 29.0336 125.205 28.7781C125.205 28.5225 125.269 28.283 125.381 28.0754C125.493 27.8678 125.652 27.6921 125.86 27.5803C126.068 27.4685 126.307 27.4046 126.563 27.4046C126.834 27.4046 127.058 27.4685 127.265 27.5803ZM127.377 29.6245C127.585 29.4009 127.681 29.1294 127.681 28.794C127.681 28.4587 127.585 28.1872 127.377 27.9636C127.17 27.74 126.898 27.6442 126.579 27.6442C126.243 27.6442 125.972 27.756 125.764 27.9636C125.557 28.1872 125.461 28.4587 125.461 28.794C125.461 29.1294 125.557 29.4009 125.764 29.6245C125.972 29.848 126.243 29.9439 126.579 29.9439C126.898 29.9439 127.17 29.8321 127.377 29.6245ZM127.074 28.7781C127.01 28.8579 126.914 28.9058 126.802 28.9218L127.217 29.5127H126.866L126.483 28.9218H126.323V29.5127H126.02V28.0275H126.658C126.802 28.0275 126.93 28.0754 127.026 28.1552C127.122 28.2351 127.154 28.3469 127.154 28.4746C127.17 28.6024 127.138 28.6982 127.074 28.7781ZM126.323 28.6822H126.643C126.706 28.6822 126.754 28.6663 126.802 28.6343C126.85 28.6024 126.866 28.5545 126.866 28.4906C126.866 28.4267 126.85 28.3788 126.802 28.3469C126.754 28.3149 126.706 28.2989 126.643 28.2989H126.323V28.6822Z" fill="#6BBCD4"/>
</g>
<defs>
<radialGradient id="paint0_radial_338_289" cx="0" cy="0" r="1" gradientUnits="userSpaceOnUse" gradientTransform="translate(45.8796 19.0825) scale(18.9339 18.9339)">
<stop offset="0.1189" stop-color="#EABA87"/>
<stop offset="0.2523" stop-color="#E7B179"/>
<stop offset="0.9998" stop-color="#DA802E"/>
</radialGradient>
<clipPath id="clip0_338_289">
<rect width="128" height="38.2962" fill="white"/>
</clipPath>
</defs>
</svg>
