<svg width="124" height="23" viewBox="0 0 124 23" fill="none" xmlns="http://www.w3.org/2000/svg">
<path d="M38.3693 6.33634L38.4523 7.44224L38.4691 7.87428L38.4798 8.46623H38.5628C38.7289 8.12004 38.9545 7.79685 39.2401 7.49667C39.5316 7.19135 39.8615 6.92506 40.2214 6.70442C40.6007 6.47216 41.0099 6.293 41.4379 6.17195C41.8872 6.04345 42.3525 5.97904 42.8198 5.98062C43.6676 5.98062 44.3953 6.12201 45.0036 6.40423C45.6118 6.68646 46.1184 7.06407 46.5235 7.53763C46.9286 8.01118 47.2283 8.56666 47.4218 9.20349C47.6154 9.84033 47.7119 10.5237 47.7119 11.252V19.2823H45.1135V12.0998C45.1155 11.5965 45.0738 11.0939 44.989 10.5978C44.9059 10.1242 44.7539 9.70566 44.5328 9.34152C44.3117 8.97738 44.0076 8.68617 43.6205 8.46735C43.2333 8.24852 42.7362 8.13967 42.128 8.13967C41.0962 8.13967 40.2528 8.52682 39.5986 9.30056C38.9444 10.0743 38.6173 11.1078 38.6173 12.4006V19.2834H36.0189V9.1227L35.9914 7.78451L35.9084 6.3369H38.3682L38.3693 6.33634ZM59.1547 10.8974C59.1547 9.93234 58.8601 9.21752 58.2704 8.7535C57.6807 8.28948 56.8975 8.05719 55.9212 8.05719C55.1839 8.05719 54.4887 8.19859 53.8345 8.48081C53.1803 8.76304 52.6321 9.1227 52.1899 9.55978L50.808 7.92085C51.4527 7.31993 52.2404 6.84637 53.1713 6.50074C54.1021 6.15511 55.1014 5.98174 56.1703 5.98174C57.1101 5.98174 57.9254 6.11359 58.6166 6.37786C59.3079 6.64214 59.874 7.00123 60.3167 7.45683C60.7611 7.9156 61.1005 8.46543 61.3115 9.06827C61.5326 9.68715 61.6431 10.352 61.6431 11.0624V16.7159L61.6846 18.095C61.7121 18.5776 61.7632 18.9737 61.8367 19.2834H59.4874C59.3412 18.6751 59.267 18.0518 59.2664 17.4262H59.1833C58.7208 18.1034 58.099 18.6568 57.3727 19.0376C56.645 19.4203 55.7831 19.6111 54.7883 19.6111C54.2721 19.6111 53.7335 19.5426 53.1713 19.4063C52.6091 19.2699 52.0979 19.0466 51.6373 18.7369C51.1766 18.4272 50.794 18.0176 50.4904 17.5076C50.1869 16.9975 50.0343 16.3697 50.0343 15.6229C50.0343 14.6399 50.3013 13.8611 50.836 13.2876C51.3708 12.7142 52.0704 12.2771 52.9368 11.9764C53.8031 11.6756 54.7794 11.4804 55.8667 11.3889L59.1558 11.2526V10.8974H59.1547ZM58.519 13.1098L56.5148 13.1917C55.8235 13.2461 55.1974 13.3555 54.6352 13.5194C54.0729 13.6832 53.6078 13.929 53.2392 14.2566C52.8705 14.5843 52.6865 15.0214 52.6865 15.5679C52.6865 15.9506 52.7651 16.2687 52.9216 16.524C53.0781 16.7793 53.2857 16.9886 53.5433 17.1524C53.8055 17.3179 54.0959 17.4335 54.4001 17.4935C54.7132 17.5575 55.0358 17.5889 55.3674 17.5889C56.5838 17.5889 57.5186 17.2293 58.1728 16.51C58.827 15.7906 59.1541 14.885 59.1541 13.7921V13.1092H58.5184L58.519 13.1098ZM71.0402 19.2823H68.2207L62.8859 6.33578H65.7604L69.6027 16.5234H69.6582L73.5281 6.33578H76.292L71.0402 19.2823ZM85.8557 10.8974C85.8557 9.93234 85.5611 9.21752 84.9714 8.7535C84.3817 8.28948 83.5984 8.05719 82.6221 8.05719C81.8849 8.05719 81.1897 8.19859 80.5355 8.48081C79.8812 8.76304 79.333 9.1227 78.8909 9.55978L77.509 7.92085C78.1536 7.31993 78.9414 6.84637 79.8722 6.50074C80.8031 6.15511 81.8024 5.98174 82.8713 5.98174C83.8111 5.98174 84.6263 6.11359 85.3176 6.37786C86.0088 6.64214 86.575 7.00123 87.0177 7.45683C87.4621 7.9156 87.8015 8.46543 88.0125 9.06827C88.2336 9.68715 88.3441 10.352 88.3441 11.0624V16.7159L88.3856 18.095C88.4131 18.5776 88.4642 18.9737 88.5377 19.2834H86.1884C86.0422 18.6751 85.968 18.0518 85.9673 17.4262H85.8843C85.4217 18.1034 84.8 18.6568 84.0737 19.0376C83.3459 19.4203 82.4841 19.6111 81.4893 19.6111C80.9731 19.6111 80.4345 19.5426 79.8722 19.4063C79.31 19.2699 78.7989 19.0466 78.3382 18.7369C77.8776 18.4272 77.4949 18.0176 77.1914 17.5076C76.8878 16.9975 76.7352 16.3697 76.7352 15.6229C76.7352 14.6399 77.0023 13.8611 77.537 13.2876C78.0717 12.7142 78.7714 12.2771 79.6377 11.9764C80.504 11.6756 81.4803 11.4804 82.5677 11.3889L85.8568 11.2526V10.8974H85.8557ZM85.22 13.1098L83.2158 13.1917C82.5245 13.2461 81.8983 13.3555 81.3361 13.5194C80.7739 13.6832 80.3088 13.929 79.9401 14.2566C79.5715 14.5843 79.3875 15.0214 79.3875 15.5679C79.3875 15.9506 79.466 16.2687 79.6226 16.524C79.7791 16.7793 79.9867 16.9886 80.2443 17.1524C80.5064 17.3179 80.7969 17.4335 81.101 17.4935C81.4141 17.5575 81.7367 17.5889 82.0683 17.5889C83.2848 17.5889 84.2195 17.2293 84.8738 16.51C85.528 15.7906 85.8551 14.885 85.8551 13.7921V13.1092H85.2194L85.22 13.1098ZM97.7137 8.43929H94.231V15.1858C94.231 15.9685 94.3786 16.5285 94.6731 16.8657C94.9677 17.2029 95.4379 17.3712 96.0826 17.3712C96.3222 17.3712 96.5803 17.3437 96.8563 17.2893C97.1148 17.2406 97.3657 17.158 97.6026 17.0435L97.6856 19.1465C97.3481 19.262 97.0014 19.3487 96.6493 19.4057C96.261 19.4702 95.868 19.5021 95.4744 19.5011C94.24 19.5011 93.2951 19.1645 92.6414 18.4906C91.9878 17.8167 91.6601 16.8062 91.6601 15.459V8.43985H89.1448V6.3369H91.6601V2.62252H94.2304V6.3369H97.7131V8.43985L97.7137 8.43929ZM105.287 8.43929H101.805V15.1858C101.805 15.9685 101.952 16.5285 102.247 16.8657C102.541 17.2029 103.011 17.3712 103.656 17.3712C103.896 17.3712 104.154 17.3437 104.43 17.2893C104.688 17.2406 104.939 17.158 105.176 17.0435L105.259 19.1465C104.922 19.262 104.575 19.3487 104.223 19.4057C103.835 19.4702 103.442 19.5021 103.048 19.5011C101.814 19.5011 100.869 19.1645 100.215 18.4906C99.5613 17.8167 99.2336 16.8062 99.2336 15.459V8.43985H96.7183V6.3369H99.2336V2.62252H101.804V6.3369H105.287V8.43985L105.287 8.43929ZM109.489 19.2823H106.89V6.33634H109.489V19.2823ZM109.931 1.6653C109.931 2.13886 109.76 2.52994 109.42 2.83966C109.079 3.14938 108.669 3.30423 108.19 3.30423C107.711 3.30423 107.305 3.14489 106.973 2.82619C106.813 2.67852 106.686 2.49882 106.601 2.29879C106.515 2.09877 106.472 1.88291 106.476 1.6653C106.476 1.19175 106.642 0.79562 106.973 0.476923C107.305 0.158226 107.711 0 108.19 0C108.669 0 109.079 0.159348 109.42 0.478045C109.585 0.628033 109.716 0.811735 109.804 1.01675C109.892 1.22176 109.936 1.44331 109.931 1.66643V1.6653ZM122.093 9.61365C121.816 9.19508 121.402 8.8444 120.849 8.56217C120.296 8.27995 119.707 8.13855 119.08 8.13855C118.398 8.13855 117.794 8.26592 117.269 8.52121C116.744 8.77651 116.297 9.11765 115.929 9.54519C115.56 9.97274 115.279 10.4693 115.085 11.0338C114.891 11.6053 114.793 12.2053 114.795 12.809C114.793 13.4128 114.891 14.0128 115.085 14.5843C115.279 15.1488 115.56 15.6448 115.929 16.0729C116.297 16.501 116.749 16.8421 117.283 17.0968C117.818 17.3516 118.426 17.4795 119.107 17.4795C119.771 17.4795 120.374 17.3521 120.918 17.0968C121.462 16.8416 121.908 16.4959 122.258 16.0588L124 17.617C123.447 18.2544 122.756 18.7504 121.927 19.1055C121.097 19.4607 120.158 19.638 119.107 19.638C118.094 19.638 117.159 19.4742 116.302 19.1465C115.445 18.8188 114.703 18.3587 114.077 17.7673C113.45 17.176 112.957 16.4611 112.598 15.6234C112.238 14.7857 112.058 13.8482 112.058 12.8102C112.058 11.7907 112.233 10.8621 112.584 10.0244C112.934 9.18666 113.422 8.46735 114.049 7.86643C114.675 7.2655 115.416 6.80148 116.274 6.47325C117.131 6.14501 118.056 5.98174 119.052 5.98174C119.973 5.98174 120.89 6.16409 121.802 6.52823C122.715 6.89238 123.438 7.42036 123.972 8.11218L122.092 9.61421L122.093 9.61365ZM8.19968 18.729L7.67002 19.5976C7.08201 20.5617 6.24078 21.346 5.2379 21.8651C4.23502 22.3842 3.10895 22.6182 1.98229 22.5416L1.27813 22.4917L0.0628128 22.3598C0.0190481 22.2976 0.284442 21.1479 0.859555 18.9108C3.79235 17.6086 6.23925 17.5474 8.19912 18.7285L8.19968 18.729ZM21.3729 13.2399L20.3393 17.649C20.3405 17.6837 20.3219 17.7163 20.2916 17.7331C14.4457 20.9683 7.2088 14.0389 1.36004 17.1765C1.29776 17.2102 1.24053 17.1984 1.23829 17.1271L2.24656 13.0335C2.24544 12.9981 2.26395 12.9661 2.29425 12.9493C8.14021 9.71408 15.5897 16.7518 21.1647 13.1552C21.2191 13.1199 21.3712 13.1681 21.3729 13.2399ZM22.7498 7.27897L21.7162 11.688C21.7174 11.7228 21.6989 11.7553 21.6686 11.7721C15.8226 15.0074 8.58571 8.07795 2.73695 11.2155C2.67467 11.2492 2.61744 11.2374 2.61519 11.1662L3.62346 7.07249C3.62234 7.03714 3.64086 7.00516 3.67116 6.98833C9.51711 3.7531 16.9667 10.7908 22.5416 7.19424C22.596 7.1589 22.7481 7.20771 22.7498 7.27953V7.27897ZM23.8916 1.71131C23.9404 1.76967 23.6206 2.98834 22.9316 5.36847C20.1531 6.90304 17.7359 7.16787 15.6801 6.16241L16.2518 5.09298C16.7419 4.17651 17.4555 3.39864 18.3264 2.83151C19.1973 2.26438 20.1973 1.92636 21.2337 1.84878L22.729 1.74442C23.4831 1.69728 23.8708 1.68606 23.8916 1.71131Z" fill="white"/>
</svg>
