<svg width="130" height="23" viewBox="0 0 130 23" fill="none" xmlns="http://www.w3.org/2000/svg">
<g clip-path="url(#clip0_368_5430)">
<path d="M34.0826 11.2455C34.0826 9.75948 33.0181 8.70783 31.661 8.70783C30.304 8.70783 29.2395 9.75948 29.2395 11.2455C29.2395 12.7316 30.2911 13.7833 31.661 13.7833C33.031 13.7833 34.0826 12.7316 34.0826 11.2455ZM35.8612 11.2455C35.8612 13.5962 33.9773 15.4435 31.6632 15.4435C29.3491 15.4435 27.4652 13.5962 27.4652 11.2455C27.4652 8.89493 29.3491 7.04541 31.6632 7.04541C33.9773 7.04541 35.8612 8.89493 35.8612 11.2455Z" fill="white"/>
<path d="M44.2701 12.8585C44.3754 12.7424 44.5152 12.7295 44.6335 12.8349L45.5346 13.6177C45.6292 13.7123 45.64 13.8392 45.5583 13.9446C44.7518 14.8693 43.6163 15.4414 42.2936 15.4414C39.9774 15.4414 38.0935 13.594 38.0935 11.2434C38.0935 8.8928 39.9774 7.04327 42.2936 7.04327C43.6163 7.04327 44.7496 7.61749 45.5583 8.5401C45.64 8.64548 45.6271 8.77451 45.5346 8.86699L44.6335 9.65196C44.5152 9.75734 44.3754 9.74659 44.2701 9.62831C43.7905 9.067 43.0421 8.70354 42.2936 8.70354C40.9259 8.70354 39.8721 9.75519 39.8721 11.2413C39.8721 12.7273 40.9259 13.779 42.2936 13.779C43.0421 13.779 43.7905 13.4155 44.2701 12.8542" fill="white"/>
<path d="M50.709 13.7016H54.0188C54.1585 13.7016 54.2532 13.7962 54.2532 13.936V15.1059C54.2532 15.2457 54.1585 15.3403 54.0188 15.3403H49.1648C49.025 15.3403 48.9304 15.2478 48.9304 15.1059V7.38737C48.9304 7.24758 49.025 7.15295 49.1648 7.15295H54.0188C54.1585 7.15295 54.2532 7.24758 54.2532 7.38737V8.5573C54.2532 8.69709 54.1585 8.79172 54.0188 8.79172H50.709V10.4283H53.4919C53.6316 10.4283 53.7263 10.523 53.7263 10.6627V11.8327C53.7263 11.9725 53.6338 12.0671 53.4919 12.0671H50.709V13.7037V13.7016Z" fill="white"/>
<path d="M60.1094 11.8305H61.7825L60.9524 9.65622L60.1094 11.8305ZM63.0686 15.1876L62.4019 13.4692H59.49L58.834 15.1876C58.7996 15.2822 58.705 15.3403 58.6125 15.3403H57.2082C56.9974 15.3403 56.905 15.2112 56.9867 15.0241L60.0986 7.30345C60.133 7.21097 60.2169 7.15076 60.3201 7.15076H61.5825C61.6879 7.15076 61.7696 7.20882 61.804 7.30345L64.916 15.0241C64.9977 15.2112 64.9052 15.3403 64.6945 15.3403H63.2901C63.1847 15.3403 63.103 15.2822 63.0686 15.1876Z" fill="white"/>
<path d="M75.1851 7.38519V15.1037C75.1851 15.2435 75.0905 15.3381 74.9507 15.3381H73.5227C73.4517 15.3381 73.3829 15.3037 73.3356 15.2435L69.6516 10.2025V15.1037C69.6516 15.2435 69.557 15.3381 69.4172 15.3381H68.1075C67.9677 15.3381 67.873 15.2435 67.873 15.1037V7.38519C67.873 7.2454 67.9677 7.15077 68.1075 7.15077H69.5333C69.6043 7.15077 69.6731 7.18518 69.7204 7.24325L73.4044 12.3079V7.38304C73.4044 7.24325 73.499 7.14862 73.6388 7.14862H74.9485C75.0883 7.14862 75.183 7.2411 75.183 7.38304" fill="white"/>
<path d="M89.7491 7.4712L87.2351 15.1919C87.2114 15.2865 87.1189 15.3553 87.0136 15.3553H85.6802C85.5748 15.3553 85.4823 15.2844 85.4587 15.1919L84.0092 10.2562L82.5597 15.1919C82.536 15.2865 82.4435 15.3553 82.3381 15.3553H81.0048C80.8994 15.3553 80.8069 15.2844 80.7833 15.1919L78.2692 7.4712C78.1982 7.2841 78.2928 7.16797 78.4907 7.16797H79.8585C79.9639 7.16797 80.0563 7.23894 80.08 7.33141L81.6349 12.6778L83.0629 7.34432C83.0866 7.23894 83.179 7.16797 83.2844 7.16797H84.7339C84.8393 7.16797 84.9318 7.23894 84.9554 7.34432L86.3834 12.6778L87.9383 7.33141C87.962 7.23894 88.0545 7.16797 88.1598 7.16797H89.5276C89.7255 7.16797 89.8201 7.2841 89.7491 7.4712Z" fill="white"/>
<path d="M99.9193 11.2606C99.9193 13.6112 98.0354 15.4608 95.7192 15.4608C93.403 15.4608 91.519 13.6134 91.519 11.2606C91.519 8.90786 93.403 7.06049 95.7192 7.06049C98.0354 7.06049 99.9193 8.90786 99.9193 11.2606ZM98.1408 11.2606C98.1408 9.77455 97.0762 8.72291 95.7192 8.72291C94.3621 8.72291 93.2976 9.7767 93.2976 11.2606C93.2976 12.7445 94.3514 13.7983 95.7192 13.7983C97.087 13.7983 98.1408 12.7467 98.1408 11.2606Z" fill="white"/>
<path d="M106.67 15.25L104.786 12.2671H104.412V15.1209C104.412 15.2607 104.317 15.3554 104.178 15.3554H102.868C102.728 15.3554 102.633 15.2629 102.633 15.1209V7.40025C102.633 7.26046 102.726 7.16583 102.868 7.16583H105.745C107.126 7.16583 108.259 8.18307 108.259 9.71645C108.259 10.9208 107.545 11.8456 106.575 12.1251L108.565 14.9919C108.717 15.2027 108.647 15.3554 108.378 15.3554H106.868C106.786 15.3554 106.715 15.308 106.67 15.25ZM104.412 8.8046V10.6283H105.477C106.388 10.6283 106.494 9.93797 106.494 9.71645C106.494 9.49494 106.388 8.8046 105.477 8.8046H104.412Z" fill="white"/>
<path d="M113.397 7.40023V10.4304L116.064 7.24969C116.111 7.20238 116.18 7.16797 116.24 7.16797H118.006C118.333 7.16797 118.391 7.32066 118.182 7.56583L114.733 11.2627L118.182 14.9596C118.393 15.2048 118.335 15.3575 118.006 15.3575H116.24C116.182 15.3575 116.111 15.3231 116.064 15.2758L113.397 12.1165V15.1231C113.397 15.2629 113.302 15.3575 113.163 15.3575H111.853C111.713 15.3575 111.619 15.265 111.619 15.1231V7.40238C111.619 7.26259 111.711 7.16797 111.853 7.16797H113.163C113.302 7.16797 113.397 7.26044 113.397 7.40238V7.40023Z" fill="white"/>
<path d="M120.301 14.3252C120.195 14.2327 120.195 14.1037 120.277 13.9983L120.967 13.1445C121.073 13.0155 121.213 13.0155 121.331 13.1338C121.892 13.6241 122.63 13.8714 123.167 13.8714C123.81 13.8714 124.385 13.5682 124.385 13.0176C124.385 11.8241 120.677 11.9531 120.677 9.41537C120.677 7.86048 121.929 7.06476 123.296 7.06476C124.232 7.06476 124.933 7.21745 125.892 7.88414C126.008 7.95511 126.021 8.082 125.95 8.20028L125.307 9.10139C125.226 9.21752 125.086 9.24117 124.967 9.15945C124.535 8.87772 123.892 8.6089 123.331 8.6089C122.77 8.6089 122.372 8.90138 122.361 9.40462C122.348 10.5401 126.14 10.5165 126.14 13.0069C126.14 14.493 124.701 15.4629 123.157 15.4629C122.268 15.4629 121.296 15.1704 120.303 14.3274L120.301 14.3252Z" fill="white"/>
<path d="M128.905 7.39813C129.51 7.39813 130 7.88847 130 8.49279C130 9.09711 129.51 9.58745 128.905 9.58745C128.301 9.58745 127.811 9.09711 127.811 8.49279C127.811 7.88847 128.301 7.39813 128.905 7.39813ZM128.905 9.41755C129.411 9.41755 129.826 9.00679 129.826 8.49064C129.826 7.9745 129.411 7.56373 128.905 7.56373C128.4 7.56373 127.985 7.9745 127.985 8.49064C127.985 9.00679 128.4 9.41755 128.905 9.41755ZM128.518 8.94872V7.9788C128.518 7.94869 128.537 7.92933 128.568 7.92933H129.026C129.206 7.92933 129.353 8.06052 129.353 8.25622C129.353 8.43042 129.251 8.55731 129.082 8.58312L129.316 8.92076C129.346 8.96593 129.331 8.99603 129.273 8.99603H129.105C129.09 8.99603 129.071 8.98743 129.062 8.97238L128.836 8.58742H128.763V8.94657C128.763 8.97668 128.746 8.99603 128.714 8.99603H128.568C128.537 8.99603 128.518 8.97883 128.518 8.94657V8.94872ZM128.761 8.12934V8.37881H128.948C129.067 8.37881 129.11 8.31214 129.11 8.25622C129.11 8.1831 129.067 8.12719 128.948 8.12719H128.761V8.12934Z" fill="white"/>
<path d="M21.5297 11.2455C21.5297 16.9167 16.9167 21.5297 11.2455 21.5297C5.57438 21.5297 0.959172 16.9167 0.959172 11.2455C0.959172 5.57438 5.57438 0.959172 11.2455 0.959172C16.9167 0.959172 21.5297 5.57223 21.5297 11.2434M11.2455 0C5.04533 0 0 5.04533 0 11.2455C0 17.4457 5.04533 22.4911 11.2455 22.4911C17.4457 22.4911 22.4911 17.4457 22.4911 11.2455C22.4911 5.04533 17.4457 0 11.2455 0Z" fill="white"/>
<path d="M9.14217 7.33573C9.14217 6.5271 8.5615 5.95289 7.82385 5.95289C7.08619 5.95289 6.50552 6.5271 6.50552 7.33573C6.50552 8.14436 7.07974 8.71857 7.82385 8.71857C8.56796 8.71857 9.14217 8.14436 9.14217 7.33573ZM10.1099 7.33573C10.1099 8.6175 9.0841 9.62398 7.82169 9.62398C6.55929 9.62398 5.53345 8.6175 5.53345 7.33573C5.53345 6.05397 6.55929 5.04749 7.82169 5.04749C9.0841 5.04749 10.1099 6.05397 10.1099 7.33573Z" fill="white"/>
<path d="M15.1143 5.58942L14.5336 5.1722C14.4712 5.12704 14.4003 5.13994 14.3551 5.20231L6.09462 16.721C6.04946 16.7833 6.06236 16.8543 6.12473 16.8995L6.7054 17.3167C6.76776 17.3618 6.83873 17.3489 6.8839 17.2866L15.1444 5.76792C15.1895 5.70555 15.1766 5.63458 15.1143 5.58942Z" fill="white"/>
<path d="M18.1768 12.966L16.8069 17.1726C16.794 17.2242 16.7424 17.2629 16.6864 17.2629H15.9595C15.9015 17.2629 15.852 17.2242 15.8391 17.1726L15.0498 14.4822L14.2605 17.1726C14.2476 17.2242 14.196 17.2629 14.1401 17.2629H13.4132C13.3551 17.2629 13.3057 17.2242 13.2928 17.1726L11.9228 12.966C11.8841 12.8649 11.9357 12.8004 12.0433 12.8004H12.7895C12.8476 12.8004 12.8971 12.8391 12.91 12.8886L13.7573 15.8005L14.5358 12.895C14.5487 12.837 14.6003 12.8004 14.6563 12.8004H15.4455C15.5036 12.8004 15.5531 12.8391 15.566 12.895L16.3445 15.8005L17.1918 12.8886C17.2047 12.837 17.2563 12.8004 17.3123 12.8004H18.0585C18.1661 12.8004 18.2177 12.8649 18.179 12.966H18.1768Z" fill="white"/>
</g>
<defs>
<clipPath id="clip0_368_5430">
<rect width="130" height="22.4889" fill="white"/>
</clipPath>
</defs>
</svg>
