<svg width="137" height="26" viewBox="0 0 137 26" fill="none" xmlns="http://www.w3.org/2000/svg">
<g clip-path="url(#clip0_337_140)">
<path d="M30.576 4.75559C29.4565 4.06206 28.2136 3.71528 26.8464 3.71528C25.5584 3.71528 24.4542 4.03234 23.5328 4.66642C22.881 5.11557 22.3713 5.69352 22.0026 6.39917V4.07196H17.8712V25.0861H22.0026V16.8738C22.3713 17.5806 22.881 18.1584 23.5328 18.6065C24.4542 19.2406 25.5584 19.5577 26.8464 19.5577C28.2136 19.5577 29.4565 19.2153 30.576 18.5317C31.6956 17.848 32.5774 16.9024 33.2214 15.6936C33.8654 14.4849 34.1869 13.1374 34.1869 11.6514C34.1869 10.1652 33.8642 8.79352 33.2214 7.59469C32.5774 6.39586 31.6956 5.45023 30.576 4.75559ZM29.4762 13.7617C29.1295 14.3958 28.6539 14.8911 28.0496 15.2478C27.4452 15.6045 26.766 15.7828 26.0131 15.7828C25.26 15.7828 24.5808 15.6045 23.9764 15.2478C23.3721 14.8911 22.892 14.3958 22.5354 13.7617C22.1788 13.1276 22.0004 12.4242 22.0004 11.6514C22.0004 10.8786 22.1788 10.1454 22.5354 9.51127C22.892 8.87718 23.3721 8.38179 23.9764 8.02512C24.5808 7.66845 25.2589 7.49011 26.0131 7.49011C26.7671 7.49011 27.4441 7.66845 28.0496 8.02512C28.6539 8.38179 29.1295 8.87718 29.4762 9.51127C29.8231 10.1454 29.9969 10.8587 29.9969 11.6514C29.9969 12.4439 29.8231 13.1276 29.4762 13.7617Z" fill="black"/>
<path d="M47.1825 4.90421C46.0628 4.11159 44.7198 3.71528 43.1555 3.71528C41.5912 3.71528 40.3472 4.06756 39.188 4.7699C38.0288 5.47335 37.1273 6.42999 36.4833 7.63873C35.8393 8.84745 35.5178 10.185 35.5178 11.6514C35.5178 13.2366 35.8492 14.6236 36.513 15.8125C37.1768 17.0015 38.1224 17.9228 39.351 18.5768C40.5795 19.2307 41.9864 19.5577 43.5717 19.5577C44.8399 19.5577 45.9792 19.3991 46.9898 19.0821C48.0004 18.765 48.8227 18.3192 49.4568 17.7445V14.2076C48.7237 14.8218 47.9156 15.3072 47.0349 15.664C46.1531 16.0206 45.2373 16.1989 44.285 16.1989C43.215 16.1989 42.2837 16.0008 41.491 15.6045C40.6985 15.2082 40.104 14.6534 39.7076 13.94C39.4589 13.4931 39.2893 13.0076 39.1958 12.4836H49.961C50.179 10.8786 50.0502 9.4122 49.5746 8.08457C49.0991 6.75694 48.302 5.69682 47.1825 4.90421ZM39.3168 9.74905C39.3884 9.46945 39.4786 9.20634 39.5888 8.96085C39.9058 8.25741 40.3472 7.72679 40.912 7.37122C41.4767 7.01453 42.1164 6.8362 42.8296 6.8362C43.4043 6.8362 43.9239 6.965 44.3896 7.2226C44.8553 7.48021 45.2318 7.82697 45.519 8.26291C45.8064 8.69885 45.9594 9.19423 45.9803 9.74905H39.318H39.3168Z" fill="black"/>
<path d="M63.8571 4.53212C62.9555 3.98719 61.9096 3.71528 60.7218 3.71528C60.0085 3.71528 59.3446 3.83968 58.7304 4.08737C58.1162 4.33506 57.5811 4.69725 57.1253 5.17171C56.7829 5.52839 56.4857 5.93461 56.2336 6.39255V4.07196H52.1022V19.2009H56.2336V11.2946C56.2336 10.5813 56.3724 9.9329 56.6497 9.34725C56.9272 8.7627 57.3081 8.30694 57.7947 7.97999C58.2801 7.65303 58.8294 7.48901 59.4438 7.48901C60.375 7.48901 61.128 7.80605 61.7026 8.44014C62.2773 9.07424 62.5647 9.91639 62.5647 10.9666V19.1999H66.6961V10.4019C66.6961 9.05442 66.4484 7.8754 65.9531 6.86483C65.4577 5.85424 64.7586 5.07704 63.8571 4.53102V4.53212Z" fill="black"/>
<path d="M86.9717 3.71454C86.1593 3.71454 85.4206 3.84334 84.7579 4.10094C84.0941 4.35854 83.4996 4.73063 82.9745 5.215C82.6376 5.52654 82.3272 5.88983 82.0432 6.30374C81.8824 5.9823 81.6975 5.68838 81.4884 5.42307C80.5867 4.28368 79.2536 3.71454 77.4912 3.71454C76.6787 3.71454 75.8861 3.95233 75.1133 4.4279C74.3405 4.90346 73.746 5.55737 73.33 6.38961V4.07121H69.1985V19.2002H73.33V11.0561C73.33 9.96628 73.5876 9.09991 74.1028 8.45592C74.618 7.81192 75.3016 7.49046 76.1537 7.49046C76.9462 7.49046 77.5649 7.78329 78.0119 8.36675C78.4577 8.95129 78.6801 9.74941 78.6801 10.7589V19.2002H82.8413V11.0561C82.8413 9.94647 83.0934 9.07459 83.5987 8.4405C84.104 7.80641 84.792 7.48936 85.665 7.48936C86.4378 7.48936 87.0521 7.78219 87.5078 8.36565C87.9636 8.95019 88.1914 9.74831 88.1914 10.7578V19.1991H92.3229V10.4011C92.3229 8.26106 91.8518 6.61088 90.9105 5.45169C89.9693 4.29249 88.656 3.71344 86.9728 3.71344L86.9717 3.71454Z" fill="black"/>
<path d="M106.444 6.37164C106.066 5.6781 105.556 5.10896 104.912 4.66642C103.991 4.03234 102.886 3.71528 101.599 3.71528C100.312 3.71528 99.0174 4.06206 97.8989 4.75559C96.7794 5.44913 95.892 6.39586 95.2382 7.59469C94.5843 8.79352 94.2573 10.1465 94.2573 11.6514C94.2573 13.1562 94.5843 14.4849 95.2382 15.6936C95.892 16.9024 96.7782 17.848 97.8989 18.5317C99.0186 19.2153 100.251 19.5577 101.599 19.5577C102.946 19.5577 103.991 19.2406 104.912 18.6065C105.555 18.1639 106.065 17.596 106.444 16.9013V19.2009H110.605V4.07196H106.444V6.37164ZM105.923 13.7617C105.576 14.3958 105.101 14.8911 104.496 15.2478C103.892 15.6045 103.213 15.7828 102.46 15.7828C101.707 15.7828 101.028 15.6045 100.423 15.2478C99.8189 14.8911 99.3388 14.3958 98.9822 13.7617C98.6255 13.1276 98.4472 12.4242 98.4472 11.6514C98.4472 10.8786 98.6255 10.1454 98.9822 9.51127C99.3388 8.87718 99.8189 8.38179 100.423 8.02512C101.028 7.66845 101.706 7.49011 102.46 7.49011C103.214 7.49011 103.891 7.66845 104.496 8.02512C105.101 8.38179 105.576 8.87718 105.923 9.51127C106.27 10.1454 106.444 10.8587 106.444 11.6514C106.444 12.4439 106.27 13.1276 105.923 13.7617Z" fill="black"/>
<path d="M121.641 3.71528C120.987 3.71528 120.372 3.8639 119.798 4.16113C119.223 4.45836 118.733 4.87007 118.326 5.39518C117.92 5.92029 117.628 6.50925 117.45 7.16315V4.07196H113.318V19.2009H117.45V12.4242C117.469 11.4532 117.658 10.6011 118.015 9.86795C118.371 9.13478 118.842 8.57005 119.427 8.17374C120.012 7.77743 120.67 7.57928 121.405 7.57928C121.86 7.57928 122.311 7.62881 122.756 7.72789C123.202 7.82697 123.603 7.9954 123.96 8.23319V4.28003C123.624 4.10169 123.251 3.96297 122.847 3.8639C122.44 3.76482 122.037 3.71528 121.641 3.71528Z" fill="black"/>
<path d="M136.999 7.51939V4.07152H132.005V-0.000523567H127.845V4.07152H125.407V7.51939H127.845V13.137C127.845 14.5439 128.101 15.7285 128.617 16.6895C129.133 17.6506 129.836 18.3682 130.727 18.8439C131.619 19.3195 132.64 19.5572 133.789 19.5572C134.284 19.5572 134.813 19.4978 135.379 19.3789C135.943 19.2599 136.482 19.1015 136.999 18.9033V15.2771C136.642 15.495 136.271 15.6591 135.885 15.7681C135.498 15.8771 135.057 15.9311 134.562 15.9311C133.828 15.9311 133.219 15.679 132.735 15.1737C132.249 14.6683 132.006 13.9208 132.006 12.929V7.51939H136.999Z" fill="black"/>
<path d="M7.74229 15.3508C5.59233 15.3508 3.84968 13.6081 3.84968 11.4582C3.84968 10.8218 4.0027 10.2208 4.2735 9.69018L0.842152 7.94202C0.303836 8.99774 0 10.1922 0 11.4582V19.2004H7.74229C9.00828 19.2004 10.2027 18.8966 11.2584 18.3583L9.51026 14.927C8.97965 15.1977 8.37858 15.3508 7.74229 15.3508Z" fill="black"/>
<path d="M7.74225 3.71423C6.47738 3.71423 5.28185 4.01806 4.22723 4.55638L5.97429 7.98773C6.5049 7.71693 7.10486 7.56391 7.74225 7.56391C9.89222 7.56391 11.636 9.30766 11.636 11.4576C11.636 12.095 11.4829 12.6949 11.2122 13.2256L14.6435 14.9738C15.1818 13.918 15.4856 12.7236 15.4856 11.4576C15.4856 7.1808 12.0191 3.71423 7.74225 3.71423Z" fill="black"/>
</g>
<defs>
<clipPath id="clip0_337_140">
<rect width="137" height="25.8898" fill="white"/>
</clipPath>
</defs>
</svg>
