<svg width="117" height="39" viewBox="0 0 117 39" fill="none" xmlns="http://www.w3.org/2000/svg">
<g clip-path="url(#clip0_401_362)">
<path d="M0 14.43V28.86L1.7004 28.8444L3.393 28.821L3.4164 23.7354L3.432 18.6498L8.3694 18.6264L13.299 18.5952L14.0556 18.3924C15.7716 17.9244 17.0196 17.2458 18.1974 16.146C19.0944 15.3036 19.7106 14.469 20.2488 13.3848C21.4734 10.8576 21.5046 7.90139 20.319 5.39759C18.9696 2.55839 16.3956 0.616188 13.3146 0.116987C12.7218 0.0233879 11.4972 -1.14441e-05 6.3024 -1.14441e-05H0V14.43ZM12.714 3.30719C15.2178 3.75959 17.16 5.67839 17.6748 8.18219C17.8464 9.05579 17.7918 10.335 17.55 11.115C17.0118 12.8388 15.912 14.118 14.313 14.898C13.0182 15.522 13.0416 15.522 7.9248 15.522H3.432V9.35999V3.19799H7.7844C11.0916 3.20579 12.2694 3.22919 12.714 3.30719Z" fill="#575759"/>
<path d="M30.5136 14.4066L30.537 28.821H32.214H33.891L33.9144 14.4066L33.93 4.3869e-05H32.214H30.498L30.5136 14.4066Z" fill="#575759"/>
<path d="M43.633 0.132488C43.8124 0.608288 53.929 24.5465 53.9758 24.5933C54.0304 24.6557 55.8478 20.5763 55.8478 20.3969C55.8478 20.3501 53.8666 15.7481 51.4486 10.1711L47.0416 0.038887L45.31 0.0154877C43.6876 -0.000112534 43.5862 0.00768852 43.633 0.132488Z" fill="#575759"/>
<path d="M68.1486 0.132584C68.133 0.210583 65.3406 6.66898 61.9398 14.4768C58.5468 22.2924 55.77 28.704 55.77 28.7352C55.77 28.7586 56.55 28.782 57.5094 28.782L59.241 28.7742L65.4186 14.5236C68.8194 6.68458 71.6196 0.210583 71.6508 0.132584C71.6976 0.00778389 71.5806 -1.71661e-05 69.9426 -1.71661e-05C68.3436 -1.71661e-05 68.1876 0.00778389 68.1486 0.132584Z" fill="#F65729"/>
<path d="M81.3698 14.4066L81.3932 28.821H83.0702H84.7472L84.7706 14.4066L84.7862 4.3869e-05H83.0702H81.3542L81.3698 14.4066Z" fill="#F65729"/>
<path d="M93.2881 1.59904V3.19804H98.3581H103.428L103.444 16.0056L103.467 28.821H105.144H106.821L106.844 16.0056L106.86 3.19804H111.93H117V1.59904V4.3869e-05H105.144H93.2881V1.59904Z" fill="#F65729"/>
<path d="M56.9399 34.0002C55.3643 34.515 54.6545 36.2544 55.4267 37.6818C55.6919 38.1654 56.0585 38.493 56.6279 38.7582C57.2519 39.0546 58.1255 39.0468 58.7495 38.7426C59.2799 38.4852 59.6933 38.0406 59.9663 37.4478C60.1301 37.0968 60.1691 36.894 60.1691 36.426C60.1613 35.7162 59.9897 35.2716 59.5061 34.749C59.0069 34.203 58.5155 33.9846 57.7589 33.9612C57.4157 33.9456 57.0491 33.9612 56.9399 34.0002Z" fill="#F65729"/>
</g>
<defs>
<clipPath id="clip0_401_362">
<rect width="117" height="39" fill="white"/>
</clipPath>
</defs>
</svg>
