<svg width="119" height="38" viewBox="0 0 119 38" fill="none" xmlns="http://www.w3.org/2000/svg">
<g clip-path="url(#clip0_389_716)">
<path d="M61.3403 0.108409L59.9304 3.66163L58.2717 7.92052L57.8778 8.89703L56.6451 12.0696L56.2381 13.1164L55.9234 13.907L54.9922 16.2758L53.1695 20.9475L52.212 23.3691L50.0379 28.9309C49.9237 29.2237 49.852 29.6234 49.6104 29.8167L46.3778 29.8138L45.6136 27.8285L42.4161 19.504L41.996 18.3752L38.939 10.4079L38.0445 8.06546L36.5658 4.21504L35.197 0.667672L35.0725 0.121585L38.3856 0.105481C38.797 0.104017 38.898 0.23578 39.0327 0.597398L40.7032 5.06418L43.8055 13.3462L44.4365 15.0387L44.965 16.4368L45.1685 16.9771L47.6764 23.6589L48.0395 24.5564C48.1596 24.5095 48.3162 24.41 48.3455 24.3368L48.7174 23.4086L53.2032 11.8105L53.8561 10.1122L54.2104 9.23083L55.5164 5.84159L55.8253 5.07736L56.02 4.53273L56.2484 3.9398L57.727 0.123049L61.3418 0.111337L61.3403 0.108409Z" fill="white"/>
<path d="M76.6542 29.8869L75.6615 29.7742L73.3381 29.2354C70.8639 28.4551 68.7059 27.0906 66.9447 25.1712C65.1249 23.1874 63.9639 20.7542 63.4178 18.1175L63.1455 16.2157L63.0884 14.6741L63.1499 13.1368L63.4192 11.2336C64.4792 6.11529 67.8977 2.02916 72.8667 0.305987C73.2927 0.134694 73.6953 0.00439453 74.1712 0.00439453H82.7665C86.4134 0.991157 89.4586 3.30727 91.3839 6.5384C93.1583 9.51772 93.8376 13.2774 93.4101 16.7296C92.864 21.1495 90.7001 24.975 86.9712 27.4742C85.1441 28.6981 83.0564 29.4404 80.8838 29.7844L79.9468 29.8913C79.146 29.9821 78.3817 30.0626 77.5853 29.9821L76.6527 29.8884L76.6542 29.8869ZM78.8473 26.6426L80.2601 26.4566C82.7197 26.1331 84.9143 24.9018 86.5891 23.0615C88.0415 21.4643 88.974 19.5259 89.4059 17.406L89.5992 16.204C90.116 11.4883 88.2069 6.65991 84.0241 4.234C81.8983 3.00128 79.4827 2.57817 77.0172 2.81535C73.4011 3.16379 70.2285 5.25444 68.4892 8.42408C67.8172 9.64802 67.3839 10.8837 67.1262 12.2496L66.952 13.8469L66.9432 15.5159C66.9388 16.3855 67.1086 17.1864 67.337 18.0487C67.826 19.8992 68.681 21.6063 69.9708 23.0249C71.7921 25.0292 74.2429 26.278 76.9382 26.5416C77.5911 26.606 78.1811 26.729 78.8444 26.6426H78.8473Z" fill="white"/>
<path d="M108.658 30.0172H105.48C105.403 29.9864 105.198 29.8108 105.198 29.7039V2.90612L95.4685 2.90026L95.161 2.80364L95.18 0.00292969H118.972L119 2.68944C119 2.77143 118.815 2.90173 118.713 2.90173H109.288C109.128 2.90026 108.983 3.04081 108.983 3.21796V29.7829C108.983 29.8825 108.766 30.0011 108.658 30.0187V30.0172Z" fill="white"/>
<path d="M12.6011 16.062C11.8178 16.1688 11.0756 16.327 10.2967 16.3284L3.77442 16.3431V29.7083C3.77442 29.8356 3.59727 30.0157 3.48893 30.0157H0.140671C0.0279396 29.8459 0.00158691 29.6658 0.00158691 29.4184V0.0102483L13.5059 0C13.9597 0 14.3214 0.0863783 14.7108 0.262063C16.0343 0.737876 17.2011 1.46989 18.141 2.53425C19.7617 4.37162 20.1292 7.1694 19.7354 9.54846C19.1146 13.3037 16.2539 15.3753 12.6026 16.062H12.6011ZM15.8278 8.21911V7.49149C15.8337 5.60141 14.5292 3.93094 12.7036 3.34533C11.9921 3.14183 11.3113 2.92661 10.5485 2.92515L3.77588 2.91344V12.7928L10.8091 12.7796C11.1766 12.7796 11.5807 12.6156 11.932 12.5893C13.765 12.1252 15.0812 11.2321 15.6404 9.3962C15.7532 9.0258 15.8264 8.651 15.8278 8.21911Z" fill="white"/>
<path d="M29.4624 0H25.6691V30.0172H29.4624V0Z" fill="white"/>
<path d="M30.0597 37.2452V33.5382C30.1197 33.4928 30.313 33.4094 30.3613 33.4606L30.5677 33.6729L32.7447 36.1676L32.878 36.3199C32.9146 36.3624 33.061 36.2013 33.061 36.131V33.6817C33.0595 33.5177 33.1796 33.3582 33.3055 33.3655C33.4314 33.3728 33.5763 33.4841 33.6334 33.607L33.6305 37.3023L33.4943 37.5175C33.4563 37.5761 33.2367 37.5321 33.1737 37.4619L30.7712 34.7446C30.5384 35.7768 30.9776 37.5995 30.3862 37.5614C30.2281 37.5512 30.1095 37.4253 30.0626 37.2466L30.0597 37.2452Z" fill="white"/>
<path d="M51.3966 36.497C51.8358 35.7152 50.117 36.5307 50.1492 35.8191C50.1536 35.7093 50.3132 35.582 50.4567 35.582H51.8475C51.9163 35.582 52.0569 35.6332 52.0876 35.6801C52.2399 35.9158 51.9324 37.1251 51.2063 37.4823C50.8549 37.655 50.3513 37.4691 49.956 37.4823C49.5007 37.4955 49.0132 37.5936 48.5798 37.5174C47.4949 36.9494 47.126 35.5703 47.6984 34.4781C47.9869 33.9276 48.5403 33.4811 49.1435 33.3317C50.1039 33.0946 51.1243 33.3347 51.7758 34.0403C51.8461 34.1165 51.6748 34.402 51.5694 34.4093C51.4317 34.4195 51.2722 34.3507 51.136 34.2424C50.4216 33.6714 49.3792 33.648 48.6574 34.2028C48.1669 34.5806 47.9649 35.194 48.022 35.7533C48.085 36.3667 48.4876 36.8425 49.0424 37.1485C49.8872 37.6155 50.912 37.3578 51.3951 36.4955L51.3966 36.497Z" fill="white"/>
<path d="M10.5076 35.582H11.9072C12.4928 35.5791 12.0975 37.0593 11.2689 37.4882C10.9922 37.6317 10.5281 37.4853 10.2323 37.4955L9.40808 37.5234L8.64092 37.5307C7.70687 36.9626 7.3145 35.9466 7.59706 34.8969C7.8562 33.9321 8.79172 33.2484 9.85315 33.241C11.0083 33.2323 11.9467 33.9321 11.8662 34.1927C11.8164 34.3508 11.55 34.4855 11.4255 34.383C10.7535 33.8208 9.88096 33.6232 9.07867 33.9877C8.44328 34.2776 8.08312 34.9027 8.07727 35.5337C8.07141 36.2262 8.42571 36.7665 9.05964 37.1178C9.53399 37.3813 10.0669 37.4868 10.6042 37.2554C11.0229 37.0754 11.4709 36.7108 11.5734 36.1574L10.531 36.1369C10.4241 36.1355 10.2309 35.9964 10.2221 35.8953C10.2133 35.7738 10.3582 35.582 10.5076 35.5806V35.582Z" fill="white"/>
<path d="M37.2026 36.0652C37.1221 36.0593 37.0533 35.847 37.0796 35.7812C37.106 35.7153 37.2348 35.582 37.3212 35.5835L38.939 35.5952C39.2903 36.1413 38.6139 37.396 38.0181 37.516C37.5759 37.6054 37.0913 37.4809 36.636 37.4941L35.4999 37.5263C34.7342 37.0666 34.3419 36.3155 34.3712 35.4664C34.4004 34.6172 34.847 33.8589 35.6449 33.4929C37.4617 32.6584 39.2464 34.159 38.592 34.3845C38.4939 34.4181 38.267 34.3947 38.185 34.3244C37.308 33.5792 35.9435 33.6144 35.2642 34.547C34.5849 35.4796 34.9773 36.6171 35.9011 37.1134C36.3827 37.3726 36.8673 37.4838 37.4061 37.2759C37.8175 37.1164 38.2787 36.7679 38.4178 36.2101C38.286 36.0754 37.9859 36.1281 37.7985 36.1135L37.2041 36.0652H37.2026Z" fill="white"/>
<path d="M117.697 36.1135L117.105 36.0754L117.142 35.5849L118.925 35.5937C119.092 36.3799 118.764 37.1764 118.047 37.5424L116.593 37.4897C116.249 37.478 115.802 37.6419 115.475 37.4897C114.751 37.1544 114.356 36.3477 114.331 35.6128C114.305 34.8134 114.722 34.0375 115.431 33.6041C116.482 32.9614 117.845 33.1854 118.704 34.055C118.679 34.1795 118.627 34.3259 118.559 34.3786C118.482 34.4415 118.224 34.3918 118.148 34.3273C117.362 33.67 116.3 33.6187 115.489 34.2644C115.015 34.6421 114.814 35.3024 114.942 35.9158C115.063 36.497 115.492 36.9421 116.07 37.1998C116.649 37.4575 117.173 37.4633 117.703 37.1149C118.026 36.9026 118.384 36.6259 118.36 36.1427C118.192 36.0842 117.936 36.1281 117.695 36.112L117.697 36.1135Z" fill="white"/>
<path d="M82.0009 37.494C81.124 37.1192 80.8019 36.1691 80.8941 35.2731C81.0156 34.0916 82.0551 33.2322 83.2 33.2381C84.3449 33.2439 85.3785 34.0814 85.5015 35.2789C85.5922 36.1618 85.2277 37.0753 84.4239 37.4896C84.093 37.6609 83.6128 37.4765 83.2395 37.475C82.8662 37.4735 82.3787 37.6565 82.0009 37.4955V37.494ZM84.9627 35.563C84.9627 34.5864 84.1706 33.7944 83.1927 33.7944C82.2147 33.7944 81.4226 34.5864 81.4226 35.563C81.4226 36.5395 82.2147 37.3315 83.1927 37.3315C84.1706 37.3315 84.9627 36.5395 84.9627 35.563Z" fill="white"/>
<path d="M110.659 34.9774L110.675 37.27C110.651 37.3842 110.52 37.538 110.413 37.5511C110.307 37.5643 110.138 37.4428 110.099 37.3286V33.6729L110.159 33.4826C110.176 33.4269 110.349 33.4753 110.405 33.5031L113.015 36.4736L113.03 33.6656C113.03 33.5499 113.126 33.3903 113.242 33.3464C113.343 33.3084 113.533 33.4094 113.596 33.525V37.3242C113.549 37.3989 113.462 37.5116 113.399 37.5365C113.324 37.5658 113.16 37.4604 113.101 37.396L112.301 36.5073L110.791 34.768L110.658 34.9759L110.659 34.9774Z" fill="white"/>
<path d="M56.0317 37.4063L56.0288 33.5442C56.0888 33.5017 56.2221 33.43 56.2748 33.4519C56.3275 33.4739 56.4021 33.5442 56.4578 33.6086L58.891 36.4166C59.0652 36.1106 59.0257 35.8266 58.9686 35.487L58.9949 34.7344L59.0345 33.6115C59.0374 33.5486 59.1018 33.3275 59.1648 33.3436L59.5293 33.4432L59.5205 37.4707C59.4722 37.6098 59.1311 37.5 59.0389 37.3946L56.6422 34.673L56.591 37.462C56.4944 37.5908 56.1767 37.5688 56.0317 37.4078V37.4063Z" fill="white"/>
<path d="M95.1874 37.3316L94.0557 35.8822L93.962 35.7826C93.9445 35.7651 93.8449 35.8983 93.8449 35.9246L93.8347 37.2408C93.8347 37.3726 93.6824 37.5453 93.5843 37.5541C93.454 37.5658 93.2681 37.4209 93.2739 37.2613V33.6129L93.3764 33.3772C93.4145 33.2908 94.6794 33.222 95.4202 33.5031C95.9209 33.6934 96.1683 34.2849 96.079 34.7622C95.8726 35.8558 94.5696 35.6494 94.7863 35.932L95.918 37.4048C95.7335 37.6478 95.3836 37.5805 95.1889 37.3301L95.1874 37.3316ZM95.306 35.0228C95.5564 34.8632 95.5461 34.5221 95.4583 34.3054C95.3866 34.1268 95.1655 33.9145 94.9239 33.9116L93.8464 33.8999L93.8391 35.1707C94.3119 35.2497 94.8551 35.3097 95.306 35.0243V35.0228Z" fill="white"/>
<path d="M65.6564 37.3535L64.7882 36.2466C64.6491 36.0695 64.5598 35.8265 64.2846 35.8572L64.2729 37.3491C64.2729 37.4354 64.0869 37.5687 64.0196 37.5555C63.9376 37.5394 63.7868 37.4662 63.7092 37.4018L63.7122 33.4708C64.0928 33.2 65.0342 33.2995 65.6315 33.421C66.2288 33.5426 66.5158 34.0359 66.5041 34.6318C66.4909 35.2921 65.9697 35.724 65.2904 35.7372C65.1791 35.7474 65.2904 36.0168 65.3621 36.1061L66.3767 37.4076C66.1586 37.6463 65.835 37.5789 65.6579 37.3535H65.6564ZM65.3036 35.2072C65.7325 35.1984 65.9375 34.8704 65.9229 34.5176C65.9097 34.2028 65.7076 33.8969 65.3036 33.8969H64.2905L64.2773 35.2277L65.3036 35.2072Z" fill="white"/>
<path d="M44.1921 37.1955L43.6914 37.5381L42.6241 37.4971C42.3415 37.4868 41.9433 37.6274 41.6769 37.4663C41.5188 37.3712 41.368 36.9452 41.4031 36.7621C41.4412 36.5704 41.5319 36.2409 41.6461 36.1209L42.3825 35.3493L42.0517 34.8369C41.8994 34.6012 41.8584 34.3026 41.977 34.02C42.0663 33.8063 42.2801 33.6408 42.5846 33.5295C43.1321 33.3304 43.9461 33.7448 43.9198 34.3787C43.9022 34.8223 43.5362 35.0917 43.2317 35.4635L44.1013 36.3566C44.2873 36.5469 44.7367 35.9233 44.9431 36.2322C45.1496 36.5411 44.6694 36.7446 44.6825 36.8661C44.7089 37.0872 45.0852 37.1662 45.0486 37.459C44.7748 37.623 44.4146 37.582 44.1921 37.1955ZM42.8818 34.9072C43.1643 34.8765 43.3151 34.5002 43.3722 34.2894C43.2214 34.1166 43.0706 34.0244 42.8935 34.0229C42.772 34.0229 42.5245 34.1386 42.4923 34.2542C42.4279 34.4812 42.6256 34.935 42.8832 34.9072H42.8818ZM43.6504 36.7212L43.0165 35.9891C42.6944 35.6173 42.0268 36.2336 41.9726 36.831C41.9887 37.0184 42.3152 37.3302 42.5084 37.3683C42.9477 37.4561 43.7953 36.8924 43.6489 36.7226L43.6504 36.7212Z" fill="white"/>
<path d="M3.77292 37.4473C3.77292 37.5688 3.33225 37.5761 3.28833 37.459L3.28247 33.4695C3.51818 33.4197 3.61481 33.5485 3.75389 33.7066L6.17688 36.4678L6.2164 33.5515L6.39502 33.3143C6.47261 33.2103 6.82398 33.4534 6.78445 34.0331V37.2467L6.63805 37.5146C6.59852 37.5878 6.37013 37.4956 6.29546 37.4546L4.00278 34.8091L3.78756 34.8588L3.77439 37.4473H3.77292Z" fill="white"/>
<path d="M86.8174 37.2349C86.8145 37.3857 86.6798 37.5497 86.5627 37.5541C86.4104 37.5614 86.2875 37.4194 86.2465 37.2437V33.5485C86.3036 33.5075 86.3782 33.4489 86.4207 33.4548C86.4763 33.4621 86.5934 33.5323 86.6315 33.5748L89.1965 36.4897L89.2434 33.5309C89.2873 33.4445 89.4117 33.3083 89.4937 33.3083C89.5757 33.3083 89.6987 33.446 89.7441 33.5353L89.7382 37.5087H89.3619L86.8614 34.6699L86.8174 37.2364V37.2349Z" fill="white"/>
<path d="M14.8381 37.235C14.819 37.3917 14.6961 37.5352 14.5745 37.5542C14.4384 37.5762 14.2642 37.4151 14.2642 37.2424L14.2671 33.5047C14.415 33.4329 14.5848 33.5003 14.6814 33.6116L16.8482 36.1209C16.9624 36.2527 17.0444 36.342 17.2479 36.3771L17.2508 33.6628C17.2508 33.5325 17.3269 33.3861 17.4602 33.3407C17.5626 33.3056 17.753 33.4622 17.7603 33.594V37.2643C17.7486 37.3507 17.6476 37.5366 17.5656 37.541C17.4836 37.5454 17.3533 37.4664 17.2552 37.3976L15.0489 34.856C15.0313 34.837 14.9552 34.7491 14.9391 34.7696L14.8264 34.9204L14.8381 37.2365V37.235Z" fill="white"/>
<path d="M26.9925 37.2539L25.9296 35.8763C25.9077 35.847 25.773 35.7635 25.7598 35.7855C25.7408 35.8177 25.6734 35.9495 25.6734 36.0022L25.6427 37.4604C25.6251 37.595 25.1537 37.5438 25.1537 37.4091L25.1508 33.4738C25.2518 33.3523 25.4977 33.301 25.6559 33.304C26.7846 33.3274 27.8504 33.304 27.9207 34.4752C28.0042 35.1926 27.4727 35.7269 26.7612 35.7196L26.6353 35.784C26.6016 35.8016 26.6485 35.9055 26.6763 35.9421L27.7802 37.4223C27.4054 37.6712 27.2063 37.5306 26.9925 37.2525V37.2539ZM26.8315 35.1823C27.2297 35.1706 27.379 34.749 27.3629 34.443C27.3483 34.1794 27.0774 33.9042 26.7451 33.9042H25.6925C25.6529 34.4093 25.6515 34.7607 25.71 35.2175L26.8315 35.1823Z" fill="white"/>
<path d="M99.5284 36.3799H97.8609C97.716 36.3799 97.5769 36.7064 97.5183 36.8338L97.2621 37.3784C97.2314 37.4458 97.082 37.5453 97.0118 37.5541C96.9137 37.5658 96.7761 37.5029 96.6487 37.3887L98.4685 33.5134C98.5314 33.4548 98.7379 33.4563 98.8169 33.5163L100.625 37.3901C100.518 37.4926 100.351 37.5702 100.259 37.5541C100.162 37.5365 100.023 37.3931 99.975 37.295L99.5284 36.3799ZM99.2459 35.7973L98.732 34.6407C98.6895 34.6275 98.5475 34.6202 98.53 34.6597L98.4509 34.8412L98.0293 35.806L99.2474 35.7958L99.2459 35.7973Z" fill="white"/>
<path d="M68.1832 36.3697L67.7513 37.295C67.7118 37.3799 67.5962 37.5072 67.5171 37.5394C67.4058 37.5848 67.2126 37.5248 67.094 37.3872L68.9284 33.5031L69.0924 33.3948C69.1246 33.3728 69.2007 33.4387 69.2476 33.4782L71.0659 37.3916C70.9605 37.497 70.7936 37.5731 70.7058 37.557C70.6223 37.5409 70.4803 37.4238 70.4393 37.3418L69.9811 36.3872L68.1818 36.3726L68.1832 36.3697ZM69.6941 35.7738L69.0953 34.4928L68.4687 35.809L69.6941 35.7738Z" fill="white"/>
<path d="M0.885744 35.6465C0.715915 35.6465 0.566583 35.7929 0.566583 35.9232V36.9861C0.566583 37.0959 0.720307 37.2628 0.862319 37.2628L2.36589 37.2585C2.4142 37.2585 2.58696 37.3536 2.55914 37.3829L2.40834 37.5454H0.180077C0.131764 37.4971 0.0439212 37.3507 0 37.2497V33.6145L0.14494 33.3158L2.3205 33.3217C2.40834 33.3217 2.59281 33.4344 2.61477 33.5193C2.63673 33.6042 2.58549 33.8136 2.5284 33.8882H0.674922C0.52559 34.2747 0.52559 34.6759 0.658818 35.1327L1.81834 35.0961H2.37614C2.46837 35.0931 2.61477 35.2439 2.62941 35.3274C2.64552 35.424 2.49765 35.648 2.39663 35.648H0.885744V35.6465Z" fill="white"/>
<path d="M77.1914 36.926C78.5296 38.0211 79.5105 36.8602 79.9072 36.7299C80.0024 36.6991 80.2528 36.8733 80.2235 36.9802C80.1049 37.4033 79.5749 37.6068 79.1401 37.5439C78.2324 37.4136 77.6995 37.6039 76.9938 37.5117C76.2691 36.9978 75.9089 36.1706 76.0026 35.2731C76.152 33.8457 77.5457 32.9878 78.9337 33.2967C79.4549 33.4123 79.9233 33.6554 80.241 34.1341C80.2923 34.2117 80.1181 34.4342 80.0156 34.4445C79.6305 34.4811 79.4622 33.7608 78.2587 33.8076C77.515 33.8369 76.8928 34.2996 76.6658 34.9262C76.4023 35.6553 76.6146 36.4546 77.19 36.926H77.1914Z" fill="white"/>
<path d="M104.767 36.8616C104.906 36.7328 105.326 36.6889 105.317 36.8807C105.289 37.4282 104.695 37.6098 104.234 37.5409C102.824 37.3316 102.288 37.9318 101.604 37.0197C100.831 35.9905 100.95 34.4504 102.041 33.692C103.032 33.0024 104.379 33.102 105.218 33.9189C105.376 34.0741 105.396 34.2015 105.298 34.3391C104.975 34.7944 104.723 33.7432 103.348 33.8091C102.49 33.8501 101.824 34.4884 101.704 35.2892C101.575 36.1442 102.029 36.9099 102.862 37.254C103.5 37.5175 104.207 37.3814 104.767 36.8631V36.8616Z" fill="white"/>
<path d="M53.4053 35.6596L53.3745 36.986C53.3716 37.0885 53.5546 37.2627 53.6805 37.2627L55.1797 37.2569C55.2353 37.2569 55.3993 37.352 55.3715 37.3842L55.2309 37.5453H53.0027L52.8182 37.251V33.7476C52.8138 33.6202 52.9602 33.3215 53.1066 33.3215L55.149 33.3186C55.2719 33.3186 55.4535 33.5353 55.4418 33.6465C55.4271 33.7856 55.2383 33.8954 55.0933 33.8954L53.4478 33.8896L53.3687 34.7109C53.3599 34.8046 53.4302 35.0154 53.4829 35.0842C53.5356 35.153 53.7493 35.0872 53.8386 35.0901L55.0143 35.1355C55.1548 35.1413 55.3027 35.1823 55.392 35.2877C55.4623 35.3697 55.3349 35.642 55.2251 35.642L53.4068 35.6611L53.4053 35.6596Z" fill="white"/>
<path d="M24.3705 35.1516C24.4495 35.1589 24.5184 35.3785 24.4891 35.4429C24.4598 35.5073 24.3354 35.6362 24.2417 35.6376L22.4541 35.664L22.4467 37.1632C23.3208 37.3681 24.2065 37.1251 24.4261 37.3681C24.4642 37.4106 24.3222 37.5438 24.2519 37.5424L21.946 37.5321L21.9358 33.5938C21.9358 33.4635 22.091 33.3113 22.2096 33.3113H24.2168C24.3178 33.3113 24.4876 33.4694 24.4979 33.5675C24.514 33.708 24.3617 33.8896 24.2094 33.8881L22.7395 33.8793C22.6429 33.8793 22.4365 34.0257 22.4365 34.1341L22.4409 35.0696L22.9533 35.1003L23.6941 35.0916L24.3705 35.1486V35.1516Z" fill="white"/>
<path d="M19.5362 35.6435C19.3751 35.6435 19.2199 35.7972 19.2199 35.9202V36.986C19.2199 37.09 19.3824 37.2613 19.5113 37.2613L21.0339 37.2554C21.0632 37.2554 21.1847 37.2993 21.1817 37.3271L21.1569 37.5394L18.7192 37.5365L18.7119 33.5953C18.7119 33.4679 18.87 33.3098 18.9959 33.3098L20.9768 33.3186C21.0676 33.3186 21.2462 33.4313 21.2711 33.5148C21.2959 33.5982 21.2432 33.812 21.1817 33.8823L19.28 33.8881C19.2199 34.2834 19.217 34.6318 19.2331 35.0535L20.0061 35.112L21.1583 35.153C21.2374 35.156 21.3033 35.3858 21.2711 35.4502C21.233 35.5264 21.0822 35.6493 20.9782 35.6479L19.5362 35.642V35.6435Z" fill="white"/>
<path d="M61.3111 35.6479C61.15 35.6479 60.9861 35.7811 60.9861 35.9392L60.9948 37.0256C60.9948 37.1149 61.2144 37.2539 61.3038 37.2554L62.9113 37.2657L62.9742 37.4355C62.9889 37.475 62.8732 37.5292 62.8234 37.5511L60.4971 37.5263L60.4883 33.5968C60.4883 33.4782 60.6508 33.3069 60.765 33.3084L62.8849 33.3303C63.0533 33.3318 63.1074 33.8413 62.9625 33.8749L61.2774 33.8896C61.1588 33.8896 60.9831 34.0506 60.9861 34.1751L60.9963 34.9115C60.9963 35.0023 61.2115 35.1355 61.3111 35.1355L62.9625 35.1516C63.0899 35.1911 63.0372 35.6391 62.9069 35.6406L61.3111 35.6494V35.6479Z" fill="white"/>
<path d="M91.7865 37.2188C91.7865 37.3608 91.6357 37.557 91.5376 37.557C91.4278 37.557 91.2653 37.4399 91.2214 37.3315L91.2185 33.9189L90.608 33.891C90.4484 33.8837 90.2903 33.7973 90.2508 33.6334C90.2244 33.5221 90.4147 33.3201 90.5524 33.3201H92.46C92.5727 33.3201 92.7616 33.5353 92.7484 33.6466C92.7323 33.7915 92.5464 33.8852 92.4 33.8925L91.7909 33.9218L91.7865 37.2217V37.2188Z" fill="white"/>
<path d="M107.258 34.6348L107.228 37.4574C107.121 37.5702 106.866 37.5482 106.731 37.4428L106.715 33.9189L105.865 33.8691C105.796 33.834 105.743 33.5953 105.774 33.5148C105.805 33.4343 105.976 33.3186 106.068 33.3186H107.968C108.09 33.3171 108.264 33.5236 108.242 33.6305C108.214 33.7754 108.055 33.8969 107.922 33.8954L107.288 33.8911L107.258 34.6348Z" fill="white"/>
<path d="M73.77 37.5352L72.0395 37.5469C71.9019 37.5469 71.757 37.3961 71.757 37.2629L71.754 33.6657C71.754 33.4988 71.8565 33.3553 72.0176 33.3246C72.1244 33.3041 72.3221 33.471 72.3235 33.6042L72.3338 37.2453L73.7612 37.2629C73.8154 37.2629 73.9267 37.3448 73.953 37.3771C73.9882 37.4195 73.8271 37.5337 73.77 37.5337V37.5352Z" fill="white"/>
<path d="M109.21 37.4193C109.099 37.494 108.91 37.5614 108.828 37.5438C108.746 37.5262 108.64 37.3388 108.64 37.2481V33.6099C108.64 33.4899 108.782 33.3127 108.88 33.2995C108.979 33.2864 109.207 33.4313 109.207 33.5338L109.211 37.4193H109.21Z" fill="white"/>
<path d="M29.2442 37.2262C29.2442 37.3902 29.1036 37.5469 28.9851 37.5542C28.8269 37.5644 28.7274 37.4166 28.6776 37.2277L28.6747 33.5574C28.7493 33.4446 28.8416 33.3334 28.9192 33.3012C29.0099 33.2645 29.2354 33.4476 29.2354 33.553L29.2442 37.2262Z" fill="white"/>
<path d="M13.4341 37.1397C13.4341 37.2671 13.3595 37.4662 13.2892 37.5175C13.2072 37.5775 12.9539 37.5321 12.8661 37.456L12.8588 33.6729C12.8588 33.5001 12.973 33.3552 13.1179 33.323C13.2262 33.2981 13.4239 33.5177 13.4239 33.6451L13.4341 37.1397Z" fill="white"/>
</g>
<defs>
<clipPath id="clip0_389_716">
<rect width="119" height="37.5614" fill="white"/>
</clipPath>
</defs>
</svg>
