<svg width="125" height="28" viewBox="0 0 125 28" fill="none" xmlns="http://www.w3.org/2000/svg">
<path d="M0.947035 27.4918C0.838712 27.5285 0.723075 27.5382 0.610155 27.5201C0.497234 27.502 0.39044 27.4566 0.299036 27.3878C0.205876 27.3184 0.130422 27.228 0.0788127 27.1239C0.0272036 27.0198 0.000897884 26.905 0.00203573 26.7888V12.7088C0.00203573 12.3878 0.202036 12.1038 0.504036 12.0048C0.648559 11.9573 0.804512 11.9573 0.949036 12.0048L5.78504 13.6128C6.08504 13.7118 6.28504 13.9948 6.28504 14.3148V25.1798C6.28653 25.3348 6.23923 25.4862 6.14985 25.6127C6.06047 25.7393 5.93354 25.8345 5.78703 25.8848L0.949036 27.4918H0.947035ZM0.946036 10.6978C0.837571 10.7347 0.721744 10.7445 0.608633 10.7264C0.495521 10.7082 0.388553 10.6627 0.297035 10.5938C0.203876 10.5244 0.128422 10.434 0.0768129 10.3299C0.0252037 10.2258 -0.00110245 10.111 3.54011e-05 9.99485V4.79285C3.54011e-05 4.47085 0.200035 4.18985 0.500035 4.08985L12.696 0.0368453C12.996 -0.0631547 13.321 0.0448453 13.504 0.306845L16.493 4.51485C16.5609 4.60958 16.6055 4.71897 16.6232 4.83416C16.641 4.94935 16.6313 5.06709 16.595 5.17785C16.561 5.28818 16.5011 5.38881 16.4204 5.47142C16.3397 5.55402 16.2405 5.61621 16.131 5.65284L0.945036 10.6998L0.946036 10.6978ZM13.143 22.6678C12.998 22.7163 12.8411 22.7163 12.696 22.6678L7.86004 21.0608C7.75042 21.0241 7.65114 20.9618 7.57045 20.879C7.48975 20.7962 7.42996 20.6954 7.39604 20.5848C7.35994 20.4742 7.35037 20.3567 7.36809 20.2417C7.38581 20.1267 7.43032 20.0175 7.49804 19.9228L16.884 6.71085C16.9504 6.61755 17.0382 6.54149 17.1399 6.48901C17.2417 6.43652 17.3545 6.40914 17.469 6.40914C17.5835 6.40914 17.6964 6.43652 17.7981 6.48901C17.8999 6.54149 17.9876 6.61755 18.054 6.71085L21.043 10.9178C21.1335 11.0449 21.1821 11.1969 21.1821 11.3528C21.1821 11.5088 21.1335 11.6608 21.043 11.7878L13.503 22.3998C13.4141 22.5255 13.2872 22.6195 13.141 22.6678H13.143ZM29.922 6.15785H36.286C37.408 6.15785 38.384 6.37884 39.214 6.81984C40.0324 7.22018 40.7143 7.85334 41.174 8.63985C41.635 9.41285 41.866 10.3428 41.866 11.4298C41.866 12.4858 41.636 13.4158 41.174 14.2198C40.7109 15.0096 40.0306 15.6497 39.214 16.0638C38.384 16.4888 37.408 16.7018 36.286 16.7018H32.573V22.7058H29.922V6.15885V6.15785ZM32.573 8.52185V14.3378H36.056C36.686 14.3378 37.232 14.2198 37.693 13.9828C38.1507 13.7643 38.5294 13.4094 38.777 12.9668C39.038 12.5248 39.169 12.0128 39.169 11.4298C39.169 10.8308 39.039 10.3188 38.777 9.89385C38.5345 9.45558 38.165 9.10102 37.717 8.87685C37.255 8.64085 36.71 8.52185 36.079 8.52185H32.573ZM43.421 10.6038H45.634L46.096 13.6058L45.588 13.0388C45.7968 12.6228 46.0439 12.2271 46.326 11.8568C46.6369 11.4638 47.0412 11.1547 47.502 10.9578C47.994 10.7218 48.624 10.6038 49.392 10.6038H49.946V12.9908H48.84C48.102 12.9908 47.518 13.1648 47.087 13.5108C46.657 13.8578 46.349 14.3068 46.165 14.8588C45.9924 15.4339 45.9068 16.0315 45.911 16.6318V22.7068H43.421V10.6038ZM55.796 20.6738C56.503 20.6738 57.111 20.4998 57.618 20.1538C58.141 19.8068 58.548 19.3338 58.84 18.7348C59.132 18.1198 59.278 17.4268 59.278 16.6548C59.278 15.8668 59.132 15.1728 58.84 14.5748C58.5688 13.9999 58.1464 13.5094 57.618 13.1558C57.111 12.8088 56.503 12.6358 55.796 12.6358C55.089 12.6358 54.474 12.8088 53.952 13.1558C53.444 13.5028 53.045 13.9758 52.752 14.5748C52.476 15.1728 52.338 15.8668 52.338 16.6548C52.338 17.4268 52.476 18.1198 52.753 18.7348C53.0208 19.3049 53.4344 19.794 53.952 20.1528C54.474 20.4998 55.089 20.6728 55.796 20.6728V20.6738ZM55.796 22.8478C54.613 22.8478 53.56 22.5878 52.637 22.0678C51.7394 21.557 51.0042 20.8031 50.516 19.8928C50.024 18.9628 49.778 17.8838 49.778 16.6548C49.778 15.4248 50.024 14.3458 50.516 13.4158C51.0041 12.5056 51.7393 11.7516 52.637 11.2408C53.56 10.7208 54.613 10.4608 55.797 10.4608C56.996 10.4608 58.048 10.7208 58.956 11.2408C59.8506 11.7482 60.5792 12.5036 61.054 13.4158C61.561 14.3458 61.814 15.4258 61.814 16.6548C61.814 17.8848 61.561 18.9638 61.054 19.8928C60.5792 20.8051 59.8506 21.5604 58.956 22.0678C58.048 22.5878 56.996 22.8478 55.796 22.8478ZM69.905 10.4608C70.981 10.4608 71.934 10.7058 72.764 11.1938C73.61 11.6828 74.271 12.3918 74.747 13.3218C75.239 14.2518 75.485 15.3618 75.485 16.6548C75.485 17.8998 75.239 18.9868 74.747 19.9168C74.271 20.8468 73.617 21.5718 72.787 22.0918C71.957 22.5958 70.997 22.8478 69.905 22.8478C68.829 22.8478 67.945 22.6118 67.253 22.1388C66.561 21.6658 66.053 21.0828 65.731 20.3888L66.077 19.7988V27.4348H63.587V10.6018H65.754L66.238 13.6038L65.662 13.0138C66.0487 12.315 66.5839 11.7094 67.23 11.2398C67.922 10.7198 68.813 10.4598 69.905 10.4598V10.4608ZM69.49 12.6358C68.798 12.6358 68.19 12.8088 67.668 13.1558C67.161 13.4868 66.761 13.9518 66.468 14.5508C66.192 15.1338 66.054 15.8188 66.054 16.6068C66.054 17.4108 66.192 18.1198 66.469 18.7348C66.761 19.3498 67.161 19.8298 67.669 20.1768C68.191 20.5238 68.798 20.6968 69.489 20.6968C70.181 20.6968 70.789 20.5238 71.311 20.1768C71.834 19.8298 72.234 19.3568 72.511 18.7588C72.802 18.1438 72.949 17.4428 72.949 16.6548C72.949 15.8508 72.802 15.1498 72.51 14.5508C72.2561 13.9782 71.8391 13.493 71.311 13.1558C70.789 12.8088 70.181 12.6358 69.49 12.6358ZM77.504 6.15785H80.155V13.1078H87.65V6.15785H90.301V22.7068H87.65V15.5208H80.155V22.7068H77.504V6.15885V6.15785ZM98.362 22.8478C97.133 22.8478 96.064 22.5958 95.157 22.0918C94.2626 21.5844 93.5339 20.829 93.059 19.9168C92.567 18.9868 92.321 17.9068 92.321 16.6778C92.321 15.4338 92.559 14.3458 93.036 13.4158C93.5026 12.5128 94.2136 11.7591 95.088 11.2408C95.964 10.7208 96.979 10.4608 98.132 10.4608C99.269 10.4608 100.261 10.6978 101.106 11.1708C101.957 11.6183 102.656 12.3094 103.113 13.1558C103.604 14.0228 103.866 15.0468 103.897 16.2288C103.897 16.3868 103.889 16.5518 103.873 16.7258L103.827 17.1988H94.927V17.3638C94.957 18.0418 95.103 18.6408 95.365 19.1608C95.642 19.6648 96.026 20.0588 96.518 20.3428C97.01 20.6258 97.579 20.7678 98.224 20.7678C98.977 20.7678 99.615 20.5778 100.138 20.2008C100.672 19.8293 101.05 19.2738 101.199 18.6408H103.689C103.554 19.4198 103.238 20.1562 102.767 20.7908C102.29 21.4345 101.665 21.9538 100.945 22.3048C100.207 22.6668 99.346 22.8478 98.362 22.8478ZM95.019 15.3308H101.314C101.206 14.4328 100.868 13.7388 100.299 13.2508C99.746 12.7618 99.031 12.5178 98.155 12.5178C97.632 12.5178 97.14 12.6358 96.679 12.8718C96.2282 13.0971 95.84 13.4303 95.549 13.8418C95.257 14.2518 95.08 14.7478 95.019 15.3308ZM105.679 10.6038H107.893L108.354 13.6058L107.847 13.0388C108.056 12.6229 108.303 12.2272 108.585 11.8568C108.896 11.4638 109.3 11.1547 109.761 10.9578C110.253 10.7218 110.883 10.6038 111.652 10.6038H112.205V12.9908H111.098C110.36 12.9908 109.776 13.1648 109.346 13.5108C108.913 13.8604 108.593 14.329 108.423 14.8588C108.251 15.4339 108.166 16.0315 108.17 16.6318V22.7068H105.679V10.6038ZM118.055 20.6738C118.762 20.6738 119.37 20.4998 119.877 20.1538C120.405 19.8002 120.828 19.3098 121.099 18.7348C121.391 18.1198 121.537 17.4268 121.537 16.6548C121.537 15.8668 121.391 15.1728 121.099 14.5748C120.828 13.9999 120.405 13.5095 119.877 13.1558C119.37 12.8088 118.762 12.6358 118.055 12.6358C117.348 12.6358 116.733 12.8088 116.21 13.1558C115.692 13.5151 115.279 14.0046 115.011 14.5748C114.735 15.1728 114.596 15.8668 114.596 16.6548C114.596 17.4268 114.735 18.1198 115.011 18.7348C115.279 19.3048 115.692 19.794 116.21 20.1528C116.733 20.4998 117.348 20.6728 118.055 20.6728V20.6738ZM118.055 22.8478C116.871 22.8478 115.818 22.5878 114.896 22.0678C113.998 21.5571 113.263 20.8032 112.775 19.8928C112.283 18.9628 112.037 17.8838 112.037 16.6548C112.037 15.4248 112.283 14.3458 112.775 13.4158C113.263 12.5054 113.998 11.7515 114.896 11.2408C115.818 10.7208 116.871 10.4608 118.055 10.4608C119.254 10.4608 120.307 10.7208 121.214 11.2408C122.109 11.7482 122.838 12.5035 123.313 13.4158C123.82 14.3458 124.073 15.4258 124.073 16.6548C124.073 17.8848 123.82 18.9638 123.313 19.8928C122.838 20.8051 122.109 21.5605 121.214 22.0678C120.307 22.5878 119.254 22.8478 118.055 22.8478Z" fill="#2050F6"/>
</svg>
