<svg width="121" height="33" viewBox="0 0 121 33" fill="none" xmlns="http://www.w3.org/2000/svg">
<g clip-path="url(#clip0_386_465)">
<path d="M41.8083 18.0904V21.2133L39.8907 21.1298L39.8568 8.39819L44.9077 8.42428C47.6028 8.43733 49.5412 10.7332 49.5882 13.2404C49.6351 15.7476 47.5897 18.0591 44.9103 18.0747L41.8109 18.093L41.8083 18.0904ZM45.2234 16.0659C46.747 16.0163 47.5819 14.4196 47.5793 13.2065C47.5793 12.1785 46.687 10.5636 45.4191 10.5193L41.7926 10.394L41.8187 16.178L45.2234 16.0659Z" fill="black"/>
<path d="M77.3002 19.2358C75.6435 22.5204 69.3012 22.39 67.1697 18.7401L68.735 17.6991C70.2821 19.7549 73.2876 20.2428 75.32 18.7792C75.6983 18.5053 75.7009 17.4226 75.4896 17.073C75.2783 16.7234 74.6678 16.3685 74.159 16.2042L70.243 14.9336C68.7376 14.4431 67.9758 13.0656 67.9367 11.6542C67.8976 10.2428 68.7429 9.00873 70.2639 8.42693C72.6224 7.52424 75.1348 8.20256 77.2193 9.86185L75.6357 11.0646C74.1486 10.141 72.638 9.69227 70.9474 10.2219C70.4569 10.3758 69.8465 11.1976 69.8647 11.6464C69.8908 12.2334 70.4569 13.0578 71.0361 13.23L75.0982 14.4353C77.1332 15.0406 78.2707 17.3104 77.3002 19.2332V19.2358Z" fill="black"/>
<path d="M113.557 18.2938L115.083 19.4496C112.957 22.1316 108.9 22.3221 106.719 19.7731C104.538 17.2242 104.965 13.376 108.031 11.4532C110.363 9.9896 113.572 10.7723 115.276 13.0055L109.124 19.2305C110.877 20.0288 112.234 19.6531 113.551 18.2938H113.557ZM109.612 15.9588L112.323 13.1621C110.755 12.2359 109.09 12.8073 108.172 13.8795C107.253 14.9518 106.922 16.6737 107.809 17.8138L109.612 15.9588Z" fill="black"/>
<path d="M99.4396 16.1676C99.4396 19.1679 97.0055 21.602 94.0052 21.602C91.0049 21.602 88.5708 19.1679 88.5708 16.1676C88.5708 13.1673 91.0049 10.7332 94.0052 10.7332C97.0055 10.7332 99.4396 13.1673 99.4396 16.1676ZM97.4882 16.1415C97.4882 14.2265 95.9358 12.6716 94.0183 12.6716C92.1007 12.6716 90.5484 14.2239 90.5484 16.1415C90.5484 18.0591 92.1007 19.6114 94.0183 19.6114C95.9358 19.6114 97.4882 18.0591 97.4882 16.1415Z" fill="black"/>
<path d="M66.3296 16.1519C66.3296 19.1522 63.898 21.5837 60.8978 21.5837C57.8975 21.5837 55.4659 19.1522 55.4659 16.1519C55.4659 13.1516 57.8975 10.7201 60.8978 10.7201C63.898 10.7201 66.3296 13.1516 66.3296 16.1519ZM60.5012 12.7211C58.388 12.9742 57.1331 14.9309 57.4957 16.7415C57.8583 18.5521 59.3898 19.8566 61.4169 19.5853C63.1858 19.3479 64.6807 17.6181 64.3729 15.6666C64.0989 13.9395 62.5857 12.4681 60.5012 12.7185V12.7211Z" fill="black"/>
<path d="M86.395 13.6994C84.8323 12.288 82.8156 12.4132 81.5163 13.6212C80.1153 14.9256 80.0214 17.0493 81.2085 18.406C82.5469 19.9348 84.621 20.0131 86.3142 18.6538L87.6812 20.0418C85.3854 22.1785 82.0512 21.9828 79.964 19.9009C77.8769 17.819 77.8769 14.4508 79.9849 12.3689C82.0929 10.287 85.4558 10.0443 87.7439 12.3663L86.395 13.7021V13.6994Z" fill="black"/>
<path d="M103.043 21.3959L100.995 21.1168L101.036 11.2184C101.712 11.0802 102.654 11.1323 103.212 11.2889L105.954 10.634L105.513 12.7081C104.613 12.776 103.199 13.4465 103.03 14.2526L103.04 21.3959H103.043Z" fill="black"/>
<path d="M53.0919 21.1792L51.1378 21.1401L51.1743 11.1322C51.944 11.08 52.8936 11.1974 53.4389 11.1035L55.8417 10.6913L55.7843 12.6558C54.7903 12.9141 54.1564 13.0967 53.5798 13.5924C53.0032 14.0881 53.1076 15.1421 53.105 15.9274L53.0893 21.1818L53.0919 21.1792Z" fill="black"/>
<path d="M118.323 17.6102C119.461 17.2241 120.577 18.0772 120.919 19.1364C121.261 20.1957 120.52 21.2575 119.539 21.6593C118.474 22.095 117.295 21.341 116.81 20.3392C116.325 19.3373 117.055 18.0407 118.323 17.6128V17.6102ZM117.955 18.2311C117.073 18.7216 117.003 19.8435 117.431 20.5113C117.903 21.2445 118.84 21.4558 119.701 20.9653C120.293 20.6287 120.533 19.5304 120.316 18.9564C119.962 18.0094 118.897 17.7093 117.955 18.2337V18.2311Z" fill="black"/>
<path d="M119.333 20.6863L119.038 19.9402C119.007 19.8619 118.722 19.9454 118.675 20.0158L118.154 20.775L118.042 18.5548L119.461 18.6774C119.766 18.7035 119.698 19.4705 119.63 19.7784L119.857 20.3341C119.925 20.4985 119.401 20.8507 119.336 20.6863H119.333Z" fill="black"/>
<path d="M6.89021 16.4911C8.99041 21.0254 12.069 24.6832 15.9458 27.6939L15.9302 32.4161C6.00056 25.8442 0.114793 14.8788 0 2.8594C5.12917 1.01488 10.454 0.263503 15.9641 0L16.0398 11.4115L16.0502 15.3119C13.0056 15.5075 10.2818 15.771 6.89021 16.4937V16.4911ZM12.0142 11.5706L12.0585 4.10125C10.7384 4.24214 9.52524 4.36736 8.29643 4.62304L3.92124 5.53878C4.2891 8.06684 4.74566 10.2949 5.4005 12.6116L12.0142 11.5706Z" fill="black"/>
<path d="M21.2081 11.6671C24.8189 12.1497 28.1322 12.635 31.6934 13.6394C29.2723 21.4662 24.2632 27.8738 17.4877 32.4629L17.4616 27.7303C21.4142 24.7196 24.4406 21.1297 26.5929 16.5197C23.7022 15.8075 20.6863 15.51 17.4277 15.39L17.4538 0.0338135C22.9822 0.166869 28.1113 1.14261 33.4049 2.79407C33.4205 4.77426 33.2875 6.59269 32.9692 8.75028L29.2384 7.61278L29.421 5.67956C26.8147 5.0195 24.2266 4.49249 21.2577 4.10115L21.2081 11.6671Z" fill="black"/>
</g>
<defs>
<clipPath id="clip0_386_465">
<rect width="121" height="32.463" fill="white"/>
</clipPath>
</defs>
</svg>
