<svg width="122" height="23" viewBox="0 0 122 23" fill="none" xmlns="http://www.w3.org/2000/svg">
<g clip-path="url(#clip0_396_2)">
<path d="M74.046 17.9814C72.2681 20.6355 69.4467 22.2573 66.2653 22.2685L58.7394 22.2971V4.01782L66.1028 4.05287C69.4897 4.0688 72.4497 5.75272 74.2133 8.57729C75.8096 11.5325 75.7889 15.0119 74.046 17.9814ZM70.3851 17.5098C72.4402 15.0995 72.5103 11.7141 70.7053 9.22091C69.5327 7.85243 67.9572 6.99056 66.1139 6.97463L61.975 6.94117V19.3817L66.1171 19.3467C67.7389 19.3324 69.2014 18.6521 70.3866 17.5082L70.3851 17.5098Z" fill="#03284C"/>
<path d="M92.8669 15.4181C92.8669 19.463 89.5883 22.7416 85.5434 22.7416C81.4985 22.7416 78.2199 19.463 78.2199 15.4181C78.2199 11.3732 81.4985 8.0946 85.5434 8.0946C89.5883 8.0946 92.8669 11.3732 92.8669 15.4181ZM89.9006 15.4181C89.9006 13.0157 87.9538 11.0689 85.5514 11.0689C83.149 11.0689 81.2022 13.0157 81.2022 15.4181C81.2022 17.8205 83.149 19.7673 85.5514 19.7673C87.9538 19.7673 89.9006 17.8205 89.9006 15.4181Z" fill="#03284C"/>
<path d="M48.6646 20.0253C50.2928 20.1098 51.6549 19.4662 52.7095 18.3637L54.5527 19.9951C53.2289 21.6981 51.3124 22.5233 49.2381 22.6157C45.335 22.7878 42.0867 20.0859 41.7713 16.1636C41.6247 14.3427 41.9975 12.6429 43.0473 11.1023C45.3016 7.79028 50.1255 7.14985 53.0728 9.95372C54.8379 11.6329 55.3397 14.1245 55.1358 16.5094H44.983C45.155 18.3892 46.5808 19.917 48.6646 20.0253ZM44.9256 14.4303L51.9799 14.4335C51.9496 13.0332 51.1849 11.6966 50.0156 11.1438C48.7602 10.5495 47.2022 10.712 46.1905 11.7061C45.4513 12.4326 45.0817 13.3996 44.9256 14.4303Z" fill="#03284C"/>
<path d="M120.632 20.2102C119.08 23.5318 112.982 23.038 110.036 20.4731L111.463 18.3495C113.716 20.1576 117.801 20.8331 118.159 18.7605C118.24 18.2889 117.896 17.5625 117.339 17.3745L114.122 16.2896C112.966 15.8993 111.804 15.364 111.181 14.287C110.523 13.1511 110.557 11.8209 111.181 10.5878C112.746 7.50358 117.748 7.78556 120.767 9.84704L119.486 12.0885C117.417 10.7344 114.039 10.1226 113.655 11.8798C113.542 12.4008 113.847 13.0651 114.436 13.2818L117.46 14.3874C118.683 14.8351 119.902 15.3767 120.613 16.5062C121.302 17.6055 121.207 18.9755 120.63 20.2102H120.632Z" fill="#03284C"/>
<path d="M100.23 18.9979C102.078 20.3998 104.5 20.0684 106.341 18.1408L108.239 19.9904C106.934 21.5994 105.223 22.4565 103.254 22.6031C99.1645 22.9105 95.7473 20.1258 95.4255 16.0267C95.0766 11.5883 98.6292 7.96878 103.085 8.20934C105.083 8.31767 106.791 9.05846 108.183 10.6325L106.169 12.7083C104.935 11.3398 103.262 10.6404 101.524 11.155C99.593 11.7269 98.5432 13.5749 98.5894 15.5536C98.6228 16.9571 99.2234 18.2348 100.23 18.9994V18.9979Z" fill="#03284C"/>
<path d="M6.20674 22.5791L0 22.5759V7.83809L5.1075 6.12072L11.9435 8.51993L11.9324 14.3236L13.8505 15.1138L13.8552 20.4603L14.7569 20.4778V5.46436L6.23064 2.90105L6.21471 5.87856C5.48507 5.54242 5.08201 5.43568 4.09428 5.74315L4.0895 0L16.8933 3.9047V22.5727L11.695 22.5823L11.687 16.5492L9.74663 15.7335L9.7769 10.0286L5.10272 8.37496L2.1491 9.39614V20.4666L4.06402 20.465L4.10703 9.45827C4.52442 8.85449 5.75589 8.9198 6.25294 9.48536L6.20674 22.5791Z" fill="#03284C"/>
<path d="M39.7384 22.2509L35.9564 22.321L31.4447 15.931L27.3982 15.9199V22.2955L24.1483 22.3098L24.1371 4.03688L31.7012 4.03369C33.28 4.03369 34.8094 4.11016 36.2081 4.82387C38.0641 5.71283 39.0662 7.46524 39.1936 9.49327C39.3736 12.3322 37.6483 14.6581 34.8046 15.3591L39.7368 22.2525L39.7384 22.2509ZM35.3622 11.7969C36.0807 10.6037 36.0552 9.21447 35.3303 8.09293C34.6469 7.41426 33.6799 6.97297 32.6635 6.9666L27.3951 6.93315L27.4078 13.0873L32.4978 13.0602C33.5859 13.0539 34.5991 12.6062 35.3622 11.7969Z" fill="#03284C"/>
</g>
<defs>
<clipPath id="clip0_396_2">
<rect width="121.098" height="22.74" fill="white"/>
</clipPath>
</defs>
</svg>
