<svg width="116" height="21" viewBox="0 0 116 21" fill="none" xmlns="http://www.w3.org/2000/svg">
<g clip-path="url(#clip0_345_1350)">
<path fill-rule="evenodd" clip-rule="evenodd" d="M17.4059 1.26367H0.624695V20.1762H10.9501L17.4059 13.6695V1.26367ZM2.26771 2.90668H15.7628V11.0484H9.49045V18.5332H2.2682V11.0484L2.26771 2.90668Z" fill="black"/>
<path d="M38.0328 10.5745H44.8526C44.5641 8.86952 43.4363 7.55807 41.574 7.55807C39.5805 7.55807 38.4263 8.86952 38.0328 10.5745ZM44.328 14.509H47.7379C47.4493 15.5581 45.7969 18.7057 41.574 18.7057C37.6395 18.7057 34.7542 15.8204 34.7542 11.7548C34.7542 7.68928 37.6395 4.80396 41.574 4.80396C45.246 4.80396 48.1314 7.68928 48.1314 11.4925C48.1314 11.886 48.0789 12.2007 48.0527 12.4368L48.0002 12.804H38.0328C38.3214 14.6663 39.7116 15.9516 41.574 15.9516C43.1215 15.9516 44.0657 15.0598 44.328 14.509Z" fill="black"/>
<path d="M108.584 15.6893C110.551 15.6893 112.124 14.1155 112.124 11.7548C112.124 9.3941 110.551 7.82036 108.584 7.82036C106.616 7.82036 105.043 9.3941 105.043 11.7548C105.043 14.1155 106.616 15.6893 108.584 15.6893ZM108.584 4.80396C112.519 4.80396 115.404 7.68928 115.404 11.7548C115.404 15.8204 112.519 18.7057 108.584 18.7057C104.649 18.7057 101.764 15.8204 101.764 11.7548C101.764 7.68928 104.649 4.80396 108.584 4.80396Z" fill="black"/>
<path d="M94.8131 15.2955V8.21346H92.7147V5.06598H94.8131V1.26257H98.0918V5.06598H101.108V8.21346H98.0918V14.6397C98.0918 15.2431 98.4065 15.5578 99.0097 15.5578H101.108V18.4432H98.2229C95.9934 18.4432 94.8131 17.2891 94.8131 15.2955Z" fill="black"/>
<path d="M25.6083 8.12504V18.5029H28.8869V8.12504H34.4638V5.06573H28.8869H25.6082L25.6083 8.12504Z" fill="black"/>
<path d="M88.9044 13.4598H92.183C91.7632 15.5581 90.1109 18.7057 85.8879 18.7057C81.9535 18.7057 79.0681 15.8204 79.0681 11.7548C79.0681 7.68928 81.9535 4.80396 85.8879 4.80396C90.1109 4.80396 91.7632 7.95156 92.183 9.91881H88.9044C88.6158 9.15805 87.8551 7.82036 85.8879 7.82036C83.9207 7.82036 82.3469 9.3941 82.3469 11.7548C82.3469 14.1155 83.9207 15.6893 85.8879 15.6893C87.8551 15.6893 88.6158 14.3779 88.9044 13.4598Z" fill="black"/>
<path d="M65.0476 13.0658V5.06573H68.3264V12.8036C68.3264 14.5084 69.5065 15.6888 71.2115 15.6888C72.9165 15.6888 74.0968 14.5084 74.0968 12.8036V5.06573H77.3755V18.443H74.3591L74.0968 17.1315H73.9656C73.7296 17.42 73.4148 17.6823 73.0739 17.9184C72.4706 18.3119 71.5263 18.7052 70.2935 18.7052C67.2772 18.7052 65.0476 16.4757 65.0476 13.0658Z" fill="black"/>
<path d="M55.8637 15.689C57.8571 15.689 59.2735 14.2726 59.2735 11.7546C59.2735 9.23662 57.8571 7.82021 55.8637 7.82021C53.8702 7.82021 52.4537 9.23662 52.4537 11.7546C52.4537 14.2726 53.8702 15.689 55.8637 15.689ZM59.6669 18.4432L59.4046 17.0006H59.2735C59.0112 17.3415 58.6965 17.6301 58.3292 17.8661C57.6999 18.2859 56.7031 18.7055 55.3391 18.7055C51.9292 18.7055 49.1751 15.9513 49.1751 11.7546C49.1751 7.55792 51.9292 4.80381 55.3391 4.80381C56.6768 4.80381 57.5948 5.24967 58.2243 5.66927C58.5915 5.90545 58.9063 6.19399 59.1423 6.50863H59.2735V0.0824585H62.5523V18.4432H59.6669Z" fill="black"/>
<path d="M38.0285 10.5745H44.8482C44.5597 8.86952 43.4318 7.55807 41.5696 7.55807C39.5761 7.55807 38.422 8.86952 38.0285 10.5745ZM44.3236 14.509H47.7335C47.4449 15.5581 45.7925 18.7057 41.5696 18.7057C37.6351 18.7057 34.7498 15.8204 34.7498 11.7548C34.7498 7.68928 37.6351 4.80396 41.5696 4.80396C45.2416 4.80396 48.127 7.68928 48.127 11.4925C48.127 11.886 48.0745 12.2007 48.0483 12.4368L47.9958 12.804H38.0285C38.317 14.6663 39.7072 15.9516 41.5696 15.9516C43.1171 15.9516 44.0614 15.0598 44.3236 14.509Z" fill="black"/>
</g>
<defs>
<clipPath id="clip0_345_1350">
<rect width="116" height="20.2718" fill="white"/>
</clipPath>
</defs>
</svg>
