<svg width="113" height="47" viewBox="0 0 113 47" fill="none" xmlns="http://www.w3.org/2000/svg">
<g clip-path="url(#clip0_352_1478)">
<path d="M37.4114 43.1744L37.354 45.0124L36.4924 43.1935C36.4924 43.1935 36.1861 43.1169 36.0329 43.1552V45.5676C36.1861 45.6059 36.2818 45.6059 36.3775 45.5676L36.435 43.7104L37.1242 45.3379C37.1817 45.491 37.6029 45.7208 37.6029 45.5485L37.6795 43.1744C37.6795 43.1744 37.3923 43.0978 37.3731 43.1744H37.4114Z" fill="black"/>
<path d="M55.7724 43.1743L55.715 44.9166L54.8726 43.1552C54.8726 43.1552 54.5088 43.1169 54.4514 43.1552V45.5485C54.4514 45.5485 54.7385 45.625 54.7385 45.5485L54.796 43.7104L55.6193 45.4527C55.6958 45.6059 56.0596 45.6442 56.0788 45.5102L56.1171 43.1552C56.1171 43.1552 55.7916 43.1169 55.7916 43.1552L55.7724 43.1743Z" fill="black"/>
<path d="M31.3612 43.1743V44.1316C31.0357 44.1891 30.7677 44.1891 30.4996 44.1316L30.4613 43.1743C30.4613 43.1743 30.1359 43.1169 30.1359 43.1743V45.5484C30.1359 45.5484 30.4805 45.625 30.4805 45.491V44.4954C30.7677 44.438 31.0166 44.4188 31.3229 44.4954L31.3612 45.5676C31.3612 45.5676 31.6676 45.6442 31.6676 45.5293V43.1935C31.6676 43.1935 31.3421 43.136 31.3421 43.1935L31.3612 43.1743Z" fill="black"/>
<path d="M53.5515 43.2127L53.5132 44.8401C53.5132 45.1656 53.2643 45.3379 52.9962 45.3187C52.7665 45.3187 52.6133 45.1081 52.6133 44.8401L52.575 43.1744C52.575 43.1744 52.2687 43.1169 52.2687 43.1935V44.7443C52.2687 45.3187 52.6133 45.6634 53.1303 45.6442C53.6089 45.6059 53.8769 45.2613 53.8769 44.7252V43.1935C53.8769 43.1935 53.5706 43.0978 53.5706 43.2318L53.5515 43.2127Z" fill="black"/>
<path d="M23.8177 43.2127V44.8592C23.7794 45.1464 23.6071 45.3187 23.3774 45.3187C23.1668 45.3187 22.9179 45.1656 22.8987 44.8784L22.8604 43.1361C22.7456 43.0404 22.5158 43.1361 22.5158 43.2701L22.5541 44.9741C22.5541 45.4336 22.9753 45.6251 23.3582 45.6251C23.6646 45.6251 24.0666 45.4528 24.0858 45.0507V43.1744C24.0858 43.1744 23.7986 43.0595 23.7986 43.2127H23.8177Z" fill="black"/>
<path d="M3.25489 43.2509C2.81453 43.0595 2.39332 43.0978 1.97211 43.1552V45.5676C2.39332 45.5676 2.81453 45.6251 3.2166 45.5293C3.27404 45.5293 3.2166 45.2613 3.15916 45.2613H2.89112C2.7188 45.2613 2.39332 45.3187 2.33588 45.1464C2.27844 44.9932 2.27844 44.7252 2.33588 44.5529C2.41247 44.3231 2.98685 44.5337 3.14002 44.4189C3.17831 44.3806 3.17831 44.2274 3.14002 44.2082C2.98685 44.0934 2.39332 44.304 2.33588 44.0742C2.29759 43.9019 2.31674 43.7487 2.33588 43.4616C2.58478 43.385 2.91026 43.5573 3.25489 43.2701V43.2509Z" fill="black"/>
<path d="M60.1953 43.2509C59.7358 43.0595 59.3337 43.0978 58.9125 43.1552V45.5676H60.157C60.2144 45.4719 60.157 45.2804 60.0995 45.2804H59.8315C59.6592 45.2804 59.3337 45.3187 59.2762 45.1656C59.2188 45.0124 59.238 44.7443 59.2762 44.572C59.3337 44.3806 60.4059 44.5912 60.0612 44.2274C59.9272 44.0934 59.3337 44.304 59.2762 44.0742C59.238 43.9019 59.2571 43.7487 59.2762 43.4616C59.5443 43.385 59.8506 43.5573 60.1953 43.2701V43.2509Z" fill="black"/>
<path d="M22.0754 43.251C21.635 43.0404 21.2138 43.0978 20.7926 43.1552V45.5676H21.7499C21.8648 45.5676 21.9605 45.5676 22.018 45.5102C22.0562 45.4719 22.0562 45.2996 22.018 45.2804C21.8839 45.2039 21.2521 45.3953 21.1755 45.1464C21.1181 44.9932 21.1181 44.7061 21.1755 44.5529C21.2521 44.3423 22.3051 44.5912 21.9605 44.2083C21.8456 44.0742 21.233 44.2657 21.1564 44.0551C21.0989 43.9019 21.1181 43.7105 21.1564 43.4424C21.4244 43.3658 21.7499 43.5381 22.0945 43.251H22.0754Z" fill="black"/>
<path d="M42.8488 43.2509C42.3893 43.0595 41.9873 43.0978 41.5086 43.1552V45.5868L42.7148 45.5676C42.7722 45.5676 42.7531 45.357 42.7148 45.3379C42.4468 45.223 42.0064 45.4336 41.8915 45.1847C41.8149 45.0315 41.8149 44.7443 41.8915 44.572C41.949 44.4189 43.0403 44.5337 42.6574 44.2082C42.5233 44.0934 41.9873 44.2848 41.8915 44.0742C41.8341 43.9402 41.8341 43.7487 41.8915 43.4616C42.1787 43.385 42.5042 43.5573 42.868 43.2701L42.8488 43.2509Z" fill="black"/>
<path d="M45.4719 43.117C45.4719 43.117 45.357 43.2127 45.3187 43.3467L44.84 45.0124L44.2465 43.1744C44.2082 43.0404 43.8827 43.0787 43.8636 43.1936L44.6103 45.5102C44.6103 45.5102 44.9741 45.5868 44.9932 45.5102L45.7399 43.1744C45.7399 43.1744 45.5101 43.0787 45.4719 43.117Z" fill="black"/>
<path d="M64.0435 43.136C64.0435 43.136 63.7946 43.0977 63.718 43.136L63.1054 45.0315L62.6267 43.3275C62.5884 43.2318 62.531 43.1552 62.4735 43.136C62.4161 43.1169 62.2629 43.136 62.2055 43.1935L62.8948 45.4527C62.933 45.5867 63.0862 45.625 63.2011 45.5676C63.2777 45.5484 63.3543 45.4527 63.3926 45.3187L64.0052 43.3658C64.0052 43.3658 64.1201 43.1552 64.0627 43.1169L64.0435 43.136Z" fill="black"/>
<path d="M26.7278 43.5956C26.9193 43.1361 27.6851 43.7488 27.5128 43.2318C27.5128 43.1935 27.4362 43.1552 27.3405 43.1169C26.881 42.9829 26.4215 43.1935 26.3449 43.5764C26.1726 44.4955 27.5703 44.438 27.2639 45.089C27.0533 45.5293 26.4789 45.0507 26.3641 45.2804C26.3258 45.3379 26.3641 45.4145 26.4024 45.4719C26.6704 45.7208 27.4554 45.6634 27.6468 45.1273C27.9532 44.2083 26.4981 44.1317 26.7278 43.5956Z" fill="black"/>
<path d="M8.34767 43.5764C8.50084 43.2126 9.03693 43.5764 9.13266 43.4232C9.17095 43.3658 9.17095 43.2317 9.13266 43.1934C9.09437 43.1552 8.97949 43.1169 8.88376 43.0977C8.40511 43.0211 8.02219 43.2126 7.96475 43.6912C7.86902 44.3614 8.90291 44.3805 8.9412 44.8974C8.9412 45.1272 8.78803 45.3378 8.57743 45.2995L8.06048 45.1846C7.90732 45.1463 8.00305 45.4718 8.06048 45.491L8.38597 45.5867C8.84547 45.7207 9.22839 45.4527 9.30498 44.9932C9.439 44.1699 8.11792 44.1699 8.36682 43.5764H8.34767Z" fill="black"/>
<path d="M60.9801 43.5956C61.095 43.2318 61.6119 43.5956 61.7651 43.4041C61.8034 43.3658 61.8226 43.2509 61.8034 43.2126C61.7651 43.1744 61.6694 43.1361 61.5737 43.1169C61.1524 43.0403 60.7121 43.1552 60.6164 43.5764C60.444 44.3423 61.4396 44.4188 61.5545 44.8209C61.612 45.0315 61.4971 45.2038 61.3248 45.2804C61.1716 45.357 60.9035 45.223 60.6546 45.2038C60.5589 45.6251 61.1142 45.7016 61.4779 45.5676C61.7651 45.4527 61.9757 45.2038 61.9374 44.8209C61.8608 44.1508 60.827 44.1508 60.9993 43.6147L60.9801 43.5956Z" fill="black"/>
<path d="M28.7765 45.1655C28.2787 44.7443 28.2979 43.8062 28.8148 43.4807C29.0446 43.3275 29.3509 43.4998 29.7338 43.4233C29.4275 42.868 28.8148 43.0786 28.4893 43.3084C27.8384 43.787 27.9532 45.1655 28.6042 45.4719C28.968 45.6442 29.5041 45.7974 29.753 45.2613C29.3317 45.2613 29.0063 45.357 28.7765 45.1655Z" fill="black"/>
<path d="M4.99719 43.1552L4.9589 44.1316C4.84402 44.3231 4.15476 44.304 4.02074 44.1316V43.1169C4.02074 43.1169 3.92501 43.1169 3.88672 43.1169V45.5485H4.00159V44.8592V44.438C4.15476 44.2657 4.84402 44.2465 4.93975 44.438L4.97804 45.5102C4.97804 45.5102 5.28438 45.5676 5.28438 45.5102V43.1361C5.28438 43.1361 4.97804 43.0403 4.97804 43.1361L4.99719 43.1552Z" fill="black"/>
<path d="M4.15464 44.1124C4.15464 44.1124 4.15464 44.0741 4.1355 44.055V44.1124H4.15464Z" fill="black"/>
<path d="M4.1355 44.5529C4.1355 44.5529 4.17379 44.5146 4.17379 44.4955H4.1355V44.5529Z" fill="black"/>
<path d="M32.7206 45.2613L32.644 43.1744C32.644 43.0595 32.3185 43.0787 32.3185 43.1744V45.5677L33.5822 45.5294C33.4673 45.1082 32.9887 45.2996 32.7206 45.2613Z" fill="black"/>
<path d="M16.2742 43.4041V45.5485C16.2742 45.5485 16.5997 45.5868 16.5997 45.5102L16.638 43.4041C16.9251 43.4807 17.2123 43.4998 17.2506 43.1552L15.6041 43.2126C15.7381 43.519 16.0253 43.4615 16.2742 43.4233V43.4041Z" fill="black"/>
<path d="M24.4495 43.1935C24.5835 43.5189 24.8707 43.4615 25.1005 43.4041V45.357C25.1005 45.5293 25.2153 45.6442 25.426 45.5676V43.4998L26.0003 43.3658V43.1743C25.4834 43.0977 24.9856 43.0786 24.4304 43.1743L24.4495 43.1935Z" fill="black"/>
<path d="M48.0949 42.7914V46.3143C48.0949 46.3143 48.2481 46.3335 48.3247 46.2569V42.7914H48.0949Z" fill="black"/>
<path d="M3.88671 43.1552C3.88671 43.1552 3.75269 43.2509 3.75269 43.3849V45.3378C3.75269 45.4719 3.79098 45.5676 3.88671 45.5676C3.79098 44.7826 3.79098 43.921 3.88671 43.136V43.1552Z" fill="black"/>
<path d="M4.02063 44.8974C4.02063 45.0697 4.02063 45.2612 4.07807 45.5101L4.02063 45.5867C4.02063 45.5867 4.15465 45.5867 4.15465 45.4718V44.5528C4.15465 44.5528 4.05892 44.7443 4.03978 44.8783L4.02063 44.8974Z" fill="black"/>
<path d="M4.17383 44.4953H4.95882C4.57589 44.323 4.327 44.3422 4.17383 44.4953Z" fill="black"/>
<path d="M4.9588 44.1508L4.15466 44.1125C4.30783 44.2657 4.57588 44.2849 4.9588 44.1508Z" fill="black"/>
<path d="M4.13561 44.0551V43.2701C4.13561 43.1744 4.05903 43.1361 4.00159 43.1552L4.05903 43.2318C3.98244 43.6339 4.02073 43.9019 4.13561 44.0742V44.0551Z" fill="black"/>
<path d="M43.2701 45.2038C43.136 45.3378 43.2126 45.5102 43.2892 45.5676C43.3658 45.6059 43.5381 45.6059 43.5955 45.5293C43.6338 45.4719 43.6338 45.2804 43.5955 45.1847C43.5572 45.1081 43.3658 45.1272 43.2701 45.2038Z" fill="black"/>
<path d="M45.7973 45.2229C45.6825 45.3569 45.7591 45.5484 45.8356 45.5675C45.9505 45.6058 46.1037 45.5675 46.142 45.5101C46.1994 45.3952 46.1611 45.2038 46.0654 45.1655C46.008 45.1463 45.8548 45.1272 45.7973 45.2229Z" fill="black"/>
<path d="M15.0871 43.251C14.7808 43.0404 14.3404 43.0978 13.9384 43.1552V45.5485C14.0341 45.6059 14.2638 45.5868 14.283 45.5485V44.4955C14.9531 44.3806 14.8574 45.3762 15.1254 45.5676C15.202 45.6251 15.4509 45.5676 15.4317 45.491L14.9531 44.3806C15.3552 44.1508 15.4892 43.519 15.068 43.251H15.0871ZM14.3404 44.1891C14.1873 44.1125 14.2064 43.5956 14.3404 43.4616C14.4744 43.3467 14.7808 43.4233 14.8574 43.519C14.9531 43.6339 14.9914 43.8636 14.8957 44.0359C14.8382 44.1508 14.6276 44.304 14.3213 44.1891H14.3404Z" fill="black"/>
<path d="M1.37852 43.6913C1.18706 43.0786 0.861572 43.0403 0 43.1552V45.5485C0 45.5485 0.325483 45.6059 0.325483 45.5485L0.363775 44.4954C1.05303 44.3806 0.957303 45.3761 1.18706 45.5676C1.26364 45.625 1.53168 45.5676 1.51254 45.4719L1.12962 44.3423C1.16791 44.1699 1.47425 43.9402 1.39766 43.6722L1.37852 43.6913ZM0.957303 44.0168C0.899864 44.1317 0.689258 44.2848 0.402067 44.1891C0.287191 44.0742 0.268045 43.5956 0.402067 43.4615C0.536089 43.3275 0.842426 43.4233 0.91901 43.4998C1.03389 43.6339 1.05303 43.8445 0.957303 44.0168Z" fill="black"/>
<path d="M51.6753 43.6147C51.5795 43.0978 51.0243 43.0404 50.2968 43.1552V45.5676C50.6414 45.5868 50.986 45.6059 51.3115 45.5102C51.6178 45.4336 51.7136 45.1464 51.7327 44.9167C51.7519 44.6678 51.5604 44.4572 51.4072 44.2849C51.5987 44.036 51.7136 43.8062 51.6753 43.6147ZM50.718 43.4233C51.0243 43.3084 51.3115 43.4999 51.3306 43.7105C51.3498 43.9211 51.1775 44.2657 50.7563 44.1508C50.5648 44.0934 50.5457 43.4999 50.718 43.4233ZM51.1966 45.2039C51.0817 45.2805 50.7945 45.3953 50.6797 45.2039C50.5648 45.0316 50.5648 44.5529 50.718 44.4763C50.9669 44.3806 51.2541 44.4955 51.3498 44.6869C51.4264 44.8209 51.3498 45.1081 51.1966 45.223V45.2039Z" fill="black"/>
<path d="M18.5909 43.1552V45.5676C18.9929 45.5676 19.4716 45.6634 19.8737 45.3379C20.4289 44.8784 20.448 43.8636 19.9311 43.385C19.5673 43.0595 19.0312 43.1169 18.5909 43.1552ZM19.7588 44.9932C19.6248 45.1656 19.1844 45.357 18.9738 45.2039L18.9164 43.4616C19.1461 43.3658 19.395 43.4041 19.6056 43.519C19.9885 43.7296 20.0843 44.5337 19.7588 44.9932Z" fill="black"/>
<path d="M38.2921 43.2127V45.5293C38.7325 45.6442 39.326 45.6825 39.7089 45.2804C40.1301 44.8401 40.1493 44.0168 39.8047 43.5573C39.46 43.0786 38.7708 43.0404 38.2921 43.2127ZM39.4026 45.089C39.2303 45.2421 38.9622 45.3379 38.675 45.2613C38.6176 44.6869 38.5793 44.0168 38.675 43.4616C38.8474 43.3275 39.1728 43.4233 39.326 43.5381C39.7472 43.8636 39.7664 44.7252 39.3834 45.0698L39.4026 45.089Z" fill="black"/>
<path d="M56.7106 43.1552V45.5676C57.1318 45.5867 57.6105 45.6633 58.0126 45.3378C58.5678 44.8783 58.5869 43.8444 58.07 43.3849C57.7062 43.0594 57.1701 43.0977 56.7106 43.1552ZM57.8211 45.0506C57.6488 45.2229 57.3233 45.3378 57.0361 45.2612V43.4998C57.1893 43.3466 57.5339 43.4423 57.7062 43.5381C58.1657 43.8444 58.1849 44.6868 57.8211 45.0506Z" fill="black"/>
<path d="M34.4629 43.251L33.697 45.5676C34.0991 45.6442 34.0799 45.357 34.1757 45.1273C34.3097 44.8018 35.0755 44.8401 35.1713 45.1273L35.3244 45.5293C35.3244 45.5293 35.535 45.6442 35.6691 45.5676L34.8841 43.2318C34.8266 43.0595 34.5012 43.0786 34.4437 43.251H34.4629ZM34.3288 44.6103L34.6735 43.5956C34.8649 43.9402 34.8841 44.1508 34.999 44.5912C34.7309 44.6486 34.5969 44.6486 34.3097 44.5912L34.3288 44.6103Z" fill="black"/>
<path d="M6.47133 43.1744L5.68634 45.5293C5.83951 45.6251 6.03097 45.5676 6.05012 45.5102L6.16499 45.1464C6.26072 44.8018 7.10315 44.7826 7.19888 45.1847C7.25632 45.4144 7.29461 45.5293 7.37119 45.5485C7.42863 45.5676 7.54351 45.6059 7.67753 45.5293L6.8734 43.1744C6.8734 43.1744 6.50962 43.0978 6.47133 43.1744ZM6.31816 44.6295L6.66279 43.5573L7.02656 44.6103C6.75852 44.6677 6.56706 44.6486 6.31816 44.6295Z" fill="black"/>
<path d="M10.8557 43.2317C10.5303 43.0786 10.1856 43.0786 9.78357 43.1552C9.82186 44.0167 9.68784 44.8017 9.8793 45.6633C10.3197 45.357 10.0899 44.9357 10.1473 44.5911C10.7792 44.6486 11.0281 44.4379 11.1429 44.1508C11.2578 43.8444 11.2004 43.3849 10.8557 43.2317ZM10.1856 44.3422C10.0708 44.0742 10.1091 43.6913 10.1473 43.4232C10.5494 43.3466 10.8175 43.5189 10.8366 43.8061C10.8366 44.0742 10.6834 44.3422 10.1856 44.3231V44.3422Z" fill="black"/>
<path d="M12.2152 43.1361C11.526 43.3084 11.3154 44.4955 11.7557 45.2422C11.9472 45.5677 12.311 45.6634 12.6747 45.606C13.4789 45.4528 13.6512 44.1892 13.1917 43.4616C12.9811 43.1361 12.5982 43.0595 12.2344 43.1553L12.2152 43.1361ZM12.5407 45.3188C12.3301 45.3571 12.1004 45.2422 12.0046 44.9933C11.7174 44.2849 11.9472 43.4425 12.445 43.4042C12.6364 43.4042 12.847 43.4807 12.9428 43.7105C13.23 44.3998 13.0768 45.2422 12.5407 45.3379V45.3188Z" fill="black"/>
<path d="M73.6165 43.1744L73.5591 44.9167L72.6975 43.1744C72.6975 43.1744 72.2955 43.0786 72.2763 43.1744V45.5485C72.2763 45.5485 72.5635 45.6251 72.5826 45.5485L72.6401 43.6913L73.4442 45.4528C73.5208 45.6059 73.9037 45.6251 73.9037 45.4911V43.1361C73.9037 43.1361 73.6165 43.0595 73.6165 43.1361V43.1744Z" fill="black"/>
<path d="M101.11 45.0125L100.249 43.1744C100.249 43.1744 99.8849 43.0787 99.8275 43.1744V45.5485C99.9615 45.5868 100.057 45.5868 100.153 45.5485L100.21 43.6914L101.072 45.5103C101.072 45.5103 101.474 45.5677 101.474 45.4911V43.1553C101.474 43.1553 101.263 43.0979 101.168 43.1553L101.11 45.0125Z" fill="black"/>
<path d="M82.73 43.1744V44.1317C82.4045 44.1891 82.1556 44.1891 81.8493 44.1317V43.1744C81.811 43.0787 81.5238 43.0787 81.5238 43.1744V45.5677C81.5238 45.5677 81.8301 45.6251 81.8301 45.5677V44.4763C82.1556 44.4189 82.4237 44.3997 82.7109 44.4763V45.5677C82.7109 45.5677 83.0555 45.6442 83.0555 45.5294V43.1935C83.0555 43.1935 82.73 43.117 82.73 43.1935V43.1744Z" fill="black"/>
<path d="M80.0688 45.2613V44.4572C80.3368 44.4189 80.6815 44.5529 80.9112 44.3423C80.9112 44.3423 80.9304 44.17 80.7963 44.1508H80.0496V43.4041C80.3943 43.385 80.7006 43.519 81.0835 43.251C80.5857 43.0403 80.1454 43.0978 79.705 43.1361V45.5293C80.1645 45.6059 80.624 45.6634 81.0835 45.4719C80.7389 45.089 80.3751 45.3187 80.0688 45.2613Z" fill="black"/>
<path d="M65.7858 43.2511C65.3263 43.0596 64.9242 43.0979 64.4456 43.1553V45.5677L65.7666 45.5295C65.7666 45.0508 65.2114 45.3571 64.8859 45.2997C64.7519 45.2614 64.6945 44.5913 64.8859 44.4764C65.0582 44.3807 65.422 44.5339 65.5752 44.4381C65.6135 44.3998 65.6135 44.2275 65.5752 44.2084C65.422 44.0935 64.9051 44.285 64.8093 44.0743C64.7519 43.9403 64.7519 43.7297 64.8093 43.4617C65.0965 43.3851 65.422 43.5574 65.7858 43.2702V43.2511Z" fill="black"/>
<path d="M104.097 43.5957C104.25 43.1745 105.284 43.6914 104.901 43.1936C104.863 43.1553 104.767 43.117 104.691 43.0979C104.25 43.0021 103.81 43.2319 103.733 43.5957C103.542 44.4573 104.978 44.4764 104.633 45.0891C104.384 45.5294 103.791 45.0125 103.733 45.2805C103.695 45.4528 103.81 45.5294 104.021 45.5677C104.537 45.6826 104.978 45.472 105.054 45.0125C105.208 44.1509 103.906 44.1318 104.116 43.5765L104.097 43.5957Z" fill="black"/>
<path d="M102.374 43.5957C102.527 43.1745 103.427 43.7105 103.178 43.2319C103.14 43.1745 103.063 43.1553 102.967 43.1362C102.47 43.0404 102.067 43.2127 102.01 43.7105C101.914 44.5147 103.235 44.4955 102.91 45.1082C102.68 45.5486 102.106 45.0508 102.01 45.2997C101.972 45.4145 102.048 45.5486 102.24 45.5869C102.718 45.7017 103.216 45.5294 103.312 45.0508C103.465 44.2275 102.182 44.1509 102.374 43.6148V43.5957Z" fill="black"/>
<path d="M91.0012 43.2127C91.1543 43.5191 91.4224 43.4616 91.6713 43.4233L91.7096 45.5677C91.7096 45.5677 92.0159 45.6443 92.0159 45.5294V43.4042C92.3222 43.4999 92.6094 43.4999 92.6477 43.1744C92.0733 43.117 91.5755 43.0596 91.0012 43.2127Z" fill="black"/>
<path d="M94.6389 43.1744C94.5623 43.2892 94.658 43.4807 94.7729 43.4424C94.8495 43.4041 95.0409 43.4233 95.1749 43.4424L95.2132 45.5485C95.2132 45.5485 95.5196 45.6442 95.5196 45.5293L95.5579 43.4041C95.8451 43.4998 96.1514 43.4998 96.1705 43.1552C95.6344 43.1361 95.1175 43.0786 94.6389 43.1744Z" fill="black"/>
<path d="M89.0865 45.2231V43.2702C89.0865 43.0787 88.9142 43.0596 88.8184 43.117C88.7227 43.1744 88.7036 43.251 88.7036 43.385V45.5677H89.9097C89.948 45.472 89.9098 45.2805 89.8523 45.2805C89.5268 45.2805 89.3545 45.2996 89.0673 45.2231H89.0865Z" fill="black"/>
<path d="M111.373 43.1936C111.507 43.4999 111.794 43.4425 112.004 43.4233L112.1 45.5677H112.292L112.426 43.4042H112.885C113.249 43.4042 112.943 42.849 111.392 43.1744L111.373 43.1936Z" fill="black"/>
<path d="M87.7846 43.1552L87.7463 45.357C87.7463 45.5293 87.8803 45.6634 88.0909 45.5868V43.1744C88.0909 43.1744 87.7846 43.0787 87.7846 43.1744V43.1552Z" fill="black"/>
<path d="M90.3501 43.1744V45.4719C90.3309 45.5676 90.4458 45.6251 90.5224 45.6059C90.5798 45.6059 90.6947 45.6059 90.6947 45.4144V43.1744C90.6947 43.1744 90.3501 43.0978 90.3501 43.1744Z" fill="black"/>
<path d="M96.5344 43.1745V45.5677C96.6493 45.6443 96.8025 45.6252 96.8982 45.5295V43.1745C96.7833 43.117 96.6684 43.117 96.5344 43.1745Z" fill="black"/>
<path d="M79.1306 43.7105C79.1306 43.5191 79.0158 43.2702 78.7669 43.1936C78.4222 43.0787 78.0776 43.0979 77.733 43.1553L77.7713 45.5486C77.7713 45.5486 78.0968 45.6443 78.0968 45.472V44.4955C78.9392 44.4189 78.5563 45.8166 79.2647 45.5486L78.8052 44.3232C79.0541 44.1509 79.1498 43.9211 79.1306 43.7105ZM78.1925 44.2275C78.0202 44.1317 78.001 43.5382 78.1733 43.4425C78.4797 43.3276 78.7477 43.5191 78.786 43.7297C78.8434 43.9403 78.6328 44.2849 78.1925 44.2275Z" fill="black"/>
<path d="M69.3661 43.2701C69.0406 43.0595 68.6194 43.117 68.1982 43.1552V45.5676C68.9832 45.6634 69.5576 45.5676 69.6341 44.9933C69.6724 44.7635 69.5576 44.5529 69.2895 44.2849C69.615 44.0168 69.6724 43.4807 69.3469 43.2701H69.3661ZM68.562 43.4041C68.8109 43.4041 68.964 43.4041 69.0789 43.4616C69.2129 43.5382 69.2895 43.7488 69.2129 43.9211C69.1363 44.0551 69.0023 44.1891 68.562 44.17C68.5045 43.9211 68.5237 43.6339 68.562 43.4041ZM69.2321 45.0507C69.1555 45.1847 68.9832 45.3379 68.5811 45.2996C68.5045 45.1273 68.4471 44.6295 68.5811 44.4763C68.7343 44.3232 69.0406 44.4572 69.1555 44.5529C69.2512 44.6486 69.3469 44.8401 69.2321 45.0316V45.0507Z" fill="black"/>
<path d="M108.252 43.0978C107.888 43.0978 107.543 43.3084 107.409 43.7105C107.256 44.1317 107.256 44.6104 107.409 45.0124C107.582 45.4337 107.945 45.6443 108.367 45.606C109.075 45.5102 109.305 44.7061 109.113 43.8062C109.018 43.3467 108.673 43.0978 108.252 43.0978ZM108.252 45.3188C108.041 45.3188 107.831 45.1848 107.735 44.9359C107.543 44.3232 107.658 43.5765 108.041 43.4425C108.233 43.3659 108.501 43.385 108.616 43.5765C109.018 44.2275 108.826 45.3188 108.233 45.3379L108.252 45.3188Z" fill="black"/>
<path d="M97.664 43.4425C97.3002 43.9785 97.3193 44.6678 97.6065 45.223C97.798 45.5677 98.1618 45.6634 98.5064 45.606C99.3488 45.4719 99.5403 44.0551 98.9659 43.3659C98.6404 42.9829 97.932 43.0212 97.6448 43.4425H97.664ZM98.4107 45.3188C98.1809 45.3379 97.9703 45.223 97.8746 44.9741C97.6257 44.2657 97.798 43.4616 98.3149 43.4042C98.5447 43.385 98.7744 43.4999 98.8702 43.7679C99.0999 44.3998 98.9276 45.2805 98.4298 45.3379L98.4107 45.3188Z" fill="black"/>
<path d="M70.6488 43.2509L69.9213 45.5485C70.0361 45.6634 70.2467 45.6059 70.2659 45.5102L70.3233 45.2613C70.3999 44.9358 70.6105 44.9167 70.8403 44.9167C71.0509 44.9167 71.3189 44.8975 71.4147 45.2613C71.4529 45.4144 71.5104 45.5293 71.587 45.5676C71.6253 45.5868 71.8359 45.5868 71.8742 45.5293L71.0892 43.1744C71.0509 43.0595 70.7063 43.0595 70.6488 43.2318V43.2509ZM70.5148 44.6103L70.8403 43.5956C71.0317 43.8636 71.07 44.1125 71.204 44.572C70.936 44.6486 70.7828 44.6486 70.5148 44.5912V44.6103Z" fill="black"/>
<path d="M93.4136 43.1744L92.5903 45.5294C92.7817 45.6443 92.954 45.5677 92.9732 45.4911L93.0881 45.1465C93.2029 44.7636 94.0071 44.7827 94.1411 45.1848C94.2177 45.4145 94.2177 45.5294 94.2943 45.5677C94.3326 45.606 94.524 45.606 94.6006 45.5294L93.8156 43.1936C93.7773 43.0787 93.4518 43.0787 93.4136 43.1936V43.1744ZM93.2604 44.6104L93.605 43.5382L93.9688 44.5912C93.7199 44.6487 93.5093 44.6487 93.2412 44.5912L93.2604 44.6104Z" fill="black"/>
<path d="M84.2043 43.1935L83.4384 45.5485C83.5724 45.6633 83.8022 45.5676 83.8213 45.4336C83.8213 45.357 83.8405 45.2038 83.9362 45.089C84.1277 44.8209 84.8169 44.8209 84.9318 45.1847C85.0084 45.4144 85.0275 45.5102 85.085 45.5676C85.1616 45.6442 85.4296 45.5676 85.3913 45.491L84.6063 43.1744C84.6063 43.1744 84.2234 43.0978 84.2043 43.1744V43.1935ZM84.0511 44.6103C84.2043 44.2657 84.1851 43.9593 84.4532 43.5956L84.7786 44.6103C84.4914 44.6677 84.3 44.6486 84.0511 44.6103Z" fill="black"/>
<path d="M74.5739 43.1553L74.5356 45.5102C74.9377 45.5868 75.512 45.6443 75.9141 45.2613C76.4119 44.7827 76.4119 43.8062 75.9141 43.3659C75.5503 43.0404 74.9951 43.0978 74.5547 43.1361L74.5739 43.1553ZM75.6652 45.0507C75.4929 45.223 75.1865 45.3379 74.8802 45.2613V43.4999C75.0334 43.3659 75.378 43.4425 75.5503 43.5382C75.9907 43.8445 76.029 44.6678 75.6652 45.0507Z" fill="black"/>
<path d="M67.394 43.2702C67.0686 43.0404 66.5899 43.0979 66.2261 43.1553V45.5486C66.2261 45.5486 66.5133 45.6252 66.5708 45.5486V44.4955C67.4132 44.3807 67.0494 45.7975 67.7387 45.5294L67.2983 44.3615C67.6429 44.0935 67.777 43.5382 67.4132 43.2702H67.394ZM66.6665 44.2083C66.475 44.1318 66.5325 43.5574 66.6091 43.4234C66.9728 43.3468 67.1834 43.4999 67.2409 43.7297C67.3175 43.9403 67.1069 44.3041 66.6474 44.2275L66.6665 44.2083Z" fill="black"/>
<path d="M86.8848 43.2128C86.5784 43.0787 86.2147 43.117 85.7935 43.1362V45.5677C86.2147 45.6252 86.5401 45.606 86.8656 45.4911C87.1528 45.3954 87.2294 45.1274 87.2486 44.8976C87.2677 44.6679 87.0571 44.4573 86.9614 44.2275C87.2103 43.8829 87.2868 43.3851 86.8848 43.1936V43.2128ZM86.1572 43.4042C86.4061 43.4042 86.5402 43.4042 86.6742 43.4808C86.8082 43.5383 86.8656 43.768 86.7891 43.9212C86.7316 44.0552 86.5976 44.1892 86.1572 44.1701C86.0806 43.9212 86.0998 43.634 86.1572 43.4042ZM86.8465 45.0508C86.7699 45.204 86.6167 45.338 86.1764 45.2997C86.0998 45.1274 86.0424 44.6296 86.1955 44.4764C86.3487 44.3232 86.6742 44.4764 86.7699 44.5721C86.8656 44.687 86.9614 44.8593 86.8465 45.0508Z" fill="black"/>
<path d="M106.471 43.1744C106.146 43.0979 105.839 43.0979 105.533 43.1744V45.5677C105.533 45.5677 105.801 45.6251 105.878 45.5677C105.916 45.2422 105.801 44.8976 105.993 44.5721C106.586 44.687 106.854 44.3998 106.931 44.0552C106.988 43.7297 106.873 43.2893 106.471 43.1936V43.1744ZM106.51 44.1126C106.414 44.2849 106.031 44.3998 105.935 44.2083C105.839 44.036 105.839 43.5957 105.935 43.4616C106.05 43.3276 106.414 43.4425 106.49 43.5574C106.605 43.7297 106.567 43.9594 106.49 44.1126H106.51Z" fill="black"/>
<path d="M110.856 43.2702C110.53 43.0404 110.051 43.0979 109.688 43.1553V45.5486C109.688 45.5486 109.937 45.606 109.994 45.5486C110.071 45.2039 110.032 44.8785 110.013 44.5147C110.875 44.3615 110.473 45.74 111.181 45.5486L110.722 44.3615C111.085 44.1126 111.219 43.5382 110.836 43.2702H110.856ZM110.683 43.9977C110.607 44.0935 110.492 44.2275 110.09 44.2275C110.032 44.036 109.994 43.5957 110.09 43.4234C110.281 43.3468 110.568 43.4234 110.645 43.5191C110.741 43.6148 110.779 43.8446 110.683 43.9786V43.9977Z" fill="black"/>
<path d="M88.6462 33.1993C80.5857 40.6854 68.1599 39.7664 61.1716 31.4187C56.4234 25.7323 55.3704 17.9207 58.5295 11.2004C61.2482 5.41834 66.7048 1.32108 73.0613 0.382928L76.1821 0.191467C85.7935 0.459512 93.6242 7.67757 94.6772 17.2315C95.3473 23.1667 93.0307 29.102 88.6271 33.1993H88.6462Z" fill="black"/>
<path d="M59.0848 38.0241L53.1112 38.0624L39.2303 23.3582L22.6881 38.0624L16.4082 38.0432L36.3584 20.3331L17.557 0.459515L23.5114 0.440369L39.6132 17.4229L58.7593 0.440369L64.9243 0.497807L42.4851 20.4863L59.0848 38.0241Z" fill="black"/>
<path d="M45.2804 9.09448C42.734 9.53484 40.4939 7.77341 40.0535 5.361C39.6132 2.9486 41.1832 0.593636 43.6147 0.114984C46.1803 -0.401959 48.5352 1.22546 49.0139 3.6953C49.4925 6.16514 47.9226 8.65412 45.2804 9.09448Z" fill="black"/>
</g>
<defs>
<clipPath id="clip0_352_1478">
<rect width="113" height="46.3143" fill="white"/>
</clipPath>
</defs>
</svg>
