<svg width="123" height="28" viewBox="0 0 123 28" fill="none" xmlns="http://www.w3.org/2000/svg">
<g clip-path="url(#clip0_342_791)">
<path d="M94.7589 13.3958L94.6589 4.17002L92.2384 13.3739L89.0932 13.3812L86.7971 4.63607L86.6922 13.3909L83.0809 13.3128L83.0419 0.0902696H88.7003L90.7182 7.62755L92.6581 0.0878296H98.153V13.3885L94.7589 13.3958Z" fill="white"/>
<path d="M8.49378 13.4714L5.81706 8.60844C5.57549 8.16923 4.8264 7.89351 4.42379 8.15459L4.32131 13.3153L0 13.3934V0.0707397L9.40392 0.202502C11.2242 0.226902 12.166 2.25946 12.1782 3.82596C12.1929 5.55351 10.9265 7.07122 9.28191 7.45186C10.3238 8.06675 11.0217 8.93053 11.5219 9.93826L13.1909 13.3031L8.49378 13.4739V13.4714ZM7.44212 4.92398C7.89353 4.68242 7.86913 3.99921 7.75933 3.6698C7.68369 3.44044 7.46896 3.02563 7.03952 3.02075L4.39939 2.99635L4.40427 5.39247C5.43153 5.46811 6.45879 5.45103 7.44456 4.92398H7.44212Z" fill="white"/>
<path d="M24.9567 7.77883L18.5272 7.83739V10.2555H25.5643L25.5594 13.408H14.3694V0.0878241L25.4886 0.078064C25.6521 0.951598 25.6302 1.88613 25.4764 2.94023L18.537 2.99879V4.9313L24.8762 4.9435C25.2324 5.8024 25.1714 6.77842 24.9567 7.78371V7.77883Z" fill="white"/>
<path d="M43.7572 8.09848C42.3322 8.66213 40.9097 8.60845 39.2871 8.51329L39.209 13.4007H34.8267V0.0829468L42.8764 0.107347C44.9113 0.112227 46.4169 1.96178 46.2778 3.95041C46.4559 5.74872 45.5189 7.40063 43.7548 8.09848H43.7572ZM42.1321 4.2969C42.1761 3.81865 41.9369 3.21596 41.3342 3.07444C40.6364 2.91095 39.9629 2.97195 39.2236 3.01344V5.62672C40.8316 5.77312 42.0223 5.50472 42.1321 4.2969Z" fill="white"/>
<path d="M102.362 13.4934C100.871 13.0981 99.9368 12.1514 99.9075 10.8386C99.8758 9.40634 100.823 8.3498 102.24 8.01307L106.347 7.0395C106.713 6.95166 106.935 6.80769 106.937 6.50513C106.942 5.79508 105.661 5.66331 104.446 6.08544C103.602 7.58119 102.382 6.53197 100.303 6.60517C100.337 4.85078 101.83 3.54048 103.572 3.53804H107.589C109.319 3.53316 110.683 4.76782 110.719 6.51245L110.844 12.1758L111.076 13.4007L107.711 13.3812L107.096 12.4539C105.781 13.4153 104.068 13.9473 102.362 13.4958V13.4934ZM106.654 10.58C106.949 10.0944 107.062 9.46978 106.769 8.95493L104.246 9.76746C103.787 9.9163 103.738 10.5044 103.843 10.7679C104.165 11.5731 106.171 11.3754 106.654 10.58Z" fill="white"/>
<path d="M66.3349 7.72029L66.2398 13.3934H62.3479V3.72351L65.9518 3.71375L66.1129 4.95329C67.4256 3.18914 70.2463 2.79629 71.8738 4.39696C72.5131 5.02893 72.7961 6.23919 72.7937 7.08588L72.7791 13.3226L68.9311 13.3909L68.8482 7.93746C68.836 7.0932 68.5627 6.61983 67.8356 6.56615C67.1084 6.51247 66.352 6.76868 66.3349 7.72029Z" fill="white"/>
<path d="M81.6145 13.1738C78.8255 14.2279 75.6071 13.5349 75.5632 11.4023L75.4607 6.62227C75.102 6.68327 74.2285 6.67595 74.1406 6.34655C73.9015 5.45593 74.0674 4.62632 74.0479 3.73814L75.5119 3.6991C75.5022 3.02565 75.4363 2.48884 75.551 1.84467L79.3745 0.00244141L79.4038 3.70886L81.3339 3.7357C81.3095 4.619 81.5096 5.47057 81.2265 6.35387C81.0874 6.73451 80.0992 6.71255 79.4868 6.55639L79.3989 10.7435L81.3339 10.6581C81.329 11.5853 81.2948 12.1904 81.6169 13.1762L81.6145 13.1738Z" fill="white"/>
<path d="M32.1451 13.2933L27.7653 13.3909L27.7628 0.090271H32.1549L32.1451 13.2933Z" fill="white"/>
<path d="M51.9119 13.3665L47.9785 13.3958V3.72105L51.4385 3.72593C51.6532 3.79669 51.6801 4.37498 51.7411 4.7483C52.6488 3.26232 54.3397 2.98415 55.8354 4.03581L54.6349 6.7467C53.9981 6.50757 53.5467 6.33921 53.0928 6.46853C51.7801 6.84674 51.7801 10.6556 51.9094 13.3641L51.9119 13.3665Z" fill="white"/>
<path d="M60.1665 13.3617L56.299 13.3202L56.2502 3.72595L60.1592 3.72351L60.1665 13.3617Z" fill="white"/>
<path d="M123 13.3543L119.094 13.3909V0.0951538H122.993L123 13.3543Z" fill="white"/>
<path d="M116.668 13.3617L112.801 13.3202L112.752 3.72595L116.663 3.72351L116.668 13.3617Z" fill="white"/>
<path d="M116.695 2.66939L112.867 2.67915L112.781 0.0853841L116.646 0.078064L116.695 2.66939Z" fill="white"/>
<path d="M60.1934 2.66939L56.3649 2.67915L56.2771 0.0853841L60.1446 0.078064L60.1934 2.66939Z" fill="white"/>
<path d="M49.9672 20.1986C49.6768 20.2743 49.7427 21.0624 49.9355 21.3991C49.9428 21.6529 50.0331 22.2556 49.7842 22.3337C49.506 22.4191 49.079 22.402 48.6959 22.2946L48.8155 16.3751C48.8252 15.8651 50.1721 15.8993 50.2673 16.4019L50.9627 20.0449L51.6923 16.2726C51.7997 15.9164 52.9172 15.9139 53.0782 16.2751L53.0978 22.3068C52.7244 22.4044 52.4829 22.3922 52.112 22.3337L52.0193 19.4398C51.5996 20.3353 51.7411 21.1844 51.5581 22.0433C51.4776 22.4215 50.7895 22.4776 50.5577 22.3386C50.2551 22.1556 50.4137 20.9355 49.9647 20.2035L49.9672 20.1986Z" fill="white"/>
<path d="M9.84316 16.8778C10.2311 18.2418 10.175 22.3264 9.26731 22.3239L7.05176 22.3191L7.164 16.3605C7.66909 15.7114 9.59184 16.0018 9.84316 16.8802V16.8778ZM8.33522 21.3943C8.44502 21.4284 8.6451 21.4455 8.77199 21.2796L8.71099 17.0339H8.33278V21.3967L8.33522 21.3943Z" fill="white"/>
<path d="M28.0092 21.0478C28.0092 21.5992 27.7433 22.3215 27.2821 22.3263L25.0836 22.3434V16.0994C25.6863 16.0261 26.189 16.0261 26.7624 16.1042C27.4846 16.2018 27.9995 16.7923 28.0019 17.5243L28.0092 21.0502V21.0478ZM26.3573 21.3942C26.4671 21.4284 26.6672 21.4455 26.7941 21.2796L26.7331 17.0339H26.3549V21.3967L26.3573 21.3942Z" fill="white"/>
<path d="M79.3989 22.6289C79.05 21.7798 81.3265 22.9437 81.0386 21.6114C80.7482 21.8603 80.3944 21.9286 80.0602 21.8408C79.7259 21.7529 79.3916 21.3918 79.3916 20.9111V17.9977C79.3916 17.6537 79.5721 17.3852 79.7381 17.2486C80.0138 17.0168 80.331 17.1217 80.7434 17.1022L82.0805 17.0436L82.0317 22.3458C82.0268 22.8778 81.2631 23.195 80.9044 23.2877C80.4115 23.4121 79.6234 23.1779 79.3989 22.6289ZM80.6799 20.9062C80.7726 20.9428 80.9801 20.9672 81.1021 20.794L81.0313 18.0001H80.6799V20.9062Z" fill="white"/>
<path d="M97.6456 17.1047C98.0701 16.9875 98.4435 17.0095 98.8778 17.0656L98.8827 22.3605C98.1409 22.2971 97.5724 22.4337 96.9014 22.5142C96.3524 22.5826 95.9473 21.9408 95.9522 21.3894L95.9912 17.1242C96.2084 16.8826 97.0966 16.9875 97.1015 17.3414L97.182 21.6236C97.3991 21.609 97.6553 21.3625 97.6529 21.1771L97.6383 17.1022L97.6456 17.1047Z" fill="white"/>
<path d="M44.3942 22.3996L44.2673 18.0002H43.9013L43.8378 22.3337H42.6251V17.0022C43.3474 17.1364 43.8842 17.1486 44.5942 17.0364C45.1042 16.9558 45.5092 17.5488 45.5141 18.0368L45.5483 22.3264L44.3966 22.3996H44.3942Z" fill="white"/>
<path d="M15.304 21.0697C15.2259 18.8615 16.8021 19.4398 17.0754 18.6126C17.2511 18.0758 16.7338 17.8025 16.38 18.0929C16.4239 18.3247 16.5899 18.698 16.3214 18.8834C16.053 19.0689 15.5309 19.0225 15.426 18.6614C15.1283 17.6439 15.7676 16.9582 16.6704 16.968C17.6415 16.9778 18.1759 17.4975 18.1954 18.5931L18.2662 22.3629C17.5366 22.2775 16.9437 22.4556 16.2995 22.5118C15.5846 22.5752 15.3259 21.7578 15.304 21.0697ZM16.7119 21.6895C17.3121 20.9013 17.0876 20.2084 16.9217 19.6545C16.3434 20.2865 16.4752 21.0795 16.7119 21.6895Z" fill="white"/>
<path d="M62.836 17.761C62.6896 18.188 62.5847 19.1128 62.836 18.4906C63.1483 18.2295 63.2971 17.8342 63.4069 17.3438C63.5119 16.8826 64.6148 16.9412 64.5172 17.2267L63.6827 19.696L64.5343 22.1726C64.6148 22.4093 63.6436 22.5118 63.4948 22.1873C63.2727 21.7017 63.2191 21.1942 62.8287 20.9038C62.5578 20.7501 62.753 21.365 62.8384 21.6382C62.8384 21.853 62.8897 22.2995 62.6871 22.3434C62.4578 22.3922 62.143 22.3727 61.6623 22.3556L61.6086 16.0945L62.814 16.0823L62.8311 17.761H62.836Z" fill="white"/>
<path d="M85.4551 20.7672C85.4917 20.4524 85.3965 20.0596 85.6161 19.9547C85.7967 19.8668 86.087 19.9132 86.2237 20.0498C86.6434 20.4719 86.3262 21.143 86.5653 21.3845C86.6678 21.4894 87.1167 21.3016 87.1289 21.0722C87.1753 20.2621 86.6312 19.7009 86.0236 19.1324C85.416 18.5638 85.2257 17.2438 85.6844 16.5313C86.026 16.0018 86.9972 15.9237 87.4095 16.1848C87.9537 16.5313 88.244 17.2218 88.1855 18.1075C87.8707 18.3052 87.4364 18.2613 86.9093 18.2832C87.573 19.108 88.2172 19.8131 88.205 20.8965C88.1952 21.77 87.6267 22.6045 86.8288 22.5606C85.9894 22.5143 85.3258 21.9067 85.4575 20.7648L85.4551 20.7672ZM86.9801 18.0807C87.0875 17.5171 86.8923 16.9998 86.7312 17.0144C86.3945 17.0534 86.3774 17.5537 86.4677 17.844C86.5214 18.0148 86.7459 18.3271 86.9801 18.0807Z" fill="white"/>
<path d="M12.8225 21.6309L12.9908 20.4963C13.0591 20.0449 13.6033 20.3206 13.8424 20.4158C14.1742 20.55 14.1645 21.0575 14.023 21.504C13.779 22.2775 13.2739 22.6313 12.598 22.5557C11.7903 22.4654 11.3023 22.0067 11.2438 21.0965C11.1047 18.9518 11.0095 17.0802 12.5419 16.9948C13.2543 16.9558 13.8302 17.3023 14.04 18.1002C14.1938 18.6833 14.162 19.2836 14.101 19.9302L12.4369 19.9522L12.4247 21.5211C12.5248 21.6797 12.7078 21.687 12.8225 21.6334V21.6309ZM12.6858 19.3397C13.0884 18.7492 13.0103 18.3149 12.6858 17.8733C12.2564 18.2856 12.2613 18.9444 12.6858 19.3397Z" fill="white"/>
<path d="M67.1328 21.6309L67.2987 20.5036C67.3695 20.0254 67.9014 20.3328 68.1137 20.4036C68.4943 20.528 68.487 20.9038 68.3943 21.3088C68.1966 22.1872 67.6598 22.5508 66.84 22.563C66.1202 22.5752 65.559 21.9384 65.559 21.1014V18.2929C65.5614 17.5024 66.2373 17.029 66.8546 16.9948C67.5671 16.9558 68.1454 17.3023 68.3528 18.1002C68.5065 18.6833 68.4748 19.2836 68.4138 19.9302L66.7497 19.9522L66.7375 21.5211C66.8375 21.6797 67.0205 21.687 67.1352 21.6334L67.1328 21.6309ZM66.9961 19.3397C67.3988 18.7492 67.3207 18.3149 66.9961 17.8733C66.5667 18.2856 66.5716 18.9444 66.9961 19.3397Z" fill="white"/>
<path d="M55.2572 22.4313C54.5276 22.4606 54.3129 21.5016 54.2983 21.0258C54.2373 19.1665 55.7745 19.2983 56.0039 18.8249C56.1942 18.4345 56.0112 17.8977 55.5988 18.027C55.5085 18.1661 55.5427 18.6712 55.4841 18.8176C55.4061 19.0152 54.8912 19.0689 54.6814 18.9445C54.4715 18.82 54.5179 18.293 54.5447 18.0099C54.6326 17.1681 55.2182 16.9753 55.8892 17.0071C56.4382 17.0315 57.1922 17.2755 57.1995 18.027L57.2361 22.3508L55.2572 22.4313ZM55.7867 21.7944C56.2137 20.9087 56.0502 20.2914 55.8965 19.657C55.3402 20.2743 55.3426 21.1137 55.7867 21.7944Z" fill="white"/>
<path d="M40.3754 20.3572C40.4388 20.1401 41.1098 20.3475 41.2855 20.489C41.5173 20.6793 41.3685 21.2015 41.2977 21.4967C41.1098 22.2897 40.5023 22.5435 39.8093 22.5606C38.3916 22.5947 38.1842 20.0327 38.5722 18.1075C38.7357 17.295 39.3969 16.9558 40.0582 16.9924C41.4002 17.068 41.671 19.2153 41.2562 19.6643C41.0073 19.9327 40.3998 19.9058 39.8849 19.9522C39.5726 20.2718 39.514 21.2649 39.9606 21.7749L40.3778 20.3548L40.3754 20.3572ZM39.963 19.3397C40.3656 18.7492 40.2875 18.3149 39.963 17.8733C39.5336 18.2856 39.5384 18.9444 39.963 19.3397Z" fill="white"/>
<path d="M111.556 22.319L111.507 18.0563C111.315 17.8879 110.817 18.1563 110.817 18.5077L110.812 22.3288C110.451 22.38 110.202 22.3825 109.836 22.3288V16.9998C110.558 17.134 111.097 17.1462 111.807 17.0339C112.317 16.9534 112.722 17.5463 112.727 18.0343L112.762 22.3312L111.554 22.3166L111.556 22.319Z" fill="white"/>
<path d="M92.0676 21.3138C92.0774 22.0995 91.2844 22.5631 90.7207 22.5655C90.1571 22.5679 89.3762 22.0897 89.3884 21.4187L89.4641 17.8538C89.4787 17.1218 90.1571 16.9632 90.7134 17.0071C91.2697 17.051 92.0164 17.2682 92.0261 18.0368L92.0652 21.3162L92.0676 21.3138ZM90.8403 21.5968L90.7793 17.9929L90.4328 17.9978L90.3425 20.9185C90.3303 21.2942 90.4913 21.5675 90.8403 21.5944V21.5968Z" fill="white"/>
<path d="M108.382 21.3089C108.401 22.1019 107.598 22.5606 107.04 22.5631C106.481 22.5655 105.7 22.0848 105.705 21.4162L105.732 18.0343C105.737 17.3414 106.369 17.1096 106.82 17.029C107.481 16.9119 108.274 17.0461 108.294 17.8465L108.379 21.3089H108.382ZM106.974 17.9733C106.508 19.269 106.498 20.5598 107.027 21.6871C107.662 20.8672 107.613 18.3223 106.974 17.9733Z" fill="white"/>
<path d="M76.8808 18.0954C76.7198 17.8733 76.1878 18.2418 76.1927 18.7249L76.2318 22.3337H75.2533L75.2582 17.0364L77.869 17.1071L77.9422 22.3313C77.5665 22.3898 77.3273 22.3923 76.9638 22.3215L76.8808 18.0978V18.0954Z" fill="white"/>
<path d="M113.904 21.3138C113.777 20.8282 113.811 20.6647 113.989 20.5232C114.282 20.2914 114.753 20.3451 114.88 20.7818C114.96 21.06 114.784 21.4577 115.272 21.7896C116.144 20.2694 113.664 19.9864 113.884 18.171C113.996 17.2486 114.655 16.9558 115.336 16.9924C116.219 17.0412 116.658 17.8025 116.38 18.7859C116.319 18.9957 115.768 19.0299 115.429 19.025C115.99 19.6423 116.571 20.2597 116.644 21.1454C116.7 21.8408 116.095 22.4679 115.516 22.5509C114.821 22.6533 114.133 22.1751 113.906 21.3113L113.904 21.3138ZM115.509 18.5467C115.658 17.9367 114.902 17.7708 114.943 18.4003C114.848 18.8762 115.492 19.1592 115.509 18.5467Z" fill="white"/>
<path d="M36.3127 17.8952C36.3347 17.4634 36.525 17.1632 36.6836 17.0461C36.8422 16.929 37.562 17.0144 37.5303 17.2194L36.7324 22.3117C36.2444 22.4093 35.8467 22.402 35.3562 22.3264L34.7047 17.2169C34.9048 16.9192 35.7588 16.9412 35.7759 17.1998L35.9491 19.5764C36.1053 19.574 36.1809 19.6765 36.2175 19.7033L36.3127 17.8952Z" fill="white"/>
<path d="M101.54 22.5899C101.12 22.6143 100.386 22.3288 100.376 21.8798L100.288 18.2857C100.283 18.088 99.844 17.8025 99.8513 17.6317C99.8513 17.5927 100.427 16.0677 100.698 16.0433C101.196 15.9993 101.332 16.2702 101.618 16.7728L102.003 17.4512C102.103 17.6293 101.603 17.9953 101.603 18.2588L101.62 21.3699L102.062 22.0165C102.164 22.1678 101.896 22.5728 101.54 22.5923V22.5899Z" fill="white"/>
<path d="M20.7233 22.2751C20.3012 22.4166 19.9205 22.3898 19.4886 22.3263V16.0945L20.7038 16.092L20.7233 22.2751Z" fill="white"/>
<path d="M71.276 22.6241C70.8978 22.6045 70.4049 22.4703 69.9266 22.2605L69.851 18.2881C69.8485 18.0929 69.3996 17.8025 69.4093 17.6269C69.4142 17.5659 69.9827 16.0701 70.256 16.0433C70.7416 15.9969 70.866 16.1824 70.9685 16.7265C71.01 16.9436 71.3272 17.2291 71.3858 17.4365C71.4029 17.5024 70.461 18.5931 70.9563 21.343C71.0173 21.6773 71.6932 22.0336 71.2735 22.6216L71.276 22.6241Z" fill="white"/>
<path d="M30.5615 18.1295L30.4419 22.319C30.0027 22.3898 29.6831 22.3849 29.2219 22.3288L29.3317 17.1827C31.2032 17.0363 31.418 16.824 31.4497 17.661C31.457 17.8659 31.069 18.0977 30.5639 18.1295H30.5615Z" fill="white"/>
<path d="M59.8176 18.1173L59.6639 22.3288H58.4512L58.5195 17.1193L60.4788 17.0461C60.6521 17.0388 60.7204 17.4585 60.6545 17.6122C60.5813 17.783 60.1738 17.9782 59.8176 18.1149V18.1173Z" fill="white"/>
<path d="M33.6505 22.28C33.1796 22.4167 32.8429 22.3923 32.3915 22.3191L32.4232 17.1266C32.6501 16.8826 33.5407 16.9949 33.5481 17.3414L33.6505 22.2825V22.28Z" fill="white"/>
<path d="M73.8356 22.28C73.3647 22.4167 73.0279 22.3923 72.5765 22.3191L72.6083 17.1266C72.8352 16.8826 73.7258 16.9949 73.7331 17.3414L73.8356 22.2825V22.28Z" fill="white"/>
<path d="M94.5076 22.2531C94.1953 22.4215 93.8683 22.4068 93.5219 22.3214V16.0993C93.883 16.0408 94.1367 16.0432 94.4979 16.0969L94.5076 22.2531Z" fill="white"/>
<path d="M104.251 22.2581C103.933 22.4167 103.611 22.4045 103.265 22.3239V17.0657C103.628 17.012 103.877 17.012 104.241 17.0632L104.253 22.2581H104.251Z" fill="white"/>
<path d="M23.8295 19.7692C23.7904 20.284 22.1434 20.4573 21.9653 19.9717C21.7408 19.3568 22.4386 19.1641 22.7827 19.1738C23.1023 19.1836 23.8734 19.1421 23.827 19.7667L23.8295 19.7692Z" fill="white"/>
<path d="M33.5017 15.914C33.714 15.9945 33.6871 16.7192 33.4871 16.7704C33.2675 16.8241 32.7599 16.8314 32.5306 16.7704C32.2768 16.7021 32.3012 15.8896 32.5623 15.8432C32.8868 15.7871 33.1186 15.7676 33.5041 15.9164L33.5017 15.914Z" fill="white"/>
<path d="M73.6868 15.914C73.899 15.9945 73.8746 16.7192 73.6721 16.7704C73.4501 16.8265 72.9474 16.8314 72.7132 16.7704C72.4619 16.7021 72.4838 15.8896 72.7473 15.8432C73.0694 15.7871 73.3037 15.7676 73.6868 15.9164V15.914Z" fill="white"/>
<path d="M103.333 15.9798C103.463 15.748 103.887 15.7431 104.107 15.8383C104.302 15.9237 104.331 16.3507 104.129 16.5532C103.973 16.7069 103.88 16.8119 103.619 16.8167C103.306 16.8241 103.055 16.4727 103.333 15.9798Z" fill="white"/>
<path d="M49.9671 20.1986C49.8427 20.511 49.9257 21.0429 49.9354 21.3991C49.7622 21.365 49.667 21.1844 49.6743 20.9331L49.7305 18.9323C50.1624 19.369 50.138 19.7667 49.9671 20.2011V20.1986Z" fill="white"/>
<path d="M62.8359 18.4906C62.8432 18.6761 62.9335 18.9079 62.7115 19.2275C62.4943 18.7859 62.4894 18.1051 62.8359 17.761V18.4906Z" fill="white"/>
<path d="M62.831 20.9063L62.8408 21.6407C62.4845 21.282 62.4918 20.611 62.7066 20.1669C62.9286 20.4841 62.8408 20.7184 62.8286 20.9063H62.831Z" fill="white"/>
<path d="M21.67 25.4008L16.0725 25.5789L12.1684 25.8034C9.6796 25.9449 7.45916 26.8038 6.25378 25.6228C7.39816 24.8518 8.79387 24.8298 10.1627 24.6981L15.8724 24.1417L19.4593 23.8758L23.3804 23.6342L38.4526 23.6147C39.3749 23.6147 40.1899 23.9197 41.183 23.8465C42.6763 23.7367 44.4502 23.8099 45.7068 24.6078C46.1387 24.8835 45.4116 25.6716 44.9821 25.6985C43.3839 25.7985 41.8979 25.6814 40.307 25.6253L34.2093 25.4057L21.6675 25.4008H21.67Z" fill="white"/>
<path d="M29.4708 25.7498C30.1394 25.5375 31.1715 25.5497 31.906 25.7498H35.078L36.5298 25.9962C39.8483 25.8913 41.6027 26.838 40.4876 27.4993C39.2358 28.241 37.8743 27.8775 36.5079 27.7604L33.6164 27.5115L30.6957 27.2626C28.1678 27.0479 25.108 26.9112 22.5338 26.8478L16.829 26.7063C16.6167 26.7014 16.3605 26.4793 16.3507 26.3573C16.3288 26.0914 17.7757 25.8132 18.5272 25.7986C19.1592 25.9572 19.8302 25.945 20.4597 25.7571C21.7164 25.7302 22.9291 25.6156 24.1344 25.596C25.9425 25.6131 27.7213 25.6644 29.4732 25.7498H29.4708Z" fill="white"/>
</g>
<defs>
<clipPath id="clip0_342_791">
<rect width="123" height="27.9507" fill="white"/>
</clipPath>
</defs>
</svg>
