<svg width="125" height="28" viewBox="0 0 125 28" fill="none" xmlns="http://www.w3.org/2000/svg">
<g clip-path="url(#clip0_369_5519)">
<path d="M119.521 26.5152C117.746 26.5152 116.335 26.0897 115.29 25.2387C114.244 24.3633 113.722 22.8193 113.722 20.6067V11.7075H109.163V8.42502H111.862C113.102 8.42502 113.831 7.81716 114.05 6.60143L114.597 3.68365H117.588V8.42502H124.736V11.7075H117.588V20.5337C117.588 21.4821 117.794 22.1507 118.208 22.5397C118.645 22.9045 119.387 23.0868 120.433 23.0868H124.663V26.5152H119.521Z" fill="#240257"/>
<path d="M95.9009 26.9531C94.1502 26.9531 92.6062 26.564 91.2689 25.786C89.9317 24.9836 88.8861 23.8772 88.1324 22.4671C87.3786 21.0568 87.0017 19.4156 87.0017 17.5433C87.0017 15.6468 87.3664 13.9812 88.0958 12.5466C88.8496 11.1121 89.8951 9.99358 91.2325 9.19119C92.594 8.3888 94.1624 7.98761 95.9373 7.98761C97.688 7.98761 99.1956 8.3888 100.46 9.19119C101.724 9.96926 102.697 11.0148 103.378 12.3278C104.083 13.6408 104.435 15.0875 104.435 16.6679C104.435 16.9111 104.435 17.1785 104.435 17.4704C104.435 17.7378 104.423 18.0417 104.399 18.3822H90.7948C90.9163 20.0599 91.4635 21.3364 92.436 22.2118C93.4087 23.0627 94.5513 23.4882 95.8644 23.4882C97.0072 23.4882 97.9069 23.2573 98.5634 22.7953C99.2442 22.309 99.7426 21.6525 100.059 20.8258H103.961C103.524 22.5521 102.612 24.0111 101.226 25.2025C99.8399 26.3696 98.0649 26.9531 95.9009 26.9531ZM95.9009 11.343C94.7095 11.343 93.6517 11.7078 92.7278 12.4373C91.8038 13.1423 91.2082 14.1393 90.9406 15.4279H100.569C100.472 14.2121 99.9979 13.2275 99.1469 12.4737C98.2959 11.7199 97.2138 11.343 95.9009 11.343Z" fill="#240257"/>
<path d="M65.3516 26.5157V23.1602H71.4059V4.81474C71.4059 4.01236 71.0169 3.61117 70.2388 3.61117H65.8622V0.255737H70.9317C72.342 0.255737 73.4119 0.632616 74.1413 1.38637C74.8951 2.11582 75.272 3.18566 75.272 4.59591V23.1602H81.3629V26.5157H65.3516Z" fill="#240257"/>
<path d="M43.4827 26.5157V23.1602H49.537V4.81474C49.537 4.01236 49.148 3.61117 48.3699 3.61117H43.9933V0.255737H49.0629C50.4731 0.255737 51.543 0.632616 52.2724 1.38637C53.0262 2.11582 53.4031 3.18566 53.4031 4.59591V23.1602H59.4939V26.5157H43.4827Z" fill="#240257"/>
<path d="M29.7104 5.65306C28.8595 5.65306 28.1421 5.38559 27.5586 4.85067C26.9993 4.29143 26.7197 3.61062 26.7197 2.80823C26.7197 2.00584 26.9993 1.33718 27.5586 0.802264C28.1421 0.26734 28.8595 -0.00012207 29.7104 -0.00012207C30.5858 -0.00012207 31.3031 0.26734 31.8623 0.802264C32.4459 1.33718 32.7377 2.00584 32.7377 2.80823C32.7377 3.61062 32.4459 4.29143 31.8623 4.85067C31.3031 5.38559 30.5858 5.65306 29.7104 5.65306ZM22.4525 26.5151V23.1597H28.1421V12.984C28.1421 12.1816 27.7531 11.7804 26.975 11.7804H22.9631V8.42493H27.668C29.1755 8.42493 30.2697 8.7775 30.9505 9.48263C31.6556 10.1634 32.0082 11.2576 32.0082 12.7651V23.1597H37.6978V26.5151H22.4525Z" fill="#240257"/>
<path d="M0 26.5149V0.984436H8.35211C10.3459 0.984436 11.9871 1.32484 13.2758 2.00565C14.5888 2.68647 15.5614 3.61043 16.1936 4.77754C16.8501 5.92032 17.1783 7.22117 17.1783 8.68005C17.1783 10.3334 16.7528 11.8045 15.9019 13.0932C15.0751 14.3576 13.7986 15.2815 12.0723 15.865L17.4336 26.5149H12.9476L8.06033 16.4122H3.86604V26.5149H0ZM3.86604 12.9108H8.13328C9.88394 12.9108 11.1605 12.5217 11.9629 11.7437C12.7895 10.9656 13.2029 9.94441 13.2029 8.68005C13.2029 7.39137 12.8017 6.37015 11.9993 5.6164C11.1969 4.83832 9.8961 4.44929 8.0968 4.44929H3.86604V12.9108Z" fill="#240257"/>
</g>
<defs>
<clipPath id="clip0_369_5519">
<rect width="125" height="27.1226" fill="white"/>
</clipPath>
</defs>
</svg>
