<svg width="125" height="28" viewBox="0 0 125 28" fill="none" xmlns="http://www.w3.org/2000/svg">
<g clip-path="url(#clip0_369_5527)">
<path d="M119.521 26.5151C117.746 26.5151 116.335 26.0897 115.29 25.2386C114.244 24.3632 113.722 22.8193 113.722 20.6066V11.7074H109.163V8.42496H111.862C113.102 8.42496 113.831 7.8171 114.05 6.60137L114.597 3.68359H117.588V8.42496H124.736V11.7074H117.588V20.5337C117.588 21.482 117.794 22.1506 118.208 22.5397C118.645 22.9044 119.387 23.0867 120.433 23.0867H124.663V26.5151H119.521Z" fill="black"/>
<path d="M95.9009 26.9531C94.1502 26.9531 92.6062 26.5641 91.2689 25.786C89.9317 24.9837 88.8861 23.8773 88.1324 22.4672C87.3786 21.0569 87.0017 19.4156 87.0017 17.5433C87.0017 15.6469 87.3664 13.9813 88.0958 12.5466C88.8496 11.1121 89.8951 9.99364 91.2325 9.19126C92.594 8.38886 94.1624 7.98767 95.9373 7.98767C97.688 7.98767 99.1956 8.38886 100.46 9.19126C101.724 9.96932 102.697 11.0149 103.378 12.3279C104.083 13.6409 104.435 15.0876 104.435 16.668C104.435 16.9111 104.435 17.1786 104.435 17.4705C104.435 17.7379 104.423 18.0418 104.399 18.3822H90.7948C90.9163 20.06 91.4635 21.3365 92.436 22.2118C93.4087 23.0628 94.5513 23.4883 95.8644 23.4883C97.0072 23.4883 97.9069 23.2574 98.5634 22.7953C99.2442 22.309 99.7426 21.6525 100.059 20.8259H103.961C103.524 22.5522 102.612 24.0111 101.226 25.2025C99.8399 26.3696 98.0649 26.9531 95.9009 26.9531ZM95.9009 11.3431C94.7095 11.3431 93.6517 11.7078 92.7278 12.4373C91.8038 13.1424 91.2082 14.1393 90.9406 15.428H100.569C100.472 14.2122 99.9979 13.2275 99.1469 12.4738C98.2959 11.72 97.2138 11.3431 95.9009 11.3431Z" fill="black"/>
<path d="M65.3516 26.5157V23.1602H71.4059V4.81474C71.4059 4.01236 71.0169 3.61117 70.2388 3.61117H65.8622V0.255737H70.9317C72.342 0.255737 73.4119 0.632616 74.1413 1.38637C74.8951 2.11582 75.272 3.18566 75.272 4.59591V23.1602H81.3629V26.5157H65.3516Z" fill="black"/>
<path d="M43.4827 26.5157V23.1602H49.537V4.81474C49.537 4.01236 49.148 3.61117 48.3699 3.61117H43.9933V0.255737H49.0629C50.4731 0.255737 51.543 0.632616 52.2724 1.38637C53.0262 2.11582 53.4031 3.18566 53.4031 4.59591V23.1602H59.4939V26.5157H43.4827Z" fill="black"/>
<path d="M29.7104 5.65306C28.8595 5.65306 28.1421 5.38559 27.5586 4.85067C26.9993 4.29143 26.7197 3.61062 26.7197 2.80823C26.7197 2.00584 26.9993 1.33718 27.5586 0.802264C28.1421 0.26734 28.8595 -0.00012207 29.7104 -0.00012207C30.5858 -0.00012207 31.3031 0.26734 31.8623 0.802264C32.4459 1.33718 32.7377 2.00584 32.7377 2.80823C32.7377 3.61062 32.4459 4.29143 31.8623 4.85067C31.3031 5.38559 30.5858 5.65306 29.7104 5.65306ZM22.4525 26.5151V23.1597H28.1421V12.984C28.1421 12.1816 27.7531 11.7804 26.975 11.7804H22.9631V8.42493H27.668C29.1755 8.42493 30.2697 8.7775 30.9505 9.48263C31.6556 10.1634 32.0082 11.2576 32.0082 12.7651V23.1597H37.6978V26.5151H22.4525Z" fill="black"/>
<path d="M0 26.5148V0.984375H8.35211C10.3459 0.984375 11.9871 1.32478 13.2758 2.00559C14.5888 2.68641 15.5614 3.61037 16.1936 4.77748C16.8501 5.92026 17.1783 7.22111 17.1783 8.67999C17.1783 10.3334 16.7528 11.8045 15.9019 13.0931C15.0751 14.3575 13.7986 15.2815 12.0723 15.865L17.4336 26.5148H12.9476L8.06033 16.4121H3.86604V26.5148H0ZM3.86604 12.9107H8.13328C9.88394 12.9107 11.1605 12.5217 11.9629 11.7436C12.7895 10.9656 13.2029 9.94435 13.2029 8.67999C13.2029 7.39131 12.8017 6.37008 11.9993 5.61633C11.1969 4.83826 9.8961 4.44922 8.0968 4.44922H3.86604V12.9107Z" fill="black"/>
</g>
<defs>
<clipPath id="clip0_369_5527">
<rect width="125" height="27.1226" fill="white"/>
</clipPath>
</defs>
</svg>
