<svg width="105" height="24" viewBox="0 0 105 24" fill="none" xmlns="http://www.w3.org/2000/svg">
<g clip-path="url(#clip0_337_160)">
<mask id="mask0_337_160" style="mask-type:luminance" maskUnits="userSpaceOnUse" x="0" y="0" width="105" height="24">
<path d="M104.961 0H0V24H104.961V0Z" fill="white"/>
</mask>
<g mask="url(#mask0_337_160)">
<mask id="mask1_337_160" style="mask-type:luminance" maskUnits="userSpaceOnUse" x="0" y="0" width="105" height="24">
<path d="M104.961 0H0V24H104.961V0Z" fill="white"/>
</mask>
<g mask="url(#mask1_337_160)">
<path d="M12.7321 15.1861L10.8587 15.2176C10.7603 15.2194 10.682 15.2966 10.6804 15.3933C10.6538 17.0023 9.52228 18.236 7.98974 18.3274C7.89079 18.3331 7.81464 18.4114 7.81644 18.5057L7.84912 20.3205C7.8499 20.3686 7.87137 20.4148 7.90753 20.4478C7.94308 20.4801 7.98716 20.4967 8.03495 20.4958C10.7082 20.3714 12.8969 18.0696 12.9193 15.3642C12.9196 15.3167 12.9005 15.2717 12.8651 15.2377C12.8298 15.2042 12.7813 15.1852 12.7321 15.1861Z" fill="black"/>
<path d="M11.1407 21.0235C10.2222 21.5348 9.2048 21.7959 8.17537 21.7959C7.64311 21.7959 7.1075 21.7262 6.5801 21.5853C5.03268 21.1717 3.74294 20.1945 2.94844 18.834C1.90219 17.0422 1.90207 14.8163 2.94819 13.0248L8.01964 4.40518C8.04866 4.35586 8.10059 4.32653 8.1587 4.32653C8.21591 4.32653 8.26945 4.35676 8.29788 4.40544L13.3531 13.0247C14.9975 15.8244 14.005 19.4128 11.1407 21.0235ZM8.34801 0.0887904C8.31557 0.0331038 8.25698 0 8.19162 0C8.12596 0 8.06731 0.0333604 8.03463 0.0889182L1.07303 11.9893C-0.00918138 13.8574 -0.283895 16.0268 0.299462 18.0974C0.882948 20.168 2.25495 21.8923 4.16248 22.9525C5.38854 23.6338 6.78188 23.9961 8.19162 24C10.3846 23.9978 12.4456 23.1592 13.9949 21.6387C15.5442 20.1182 16.3961 18.0977 16.394 15.9499C16.3925 14.5534 16.0174 13.1748 15.3091 11.9628L8.34801 0.0887904Z" fill="black"/>
<path d="M24.1412 11.2852C24.1193 11.3457 24.0618 11.3864 23.9965 11.3864H23.9285C23.844 11.3864 23.7754 11.3186 23.7754 11.2348V8.50746C23.7754 8.3505 23.646 8.22276 23.4873 8.22276H19.3328C19.1741 8.22276 19.0447 8.3505 19.0447 8.50746V23.1836C19.0447 23.3408 19.1741 23.4688 19.3328 23.4688H23.5894C23.7481 23.4688 23.8774 23.3408 23.8774 23.1836V17.8989C23.8774 16.5599 24.0478 15.4924 24.3838 14.7254C24.7257 13.9428 25.2664 13.3732 25.99 13.0331C26.6998 12.6994 27.6671 12.5302 28.8632 12.5302C29.0234 12.5302 29.1524 12.4024 29.1524 12.2454V7.75194C26.6209 7.76682 24.9812 8.92326 24.1412 11.2852Z" fill="black"/>
<path d="M35.4237 8.28366H31.1618C31.0027 8.28366 30.8734 8.4111 30.8734 8.56728V23.1856C30.8734 23.3421 31.0027 23.4695 31.1618 23.4695H35.4237C35.5829 23.4695 35.7122 23.3421 35.7122 23.1856V8.56728C35.7122 8.4111 35.5829 8.28366 35.4237 8.28366Z" fill="black"/>
<path d="M33.2399 0C32.344 0 31.6102 0.282476 31.0594 0.839244C30.5086 1.396 30.2291 2.12644 30.2291 3.00963C30.2291 3.91567 30.5084 4.6573 31.0594 5.21364C31.6097 5.77062 32.3434 6.0531 33.2399 6.0531C34.1145 6.0531 34.8428 5.77018 35.4045 5.21256C35.9662 4.65536 36.2508 3.91438 36.2508 3.00963C36.2508 2.12751 35.9662 1.39773 35.4047 0.840312C34.8422 0.282691 34.1139 0 33.2399 0Z" fill="black"/>
<path d="M52.4422 9.31842C51.4139 8.27904 50.0013 7.75194 48.2435 7.75194C47.1676 7.75194 46.1887 7.9941 45.3336 8.4714C44.4797 8.9484 43.7797 9.64164 43.2534 10.5319C43.2259 10.5783 43.1758 10.6066 43.1216 10.6066H43.0535C42.9694 10.6066 42.901 10.5389 42.901 10.4555V8.53986C42.901 8.38326 42.7722 8.25582 42.614 8.25582H38.4733C38.3151 8.25582 38.1862 8.38326 38.1862 8.53986V23.1843C38.1862 23.341 38.3151 23.4688 38.4733 23.4688H42.7155C42.8741 23.4688 43.0028 23.341 43.0028 23.1843V15.8289C43.0028 14.4979 43.2895 13.5038 43.8553 12.8736C44.4257 12.2384 45.2059 11.9161 46.1743 11.9161C47.1889 11.9161 47.9581 12.2105 48.4612 12.7918C48.9583 13.3661 49.2104 14.2522 49.2104 15.4256V23.1843C49.2104 23.341 49.3391 23.4688 49.4974 23.4688H53.7058C53.864 23.4688 53.9929 23.341 53.9929 23.1843V14.0152C53.9929 11.939 53.4711 10.3591 52.4422 9.31842Z" fill="black"/>
<path d="M65.672 14.4287L62.9622 13.4328C62.5136 13.2484 62.2054 13.0971 62.0141 12.968C61.7905 12.818 61.6771 12.6032 61.6771 12.3299C61.6771 12.059 61.7953 11.843 62.0195 11.7053C62.2276 11.5782 62.5748 11.5166 63.0833 11.5166C64.2215 11.5166 65.6576 11.8434 67.3517 12.488C67.4266 12.5163 67.5088 12.5142 67.5813 12.4812C67.6521 12.4493 67.7049 12.3916 67.7301 12.3192L68.855 9.1173C68.8808 9.04386 68.8748 8.96478 68.8382 8.89494C68.8028 8.82636 68.7417 8.7765 68.6673 8.75466C66.8809 8.2302 65.1389 7.96434 63.4899 7.96434C61.3209 7.96434 59.6658 8.3895 58.5694 9.22746C57.4841 10.0565 56.9339 11.2568 56.9339 12.7949C56.9339 13.884 57.2422 14.8131 57.8494 15.5565C58.4608 16.3068 59.4081 16.9278 60.6649 17.4029L63.4101 18.4658C63.5055 18.5123 63.635 18.5593 63.8059 18.6112C64.0056 18.6728 64.1825 18.7661 64.3324 18.888C64.5039 19.0286 64.5909 19.2347 64.5909 19.5012C64.5909 20.0628 64.0608 20.3479 63.0156 20.3479C61.4594 20.3479 59.7051 19.8272 57.8018 18.8007C57.7284 18.7614 57.6451 18.7532 57.5669 18.7787C57.4916 18.803 57.4312 18.8556 57.3981 18.9266L55.8461 22.2351C55.7801 22.3752 55.8398 22.5412 55.9791 22.606C56.956 23.0578 58.0006 23.3994 59.0828 23.6209C60.3099 23.8725 61.4966 23.9998 62.609 23.9998C64.7348 23.9998 66.415 23.5845 67.6029 22.7654C68.7741 21.9577 69.3677 20.681 69.3677 18.9701C69.3677 17.7743 69.0613 16.8245 68.4568 16.1468C67.8434 15.4604 66.9067 14.8823 65.672 14.4287Z" fill="black"/>
<path d="M81.3896 14.3067C81.3615 14.3358 81.3225 14.352 81.2811 14.352H75.098C75.0555 14.352 75.0141 14.3339 74.9859 14.3021C74.9571 14.2698 74.9433 14.2274 74.9481 14.1851C75.0645 13.1961 75.4273 12.4466 76.0269 11.9573C76.6242 11.4713 77.3959 11.2246 78.3242 11.2246C79.2105 11.2246 79.9517 11.4896 80.5267 12.0128C81.1042 12.5378 81.4094 13.2732 81.4328 14.1984C81.434 14.2388 81.4184 14.2781 81.3896 14.3067ZM84.0299 9.99864C82.6981 8.64876 80.835 7.96434 78.4921 7.96434C76.9348 7.96434 75.5286 8.28858 74.3125 8.92806C73.1012 9.56586 72.1435 10.5031 71.4677 11.713C70.7889 12.9267 70.4447 14.3798 70.4447 16.032C70.4447 17.6177 70.7997 19.025 71.4995 20.2148C72.1981 21.4046 73.2007 22.3421 74.4798 23.0019C75.7625 23.6639 77.2712 23.9998 78.9628 23.9998C81.0988 23.9998 83.1173 23.4703 84.9606 22.4258C85.0865 22.3539 85.1357 22.1931 85.0703 22.0597L83.6054 19.0528C83.57 18.9813 83.5094 18.9293 83.4339 18.9059C83.3589 18.8831 83.2798 18.8915 83.2126 18.9299C82.7185 19.2103 82.1536 19.4636 81.5342 19.6826C80.7378 19.9646 79.8947 20.1076 79.03 20.1076C77.929 20.1076 77.0026 19.8639 76.2746 19.3838C75.5364 18.8957 75.0789 18.1574 74.9158 17.1875C74.9086 17.1443 74.9211 17.0999 74.9493 17.0663C74.9781 17.0326 75.0201 17.0132 75.0651 17.0132H85.7516C85.9087 17.0132 86.0358 16.8868 86.0358 16.7316V16.032C86.0358 13.3797 85.3612 11.3498 84.0299 9.99864Z" fill="black"/>
<path d="M98.6802 18.616C97.9798 19.3045 97.0707 19.6534 95.9763 19.6534C94.9054 19.6534 94.0071 19.3045 93.3067 18.616C92.6051 17.9274 92.2495 17.0011 92.2495 15.8629C92.2495 14.7253 92.6051 13.7992 93.3067 13.1098C94.0077 12.4212 94.906 12.0724 95.9763 12.0724C97.0689 12.0724 97.9792 12.4212 98.6802 13.1098C99.3818 13.7992 99.7374 14.7253 99.7374 15.8629C99.7374 17.0011 99.3818 17.9274 98.6802 18.616ZM104.674 0.212402H100.449C100.293 0.212402 100.169 0.333871 100.163 0.488856L99.8723 10.207C99.8699 10.2889 99.8022 10.3543 99.7206 10.3543H99.6534C99.6001 10.3543 99.5515 10.327 99.5233 10.2819C98.4793 8.58606 96.8087 7.72596 94.5594 7.72596C93.2215 7.72596 91.9868 8.04252 90.8912 8.66652C89.7981 9.28884 88.922 10.2205 88.2857 11.4351C87.6489 12.6533 87.3257 14.1431 87.3257 15.8629C87.3257 17.5828 87.6489 19.0727 88.2857 20.2908C88.922 21.5053 89.7981 22.4369 90.8912 23.0594C91.9874 23.6834 93.2215 24 94.5594 24C96.8087 24 98.4793 23.1399 99.5233 21.444C99.5515 21.399 99.6001 21.3716 99.6534 21.3716H99.7206C99.8046 21.3716 99.8723 21.4396 99.8723 21.5234V23.2091C99.8723 23.3664 100.001 23.4945 100.158 23.4945H104.382C104.537 23.4945 104.665 23.3683 104.667 23.2125L104.96 0.501024C104.961 0.424172 104.931 0.352017 104.877 0.297153C104.823 0.242717 104.751 0.212402 104.674 0.212402Z" fill="black"/>
</g>
</g>
</g>
<defs>
<clipPath id="clip0_337_160">
<rect width="105" height="24" fill="white"/>
</clipPath>
</defs>
</svg>
