<svg width="105" height="24" viewBox="0 0 105 24" fill="none" xmlns="http://www.w3.org/2000/svg">
<g clip-path="url(#clip0_326_3426)">
<mask id="mask0_326_3426" style="mask-type:luminance" maskUnits="userSpaceOnUse" x="0" y="0" width="105" height="24">
<path d="M104.961 0H0V24H104.961V0Z" fill="white"/>
</mask>
<g mask="url(#mask0_326_3426)">
<mask id="mask1_326_3426" style="mask-type:luminance" maskUnits="userSpaceOnUse" x="0" y="0" width="105" height="24">
<path d="M104.961 0H0V24H104.961V0Z" fill="white"/>
</mask>
<g mask="url(#mask1_326_3426)">
<path d="M12.7321 15.1861L10.8588 15.2176C10.7603 15.2194 10.682 15.2966 10.6804 15.3933C10.6538 17.0023 9.52231 18.236 7.98977 18.3274C7.89083 18.3331 7.81467 18.4114 7.81647 18.5057L7.84915 20.3205C7.84993 20.3686 7.8714 20.4148 7.90756 20.4478C7.94312 20.4801 7.98719 20.4967 8.03498 20.4958C10.7082 20.3714 12.8969 18.0696 12.9193 15.3642C12.9197 15.3167 12.9005 15.2717 12.8651 15.2377C12.8298 15.2042 12.7813 15.1852 12.7321 15.1861Z" fill="#5C80E0"/>
<path d="M11.1407 21.0235C10.2222 21.5348 9.2048 21.7959 8.17537 21.7959C7.64311 21.7959 7.1075 21.7262 6.5801 21.5853C5.03268 21.1717 3.74294 20.1945 2.94844 18.834C1.90219 17.0422 1.90207 14.8163 2.94819 13.0248L8.01964 4.40518C8.04866 4.35586 8.10059 4.32653 8.1587 4.32653C8.21591 4.32653 8.26945 4.35676 8.29788 4.40544L13.3531 13.0247C14.9975 15.8244 14.005 19.4128 11.1407 21.0235ZM8.34801 0.0887904C8.31557 0.0331038 8.25698 0 8.19162 0C8.12596 0 8.06731 0.0333604 8.03463 0.0889182L1.07303 11.9893C-0.00918138 13.8574 -0.283895 16.0268 0.299462 18.0974C0.882948 20.168 2.25495 21.8923 4.16248 22.9525C5.38854 23.6338 6.78188 23.9961 8.19162 24C10.3846 23.9978 12.4456 23.1592 13.9949 21.6387C15.5442 20.1182 16.3961 18.0977 16.394 15.9499C16.3925 14.5534 16.0174 13.1748 15.3091 11.9628L8.34801 0.0887904Z" fill="#5C80E0"/>
<path d="M24.1412 11.2852C24.1194 11.3457 24.0618 11.3865 23.9965 11.3865H23.9285C23.8441 11.3865 23.7755 11.3187 23.7755 11.2348V8.50747C23.7755 8.35051 23.646 8.22277 23.4873 8.22277H19.3328C19.1741 8.22277 19.0447 8.35051 19.0447 8.50747V23.1837C19.0447 23.3409 19.1741 23.4688 19.3328 23.4688H23.5894C23.7481 23.4688 23.8774 23.3409 23.8774 23.1837V17.8989C23.8774 16.56 24.0478 15.4924 24.3838 14.7255C24.7257 13.9428 25.2664 13.3732 25.99 13.0332C26.6998 12.6994 27.6671 12.5302 28.8632 12.5302C29.0234 12.5302 29.1524 12.4024 29.1524 12.2454V7.75195C26.6209 7.76683 24.9812 8.92327 24.1412 11.2852Z" fill="#1E1E1E"/>
<path d="M35.4237 8.28363H31.1618C31.0027 8.28363 30.8734 8.41107 30.8734 8.56725V23.1855C30.8734 23.3421 31.0027 23.4695 31.1618 23.4695H35.4237C35.5829 23.4695 35.7122 23.3421 35.7122 23.1855V8.56725C35.7122 8.41107 35.5829 8.28363 35.4237 8.28363Z" fill="#1E1E1E"/>
<path d="M33.2399 0C32.344 0 31.6102 0.282476 31.0593 0.839244C30.5085 1.396 30.2291 2.12644 30.2291 3.00963C30.2291 3.91567 30.5083 4.6573 31.0593 5.21364C31.6097 5.77062 32.3434 6.0531 33.2399 6.0531C34.1144 6.0531 34.8428 5.77018 35.4045 5.21256C35.9661 4.65536 36.2507 3.91438 36.2507 3.00963C36.2507 2.12751 35.9661 1.39773 35.4047 0.840312C34.8422 0.282691 34.1138 0 33.2399 0Z" fill="#1E1E1E"/>
<path d="M52.4422 9.31843C51.4138 8.27905 50.0012 7.75195 48.2435 7.75195C47.1676 7.75195 46.1887 7.99411 45.3336 8.47141C44.4797 8.94841 43.7797 9.64165 43.2534 10.5319C43.2258 10.5783 43.1758 10.6066 43.1216 10.6066H43.0535C42.9694 10.6066 42.9009 10.539 42.9009 10.4556V8.53987C42.9009 8.38327 42.7722 8.25583 42.614 8.25583H38.4733C38.3151 8.25583 38.1861 8.38327 38.1861 8.53987V23.1843C38.1861 23.341 38.3151 23.4688 38.4733 23.4688H42.7155C42.8741 23.4688 43.0028 23.341 43.0028 23.1843V15.8289C43.0028 14.4979 43.2895 13.5039 43.8553 12.8736C44.4257 12.2385 45.2059 11.9161 46.1743 11.9161C47.1889 11.9161 47.958 12.2106 48.4612 12.7918C48.9583 13.3662 49.2103 14.2522 49.2103 15.4257V23.1843C49.2103 23.341 49.3391 23.4688 49.4974 23.4688H53.7057C53.8639 23.4688 53.9929 23.341 53.9929 23.1843V14.0152C53.9929 11.9391 53.471 10.3591 52.4422 9.31843Z" fill="#1E1E1E"/>
<path d="M65.6721 14.4287L62.9622 13.4328C62.5137 13.2484 62.2055 13.0971 62.0142 12.968C61.7905 12.818 61.6772 12.6033 61.6772 12.33C61.6772 12.0591 61.7953 11.8431 62.0196 11.7053C62.2276 11.5782 62.5748 11.5166 63.0833 11.5166C64.2215 11.5166 65.6577 11.8434 67.3517 12.488C67.4267 12.5163 67.5088 12.5142 67.5814 12.4812C67.6521 12.4493 67.7049 12.3916 67.7301 12.3192L68.855 9.11732C68.8808 9.04388 68.8748 8.9648 68.8383 8.89496C68.8029 8.82638 68.7417 8.77652 68.6674 8.75468C66.881 8.23022 65.139 7.96436 63.4899 7.96436C61.321 7.96436 59.6658 8.38952 58.5694 9.22748C57.4842 10.0566 56.9339 11.2568 56.9339 12.7949C56.9339 13.884 57.2422 14.8131 57.8495 15.5565C58.4608 16.3068 59.4081 16.9278 60.6649 17.403L63.4102 18.4659C63.5055 18.5124 63.635 18.5593 63.8059 18.6112C64.0056 18.6729 64.1825 18.7661 64.3324 18.888C64.5039 19.0286 64.5909 19.2347 64.5909 19.5012C64.5909 20.0628 64.0608 20.3479 63.0156 20.3479C61.4595 20.3479 59.7051 19.8273 57.8018 18.8007C57.7284 18.7614 57.6451 18.7533 57.567 18.7787C57.4917 18.8031 57.4313 18.8556 57.3981 18.9266L55.8461 22.2351C55.7802 22.3752 55.8398 22.5412 55.9791 22.606C56.956 23.0578 58.0006 23.3994 59.0829 23.6209C60.3099 23.8725 61.4967 23.9998 62.609 23.9998C64.7348 23.9998 66.415 23.5845 67.603 22.7655C68.7741 21.9577 69.3678 20.6811 69.3678 18.9701C69.3678 17.7743 69.0613 16.8246 68.4569 16.1468C67.8434 15.4604 66.9068 14.8824 65.6721 14.4287Z" fill="#1E1E1E"/>
<path d="M81.3897 14.3067C81.3615 14.3358 81.3225 14.352 81.2812 14.352H75.0981C75.0555 14.352 75.0141 14.334 74.986 14.3021C74.9572 14.2698 74.9434 14.2275 74.9482 14.1852C75.0645 13.1961 75.4273 12.4466 76.027 11.9573C76.6242 11.4713 77.396 11.2246 78.3242 11.2246C79.2105 11.2246 79.9517 11.4896 80.5268 12.0128C81.1043 12.5379 81.4095 13.2732 81.4329 14.1984C81.4341 14.2389 81.4185 14.2781 81.3897 14.3067ZM84.03 9.99866C82.6981 8.64878 80.835 7.96436 78.4921 7.96436C76.9348 7.96436 75.5286 8.2886 74.3125 8.92808C73.1012 9.56588 72.1436 10.5031 71.4678 11.713C70.789 12.9267 70.4447 14.3799 70.4447 16.032C70.4447 17.6178 70.7997 19.025 71.4995 20.2149C72.1981 21.4046 73.2008 22.3422 74.4798 23.0019C75.7625 23.664 77.2712 23.9998 78.9629 23.9998C81.0989 23.9998 83.1173 23.4703 84.9606 22.4259C85.0866 22.3539 85.1358 22.1931 85.0704 22.0597L83.6054 19.0528C83.57 18.9813 83.5095 18.9293 83.4339 18.9059C83.359 18.8832 83.2798 18.8916 83.2127 18.93C82.7185 19.2103 82.1537 19.4637 81.5342 19.6827C80.7379 19.9647 79.8947 20.1076 79.03 20.1076C77.9291 20.1076 77.0026 19.8639 76.2746 19.3838C75.5364 18.8958 75.0789 18.1574 74.9158 17.1876C74.9086 17.1444 74.9212 17.0999 74.9494 17.0664C74.9782 17.0326 75.0201 17.0133 75.0651 17.0133H85.7516C85.9087 17.0133 86.0358 16.8868 86.0358 16.7316V16.032C86.0358 13.3797 85.3612 11.3499 84.03 9.99866Z" fill="#1E1E1E"/>
<path d="M98.6802 18.616C97.9798 19.3045 97.0707 19.6534 95.9764 19.6534C94.9054 19.6534 94.0071 19.3045 93.3067 18.616C92.6051 17.9274 92.2495 17.0011 92.2495 15.8629C92.2495 14.7253 92.6051 13.7992 93.3067 13.1098C94.0077 12.4212 94.906 12.0724 95.9764 12.0724C97.0689 12.0724 97.9792 12.4212 98.6802 13.1098C99.3818 13.7992 99.7374 14.7253 99.7374 15.8629C99.7374 17.0011 99.3818 17.9274 98.6802 18.616ZM104.674 0.212402H100.449C100.293 0.212402 100.169 0.333871 100.163 0.488856L99.8723 10.207C99.8699 10.2889 99.8022 10.3543 99.7206 10.3543H99.6535C99.6001 10.3543 99.5515 10.327 99.5233 10.2819C98.4793 8.58606 96.8087 7.72596 94.5594 7.72596C93.2215 7.72596 91.9868 8.04252 90.8913 8.66652C89.7981 9.28884 88.922 10.2205 88.2858 11.4351C87.6489 12.6533 87.3257 14.1431 87.3257 15.8629C87.3257 17.5828 87.6489 19.0727 88.2858 20.2908C88.922 21.5053 89.7981 22.4369 90.8913 23.0594C91.9874 23.6834 93.2215 24 94.5594 24C96.8087 24 98.4793 23.1399 99.5233 21.444C99.5515 21.399 99.6001 21.3716 99.6535 21.3716H99.7206C99.8046 21.3716 99.8723 21.4396 99.8723 21.5234V23.2091C99.8723 23.3664 100.001 23.4945 100.158 23.4945H104.382C104.537 23.4945 104.665 23.3683 104.667 23.2125L104.96 0.501024C104.961 0.424172 104.931 0.352017 104.877 0.297153C104.823 0.242717 104.751 0.212402 104.674 0.212402Z" fill="#1E1E1E"/>
</g>
</g>
</g>
<defs>
<clipPath id="clip0_326_3426">
<rect width="105" height="24" fill="white"/>
</clipPath>
</defs>
</svg>
