<svg width="121" height="47" viewBox="0 0 121 47" fill="none" xmlns="http://www.w3.org/2000/svg">
<g clip-path="url(#clip0_359_1727)">
<path d="M0.174474 12.5722C0.429276 11.6914 0.880259 10.8797 1.49357 10.198C2.10689 9.51629 2.86661 8.98235 3.71575 8.63622C4.11718 8.49239 4.54288 8.42847 4.96885 8.44803C8.44433 8.44114 19.1626 8.43922 37.1238 8.44229C37.1505 8.43885 37.1778 8.44164 37.2033 8.45044C37.2288 8.45923 37.252 8.47379 37.271 8.493C37.29 8.51221 37.3043 8.53554 37.3128 8.56118C37.3213 8.58681 37.3237 8.61407 37.32 8.64081V15.6878C37.3201 15.71 37.3159 15.7321 37.3075 15.7527C37.2991 15.7733 37.2867 15.792 37.271 15.8078C37.2553 15.8236 37.2366 15.8361 37.2161 15.8447C37.1956 15.8532 37.1735 15.8576 37.1513 15.8576C25.7525 15.8576 16.7433 15.8576 10.1235 15.8576C9.44268 15.8576 9.12826 16.1636 9.18028 16.7756C9.21241 17.1467 9.22847 17.3379 9.22847 17.3494C9.23383 18.2927 9.23575 19.2237 9.23422 20.1425C9.23455 20.2256 9.25746 20.3071 9.30051 20.3783C9.34356 20.4494 9.40513 20.5075 9.47864 20.5464C9.85852 20.686 10.2679 20.7255 10.6675 20.6612C19.5654 20.6222 26.5577 20.6336 31.6443 20.6956C32.013 20.6994 32.3026 20.7082 32.513 20.722C33.5844 20.8011 34.6038 21.2147 35.4274 21.9045C36.2511 22.5943 36.8372 23.5253 37.1031 24.5662C37.2587 25.2043 37.3267 25.8606 37.3051 26.517C37.3104 30.9885 37.3104 34.1416 37.3051 35.9761C37.2727 36.4345 37.1345 36.8792 36.9011 37.2751C36.3066 38.421 35.3761 39.3579 34.2343 39.9603C33.7395 40.2011 33.1924 40.3147 32.6426 40.2908C23.5695 40.2908 12.7284 40.2908 0.119397 40.2908C0.10474 40.2929 0.0897877 40.2916 0.0757361 40.2869C0.0616845 40.2822 0.0489198 40.2743 0.0384488 40.2639C0.0279777 40.2534 0.0200877 40.2406 0.0154145 40.2266C0.0107413 40.2125 0.00941303 40.1976 0.0115273 40.1829V33.16C0.0113763 33.1242 0.018288 33.0886 0.0318738 33.0554C0.0454596 33.0223 0.0654528 32.9921 0.090707 32.9666C0.115961 32.9411 0.145984 32.9209 0.179062 32.907C0.21214 32.8932 0.247625 32.8859 0.283491 32.8858H27.6291C27.7023 32.8859 27.7749 32.8717 27.8426 32.8438C27.9103 32.8159 27.9719 32.7749 28.0238 32.7233C28.0757 32.6716 28.1169 32.6102 28.1451 32.5426C28.1732 32.475 28.1878 32.4025 28.1879 32.3292V28.8109C28.1878 28.7151 28.1688 28.6202 28.1319 28.5317C28.0951 28.4432 28.0412 28.3629 27.9734 28.2952C27.9055 28.2275 27.825 28.1739 27.7363 28.1374C27.6477 28.1008 27.5528 28.0821 27.457 28.0822C18.3211 28.0822 11.0286 28.0757 5.57933 28.0627C4.51641 28.1144 3.46409 27.831 2.57077 27.2527C1.67745 26.6744 0.988203 25.8302 0.60021 24.8393C0.454474 24.5169 0.333987 23.9213 0.148087 23.4944C0.0691122 23.3239 0.0250166 23.1394 0.0184087 22.9516C0.00769841 20.066 0.00769841 16.6693 0.0184087 12.7616C0.018149 12.7399 0.0240539 12.7186 0.0354283 12.7001C0.0468027 12.6816 0.0631801 12.6667 0.08267 12.6572L0.136609 12.6273C0.155705 12.6144 0.169222 12.5947 0.174474 12.5722Z" fill="#26303F"/>
<path d="M111.577 32.755C111.624 32.7337 111.664 32.6994 111.692 32.656C111.72 32.6127 111.735 32.5622 111.735 32.5106V28.7765C111.735 28.5939 111.662 28.4188 111.533 28.2897C111.404 28.1606 111.229 28.088 111.046 28.088C104.796 28.0811 97.6177 28.0792 89.5108 28.0823C89.1091 28.0793 88.708 28.0532 88.3093 28.0043C87.3471 27.9098 86.4327 27.5393 85.6762 26.9373C84.9196 26.3352 84.3532 25.5274 84.0451 24.611C83.7676 23.6347 83.6533 22.6192 83.7066 21.6056C83.7173 20.976 83.7173 19.2096 83.7066 16.3063C83.7061 16.2755 83.7118 16.2448 83.7235 16.2162C83.7351 16.1877 83.7524 16.1617 83.7743 16.14L91.2757 8.64086C91.3358 8.58032 91.4073 8.53224 91.4861 8.49936C91.5649 8.46648 91.6493 8.44944 91.7347 8.44922H120.838C120.881 8.44922 120.922 8.46615 120.952 8.49628C120.982 8.52641 120.999 8.56726 120.999 8.60987V15.8072C120.999 15.8147 120.998 15.8222 120.995 15.8292C120.992 15.8362 120.988 15.8427 120.983 15.8481C120.978 15.8535 120.971 15.8579 120.965 15.8609C120.958 15.8639 120.95 15.8655 120.943 15.8657H93.4525C93.2626 15.8657 93.0804 15.9409 92.9458 16.0749C92.8112 16.2088 92.7351 16.3907 92.7342 16.5806C92.7288 17.3877 92.7288 18.5295 92.7342 20.006C92.719 20.1282 92.7463 20.2518 92.8115 20.3563C92.8767 20.4608 92.9758 20.5396 93.0922 20.5797C93.5015 20.683 93.9262 20.7102 94.3453 20.6601C101.243 20.6601 108.14 20.6601 115.036 20.6601C115.284 20.6601 115.662 20.6861 116.171 20.7381C117.16 20.8363 118.1 21.2204 118.874 21.8436C119.648 22.4667 120.224 23.302 120.532 24.2472C120.781 25.3946 120.879 26.5698 120.822 27.7426C120.813 31.2105 120.818 33.8911 120.836 35.7845C120.852 37.5643 119.006 39.3981 117.508 40.0808C117.143 40.2263 116.753 40.2965 116.361 40.2874C114.268 40.3126 109.474 40.3012 101.98 40.253H101.429C91.4019 40.253 85.5235 40.253 83.7938 40.253C83.774 40.253 83.755 40.2451 83.741 40.2311C83.7271 40.2171 83.7192 40.1982 83.7192 40.1784V32.9891C83.7192 32.9699 83.7268 32.9516 83.7404 32.938C83.7539 32.9244 83.7723 32.9168 83.7915 32.9168C86.6289 32.926 95.6485 32.9233 110.85 32.9088C111.1 32.9087 111.348 32.8563 111.577 32.755Z" fill="#26303F"/>
<path d="M60.6457 20.8139L81.5468 0.080311C81.5803 0.0477787 81.6226 0.0256879 81.6684 0.0167239C81.7142 0.00775982 81.7617 0.012306 81.805 0.0298169C81.8481 0.0467138 81.8851 0.0762503 81.9111 0.114547C81.9371 0.152844 81.9509 0.198111 81.9507 0.244405V11.3066C81.9506 11.3401 81.9438 11.3733 81.9308 11.4042C81.9178 11.4351 81.8988 11.4632 81.875 11.4867L60.6159 32.5749C60.6084 32.5825 60.5995 32.5886 60.5896 32.5927C60.5798 32.5969 60.5692 32.599 60.5585 32.599C60.5478 32.599 60.5373 32.5969 60.5274 32.5927C60.5176 32.5886 60.5086 32.5825 60.5011 32.5749C52.6597 24.8558 48.4904 20.758 47.9931 20.2814C47.9244 20.2082 47.84 20.1513 47.7463 20.115C47.7223 20.1079 47.6969 20.1065 47.6722 20.1109C47.6475 20.1152 47.6242 20.1253 47.6041 20.1403C47.584 20.1551 47.5677 20.1745 47.5565 20.1968C47.5453 20.2191 47.5396 20.2438 47.5398 20.2688V39.9259C47.5431 39.9496 47.5408 39.9736 47.5332 39.9962C47.5255 40.0188 47.5128 40.0393 47.4958 40.0561C47.4789 40.0729 47.4583 40.0856 47.4357 40.0931C47.413 40.1005 47.389 40.1026 47.3654 40.0992H39.2707C39.2316 40.0992 39.1941 40.0838 39.1664 40.0563C39.1387 40.0288 39.123 39.9914 39.1227 39.9523V0.28916C39.1225 0.231839 39.1395 0.175775 39.1714 0.128144C39.2032 0.0805126 39.2486 0.0434793 39.3017 0.0217842C39.355 -0.00033334 39.4136 -0.00614237 39.4702 0.0050929C39.5268 0.0163282 39.5788 0.0441028 39.6195 0.0848986L60.5172 20.815C60.5256 20.8235 60.5356 20.8302 60.5467 20.8348C60.5577 20.8394 60.5695 20.8417 60.5814 20.8417C60.5934 20.8417 60.6052 20.8394 60.6163 20.8348C60.6273 20.8302 60.6373 20.8223 60.6457 20.8139Z" fill="#1D4671"/>
<path d="M81.7488 46.9798H73.7562C73.7282 46.9798 73.7014 46.9687 73.6816 46.9489C73.6618 46.9291 73.6506 46.9022 73.6506 46.8742V26.4092C73.6506 26.3951 73.6535 26.3811 73.659 26.3681C73.6645 26.3551 73.6726 26.3433 73.6827 26.3335L81.6753 18.3409C81.6903 18.3267 81.7092 18.3171 81.7296 18.3134C81.75 18.3097 81.771 18.312 81.7901 18.32C81.8092 18.328 81.8256 18.3414 81.8372 18.3586C81.8488 18.3758 81.8551 18.396 81.8555 18.4167V46.8754C81.8553 46.8893 81.8524 46.903 81.847 46.9157C81.8415 46.9285 81.8336 46.94 81.8237 46.9497C81.8138 46.9594 81.8021 46.9671 81.7892 46.9722C81.7764 46.9774 81.7626 46.98 81.7488 46.9798Z" fill="#1D4671"/>
</g>
<defs>
<clipPath id="clip0_359_1727">
<rect width="121" height="46.9798" fill="white"/>
</clipPath>
</defs>
</svg>
