<svg width="137" height="33" viewBox="0 0 137 33" fill="none" xmlns="http://www.w3.org/2000/svg">
<path d="M25.7986 27.6405C21.3917 28.805 13.24 28.257 10.1117 22.7769C9.60937 21.8863 9.28969 20.8816 9.17552 19.8541C9.01568 18.5526 9.19836 17.2282 9.67787 15.9952C8.37633 16.7715 6.36694 20.2423 8.39917 24.0327C9.4952 26.0878 11.1164 27.709 13.0116 28.942C11.9841 29.3074 10.8881 29.5129 9.79204 29.5357C5.31658 29.6042 3.85521 26.3618 4.99691 22.206C6.18427 17.8219 10.7511 11.0174 17.0532 11.063C18.0808 11.063 19.1083 11.2914 20.0445 11.7024C21.2547 12.2276 22.3279 13.0268 23.1271 14.0771C23.1042 12.5701 21.1177 9.09933 16.8021 8.96232C14.473 8.89382 12.2581 9.46467 10.2487 10.4922C10.4542 9.419 10.8196 8.36864 11.3447 7.40961C13.514 3.48218 17.0761 3.87035 20.0901 6.90727C23.2869 10.1497 26.8947 17.4794 23.7207 22.9367C23.1956 23.8272 22.5105 24.6036 21.6657 25.2201C20.6153 26.0193 19.3823 26.5216 18.0808 26.7043C19.4051 27.4578 23.4011 27.4578 25.6845 23.7816C26.9175 21.8178 27.5112 19.6029 27.6482 17.3424C28.493 18.0502 29.2009 18.8951 29.7717 19.8313C32.0551 23.6674 29.9544 26.5673 25.7986 27.6405ZM32.8315 20.4478C31.5528 18.3471 29.7032 16.7259 27.6482 15.744C27.4427 10.8119 25.1593 5.87974 22.2365 2.93416C18.1949 -1.17595 13.4226 -1.22162 10.3401 4.41837C9.17552 6.56476 8.67317 8.98516 8.85584 11.2686C4.70007 13.8945 1.57181 18.3471 0.452951 22.3659C-1.07692 27.9145 1.25214 32.0931 7.69131 31.9104C10.1574 31.8419 12.4864 31.0656 14.3588 29.7641C18.7201 32.0474 24.1318 32.527 28.1734 31.4994C33.7449 30.0381 36.1881 25.9508 32.8315 20.4478Z" fill="#99C027"/>
<path d="M17.1446 14.1228C16.8249 14.1228 16.5052 14.1228 16.1855 14.1913C13.5596 14.6251 11.7786 17.0912 12.2124 19.7171C12.6463 22.343 15.1123 24.1012 17.7382 23.6674C20.3641 23.2335 22.1224 20.7675 21.7113 18.1416C21.3232 15.8582 19.3823 14.2141 17.1446 14.1228ZM15.8202 16.566C16.7792 16.566 17.2359 17.7077 16.5737 18.3927C15.9115 19.0549 14.747 18.5983 14.747 17.6392C14.7698 17.0227 15.2265 16.566 15.8202 16.566Z" fill="#1A171B"/>
<path d="M41.8509 16.9085C41.6911 17.5022 41.4627 18.3927 41.4627 18.7124C41.4627 19.6258 42.3076 19.6258 42.4674 19.6258C42.8784 19.6258 43.2438 19.5116 43.495 19.1919C43.769 18.8266 43.9745 17.8904 43.9745 17.5022C43.9745 17.0227 43.769 16.7715 43.2438 16.3149C42.9698 16.0865 42.8328 15.9952 41.9194 15.3102C40.3667 14.1456 39.8644 13.7803 39.8644 12.4559C39.8644 11.3827 40.5266 9.419 41.1202 8.64265C41.4856 8.18597 42.0564 7.45528 44.5453 7.45528C47.0799 7.45528 48.7696 8.0718 48.7696 10.0812C48.7696 10.6292 48.6326 11.2457 48.4043 12.1591H45.1847C45.276 11.7481 45.4815 10.9717 45.4815 10.652C45.4815 9.98985 44.9335 9.85285 44.591 9.85285C43.9516 9.85285 43.7233 10.2182 43.6548 10.3324C43.3808 10.7205 43.2438 11.6111 43.2438 11.8851C43.2438 12.5244 43.4721 12.6843 44.6367 13.5519C47.1941 15.4928 47.5137 15.9038 47.5137 17.0684C47.5137 17.3424 47.4681 17.6164 47.4224 17.9132C46.9201 20.699 45.8469 22.0005 42.4446 22.0005C40.6179 22.0005 38.0605 21.658 38.0605 19.2604C38.0605 18.5526 38.2888 17.7306 38.4715 16.9314H41.8509V16.9085ZM55.3458 10.8347C53.8616 10.8347 53.1537 11.7252 52.6057 12.4331L52.9711 11.063H49.7286L46.4862 25.1744H49.7058L50.8247 20.3336C50.8703 20.1738 50.8475 20.4478 50.8932 20.562C51.1443 21.4297 51.9892 22.0233 53.1994 22.0233C54.9348 22.0233 55.8253 20.8816 56.3048 18.8038L57.3323 14.3055C57.4237 13.8488 57.4922 13.4378 57.4922 13.0268C57.4922 11.5654 56.556 10.8347 55.3458 10.8347ZM53.4049 12.8669C53.8844 12.8669 54.2269 13.1409 54.2269 13.689C54.2269 13.9173 54.1584 14.237 54.0671 14.5795L53.1081 18.7353C52.9254 19.5344 52.56 19.877 52.012 19.877C51.6239 19.877 51.1672 19.6486 51.1672 19.0321C51.1672 18.8266 51.2357 18.4841 51.2813 18.2329L52.286 13.826C52.3774 13.4606 52.6057 12.8669 53.4049 12.8669ZM62.3786 18.3242C62.1503 19.2376 62.0361 19.8541 61.1456 19.8541C60.7346 19.8541 60.4149 19.6943 60.2779 19.4659C60.2323 19.3518 60.2323 19.2604 60.2323 19.1463C60.2323 18.6896 60.4378 17.7991 60.5976 17.1825H65.6896C65.8951 16.292 66.0549 15.5613 66.2147 14.785C66.3061 14.3283 66.3974 13.8716 66.3974 13.4378C66.3974 11.063 63.9085 10.8347 62.6298 10.8347C59.7299 10.8347 58.885 12.1819 58.5197 13.0496C58.1772 13.8488 57.1725 17.7762 57.1725 19.1919C57.1725 20.3336 57.5835 20.8816 58.0402 21.247C58.9764 21.9777 60.4606 22.069 61.0086 22.069C62.881 22.069 63.9314 21.521 64.5707 20.7903C65.2329 20.0825 65.4384 19.1463 65.6439 18.3471H62.3786V18.3242ZM60.9858 15.2188C61.2826 13.6661 61.4196 12.9354 62.4015 12.9354C62.607 12.9354 62.9495 12.9811 63.155 13.2094C63.2692 13.3464 63.3148 13.5519 63.3148 13.7575C63.3148 14.0315 63.1093 14.8763 63.0408 15.2188H60.9858ZM74.709 18.0502C74.5035 18.9636 74.298 19.8998 73.7043 20.6761C72.8823 21.7037 71.5122 22.0233 70.1879 22.0233C69.2745 22.0233 66.3061 21.8178 66.3061 19.1691C66.3061 17.7762 67.4934 13.5519 67.5163 13.4378C68.3383 10.9945 70.3705 10.8119 71.8547 10.8119C74.1381 10.8119 75.5538 11.8166 75.5538 13.5291C75.5538 14.0543 75.4397 14.5566 75.3027 15.0362H72.2429C72.3799 14.4881 72.5169 13.9858 72.5169 13.6661C72.5169 13.2551 72.2429 12.9583 71.7177 12.9583C70.85 12.9583 70.5989 13.5976 70.4162 14.3511L69.4115 18.6211C69.3887 18.7581 69.3658 18.8723 69.3658 19.0093C69.3658 19.3061 69.4343 19.4431 69.48 19.4888C69.617 19.7171 69.891 19.8541 70.2107 19.8541C71.1012 19.8541 71.261 19.1463 71.5122 18.0502H74.709ZM77.1979 11.0859H80.3718L77.8829 21.7722H74.7318L77.1979 11.0859ZM81.1482 7.68362L80.6001 10.0812H77.4262L77.9742 7.68362H81.1482ZM88.8204 14.4196C88.9117 14.0086 89.003 13.6205 89.003 13.2094C89.003 11.3371 87.1078 10.8804 85.2811 10.8804C84.1622 10.8804 83.1575 11.063 82.404 11.4284C81.4222 11.9307 81.1938 12.5473 80.7371 14.3968H83.7741C84.0709 13.3236 84.2307 12.8441 85.1213 12.8441C85.4638 12.8441 85.9889 12.8898 85.9889 13.4378C85.9889 13.5976 85.8519 14.2826 85.7378 14.6936C82.0158 15.7668 81.0568 16.0408 80.3946 16.7944C79.7324 17.5479 79.3214 19.4203 79.3214 20.0825C79.3214 22.0233 81.2167 22.0233 81.445 22.0233C82.7009 22.0233 83.5914 21.247 84.3221 20.6305L84.0481 21.7493H87.6787C87.5188 21.5895 87.3818 21.4982 87.3818 21.0186C87.3818 20.8588 87.4275 20.699 87.4275 20.5391L88.8204 14.4196ZM84.6189 19.3289C84.2764 19.6258 83.8654 19.9683 83.2945 19.9683C82.7465 19.9683 82.5867 19.6714 82.5867 19.3061C82.5867 19.1006 82.7237 17.9589 83.2489 17.5479C83.637 17.251 84.5504 16.977 85.2583 16.7487L84.6189 19.3289ZM91.3321 7.68362H94.5288L91.2864 21.7493H88.0897L91.3321 7.68362Z" fill="#1A171B"/>
<path d="M103.914 13.0268H100.648L101.036 11.3827C101.082 11.2457 101.105 11.0859 101.105 10.926C101.105 10.1269 100.511 10.0355 100.055 10.0355C99.2326 10.0355 99.0728 10.4465 98.9129 10.8804L97.2461 18.0959C97.2004 18.3471 97.1319 18.5983 97.1319 18.8266C97.1319 19.5116 97.8169 19.6029 98.1138 19.6029C98.9814 19.6029 99.2098 19.0093 99.3011 18.7353C99.5523 18.0502 99.7121 17.251 99.872 16.4747H103.366L102.863 18.5069C102.247 21.0415 101.379 22.069 97.9082 22.069C97.0177 22.069 96.1957 21.9777 95.4878 21.7037C94.78 21.4297 93.6611 20.7218 93.6611 19.2833C93.6611 19.0549 93.6611 18.6211 93.9808 17.2967L95.328 11.3827C95.7619 9.44184 96.3099 8.73399 96.9035 8.30014C97.8397 7.59229 99.4153 7.47812 100.283 7.47812C101.151 7.47812 102.224 7.59229 102.909 7.88913C103.594 8.18597 104.416 8.80248 104.416 10.3095C104.416 10.6064 104.37 10.9489 104.302 11.3142L103.914 13.0268ZM109.485 7.68362L108.412 12.2961C108.891 11.7252 109.645 10.9032 111.015 10.9032C112.111 10.9032 113.207 11.4284 113.207 12.9126C113.207 13.2094 113.138 13.5291 113.093 13.826L111.266 21.7493H108.115L109.85 14.237C109.896 14.0771 109.919 13.9173 109.919 13.7575C109.919 13.1638 109.508 12.9126 109.074 12.9126C108.275 12.9126 108.115 13.5519 108.047 13.8945L106.243 21.7493H103.069L106.311 7.68362H109.485ZM118.162 18.3242C117.934 19.2376 117.819 19.8541 116.929 19.8541C116.518 19.8541 116.198 19.6943 116.061 19.4659C116.016 19.3518 115.993 19.2604 115.993 19.1463C115.993 18.6896 116.198 17.7991 116.358 17.1825H121.45C121.656 16.292 121.815 15.5613 121.975 14.785C122.067 14.3283 122.158 13.8716 122.158 13.4378C122.158 11.063 119.669 10.8347 118.39 10.8347C115.49 10.8347 114.646 12.1819 114.28 13.0496C113.938 13.8488 112.933 17.7762 112.933 19.1919C112.933 20.3336 113.344 20.8816 113.801 21.247C114.737 21.9777 116.244 22.069 116.769 22.069C118.641 22.069 119.692 21.521 120.331 20.7903C120.993 20.0825 121.199 19.1463 121.404 18.3471H118.162V18.3242ZM116.792 15.2188C117.089 13.6661 117.226 12.9354 118.208 12.9354C118.413 12.9354 118.756 12.9811 118.961 13.2094C119.075 13.3464 119.121 13.5519 119.121 13.7575C119.121 14.0315 118.915 14.8763 118.847 15.2188H116.792ZM126.793 12.2961C127.775 10.9489 129.282 10.8347 129.67 10.8347C130.401 10.8347 131.543 11.1316 131.68 12.3189C132.456 11.3371 133.552 10.8119 134.808 10.8119C135.584 10.8119 137 11.0859 137 12.6386C137 12.9583 136.954 13.2551 136.886 13.5519L134.991 21.7493H131.771L133.529 14.1685C133.552 14.0315 133.575 13.9173 133.575 13.7575C133.575 13.3464 133.347 12.9126 132.753 12.9126C131.885 12.9126 131.68 13.7575 131.588 14.1228L129.83 21.7265H126.588L128.369 14.0315C128.414 13.9173 128.437 13.7803 128.437 13.6661C128.437 13.1638 128.095 12.8441 127.592 12.8441C126.93 12.8441 126.565 13.3236 126.405 14.0086L124.624 21.7265H121.427L123.87 11.0402H127.09L126.793 12.2961Z" fill="#99C027"/>
<path d="M40.9147 25.8594C40.9147 25.8823 40.9147 25.9051 40.9147 25.9279C40.9147 25.9508 40.9147 25.9736 40.8919 26.0193C40.8919 26.0421 40.8691 26.0878 40.8691 26.1106C40.8691 26.1335 40.8462 26.1791 40.8234 26.202C40.8006 26.2248 40.8006 26.2476 40.7777 26.2705C40.7549 26.2933 40.7321 26.2933 40.7092 26.2933H39.3392L38.4715 30.5404C38.4715 30.5632 38.4487 30.5861 38.4487 30.5861C38.4258 30.6089 38.403 30.6089 38.3802 30.6317C38.3345 30.6317 38.3117 30.6546 38.266 30.6546C38.2203 30.6546 38.1747 30.6774 38.1062 30.6774C38.0377 30.6774 37.992 30.6774 37.9463 30.6546C37.9007 30.6546 37.8778 30.6546 37.855 30.6317C37.8322 30.6089 37.8093 30.6089 37.8093 30.5861C37.8093 30.5632 37.8093 30.5632 37.8093 30.5404L38.6542 26.2705H37.2841C37.2613 26.2705 37.2156 26.2705 37.2156 26.2248C37.1928 26.202 37.1928 26.1563 37.1928 26.1335C37.1928 26.1106 37.1928 26.0878 37.1928 26.065C37.1928 26.0421 37.1928 25.9965 37.2156 25.9736C37.2156 25.9508 37.2385 25.9051 37.2385 25.8823C37.2385 25.8594 37.2613 25.8138 37.2841 25.7909C37.2841 25.7681 37.307 25.7453 37.3298 25.7224C37.3526 25.6996 37.3755 25.6996 37.3983 25.6996H40.8234C40.8462 25.6996 40.8691 25.7224 40.8919 25.7453C40.8919 25.7909 40.9147 25.8138 40.9147 25.8594ZM43.4721 30.5404C43.4721 30.5632 43.4493 30.5861 43.4493 30.5861C43.4265 30.6089 43.4036 30.6089 43.3808 30.6089C43.358 30.6317 43.3123 30.6317 43.2895 30.6317C43.2438 30.6317 43.1981 30.6317 43.1296 30.6317C43.084 30.6317 43.0383 30.6317 42.9698 30.6317C42.947 30.6317 42.9013 30.6089 42.8785 30.6089C42.8556 30.6089 42.8556 30.5861 42.8328 30.5861C42.8328 30.5632 42.8328 30.5404 42.8328 30.5404L43.2438 28.4397C43.2666 28.3712 43.2666 28.3027 43.2666 28.2113C43.2666 28.1428 43.2895 28.0743 43.2895 28.0058C43.2895 27.9373 43.2895 27.8688 43.2666 27.8003C43.2438 27.7318 43.221 27.6862 43.1981 27.6405C43.1525 27.5948 43.1068 27.5492 43.0611 27.5263C42.9926 27.5035 42.9241 27.4807 42.8556 27.4807C42.7186 27.4807 42.5816 27.5263 42.4446 27.5948C42.2848 27.6862 42.1706 27.8003 42.0564 27.9145C41.9423 28.0515 41.8281 28.2113 41.7368 28.394C41.6454 28.5767 41.5769 28.7822 41.5313 28.9877L41.2344 30.4947C41.2344 30.5176 41.2116 30.5404 41.2116 30.5404C41.1888 30.5632 41.1659 30.5632 41.1659 30.5632C41.1431 30.5861 41.0974 30.5861 41.0517 30.5861C41.0061 30.5861 40.9604 30.5861 40.8919 30.5861C40.8234 30.5861 40.7777 30.5861 40.7321 30.5861C40.7092 30.5861 40.6636 30.5632 40.6407 30.5632C40.6179 30.5632 40.6179 30.5404 40.5951 30.5404C40.5951 30.5176 40.5951 30.4947 40.5951 30.4947L41.5998 25.4256C41.5998 25.4028 41.6226 25.3799 41.6226 25.3799C41.6454 25.3571 41.6454 25.3571 41.6683 25.3343C41.6911 25.3343 41.7368 25.3114 41.7824 25.3114C41.8738 25.3114 41.9879 25.3114 42.0793 25.3114C42.1249 25.3114 42.1478 25.3343 42.1706 25.3343C42.1934 25.3343 42.2163 25.3571 42.2163 25.3799C42.2163 25.4028 42.2163 25.4256 42.2163 25.4256L41.9194 26.9783C41.8966 27.0468 41.8966 27.1153 41.8738 27.1838C41.8509 27.2523 41.8281 27.3208 41.8281 27.3893C41.8053 27.4578 41.7824 27.5263 41.7596 27.572C41.7368 27.6405 41.7139 27.6862 41.7139 27.7318C41.7596 27.6405 41.8281 27.5492 41.8966 27.4578C41.9879 27.3665 42.0793 27.2751 42.1934 27.2066C42.3076 27.1153 42.4446 27.0696 42.5816 27.0011C42.7186 26.9555 42.8785 26.9326 43.0155 26.9326C43.1753 26.9326 43.3123 26.9555 43.4265 27.0011C43.5406 27.0468 43.632 27.1153 43.7005 27.2066C43.769 27.298 43.8375 27.3893 43.8603 27.5035C43.8832 27.6177 43.906 27.7318 43.906 27.8688C43.906 27.9602 43.906 28.0515 43.8832 28.1428C43.8832 28.2342 43.8603 28.3255 43.8375 28.4169L43.4721 30.5404ZM47.8791 27.8232C47.8791 28.0058 47.8334 28.1657 47.7649 28.3027C47.6736 28.4397 47.5594 28.5538 47.3768 28.668C47.1941 28.7594 46.9886 28.8507 46.7146 28.8964C46.4406 28.942 46.1209 28.9649 45.7555 28.9649H45.3445C45.3217 29.0562 45.3217 29.1247 45.2989 29.216C45.2989 29.2845 45.2989 29.353 45.2989 29.4444C45.2989 29.6956 45.3674 29.9011 45.4815 30.0152C45.6185 30.1522 45.8012 30.2207 46.0981 30.2207C46.2579 30.2207 46.3949 30.2207 46.5319 30.1979C46.6689 30.1751 46.7831 30.1522 46.8744 30.1066C46.9657 30.0837 47.0571 30.0609 47.1027 30.0381C47.1484 30.0152 47.1941 30.0152 47.2397 29.9924C47.2626 29.9924 47.2854 29.9924 47.2854 30.0152C47.3082 30.0381 47.3082 30.0609 47.3082 30.0837C47.3082 30.1522 47.2854 30.2207 47.2854 30.2892C47.2854 30.3121 47.2626 30.3577 47.2397 30.3806C47.2397 30.4034 47.2169 30.4491 47.1941 30.4719C47.1712 30.4947 47.1027 30.5404 47.0342 30.5632C46.9657 30.5861 46.8744 30.6089 46.7602 30.6317C46.6461 30.6546 46.5319 30.6774 46.4177 30.7002C46.2807 30.7231 46.1666 30.7231 46.0295 30.7231C45.824 30.7231 45.6185 30.7002 45.4359 30.6546C45.276 30.6089 45.139 30.5404 45.002 30.4262C44.8879 30.3121 44.7965 30.1751 44.7508 30.0381C44.7052 29.8782 44.6595 29.6955 44.6595 29.49C44.6595 29.3302 44.6823 29.1475 44.7052 28.9649C44.728 28.7822 44.7965 28.5767 44.865 28.394C44.9335 28.2113 45.0249 28.0287 45.139 27.8688C45.2532 27.709 45.3674 27.5492 45.5272 27.4122C45.687 27.2751 45.8469 27.1838 46.0524 27.0925C46.2579 27.0011 46.4862 26.9783 46.7146 26.9783C46.9201 26.9783 47.1027 27.0011 47.2626 27.0696C47.4224 27.1153 47.5366 27.1838 47.6279 27.2752C47.7193 27.3665 47.7878 27.4578 47.8334 27.5492C47.8563 27.6177 47.8791 27.709 47.8791 27.8232ZM47.2397 27.8688C47.2397 27.7547 47.1941 27.6405 47.0799 27.5492C46.9657 27.4807 46.8287 27.435 46.6461 27.435C46.4862 27.435 46.3492 27.4578 46.2122 27.5263C46.0752 27.572 45.961 27.6633 45.8697 27.7547C45.7784 27.846 45.687 27.9602 45.6185 28.0972C45.55 28.2342 45.4815 28.3712 45.4587 28.5082H45.8469C46.1209 28.5082 46.3264 28.4853 46.5091 28.4625C46.6917 28.4168 46.8287 28.394 46.9429 28.3255C47.0571 28.2798 47.1256 28.2113 47.1712 28.12C47.2169 28.0515 47.2397 27.9602 47.2397 27.8688ZM55.0946 30.5404C55.0946 30.5632 55.0718 30.5861 55.0718 30.5861C55.049 30.6089 55.0261 30.6089 55.0033 30.6089C54.9805 30.6317 54.9348 30.6317 54.8891 30.6317C54.8435 30.6317 54.7978 30.6317 54.7293 30.6317C54.6836 30.6317 54.6379 30.6317 54.5694 30.6317C54.5466 30.6317 54.5009 30.6089 54.4781 30.6089C54.4553 30.6089 54.4553 30.5861 54.4324 30.5861C54.4324 30.5632 54.4324 30.5404 54.4324 30.5404L54.8435 28.4397C54.8663 28.3712 54.8663 28.3027 54.8663 28.2342C54.8891 28.1657 54.8891 28.0972 54.8891 28.0287C54.8891 27.8688 54.8663 27.7318 54.7978 27.6405C54.7293 27.5492 54.6379 27.5035 54.4781 27.5035C54.3639 27.5035 54.2269 27.5492 54.0899 27.6177C53.9529 27.709 53.8159 27.8003 53.7018 27.9373C53.5876 28.0743 53.4734 28.2342 53.3821 28.4169C53.2907 28.5995 53.2222 28.805 53.1766 29.0105L52.8797 30.5404C52.8797 30.5632 52.8569 30.5861 52.8569 30.5861C52.8341 30.6089 52.8112 30.6089 52.7884 30.6089C52.7427 30.6317 52.7199 30.6317 52.6742 30.6317C52.6286 30.6317 52.5829 30.6317 52.5144 30.6317C52.4459 30.6317 52.4002 30.6317 52.3546 30.6317C52.3317 30.6317 52.286 30.6089 52.2632 30.6089C52.2404 30.6089 52.2404 30.5861 52.2175 30.5861C52.2175 30.5632 52.1947 30.5404 52.2175 30.5404L52.6514 28.4397C52.6742 28.3712 52.6742 28.2798 52.6742 28.2113C52.6742 28.1428 52.6742 28.0743 52.6971 28.0058C52.6971 27.846 52.6742 27.7318 52.6057 27.6405C52.5372 27.5492 52.4231 27.5035 52.2861 27.5035C52.149 27.5035 52.0349 27.5492 51.8979 27.6177C51.7609 27.709 51.6239 27.8003 51.5097 27.9373C51.3727 28.0743 51.2814 28.2342 51.19 28.4169C51.0987 28.5995 51.0302 28.805 50.9845 29.0105L50.7105 30.5404C50.7105 30.5632 50.7105 30.5861 50.6877 30.5861C50.6648 30.6089 50.642 30.6089 50.642 30.6317C50.6192 30.6317 50.5735 30.6546 50.5507 30.6546C50.505 30.6546 50.4365 30.6546 50.3908 30.6546C50.3223 30.6546 50.2767 30.6546 50.231 30.6546C50.2082 30.6546 50.1625 30.6317 50.1397 30.6317C50.1168 30.6317 50.1168 30.6089 50.094 30.5861C50.094 30.5632 50.094 30.5404 50.094 30.5404L50.779 27.1153C50.779 27.0925 50.779 27.0925 50.8018 27.0696C50.8247 27.0468 50.8475 27.0468 50.8475 27.024C50.8703 27.024 50.916 27.0011 50.9388 27.0011C50.9845 27.0011 51.0302 27.0011 51.0759 27.0011C51.1215 27.0011 51.1672 27.0011 51.2129 27.0011C51.2585 27.0011 51.2814 27.0011 51.3042 27.024C51.327 27.0468 51.327 27.0468 51.3499 27.0696C51.3499 27.0925 51.3499 27.0925 51.3499 27.1153L51.2129 27.7775C51.2585 27.6862 51.3042 27.5948 51.3955 27.5035C51.4869 27.4122 51.5782 27.3208 51.6924 27.2295C51.8065 27.1381 51.9435 27.0696 52.0805 27.024C52.2175 26.9783 52.3546 26.9555 52.5144 26.9555C52.6742 26.9555 52.7884 26.9783 52.9026 27.024C53.1081 27.0925 53.2451 27.2523 53.3136 27.4578C53.3364 27.5492 53.3592 27.6633 53.3821 27.7775C53.4277 27.6862 53.4963 27.5948 53.5876 27.5035C53.6789 27.4122 53.7703 27.3208 53.8844 27.2523C53.9986 27.161 54.1356 27.1153 54.2726 27.0468C54.4096 27.0011 54.5466 26.9555 54.6836 26.9555C54.8435 26.9555 55.0033 26.9783 55.1175 27.024C55.323 27.1153 55.4828 27.298 55.5513 27.5035C55.5741 27.6177 55.597 27.7318 55.597 27.8688C55.597 27.9602 55.597 28.0515 55.5741 28.12C55.5741 28.2113 55.5513 28.3027 55.5285 28.394L55.0946 30.5404ZM59.0906 30.5404C59.0906 30.5861 59.0449 30.6089 58.9992 30.6317C58.9536 30.6546 58.8851 30.6546 58.7709 30.6546C58.7252 30.6546 58.6796 30.6546 58.6567 30.6546C58.6339 30.6546 58.5882 30.6317 58.5882 30.6317C58.5654 30.6317 58.5654 30.6089 58.5426 30.5861C58.5426 30.5632 58.5426 30.5632 58.5426 30.5404L58.6567 29.9011C58.6339 29.9924 58.5654 30.0609 58.474 30.1751C58.3827 30.2664 58.2914 30.3577 58.1772 30.4491C58.063 30.5404 57.926 30.5861 57.789 30.6546C57.652 30.7002 57.4922 30.7231 57.3552 30.7231C57.1497 30.7231 56.9898 30.6774 56.8528 30.6089C56.7158 30.5404 56.6245 30.4491 56.5332 30.3349C56.4647 30.2207 56.3962 30.0837 56.3733 29.9467C56.3505 29.7869 56.3277 29.6499 56.3277 29.49C56.3277 29.353 56.3505 29.1932 56.3733 29.0105C56.3962 28.8279 56.4418 28.6452 56.5103 28.4625C56.5788 28.2798 56.6473 28.0972 56.7387 27.9145C56.83 27.7318 56.9442 27.572 57.0812 27.435C57.2182 27.298 57.378 27.1838 57.5379 27.0925C57.7205 27.0011 57.926 26.9555 58.1315 26.9555C58.3599 26.9555 58.5426 27.0011 58.7024 27.0925C58.8622 27.1838 58.9992 27.298 59.1362 27.4578L59.2047 27.1153C59.2047 27.0696 59.2504 27.0468 59.2961 27.024C59.3417 27.0011 59.4102 27.0011 59.5244 27.0011C59.5701 27.0011 59.6157 27.0011 59.6614 27.0011C59.7071 27.0011 59.7299 27.0011 59.7528 27.024C59.7756 27.0468 59.7756 27.0468 59.7984 27.0696C59.7984 27.0925 59.7984 27.0925 59.7984 27.1153L59.0906 30.5404ZM58.9536 28.0058C58.8394 27.8232 58.7024 27.709 58.5654 27.6177C58.4284 27.5263 58.2685 27.4807 58.1087 27.4807C57.9717 27.4807 57.8575 27.5035 57.7434 27.572C57.6292 27.6405 57.5379 27.709 57.4465 27.8232C57.3552 27.9373 57.2867 28.0515 57.2182 28.1885C57.1497 28.3255 57.104 28.4625 57.0583 28.5995C57.0127 28.7365 56.9898 28.8964 56.967 29.0334C56.9442 29.1704 56.9442 29.3074 56.9442 29.3987C56.9442 29.49 56.9442 29.5814 56.967 29.6727C56.9898 29.7641 57.0127 29.8326 57.0355 29.9239C57.0812 29.9924 57.1268 30.0609 57.1954 30.1066C57.2639 30.1522 57.3552 30.1751 57.4694 30.1751C57.6064 30.1751 57.7434 30.1294 57.8804 30.0609C58.0174 29.9924 58.1544 29.8782 58.2685 29.7412C58.3827 29.6042 58.4969 29.4444 58.5882 29.2617C58.6796 29.079 58.7481 28.8735 58.7937 28.6452L58.9536 28.0058ZM62.6755 27.161C62.6755 27.1838 62.6755 27.2066 62.6755 27.2295C62.6755 27.2752 62.6527 27.3437 62.6298 27.3893C62.6298 27.4122 62.607 27.435 62.5842 27.4578C62.5613 27.4807 62.5613 27.5035 62.5385 27.5035C62.5157 27.5035 62.4928 27.5263 62.47 27.5263H61.6023L61.2141 29.4215C61.1913 29.4672 61.1913 29.5357 61.1913 29.6042C61.1913 29.6499 61.1913 29.7184 61.1685 29.7641C61.1685 29.9011 61.1913 29.9924 61.2598 30.0609C61.3055 30.1294 61.3968 30.1522 61.5338 30.1522C61.6023 30.1522 61.6708 30.1522 61.7165 30.1294C61.7621 30.1066 61.8078 30.1066 61.8535 30.0837C61.8991 30.0837 61.922 30.0609 61.9448 30.0609C61.9676 30.0609 61.9905 30.0381 62.0133 30.0381C62.0361 30.0381 62.0361 30.0381 62.059 30.0609C62.059 30.0837 62.0818 30.1066 62.0818 30.1294C62.0818 30.1522 62.0818 30.1979 62.059 30.2436C62.059 30.2892 62.059 30.3121 62.0361 30.3577C62.0361 30.4034 62.0133 30.4262 61.9905 30.4491C61.9676 30.4719 61.9676 30.4947 61.9448 30.5176C61.922 30.5404 61.8763 30.5632 61.8535 30.5632C61.8078 30.5861 61.7621 30.5861 61.7165 30.6089C61.6023 30.6317 61.4881 30.6546 61.374 30.6546C61.237 30.6546 61.1 30.6317 61.0086 30.6089C60.9173 30.5861 60.8259 30.5404 60.7574 30.4719C60.6889 30.4034 60.6204 30.3121 60.5976 30.2207C60.5519 30.1066 60.5519 29.9924 60.5519 29.8782C60.5519 29.8097 60.5519 29.7412 60.5748 29.6499C60.5748 29.6042 60.5976 29.5585 60.5976 29.5357C60.5976 29.49 60.6204 29.4672 60.6204 29.4215L61.0086 27.5035H60.5291C60.5063 27.5035 60.4834 27.5035 60.4606 27.4807C60.4378 27.4578 60.4378 27.435 60.4378 27.3893C60.4378 27.3665 60.4378 27.3208 60.4378 27.2752C60.4378 27.2295 60.4606 27.1838 60.4834 27.1381C60.5063 27.0925 60.5063 27.0696 60.5519 27.024C60.5748 27.0011 60.5976 26.9783 60.6433 26.9783H61.1228L61.2826 26.1563C61.2826 26.1335 61.2826 26.1106 61.3055 26.1106C61.3283 26.0878 61.3511 26.0878 61.374 26.065C61.3968 26.0421 61.4425 26.0421 61.4653 26.0421C61.511 26.0421 61.5566 26.0421 61.6251 26.0421C61.6936 26.0421 61.7393 26.0421 61.785 26.0421C61.8306 26.0421 61.8535 26.065 61.8763 26.065C61.8991 26.065 61.922 26.0878 61.922 26.1106C61.922 26.1335 61.922 26.1335 61.922 26.1563L61.7621 26.9783H62.6298C62.6755 26.9783 62.6983 27.0011 62.6983 27.024C62.6755 27.0925 62.6755 27.1382 62.6755 27.161ZM66.0321 27.8232C66.0321 28.0058 65.9864 28.1657 65.9179 28.3027C65.8266 28.4397 65.7124 28.5538 65.5297 28.668C65.3471 28.7594 65.1416 28.8507 64.8676 28.8964C64.5935 28.942 64.2739 28.9649 63.9085 28.9649H63.4975C63.4747 29.0562 63.4747 29.1247 63.4519 29.216C63.4519 29.2845 63.4519 29.353 63.4519 29.4444C63.4519 29.6956 63.5204 29.9011 63.6345 30.0152C63.7487 30.1522 63.9542 30.2207 64.251 30.2207C64.4109 30.2207 64.5479 30.2207 64.6849 30.1979C64.8219 30.1751 64.9361 30.1522 65.0274 30.1066C65.1187 30.0837 65.2101 30.0609 65.2557 30.0381C65.3014 30.0152 65.3471 30.0152 65.3927 29.9924C65.4156 29.9924 65.4384 29.9924 65.4384 30.0152C65.4612 30.0381 65.4612 30.0609 65.4612 30.0837C65.4612 30.1066 65.4612 30.1294 65.4612 30.1751C65.4612 30.2207 65.4384 30.2436 65.4384 30.2892C65.4384 30.3121 65.4156 30.3577 65.3927 30.3806C65.3699 30.4034 65.3699 30.4491 65.3471 30.4719C65.3242 30.4947 65.2557 30.5404 65.1872 30.5632C65.1187 30.5861 65.0274 30.6089 64.9132 30.6317C64.7991 30.6546 64.6849 30.6774 64.5707 30.7002C64.4337 30.7231 64.3195 30.7231 64.1825 30.7231C63.9542 30.7231 63.7487 30.7002 63.5889 30.6546C63.429 30.6089 63.292 30.5404 63.155 30.4262C63.0408 30.3121 62.9495 30.1751 62.9038 30.0381C62.8582 29.8782 62.8125 29.6955 62.8125 29.49C62.8125 29.3302 62.8353 29.1475 62.8582 28.9649C62.881 28.7822 62.9495 28.5767 63.018 28.394C63.0865 28.2113 63.1778 28.0287 63.292 27.8688C63.4062 27.709 63.5204 27.5492 63.6802 27.4122C63.84 27.2751 63.9999 27.1838 64.2054 27.0925C64.4109 27.0011 64.6392 26.9783 64.8676 26.9783C65.0731 26.9783 65.2557 27.0011 65.4156 27.0696C65.5754 27.1153 65.6896 27.1838 65.7809 27.2752C65.8722 27.3665 65.9407 27.4578 65.9864 27.5492C66.0093 27.6177 66.0321 27.709 66.0321 27.8232ZM65.3927 27.8688C65.3927 27.7547 65.3471 27.6405 65.2329 27.5492C65.1416 27.4807 64.9817 27.435 64.7991 27.435C64.6392 27.435 64.5022 27.4578 64.3652 27.5263C64.2282 27.572 64.114 27.6633 64.0227 27.7547C63.9314 27.846 63.84 27.9602 63.7715 28.0972C63.703 28.2342 63.6345 28.3712 63.6117 28.5082H63.9999C64.2739 28.5082 64.4794 28.4853 64.6621 28.4625C64.8447 28.4168 64.9817 28.394 65.0959 28.3255C65.2101 28.2798 65.2786 28.2113 65.3242 28.12C65.3699 28.0515 65.3927 27.9602 65.3927 27.8688ZM69.1147 27.1381C69.1147 27.1381 69.1147 27.161 69.1147 27.2066C69.1147 27.2295 69.1147 27.2751 69.1147 27.298C69.1147 27.3437 69.0918 27.3665 69.0918 27.4122C69.0918 27.4578 69.069 27.4807 69.0462 27.5263C69.0233 27.5492 69.0233 27.5948 69.0005 27.6177C68.9777 27.6405 68.9777 27.6405 68.9548 27.6405C68.932 27.6405 68.9092 27.6405 68.8863 27.6405C68.8635 27.6177 68.8407 27.6177 68.8178 27.5948C68.795 27.572 68.7493 27.572 68.7265 27.572C68.6808 27.572 68.6352 27.5492 68.5895 27.5492C68.4982 27.5492 68.4068 27.5948 68.2926 27.6633C68.1785 27.7318 68.0643 27.846 67.973 27.9602C67.8588 28.0972 67.7446 28.257 67.6761 28.4169C67.5848 28.5995 67.5163 28.7822 67.4706 29.0105L67.1738 30.5404C67.1738 30.5632 67.1509 30.5861 67.1509 30.5861C67.1281 30.6089 67.1053 30.6089 67.0824 30.6089C67.0596 30.6317 67.0139 30.6317 66.9911 30.6317C66.9454 30.6317 66.8769 30.6317 66.8313 30.6317C66.7628 30.6317 66.7171 30.6317 66.6714 30.6317C66.6486 30.6317 66.6029 30.6089 66.5801 30.6089C66.5573 30.6089 66.5573 30.5861 66.5344 30.5861C66.5344 30.5632 66.5344 30.5404 66.5344 30.5404L67.2195 27.1153C67.2195 27.0925 67.2423 27.0696 67.2423 27.0696C67.2651 27.0468 67.288 27.0468 67.3108 27.024C67.3336 27.024 67.3793 27.0011 67.4021 27.0011C67.4478 27.0011 67.4935 27.0011 67.5391 27.0011C67.5848 27.0011 67.6305 27.0011 67.6761 27.0011C67.699 27.0011 67.7218 27.0011 67.7446 27.024C67.7675 27.0468 67.7675 27.0468 67.7903 27.0696C67.7903 27.0925 67.7903 27.0925 67.7903 27.1153L67.6533 27.7318C67.699 27.6177 67.7903 27.5263 67.8588 27.435C67.9501 27.3437 68.0186 27.2523 68.11 27.1838C68.2013 27.1153 68.2926 27.0468 68.4068 27.0011C68.4982 26.9555 68.6123 26.9326 68.7037 26.9326C68.7493 26.9326 68.795 26.9326 68.8407 26.9326C68.8863 26.9326 68.932 26.9555 68.9548 26.9555C69.0005 26.9555 69.0233 26.9783 69.0462 26.9783C69.069 26.9783 69.0918 27.0011 69.1147 27.024C69.0918 27.0696 69.1147 27.0925 69.1147 27.1381ZM70.7815 25.9736C70.7587 26.0421 70.7587 26.0878 70.7359 26.1563C70.713 26.202 70.6902 26.2476 70.6445 26.2705C70.5989 26.2933 70.5532 26.3161 70.5075 26.339C70.4619 26.3618 70.3934 26.3618 70.3249 26.3618C70.2564 26.3618 70.1879 26.3618 70.1422 26.339C70.0965 26.339 70.0737 26.3161 70.028 26.2705C70.0052 26.2476 69.9824 26.202 69.9824 26.1563C69.9824 26.1106 69.9824 26.0421 70.0052 25.9736C70.028 25.9051 70.0509 25.8366 70.0737 25.7909C70.0965 25.7453 70.1194 25.6996 70.165 25.6768C70.2107 25.6539 70.2564 25.6311 70.302 25.6083C70.3705 25.6083 70.439 25.5854 70.5075 25.5854C70.576 25.5854 70.6445 25.5854 70.6902 25.6083C70.7359 25.6311 70.7815 25.6311 70.8044 25.6768C70.8272 25.6996 70.85 25.7453 70.85 25.7909C70.8044 25.8366 70.7815 25.9051 70.7815 25.9736ZM69.7997 30.5404C69.7997 30.5632 69.7769 30.5861 69.7769 30.5861C69.754 30.6089 69.754 30.6089 69.7312 30.6089C69.7084 30.6317 69.6627 30.6317 69.6398 30.6317C69.5942 30.6317 69.5485 30.6317 69.48 30.6317C69.4115 30.6317 69.3658 30.6317 69.3202 30.6317C69.2973 30.6317 69.2517 30.6089 69.2288 30.6089C69.206 30.6089 69.206 30.5861 69.1832 30.5861C69.1832 30.5632 69.1832 30.5404 69.1832 30.5404L69.8682 27.1153C69.8682 27.0925 69.8682 27.0925 69.891 27.0696C69.9139 27.0468 69.9367 27.0468 69.9595 27.024C69.9824 27.0011 70.028 27.0011 70.0509 27.0011C70.0965 27.0011 70.1422 27.0011 70.2107 27.0011C70.2792 27.0011 70.3249 27.0011 70.3477 27.0011C70.3934 27.0011 70.4162 27.0011 70.439 27.024C70.4619 27.024 70.4847 27.0468 70.4847 27.0696C70.4847 27.0925 70.4847 27.0925 70.4847 27.1153L69.7997 30.5404ZM73.7956 30.5404C73.7956 30.5861 73.75 30.6089 73.7043 30.6317C73.6586 30.6546 73.5901 30.6546 73.476 30.6546C73.4303 30.6546 73.3846 30.6546 73.339 30.6546C73.3161 30.6546 73.2933 30.6317 73.2476 30.6317C73.2248 30.6317 73.2248 30.6089 73.2019 30.5861C73.2019 30.5632 73.2019 30.5632 73.2019 30.5404L73.339 29.9011C73.2933 29.9924 73.2248 30.0837 73.1563 30.1751C73.0649 30.2664 72.9736 30.3577 72.8366 30.4491C72.7224 30.5404 72.5854 30.6089 72.4484 30.6546C72.3114 30.7002 72.1516 30.7231 72.0146 30.7231C71.8091 30.7231 71.6492 30.6774 71.5122 30.6089C71.3752 30.5404 71.2839 30.4491 71.1926 30.3349C71.1241 30.2207 71.0556 30.0837 71.0327 29.9467C71.0099 29.7869 70.9871 29.6499 70.9871 29.49C70.9871 29.353 70.9871 29.1932 71.0327 29.0105C71.0556 28.8279 71.1012 28.6452 71.1697 28.4625C71.2382 28.2798 71.3067 28.0972 71.3981 27.9145C71.4894 27.7318 71.6036 27.572 71.7406 27.435C71.8776 27.298 72.0374 27.1838 72.1973 27.0925C72.3799 27.0011 72.5854 26.9555 72.7909 26.9555C73.0193 26.9555 73.2019 27.0011 73.3618 27.0925C73.5216 27.1838 73.6586 27.298 73.7956 27.4578L73.8641 27.1153C73.8641 27.0696 73.9098 27.0468 73.9555 27.024C74.0011 27.0011 74.0696 27.0011 74.1838 27.0011C74.2295 27.0011 74.2751 27.0011 74.3208 27.0011C74.3665 27.0011 74.3893 27.0011 74.4121 27.024C74.435 27.0468 74.435 27.0468 74.4578 27.0696C74.4578 27.0925 74.4578 27.0925 74.4578 27.1153L73.7956 30.5404ZM73.6815 28.0058C73.5673 27.8232 73.4303 27.709 73.2933 27.6177C73.1563 27.5263 72.9964 27.4807 72.8366 27.4807C72.6996 27.4807 72.5854 27.5035 72.4713 27.572C72.3571 27.6405 72.2658 27.709 72.1744 27.8232C72.0831 27.9373 72.0146 28.0515 71.9461 28.1885C71.8776 28.3255 71.8319 28.4625 71.7862 28.5995C71.7406 28.7365 71.7177 28.8964 71.6949 29.0334C71.6721 29.1704 71.6721 29.3074 71.6721 29.3987C71.6721 29.49 71.6721 29.5814 71.6949 29.6727C71.7177 29.7641 71.7406 29.8326 71.7862 29.9239C71.8319 29.9924 71.8776 30.0609 71.9461 30.1066C72.0146 30.1522 72.1059 30.1751 72.2201 30.1751C72.3571 30.1751 72.4941 30.1294 72.6311 30.0609C72.7681 29.9924 72.9051 29.8782 73.0193 29.7412C73.1563 29.6042 73.2476 29.4215 73.339 29.2617C73.4303 29.079 73.4988 28.8735 73.5445 28.6452L73.6815 28.0058ZM75.5767 30.5404C75.5767 30.5632 75.5538 30.5861 75.5538 30.5861C75.531 30.6089 75.5082 30.6089 75.4853 30.6089C75.4625 30.6317 75.4168 30.6317 75.394 30.6317C75.3483 30.6317 75.3027 30.6317 75.2342 30.6317C75.1657 30.6317 75.12 30.6317 75.0743 30.6317C75.0515 30.6317 75.0058 30.6089 74.983 30.6089C74.9602 30.6089 74.9602 30.5861 74.9373 30.5861C74.9373 30.5632 74.9373 30.5404 74.9373 30.5404L75.942 25.4713C75.942 25.4484 75.9649 25.4256 75.9649 25.4256C75.9877 25.4028 76.0105 25.4028 76.0334 25.3799C76.0562 25.3799 76.1019 25.3571 76.1247 25.3571C76.2389 25.3571 76.3302 25.3571 76.4444 25.3571C76.49 25.3571 76.5129 25.3799 76.5357 25.3799C76.5585 25.3799 76.5814 25.4028 76.5814 25.4256C76.5814 25.4484 76.5814 25.4713 76.5814 25.4713L75.5767 30.5404ZM81.0797 27.298C81.0797 27.3665 81.0568 27.4578 81.034 27.5263C81.0112 27.572 81.0112 27.5948 80.9883 27.6177C80.9655 27.6405 80.9427 27.6633 80.9198 27.6633C80.8742 27.6633 80.8513 27.6405 80.8056 27.6177C80.76 27.5948 80.7143 27.5492 80.6458 27.5263C80.5773 27.5035 80.5088 27.4578 80.4175 27.435C80.3261 27.4122 80.212 27.3893 80.1206 27.3893C80.0065 27.3893 79.9151 27.4122 79.8238 27.435C79.7325 27.4578 79.664 27.5035 79.6183 27.572C79.5498 27.6177 79.5041 27.6862 79.4813 27.7547C79.4584 27.8232 79.4356 27.8917 79.4356 27.9602C79.4356 28.0515 79.4584 28.1428 79.5269 28.2113C79.5955 28.2798 79.6868 28.3483 79.7781 28.394C79.8695 28.4397 79.9836 28.5082 80.0978 28.5538C80.212 28.5995 80.3261 28.668 80.4175 28.7365C80.5088 28.805 80.6001 28.8964 80.6686 29.0105C80.7371 29.1247 80.7828 29.2389 80.7828 29.3987C80.7828 29.5814 80.7371 29.7412 80.6686 29.9011C80.6001 30.0609 80.486 30.1979 80.3718 30.2892C80.2348 30.4034 80.075 30.4947 79.8923 30.5404C79.7096 30.6089 79.5041 30.6317 79.2758 30.6317C79.0703 30.6317 78.8648 30.6089 78.6593 30.5404C78.5908 30.5176 78.5223 30.4947 78.4309 30.4491C78.3853 30.4262 78.3396 30.3806 78.2939 30.3577C78.2711 30.3349 78.2482 30.3121 78.2482 30.2892C78.2482 30.2664 78.2482 30.2436 78.2482 30.2207C78.2482 30.1751 78.2482 30.1066 78.2711 30.0609C78.2711 30.0381 78.2939 29.9924 78.2939 29.9696C78.2939 29.9467 78.3167 29.9239 78.3396 29.9011C78.3396 29.8782 78.3624 29.8554 78.3853 29.8554C78.3853 29.8326 78.4081 29.8326 78.4309 29.8326C78.4538 29.8326 78.4994 29.8554 78.5451 29.8782C78.5908 29.9011 78.6364 29.9467 78.7049 29.9924C78.7734 30.0381 78.8648 30.0609 78.9561 30.1066C79.0703 30.1522 79.1844 30.1522 79.3443 30.1522C79.4813 30.1522 79.5955 30.1294 79.7096 30.1066C79.801 30.0609 79.8923 30.0152 79.9608 29.9696C80.0293 29.9239 80.075 29.8554 80.0978 29.7641C80.1206 29.6956 80.1435 29.6042 80.1435 29.5129C80.1435 29.4215 80.1206 29.3302 80.0521 29.2617C79.9836 29.1932 79.8923 29.1247 79.801 29.079C79.7096 29.0334 79.5955 28.9649 79.4813 28.9192C79.3671 28.8735 79.2529 28.805 79.1616 28.7365C79.0703 28.668 78.9789 28.5767 78.9104 28.4625C78.8419 28.3483 78.8191 28.2113 78.8191 28.0515C78.8191 27.8917 78.8419 27.7318 78.9104 27.5948C78.9789 27.4578 79.0703 27.3208 79.1844 27.2295C79.2986 27.1153 79.4584 27.0468 79.6183 26.9783C79.801 26.9098 79.9836 26.887 80.1891 26.887C80.2805 26.887 80.3718 26.887 80.4631 26.9098C80.5545 26.9326 80.6458 26.9326 80.7143 26.9555C80.7828 26.9783 80.8513 27.0011 80.9198 27.024C80.9883 27.0468 81.0112 27.0696 81.0568 27.1153C81.1025 27.161 81.0797 27.2523 81.0797 27.298ZM84.7788 27.8232C84.7788 28.0058 84.7331 28.1657 84.6646 28.3027C84.5732 28.4397 84.4591 28.5538 84.2764 28.668C84.0937 28.7594 83.8882 28.8507 83.6142 28.8964C83.3402 28.942 83.0205 28.9649 82.6552 28.9649H82.2442C82.2214 29.0562 82.2214 29.1247 82.1985 29.216C82.1985 29.2845 82.1985 29.353 82.1985 29.4444C82.1985 29.6956 82.267 29.9011 82.3812 30.0152C82.4954 30.1522 82.7009 30.2207 82.9977 30.2207C83.1575 30.2207 83.2946 30.2207 83.4316 30.1979C83.5686 30.1751 83.6827 30.1522 83.7741 30.1066C83.8654 30.0837 83.9567 30.0609 84.0024 30.0381C84.0481 30.0152 84.0937 30.0152 84.1166 29.9924C84.1394 29.9924 84.1622 29.9924 84.1622 30.0152C84.1851 30.0381 84.1851 30.0609 84.1851 30.0837C84.1851 30.1066 84.1851 30.1294 84.1851 30.1751C84.1851 30.2207 84.1622 30.2436 84.1622 30.2892C84.1394 30.3121 84.1394 30.3577 84.1166 30.3806C84.1166 30.4034 84.0937 30.4491 84.0709 30.4719C84.0481 30.4947 83.9796 30.5404 83.9111 30.5632C83.8426 30.5861 83.7512 30.6089 83.6371 30.6317C83.5229 30.6546 83.4087 30.6774 83.2945 30.7002C83.1575 30.7231 83.0434 30.7231 82.9064 30.7231C82.678 30.7231 82.4725 30.7002 82.3127 30.6546C82.1529 30.6089 82.0159 30.5404 81.8788 30.4262C81.7647 30.3121 81.6733 30.1751 81.6277 30.0381C81.582 29.8782 81.5363 29.6955 81.5363 29.49C81.5363 29.3302 81.5592 29.1475 81.582 28.9649C81.6048 28.7822 81.6733 28.5767 81.7418 28.394C81.8103 28.2113 81.9017 28.0287 82.0159 27.8688C82.13 27.709 82.2442 27.5492 82.404 27.4122C82.5639 27.2751 82.7237 27.1838 82.9292 27.0925C83.1347 27.0011 83.3631 26.9783 83.5914 26.9783C83.7969 26.9783 83.9796 27.0011 84.1394 27.0696C84.2992 27.1153 84.4134 27.1838 84.5047 27.2752C84.5961 27.3665 84.6646 27.4578 84.7103 27.5492C84.7559 27.6177 84.7788 27.709 84.7788 27.8232ZM84.1394 27.8688C84.1394 27.7547 84.0937 27.6405 83.9796 27.5492C83.8882 27.4807 83.7284 27.435 83.5457 27.435C83.3859 27.435 83.226 27.4578 83.1119 27.5263C82.9749 27.572 82.8607 27.6633 82.7694 27.7547C82.678 27.846 82.5867 27.9602 82.5182 28.0972C82.4497 28.2342 82.404 28.3712 82.3584 28.5082H82.7465C83.0205 28.5082 83.226 28.4853 83.4087 28.4625C83.5914 28.4168 83.7284 28.394 83.8426 28.3255C83.9567 28.2798 84.0252 28.2113 84.0709 28.12C84.1166 28.0515 84.1394 27.9602 84.1394 27.8688ZM85.8748 30.5404C85.8748 30.5632 85.852 30.5861 85.852 30.5861C85.8291 30.6089 85.8063 30.6089 85.7835 30.6089C85.7606 30.6317 85.7149 30.6317 85.6921 30.6317C85.6464 30.6317 85.6008 30.6317 85.5323 30.6317C85.4638 30.6317 85.4181 30.6317 85.3724 30.6317C85.3496 30.6317 85.3039 30.6089 85.2811 30.6089C85.2583 30.6089 85.2583 30.5861 85.2354 30.5861C85.2354 30.5632 85.2354 30.5404 85.2354 30.5404L86.2401 25.4713C86.2401 25.4484 86.263 25.4256 86.263 25.4256C86.2858 25.4028 86.3086 25.4028 86.3086 25.3799C86.3315 25.3799 86.3771 25.3571 86.4228 25.3571C86.537 25.3571 86.6283 25.3571 86.7196 25.3571C86.7653 25.3571 86.7881 25.3799 86.811 25.3799C86.8338 25.3799 86.8566 25.4028 86.8566 25.4256C86.8566 25.4484 86.8566 25.4713 86.8566 25.4713L85.8748 30.5404ZM90.3046 27.8232C90.3046 28.0058 90.2589 28.1657 90.1904 28.3027C90.0991 28.4397 89.9849 28.5538 89.8022 28.668C89.6196 28.7594 89.414 28.8507 89.14 28.8964C88.866 28.942 88.5464 28.9649 88.181 28.9649H87.77C87.7472 29.0562 87.7472 29.1247 87.7243 29.216C87.7243 29.2845 87.7243 29.353 87.7243 29.4444C87.7243 29.6956 87.7928 29.9011 87.907 30.0152C88.044 30.1522 88.2267 30.2207 88.5235 30.2207C88.6834 30.2207 88.8204 30.2207 88.9574 30.1979C89.0944 30.1751 89.2085 30.1522 89.2999 30.1066C89.3912 30.0837 89.4826 30.0609 89.5282 30.0381C89.5739 30.0152 89.6196 30.0152 89.6424 29.9924C89.6652 29.9924 89.6881 29.9924 89.6881 30.0152C89.7109 30.0381 89.7109 30.0609 89.7109 30.0837C89.7109 30.1522 89.6881 30.2207 89.6881 30.2892C89.6652 30.3121 89.6652 30.3577 89.6424 30.3806C89.6196 30.4034 89.6196 30.4491 89.5967 30.4719C89.5739 30.4947 89.5054 30.5404 89.4369 30.5632C89.3684 30.5861 89.277 30.6089 89.1629 30.6317C89.0487 30.6546 88.9345 30.6774 88.8204 30.7002C88.6834 30.7231 88.5692 30.7231 88.4322 30.7231C88.2038 30.7231 87.9983 30.7002 87.8385 30.6546C87.6787 30.6089 87.5417 30.5404 87.4047 30.4262C87.2905 30.3121 87.1992 30.1751 87.1535 30.0381C87.1078 29.8782 87.0621 29.6955 87.0621 29.49C87.0621 29.3302 87.085 29.1475 87.1078 28.9649C87.1535 28.7822 87.1992 28.5995 87.2677 28.394C87.3362 28.2113 87.4275 28.0287 87.5417 27.8688C87.6558 27.709 87.77 27.5492 87.9298 27.4122C88.0897 27.2751 88.2495 27.1838 88.455 27.0925C88.6605 27.0011 88.8889 26.9783 89.1172 26.9783C89.3227 26.9783 89.5054 27.0011 89.6652 27.0696C89.8251 27.1153 89.9392 27.1838 90.0306 27.2752C90.1219 27.3665 90.1904 27.4578 90.2361 27.5492C90.2817 27.6177 90.3046 27.709 90.3046 27.8232ZM89.6424 27.8688C89.6424 27.7547 89.5967 27.6405 89.4825 27.5492C89.3912 27.4807 89.2314 27.435 89.0487 27.435C88.8889 27.435 88.729 27.4578 88.6149 27.5263C88.4779 27.572 88.3637 27.6633 88.2724 27.7547C88.181 27.846 88.0897 27.9602 88.0212 28.0972C87.9527 28.2342 87.8842 28.3712 87.8613 28.5082H88.2495C88.5235 28.5082 88.729 28.4853 88.9117 28.4625C89.0944 28.4168 89.2314 28.394 89.3456 28.3255C89.4597 28.2798 89.5282 28.2113 89.5739 28.12C89.6196 28.0515 89.6424 27.9602 89.6424 27.8688ZM93.7525 27.4122C93.7525 27.4578 93.7525 27.5035 93.7297 27.5492C93.7297 27.5948 93.7068 27.6405 93.684 27.6862C93.6612 27.7318 93.6383 27.7547 93.6155 27.8003C93.5927 27.8232 93.5698 27.846 93.547 27.846C93.5013 27.846 93.4785 27.8232 93.4328 27.8003C93.3872 27.7547 93.3415 27.709 93.273 27.6633C93.2045 27.6177 93.136 27.572 93.0446 27.5263C92.9533 27.4807 92.8391 27.4807 92.6793 27.4807C92.5195 27.4807 92.3825 27.5035 92.2455 27.572C92.1085 27.6405 92.0171 27.7318 91.9258 27.846C91.8344 27.9602 91.7659 28.0743 91.6974 28.2113C91.6289 28.3483 91.5833 28.4854 91.5604 28.6224C91.5148 28.7594 91.4919 28.8964 91.4691 29.0334C91.4463 29.1704 91.4463 29.2845 91.4463 29.3759C91.4463 29.627 91.4919 29.8326 91.6289 29.9696C91.7431 30.1066 91.9029 30.1751 92.1313 30.1751C92.3825 30.1751 92.6336 30.1066 92.862 29.9696C92.9533 29.9239 93.0218 29.8782 93.0675 29.8326C93.1131 29.7869 93.1588 29.7641 93.2045 29.7641C93.2273 29.7641 93.2501 29.7641 93.2501 29.7869C93.273 29.8097 93.273 29.8326 93.273 29.8782C93.273 29.9467 93.2502 30.0381 93.2273 30.1294C93.2273 30.1751 93.2045 30.2207 93.1816 30.2436C93.1588 30.2892 93.136 30.3121 93.1132 30.3577C93.0903 30.3806 93.0218 30.4262 92.9533 30.4719C92.8848 30.5176 92.7935 30.5632 92.6793 30.6089C92.588 30.6317 92.4738 30.6774 92.3596 30.7002C92.2455 30.7231 92.1313 30.7459 91.9943 30.7459C91.5833 30.7459 91.2864 30.6317 91.0809 30.4262C90.8754 30.2207 90.7841 29.9011 90.7841 29.5129C90.7841 29.353 90.8069 29.1932 90.8298 29.0105C90.8526 28.8279 90.8983 28.6452 90.9668 28.4625C91.0353 28.2798 91.1038 28.0972 91.2179 27.9145C91.3093 27.7318 91.4463 27.5948 91.5833 27.4578C91.7203 27.3208 91.903 27.2067 92.0856 27.1381C92.2683 27.0696 92.4966 27.024 92.7478 27.024C92.8391 27.024 92.9533 27.024 93.0446 27.0468C93.136 27.0696 93.2273 27.0925 93.2958 27.1153C93.3872 27.1381 93.4557 27.1838 93.5242 27.2295C93.5927 27.2752 93.6383 27.298 93.684 27.3437C93.7068 27.3665 93.7297 27.3893 93.7525 27.435C93.7297 27.3665 93.7525 27.3893 93.7525 27.4122ZM97.1548 30.5404C97.1548 30.5632 97.1319 30.5861 97.1319 30.5861C97.1091 30.6089 97.0863 30.6089 97.0634 30.6089C97.0406 30.6317 96.9949 30.6317 96.9721 30.6317C96.9264 30.6317 96.8808 30.6317 96.8122 30.6317C96.7437 30.6317 96.6981 30.6317 96.6524 30.6317C96.6296 30.6317 96.5839 30.6089 96.5611 30.6089C96.5382 30.6089 96.5382 30.5861 96.5154 30.5861C96.5154 30.5632 96.5154 30.5404 96.5154 30.5404L97.1091 27.5492H95.3509L94.9627 29.4444C94.9627 29.49 94.9399 29.5585 94.9399 29.627C94.9399 29.6955 94.9399 29.7412 94.9399 29.7869C94.9399 29.9239 94.9627 30.0152 95.0312 30.0837C95.0769 30.1522 95.1682 30.1751 95.3052 30.1751C95.3737 30.1751 95.4194 30.1751 95.4879 30.1522C95.5335 30.1294 95.5792 30.1294 95.6249 30.1066C95.6706 30.1066 95.6934 30.0837 95.7162 30.0837C95.7391 30.0837 95.7619 30.0609 95.7847 30.0609C95.8076 30.0609 95.8304 30.0609 95.8304 30.0837C95.8532 30.1066 95.8532 30.1294 95.8532 30.1522C95.8532 30.1751 95.8532 30.2207 95.8532 30.2664C95.8532 30.3121 95.8304 30.3349 95.8304 30.3806C95.8304 30.4262 95.8076 30.4491 95.7847 30.4719C95.7847 30.4947 95.7619 30.5176 95.7391 30.5404C95.7162 30.5632 95.6705 30.5861 95.6477 30.5861C95.602 30.6089 95.5564 30.6089 95.5107 30.6317C95.3965 30.6546 95.2824 30.6774 95.1682 30.6774C95.0312 30.6774 94.8942 30.6546 94.8029 30.6317C94.7115 30.6089 94.6202 30.5632 94.5289 30.4947C94.4604 30.4262 94.4147 30.3349 94.369 30.2436C94.3462 30.1294 94.3233 30.0152 94.3233 29.9011C94.3233 29.8326 94.3233 29.7641 94.3462 29.6727C94.3462 29.6271 94.369 29.5814 94.369 29.5585C94.369 29.5129 94.3918 29.49 94.3918 29.4444L94.78 27.5263H94.3005C94.2777 27.5263 94.2548 27.5263 94.232 27.5035C94.2092 27.4807 94.2092 27.4578 94.2092 27.4122C94.2092 27.3893 94.2092 27.3437 94.232 27.298C94.232 27.2523 94.2548 27.2067 94.2548 27.161C94.2777 27.1153 94.2777 27.0925 94.3233 27.0468C94.3462 27.024 94.369 27.0011 94.4147 27.0011H94.8942L95.054 26.1791C95.054 26.1563 95.0769 26.1335 95.0769 26.1335C95.0997 26.1106 95.1225 26.1106 95.1454 26.0878C95.1682 26.065 95.2139 26.065 95.2367 26.065C95.2824 26.065 95.328 26.065 95.3965 26.065C95.465 26.065 95.5107 26.065 95.5564 26.065C95.602 26.065 95.6249 26.0878 95.6477 26.0878C95.6705 26.0878 95.6934 26.1106 95.6934 26.1335C95.6934 26.1563 95.6934 26.1563 95.6934 26.1791L95.5335 27.0011H97.7256C97.7941 27.0011 97.8398 27.024 97.8626 27.0468C97.8854 27.0696 97.8854 27.1381 97.8854 27.1838L97.1548 30.5404ZM98.1366 25.9736C98.1138 26.0421 98.1138 26.1106 98.091 26.1563C98.0681 26.202 98.0453 26.2476 97.9996 26.2705C97.9539 26.2933 97.9083 26.3161 97.8626 26.339C97.7941 26.3618 97.7256 26.3618 97.6799 26.3618C97.6114 26.3618 97.5429 26.3618 97.4973 26.339C97.4516 26.339 97.4288 26.3161 97.4059 26.2705C97.3831 26.2248 97.3831 26.202 97.3603 26.1563C97.3603 26.0878 97.3603 26.0421 97.3831 25.9736C97.3831 25.9051 97.4059 25.8594 97.4288 25.7909C97.4516 25.7453 97.4744 25.6996 97.5201 25.6768C97.5658 25.6539 97.6114 25.6311 97.6571 25.6083C97.7028 25.6083 97.7713 25.5854 97.8398 25.5854C97.9083 25.5854 97.9768 25.5854 98.0225 25.6083C98.0681 25.6311 98.1138 25.6311 98.1366 25.6768C98.1595 25.6996 98.1595 25.7453 98.1823 25.7909C98.1595 25.8366 98.1595 25.9051 98.1366 25.9736ZM101.767 28.257C101.767 28.4397 101.744 28.6452 101.722 28.8279C101.676 29.0334 101.63 29.216 101.562 29.3987C101.493 29.5814 101.402 29.7412 101.288 29.9011C101.174 30.0609 101.037 30.1979 100.9 30.3121C100.74 30.4262 100.58 30.5176 100.397 30.6089C100.215 30.6774 99.9862 30.7002 99.7578 30.7002C99.5067 30.7002 99.3012 30.6774 99.1413 30.6089C98.9815 30.5632 98.8445 30.4719 98.7075 30.3577C98.5933 30.2436 98.502 30.1066 98.4563 29.9467C98.4106 29.7641 98.365 29.5814 98.3878 29.3987C98.3878 29.216 98.4106 29.0105 98.4335 28.8279C98.502 28.4397 98.6618 28.0743 98.8673 27.7547C98.9815 27.5948 99.1185 27.4578 99.2555 27.3437C99.5752 27.0925 99.9862 26.9555 100.397 26.9555C100.648 26.9555 100.854 26.9783 101.014 27.0468C101.196 27.0925 101.333 27.1838 101.448 27.298C101.562 27.4122 101.653 27.5492 101.699 27.709C101.744 27.8688 101.767 28.0515 101.767 28.257ZM101.105 28.3027C101.105 28.1657 101.082 28.0515 101.059 27.9602C101.037 27.8688 100.991 27.7775 100.922 27.709C100.854 27.6405 100.763 27.572 100.671 27.5492C100.557 27.5035 100.443 27.4807 100.306 27.4807C100.146 27.4807 100.009 27.5035 99.8948 27.572C99.7807 27.6177 99.6665 27.709 99.5523 27.8003C99.461 27.8917 99.3697 28.0058 99.3011 28.12C99.2326 28.257 99.1641 28.3712 99.1185 28.5082C99.0728 28.6452 99.0271 28.805 99.0043 28.942C98.9815 29.079 98.9815 29.2389 98.9815 29.3759C98.9815 29.49 99.0043 29.627 99.0271 29.7184C99.05 29.8097 99.0956 29.9011 99.1642 29.9696C99.2327 30.0381 99.3011 30.1066 99.4153 30.1294C99.5067 30.1751 99.6437 30.1979 99.7807 30.1979C99.9405 30.1979 100.078 30.1751 100.192 30.1066C100.306 30.0609 100.42 29.9696 100.511 29.8782C100.603 29.7869 100.694 29.6727 100.763 29.5585C100.831 29.4444 100.9 29.3074 100.945 29.1704C100.991 29.0334 101.037 28.8735 101.059 28.7365C101.105 28.5767 101.105 28.4397 101.105 28.3027ZM105.649 27.8688C105.649 27.9602 105.649 28.0515 105.626 28.12C105.603 28.2113 105.603 28.3027 105.58 28.394L105.147 30.5176C105.147 30.5404 105.124 30.5632 105.124 30.5632C105.101 30.5861 105.101 30.5861 105.078 30.5861C105.055 30.6089 105.01 30.6089 104.987 30.6089C104.941 30.6089 104.873 30.6089 104.827 30.6089C104.758 30.6089 104.713 30.6089 104.667 30.6089C104.644 30.6089 104.599 30.6089 104.576 30.5861C104.553 30.5861 104.553 30.5632 104.53 30.5632C104.53 30.5404 104.53 30.5176 104.53 30.5176L104.941 28.4169C104.964 28.3483 104.964 28.257 104.964 28.1885C104.964 28.12 104.987 28.0515 104.987 27.983C104.987 27.8232 104.964 27.709 104.895 27.6177C104.827 27.5263 104.713 27.4807 104.576 27.4807C104.439 27.4807 104.302 27.5263 104.165 27.5948C104.005 27.6862 103.891 27.7775 103.777 27.9145C103.64 28.0515 103.548 28.2342 103.457 28.394C103.366 28.5767 103.297 28.7822 103.251 28.9877L102.955 30.5176C102.955 30.5404 102.932 30.5632 102.932 30.5632C102.909 30.5861 102.886 30.5861 102.863 30.5861C102.84 30.6089 102.795 30.6089 102.772 30.6089C102.726 30.6089 102.681 30.6089 102.612 30.6089C102.566 30.6089 102.521 30.6089 102.452 30.6089C102.429 30.6089 102.384 30.6089 102.361 30.5861C102.338 30.5861 102.338 30.5632 102.315 30.5632C102.315 30.5404 102.315 30.5176 102.315 30.5176L103 27.0925C103 27.0696 103 27.0468 103.023 27.0468C103.046 27.024 103.046 27.024 103.069 27.0011C103.092 27.0011 103.137 26.9783 103.16 26.9783C103.206 26.9783 103.251 26.9783 103.297 26.9783C103.343 26.9783 103.388 26.9783 103.434 26.9783C103.457 26.9783 103.503 26.9783 103.503 27.0011C103.525 27.0011 103.525 27.024 103.548 27.0468C103.548 27.0696 103.548 27.0696 103.548 27.0925L103.411 27.7547C103.457 27.6633 103.503 27.572 103.594 27.4807C103.685 27.3893 103.799 27.298 103.891 27.2066C104.005 27.1153 104.142 27.0696 104.279 27.0011C104.416 26.9555 104.576 26.9098 104.736 26.9098C104.895 26.9098 105.055 26.9326 105.169 27.0011C105.375 27.0925 105.535 27.2752 105.603 27.5035C105.626 27.6405 105.649 27.7547 105.649 27.8688ZM111.517 28.1885C111.517 28.5539 111.449 28.8964 111.335 29.2389C111.266 29.4215 111.198 29.6042 111.106 29.7869C111.015 29.9696 110.901 30.1066 110.764 30.2436C110.627 30.3806 110.467 30.4947 110.307 30.5632C110.124 30.6317 109.942 30.6774 109.713 30.6774C109.599 30.6774 109.485 30.6546 109.394 30.6317C109.211 30.5861 109.051 30.5176 108.914 30.4034C108.846 30.3349 108.777 30.2892 108.732 30.2207L108.412 31.8648C108.412 31.8876 108.389 31.9104 108.389 31.9104C108.366 31.9333 108.366 31.9333 108.343 31.9561C108.321 31.9789 108.275 31.9789 108.229 31.9789C108.184 31.9789 108.138 31.9789 108.069 31.9789C108.001 31.9789 107.955 31.9789 107.932 31.9789C107.91 31.9789 107.864 31.9789 107.841 31.9561C107.818 31.9561 107.795 31.9333 107.795 31.9104C107.795 31.8876 107.795 31.8648 107.795 31.8648L108.754 27.0925C108.754 27.0468 108.777 27.024 108.823 27.0011C108.869 26.9783 108.937 26.9783 109.051 26.9783C109.097 26.9783 109.143 26.9783 109.188 26.9783C109.211 26.9783 109.257 26.9783 109.257 27.0011C109.28 27.0011 109.302 27.024 109.302 27.0468C109.302 27.0696 109.302 27.0696 109.302 27.0925L109.165 27.7318C109.211 27.6405 109.257 27.5492 109.348 27.4578C109.439 27.3665 109.531 27.2751 109.645 27.1838C109.759 27.0925 109.896 27.024 110.033 26.9783C110.17 26.9326 110.33 26.887 110.467 26.887C110.65 26.887 110.809 26.9098 110.946 26.9783C111.083 27.0468 111.175 27.1381 111.266 27.2523C111.357 27.3665 111.403 27.5035 111.449 27.6405C111.494 27.846 111.517 28.0058 111.517 28.1885ZM110.855 28.2342C110.855 28.12 110.855 28.0287 110.832 27.9373C110.809 27.846 110.787 27.7775 110.741 27.709C110.695 27.6405 110.65 27.5948 110.581 27.5492C110.513 27.5035 110.421 27.5035 110.33 27.5035C110.193 27.5035 110.056 27.5492 109.919 27.6177C109.782 27.709 109.645 27.8003 109.531 27.9373C109.257 28.257 109.074 28.6224 109.006 29.0334L108.891 29.6499C109.006 29.8326 109.143 29.9696 109.28 30.0609C109.417 30.1522 109.576 30.1979 109.736 30.1979C109.873 30.1979 109.987 30.1751 110.102 30.1066C110.216 30.0381 110.307 29.9467 110.398 29.8554C110.49 29.7412 110.558 29.627 110.627 29.49C110.695 29.353 110.741 29.216 110.787 29.079C110.832 28.942 110.855 28.7822 110.878 28.6452C110.855 28.4625 110.855 28.3483 110.855 28.2342ZM112.682 30.5404C112.682 30.5632 112.659 30.5861 112.659 30.5861C112.636 30.6089 112.613 30.6089 112.613 30.6089C112.591 30.6317 112.545 30.6317 112.522 30.6317C112.476 30.6317 112.408 30.6317 112.362 30.6317C112.294 30.6317 112.248 30.6317 112.202 30.6317C112.179 30.6317 112.134 30.6089 112.111 30.6089C112.088 30.6089 112.088 30.5861 112.065 30.5861C112.065 30.5632 112.065 30.5404 112.065 30.5404L113.07 25.4713C113.07 25.4484 113.093 25.4256 113.093 25.4256C113.116 25.4028 113.116 25.4028 113.139 25.3799C113.161 25.3799 113.207 25.3571 113.253 25.3571C113.367 25.3571 113.458 25.3571 113.55 25.3571C113.595 25.3571 113.618 25.3799 113.641 25.3799C113.664 25.3799 113.687 25.4028 113.687 25.4256C113.687 25.4484 113.687 25.4713 113.687 25.4713L112.682 30.5404ZM116.678 30.5404C116.678 30.5861 116.632 30.6089 116.586 30.6317C116.541 30.6546 116.472 30.6546 116.358 30.6546C116.312 30.6546 116.267 30.6546 116.221 30.6546C116.198 30.6546 116.175 30.6317 116.13 30.6317C116.107 30.6317 116.107 30.6089 116.084 30.5861C116.084 30.5632 116.084 30.5632 116.084 30.5404L116.221 29.9011C116.175 29.9924 116.13 30.0609 116.038 30.1751C115.947 30.2664 115.856 30.3577 115.719 30.4491C115.605 30.5404 115.468 30.6089 115.331 30.6546C115.194 30.7002 115.034 30.7231 114.897 30.7231C114.691 30.7231 114.531 30.6774 114.394 30.6089C114.257 30.5404 114.166 30.4491 114.075 30.3349C113.983 30.2207 113.938 30.0837 113.915 29.9467C113.892 29.7869 113.869 29.6499 113.869 29.49C113.869 29.1475 113.938 28.7822 114.029 28.4625C114.098 28.2798 114.166 28.0972 114.257 27.9145C114.349 27.7318 114.463 27.572 114.6 27.435C114.737 27.298 114.897 27.1838 115.057 27.0925C115.239 27.0011 115.445 26.9555 115.65 26.9555C115.879 26.9555 116.061 27.0011 116.221 27.0925C116.381 27.1838 116.518 27.298 116.655 27.4578L116.723 27.1153C116.746 27.0696 116.769 27.0468 116.815 27.024C116.86 27.0011 116.929 27.0011 117.043 27.0011C117.089 27.0011 117.134 27.0011 117.157 27.0011C117.203 27.0011 117.226 27.0011 117.249 27.024C117.271 27.0468 117.271 27.0468 117.294 27.0696C117.294 27.0925 117.294 27.0925 117.294 27.1153L116.678 30.5404ZM116.564 28.0058C116.449 27.8232 116.312 27.709 116.175 27.6177C116.038 27.5263 115.879 27.4807 115.719 27.4807C115.582 27.4807 115.468 27.5035 115.353 27.572C115.239 27.6405 115.148 27.7318 115.057 27.8232C114.965 27.9373 114.897 28.0515 114.828 28.1885C114.76 28.3255 114.714 28.4625 114.668 28.5995C114.6 28.8507 114.554 29.1247 114.554 29.3987C114.554 29.49 114.554 29.5814 114.577 29.6727C114.6 29.7641 114.623 29.8326 114.646 29.9239C114.691 29.9924 114.737 30.0609 114.805 30.1066C114.874 30.1522 114.965 30.1751 115.079 30.1751C115.216 30.1751 115.353 30.1294 115.49 30.0609C115.627 29.9924 115.764 29.8782 115.879 29.7412C115.993 29.6042 116.107 29.4444 116.198 29.2617C116.29 29.079 116.358 28.8735 116.404 28.6452L116.564 28.0058ZM123.071 25.5626C123.071 25.6083 123.071 25.6539 123.048 25.6768C123.048 25.6996 123.048 25.7224 123.026 25.7681C123.026 25.7909 123.026 25.8138 123.003 25.8366C123.003 25.8594 122.98 25.8823 122.957 25.9051C122.934 25.928 122.934 25.9279 122.911 25.9279C122.889 25.9279 122.866 25.928 122.843 25.9051C122.82 25.8823 122.774 25.8823 122.752 25.8823C122.706 25.8594 122.66 25.8594 122.615 25.8366C122.569 25.8366 122.523 25.8138 122.455 25.8138C122.341 25.8138 122.249 25.8366 122.181 25.8594C122.112 25.9051 122.044 25.9508 121.975 26.0193C121.93 26.0878 121.884 26.1791 121.838 26.2933C121.793 26.4075 121.77 26.5445 121.724 26.6586L121.656 27.0011H122.409C122.432 27.0011 122.455 27.0011 122.478 27.024C122.5 27.0468 122.5 27.0696 122.5 27.1153C122.5 27.1381 122.5 27.1838 122.5 27.2066C122.5 27.2295 122.5 27.2751 122.478 27.298C122.478 27.3208 122.455 27.3437 122.455 27.3893C122.432 27.435 122.409 27.4807 122.363 27.5035C122.341 27.5035 122.318 27.5263 122.318 27.5263H121.564L120.925 30.6774C120.879 30.9058 120.811 31.1113 120.742 31.2711C120.674 31.4309 120.582 31.5679 120.468 31.6821C120.354 31.7963 120.24 31.8648 120.103 31.9104C119.943 31.9789 119.783 32.0018 119.623 32.0018C119.486 32.0018 119.395 32.0018 119.304 31.9789C119.212 31.9561 119.144 31.9333 119.121 31.9104C119.098 31.8876 119.075 31.8419 119.075 31.7963C119.075 31.7734 119.075 31.7506 119.075 31.7049C119.075 31.6593 119.098 31.6136 119.098 31.5908C119.098 31.5451 119.121 31.4994 119.144 31.4766C119.167 31.4309 119.19 31.4309 119.212 31.4309C119.235 31.4309 119.258 31.4309 119.281 31.4309C119.304 31.4309 119.327 31.4538 119.372 31.4538C119.395 31.4538 119.441 31.4766 119.486 31.4766C119.532 31.4766 119.578 31.4766 119.623 31.4766C119.738 31.4766 119.806 31.4538 119.897 31.4309C119.966 31.4081 120.034 31.3396 120.103 31.2939C120.171 31.2254 120.217 31.1341 120.24 31.0428C120.286 30.9286 120.308 30.8144 120.331 30.6774L120.948 27.5492H119.212L118.824 29.4444C118.801 29.5585 118.801 29.6727 118.779 29.7869C118.779 29.9239 118.801 30.0152 118.87 30.0837C118.916 30.1522 119.007 30.1751 119.144 30.1751C119.212 30.1751 119.258 30.1751 119.327 30.1522C119.372 30.1294 119.418 30.1294 119.464 30.1066L119.555 30.0837C119.578 30.0837 119.601 30.0609 119.623 30.0609C119.646 30.0609 119.669 30.0609 119.669 30.0837C119.692 30.1066 119.692 30.1294 119.692 30.1522C119.692 30.1751 119.692 30.2207 119.669 30.2664C119.669 30.3121 119.646 30.3349 119.646 30.3806C119.646 30.4262 119.623 30.4491 119.601 30.4719C119.578 30.4947 119.578 30.5176 119.555 30.5404C119.532 30.5632 119.509 30.5861 119.464 30.5861C119.418 30.6089 119.372 30.6089 119.327 30.6317C119.212 30.6546 119.098 30.6774 118.984 30.6774C118.847 30.6774 118.71 30.6546 118.619 30.6317C118.527 30.6089 118.436 30.5632 118.367 30.4947C118.299 30.4262 118.23 30.3349 118.208 30.2436C118.185 30.1294 118.162 30.0152 118.162 29.9011C118.162 29.8326 118.162 29.7641 118.185 29.6727C118.185 29.6042 118.208 29.5129 118.23 29.4444L118.619 27.5263H118.139C118.116 27.5263 118.093 27.5263 118.071 27.5035C118.048 27.4807 118.048 27.4578 118.048 27.4122C118.048 27.3893 118.048 27.3437 118.071 27.298C118.071 27.2523 118.093 27.2067 118.116 27.161C118.116 27.1153 118.139 27.0925 118.162 27.0468C118.185 27.024 118.208 27.0011 118.253 27.0011H118.733L118.893 26.1791C118.893 26.1563 118.916 26.1335 118.916 26.1335C118.938 26.1106 118.961 26.1106 118.984 26.0878C119.007 26.065 119.053 26.065 119.075 26.065C119.121 26.065 119.167 26.065 119.235 26.065C119.304 26.065 119.349 26.065 119.395 26.065C119.418 26.065 119.464 26.0878 119.486 26.0878C119.509 26.0878 119.532 26.1106 119.532 26.1335C119.532 26.1563 119.532 26.1563 119.532 26.1791L119.372 27.0011H121.153L121.245 26.5445C121.29 26.339 121.336 26.1563 121.427 25.9965C121.496 25.8366 121.587 25.6996 121.701 25.6083C121.815 25.4941 121.93 25.4256 122.067 25.3799C122.272 25.3114 122.5 25.2886 122.706 25.3114C122.774 25.3114 122.82 25.3343 122.889 25.3343C122.934 25.3343 122.98 25.3571 123.026 25.3799C123.071 25.4028 123.094 25.4028 123.117 25.4256C123.14 25.4484 123.14 25.4484 123.14 25.4713C123.071 25.5169 123.071 25.5398 123.071 25.5626ZM125.971 28.257C125.971 28.4397 125.948 28.6452 125.926 28.8279C125.88 29.0334 125.834 29.216 125.766 29.3987C125.697 29.5814 125.606 29.7412 125.492 29.9011C125.378 30.0609 125.241 30.1979 125.104 30.3121C124.944 30.4262 124.784 30.5404 124.601 30.6089C124.396 30.6774 124.19 30.7231 123.962 30.7002C123.711 30.7002 123.505 30.6774 123.345 30.6089C123.185 30.5632 123.048 30.4719 122.911 30.3577C122.797 30.2436 122.706 30.1066 122.66 29.9467C122.615 29.7641 122.569 29.5814 122.569 29.3987C122.569 29.216 122.592 29.0105 122.615 28.8279C122.66 28.6224 122.706 28.4397 122.774 28.257C122.843 28.0743 122.934 27.9145 123.048 27.7547C123.163 27.5948 123.3 27.4578 123.437 27.3437C123.756 27.0925 124.167 26.9555 124.601 26.9555C124.852 26.9555 125.058 26.9783 125.218 27.0468C125.4 27.0925 125.537 27.1838 125.652 27.298C125.766 27.4122 125.857 27.5492 125.903 27.709C125.948 27.8688 125.971 28.0515 125.971 28.257ZM125.309 28.3027C125.309 28.1657 125.286 28.0515 125.263 27.9602C125.241 27.8688 125.195 27.7775 125.126 27.709C125.058 27.6405 124.967 27.572 124.875 27.5492C124.761 27.5035 124.647 27.4807 124.51 27.4807C124.35 27.4807 124.213 27.5035 124.099 27.572C123.985 27.6177 123.87 27.709 123.756 27.8003C123.665 27.8917 123.574 28.0058 123.505 28.12C123.437 28.2342 123.368 28.3712 123.322 28.5082C123.277 28.6452 123.231 28.805 123.208 28.942C123.185 29.079 123.163 29.2389 123.163 29.3759C123.163 29.49 123.185 29.627 123.208 29.7184C123.231 29.8097 123.277 29.9011 123.345 29.9696C123.414 30.0381 123.482 30.1066 123.596 30.1294C123.688 30.1751 123.825 30.1979 123.962 30.1979C124.122 30.1979 124.259 30.1751 124.373 30.1066C124.487 30.0609 124.601 29.9696 124.692 29.8782C124.784 29.7869 124.875 29.6727 124.944 29.5585C125.012 29.4444 125.081 29.3074 125.126 29.1704C125.172 29.0334 125.218 28.8735 125.241 28.7365C125.286 28.5767 125.309 28.4397 125.309 28.3027ZM129.122 27.1381C129.122 27.1381 129.122 27.161 129.122 27.2066C129.122 27.2751 129.099 27.3437 129.099 27.435C129.099 27.4807 129.077 27.5035 129.054 27.5492C129.031 27.572 129.031 27.6177 129.008 27.6405C128.985 27.6633 128.962 27.6633 128.962 27.6633C128.94 27.6633 128.917 27.6633 128.894 27.6633C128.871 27.6633 128.848 27.6405 128.803 27.6177C128.78 27.5948 128.734 27.5948 128.711 27.5948C128.666 27.5948 128.62 27.572 128.574 27.572C128.483 27.572 128.392 27.6177 128.277 27.6862C128.14 27.7775 128.049 27.8688 127.958 27.983C127.844 28.12 127.729 28.2798 127.661 28.4397C127.57 28.6224 127.501 28.805 127.455 29.0334L127.159 30.5632C127.159 30.5861 127.136 30.6089 127.136 30.6089C127.113 30.6317 127.09 30.6317 127.067 30.6317C127.044 30.6546 126.999 30.6546 126.976 30.6546C126.93 30.6546 126.885 30.6546 126.816 30.6546C126.77 30.6546 126.702 30.6546 126.656 30.6546C126.633 30.6546 126.588 30.6317 126.565 30.6317C126.542 30.6317 126.542 30.6089 126.519 30.6089C126.519 30.5861 126.519 30.5632 126.519 30.5632L127.204 27.1381C127.204 27.1153 127.204 27.0925 127.227 27.0925C127.25 27.0696 127.273 27.0696 127.296 27.0468C127.318 27.0468 127.364 27.024 127.387 27.024C127.433 27.024 127.478 27.024 127.524 27.024C127.57 27.024 127.615 27.024 127.661 27.024C127.707 27.024 127.729 27.024 127.729 27.0468C127.752 27.0696 127.775 27.0696 127.775 27.0925C127.775 27.1153 127.775 27.1153 127.775 27.1381L127.638 27.7547C127.707 27.6405 127.775 27.5492 127.844 27.4578C127.935 27.3665 128.003 27.2751 128.095 27.2066C128.186 27.1381 128.277 27.0696 128.392 27.024C128.483 26.9783 128.597 26.9555 128.688 26.9555C128.734 26.9555 128.78 26.9555 128.825 26.9555C128.871 26.9555 128.917 26.9783 128.962 26.9783C129.008 26.9783 129.031 27.0011 129.054 27.0011C129.077 27.0011 129.099 27.024 129.122 27.0468C129.099 27.0696 129.122 27.0925 129.122 27.1381ZM134.169 30.5404C134.169 30.5632 134.169 30.5861 134.146 30.5861C134.123 30.6089 134.1 30.6089 134.077 30.6089C134.032 30.6317 134.009 30.6317 133.963 30.6317C133.917 30.6317 133.872 30.6317 133.803 30.6317C133.735 30.6317 133.689 30.6317 133.643 30.6317C133.621 30.6317 133.575 30.6089 133.552 30.6089C133.529 30.6089 133.529 30.5861 133.506 30.5861C133.506 30.5632 133.506 30.5404 133.506 30.5404L133.917 28.4397C133.94 28.3712 133.94 28.3027 133.94 28.2342C133.94 28.1657 133.963 28.0972 133.963 28.0287C133.963 27.8688 133.94 27.7318 133.872 27.6405C133.803 27.5492 133.712 27.5035 133.552 27.5035C133.415 27.5035 133.301 27.5492 133.164 27.6177C133.027 27.709 132.89 27.8003 132.776 27.9373C132.639 28.0743 132.547 28.2342 132.456 28.4169C132.365 28.5995 132.296 28.805 132.251 29.0105L131.954 30.5404C131.954 30.5632 131.931 30.5861 131.931 30.5861C131.908 30.6089 131.885 30.6089 131.862 30.6089C131.84 30.6317 131.794 30.6317 131.748 30.6317C131.703 30.6317 131.657 30.6317 131.588 30.6317C131.52 30.6317 131.497 30.6317 131.429 30.6317C131.406 30.6317 131.36 30.6089 131.337 30.6089C131.314 30.6089 131.314 30.5861 131.292 30.5861C131.292 30.5632 131.292 30.5632 131.292 30.5404L131.703 28.4397C131.725 28.3712 131.725 28.2798 131.725 28.2113C131.725 28.1428 131.748 28.0743 131.748 28.0058C131.748 27.846 131.725 27.7318 131.657 27.6405C131.588 27.5492 131.497 27.5035 131.337 27.5035C131.2 27.5035 131.086 27.5492 130.949 27.6177C130.812 27.709 130.675 27.8003 130.561 27.9373C130.287 28.257 130.104 28.6224 130.036 29.0334L129.739 30.5632C129.739 30.5861 129.716 30.6089 129.716 30.6089C129.693 30.6317 129.67 30.6317 129.647 30.6546C129.602 30.6546 129.579 30.6774 129.533 30.6774C129.488 30.6774 129.442 30.6774 129.373 30.6774C129.305 30.6774 129.259 30.6774 129.214 30.6774C129.191 30.6774 129.145 30.6546 129.122 30.6546C129.099 30.6546 129.099 30.6317 129.077 30.6089C129.077 30.5861 129.077 30.5632 129.077 30.5632L129.762 27.1381C129.762 27.1153 129.762 27.0925 129.784 27.0925C129.807 27.0696 129.807 27.0696 129.83 27.0468C129.853 27.0468 129.899 27.024 129.921 27.024C129.967 27.024 130.013 27.024 130.058 27.024C130.104 27.024 130.15 27.024 130.195 27.024C130.241 27.024 130.264 27.024 130.287 27.0468C130.31 27.0468 130.31 27.0696 130.332 27.0925C130.332 27.1153 130.332 27.1153 130.332 27.1381L130.195 27.8003C130.241 27.709 130.287 27.6177 130.378 27.5263C130.561 27.3208 130.812 27.161 131.063 27.0696C131.2 27.024 131.337 27.0011 131.497 27.0011C131.657 27.0011 131.771 27.024 131.885 27.0696C132.091 27.1381 132.251 27.298 132.296 27.5035C132.319 27.5948 132.342 27.709 132.365 27.8232C132.433 27.7318 132.502 27.6177 132.57 27.5492C132.662 27.4578 132.753 27.3665 132.867 27.298C132.981 27.2066 133.118 27.161 133.255 27.0925C133.392 27.0468 133.529 27.0011 133.666 27.0011C133.826 27.0011 133.986 27.024 134.1 27.0696C134.214 27.1153 134.306 27.1838 134.374 27.2752C134.443 27.3665 134.488 27.4578 134.534 27.572C134.557 27.6862 134.58 27.8003 134.58 27.9373C134.58 28.0287 134.58 28.12 134.557 28.1885C134.557 28.2798 134.534 28.3712 134.511 28.4625L134.169 30.5404Z" fill="#505E5F"/>
</svg>
