<svg width="126" height="34" viewBox="0 0 126 34" fill="none" xmlns="http://www.w3.org/2000/svg">
<g clip-path="url(#clip0_364_2935)">
<path d="M48.8736 10.835C48.7699 14.0929 46.5126 15.4228 43.4072 15.7401C42.0834 15.8743 40.3629 15.673 39.1855 15.1361C37.6847 14.4467 36.7025 13.0862 36.2937 11.4451L39.521 10.3226C39.8688 11.0669 40.1982 11.8844 40.973 12.226C42.1688 12.7568 43.572 12.6775 44.7372 12.0735C45.3351 11.7623 45.573 10.7252 45.0667 10.2676C44.0844 9.38913 41.7966 9.54165 39.6552 8.96817C37.8067 8.47401 36.6964 6.9061 36.6353 4.99655C36.5682 2.80026 37.8311 1.15914 39.8566 0.475849C41.6319 -0.12203 43.5354 -0.12203 45.3351 0.40874C46.5858 0.774789 47.5375 1.57399 48.1476 2.70875C48.3428 3.07479 48.599 3.40424 48.5868 3.874L45.8049 5.08196C45.7194 5.11856 45.6279 5.23448 45.5364 5.21618C45.1887 5.13687 45.0728 4.03872 44.1576 3.60556C42.7728 2.95278 40.4545 3.19071 40.2592 4.46578C39.9603 6.43634 43.755 5.82626 46.3295 6.85729C48.0439 7.54669 48.9285 9.05359 48.8675 10.8472L48.8736 10.835Z" fill="black"/>
<path d="M38.9353 24.8669C40.0701 24.8486 40.5338 23.9762 40.546 23.0062C40.5582 22.0361 40.0274 21.182 38.972 21.1759L36.0375 21.1515V32.5783C36.0375 32.8163 35.9093 33.0664 35.647 33.0664L32.4441 33.0481L32.4319 17.912L39.7224 17.9669C41.0157 17.9791 42.1749 18.6075 43.029 19.4921C44.1454 20.8587 44.4383 22.5425 44.1332 24.2629C43.7733 26.2762 42.2725 27.7343 40.1921 28.0454L36.7452 28.1125L37.8006 24.8913L38.9414 24.873L38.9353 24.8669Z" fill="black"/>
<path d="M122.663 33.0603L122.626 24.7083L119.741 29.8269L117.441 29.833L114.598 24.812L114.537 33.042H111.212V17.9486L114.427 17.9242L118.606 25.6112L122.797 17.9242L126 17.9181L125.988 33.042L122.663 33.0603Z" fill="black"/>
<path d="M105.886 33.0847L104.672 30.6627C104.098 29.5157 103.592 27.7465 102.518 27.7404H101.023L100.987 33.042H97.4177V17.912L105.031 17.9791C107.203 17.9974 108.802 19.6446 109.143 21.7067C109.461 24.0189 108.936 26.203 106.837 27.1791L109.851 32.8224C109.76 33.0054 109.534 33.0725 109.345 33.0725L105.879 33.0847H105.886ZM105.526 22.4754C105.507 21.8104 105.013 21.2064 104.312 21.1942L101.023 21.1393V24.507L104.251 24.4765C105.245 24.4643 105.739 23.4027 105.532 22.4754H105.526Z" fill="black"/>
<path d="M66.4134 33.0603C66.0046 33.0603 65.9619 32.5844 65.846 32.3465L64.0036 28.6006C63.7351 28.0515 63.2532 27.716 62.6309 27.7221L61.3802 27.7404V32.6942C61.3802 32.9504 61.1179 33.0847 60.8861 33.0786L57.7808 33.042L57.7686 17.9059L65.3946 17.9852C67.0235 18.0035 68.3474 19.0284 69.0734 20.4011C70.1166 22.8597 69.6407 26.0016 67.1516 27.1974L68.7622 30.1563L70.1776 32.8894C70.0861 32.981 69.9092 33.0725 69.6956 33.0725L66.4012 33.0603H66.4134ZM65.8887 22.8231C65.8887 21.9324 65.4617 21.1881 64.5771 21.1759L61.3863 21.1393V24.5008L64.5771 24.4642C65.4617 24.452 65.8887 23.7077 65.8887 22.817V22.8231Z" fill="black"/>
<path d="M95.6484 28.3077C95.2397 32.3648 91.8842 33.6886 88.0468 33.2555C85.5394 32.9748 83.4773 31.2544 83.1357 28.6738L83.1479 22.1886C83.5078 19.8947 85.0696 18.3085 87.2781 17.8143L88.8277 17.613L89.8649 17.5947C90.7617 17.5825 91.6036 17.7838 92.4699 18.1316C94.3063 18.8637 95.4349 20.5475 95.6484 22.5425L95.6362 28.2955L95.6484 28.3077ZM90.4811 29.9488C91.5853 29.6743 92.0978 28.7836 92.0917 27.7281L92.0612 22.5486C91.6158 20.9501 90.1821 20.7183 88.5105 20.944C87.4978 21.0783 86.6436 21.8409 86.6436 22.9268V27.9478C86.6436 28.4297 86.8816 29.0398 87.2171 29.351C88.0834 30.1502 89.3341 30.2356 90.4811 29.9488Z" fill="black"/>
<path d="M53.9129 26.9595L49.3312 26.9839V29.6926L56.2556 29.7292L56.2922 32.5844C56.3227 32.7064 56.1824 33.0542 55.9871 33.0542H45.7378L45.7317 17.9059H56.0482L56.036 21.1332H49.3434V23.7504H54.95L53.9251 26.9595H53.9129Z" fill="black"/>
<path d="M80.8784 24.0189L79.8351 27.2157L75.168 27.234L75.1497 33.042H71.5807L71.5685 17.912H81.885L81.8728 21.1393L75.1802 21.1454L75.1741 24.0006L80.8784 24.0189Z" fill="black"/>
<path d="M96.5514 14.5565C94.1843 16.2464 89.3219 16.2708 87.205 14.0807C86.5095 13.3608 86.1312 12.4273 85.8201 11.4634L89.0047 10.2799C89.3646 10.835 89.4439 11.5366 90.0113 11.921C91.2315 12.7629 93.0007 12.769 94.2575 12.0613C94.7211 11.799 94.8249 11.2987 94.8371 10.8899C94.8798 9.25492 91.3291 9.70028 88.8583 8.83396C87.2599 8.27269 86.3325 6.92441 86.1922 5.25279C86.0214 3.24562 86.9426 1.50079 88.8339 0.701586C90.9814 -0.213535 93.562 -0.286745 95.7156 0.73209C96.9479 1.31777 97.6617 2.54403 98.2413 3.76419L94.9652 5.22229L94.2819 4.00822C93.1837 3.0382 91.3718 2.95278 90.1455 3.77029C89.7307 4.05093 89.7368 4.98435 90.0357 5.28939C90.9814 6.26552 93.3363 5.96048 95.5753 6.71088C96.9418 7.16844 97.9973 8.16898 98.3145 9.57826C98.7416 11.4817 98.162 13.4157 96.5758 14.5504L96.5514 14.5565Z" fill="black"/>
<path d="M65.8033 12.6713L66.6635 9.87107L69.0307 9.82227L67.3956 4.94772L63.8877 15.4228H60.1418L65.785 0.402618H69.1222L74.7288 15.4045L70.8548 15.4289L69.9336 12.7018L65.8033 12.6713Z" fill="black"/>
<path d="M57.5306 15.3984L54.0653 15.435L54.0409 3.62384L49.8558 3.59944L49.8314 0.390411L62.881 0.408714L61.8011 3.59944L57.5306 3.62994V15.3984Z" fill="black"/>
<path d="M80.8906 15.3984L77.4131 15.4289V3.62994L73.0511 3.62384L72.0566 0.396512L84.6182 0.390411L84.5999 3.60554L80.8906 3.62994V15.3984Z" fill="black"/>
<path d="M10.2249 33.3104L4.32544 33.3226L6.49123 26.7399L15.3801 0.0427138L21.2674 0.0183105L14.6602 19.8947L10.2249 33.3104Z" fill="black"/>
<path d="M21.1638 26.4775L15.2643 26.4836L21.481 7.84567L27.35 7.87618L21.1638 26.4775Z" fill="black"/>
<path d="M5.86284 20.2547L0.128083 20.2059C0.0548731 20.1144 0.0487723 19.9863 0.0975788 19.8277L5.61271 3.25177H11.4878L9.07797 10.5849L5.86284 20.2547Z" fill="black"/>
<path d="M5.86287 20.2547L0.0366025 20.273C-0.0549096 20.1144 0.0610057 19.968 0.0976106 19.8276C0.103711 19.8886 0.109812 20.1266 0.164719 20.1388L5.86287 20.2547Z" fill="black"/>
</g>
<defs>
<clipPath id="clip0_364_2935">
<rect width="126" height="33.3348" fill="white"/>
</clipPath>
</defs>
</svg>
