<svg width="96" height="26" viewBox="0 0 96 26" fill="none" xmlns="http://www.w3.org/2000/svg">
<g clip-path="url(#clip0_326_3409)">
<mask id="mask0_326_3409" style="mask-type:luminance" maskUnits="userSpaceOnUse" x="0" y="0" width="96" height="26">
<path d="M95.9762 0H0V25.9916H95.9762V0Z" fill="white"/>
</mask>
<g mask="url(#mask0_326_3409)">
<path d="M13.8856 9.85228C15.7219 11.0341 16.9898 13.2267 17.123 15.4003C17.2888 18.1 16.9684 20.9732 17.1218 23.6797C17.1576 24.3118 17.2808 24.9439 17.4668 25.5455L17.765 25.9908C17.2639 25.9888 16.7587 26.006 16.2604 25.9462C12.9312 25.5467 10.2553 22.7402 10.0355 19.3819C9.86082 16.7168 10.178 13.8644 10.0367 11.1828C10.0021 10.5258 9.88296 9.42592 9.51103 8.90391C9.47601 8.85448 9.40235 8.80666 9.35284 8.7717C9.39149 8.67847 9.97111 8.70459 10.0991 8.70941C11.398 8.76004 12.7891 9.14703 13.8852 9.85228H13.8856Z" fill="black"/>
<path d="M0.0148922 25.9907C0.0499109 25.3007 -0.0326047 24.5666 0.0156972 23.8818C0.154967 21.8962 1.07713 19.8371 2.73952 18.6846C3.72608 18.0007 4.93846 17.7427 5.94475 17.0221C6.16211 16.8666 6.34284 16.6673 6.55577 16.507C6.58515 16.8317 6.58636 17.1668 6.5779 17.4935C6.49378 20.7618 6.22007 23.2653 8.77282 25.6849C8.86419 25.7717 8.97811 25.8802 9.03164 25.9911H0.0148922V25.9907Z" fill="black"/>
<path d="M81.3231 9.35398C81.5988 9.37367 81.9389 9.20489 82.1627 9.41989L82.2891 11.3633C82.399 11.385 82.3579 11.3359 82.3865 11.2821C83.2076 9.73655 84.4144 8.94208 86.2414 9.28607C87.5464 9.5316 88.353 10.3843 88.7897 11.6044L89.2595 10.7882C90.1539 9.4661 91.7486 8.98548 93.2927 9.31862C95.0211 9.69114 95.8539 11.2061 95.9754 12.869L95.9738 19.24H95.0078L95.0094 13.2307C94.8673 11.2061 93.7491 9.75986 91.557 10.2288C90.0561 10.5499 89.4571 11.7342 89.1709 13.1511C89.0667 15.0503 89.3106 17.0981 89.1729 18.98C89.1665 19.07 89.1371 19.1508 89.1311 19.2396H88.1852L88.1248 19.1793V12.7898C88.1248 12.6452 87.8716 11.8029 87.7979 11.6377C87.1088 10.0938 85.1051 9.7048 83.749 10.6311C82.7995 11.2797 82.4557 12.4772 82.2919 13.5566L82.2887 19.2396H81.3227V9.35398H81.3231Z" fill="black"/>
<path d="M7.21952 8.71142L6.97438 9.1615C6.26233 10.5728 6.95989 12.339 6.10253 13.7242C4.7855 15.852 1.60604 15.8094 0.428681 13.5823C-0.754313 11.3448 0.78531 8.86654 3.25515 8.71182C4.54721 8.63105 5.91899 8.7713 7.21911 8.71182L7.21952 8.71142Z" fill="black"/>
<path d="M10.1422 0.569434C11.6697 1.55157 11.9809 3.75494 10.9404 5.21246C9.538 7.17753 6.48492 6.94967 5.36834 4.8327C3.77076 1.80273 7.22354 -1.30723 10.1422 0.569434Z" fill="black"/>
<path d="M70.8979 12.1267C70.9043 12.0295 70.8846 11.9238 70.9003 11.8278C71.4489 8.45097 78.3883 8.05274 78.7059 12.228C78.844 14.0436 78.687 15.9464 78.7449 17.7748C78.7582 17.8753 78.8931 18.1284 78.9659 18.1972C79.0014 18.2305 79.2312 18.3559 79.2497 18.3559H79.8937C79.901 18.3559 79.9944 18.4491 79.9944 18.4564V19.2199C79.9944 19.375 79.7045 19.2773 79.6502 19.2781C79.5649 19.2794 79.4916 19.3195 79.4147 19.3167C78.848 19.2958 78.14 19.1556 77.9129 18.5649C77.8936 18.5142 77.7801 18.1574 77.7801 18.1349V17.3513C77.6831 17.3296 77.7149 17.3685 77.6904 17.4039C77.5857 17.5546 77.5088 17.7447 77.3901 17.9038C75.5445 20.3728 70.1118 19.8882 70.4978 16.1288C70.5578 15.5453 70.8609 14.9791 71.2791 14.5768C72.871 13.045 75.6319 13.8467 77.601 13.616C77.6598 13.6092 77.7044 13.6112 77.7399 13.5537V12.4687L77.6891 12.0773C77.3096 10.455 75.902 10.0162 74.3768 10.1163C73.2172 10.1922 72.0439 10.9192 71.8627 12.1271H70.8967L70.8979 12.1267ZM77.3647 16.896C77.6779 16.2896 77.8256 15.2721 77.7427 14.5961C77.7387 14.5628 77.7435 14.5242 77.7234 14.4949L77.6404 14.4571C75.7993 14.6299 71.232 13.6325 71.5025 16.7272C71.6961 18.9414 75.0245 18.8956 76.4325 17.913C76.7247 17.7093 77.2126 17.1905 77.3647 16.8955V16.896Z" fill="black"/>
<path d="M60.513 12.1268C60.5786 11.9978 60.54 11.8587 60.5706 11.7221C61.3116 8.4285 67.7072 8.20024 68.2719 11.9552C68.5331 13.6928 68.1668 15.7997 68.3222 17.5711C68.3347 17.7121 68.3858 17.9593 68.4554 18.0814C68.5033 18.1654 68.7416 18.3555 68.8249 18.3555H69.5092L69.5696 18.4158V19.2195C69.5157 19.283 69.3848 19.3023 69.3011 19.3047C68.6213 19.3248 67.7691 19.2553 67.4886 18.5243C67.4685 18.4716 67.3558 18.0786 67.3558 18.0541V17.3509C67.1597 17.5892 67.0273 17.8833 66.8321 18.1232C64.8481 20.5617 59.0732 19.4932 60.259 15.6309C61.0946 12.9092 65.0284 13.7816 67.136 13.6156C67.2133 13.6096 67.2817 13.5919 67.3554 13.5734V12.3478C67.3554 12.1501 67.0792 11.4468 66.9625 11.2531C65.9723 9.60633 62.6226 9.751 61.7242 11.4364C61.6094 11.6518 61.5628 11.9069 61.4581 12.1268H60.5122H60.513ZM67.3558 14.4977C67.2821 14.4792 67.2137 14.4615 67.1364 14.4555C66.1679 14.3796 63.3813 14.3639 62.5248 14.6376C60.8414 15.1752 60.6482 17.412 62.1504 18.2277C63.7673 19.1054 66.4364 18.3382 67.1227 16.5355C67.1742 16.4005 67.3558 15.7406 67.3558 15.643V14.4977Z" fill="black"/>
<path d="M58.3998 15.9846L58.4541 16.0778C58.2597 16.7493 57.9792 17.3806 57.5324 17.9219C56.2423 19.4859 53.8679 19.7925 52.0646 18.9736C48.4657 17.3388 48.5257 10.9461 52.2944 9.52756C53.1345 9.2113 54.3344 9.11446 55.2123 9.31418C55.2421 9.32101 55.236 9.38531 55.2674 9.39294C55.3419 9.41062 55.4324 9.3841 55.5242 9.41143C57.6942 10.0572 58.6864 12.1376 58.5805 14.2968L50.4493 14.3366C50.463 14.4989 50.4312 14.6818 50.4481 14.8405C50.5185 15.4883 50.7379 16.2618 51.0647 16.8369C52.3222 19.0515 55.8036 19.0849 57.0848 16.8815C57.2502 16.597 57.3416 16.2956 57.4736 15.9846H58.3994H58.3998ZM50.591 13.4931H57.5344C57.435 12.1368 56.7946 10.8967 55.49 10.3703C53.4178 9.53399 51.1871 10.6254 50.6554 12.7938C50.6248 12.9192 50.535 13.3006 50.5383 13.4026C50.5399 13.4517 50.5527 13.4645 50.591 13.4931Z" fill="black"/>
<path d="M29.479 16.2659C29.4907 16.3575 29.4597 16.4745 29.4798 16.56C29.4835 16.5757 29.5507 16.7823 29.5696 16.8385C30.2197 18.7702 33.4338 19.0098 34.8414 17.9521C35.8472 17.1962 35.7555 15.6961 34.5862 15.1656C32.803 14.3567 28.6656 15.0004 28.6338 12.1067C28.5959 8.67124 34.7001 8.30354 36.0058 10.9353C36.1789 11.2845 36.3121 11.7414 36.3214 12.1272H35.3151C35.2394 11.3255 34.6783 10.6918 33.955 10.3707C32.5941 9.76669 29.6493 10.0564 29.6364 11.9861C29.6256 13.5642 31.6039 13.5847 32.7185 13.7756C34.4127 14.0657 36.4486 14.3362 36.5243 16.4857C36.5718 17.8287 35.5285 18.8213 34.3157 19.187C32.9833 19.5888 31.1112 19.4719 29.927 18.7727C29.0266 18.2414 28.4949 17.3183 28.4724 16.2667H29.4786L29.479 16.2659Z" fill="black"/>
<path d="M40.1457 6.58118V9.2937L40.2061 9.35397H42.7822L42.8426 9.41425V10.2381H40.186L40.1437 10.4571C40.2439 12.6098 40.0173 14.8714 40.1437 17.0113C40.1715 17.4831 40.3063 18.0967 40.828 18.2571C40.8722 18.2707 41.2305 18.3555 41.2526 18.3555H42.9231V19.2396H40.9709C40.838 19.2396 40.3981 19.1198 40.2592 19.066C39.6092 18.8132 39.3149 18.2555 39.1889 17.6028C39.034 15.2813 39.3628 12.7549 39.1817 10.4575C39.1756 10.3799 39.1579 10.312 39.1394 10.2385H37.2878V9.35438H39.079C39.0883 9.35438 39.1797 9.229 39.1797 9.21373V6.58158H40.1457V6.58118Z" fill="black"/>
<path d="M45.3381 9.39414C45.2935 9.70236 45.3949 9.99612 45.4203 10.2967C45.4275 10.3827 45.4118 11.2857 45.5193 11.2833C45.7624 10.5414 46.3098 9.91414 47.0416 9.62802C47.2292 9.55448 47.752 9.39414 47.9344 9.39414H49.001V10.3184L47.6949 10.3606C46.0112 10.6688 45.5338 12.2662 45.4569 13.7924L45.4585 19.2392H44.4925V9.39374H45.3377L45.3381 9.39414Z" fill="black"/>
</g>
</g>
<defs>
<clipPath id="clip0_326_3409">
<rect width="96" height="26" fill="white"/>
</clipPath>
</defs>
</svg>
