<svg width="108" height="30" viewBox="0 0 108 30" fill="none" xmlns="http://www.w3.org/2000/svg">
<g clip-path="url(#clip0_326_3409)">
<mask id="mask0_326_3409" style="mask-type:luminance" maskUnits="userSpaceOnUse" x="0" y="0" width="108" height="30">
<path d="M107.973 0H0V29.2405H107.973V0Z" fill="white"/>
</mask>
<g mask="url(#mask0_326_3409)">
<path d="M15.6213 11.0838C17.6871 12.4134 19.1135 14.88 19.2634 17.3253C19.45 20.3624 19.0895 23.5948 19.262 26.6396C19.3024 27.3508 19.4409 28.0619 19.6501 28.7387L19.9857 29.2396C19.4219 29.2373 18.8536 29.2568 18.293 29.1894C14.5476 28.74 11.5372 25.5827 11.29 21.8046C11.0934 18.8063 11.4503 15.5974 11.2913 12.5806C11.2524 11.8415 11.1183 10.6041 10.6999 10.0169C10.6605 9.96126 10.5777 9.90746 10.522 9.86813C10.5654 9.76325 11.2175 9.79263 11.3615 9.79806C12.8228 9.85502 14.3878 10.2904 15.6208 11.0838H15.6213Z" fill="black"/>
<path d="M0.0167728 29.2396C0.0561688 28.4634 -0.0366612 27.6374 0.0176785 26.8671C0.174358 24.6333 1.21179 22.3168 3.08198 21.0202C4.19186 20.2508 5.55578 19.9605 6.68786 19.1499C6.93239 18.975 7.13571 18.7508 7.37526 18.5704C7.40831 18.9357 7.40967 19.3127 7.40016 19.6802C7.30552 23.3571 6.9976 26.1736 9.86944 28.8956C9.97224 28.9932 10.1004 29.1153 10.1606 29.2401H0.0167728V29.2396Z" fill="black"/>
<path d="M91.4885 10.5232C91.7987 10.5454 92.1813 10.3555 92.4331 10.5973L92.5753 12.7836C92.6989 12.8081 92.6527 12.7529 92.6849 12.6923C93.6086 10.9536 94.9662 10.0598 97.0216 10.4468C98.4897 10.723 99.3972 11.6824 99.8885 13.0549L100.417 12.1367C101.423 10.6493 103.217 10.1086 104.954 10.4834C106.899 10.9025 107.836 12.6069 107.972 14.4776L107.971 21.645H106.884L106.886 14.8845C106.726 12.6069 105.468 10.9798 103.002 11.5074C101.313 11.8686 100.639 13.2009 100.317 14.795C100.2 16.9315 100.474 19.2354 100.32 21.3525C100.312 21.4538 100.279 21.5446 100.272 21.6445H99.2083L99.1404 21.5767V14.3885C99.1404 14.2258 98.8556 13.2782 98.7727 13.0924C97.9975 11.3555 95.7433 10.9179 94.2177 11.9599C93.1495 12.6896 92.7628 14.0368 92.5785 15.2511L92.5748 21.6445H91.488V10.5232H91.4885Z" fill="black"/>
<path d="M8.12206 9.80035L7.84629 10.3067C7.04523 11.8944 7.82998 13.8813 6.86546 15.4397C5.38379 17.8335 1.8069 17.7856 0.482371 15.2801C-0.848497 12.7629 0.883578 9.97485 3.66214 9.8008C5.11572 9.70993 6.65897 9.86771 8.12161 9.8008L8.12206 9.80035Z" fill="black"/>
<path d="M11.41 0.640621C13.1285 1.74552 13.4786 4.22431 12.308 5.86402C10.7303 8.07472 7.29562 7.81839 6.03947 5.4368C4.24219 2.02807 8.12656 -1.47062 11.41 0.640621Z" fill="black"/>
<path d="M79.7602 13.6426C79.7675 13.5332 79.7453 13.4143 79.7629 13.3063C80.3801 9.5074 88.1869 9.05938 88.5442 13.7566C88.6995 15.7991 88.5229 17.9397 88.5881 19.9967C88.6031 20.1097 88.7548 20.3945 88.8367 20.4719C88.8766 20.5094 89.1351 20.6504 89.156 20.6504H89.8805C89.8887 20.6504 89.9937 20.7553 89.9937 20.7635V21.6224C89.9937 21.7969 89.6677 21.6871 89.6065 21.688C89.5105 21.6893 89.4281 21.7345 89.3416 21.7314C88.7041 21.7079 87.9075 21.5501 87.6521 20.8855C87.6304 20.8286 87.5027 20.4271 87.5027 20.4018V19.5202C87.3936 19.4958 87.4293 19.5397 87.4017 19.5794C87.284 19.749 87.1975 19.9628 87.0639 20.1418C84.9877 22.9195 78.8758 22.3742 79.3101 18.145C79.3776 17.4885 79.7185 16.8515 80.189 16.399C81.98 14.6757 85.0859 15.5776 87.3012 15.3181C87.3673 15.3104 87.4176 15.3126 87.4574 15.248V14.0274L87.4004 13.587C86.9733 11.762 85.3898 11.2683 83.674 11.3808C82.3694 11.4663 81.0494 12.2841 80.8456 13.6431H79.7588L79.7602 13.6426ZM87.0354 19.008C87.3877 18.3258 87.5539 17.1811 87.4606 16.4207C87.4561 16.3832 87.4615 16.3398 87.4388 16.3068L87.3456 16.2643C85.2743 16.4587 80.1361 15.3366 80.4404 18.8181C80.6582 21.3091 84.4026 21.2576 85.9866 20.1522C86.3154 19.923 86.8642 19.3394 87.0354 19.0075V19.008Z" fill="black"/>
<path d="M68.0771 13.6426C68.1509 13.4975 68.1074 13.3411 68.1418 13.1873C68.9755 9.48204 76.1705 9.22526 76.8058 13.4496C77.0997 15.4044 76.6876 17.7747 76.8624 19.7675C76.8765 19.9261 76.934 20.2042 77.0123 20.3416C77.0662 20.4361 77.3343 20.6499 77.428 20.6499H78.1978L78.2657 20.7177V21.6219C78.2051 21.6934 78.0579 21.7151 77.9637 21.7178C77.1989 21.7404 76.2402 21.6622 75.9246 20.8398C75.902 20.7806 75.7752 20.3384 75.7752 20.3109V19.5197C75.5546 19.7878 75.4057 20.1187 75.186 20.3886C72.954 23.1319 66.4573 21.9298 67.7913 17.5848C68.7314 14.5228 73.1569 15.5043 75.5279 15.3176C75.6149 15.3108 75.6918 15.2909 75.7747 15.2701V13.8912C75.7747 13.6688 75.4641 12.8777 75.3328 12.6598C74.2188 10.8071 70.4503 10.9699 69.4396 12.8659C69.3106 13.1082 69.258 13.3953 69.1403 13.6426H68.0762H68.0771ZM75.7752 16.3099C75.6923 16.2891 75.6153 16.2692 75.5284 16.2624C74.4389 16.177 71.3039 16.1594 70.3403 16.4672C68.4466 17.0721 68.2292 19.5884 69.9192 20.5062C71.7382 21.4935 74.7409 20.6305 75.513 18.6024C75.5709 18.4505 75.7752 17.7082 75.7752 17.5984V16.3099Z" fill="black"/>
<path d="M65.6998 17.9827L65.7609 18.0876C65.5422 18.843 65.2266 19.5532 64.7239 20.1622C63.2726 21.9217 60.6014 22.2666 58.5727 21.3453C54.5239 19.5062 54.5914 12.3144 58.8312 10.7185C59.7763 10.3628 61.1262 10.2538 62.1138 10.4785C62.1473 10.4862 62.1405 10.5585 62.1758 10.5671C62.2596 10.587 62.3615 10.5572 62.4648 10.5879C64.906 11.3144 66.0222 13.6548 65.9031 16.0839L56.7555 16.1287C56.7709 16.3113 56.7351 16.517 56.7541 16.6956C56.8334 17.4243 57.0801 18.2946 57.4478 18.9415C58.8625 21.433 62.779 21.4705 64.2204 18.9917C64.4065 18.6717 64.5093 18.3326 64.6578 17.9827H65.6993H65.6998ZM56.9149 15.1797H64.7262C64.6143 13.6539 63.8939 12.2588 62.4263 11.6666C60.0951 10.7258 57.5855 11.9536 56.9873 14.3931C56.9529 14.5342 56.8519 14.9632 56.8555 15.078C56.8574 15.1332 56.8718 15.1476 56.9149 15.1797Z" fill="black"/>
<path d="M33.1639 18.2991C33.177 18.4022 33.1422 18.5337 33.1648 18.63C33.1689 18.6477 33.2445 18.88 33.2658 18.9433C33.9971 21.1165 37.613 21.386 39.1965 20.1961C40.3281 19.3457 40.2249 17.658 38.9094 17.0613C36.9034 16.1512 32.2487 16.8755 32.213 13.62C32.1704 9.75512 39.0376 9.34146 40.5065 12.3022C40.7013 12.695 40.8511 13.2091 40.8616 13.6431H39.7295C39.6444 12.7411 39.0131 12.0282 38.1994 11.667C36.6684 10.9875 33.3554 11.3135 33.341 13.4844C33.3287 15.2597 35.5544 15.2828 36.8083 15.4975C38.7142 15.8239 41.0047 16.1282 41.0898 18.5464C41.1432 20.0573 39.9695 21.1739 38.6051 21.5853C37.1062 22.0374 35.0001 21.9058 33.6679 21.1192C32.6549 20.5216 32.0567 19.4831 32.0314 18.3H33.1634L33.1639 18.2991Z" fill="black"/>
<path d="M45.1639 7.40381V10.4554L45.2319 10.5232H48.13L48.1979 10.591V11.5178H45.2092L45.1617 11.7642C45.2744 14.186 45.0195 16.7304 45.1617 19.1377C45.1929 19.6685 45.3446 20.3588 45.9315 20.5392C45.9813 20.5546 46.3843 20.6499 46.4092 20.6499H48.2885V21.6445H46.0922C45.9428 21.6445 45.4479 21.5098 45.2916 21.4492C44.5603 21.1649 44.2293 20.5374 44.0876 19.8032C43.9132 17.1915 44.2832 14.3492 44.0794 11.7646C44.0726 11.6774 44.0527 11.601 44.0319 11.5182H41.9489V10.5237H43.9639C43.9744 10.5237 44.0772 10.3826 44.0772 10.3654V7.40426H45.1639V7.40381Z" fill="black"/>
<path d="M51.0055 10.5684C50.9552 10.9152 51.0693 11.2457 51.0979 11.5838C51.106 11.6806 51.0883 12.6964 51.2092 12.6937C51.4828 11.8592 52.0986 11.1534 52.9218 10.8316C53.1329 10.7488 53.7211 10.5684 53.9262 10.5684H55.1262V11.6082L53.6568 11.6557C51.7626 12.0025 51.2255 13.7995 51.1391 15.5165L51.1409 21.6441H50.0541V10.568H51.005L51.0055 10.5684Z" fill="black"/>
</g>
</g>
<defs>
<clipPath id="clip0_326_3409">
<rect width="108" height="29.25" fill="white"/>
</clipPath>
</defs>
</svg>
