<svg width="128" height="29" viewBox="0 0 128 29" fill="none" xmlns="http://www.w3.org/2000/svg">
<path d="M13.5611 0.509888C1.83534 0.509888 0 2.29425 0 14.0201C0 25.7459 1.83534 27.5812 13.5102 27.5812C25.185 27.5812 27.0203 25.7459 27.0203 14.0201C27.0203 2.29425 25.236 0.509888 13.5611 0.509888ZM21.5143 21.0555L20.3927 22.1771L13.6121 15.3966C13.4592 16.0083 13.1533 16.6201 12.6945 17.079C11.3689 18.4045 9.17671 18.4045 7.80021 17.079C6.9845 16.2632 6.67861 15.1417 6.83155 14.122C7.08646 14.224 7.29039 14.3259 7.5453 14.3769C7.80021 14.4279 8.1061 14.4789 8.36101 14.5299C8.36101 15.0397 8.51395 15.5495 8.87082 15.9574C9.58457 16.6711 10.7571 16.6711 11.4709 15.9574C12.1846 15.2436 12.1846 14.071 11.4709 13.3573C11.165 13.0514 10.9611 12.7455 10.8081 12.3886C9.99242 12.9494 8.97279 13.2043 7.95315 12.8985C6.11781 12.3886 5.04719 10.5023 5.50603 8.66697C6.01585 6.83162 7.90217 5.76101 9.73751 6.21984C10.7571 6.47475 11.5729 7.1885 11.9807 8.10617C13.3062 7.13751 15.1926 7.29046 16.4161 8.46304C17.7416 9.78857 17.7416 11.9808 16.4161 13.3573L16.2122 13.5612L15.0906 12.4396C15.1416 12.3886 15.2435 12.3377 15.2945 12.2357C16.0083 11.5219 16.0083 10.3494 15.2945 9.63562C14.5808 8.92188 13.4082 8.92188 12.6945 9.63562C11.9807 10.3494 11.9807 11.5219 12.6945 12.2357L18.0475 17.6398L19.0672 15.1926L20.2907 16.4162L19.1182 18.9653L21.6672 17.7927L22.8908 19.0163L20.4437 20.0359L21.4633 21.0555H21.5143Z" fill="white"/>
<path d="M9.38065 7.80027C8.71788 7.64733 8.05512 7.80027 7.59628 8.25911C7.39236 8.46304 7.18843 8.76893 7.13745 9.07482C6.88254 10.0435 7.44334 11.0631 8.41199 11.318C9.38065 11.5729 10.4003 11.0121 10.6552 10.0435C10.9101 9.07482 10.3493 8.05518 9.38065 7.80027Z" fill="white"/>
<path d="M42.2129 14.071C41.7031 13.7651 41.1932 13.5102 40.6324 13.3573C40.0716 13.2043 39.4599 13.0004 38.8991 12.8984C38.5932 12.8475 38.2873 12.7455 37.9304 12.6435C37.5735 12.5416 37.2167 12.4396 36.9108 12.2867C36.6049 12.1337 36.35 11.9808 36.146 11.7769C35.9421 11.5729 35.8402 11.318 35.8402 10.9611C35.8402 10.6043 35.8911 10.4513 36.0441 10.2474C36.197 10.0435 36.35 9.89053 36.5539 9.73758C36.7578 9.58464 37.0127 9.53365 37.2676 9.43169C37.5225 9.32973 37.8284 9.32973 38.1343 9.32973C38.4402 9.32973 38.6951 9.32973 39.001 9.43169C39.2559 9.53365 39.5108 9.63562 39.7148 9.78856C39.9187 9.94151 40.0716 10.1454 40.2246 10.3494C40.3775 10.5533 40.4285 10.8082 40.4285 11.1141H43.4874C43.4874 10.4513 43.3345 9.83954 43.0796 9.32973C42.8247 8.81991 42.4678 8.36107 42.0599 7.95322C41.6011 7.59635 41.0913 7.29046 40.4285 7.08653C39.7657 6.8826 39.052 6.78064 38.2873 6.78064C37.5225 6.78064 36.7578 6.8826 36.0951 7.03555C35.4323 7.23948 34.8715 7.49438 34.4127 7.85126C33.9538 8.20813 33.597 8.61598 33.342 9.1258C33.0871 9.63562 32.9852 10.1964 32.9852 10.8592C32.9852 11.5219 33.1381 12.2357 33.444 12.6945C33.7499 13.1534 34.1068 13.5612 34.5656 13.8671C35.0244 14.173 35.5343 14.3769 36.146 14.5808C36.7068 14.7338 37.2676 14.9377 37.8284 15.0397C38.1343 15.0907 38.4912 15.1926 38.8481 15.2946C39.2049 15.3966 39.5618 15.4985 39.8677 15.6515C40.1736 15.8044 40.4285 15.9574 40.6324 16.2123C40.8364 16.4672 40.9383 16.7221 40.9383 17.079C40.9383 17.4358 40.8873 17.6398 40.7344 17.8437C40.5815 18.0986 40.4285 18.2515 40.1736 18.4045C39.9697 18.5574 39.7148 18.6594 39.4089 18.7614C39.103 18.8123 38.7971 18.8633 38.4912 18.8633C38.1853 18.8633 37.7775 18.8633 37.4716 18.7104C37.1657 18.6084 36.8598 18.5064 36.6559 18.3025C36.401 18.1496 36.197 17.8947 36.0951 17.6398C35.9421 17.3848 35.8911 17.079 35.8402 16.7221H32.7812C32.7812 17.4358 32.9852 18.0476 33.2401 18.6084C33.495 19.1692 33.9028 19.679 34.3617 20.0869C34.8715 20.4947 35.4323 20.8006 36.0951 21.0045C36.7578 21.2085 37.5226 21.3104 38.3892 21.3104C39.2559 21.3104 39.9187 21.2085 40.5815 21.0045C41.2442 20.8006 41.856 20.5457 42.3148 20.1379C42.8247 19.781 43.1815 19.2712 43.4364 18.7614C43.6913 18.2006 43.8443 17.5888 43.8443 16.875C43.8443 16.1613 43.6913 15.4985 43.3855 14.9887C43.0796 14.4789 42.6717 14.071 42.2129 13.7651V14.071ZM52.1543 16.977C52.1543 17.5888 51.9504 18.0986 51.5935 18.5064C51.2366 18.9143 50.7268 19.1182 50.115 19.1182C49.5033 19.1182 48.9934 18.9143 48.6366 18.5064C48.2797 18.0986 48.0758 17.5888 48.0758 16.977V11.318H45.3228V17.2829C45.3228 17.9456 45.4247 18.5064 45.6796 19.0672C45.8836 19.628 46.2404 20.0359 46.6483 20.4437C47.0561 20.8006 47.566 21.1065 48.1777 21.3104C48.7895 21.5144 49.4013 21.6163 50.115 21.6163C50.8288 21.6163 51.4915 21.5144 52.0523 21.3104C52.6131 21.1065 53.123 20.8006 53.5818 20.4437C53.9897 20.0359 54.3465 19.5771 54.5505 19.0672C54.7544 18.5064 54.9073 17.9456 54.9073 17.2829V11.369H52.1543V17.028V16.977ZM66.3782 12.5926C65.9194 12.1337 65.4096 11.7769 64.7978 11.471C64.186 11.2161 63.5232 11.0631 62.7585 11.0631C61.9938 11.0631 61.2291 11.2161 60.7192 11.471C60.1584 11.7259 59.7506 12.1337 59.4447 12.5416L59.2918 11.267H56.8956V25.4909H59.6996V20.1888C60.0055 20.5967 60.4643 20.9026 60.9742 21.1575C61.484 21.4124 62.1467 21.5144 62.9624 21.5144C63.7781 21.5144 64.288 21.4124 64.8997 21.1575C65.5115 20.9026 66.0213 20.5457 66.4292 20.0869C66.888 19.628 67.1939 19.0672 67.4488 18.4555C67.7037 17.8437 67.8057 17.1299 67.8057 16.3652C67.8057 15.6005 67.7037 14.8867 67.4488 14.275C67.1939 13.6122 66.888 13.0514 66.4292 12.5926H66.3782ZM64.8997 17.4868C64.7468 17.8437 64.5939 18.1496 64.3389 18.3535C64.084 18.6084 63.8291 18.8123 63.4723 18.9653C63.1154 19.1182 62.7585 19.1692 62.3507 19.1692C61.9428 19.1692 61.5859 19.1182 61.2291 18.9653C60.8722 18.8123 60.6173 18.6084 60.3624 18.3535C60.1075 18.0986 59.9545 17.7927 59.8016 17.4868C59.6486 17.1299 59.5976 16.7731 59.5976 16.3652C59.5976 15.9574 59.6486 15.6005 59.8016 15.2436C59.9545 14.8867 60.1075 14.5808 60.3624 14.3259C60.6173 14.071 60.9232 13.8671 61.2291 13.7142C61.5859 13.5612 61.9428 13.5102 62.3507 13.5102C62.7585 13.5102 63.1154 13.5612 63.4723 13.7142C63.8291 13.8671 64.084 14.071 64.3389 14.3259C64.5939 14.5808 64.7468 14.8867 64.8997 15.2436C65.0527 15.6005 65.1037 15.9574 65.1037 16.3652C65.1037 16.7731 65.0527 17.1299 64.8997 17.4868ZM77.8491 12.5416C77.3903 12.0827 76.8295 11.7769 76.2177 11.5219C75.6059 11.267 74.8922 11.1651 74.1274 11.1651C73.3627 11.1651 72.547 11.318 71.8842 11.5729C71.2215 11.8788 70.6607 12.2357 70.2528 12.7455C69.794 13.2553 69.4371 13.7651 69.2332 14.4279C68.9783 15.0397 68.8763 15.7024 68.8763 16.4162C68.8763 17.1299 68.9783 17.7927 69.2332 18.4045C69.4371 19.0163 69.794 19.5771 70.2528 20.0869C70.7117 20.5967 71.2215 20.9536 71.8842 21.2595C72.547 21.5653 73.2607 21.6673 74.1274 21.6673C75.351 21.6673 76.4216 21.3614 77.3393 20.7496C78.257 20.1379 78.8687 19.2712 79.2256 18.2006H76.4726C76.2687 18.6084 75.9628 18.9143 75.6059 19.0672C75.249 19.2712 74.7902 19.3731 74.3314 19.3731C73.8725 19.3731 73.4647 19.3221 73.1588 19.1692C72.8019 19.0163 72.547 18.8123 72.2921 18.5574C72.0882 18.3025 71.8842 17.9456 71.7823 17.5888C71.7823 17.4358 71.7313 17.2829 71.6803 17.1299H79.3276C79.3276 16.977 79.3276 16.875 79.3786 16.7221V16.2632C79.3786 15.4985 79.2766 14.8358 79.0217 14.173C78.7668 13.5612 78.4099 13.0004 77.9511 12.5926L77.8491 12.5416ZM71.6293 15.3456V15.1416C71.7313 14.7848 71.8842 14.4789 72.0882 14.224C72.2921 13.9691 72.547 13.7651 72.9039 13.6122C73.2098 13.4592 73.6176 13.3573 74.0255 13.3573C74.4333 13.3573 74.5863 13.3573 74.8922 13.5102C75.1471 13.6122 75.402 13.7142 75.6569 13.9181C75.8936 14.0933 76.0924 14.3147 76.2413 14.5687C76.3903 14.8228 76.4863 15.1044 76.5236 15.3966H71.5784L71.6293 15.3456ZM86.7199 11.1141C85.9552 11.1141 85.2924 11.267 84.7316 11.6239C84.1708 11.9808 83.814 12.4396 83.5591 13.1024L83.3551 11.369H80.908V21.4124H83.661V16.926C83.661 16.4162 83.712 15.9574 83.865 15.5495C84.0179 15.1416 84.2218 14.7848 84.4767 14.5299C84.7316 14.224 85.0885 14.02 85.4454 13.8671C85.8532 13.7142 86.2611 13.6122 86.7709 13.6122H87.1278C87.2297 13.6122 87.3317 13.6122 87.3827 13.6632V11.1141C87.3317 11.1141 87.2297 11.1141 87.1278 11.0631H86.7709L86.7199 11.1141ZM101.097 7.13751H97.9359L94.5201 13.1534H91.971V7.13751H89.0651V21.3614H91.971V15.6515H94.2652L97.9359 21.3614H101.403L96.8143 14.4789L101.046 7.13751H101.097Z" fill="white"/>
<path d="M110.121 12.5415C109.662 12.0827 109.101 11.7768 108.489 11.5219C107.877 11.267 107.164 11.165 106.399 11.165C105.634 11.165 104.819 11.318 104.156 11.5729C103.493 11.8788 102.932 12.2357 102.524 12.7455C102.066 13.2553 101.709 13.7651 101.505 14.4279C101.301 15.0906 101.148 15.7024 101.148 16.4162C101.148 17.1299 101.25 17.7927 101.505 18.4044C101.709 19.0162 102.066 19.577 102.524 20.0868C102.983 20.5967 103.493 20.9535 104.156 21.2594C104.819 21.5653 105.532 21.6673 106.348 21.6673C107.572 21.6673 108.642 21.3614 109.56 20.7496C110.477 20.1378 111.089 19.2711 111.446 18.2005H108.693C108.489 18.6084 108.183 18.9143 107.826 19.0672C107.47 19.2711 107.011 19.3731 106.552 19.3731C106.093 19.3731 105.685 19.3221 105.379 19.1692C105.022 19.0162 104.768 18.8123 104.513 18.5574C104.309 18.3025 104.105 17.9456 104.003 17.5887C104.003 17.4358 103.952 17.2828 103.901 17.1299H111.548C111.548 16.977 111.548 16.875 111.599 16.722V16.2632C111.599 15.4985 111.497 14.8357 111.242 14.173C110.987 13.5612 110.63 13.0004 110.172 12.5925L110.121 12.5415ZM103.901 15.3455V15.1416C104.003 14.7847 104.156 14.4789 104.36 14.2239C104.564 13.969 104.819 13.7651 105.175 13.6122C105.481 13.4592 105.889 13.3573 106.297 13.3573C106.705 13.3573 106.858 13.3573 107.164 13.5102C107.419 13.6122 107.673 13.7141 107.928 13.9181C108.183 14.071 108.336 14.2749 108.489 14.5298C108.642 14.7847 108.744 15.0397 108.795 15.3965H103.85L103.901 15.3455ZM120.215 11.318L117.411 18.4044L114.862 11.318H111.803L115.882 21.2594L114.148 25.5929H117.003L123.172 11.318H120.164H120.215Z" fill="white"/>
</svg>
