<svg width="121" height="28" viewBox="0 0 121 28" fill="none" xmlns="http://www.w3.org/2000/svg">
<g clip-path="url(#clip0_326_3372)">
<mask id="mask0_326_3372" style="mask-type:luminance" maskUnits="userSpaceOnUse" x="0" y="0" width="121" height="27">
<path d="M121 0.294983H0V26.8452H121V0.294983Z" fill="white"/>
</mask>
<g mask="url(#mask0_326_3372)">
<path d="M24.6558 18.9121C24.4829 18.774 24.4324 18.5368 24.5296 18.3386L25.7185 15.8889C26.9398 17.2164 28.8744 17.9208 30.6001 17.9208C31.8213 17.9208 32.6967 17.4252 32.6967 16.5898C32.6967 15.7544 31.9006 15.3897 29.8291 15.0534C27.3109 14.7136 25.2142 12.9684 25.2142 10.5682C25.2142 7.88134 27.6567 6.16089 30.6541 6.16089C32.5743 6.16089 34.6313 6.87951 35.9571 7.8601C36.1372 7.99108 36.184 8.23534 36.0903 8.43358L34.9771 10.8266C33.5434 9.83543 32.0338 9.39293 30.8666 9.39293C29.7786 9.39293 29.2743 9.9912 29.2743 10.6178C29.2743 11.3222 29.9372 11.7647 32.0338 12.1046C34.4764 12.4975 36.6776 14.087 36.6776 16.6677C36.6776 19.7687 33.4929 21.0219 30.5748 21.0219C28.1143 21.0219 26.1185 20.0626 24.6558 18.9121Z" fill="black"/>
<path d="M42.8278 20.2607L37.1753 7.07409C37.042 6.76611 37.2726 6.42273 37.6149 6.42273H40.8463C41.0409 6.42273 41.2174 6.53955 41.2894 6.71655L44.4417 14.3524C44.6038 14.7418 45.1622 14.7418 45.3279 14.3524L48.527 6.71301C48.6027 6.53601 48.7756 6.42273 48.9701 6.42273H52.1728C52.515 6.42273 52.7456 6.76611 52.6124 7.07409L46.7365 20.7598C45.0758 24.5442 41.6209 26.2398 38.0759 26.0274C37.7769 26.0097 37.5715 25.7124 37.6401 25.4291L38.2776 22.9122C38.3354 22.6821 38.5659 22.5475 38.8073 22.5759C40.6554 22.7953 42.1361 21.9104 42.8134 20.6785C42.8818 20.551 42.8818 20.3952 42.8278 20.2607Z" fill="black"/>
<path d="M54.2042 6.89007C54.2042 6.63165 54.4168 6.41925 54.6834 6.41925H58.3435V8.0866C59.1112 6.91131 60.3608 6.15729 62.1374 6.15729C62.8002 6.15729 63.2252 6.25995 63.9129 6.46881V10.4301C63.4088 10.2496 62.825 10.0903 62.0542 10.0903C59.2948 10.0903 58.34 11.9948 58.34 14.625V20.282C58.34 20.5404 58.1275 20.7528 57.8609 20.7528H54.6761C54.4132 20.7528 54.197 20.5439 54.197 20.282V6.89007H54.2042Z" fill="black"/>
<path d="M66.1214 6.42277H69.2769C69.5401 6.42277 69.7561 6.63163 69.7561 6.89359V20.2926C69.7561 20.551 69.5401 20.7634 69.2769 20.7634H66.1214C65.8588 20.7634 65.6421 20.5545 65.6421 20.2926V6.89359C65.6421 6.63517 65.8546 6.42277 66.1214 6.42277ZM67.6059 0.294983C68.9564 0.294983 70.0737 1.26141 70.0737 2.61724C70.0737 3.97307 68.9605 5.01384 67.6059 5.01384C66.2507 5.01384 65.2461 3.94475 65.2461 2.61724C65.2461 1.28973 66.2796 0.294983 67.6059 0.294983Z" fill="black"/>
<path d="M72.3326 6.89013C72.3326 6.63171 72.5451 6.41931 72.8113 6.41931H76.4466V8.61059C77.456 7.14856 79.0195 6.16089 81.0116 6.16089C84.4338 6.16089 86.7139 9.21239 86.7139 12.3913V20.2891C86.7139 20.5475 86.5014 20.7599 86.2352 20.7599H83.0792C82.8166 20.7599 82.5999 20.5511 82.5999 20.2891V13.0179C82.5999 11.4001 81.433 9.75755 79.5236 9.75755C77.6141 9.75755 76.4466 11.4001 76.4466 13.0179V20.2891C76.4466 20.5475 76.2347 20.7599 75.9674 20.7599H72.8113C72.5493 20.7599 72.3326 20.5511 72.3326 20.2891V6.89013Z" fill="black"/>
<path d="M95.8756 17.45C98.2885 17.45 99.6685 15.5455 99.6685 13.5914C99.6685 11.6373 98.2885 9.73277 95.8756 9.73277C93.4615 9.73277 92.0815 11.6869 92.0815 13.6162C92.0815 15.5455 93.4615 17.45 95.8756 17.45ZM89.3257 24.1867L90.6874 22.314C90.8349 22.1122 91.1194 22.0485 91.3284 22.183C92.1464 22.7034 93.5011 23.3158 95.342 23.3158C98.1557 23.3158 99.4271 21.829 99.6685 19.2484C98.501 20.3422 96.9375 21.0219 95.054 21.0219C90.6767 21.0219 87.9711 17.3721 87.9711 13.5914C87.9711 9.81065 90.6767 6.16089 95.054 6.16089C96.9628 6.16089 98.527 6.86535 99.6974 7.95922V6.42285H103.12C103.383 6.42285 103.599 6.63171 103.599 6.89367V18.3634C103.599 22.8981 100.602 26.7072 95.6915 26.7072C93.0725 26.7072 90.7954 25.6593 89.4555 24.8593C89.2212 24.7177 89.1675 24.4097 89.3286 24.1902" fill="black"/>
<path d="M112.915 17.45C115.33 17.45 116.684 15.5455 116.684 13.5914C116.684 11.6373 115.33 9.73277 112.915 9.73277C110.502 9.73277 109.094 11.6869 109.094 13.6162C109.094 15.5455 110.498 17.45 112.915 17.45ZM104.983 13.5914C104.983 9.81065 107.688 6.16089 112.065 6.16089C114.003 6.16089 115.567 6.89013 116.709 8.0371V6.42285H120.131C120.394 6.42285 120.611 6.63171 120.611 6.89367V20.2927C120.611 20.5511 120.394 20.7635 120.131 20.7635H116.709V19.1492C115.567 20.2962 114.003 21.0255 112.065 21.0255C107.688 21.0255 104.983 17.3757 104.983 13.5949" fill="black"/>
<path d="M17.4653 15.2694C18.7046 15.1419 20.1636 16.0305 20.2573 17.8571C20.3293 19.2802 19 20.5688 17.5302 20.5652C16.0639 20.5652 14.7886 19.3121 14.7958 17.85C14.803 16.5119 16.0927 15.149 17.4653 15.2658" fill="black"/>
<path d="M17.5052 12.0974C16.0281 12.0833 14.7348 10.7876 14.7889 9.37517C14.8429 7.91668 16.1326 6.74493 17.6385 6.79095C19.0939 6.83697 20.2648 8.01226 20.2683 9.43535C20.2683 10.908 19.0219 12.1151 17.5088 12.0974" fill="black"/>
<path d="M12.8468 5.21563C12.8432 6.6741 11.5715 7.88131 10.062 7.86355C8.59943 7.84585 7.41776 6.7095 7.3745 5.27581C7.33129 3.8244 8.58503 2.55707 10.0729 2.54645C11.5499 2.53583 12.8504 3.789 12.8468 5.21563Z" fill="black"/>
<path d="M10.1629 19.4785C11.6039 19.436 12.7855 20.6537 12.836 22.0662C12.8864 23.4999 11.5607 24.8132 10.1268 24.8026C8.64976 24.7956 7.37808 23.5494 7.39969 22.091C7.41769 20.6395 8.54529 19.4218 10.1665 19.4749" fill="black"/>
<path d="M0.00730096 17.935C-0.100776 16.4588 1.19615 15.2163 2.666 15.2588C4.2007 15.3013 5.40755 16.434 5.40035 17.9173C5.39315 19.2732 4.14306 20.5334 2.75246 20.5617C1.36187 20.5901 -0.0827634 19.4749 0.0036984 17.9386" fill="black"/>
<path d="M0.00731171 9.39998C-0.0899578 8.06533 1.17815 6.7131 2.74526 6.7803C4.15388 6.84402 5.38236 8.02285 5.40397 9.40346C5.42559 10.8301 4.14667 12.0762 2.66601 12.101C1.21778 12.1222 -0.100765 10.8974 0.00731171 9.39998Z" fill="black"/>
</g>
</g>
<defs>
<clipPath id="clip0_326_3372">
<rect width="121" height="27.1207" fill="white"/>
</clipPath>
</defs>
</svg>
