<svg width="125" height="29" viewBox="0 0 125 29" fill="none" xmlns="http://www.w3.org/2000/svg">
<path d="M25.4708 19.5372C25.2922 19.3946 25.24 19.1496 25.3405 18.9448L26.5686 16.4141C27.8303 17.7855 29.8288 18.5133 31.6116 18.5133C32.8732 18.5133 33.7775 18.0013 33.7775 17.1382C33.7775 16.2751 32.955 15.8985 30.8151 15.551C28.2136 15.2 26.0477 13.397 26.0477 10.9176C26.0477 8.14186 28.5709 6.36453 31.6674 6.36453C33.651 6.36453 35.7761 7.10691 37.1457 8.11992C37.3318 8.25523 37.3801 8.50756 37.2833 8.71236L36.1333 11.1845C34.6522 10.1606 33.0927 9.70342 31.8869 9.70342C30.763 9.70342 30.242 10.3215 30.242 10.9688C30.242 11.6965 30.9268 12.1536 33.0927 12.5047C35.6161 12.9107 37.89 14.5527 37.89 17.2187C37.89 20.4222 34.6 21.7168 31.5855 21.7168C29.0436 21.7168 26.9818 20.7258 25.4708 19.5372Z" fill="#070A26"/>
<path d="M44.2436 20.9305L38.4042 7.30794C38.2665 6.98977 38.5047 6.63504 38.8583 6.63504H42.1966C42.3976 6.63504 42.58 6.75572 42.6543 6.93858L45.9108 14.8268C46.0783 15.2292 46.6551 15.2292 46.8264 14.8268L50.1312 6.93492C50.2093 6.75207 50.388 6.63504 50.589 6.63504H53.8975C54.2511 6.63504 54.4893 6.98977 54.3516 7.30794L48.2815 21.4461C46.5659 25.3555 42.9968 27.1072 39.3347 26.8878C39.0257 26.8696 38.8136 26.5624 38.8844 26.2697L39.543 23.6696C39.6026 23.4319 39.8408 23.2929 40.0901 23.3222C41.9994 23.5489 43.529 22.6347 44.2287 21.362C44.2994 21.2304 44.2994 21.0694 44.2436 20.9305Z" fill="#070A26"/>
<path d="M55.9961 7.11782C55.9961 6.85085 56.2157 6.63143 56.4911 6.63143H60.2722V8.3539C61.0653 7.13976 62.3562 6.36081 64.1915 6.36081C64.8763 6.36081 65.3153 6.46686 66.0257 6.68263V10.7749C65.5049 10.5884 64.9019 10.4238 64.1055 10.4238C61.2549 10.4238 60.2686 12.3913 60.2686 15.1085V20.9524C60.2686 21.2194 60.049 21.4388 59.7737 21.4388H56.4836C56.2119 21.4388 55.9886 21.2231 55.9886 20.9524V7.11782H55.9961Z" fill="#070A26"/>
<path d="M68.3073 6.63507H71.5671C71.8391 6.63507 72.0622 6.85084 72.0622 7.12146V20.9634C72.0622 21.2304 71.8391 21.4498 71.5671 21.4498H68.3073C68.036 21.4498 67.8122 21.234 67.8122 20.9634V7.12146C67.8122 6.8545 68.0317 6.63507 68.3073 6.63507ZM69.8409 0.304718C71.236 0.304718 72.3903 1.30309 72.3903 2.70374C72.3903 4.10439 71.2403 5.17957 69.8409 5.17957C68.4409 5.17957 67.4031 4.07514 67.4031 2.70374C67.4031 1.33235 68.4708 0.304718 69.8409 0.304718Z" fill="#070A26"/>
<path d="M74.7238 7.11788C74.7238 6.85092 74.9433 6.6315 75.2183 6.6315H78.9738V8.89521C80.0164 7.38485 81.6317 6.36453 83.6896 6.36453C87.225 6.36453 89.5805 9.51691 89.5805 12.8009V20.9598C89.5805 21.2268 89.361 21.4462 89.086 21.4462H85.8256C85.5542 21.4462 85.3305 21.2304 85.3305 20.9598V13.4482C85.3305 11.777 84.125 10.0801 82.1524 10.0801C80.1799 10.0801 78.9738 11.777 78.9738 13.4482V20.9598C78.9738 21.2268 78.7549 21.4462 78.4786 21.4462H75.2183C74.9475 21.4462 74.7238 21.2304 74.7238 20.9598V7.11788Z" fill="#070A26"/>
<path d="M99.0452 18.0269C101.538 18.0269 102.964 16.0594 102.964 14.0407C102.964 12.022 101.538 10.0545 99.0452 10.0545C96.5513 10.0545 95.1257 12.0732 95.1257 14.0663C95.1257 16.0594 96.5513 18.0269 99.0452 18.0269ZM92.2788 24.9862L93.6855 23.0516C93.8379 22.8432 94.1318 22.7774 94.3477 22.9163C95.1928 23.4539 96.5922 24.0866 98.494 24.0866C101.401 24.0866 102.714 22.5506 102.964 19.8846C101.757 21.0147 100.142 21.7168 98.1965 21.7168C93.6745 21.7168 90.8794 17.9464 90.8794 14.0407C90.8794 10.135 93.6745 6.36453 98.1965 6.36453C100.168 6.36453 101.784 7.09229 102.993 8.22231V6.63515H106.529C106.801 6.63515 107.024 6.85092 107.024 7.12154V18.9704C107.024 23.6551 103.928 27.59 98.855 27.59C96.1495 27.59 93.7971 26.5076 92.4129 25.6811C92.1709 25.5348 92.1154 25.2166 92.2818 24.9899" fill="#070A26"/>
<path d="M116.648 18.0269C119.142 18.0269 120.541 16.0594 120.541 14.0407C120.541 12.022 119.142 10.0545 116.648 10.0545C114.155 10.0545 112.7 12.0732 112.7 14.0663C112.7 16.0594 114.151 18.0269 116.648 18.0269ZM108.453 14.0407C108.453 10.135 111.248 6.36453 115.77 6.36453C117.772 6.36453 119.387 7.11788 120.567 8.30277V6.63515H124.102C124.374 6.63515 124.598 6.85092 124.598 7.12154V20.9635C124.598 21.2304 124.374 21.4499 124.102 21.4499H120.567V19.7822C119.387 20.9671 117.772 21.7205 115.77 21.7205C111.248 21.7205 108.453 17.9501 108.453 14.0443" fill="#070A26"/>
<path d="M18.0428 15.7741C19.3231 15.6425 20.8303 16.5604 20.9271 18.4474C21.0015 19.9176 19.6282 21.2487 18.1098 21.2451C16.5951 21.2451 15.2776 19.9505 15.2851 18.4401C15.2925 17.0577 16.6248 15.6498 18.0428 15.7705" fill="#C9DA2A"/>
<path d="M18.0838 12.4973C16.5579 12.4827 15.2218 11.1442 15.2777 9.68507C15.3335 8.17836 16.6659 6.96788 18.2215 7.01542C19.7251 7.06296 20.9346 8.2771 20.9383 9.74724C20.9383 11.2686 19.6506 12.5156 18.0876 12.4973" fill="#C9DA2A"/>
<path d="M13.2715 5.38801C13.2678 6.89469 11.9541 8.1418 10.3946 8.12346C8.88373 8.10517 7.663 6.93126 7.61831 5.45018C7.57367 3.95079 8.86886 2.64156 10.4059 2.63059C11.9317 2.61962 13.2753 3.91422 13.2715 5.38801Z" fill="#C9DA2A"/>
<path d="M10.4988 20.1223C11.9874 20.0784 13.2081 21.3365 13.2602 22.7956C13.3123 24.2767 11.9428 25.6334 10.4615 25.6225C8.9356 25.6152 7.62188 24.3279 7.6442 22.8212C7.6628 21.3218 8.82768 20.0638 10.5024 20.1187" fill="#C9DA2A"/>
<path d="M0.00754232 18.5279C-0.104107 17.0029 1.23569 15.7193 2.75413 15.7631C4.33956 15.807 5.58632 16.9772 5.57888 18.5096C5.57144 19.9102 4.28002 21.2121 2.84345 21.2414C1.40689 21.2707 -0.0854994 20.1187 0.00382066 18.5315" fill="#C9DA2A"/>
<path d="M0.0075171 9.71069C-0.0929679 8.33192 1.21706 6.93498 2.83598 7.00441C4.29116 7.07023 5.56025 8.28803 5.58257 9.71428C5.60491 11.1881 4.28371 12.4754 2.75411 12.501C1.258 12.5229 -0.104133 11.2576 0.0075171 9.71069Z" fill="#C9DA2A"/>
</svg>
