<svg width="107" height="24" viewBox="0 0 107 24" fill="none" xmlns="http://www.w3.org/2000/svg">
<g clip-path="url(#clip0_326_3372)">
<mask id="mask0_326_3372" style="mask-type:luminance" maskUnits="userSpaceOnUse" x="0" y="0" width="107" height="24">
<path d="M107 0.260864H0V23.7391H107V0.260864Z" fill="white"/>
</mask>
<g mask="url(#mask0_326_3372)">
<path d="M21.8031 16.7239C21.6502 16.6018 21.6055 16.3921 21.6915 16.2168L22.7428 14.0505C23.8228 15.2244 25.5335 15.8474 27.0596 15.8474C28.1395 15.8474 28.9136 15.4091 28.9136 14.6703C28.9136 13.9315 28.2096 13.6091 26.3778 13.3117C24.1509 13.0112 22.2969 11.4679 22.2969 9.34545C22.2969 6.96945 24.4568 5.44806 27.1073 5.44806C28.8053 5.44806 30.6244 6.08354 31.7967 6.95067C31.956 7.06649 31.9974 7.28249 31.9146 7.4578L30.9302 9.57397C29.6623 8.69745 28.3274 8.30615 27.2953 8.30615C26.3332 8.30615 25.8872 8.83519 25.8872 9.38928C25.8872 10.0122 26.4734 10.4035 28.3274 10.7041C30.4874 11.0515 32.4339 12.4571 32.4339 14.7392C32.4339 17.4815 29.6177 18.5896 27.0372 18.5896C24.8614 18.5896 23.0965 17.7413 21.8031 16.7239Z" fill="#070A26"/>
<path d="M37.8725 17.9164L32.874 6.25557C32.7561 5.98322 32.96 5.67957 33.2627 5.67957H36.1203C36.2923 5.67957 36.4484 5.78287 36.5121 5.93939L39.2996 12.6917C39.443 13.0361 39.9368 13.0361 40.0833 12.6917L42.9123 5.93626C42.9792 5.77974 43.1321 5.67957 43.3042 5.67957H46.1363C46.4389 5.67957 46.6428 5.98322 46.525 6.25557L41.329 18.3578C39.8604 21.7043 36.8052 23.2037 33.6704 23.0159C33.406 23.0003 33.2244 22.7374 33.285 22.4869L33.8488 20.2611C33.8998 20.0577 34.1037 19.9387 34.3171 19.9637C35.9514 20.1578 37.2608 19.3753 37.8597 18.2859C37.9202 18.1732 37.9202 18.0354 37.8725 17.9164Z" fill="#070A26"/>
<path d="M47.9326 6.09289C47.9326 5.86436 48.1206 5.67654 48.3563 5.67654H51.593V7.15097C52.2718 6.11167 53.3768 5.44489 54.9479 5.44489C55.534 5.44489 55.9098 5.53567 56.5179 5.72036V9.22332C56.0722 9.06367 55.556 8.9228 54.8743 8.9228C52.4342 8.9228 51.5899 10.607 51.5899 12.9329V17.9353C51.5899 18.1638 51.4019 18.3517 51.1662 18.3517H48.3499C48.1174 18.3517 47.9262 18.167 47.9262 17.9353V6.09289H47.9326Z" fill="#070A26"/>
<path d="M58.4711 5.67965H61.2614C61.4942 5.67965 61.6852 5.86434 61.6852 6.096V17.9447C61.6852 18.1732 61.4942 18.361 61.2614 18.361H58.4711C58.2388 18.361 58.0472 18.1763 58.0472 17.9447V6.096C58.0472 5.86747 58.2351 5.67965 58.4711 5.67965ZM59.7838 0.260864C60.978 0.260864 61.966 1.11547 61.966 2.31443C61.966 3.51339 60.9816 4.43373 59.7838 4.43373C58.5854 4.43373 57.697 3.48834 57.697 2.31443C57.697 1.14052 58.6109 0.260864 59.7838 0.260864Z" fill="#070A26"/>
<path d="M63.9636 6.09293C63.9636 5.86441 64.1515 5.67658 64.3869 5.67658H67.6016V7.61432C68.4941 6.32145 69.8768 5.44806 71.6383 5.44806C74.6646 5.44806 76.6809 8.14649 76.6809 10.9576V17.9416C76.6809 18.1701 76.493 18.358 76.2576 18.358H73.4667C73.2345 18.358 73.0429 18.1733 73.0429 17.9416V11.5117C73.0429 10.0811 72.011 8.62858 70.3225 8.62858C68.634 8.62858 67.6016 10.0811 67.6016 11.5117V17.9416C67.6016 18.1701 67.4142 18.358 67.1777 18.358H64.3869C64.1551 18.358 63.9636 18.1733 63.9636 17.9416V6.09293Z" fill="#070A26"/>
<path d="M84.7826 15.431C86.9164 15.431 88.1367 13.7468 88.1367 12.0188C88.1367 10.2908 86.9164 8.60667 84.7826 8.60667C82.6479 8.60667 81.4275 10.3347 81.4275 12.0408C81.4275 13.7468 82.6479 15.431 84.7826 15.431ZM78.9905 21.3882L80.1947 19.7322C80.3252 19.5538 80.5767 19.4974 80.7615 19.6164C81.4849 20.0766 82.6828 20.6181 84.3108 20.6181C86.7989 20.6181 87.9232 19.3034 88.1367 17.0213C87.1043 17.9886 85.7216 18.5896 84.0561 18.5896C80.1853 18.5896 77.7927 15.3621 77.7927 12.0188C77.7927 8.67554 80.1853 5.44806 84.0561 5.44806C85.7441 5.44806 87.1272 6.07102 88.1623 7.03832V5.67971H91.1885C91.4213 5.67971 91.6124 5.86441 91.6124 6.09606V16.2387C91.6124 20.2488 88.9619 23.6171 84.6198 23.6171C82.3039 23.6171 80.2902 22.6905 79.1054 21.983C78.8982 21.8578 78.8507 21.5854 78.9931 21.3914" fill="#070A26"/>
<path d="M99.8508 15.431C101.986 15.431 103.183 13.7468 103.183 12.0188C103.183 10.2908 101.986 8.60667 99.8508 8.60667C97.7166 8.60667 96.4712 10.3347 96.4712 12.0408C96.4712 13.7468 97.7134 15.431 99.8508 15.431ZM92.8358 12.0188C92.8358 8.67554 95.2284 5.44806 99.0992 5.44806C100.813 5.44806 102.195 6.09293 103.205 7.10719V5.67971H106.232C106.464 5.67971 106.656 5.86441 106.656 6.09606V17.9448C106.656 18.1733 106.464 18.3611 106.232 18.3611H103.205V16.9336C102.195 17.9479 100.813 18.5928 99.0992 18.5928C95.2284 18.5928 92.8358 15.3653 92.8358 12.022" fill="#070A26"/>
<path d="M15.4446 13.5027C16.5405 13.39 17.8307 14.1757 17.9135 15.791C17.9773 17.0495 16.8017 18.1889 15.502 18.1858C14.2053 18.1858 13.0776 17.0776 13.084 15.7848C13.0903 14.6015 14.2308 13.3962 15.4446 13.4996" fill="#C9DA2A"/>
<path d="M15.4798 10.6977C14.1736 10.6852 13.0299 9.53945 13.0778 8.2904C13.1255 7.00067 14.266 5.96449 15.5977 6.00519C16.8847 6.04588 17.9201 7.08519 17.9232 8.34362C17.9232 9.64588 16.821 10.7134 15.483 10.6977" fill="#C9DA2A"/>
<path d="M11.3604 4.61212C11.3572 5.90183 10.2327 6.96936 8.8978 6.95366C7.60446 6.93801 6.55951 5.93314 6.52125 4.66533C6.48305 3.38186 7.59172 2.26116 8.9074 2.25177C10.2135 2.24238 11.3636 3.35055 11.3604 4.61212Z" fill="#C9DA2A"/>
<path d="M8.98701 17.2248C10.2613 17.1872 11.3062 18.2641 11.3508 19.5131C11.3954 20.7809 10.2231 21.9423 8.95512 21.9329C7.64894 21.9267 6.5244 20.8247 6.5435 19.535C6.55942 18.2515 7.55655 17.1747 8.99015 17.2216" fill="#C9DA2A"/>
<path d="M0.00645622 15.8599C-0.0891159 14.5545 1.05775 13.4557 2.35754 13.4932C3.71466 13.5308 4.78189 14.5325 4.77552 15.8442C4.76915 17.0432 3.6637 18.1575 2.43399 18.1826C1.2043 18.2077 -0.0731875 17.2216 0.00327048 15.863" fill="#C9DA2A"/>
<path d="M0.00651655 8.31235C-0.0794986 7.13213 1.04189 5.93635 2.42768 5.99578C3.67331 6.05213 4.75966 7.09456 4.77876 8.31543C4.79788 9.577 3.66694 10.679 2.3576 10.7008C1.07693 10.7196 -0.0890555 9.63653 0.00651655 8.31235Z" fill="#C9DA2A"/>
</g>
</g>
<defs>
<clipPath id="clip0_326_3372">
<rect width="107" height="24" fill="white"/>
</clipPath>
</defs>
</svg>
