<svg width="185" height="10" viewBox="0 0 185 10" fill="none" xmlns="http://www.w3.org/2000/svg">
<path d="M3.56682 1.68239H0V0.235474H8.74881V1.68239H5.18199V9.65727H3.56682V1.68239Z" fill="white"/>
<path d="M10.2966 0.235474H11.9118V4.10514H16.7236V0.235474H18.3388V9.65727H16.7236V5.58571H11.9118V9.65727H10.2966V0.235474Z" fill="white"/>
<path d="M19.853 0.235474H27.0876V1.64874H21.4682V3.9369H25.3042V5.35017H21.4682V8.17671H27.3568V9.62363H19.853V0.235474Z" fill="white"/>
<path d="M32.6061 0.235474H39.807V1.64874H34.2212V4.07149H38.5284V5.48476H34.2212V9.65727H32.6061V0.235474Z" fill="white"/>
<path d="M43.2056 9.42173C42.6336 9.11889 42.1625 8.71509 41.8596 8.17671C41.5568 7.63832 41.3885 6.96533 41.3885 6.15775V0.235474H43.0037V6.02315C43.0037 6.56154 43.1047 6.99898 43.2729 7.33547C43.4412 7.67197 43.7103 7.94116 44.0468 8.10941C44.3833 8.27765 44.7871 8.34495 45.2919 8.34495C46.0321 8.34495 46.6042 8.14306 47.008 7.77291C47.4118 7.40277 47.6137 6.79708 47.6137 6.02315V0.235474H49.2288V6.1241C49.2288 6.93168 49.0606 7.60467 48.7577 8.14306C48.4549 8.68145 47.9838 9.11889 47.3781 9.38808C46.7724 9.69092 46.0994 9.82552 45.2919 9.82552C44.4843 9.82552 43.8113 9.69092 43.2056 9.42173Z" fill="white"/>
<path d="M50.8777 0.235474H55.4876C56.1606 0.235474 56.7327 0.336422 57.2038 0.538317C57.6748 0.740213 58.045 1.04306 58.2805 1.44685C58.5161 1.85064 58.6507 2.32173 58.6507 2.86012C58.6507 3.29756 58.5497 3.70135 58.3478 4.07149C58.1459 4.40799 57.8431 4.71083 57.5066 4.91272C57.1365 5.11462 56.7327 5.24922 56.2952 5.28287L56.2279 5.11462C56.7327 5.14827 57.1028 5.24922 57.4056 5.41746C57.7085 5.58571 57.944 5.8549 58.1123 6.1914C58.2805 6.52789 58.4151 6.99898 58.5161 7.57102L58.8862 9.65727H57.1701L56.8673 7.77291C56.8 7.33547 56.699 6.96533 56.5644 6.69614C56.4298 6.42694 56.2616 6.22505 55.9924 6.09045C55.7568 5.95585 55.3867 5.88855 54.9829 5.88855H52.4929V9.65727H50.8777V0.235474ZM56.4971 4.07149C56.8336 3.83595 57.0019 3.46581 57.0019 2.99472C57.0019 2.52363 56.8336 2.18713 56.4971 1.98524C56.1606 1.74969 55.7232 1.64874 55.1848 1.64874H52.4929V4.47528H55.1175C55.7232 4.44164 56.1943 4.30704 56.4971 4.07149Z" fill="white"/>
<path d="M67.2313 0.235474V7.06628L63.0924 0.235474H60.5687V9.65727H62.1166V1.64874L66.9957 9.65727H68.7792V0.235474H67.2313Z" fill="white"/>
<path d="M70.4952 0.235474H72.1104V9.65727H70.4952V0.235474Z" fill="white"/>
<path d="M77.2924 1.68239H73.7256V0.235474H82.4744V1.68239H78.9076V9.65727H77.2924V1.68239Z" fill="white"/>
<path d="M85.7383 9.42173C85.1663 9.11889 84.6952 8.71509 84.3924 8.17671C84.0895 7.63832 83.9213 6.96533 83.9213 6.15775V0.235474H85.5364V6.02315C85.5364 6.56154 85.6374 6.99898 85.8056 7.33547C85.9739 7.67197 86.2431 7.94116 86.5796 8.10941C86.916 8.27765 87.3198 8.34495 87.8246 8.34495C88.5649 8.34495 89.1369 8.14306 89.5407 7.77291C89.9445 7.40277 90.1464 6.79708 90.1464 6.02315V0.235474H91.7615V6.1241C91.7615 6.93168 91.5933 7.60467 91.2905 8.14306C90.9876 8.68145 90.5165 9.11889 89.9108 9.38808C89.3051 9.69092 88.6322 9.82552 87.8246 9.82552C87.017 9.82552 86.344 9.69092 85.7383 9.42173Z" fill="white"/>
<path d="M101.049 7.57102C100.948 6.99898 100.813 6.52789 100.645 6.1914C100.477 5.8549 100.241 5.58571 99.9383 5.41746C99.7701 5.31652 99.5682 5.24922 99.3326 5.18192C99.6018 5.11462 99.8374 5.01367 100.039 4.91272C100.409 4.71083 100.679 4.44163 100.88 4.07149C101.082 3.735 101.183 3.33121 101.183 2.86012C101.183 2.28808 101.049 1.81699 100.813 1.44685C100.578 1.04306 100.241 0.740213 99.7364 0.538317C99.2653 0.336422 98.6933 0.235474 98.0203 0.235474H93.3767V9.65727H94.9919V5.88855H97.4819C97.9194 5.88855 98.2558 5.95585 98.4914 6.09045C98.7269 6.22505 98.9288 6.42694 99.0634 6.69614C99.198 6.96533 99.299 7.30182 99.3663 7.77291L99.6691 9.65727H101.385L101.049 7.57102ZM97.6502 4.44163H95.0255V1.61509H97.7175C98.2895 1.61509 98.7269 1.71604 99.0298 1.95159C99.3663 2.18713 99.5345 2.52363 99.5345 2.96107C99.5345 3.43216 99.3663 3.8023 99.0298 4.03784C98.7269 4.30704 98.2558 4.44163 97.6502 4.44163Z" fill="white"/>
<path d="M102.832 0.235474H110.067V1.64874H104.447V3.9369H108.283V5.35017H104.447V8.17671H110.336V9.62363H102.832V0.235474Z" fill="white"/>
<path d="M115.585 0.235474H120.094C120.734 0.235474 121.306 0.336422 121.777 0.571967C122.248 0.807512 122.618 1.144 122.853 1.58145C123.089 2.01889 123.224 2.52363 123.224 3.09566C123.224 3.6677 123.089 4.17244 122.82 4.60988C122.551 5.04732 122.18 5.41746 121.676 5.65301C121.171 5.88855 120.599 6.02315 119.96 6.02315H117.2V9.65727H115.585V0.235474ZM121.07 4.17244C121.407 3.90325 121.575 3.56675 121.575 3.06201C121.575 2.59092 121.407 2.22078 121.104 1.98524C120.801 1.74969 120.33 1.61509 119.758 1.61509H117.2V4.57623H119.623C120.262 4.57623 120.734 4.44163 121.07 4.17244Z" fill="white"/>
<path d="M132.309 7.57102C132.208 6.99898 132.073 6.52789 131.905 6.1914C131.737 5.8549 131.501 5.58571 131.199 5.41746C131.03 5.31652 130.828 5.24922 130.593 5.18192C130.862 5.11462 131.098 5.01367 131.3 4.91272C131.67 4.71083 131.939 4.44163 132.141 4.07149C132.343 3.735 132.444 3.33121 132.444 2.86012C132.444 2.28808 132.309 1.81699 132.073 1.44685C131.838 1.04306 131.468 0.740213 130.997 0.538317C130.526 0.336422 129.954 0.235474 129.281 0.235474H124.637V9.65727H126.252V5.88855H128.742C129.18 5.88855 129.516 5.95585 129.752 6.09045C129.987 6.22505 130.189 6.42694 130.324 6.69614C130.458 6.96533 130.559 7.30182 130.627 7.77291L130.929 9.65727H132.645L132.309 7.57102ZM128.91 4.44163H126.286V1.61509H128.978C129.55 1.61509 129.987 1.71604 130.29 1.95159C130.627 2.18713 130.795 2.52363 130.795 2.96107C130.795 3.43216 130.627 3.8023 130.29 4.03784C129.987 4.30704 129.516 4.44163 128.91 4.44163Z" fill="white"/>
<path d="M141.058 9.62371H142.841L139.577 0.201904H137.255L133.924 9.62371H135.64L136.38 7.40285H140.351L141.058 9.62371ZM136.852 5.98958L138.399 1.44693L139.88 5.98958H136.852Z" fill="white"/>
<path d="M145.533 9.2199C144.86 8.81611 144.322 8.24408 143.952 7.50379C143.582 6.76351 143.38 5.88863 143.38 4.9128C143.38 3.97062 143.582 3.12938 143.952 2.3891C144.322 1.64882 144.894 1.07678 145.567 0.639337C146.273 0.235545 147.047 0 147.956 0C148.595 0 149.201 0.134597 149.739 0.370142C150.311 0.605687 150.782 0.94218 151.153 1.37962C151.556 1.81706 151.826 2.28815 152.028 2.86019L150.446 3.36493C150.278 2.82654 150.009 2.3891 149.571 2.01896C149.167 1.64882 148.595 1.48057 147.922 1.48057C147.317 1.48057 146.812 1.61517 146.374 1.88436C145.937 2.15355 145.6 2.55735 145.365 3.06209C145.129 3.56682 144.995 4.17251 144.995 4.8455C144.995 5.51848 145.096 6.12417 145.331 6.62891C145.567 7.1673 145.903 7.57109 146.341 7.87393C146.778 8.17678 147.317 8.31137 147.922 8.31137C148.562 8.31137 149.134 8.14313 149.571 7.77299C150.009 7.40284 150.311 6.93175 150.48 6.35972L151.994 6.83081C151.826 7.40284 151.556 7.87393 151.153 8.34502C150.749 8.78246 150.278 9.15261 149.739 9.38815C149.167 9.65735 148.562 9.7583 147.922 9.7583C147.014 9.82559 146.206 9.6237 145.533 9.2199Z" fill="white"/>
<path d="M156.503 1.68239H152.936V0.235474H161.685V1.68239H158.118V9.65727H156.503V1.68239Z" fill="white"/>
<path d="M163.233 0.235474H164.848V9.65727H163.233V0.235474Z" fill="white"/>
<path d="M168.718 9.2199C168.045 8.81611 167.506 8.24408 167.136 7.50379C166.766 6.76351 166.564 5.88863 166.564 4.9128C166.564 3.97062 166.766 3.12938 167.136 2.3891C167.506 1.64882 168.078 1.07678 168.751 0.639337C169.458 0.235545 170.232 0 171.14 0C171.78 0 172.385 0.134597 172.924 0.370142C173.496 0.605687 173.967 0.94218 174.337 1.37962C174.741 1.81706 175.01 2.28815 175.212 2.86019L173.63 3.36493C173.462 2.82654 173.193 2.3891 172.755 2.01896C172.352 1.64882 171.78 1.48057 171.107 1.48057C170.501 1.48057 169.996 1.61517 169.559 1.88436C169.121 2.15355 168.785 2.55735 168.549 3.06209C168.314 3.56682 168.179 4.17251 168.179 4.8455C168.179 5.51848 168.28 6.12417 168.516 6.62891C168.751 7.1673 169.088 7.57109 169.525 7.87393C169.963 8.17678 170.501 8.31137 171.107 8.31137C171.746 8.31137 172.318 8.14313 172.755 7.77299C173.193 7.40284 173.496 6.93175 173.664 6.35972L175.178 6.83081C175.01 7.40284 174.741 7.87393 174.337 8.34502C173.933 8.78246 173.462 9.15261 172.924 9.38815C172.352 9.65735 171.746 9.7583 171.107 9.7583C170.232 9.82559 169.424 9.6237 168.718 9.2199Z" fill="white"/>
<path d="M176.726 0.235474H183.961V1.64874H178.341V3.9369H182.177V5.35017H178.341V8.17671H184.23V9.62363H176.726V0.235474Z" fill="white"/>
</svg>
