<svg width="129" height="33" viewBox="0 0 129 33" fill="none" xmlns="http://www.w3.org/2000/svg">
<path d="M98.1814 15.7409C98.1814 11.1612 100.911 7.43066 105.491 7.43066C110.101 7.43066 112.831 11.1612 112.831 15.7409C112.831 20.3509 110.131 24.1117 105.491 24.1117C100.85 24.1117 98.1814 20.3206 98.1814 15.7409ZM102.124 15.7409C102.124 18.4098 102.61 23.2018 105.461 23.2018C108.433 23.2018 108.979 18.3492 108.979 15.7409C108.948 13.0112 108.372 8.34054 105.4 8.34054C102.519 8.34054 102.124 13.0719 102.124 15.7409Z" fill="#EDE7D8"/>
<path d="M88.3687 23.869C82.1816 23.869 78.6331 18.6524 78.6331 12.4046C78.6331 5.51989 81.7266 0.606567 88.581 0.606567C91.9779 0.606567 96.6789 2.94191 96.8609 6.94536C96.9519 8.64379 96.1936 10.0693 94.9198 10.0693C94.1009 10.0693 93.1304 9.49301 93.0091 8.43149C92.9181 7.4003 93.6157 6.49042 93.6157 5.70187C93.6157 2.54763 90.7344 1.30414 88.3081 1.72875C84.6079 2.33533 82.9398 6.73306 82.8185 11.798C82.7275 17.9245 85.0022 22.2919 89.036 22.4739C92.2205 22.6255 95.3748 19.6533 96.042 15.8015C96.0723 15.6195 96.1936 15.4982 96.3453 15.4982H97.0125C97.1945 15.4982 97.2855 15.6195 97.2552 15.8015C96.3756 20.9271 93.1001 23.869 88.3687 23.869Z" fill="#EDE7D8"/>
<path d="M57.2447 26.4774C57.5783 26.2651 57.9423 26.1741 58.3062 26.1741C59.3677 26.1741 60.3686 26.993 59.7923 28.1455C59.3677 29.0857 59.1554 29.844 59.4891 30.1169C59.6407 30.2382 59.8227 30.2989 60.035 30.2989C61.0055 30.2989 62.5826 28.9038 64.2811 26.902C65.6762 23.8995 64.918 8.58323 62.0974 8.73487C61.3998 8.7652 60.9145 9.76606 60.6719 10.8882C60.6416 11.0702 60.5202 11.1309 60.3989 11.1005L60.126 11.0096C60.0047 10.9792 59.944 10.8579 59.9743 10.7366C60.217 8.43158 61.5211 7.0971 63.5835 7.0971C67.7386 7.15776 68.4665 14.8917 68.2542 21.3821C70.8322 17.3787 72.8642 13.1933 72.6822 11.6465C72.5609 10.494 71.4994 10.13 71.4387 8.82586C71.4084 7.67335 72.0757 7.03644 72.8036 6.88479C74.32 6.55117 75.1389 7.88566 74.9569 9.43244C74.3503 15.1647 66.859 26.9627 62.158 30.7235C61.0965 31.5727 60.035 31.9063 59.0948 31.9063C57.366 31.9063 56.0922 30.7235 56.0619 29.0554C56.0012 27.9029 56.4258 26.9324 57.2447 26.4774Z" fill="#EDE7D8"/>
<path d="M42.3146 23.8387C42.1629 23.8387 42.1023 23.7478 42.1326 23.5961L42.1932 23.2625C42.2236 23.1108 42.3146 22.9895 42.4662 22.9895C43.0728 22.9592 44.195 23.2625 44.6802 20.4722C44.9229 19.0467 46.5 11.0702 46.318 10.3423C46.1967 9.79635 45.7721 9.79635 45.3475 9.82668C45.1958 9.82668 45.1352 9.73569 45.1655 9.58404L45.2262 9.15943C45.2565 9.00779 45.3475 8.88647 45.4688 8.85614L50.4428 7.40034C50.5641 7.37001 50.6247 7.43067 50.6247 7.58232L50.0182 11.1005C50.7157 9.76602 52.6265 7.52166 55.2651 7.461C58.0251 7.43067 59.5718 9.82668 58.9956 13.0112L57.6611 20.0476C57.5701 20.5025 57.2062 22.2313 57.9947 22.2313C58.753 22.3223 59.3292 20.6845 59.5415 19.8656C59.5718 19.7443 59.6932 19.6533 59.8145 19.6533L60.0268 19.6837C60.1784 19.6837 60.2694 19.805 60.2391 19.9566C59.6022 23.0805 57.6611 23.8387 56.266 23.8387C53.9913 23.8387 53.7486 21.655 54.2036 19.0771C54.5372 17.136 54.8708 15.1646 55.2651 13.2235C55.6897 10.9185 55.6291 8.82581 53.9306 8.97746C51.5346 9.15944 49.6542 13.4055 49.3812 14.7703L48.3501 20.4419C48.2287 20.9575 47.9861 22.11 48.1074 22.5346C48.2894 23.0199 48.9566 22.9895 49.3206 23.0199C49.4419 23.0199 49.5329 23.1412 49.5026 23.2928L49.4419 23.5961C49.4116 23.7478 49.3206 23.8387 49.1689 23.8387H42.3146Z" fill="#EDE7D8"/>
<path d="M31.4286 23.9297C29.1843 23.8691 27.6678 22.201 28.4564 19.714C29.9728 14.7703 35.2501 17.2573 38.192 12.6776C38.374 12.3743 38.4347 12.2833 38.4953 11.9194C38.6773 10.8882 39.4052 8.06758 36.7362 8.21922C35.7354 8.24955 34.0976 9.18976 33.855 10.5546C33.7033 11.3431 34.2492 11.7071 34.1582 12.4956C34.0369 13.4662 33.0361 14.3154 32.0352 14.558C30.4884 14.922 29.9425 13.7695 30.2155 12.253C30.913 8.55284 34.6738 7.24869 37.6158 7.27902C41.2249 7.33968 42.6807 9.40206 41.9832 13.1325C41.5586 15.4072 41.0126 17.7122 40.5577 20.0173C40.497 20.4722 40.3151 21.6247 40.9823 21.5034C41.8315 21.5034 42.1651 20.2599 42.3168 19.5017C42.3471 19.35 42.4684 19.259 42.5898 19.2894L42.893 19.3197C43.0447 19.3197 43.1053 19.4107 43.075 19.5623C42.5291 22.0796 41.1643 23.7781 38.9806 23.8387C37.3731 23.9297 36.8575 22.7469 36.8272 21.564C35.5231 22.8379 33.673 23.9904 31.4286 23.9297ZM31.9139 19.623C31.459 21.3821 32.8238 22.4436 34.1279 22.201C35.2501 21.9583 36.0993 21.2001 36.8272 20.5632C36.9182 19.9566 37.0395 19.2287 37.1608 18.6828C37.4641 17.0147 37.8584 15.5589 38.2224 13.8908C36.6149 16.2868 32.5508 16.863 31.9139 19.623Z" fill="#EDE7D8"/>
<path d="M1.24127 23.8387C1.15028 23.8387 1.08962 23.778 1.11995 23.6567L1.18061 23.2928C1.21094 23.1715 1.2716 23.1108 1.39291 23.1108C3.03069 22.9288 3.72826 20.5632 4.21352 17.9852L6.97348 3.30586C7.18578 1.48611 6.39722 1.39513 5.82097 1.3648C5.63899 1.3648 5.54801 1.24348 5.57834 1.0615L5.60866 0.909859C5.63899 0.727885 5.79064 0.606567 5.97261 0.606567H10.7949C11.0376 0.606567 11.2196 0.758213 11.2802 0.970518L15.4353 17.045L24.807 1.0615C24.9283 0.849202 25.171 0.697556 25.4136 0.697556L28.9015 0.606567H30.6605C30.7819 0.606567 30.8425 0.697556 30.8122 0.81887L30.7515 1.15249C30.7515 1.27381 30.6605 1.3648 30.5696 1.3648C30.0236 1.42545 28.9318 1.27381 28.5375 3.36652L25.3529 20.4722C24.9283 22.7469 25.5652 22.9592 26.5055 23.0805C26.5964 23.1108 26.6571 23.1715 26.6268 23.2928L26.5661 23.6567C26.5358 23.778 26.4751 23.8387 26.3538 23.8387H19.4691C19.3478 23.8387 19.3174 23.778 19.3174 23.6567L19.3781 23.2928C19.4084 23.1715 19.4994 23.1108 19.5904 23.0805C20.5003 22.9592 21.2585 22.6255 21.6225 20.6238L24.8373 3.39685L13.3123 23.2321C13.191 23.4748 13.0696 23.4748 13.009 23.2624L8.035 4.79199L5.57834 17.9548C5.09307 20.5632 4.82011 22.9288 6.54887 23.1108C6.63986 23.1108 6.70051 23.1715 6.67018 23.2928C6.63986 23.4141 6.60953 23.5354 6.60953 23.6567C6.5792 23.778 6.48821 23.8387 6.39722 23.8387H1.24127Z" fill="#EDE7D8"/>
<path d="M121.677 20.7462L122.067 22.8511C122.11 23.0853 122.444 23.0912 122.496 22.8587L122.99 20.6368C123.224 19.5808 124.06 18.7624 125.124 18.5497L127.037 18.1667C127.267 18.1207 127.273 17.7949 127.045 17.7401L125.007 17.2503C124.006 17.0099 123.224 16.2295 122.985 15.2305L122.495 13.189C122.441 12.9611 122.113 12.9673 122.067 13.1972L121.685 15.1139C121.472 16.1744 120.653 17.0103 119.595 17.2456L117.376 17.7392C117.143 17.7909 117.149 18.1238 117.384 18.1672L119.485 18.5567C120.6 18.7633 121.471 19.6339 121.677 20.7462Z" fill="#EDE7D8"/>
<path d="M126.187 14.3281L126.309 14.9872C126.323 15.0605 126.427 15.0625 126.443 14.9897L126.598 14.2939C126.672 13.9632 126.933 13.7069 127.266 13.6403L127.866 13.5204C127.937 13.506 127.939 13.404 127.868 13.3868L127.23 13.2335C126.916 13.1582 126.672 12.9138 126.597 12.6009L126.443 11.9617C126.426 11.8903 126.324 11.8923 126.31 11.9643L126.189 12.5644C126.123 12.8965 125.867 13.1583 125.535 13.232L124.841 13.3866C124.767 13.4027 124.769 13.507 124.843 13.5206L125.501 13.6425C125.85 13.7072 126.123 13.9798 126.187 14.3281Z" fill="#EDE7D8"/>
<path d="M119.412 12.3116L119.498 12.7794C119.508 12.8315 119.582 12.8328 119.594 12.7811L119.703 12.2874C119.756 12.0527 119.942 11.8708 120.177 11.8235L120.603 11.7384C120.653 11.7282 120.655 11.6558 120.605 11.6436L120.151 11.5348C119.929 11.4813 119.756 11.308 119.702 11.0859L119.593 10.6323C119.581 10.5817 119.508 10.583 119.498 10.634L119.413 11.0601C119.366 11.2957 119.183 11.4814 118.949 11.5337L118.456 11.6434C118.404 11.6549 118.405 11.7289 118.458 11.7385L118.925 11.8251C119.172 11.871 119.365 12.0645 119.412 12.3116Z" fill="#EDE7D8"/>
</svg>
