<svg width="121" height="39" viewBox="0 0 121 39" fill="none" xmlns="http://www.w3.org/2000/svg">
<g clip-path="url(#clip0_378_204)">
<path d="M9.41744 35.5896C6.73131 34.7763 4.59097 32.9185 3.33887 30.4977L11.7204 26.0908C11.8703 26.0116 12.0715 26.0672 12.1485 26.1057C12.2834 26.1742 12.3947 26.3904 12.3155 26.643L9.4153 35.5875L9.41744 35.5896Z" fill="white"/>
<path d="M13.1717 23.548L8.38159 14.6207C10.8922 13.3322 13.5676 13.1203 16.3094 13.9036L13.1695 23.548H13.1717Z" fill="white"/>
<path d="M14.9116 23.623C14.5842 23.7963 14.2781 23.7685 14.1047 23.4731L17.1633 14.1755C19.8045 15.1044 21.8528 16.8423 23.1862 19.2588L14.9116 23.6251V23.623Z" fill="white"/>
<path d="M23.5971 20.0378C25.2345 22.8781 24.9306 28.2225 23.8283 27.8565L14.5906 24.783L23.5971 20.0378Z" fill="white"/>
<path d="M12.2599 23.9782L2.54272 21.123C3.29184 18.454 5.17963 16.3522 7.63246 14.9931L12.2599 23.9782Z" fill="white"/>
<path d="M11.5066 25.3395L3.43319 29.5324C2.22603 30.1595 1.13446 24.7894 2.25386 21.8571L11.284 24.6631C11.5194 24.7359 11.8362 25.1661 11.5066 25.3373V25.3395Z" fill="white"/>
<path d="M23.9784 28.7041C23.1672 31.416 21.3372 33.4664 18.8865 34.8105L14.2698 25.7911L23.9784 28.7041Z" fill="white"/>
<path d="M19.672 36.4479C15.372 38.8622 10.2695 38.6311 6.14931 36.0412C2.3609 33.6569 -0.0983542 29.2799 0.00224188 24.5476C0.173469 16.5748 6.97334 10.6504 14.8733 11.4765C16.6969 11.667 18.3193 10.9778 20.1129 10.8473C21.35 10.7552 23.1929 11.0677 23.5589 12.4033C24.2266 14.8304 24.5113 17.1634 25.4766 19.5135C28.0407 25.7569 25.7356 33.0426 19.672 36.4479ZM25.5173 24.9008C25.5173 18.1523 20.0294 12.6815 13.2595 12.6815C6.48962 12.6815 1.00178 18.1523 1.00178 24.9008C1.00178 31.6493 6.48962 37.12 13.2595 37.12C20.0294 37.12 25.5173 31.6493 25.5173 24.9008Z" fill="white"/>
<path d="M18.1331 35.1594C15.6203 36.5078 12.8657 36.6791 10.2202 35.8786L13.0497 26.795C13.0947 26.6537 13.2937 26.5659 13.3558 26.5317C13.4586 26.4739 13.6619 26.4953 13.7646 26.7243L18.1309 35.1573L18.1331 35.1594Z" fill="white"/>
<path d="M24.9605 0.218304C25.9023 3.47591 25.5598 8.34519 22.3194 9.93332C21.2471 8.94234 21.1358 7.40344 21.3177 6.00151C21.7393 2.75033 24.6245 -0.939621 24.9605 0.218304Z" fill="white"/>
<path d="M30.3888 5.67831C29.7638 8.42009 26.8059 11.4209 24.1326 10.798C23.8372 8.04981 27.4202 5.94158 30.3888 5.67831Z" fill="white"/>
<path d="M58.0631 32.6402C55.7194 36.2745 51.5693 37.7984 47.3657 37.0964C44.8358 36.6748 42.978 34.8234 42.6248 32.2271C41.9806 27.4948 43.8127 21.8871 48.087 19.7254C50.6318 18.439 53.6947 18.1972 56.3658 19.171C61.2094 20.939 60.6786 28.5864 58.0652 32.6402H58.0631ZM48.6863 33.9715C50.6061 34.5301 52.5967 33.7275 53.6968 32.1009C55.6381 29.2307 56.6077 23.6807 54.4095 22.4137C52.0701 21.0631 49.155 22.1825 48.0463 24.5883C46.6272 27.6682 45.8567 33.1518 48.6841 33.9737L48.6863 33.9715Z" fill="white"/>
<path d="M80.751 33.6226C83.9743 35.2108 87.0457 32.6209 87.7948 32.8821C88.0238 32.9613 88.773 34.1641 88.7002 34.9111C85.8407 37.1927 81.8511 37.8819 78.3281 36.6812C73.6343 35.0823 73.8933 27.2423 77.4677 22.3901C79.73 19.3187 83.5591 18.0302 87.2619 18.8329C89.475 19.3123 90.7678 21.2621 90.6714 23.456C90.4403 28.7212 84.4131 30.0611 79.2741 29.5175C78.8075 30.9451 79.2677 32.8906 80.7531 33.6226H80.751ZM85.0894 25.8168C86.2088 25.1833 86.8381 23.5973 86.0697 22.5763C85.3013 21.5554 83.6896 21.6046 82.5617 22.1761C80.843 23.0472 79.852 24.8986 79.6059 26.7714C81.5878 27.0325 83.3879 26.7778 85.0894 25.8147V25.8168Z" fill="white"/>
<path d="M116.203 36.1654C113.704 37.426 111.079 37.5073 108.488 36.8695C106.037 36.2659 104.761 33.8067 105.512 31.4737L108.657 31.5722C108.485 33.1089 109.318 34.3782 110.818 34.3632L112.937 34.3418C113.915 34.3332 114.686 33.7639 115.018 33.034C115.397 32.2014 115.591 31.0157 114.789 30.3864C113.806 29.6202 112.469 29.3633 111.336 28.9738C108.926 28.1455 107.629 26.1614 108.006 23.6636C108.263 21.9535 109.123 20.5708 110.731 19.7147C113.046 18.484 115.882 18.2057 118.423 19.0897C120.602 19.8474 121.479 22.3045 120.747 24.3271L117.642 24.2971C117.717 23.3725 117.599 22.2831 116.711 21.855C115.189 21.123 112.421 21.367 111.867 22.953C110.771 26.0865 117.019 25.6862 118.678 28.4173C120.33 31.1355 119.082 34.7142 116.206 36.1654H116.203Z" fill="white"/>
<path d="M71.6331 33.7125C72.241 34.3182 72.3309 35.1722 72.3244 36.0541C69.1417 37.67 63.8851 38.1152 63.2622 34.6714C63.091 33.7232 63.1959 32.7537 63.4056 31.7798L65.486 22.1525L63.0332 22.022C63.1188 21.0182 63.2858 20.0315 63.6346 19.0576L66.1367 18.987L67.2754 13.7174L71.327 13.696L70.3189 18.9977L74.3 19.0298C74.3 20.07 74.0924 21.0695 73.6943 22.0477L69.649 22.0605L67.6093 31.7648C67.4723 32.4219 67.4423 33.5862 68.0245 33.9308C69.1011 34.5687 70.4088 34.1641 71.6374 33.7125H71.6331Z" fill="white"/>
<path d="M39.2047 33.7468C40.0159 34.2369 40.0608 35.2921 39.9645 36.1118C36.7989 37.6272 31.7006 38.066 31.0072 34.879C30.7717 33.8003 30.898 32.6702 31.1356 31.5679L33.1753 22.1418L30.7439 22.0327C30.7717 21.0181 30.9858 20.01 31.3218 19.0405L33.8431 18.9891L34.9796 13.7089L39.0399 13.7046L37.9868 18.9998L42.0021 19.0426C42.0021 20.0764 41.741 21.046 41.4071 22.0412L37.2998 22.1183L35.3307 31.5679C35.1744 32.3213 35.0567 33.5156 35.7544 33.9458C36.7219 34.5408 37.9718 34.2005 39.2047 33.7489V33.7468Z" fill="white"/>
<path d="M96.2128 37.1863L92.1355 37.1906L95.1684 21.9792L93.1564 21.9556C93.2421 21.0117 93.4176 20.0528 93.8028 19.0533L99.4576 19.0276L99.2329 21.2086C101.166 18.6873 104.425 18.0003 107.24 19.0148L106.493 22.358C106.433 22.6277 106.277 22.8631 106.116 22.9445C105.487 23.2655 102.929 21.4398 100.547 23.0365C99.4084 23.8006 98.6999 25.0976 98.4195 26.4568L96.215 37.1863H96.2128Z" fill="white"/>
</g>
<defs>
<clipPath id="clip0_378_204">
<rect width="121" height="38.1281" fill="white"/>
</clipPath>
</defs>
</svg>
