<svg width="109" height="30" viewBox="0 0 109 30" fill="none" xmlns="http://www.w3.org/2000/svg">
<g clip-path="url(#clip0_326_3390)">
<path d="M19.3933 0.00166321C14.2075 0.0407358 9.9752 4.17052 9.79898 9.36356H9.71478V29.0369C13.715 29.036 17.302 26.568 18.7394 22.8277C18.6532 22.8277 18.5651 22.8277 18.477 22.8277C16.3828 22.8303 14.4653 21.6519 13.5185 19.7802C12.5718 17.9086 12.7569 15.6624 13.9973 13.9717C15.2376 12.2811 17.322 11.4337 19.3875 11.7805V9.6853H19.4638C24.7768 9.64866 29.0658 5.32512 29.0699 0.00166321H19.3933Z" fill="url(#paint0_linear_326_3390)"/>
<path d="M18.0669 20.27L16.4081 18.7261C16.0131 18.3586 15.7798 17.8483 15.7595 17.3079C15.7393 16.7674 15.9339 16.2411 16.3004 15.8448L18.1119 17.5323L23.008 13.3588C23.8657 12.6292 25.1483 12.7283 25.8849 13.5811L18.0669 20.27Z" fill="url(#paint1_linear_326_3390)"/>
<path d="M9.65145 0.00167847C4.35233 0.0445964 0.0789019 4.35291 0.0780029 9.65328H19.2698V0.00167847H9.65145Z" fill="url(#paint2_linear_326_3390)"/>
<path d="M12.8729 16.8903C12.9042 16.8882 12.9083 16.6239 12.9739 16.2428C13.013 16.0161 13.0801 15.7469 13.1704 15.47C13.3232 15.0013 13.5716 14.4972 13.8897 14.0384C14.0429 13.8175 14.2148 13.6079 14.395 13.416C14.5203 13.2826 14.6487 13.1575 14.7815 13.0443C14.9687 12.8847 15.1575 12.739 15.3516 12.6091C15.9144 12.2325 16.5076 11.9795 17.1262 11.8302C17.4429 11.7537 17.8804 11.6723 18.4439 11.6753C18.5651 11.6759 18.7424 11.679 18.9717 11.7019C19.0458 11.7093 19.1689 11.7258 19.3411 11.7516C19.3322 10.377 19.3322 9.68354 19.3411 9.67124C20.1305 8.57833 22.5734 8.9288 23.1932 8.70094C23.3189 8.65471 23.2557 7.98192 23.2557 7.61437C23.2557 4.4702 21.7016 1.68969 19.321 0.00167593C17.7187 0.00147565 12.0638 0.00167593 9.49996 0.00167593C9.16663 0.00955247 8.67235 0.077159 8.468 0.0870154C6.15426 1.78234 4.65143 4.52253 4.65143 7.61437C4.65143 8.32025 4.8805 9.00446 5.33864 9.66701C5.76322 9.66701 7.21409 9.66701 9.69123 9.66701C9.69123 11.4614 9.69123 12.5349 9.69123 12.8876C9.69123 14.0535 9.69123 15.3932 9.69123 15.8985C10.8624 16.5072 11.839 16.8311 12.6501 16.8831C12.7259 16.8879 12.8004 16.8953 12.8729 16.8903Z" fill="url(#paint3_radial_326_3390)"/>
<path d="M19.3933 0.00166321C14.2075 0.0406771 9.9752 4.16427 9.79898 9.34952L9.71478 19.144C9.71478 13.9175 13.9498 9.68057 19.174 9.68057H19.3875H19.4638C24.7807 9.64396 29.0711 5.32096 29.0699 0.00166321H19.3933Z" fill="url(#paint4_linear_326_3390)"/>
<path d="M44.6682 8.69152H42.4241V19.8554C42.4218 21.8567 40.8015 23.4785 38.8019 23.4808V8.69152H33.1896C33.1896 6.82044 34.7051 5.30362 36.5745 5.30362H48.0531C48.0531 7.17471 46.5376 8.69152 44.6682 8.69152Z" fill="#1C1C1E"/>
<path d="M56.7098 10.8027L56.2066 14.1557C55.5574 13.888 54.8629 13.747 54.1606 13.7402C52.5928 13.7402 51.5157 14.7 51.5157 16.5656V20.0183C51.5168 20.9149 51.1611 21.7751 50.5269 22.4095C49.8928 23.0439 49.0322 23.4004 48.1348 23.4004V10.8692H51.4118V12.2403C52.2019 11.0603 53.4079 10.5326 54.9507 10.5326C55.5483 10.5205 56.1435 10.6119 56.7098 10.8027Z" fill="#1C1C1E"/>
<path d="M94.8485 10.8028L94.3414 14.1557C93.6925 13.888 92.9983 13.747 92.2964 13.7403C90.7293 13.7403 89.6528 14.7 89.6528 16.5656V20.0183C89.6539 20.9149 89.2983 21.7751 88.6644 22.4095C88.0306 23.0439 87.1704 23.4004 86.2734 23.4004V10.8692H89.553V12.2403C90.3428 11.0604 91.544 10.5327 93.0861 10.5327C93.6848 10.5203 94.2811 10.6116 94.8485 10.8028Z" fill="#1C1C1E"/>
<path d="M69.9358 18.1329C69.9358 22.0942 67.1473 23.8025 64.0232 23.8025C60.8991 23.8025 58.0982 22.0942 58.0982 18.1329V10.9337H61.4751V17.8378C61.4751 19.8455 62.5689 20.6601 64.0274 20.6601C65.4858 20.6601 66.5838 19.8288 66.5838 17.8378V10.9379H69.94L69.9358 18.1329Z" fill="#1C1C1E"/>
<path d="M108.479 23.3997H105.175V22.0136C104.264 23.1379 102.875 23.7697 101.425 23.7193C97.959 23.7193 95.3385 20.8889 95.3385 17.129C95.3385 13.369 97.959 10.5345 101.425 10.5345C102.878 10.4825 104.269 11.12 105.175 12.2527C105.177 11.4887 105.799 10.8707 106.566 10.8707H108.487L108.479 23.3997ZM98.7798 17.129C98.7798 19.0422 100.03 20.5777 102.025 20.5777C104.021 20.5777 105.271 19.1044 105.271 17.129C105.271 15.1536 103.962 13.6761 102.025 13.6761C100.088 13.6761 98.7798 15.2117 98.7798 17.129Z" fill="#1C1C1E"/>
<path d="M78.1372 10.6926C79.0197 10.6859 79.8942 10.8611 80.7063 11.2073C81.486 11.5421 82.1958 12.0208 82.7989 12.6185C83.3974 13.2201 83.8743 13.9318 84.2036 14.7145C84.5509 15.5275 84.7272 16.4035 84.7216 17.2878C84.7277 18.1668 84.5513 19.0374 84.2036 19.8445C83.8703 20.625 83.3938 21.3359 82.7989 21.9405C82.2007 22.5472 81.4898 23.0308 80.7063 23.3641C79.0632 24.0559 77.2112 24.0559 75.568 23.3641C74.7919 23.0285 74.0882 22.545 73.4962 21.9405C72.9012 21.3359 72.4248 20.625 72.0914 19.8445C71.7437 19.0374 71.5674 18.1668 71.5735 17.2878C71.5678 16.4035 71.7441 15.5275 72.0914 14.7145C72.4207 13.9318 72.8977 13.2201 73.4962 12.6185C74.0931 12.023 74.7957 11.5444 75.568 11.2073C76.3801 10.8611 77.2546 10.6859 78.1372 10.6926ZM78.1372 13.7931C77.2155 13.7753 76.3275 14.1404 75.6841 14.8016C75.0121 15.4538 74.6388 16.3549 74.6523 17.2919C74.6503 17.7444 74.742 18.1924 74.9216 18.6076C75.1085 19.0291 75.3664 19.4152 75.6841 19.749C76.3247 20.4174 77.2122 20.7913 78.1372 20.7825C78.5934 20.784 79.0455 20.6952 79.4673 20.521C79.8931 20.3482 80.2762 20.0848 80.5903 19.749C81.5891 18.7545 81.8901 17.2546 81.3527 15.9507C80.8153 14.6467 79.5455 13.7964 78.1372 13.7972V13.7931Z" fill="#1C1C1E"/>
</g>
<defs>
<linearGradient id="paint0_linear_326_3390" x1="9.12737" y1="1451.76" x2="1945.23" y2="1451.76" gradientUnits="userSpaceOnUse">
<stop stop-color="#6300FF"/>
<stop offset="1" stop-color="#0000FF"/>
</linearGradient>
<linearGradient id="paint1_linear_326_3390" x1="15.9358" y1="382.683" x2="1028.04" y2="382.683" gradientUnits="userSpaceOnUse">
<stop stop-color="#6300FF"/>
<stop offset="1" stop-color="#0000FF"/>
</linearGradient>
<linearGradient id="paint2_linear_326_3390" x1="-0.117374" y1="481.898" x2="1919.07" y2="481.898" gradientUnits="userSpaceOnUse">
<stop stop-color="#6300FF"/>
<stop offset="1" stop-color="#0000FF"/>
</linearGradient>
<radialGradient id="paint3_radial_326_3390" cx="0" cy="0" r="1" gradientUnits="userSpaceOnUse" gradientTransform="translate(890.957 866.788) scale(934.73 934.064)">
<stop stop-color="#030238"/>
<stop offset="1" stop-color="#4500FF"/>
</radialGradient>
<linearGradient id="paint4_linear_326_3390" x1="9.12737" y1="956.335" x2="1945.23" y2="956.335" gradientUnits="userSpaceOnUse">
<stop stop-color="#6300FF"/>
<stop offset="1" stop-color="#0000FF"/>
</linearGradient>
<clipPath id="clip0_326_3390">
<rect width="109" height="29.5208" fill="white"/>
</clipPath>
</defs>
</svg>
