<svg width="96" height="26" viewBox="0 0 96 26" fill="none" xmlns="http://www.w3.org/2000/svg">
<g clip-path="url(#clip0_326_3390)">
<path d="M17.0804 0.00146484C12.5131 0.0358774 8.78549 3.67312 8.63029 8.24681H8.55614V25.5738C12.0793 25.573 15.2385 23.3994 16.5044 20.1051C16.4285 20.1051 16.3509 20.1051 16.2733 20.1051C14.4288 20.1075 12.7401 19.0695 11.9062 17.4211C11.0724 15.7727 11.2354 13.7944 12.3279 12.3054C13.4203 10.8163 15.2561 10.0701 17.0752 10.3755V8.53017H17.1425C21.8218 8.49791 25.5992 4.69002 25.6029 0.00146484H17.0804Z" fill="url(#paint0_linear_326_3390)"/>
<path d="M15.9122 17.8525L14.4512 16.4927C14.1033 16.169 13.8978 15.7196 13.88 15.2436C13.8622 14.7676 14.0336 14.3041 14.3564 13.9551L15.9518 15.4413L20.2639 11.7656C21.0194 11.123 22.149 11.2103 22.7977 11.9613L15.9122 17.8525Z" fill="url(#paint1_linear_326_3390)"/>
<path d="M8.50038 0.00146484C3.83327 0.0392641 0.0695174 3.83374 0.0687256 8.50195H16.9716V0.00146484H8.50038Z" fill="url(#paint2_linear_326_3390)"/>
<path d="M11.3375 14.8759C11.3652 14.874 11.3687 14.6412 11.4265 14.3056C11.4609 14.1059 11.5201 13.8688 11.5996 13.625C11.7341 13.2121 11.9529 12.7682 12.2331 12.3641C12.3681 12.1695 12.5194 11.9849 12.6781 11.8159C12.7885 11.6984 12.9016 11.5883 13.0185 11.4886C13.1834 11.348 13.3497 11.2196 13.5206 11.1053C14.0163 10.7736 14.5388 10.5508 15.0836 10.4192C15.3625 10.3519 15.7479 10.2802 16.2442 10.2828C16.3509 10.2834 16.5071 10.2861 16.709 10.3063C16.7743 10.3128 16.8827 10.3274 17.0343 10.35C17.0265 9.13937 17.0265 8.52863 17.0343 8.51779C17.7296 7.55524 19.8811 7.86391 20.427 7.66322C20.5377 7.6225 20.4821 7.02995 20.4821 6.70624C20.4821 3.93706 19.1133 1.48817 17.0166 0.0014822C15.6055 0.00130581 10.625 0.0014822 8.36692 0.0014822C8.07334 0.00841935 7.63801 0.0679627 7.45804 0.0766436C5.42024 1.56978 4.09665 3.98315 4.09665 6.70624C4.09665 7.32793 4.2984 7.93054 4.7019 8.51407C5.07585 8.51407 6.35367 8.51407 8.53537 8.51407C8.53537 10.0945 8.53537 11.04 8.53537 11.3506C8.53537 12.3774 8.53537 13.5573 8.53537 14.0023C9.56686 14.5385 10.427 14.8237 11.1414 14.8695C11.2082 14.8738 11.2737 14.8802 11.3375 14.8759Z" fill="url(#paint3_radial_326_3390)"/>
<path d="M17.0804 0.00146484C12.5131 0.0358257 8.78549 3.66762 8.63029 8.23444L8.55614 16.8608C8.55614 12.2576 12.2861 8.52601 16.8872 8.52601H17.0752H17.1425C21.8252 8.49376 25.6039 4.68635 25.6029 0.00146484H17.0804Z" fill="url(#paint4_linear_326_3390)"/>
<path d="M39.3409 7.65492H37.3644V17.4873C37.3624 19.2499 35.9353 20.6783 34.1742 20.6803V7.65492H29.2313C29.2313 6.00699 30.566 4.67108 32.2124 4.67108H42.322C42.322 6.31901 40.9873 7.65492 39.3409 7.65492Z" fill="#1C1C1E"/>
<path d="M49.9463 9.51431L49.5031 12.4674C48.9314 12.2316 48.3197 12.1074 47.7011 12.1015C46.3203 12.1015 45.3717 12.9468 45.3717 14.5898V17.6308C45.3727 18.4204 45.0594 19.1781 44.5008 19.7368C43.9423 20.2956 43.1843 20.6095 42.394 20.6095V9.57286H45.2801V10.7804C45.976 9.74119 47.0382 9.27645 48.397 9.27645C48.9233 9.26579 49.4475 9.34627 49.9463 9.51431Z" fill="#1C1C1E"/>
<path d="M83.5363 9.51435L83.0897 12.4674C82.5182 12.2317 81.9068 12.1075 81.2886 12.1015C79.9084 12.1015 78.9603 12.9468 78.9603 14.5899V17.6308C78.9612 18.4205 78.6481 19.1781 78.0898 19.7368C77.5316 20.2956 76.774 20.6095 75.984 20.6095V9.5729H78.8724V10.7805C79.568 9.74123 80.6259 9.27649 81.9841 9.27649C82.5114 9.26556 83.0366 9.34604 83.5363 9.51435Z" fill="#1C1C1E"/>
<path d="M61.5949 15.9703C61.5949 19.4591 59.139 20.9637 56.3875 20.9637C53.6359 20.9637 51.1691 19.4591 51.1691 15.9703V9.6297H54.1432V15.7104C54.1432 17.4786 55.1066 18.1961 56.3911 18.1961C57.6756 18.1961 58.6427 17.4639 58.6427 15.7104V9.63336H61.5985L61.5949 15.9703Z" fill="#1C1C1E"/>
<path d="M95.5408 20.6089H92.6311V19.3881C91.8287 20.3783 90.6054 20.9348 89.3287 20.8904C86.2759 20.8904 83.9679 18.3976 83.9679 15.0861C83.9679 11.7746 86.2759 9.27812 89.3287 9.27812C90.6081 9.23227 91.8335 9.79376 92.6311 10.7913C92.6331 10.1185 93.1812 9.57418 93.8566 9.57418H95.5482L95.5408 20.6089ZM86.9987 15.0861C86.9987 16.7711 88.0995 18.1235 89.8571 18.1235C91.6147 18.1235 92.7155 16.8259 92.7155 15.0861C92.7155 13.3462 91.5633 12.045 89.8571 12.045C88.1509 12.045 86.9987 13.3974 86.9987 15.0861Z" fill="#1C1C1E"/>
<path d="M68.8181 9.41734C69.5954 9.41142 70.3656 9.56571 71.0808 9.87062C71.7675 10.1655 72.3927 10.5871 72.9238 11.1135C73.4509 11.6434 73.871 12.2702 74.161 12.9595C74.4669 13.6756 74.6222 14.4471 74.6172 15.2259C74.6226 16.0001 74.4672 16.7669 74.161 17.4777C73.8674 18.1651 73.4478 18.7912 72.9238 19.3237C72.397 19.858 71.7709 20.284 71.0808 20.5775C69.6336 21.1868 68.0025 21.1868 66.5554 20.5775C65.8718 20.2819 65.252 19.8561 64.7306 19.3237C64.2066 18.7912 63.787 18.1651 63.4934 17.4777C63.1872 16.7669 63.0318 16.0001 63.0372 15.2259C63.0322 14.4471 63.1875 13.6756 63.4934 12.9595C63.7834 12.2702 64.2035 11.6434 64.7306 11.1135C65.2563 10.589 65.8752 10.1675 66.5554 9.87062C67.2706 9.56571 68.0408 9.41142 68.8181 9.41734ZM68.8181 12.148C68.0063 12.1323 67.2242 12.4539 66.6575 13.0363C66.0657 13.6106 65.7369 14.4043 65.7488 15.2296C65.7471 15.6281 65.8279 16.0227 65.986 16.3884C66.1506 16.7596 66.3778 17.0996 66.6575 17.3936C67.2217 17.9822 68.0035 18.3116 68.8181 18.3038C69.2199 18.3052 69.6181 18.2269 69.9896 18.0735C70.3646 17.9213 70.702 17.6894 70.9786 17.3936C71.8583 16.5177 72.1234 15.1967 71.6501 14.0483C71.1768 12.8999 70.0585 12.1509 68.8181 12.1516V12.148Z" fill="#1C1C1E"/>
</g>
<defs>
<linearGradient id="paint0_linear_326_3390" x1="8.03879" y1="1278.62" x2="1713.23" y2="1278.62" gradientUnits="userSpaceOnUse">
<stop stop-color="#6300FF"/>
<stop offset="1" stop-color="#0000FF"/>
</linearGradient>
<linearGradient id="paint1_linear_326_3390" x1="14.0352" y1="337.042" x2="905.431" y2="337.042" gradientUnits="userSpaceOnUse">
<stop stop-color="#6300FF"/>
<stop offset="1" stop-color="#0000FF"/>
</linearGradient>
<linearGradient id="paint2_linear_326_3390" x1="-0.103349" y1="424.424" x2="1690.19" y2="424.424" gradientUnits="userSpaceOnUse">
<stop stop-color="#6300FF"/>
<stop offset="1" stop-color="#0000FF"/>
</linearGradient>
<radialGradient id="paint3_radial_326_3390" cx="0" cy="0" r="1" gradientUnits="userSpaceOnUse" gradientTransform="translate(784.696 763.41) scale(823.248 822.662)">
<stop stop-color="#030238"/>
<stop offset="1" stop-color="#4500FF"/>
</radialGradient>
<linearGradient id="paint4_linear_326_3390" x1="8.03879" y1="842.277" x2="1713.23" y2="842.277" gradientUnits="userSpaceOnUse">
<stop stop-color="#6300FF"/>
<stop offset="1" stop-color="#0000FF"/>
</linearGradient>
<clipPath id="clip0_326_3390">
<rect width="96" height="26" fill="white"/>
</clipPath>
</defs>
</svg>
