<svg width="120" height="42" viewBox="0 0 120 42" fill="none" xmlns="http://www.w3.org/2000/svg">
<g clip-path="url(#clip0_399_213)">
<path d="M104.629 41.0251L97.3784 41.0375C97.9157 31.7431 97.9157 22.4733 97.4834 13.0554L104.4 10.9557L104.221 16.6929C105.388 14.9575 106.451 13.4383 107.994 12.1476C110.903 9.70816 115.239 9.91814 117.783 12.7775C120.086 15.3713 120.321 19.824 119.722 23.2329C118.913 28.0376 115.331 31.7431 110.582 32.8115C108.55 33.2499 106.568 33.2561 104.456 33.0091L104.629 41.019V41.0251ZM110.965 31.1934C113.17 29.069 112.96 23.2515 112.392 20.1327C112.163 18.8605 111.725 17.7304 111.021 16.6867C109.977 15.1243 107.994 14.5129 106.327 15.4392C104.907 16.2297 104.419 18.5209 104.413 20.2439L104.394 28.8714C104.993 29.9089 105.666 30.8043 106.667 31.4281C107.982 32.2495 109.779 32.3236 110.959 31.1872L110.965 31.1934Z" fill="white"/>
<path d="M86.3734 38.6659C84.496 40.9324 81.8281 41.5129 79.049 40.7101C77.4989 40.2654 76.5479 38.9624 76.4429 37.3752C76.3502 35.8992 76.5293 34.4479 77.4557 33.1387C79.8827 35.4916 83.4955 35.961 86.4413 34.5776C87.2009 34.1453 87.8556 33.5771 88.152 32.6693L81.6119 32.694L74.584 13.0924L81.7046 10.9432C81.0808 14.7907 80.7165 18.4714 80.772 22.2941C80.8894 25.1288 81.0932 27.8646 81.9639 30.656C84.2428 24.9559 86.1696 19.4224 87.9482 13.642L96.9585 10.9247C94.3895 17.5389 91.9686 23.9184 89.8009 30.5202L88.1149 35.609C87.7382 36.7453 87.1268 37.7457 86.3672 38.6721L86.3734 38.6659Z" fill="white"/>
<path d="M50.4431 26.5061C51.32 28.5503 54.3955 28.5997 56.52 27.7227C56.6805 27.6548 56.767 27.698 56.8164 27.7536C56.9646 27.9265 56.8905 28.0315 56.767 28.1797L54.34 31.07C52.4749 32.8671 50.0787 33.497 47.5529 33.0338C44.0018 32.3854 43.057 29.6249 43.1434 26.185C43.2422 22.0967 43.3472 18.101 43.236 13.9633L39.8147 12.5552C39.753 12.4935 39.7777 12.1723 39.8271 12.1106C39.9815 11.9006 42.9952 11.2954 44.465 9.24505C45.3728 8.00991 45.9225 6.6389 46.398 5.13821L50.2146 5.12585L50.054 11.0669C52.0611 11.1348 54.0188 10.9928 56.0197 10.7828V17.9281C55.9148 18.0639 55.606 18.0825 55.5195 17.9528C54.1423 15.7419 52.4131 13.3025 50.054 11.9747L49.9861 24.3755C49.9861 25.1351 50.1714 25.8577 50.4554 26.5123L50.4431 26.5061Z" fill="white"/>
<path d="M65.1289 20.2933L65.3018 32.7126H58.0206C58.4591 26.1232 58.527 19.6634 58.138 13.0183L64.9868 10.9309L64.8386 17.2919C65.4315 15.5504 65.9688 13.92 67.031 12.4625C68.2846 10.7395 70.2917 9.97988 72.305 10.7889C73.9725 11.462 74.2874 13.5371 74.1083 15.396C73.9292 17.2549 72.9596 18.7864 71.2613 19.651C70.5017 17.9342 69.4395 15.6245 67.7288 15.7109C65.8638 15.8036 65.2833 18.2059 65.1289 20.2933Z" fill="white"/>
<path d="M17.1005 32.6324H15.3837L15.3096 30.2856C15.0378 29.279 14.3153 28.4947 13.5371 27.7845L7.18851 31.144L6.4289 29.5939L11.882 26.6667C11.4065 26.4567 10.8445 25.9873 10.2393 25.9873L1.86506 25.9318V24.2149L10.1528 24.184C10.6531 24.184 11.1471 23.8876 11.5794 23.5726L0 16.6867C0.265555 16.1556 0.512583 15.6863 0.901652 15.2169L13.4816 22.5907L4.39092 6.44125L5.90397 5.60136L14.6549 21.0344C14.9452 20.6701 15.3466 20.2563 15.3466 19.7993L15.3651 0.0123514L17.0943 0L17.1129 19.8055C17.1129 20.2254 17.5143 20.6083 17.681 20.8924L26.3641 5.58901C26.9631 5.89162 27.451 6.12012 27.8462 6.46596L18.8112 22.5537L31.3725 15.2107L32.2557 16.6806L20.7565 23.5294C21.3062 23.8691 21.8187 24.1779 22.3869 24.1779L30.3906 24.1964L30.403 25.9194L22.2819 25.975C21.6644 25.975 21.0591 26.4073 20.5342 26.7284L25.8329 29.5939L25.0548 31.1379L18.8606 27.84C18.1442 28.5194 17.4278 29.279 17.1623 30.2424L17.0943 32.6262L17.1005 32.6324ZM18.8297 24.9313C18.348 24.4249 18.0701 24.1964 17.6131 24.0667C17.7551 25.166 17.0017 25.9194 16.0753 25.8762C15.149 25.8329 14.4511 25.0239 14.6796 23.9494C14.1424 24.1161 13.7533 24.4434 13.3457 24.9622C13.9324 25.7094 14.7661 26.327 15.7666 26.432C16.9832 26.5617 18.1504 25.9132 18.8297 24.9313Z" fill="white"/>
</g>
<defs>
<clipPath id="clip0_399_213">
<rect width="120" height="41.056" fill="white"/>
</clipPath>
</defs>
</svg>
