<svg width="137" height="18" viewBox="0 0 137 18" fill="none" xmlns="http://www.w3.org/2000/svg">
<g clip-path="url(#clip0_337_235)">
<path d="M56.3018 10.7988C56.3018 11.9229 55.9791 12.8557 55.3213 13.5852C54.6755 14.3267 53.8385 14.6974 52.822 14.6974C51.925 14.6974 51.1717 14.3865 50.5617 13.7766C49.9519 13.1667 49.6409 12.3295 49.6409 11.2891V4.69983H47.3926V11.9349C47.3926 13.4058 47.8828 14.5778 48.8756 15.4508C49.8561 16.3357 51.0402 16.7782 52.3915 16.7782C54.0657 16.7782 55.3691 16.1085 56.2901 14.7572V16.5749H58.5382V4.69983H56.2901L56.3018 10.7988Z" fill="black"/>
<path d="M67.5432 4.49652H67.4714C65.6896 4.52042 64.3263 5.22599 63.3696 6.60126V0.884953H61.1215V16.5749H63.3696V14.7093C64.3503 16.0726 65.7256 16.7423 67.4714 16.7423C69.2175 16.7423 70.5688 16.1444 71.7048 14.9485C72.8411 13.7526 73.4031 12.3056 73.4031 10.6194C73.4031 8.93322 72.8291 7.45033 71.7048 6.25445C70.5808 5.08249 69.1817 4.49652 67.5432 4.49652ZM70.1383 13.5254C69.349 14.3266 68.4042 14.7213 67.2802 14.7213C66.1561 14.7213 65.2233 14.3147 64.4341 13.5134C63.6448 12.7122 63.25 11.7555 63.25 10.6433C63.25 9.53117 63.6448 8.56249 64.4221 7.74929C65.2113 6.94806 66.1561 6.54145 67.2802 6.54145C68.4042 6.54145 69.337 6.94806 70.1263 7.74929C70.9155 8.55054 71.3103 9.51921 71.3103 10.6433C71.3103 11.7555 70.9155 12.7242 70.1383 13.5254Z" fill="black"/>
<path fill-rule="evenodd" clip-rule="evenodd" d="M75.5078 0.597941C75.7948 0.31093 76.1535 0.167423 76.5842 0.167423C77.0028 0.167423 77.3615 0.31093 77.6485 0.597941C77.9475 0.884952 78.091 1.24371 78.091 1.65031C78.091 2.05692 77.9475 2.39176 77.6485 2.66681C77.3615 2.94187 77.0148 3.08538 76.5842 3.08538C76.1535 3.08538 75.783 2.95382 75.496 2.67877C75.197 2.41568 75.0535 2.06887 75.0535 1.65031C75.0535 1.23175 75.209 0.872994 75.5078 0.597941ZM75.436 4.6998H77.6843V16.5868H75.436V4.6998Z" fill="black"/>
<path d="M85.7566 6.52951C86.5338 6.52951 87.2276 6.74477 87.8374 7.16333C88.4474 7.59384 88.9256 8.15591 89.2486 8.86148L91.3295 8.32333C90.863 7.18725 90.1334 6.26642 89.1289 5.54888C88.1244 4.84333 87.0003 4.48455 85.7446 4.48455C84.0585 4.48455 82.6234 5.08249 81.4394 6.27838C80.2436 7.47426 79.6456 8.92128 79.6456 10.6314C79.6456 12.3295 80.2316 13.7407 81.4037 14.9485C82.5755 16.1563 84.0225 16.7543 85.7446 16.7543C87.0123 16.7543 88.1484 16.4075 89.1409 15.7019C90.1334 14.9963 90.863 14.0755 91.3295 12.9155L89.2486 12.3774C88.9376 13.0829 88.4712 13.645 87.8494 14.0755C87.2276 14.506 86.5338 14.7093 85.7566 14.7093C84.6563 14.7093 83.7115 14.3147 82.9342 13.5135C82.157 12.7122 81.7624 11.7555 81.7624 10.6314C81.7624 9.50725 82.145 8.55054 82.9222 7.73734C83.6877 6.94807 84.6325 6.54148 85.7566 6.52951Z" fill="black"/>
<path d="M95.491 0.884953H93.2427V16.5749H95.491V0.884953Z" fill="black"/>
<path d="M103.599 4.49652C101.913 4.49652 100.478 5.09446 99.2819 6.29034C98.0979 7.48621 97.5001 8.93322 97.5001 10.6194C97.5001 12.3056 98.0979 13.7526 99.2819 14.9605C100.466 16.1683 101.913 16.7662 103.599 16.7662C105.285 16.7662 106.732 16.1563 107.928 14.9485C109.112 13.7526 109.698 12.3056 109.698 10.6194C109.698 8.93322 109.1 7.51013 107.916 6.3023C106.732 5.10641 105.285 4.49652 103.599 4.49652ZM106.421 13.5015C105.644 14.3027 104.699 14.6974 103.599 14.6974C102.487 14.6974 101.554 14.3027 100.777 13.5135C99.9995 12.7242 99.6049 11.7555 99.6049 10.6194C99.6049 9.48334 99.9875 8.53859 100.765 7.74931C101.53 6.96002 102.475 6.56538 103.599 6.56538C104.723 6.56538 105.668 6.96002 106.433 7.74931C107.199 8.53859 107.593 9.49529 107.593 10.6194C107.593 11.7316 107.211 12.7003 106.421 13.5015Z" fill="black"/>
<path d="M120.413 10.7988C120.413 11.9229 120.09 12.8557 119.433 13.5852C118.787 14.3267 117.95 14.6974 116.933 14.6974C116.036 14.6974 115.283 14.3865 114.673 13.7766C114.063 13.1667 113.752 12.3295 113.752 11.2891V4.69983H111.504V11.9349C111.504 13.4058 111.994 14.5778 112.987 15.4508C113.967 16.3357 115.151 16.7782 116.503 16.7782C118.177 16.7782 119.48 16.1085 120.401 14.7572V16.5749H122.649V4.69983H120.401L120.413 10.7988Z" fill="black"/>
<path d="M134.752 0.884953V6.57735C133.771 5.19011 132.396 4.49652 130.65 4.49652C129.012 4.49652 127.612 5.08249 126.452 6.26642C125.28 7.46228 124.706 8.92127 124.706 10.6314C124.706 12.3415 125.28 13.7407 126.44 14.9485C127.6 16.1563 129 16.7543 130.65 16.7543C132.396 16.7543 133.771 16.0726 134.752 14.7213V16.5868H137V0.884953H134.752ZM133.699 13.5015C132.91 14.3027 131.953 14.7093 130.853 14.7093C129.753 14.7093 128.76 14.3147 127.983 13.5254C127.206 12.7361 126.811 11.7675 126.811 10.6314C126.811 9.49529 127.206 8.55054 127.983 7.73734C128.772 6.93611 129.717 6.5295 130.841 6.5295C131.965 6.5295 132.91 6.93611 133.699 7.73734C134.489 8.55054 134.871 9.50724 134.871 10.6314C134.895 11.7555 134.501 12.7002 133.699 13.5015Z" fill="black"/>
<path fill-rule="evenodd" clip-rule="evenodd" d="M0 9.38763V11.5522L8.29942 15.6421V13.4536L2.63093 10.7031C2.4396 10.5955 2.22434 10.5118 2.02104 10.44C2.21239 10.3683 2.41567 10.2845 2.61898 10.1889L8.28744 7.43834V5.30968L0 9.38763Z" fill="black"/>
<path fill-rule="evenodd" clip-rule="evenodd" d="M41.8557 9.38763V11.5522L33.5564 15.654V13.4656L39.2248 10.715C39.4161 10.6074 39.6314 10.5237 39.8346 10.452C39.6433 10.3802 39.4401 10.2965 39.2368 10.2008L33.5682 7.4503V5.30968L41.8557 9.38763Z" fill="black"/>
<path fill-rule="evenodd" clip-rule="evenodd" d="M26.5125 17.0891C29.9686 17.0891 32.8747 14.3506 32.9942 10.9662C33.0542 9.22023 32.4202 7.56991 31.2124 6.3262C30.0046 5.07052 28.3783 4.37692 26.6323 4.37692H26.6203C25.9505 1.81773 23.6307 -7.62939e-06 20.9039 -7.62939e-06C18.572 -7.62939e-06 16.4673 1.36329 15.5105 3.49197C13.7048 3.52784 12.0186 4.26929 10.751 5.57278C9.4594 6.91217 8.77775 8.68207 8.8495 10.5477C8.98105 14.1712 12.0903 17.1011 15.7976 17.1011H26.5125V17.0891ZM20.8921 1.94927C22.6499 1.94927 24.1447 3.07341 24.647 4.68783C22.1119 5.52495 20.2701 7.91672 20.2701 10.727V10.9064H22.2314V10.727C22.2314 8.61032 23.7262 6.84042 25.7233 6.42186L25.9385 6.38598C26.0582 6.36208 26.1658 6.35011 26.2735 6.35011C26.393 6.33815 26.5125 6.3262 26.6203 6.3262C27.8281 6.3262 28.9523 6.80454 29.7774 7.66559C30.6144 8.52662 31.0451 9.67465 31.0091 10.8825C30.9254 13.2145 28.9043 15.1159 26.4888 15.1159H26.0582H15.7617C13.1068 15.1159 10.8705 13.0231 10.7868 10.452C10.739 9.12456 11.2173 7.86887 12.1382 6.91217C13.059 5.95547 14.2908 5.42928 15.6301 5.42928C16.3357 5.42928 16.9576 5.01074 17.2326 4.36495C17.8664 2.90598 19.3015 1.94927 20.8921 1.94927Z" fill="black"/>
</g>
<defs>
<clipPath id="clip0_337_235">
<rect width="137" height="17.2774" fill="white"/>
</clipPath>
</defs>
</svg>
