<svg width="91" height="26" viewBox="0 0 91 26" fill="none" xmlns="http://www.w3.org/2000/svg">
<g clip-path="url(#clip0_326_3348)">
<path d="M20.436 12.2603C20.3463 14.2285 18.9709 16.9247 16.3124 20.3463C13.5642 23.92 11.2385 25.7075 9.33531 25.7075C8.15751 25.7075 7.16041 24.6194 6.34531 22.4419C5.80191 20.4464 5.25721 18.4522 4.71381 16.4567C4.10931 14.2805 3.46061 13.1911 2.76641 13.1911C2.61561 13.1911 2.08521 13.5096 1.17911 14.144L0.228806 12.9181C1.22591 12.0419 2.21001 11.1644 3.17851 10.2856C4.50971 9.13641 5.50811 8.53061 6.17501 8.46951C7.74801 8.31871 8.71651 9.39511 9.08051 11.6974C9.47311 14.183 9.7448 15.7287 9.8969 16.3332C10.3506 18.395 10.8498 19.4246 11.3945 19.4246C11.8183 19.4246 12.454 18.7551 13.3016 17.4187C14.1479 16.081 14.6016 15.0631 14.6627 14.365C14.7836 13.2106 14.3299 12.6321 13.3016 12.6321C12.8167 12.6321 12.3175 12.7426 11.8053 12.9636C12.7985 9.70841 14.6965 8.12631 17.4993 8.21601C19.5767 8.27711 20.5556 9.62521 20.436 12.2603Z" fill="#1AB7EA"/>
<path d="M28.9653 2.49339C28.9354 3.24739 28.5571 3.97019 27.8291 4.66309C27.0127 5.44569 26.0442 5.83699 24.9249 5.83699C23.1998 5.83699 22.3665 5.08429 22.4276 3.57889C22.4562 2.79629 22.919 2.04229 23.8108 1.31949C24.7039 0.59799 25.6945 0.235291 26.7852 0.235291C27.4209 0.235291 27.95 0.484891 28.3751 0.981491C28.7976 1.47809 28.9952 1.98249 28.9653 2.49339ZM32.9147 18.6381C32.0671 20.2397 30.9023 21.6918 29.419 22.9918C27.391 24.7455 25.3643 25.623 23.3363 25.623C22.3964 25.623 21.6788 25.3201 21.1796 24.7143C20.6804 24.1098 20.4451 23.3246 20.4763 22.3561C20.5049 21.359 20.8156 19.8159 21.4058 17.7281C21.996 15.6416 22.2924 14.5223 22.2924 14.3715C22.2924 13.585 22.0194 13.1911 21.4747 13.1911C21.294 13.1911 20.7779 13.5096 19.9303 14.144L18.8864 12.9181C19.8549 12.0419 20.8234 11.1644 21.7919 10.2856C23.0932 9.13639 24.0617 8.53059 24.6987 8.46949C25.6971 8.37979 26.4303 8.67359 26.8996 9.35219C27.3676 10.0321 27.5418 10.9122 27.4222 11.9977C27.0283 13.8372 26.6045 16.1733 26.1508 19.0073C26.1196 20.3047 26.5889 20.9521 27.5574 20.9521C27.9812 20.9521 28.7378 20.5049 29.8272 19.6092C30.7359 18.863 31.4769 18.161 32.0528 17.5032L32.9147 18.6381Z" fill="#1AB7EA"/>
<path d="M61.2651 18.6368C60.4175 20.2397 59.2527 21.6905 57.7694 22.9905C55.7414 24.7442 53.7134 25.6217 51.6867 25.6217C49.7185 25.6217 48.7656 24.5336 48.8267 22.3548C48.8553 21.3863 49.0451 20.2241 49.3935 18.863C49.7406 17.5006 49.9304 16.4424 49.9603 15.6858C49.9915 14.5379 49.6418 13.962 48.9125 13.962C48.1234 13.962 47.1822 14.9006 46.0889 16.7765C44.9358 18.7447 44.3118 20.6505 44.2221 22.4965C44.1571 23.7991 44.2871 24.7975 44.603 25.493C42.4918 25.5541 41.0124 25.2057 40.1687 24.4491C39.4121 23.7835 39.0663 22.6798 39.1274 21.1354C39.1534 20.1669 39.3042 19.1984 39.5733 18.2299C39.8398 17.2614 39.988 16.3995 40.0179 15.6416C40.0829 14.5223 39.6695 13.962 38.7907 13.962C38.0328 13.962 37.2138 14.8252 36.3363 16.5503C35.4575 18.2741 34.9726 20.0759 34.8816 21.9518C34.8166 23.6483 34.9336 24.8274 35.2066 25.493C33.1292 25.5541 31.6537 25.116 30.7814 24.18C30.056 23.3961 29.7258 22.204 29.7869 20.6037C29.8129 19.8198 29.9546 18.7252 30.2042 17.3225C30.4538 15.9185 30.5929 14.8252 30.6215 14.04C30.6865 13.4979 30.5435 13.2249 30.2133 13.2249C30.0313 13.2249 29.5165 13.5317 28.6689 14.144L27.5795 12.9181C27.7316 12.7985 28.6832 11.9197 30.4395 10.2856C31.7109 9.10651 32.5728 8.50071 33.0265 8.47081C33.8143 8.40971 34.4487 8.73471 34.9336 9.44581C35.4172 10.1569 35.6603 10.9824 35.6603 11.9197C35.6603 12.2226 35.6343 12.5099 35.5693 12.7829C36.023 12.0874 36.5521 11.4803 37.1579 10.9655C38.5502 9.75651 40.1089 9.07401 41.834 8.92321C43.3173 8.80231 44.3755 9.14941 45.0125 9.96711C45.526 10.6327 45.7678 11.5869 45.7379 12.8271C45.9498 12.6464 46.1773 12.4488 46.4204 12.2369C47.1146 11.4205 47.7958 10.7705 48.4614 10.2856C49.5807 9.46791 50.7481 9.01421 51.9571 8.92321C53.4105 8.80231 54.4544 9.14811 55.0901 9.96321C55.6335 10.6262 55.8766 11.5765 55.8168 12.8115C55.7856 13.6565 55.5815 14.885 55.2032 16.4983C54.8236 18.1116 54.6364 19.0372 54.6364 19.279C54.6052 19.9134 54.6663 20.3502 54.8171 20.5907C54.9692 20.8325 55.3306 20.9521 55.9065 20.9521C56.3303 20.9521 57.0856 20.5049 58.1763 19.6079C59.0837 18.863 59.826 18.161 60.4019 17.5032L61.2651 18.6368Z" fill="#1AB7EA"/>
<path d="M67.9835 13.8502C68.0121 13.0377 67.6806 12.6308 66.9864 12.6308C66.079 12.6308 65.1573 13.2561 64.2213 14.5054C63.284 15.7547 62.8004 16.952 62.7705 18.096C62.7536 18.096 62.7536 18.2923 62.7705 18.6836C64.2512 18.1415 65.5356 17.3147 66.6237 16.1993C67.4999 15.236 67.9523 14.4521 67.9835 13.8502ZM78.2886 18.59C77.4111 20.0421 75.686 21.4916 73.1133 22.9424C69.9062 24.7858 66.651 25.7062 63.3529 25.7062C60.9024 25.7062 59.1448 24.8898 58.0866 23.2557C57.33 22.1364 56.9673 20.8052 56.9972 19.2621C57.0271 16.8116 58.1178 14.482 60.2667 12.272C62.6262 9.8514 65.4108 8.6398 68.6192 8.6398C71.5858 8.6398 73.1588 9.8488 73.3408 12.2629C73.4617 13.8021 72.6141 15.3881 70.798 17.0183C68.861 18.8006 66.4235 19.9316 63.4894 20.4139C64.0328 21.1692 64.8492 21.5462 65.9399 21.5462C68.1187 21.5462 70.4951 20.9924 73.0678 19.8835C74.9138 19.1048 76.3672 18.2962 77.4267 17.4577L78.2886 18.59Z" fill="#1AB7EA"/>
<path d="M85.4815 15.3764C85.5114 14.5574 85.3983 13.8073 85.1409 13.1248C84.8835 12.4436 84.5117 12.1004 84.0294 12.1004C82.485 12.1004 81.2136 12.935 80.2165 14.6029C79.3676 15.9679 78.9126 17.4239 78.8541 18.9683C78.8229 19.7275 78.9594 20.3957 79.2623 20.9703C79.5938 21.6385 80.0631 21.9713 80.6702 21.9713C82.0313 21.9713 83.1974 21.1692 84.1659 19.5611C84.9823 18.226 85.4204 16.8311 85.4815 15.3764ZM90.6113 15.548C90.4904 18.3287 89.4621 20.7311 87.5251 22.7552C85.5881 24.7793 83.1805 25.792 80.3062 25.792C77.9155 25.792 76.0994 25.0211 74.8592 23.4793C73.9518 22.3314 73.4513 20.8962 73.3616 19.175C73.2082 16.575 74.1468 14.1882 76.1761 12.012C78.3549 9.59529 81.0927 8.38629 84.3921 8.38629C86.5098 8.38629 88.114 9.09739 89.2047 10.517C90.2343 11.817 90.7023 13.494 90.6113 15.548Z" fill="#1AB7EA"/>
</g>
<defs>
<clipPath id="clip0_326_3348">
<rect width="91" height="26" fill="white"/>
</clipPath>
</defs>
</svg>
