<svg width="114" height="33" viewBox="0 0 114 33" fill="none" xmlns="http://www.w3.org/2000/svg">
<g clip-path="url(#clip0_326_3348)">
<path d="M25.6012 15.359C25.4888 17.8247 23.7658 21.2024 20.4354 25.4888C16.9926 29.9657 14.0791 32.205 11.6948 32.205C10.2193 32.205 8.97022 30.8419 7.94911 28.114C7.26837 25.6142 6.586 23.1159 5.90525 20.6161C5.14797 17.8898 4.33531 16.5251 3.46565 16.5251C3.27674 16.5251 2.61228 16.9241 1.47717 17.7188L0.286682 16.1831C1.5358 15.0854 2.76863 13.9862 3.98191 12.8852C5.64957 11.4456 6.90031 10.6867 7.73577 10.6101C9.70634 10.4212 10.9196 11.7697 11.3756 14.6539C11.8675 17.7677 12.2078 19.7041 12.3984 20.4614C12.9667 23.0443 13.5921 24.3341 14.2745 24.3341C14.8054 24.3341 15.6018 23.4954 16.6636 21.8212C17.7238 20.1454 18.2922 18.8702 18.3687 17.9957C18.5202 16.5495 17.9518 15.8248 16.6636 15.8248C16.0561 15.8248 15.4308 15.9632 14.7891 16.2401C16.0333 12.1622 18.4111 10.1802 21.9223 10.2926C24.5247 10.3691 25.751 12.0579 25.6012 15.359Z" fill="#1AB7EA"/>
<path d="M36.2862 3.12357C36.2487 4.06814 35.7748 4.97362 34.8628 5.84165C33.8401 6.82205 32.6268 7.31225 31.2246 7.31225C29.0635 7.31225 28.0195 6.36931 28.0961 4.48342C28.1319 3.50302 28.7117 2.55845 29.8289 1.65297C30.9477 0.74911 32.1887 0.294739 33.5551 0.294739C34.3514 0.294739 35.0143 0.607424 35.5468 1.22954C36.0761 1.85165 36.3236 2.48354 36.2862 3.12357ZM41.2338 23.3488C40.1719 25.3552 38.7127 27.1743 36.8545 28.8029C34.314 30.9998 31.775 32.0991 29.2345 32.0991C28.057 32.0991 27.158 31.7197 26.5327 30.9607C25.9073 30.2035 25.6125 29.2198 25.6516 28.0065C25.6874 26.7574 26.0767 24.8243 26.816 22.2088C27.5554 19.5949 27.9267 18.1927 27.9267 18.0038C27.9267 17.0185 27.5847 16.5251 26.9023 16.5251C26.676 16.5251 26.0294 16.9241 24.9676 17.7188L23.6599 16.1831C24.8731 15.0854 26.0864 13.9861 27.2997 12.8852C28.9299 11.4456 30.1432 10.6867 30.9412 10.6101C32.1919 10.4977 33.1105 10.8658 33.6984 11.7159C34.2847 12.5677 34.5029 13.6702 34.3531 15.0301C33.8596 17.3345 33.3287 20.261 32.7603 23.8113C32.7212 25.4366 33.3091 26.2477 34.5224 26.2477C35.0533 26.2477 36.0012 25.6874 37.3659 24.5653C38.5043 23.6305 39.4326 22.7511 40.154 21.9271L41.2338 23.3488Z" fill="#1AB7EA"/>
<path d="M76.7497 23.3472C75.6879 25.3552 74.2287 27.1727 72.3705 28.8013C69.8299 30.9982 67.2893 32.0975 64.7504 32.0975C62.2847 32.0975 61.091 30.7344 61.1675 28.0049C61.2034 26.7916 61.4411 25.3357 61.8776 23.6306C62.3124 21.9238 62.5502 20.5982 62.5877 19.6503C62.6267 18.2123 62.1887 17.4908 61.275 17.4908C60.2865 17.4908 59.1074 18.6667 57.7378 21.0167C56.2932 23.4824 55.5115 25.8698 55.3991 28.1824C55.3177 29.8142 55.4806 31.065 55.8763 31.9363C53.2315 32.0128 51.3782 31.5764 50.3213 30.6285C49.3734 29.7947 48.9402 28.412 49.0168 26.4773C49.0493 25.264 49.2383 24.0507 49.5754 22.8374C49.9092 21.6242 50.0949 20.5444 50.1323 19.595C50.2138 18.1928 49.6959 17.4908 48.595 17.4908C47.6455 17.4908 46.6195 18.5722 45.5202 20.7333C44.4193 22.8928 43.8119 25.15 43.6979 27.5C43.6164 29.6253 43.763 31.1024 44.105 31.9363C41.5025 32.0128 39.6541 31.464 38.5613 30.2914C37.6526 29.3094 37.2389 27.816 37.3155 25.8112C37.3481 24.8292 37.5256 23.4579 37.8383 21.7007C38.1509 19.9418 38.3252 18.5722 38.361 17.5886C38.4425 16.9094 38.2633 16.5674 37.8497 16.5674C37.6217 16.5674 36.9767 16.9518 35.9149 17.7188L34.5502 16.1831C34.7407 16.0333 35.9328 14.9324 38.133 12.8852C39.7258 11.4081 40.8055 10.6492 41.3739 10.6118C42.3608 10.5352 43.1555 10.9424 43.763 11.8332C44.3688 12.724 44.6734 13.7582 44.6734 14.9324C44.6734 15.3118 44.6408 15.6717 44.5594 16.0137C45.1277 15.1424 45.7906 14.3819 46.5495 13.737C48.2937 12.2224 50.2463 11.3674 52.4075 11.1785C54.2657 11.027 55.5913 11.4619 56.3893 12.4862C57.0326 13.3201 57.3355 14.5154 57.2981 16.0691C57.5635 15.8427 57.8485 15.5952 58.1531 15.3297C59.0227 14.307 59.8761 13.4927 60.7099 12.8852C62.1121 11.8609 63.5746 11.2925 65.0891 11.1785C66.9099 11.027 68.2176 11.4602 69.014 12.4814C69.6947 13.3119 69.9993 14.5024 69.9244 16.0496C69.8853 17.1081 69.6296 18.6471 69.1557 20.6682C68.6801 22.6892 68.4456 23.8488 68.4456 24.1517C68.4065 24.9464 68.4831 25.4936 68.672 25.7949C68.8625 26.0978 69.3153 26.2477 70.0367 26.2477C70.5677 26.2477 71.5139 25.6874 72.8802 24.5637C74.017 23.6306 74.9469 22.7511 75.6683 21.9271L76.7497 23.3472Z" fill="#1AB7EA"/>
<path d="M85.1661 17.3508C85.202 16.3329 84.7867 15.8232 83.917 15.8232C82.7803 15.8232 81.6256 16.6065 80.4531 18.1716C79.2789 19.7366 78.673 21.2366 78.6356 22.6697C78.6144 22.6697 78.6144 22.9156 78.6356 23.4058C80.4905 22.7267 82.0995 21.6909 83.4627 20.2936C84.5603 19.0868 85.127 18.1048 85.1661 17.3508ZM98.0758 23.2886C96.9765 25.1077 94.8154 26.9235 91.5925 28.741C87.5748 31.0503 83.4969 32.2034 79.3652 32.2034C76.2953 32.2034 74.0935 31.1806 72.7678 29.1335C71.82 27.7313 71.3656 26.0636 71.4031 24.1305C71.4405 21.0607 72.8069 18.1423 75.4989 15.3737C78.4548 12.3413 81.9432 10.8235 85.9625 10.8235C89.6789 10.8235 91.6495 12.338 91.8775 15.3623C92.0289 17.2905 90.9671 19.2774 88.692 21.3196C86.2654 23.5524 83.2119 24.9692 79.5362 25.5734C80.2169 26.5196 81.2396 26.9919 82.606 26.9919C85.3355 26.9919 88.3125 26.2982 91.5355 24.909C93.8481 23.9335 95.6688 22.9205 96.9961 21.8701L98.0758 23.2886Z" fill="#1AB7EA"/>
<path d="M107.087 19.2627C107.124 18.2367 106.983 17.2971 106.66 16.4421C106.338 15.5887 105.872 15.1587 105.268 15.1587C103.333 15.1587 101.74 16.2043 100.491 18.2937C99.4276 20.0037 98.8576 21.8277 98.7843 23.7625C98.7452 24.7136 98.9162 25.5507 99.2957 26.2705C99.711 27.1076 100.299 27.5245 101.059 27.5245C102.765 27.5245 104.225 26.5197 105.439 24.5051C106.461 22.8326 107.01 21.0851 107.087 19.2627ZM113.513 19.4777C113.362 22.9612 112.073 25.9708 109.647 28.5065C107.22 31.0422 104.204 32.3109 100.603 32.3109C97.6085 32.3109 95.3334 31.3451 93.7797 29.4136C92.643 27.9756 92.016 26.1777 91.9036 24.0214C91.7114 20.7643 92.8873 17.7742 95.4295 15.048C98.159 12.0205 101.589 10.5059 105.722 10.5059C108.375 10.5059 110.385 11.3967 111.751 13.1751C113.041 14.8037 113.627 16.9046 113.513 19.4777Z" fill="#1AB7EA"/>
</g>
<defs>
<clipPath id="clip0_326_3348">
<rect width="114" height="32.5714" fill="white"/>
</clipPath>
</defs>
</svg>
