<svg width="137" height="32" viewBox="0 0 137 32" fill="none" xmlns="http://www.w3.org/2000/svg">
<g clip-path="url(#clip0_338_272)">
<path d="M26.9372 0.555412V1.2651H26.968C28.1405 1.32681 29.3439 1.38852 29.3439 2.83875C29.3439 3.51757 29.2205 3.88784 29.1279 4.22726L29.0971 4.31983L25.2092 16.1376H25.0241L21.2597 4.41239C21.0745 3.76442 20.8277 3.05474 20.8277 2.68447C20.8277 1.48109 21.8459 1.38852 23.2653 1.29595C23.2653 1.29595 23.2962 1.29595 23.327 1.29595V0.586268H12.7126V1.29595C14.3171 1.38852 14.7182 1.75879 15.1811 2.53019L16.3845 5.86262C16.3845 5.92433 12.3423 16.4462 12.3423 16.4462L12.3115 16.5079H12.1264L8.02252 3.94956C7.86824 3.48672 7.77568 3.11645 7.77568 2.77703C7.77568 1.45023 8.79392 1.35766 9.9973 1.2651V0.555412H0V1.29595C1.38851 1.51194 1.78964 1.88221 2.3759 3.54843C2.3759 3.54843 9.47275 23.7282 9.68874 24.2836H10.5527C10.5836 24.191 16.8473 8.1151 16.8473 8.1151H17.1867C17.1867 8.1151 22.9568 24.1601 22.9876 24.2836H23.8207C23.8516 24.191 30.7016 3.54843 30.7016 3.54843C31.1336 2.19077 31.9358 1.41938 33.0775 1.29595V0.555412H26.9372Z" fill="white"/>
<path d="M35.6385 0.524555V1.23424C37.2122 1.32681 38.8476 1.45023 38.8476 3.76442V21.1054C38.8476 23.2962 37.4282 23.4505 35.6385 23.6356V24.3453H47.5798V23.6356C45.7284 23.5122 44.309 23.3579 44.309 21.1054V3.76442C44.309 1.38852 45.9753 1.29595 47.5798 1.23424V0.524555H35.6385Z" fill="white"/>
<path d="M64.6431 7.62939e-06C64.4888 0.555413 64.3036 1.17253 63.4397 1.17253C63.0386 1.17253 62.5757 1.01825 61.9895 0.80226C61.0329 0.462845 59.7678 0.0308635 58.0399 0.0308635C50.8505 0.0308635 50.4802 5.64663 50.4802 6.75744C50.4802 8.33109 50.4802 11.2624 56.3428 14.0703L58.657 15.1811C60.7552 16.1685 62.5757 17.0324 62.5757 19.4701C62.5757 19.8712 62.4523 23.4196 58.1942 23.4196C53.103 23.4196 51.5293 18.2975 51.0665 16.0451H50.2025V24.407H51.0665C51.1899 23.8824 51.375 23.2345 52.1464 23.2345C52.5476 23.2345 53.0104 23.3887 53.5967 23.5739C54.6149 23.9133 55.9726 24.407 58.0399 24.407C63.8717 24.407 66.5253 20.7043 66.5253 17.2793C66.5253 12.9903 63.162 11.2007 62.7608 10.9847L57.7005 8.45451C54.7692 7.00429 54.0904 6.20203 54.0904 4.31983C54.0904 2.00564 56.0343 0.956539 57.8548 0.956539C61.65 0.956539 63.9025 4.38154 64.6739 7.3437H65.507V7.62939e-06H64.6431Z" fill="white"/>
<path d="M108.52 19.5009C108.52 23.1419 111.174 24.7773 113.642 24.7773C117.314 24.7773 119.104 21.846 120.184 20.0872C120.06 20.0255 119.381 19.6243 119.289 19.5626C118.425 20.8277 117.16 22.7099 115.277 22.7099C113.673 22.7099 112.871 21.7225 112.871 19.7786C112.871 19.1306 112.932 18.6987 113.087 18.0507L113.118 17.989H113.179C119.659 16.9707 122.035 13.4532 122.035 11.4475C122.035 9.04077 119.752 8.3928 118.517 8.3928C112.716 8.42366 108.52 15.0268 108.52 19.5009ZM113.334 16.9399C113.766 14.996 115.524 9.41104 117.9 9.41104C118.98 9.41104 118.98 10.3676 118.98 10.6761C118.98 11.8178 118.579 15.6748 113.426 17.0324L113.303 17.0633L113.334 16.9399Z" fill="white"/>
<path d="M133.081 10.2133C133.081 11.3858 133.606 11.7561 134.13 12.0955C134.562 12.4041 134.994 12.6818 134.994 13.4532C134.994 14.7183 133.575 17.4953 132.063 20.3957L132.032 20.4266L131.97 20.4574H131.816L131.384 17.8964C130.86 14.9342 129.78 9.99731 129.101 8.33109C127.774 8.67051 125.954 8.97906 124.041 9.13334V9.9356C125.367 9.9356 125.738 10.0282 126.91 15.2737C127.126 16.1993 128.484 22.7408 128.484 24.4996C128.484 26.4743 126.324 28.5725 125.367 28.5725C124.904 28.5725 124.257 28.1714 123.948 27.9554C123.362 27.5543 122.775 27.3692 122.158 27.3692C120.832 27.3692 120.4 28.5725 120.4 29.1588C120.4 29.9919 121.078 31.1644 122.374 31.1644C125.491 31.1644 128.36 28.5417 132.217 22.1237L132.279 22.0311C133.698 19.686 137 13.8543 137 10.3367C137 9.25677 135.982 8.26938 134.902 8.26938C133.914 8.33109 133.081 9.34933 133.081 10.2133Z" fill="white"/>
<path d="M108.242 9.59618V8.85564H101.176V9.59618C102.071 9.62703 102.966 9.68875 102.966 10.5527C102.966 11.6944 99.4792 14.4097 97.7822 15.7056L97.2576 16.1068L97.1033 15.9525C97.1033 15.9525 101.269 0.401134 101.331 0.185143C99.1707 0.586269 96.3628 0.987395 94.2646 1.20339V2.00564C95.036 1.97478 95.7457 1.97478 96.1468 2.34505C96.3628 2.56104 96.4554 2.83875 96.4554 3.23987C96.4554 3.70271 96.332 4.1964 96.1777 4.72095C96.1777 4.72095 94.1103 12.1881 92.5367 17.9273C87.754 22.4014 83.0948 23.111 80.688 23.111C74.2392 23.111 69.7651 18.7912 69.7651 12.5892C69.7651 5.92433 73.8997 1.2651 79.8549 1.2651C86.4272 1.2651 89.9448 6.94257 89.9448 11.0464C89.9448 13.7926 88.8957 16.1993 87.1986 17.5261C86.3347 18.1124 85.193 18.4518 84.113 18.4518C81.8297 18.4518 80.5955 16.5696 80.472 12.836V12.7435H87.97C87.6923 8.33109 85.841 6.10947 82.3851 6.10947C78.8058 6.10947 76.3065 9.04077 76.3065 13.2372C76.3065 15.6131 76.9545 17.4336 78.2196 18.6678C79.5464 19.9637 81.552 20.55 84.1439 20.4574C89.4202 20.2723 91.3024 15.1194 91.5801 12.0955C91.8578 8.91735 90.9322 6.07861 88.8648 3.82613C86.6432 1.38852 83.3725 7.62939e-06 79.8858 7.62939e-06C72.3569 7.62939e-06 66.7103 5.58492 66.7103 13.0212C66.7103 17.8347 70.9993 24.623 80.5955 24.623C84.0513 24.623 88.0934 24.0676 92.0738 20.0255C91.4259 22.3396 90.963 24.0984 90.8705 24.3761H94.9743C95.0051 24.2527 96.7022 17.8964 96.7022 17.8964C96.7331 17.8655 98.0907 16.909 98.0907 16.909L98.1833 16.8473L98.2142 16.9707C98.9855 21.198 99.8187 24.6847 102.472 24.6847C104.786 24.6847 106.206 22.0619 107.039 20.5192C107.039 20.5192 107.039 20.4883 107.07 20.4883C106.977 20.4266 106.514 20.2106 106.422 20.1797C106.391 20.2106 106.391 20.2414 106.391 20.2414C105.928 21.0437 105.157 22.3705 104.262 22.3705C103.028 22.3705 102.534 19.8712 101.454 14.3788L101.423 14.2863L103.645 12.3424C106.206 9.90474 107.039 9.75046 108.242 9.59618ZM80.2561 11.7252C80.2561 7.46712 81.3669 6.88086 82.4468 6.88086C83.3108 6.88086 83.8662 7.3437 84.113 8.33109C84.329 9.10248 84.3599 10.3367 84.3599 11.2624V11.7869H80.2252V11.7252H80.2561Z" fill="white"/>
</g>
<defs>
<clipPath id="clip0_338_272">
<rect width="137" height="31.1644" fill="white"/>
</clipPath>
</defs>
</svg>
